<svg xmlns="http://www.w3.org/2000/svg" xmlns:svg="http://www.w3.org/2000/svg" id="svg419" fill="none" stroke="none" stroke-linecap="square" stroke-miterlimit="10" version="1.1" viewBox="0 0 960 540"><metadata id="metadata425"/><clipPath id="p.0"><path id="path10" d="m0 0l960.0 0l0 540.0l-960.0 0l0 -540.0z" clip-rule="nonzero"/></clipPath><g id="g417" clip-path="url(#p.0)" transform="matrix(1.0160138,0,0,1.0169275,-5.7394334,-5.6337913)"><path id="path13" d="M 0,0 H 960 V 540 H 0 Z" style="fill:#fff;fill-rule:evenodd"/><path id="path15" d="m 99.11286,61.721786 h 812.126 V 487.95799 h -812.126 z" style="fill:#fff;fill-rule:evenodd"/><path id="path17" d="m 99.11286,61.721786 h 812.126 V 487.95799 h -812.126 z" style="fill-rule:evenodd;stroke:#741b47;stroke-width:1;stroke-linecap:butt;stroke-linejoin:round"/><path id="path19" d="m 139.76378,88.51181 h 541.57477 v 372.8504 H 139.76378 Z" style="fill:#fff;fill-rule:evenodd"/><path id="path21" d="m 139.76378,88.51181 h 541.57477 v 372.8504 H 139.76378 Z" style="fill-rule:evenodd;stroke:#c27ba0;stroke-width:1;stroke-linecap:butt;stroke-linejoin:round;stroke-dasharray:4,3,1,3"/><path id="path23" d="M 540.8504,238.14069 V 415.12232" style="fill-rule:nonzero;stroke:#15c;stroke-width:1;stroke-linecap:butt"/><path id="path25" d="M 619.6588,238.14069 V 415.12232" style="fill-rule:nonzero;stroke:#15c;stroke-width:1;stroke-linecap:butt"/><path id="path27" d="m 540.3517,238.63937 h 79.80579" style="fill-rule:nonzero;stroke:#15c;stroke-width:1;stroke-linecap:butt"/><path id="path29" d="m 540.3517,273.8362 h 79.80579" style="fill-rule:nonzero;stroke:#15c;stroke-width:1;stroke-linecap:butt"/><path id="path31" d="m 540.3517,309.03308 h 79.80579" style="fill-rule:nonzero;stroke:#15c;stroke-width:1;stroke-linecap:butt"/><path id="path33" d="m 540.3517,344.22992 h 79.80579" style="fill-rule:nonzero;stroke:#15c;stroke-width:1;stroke-linecap:butt"/><path id="path35" d="m 540.3517,379.42676 h 79.80579" style="fill-rule:nonzero;stroke:#15c;stroke-width:1;stroke-linecap:butt"/><path id="path37" d="m 540.3517,414.62363 h 79.80579" style="fill-rule:nonzero;stroke:#15c;stroke-width:1;stroke-linecap:butt"/><path id="path39" d="m 559.7812,260.43936 v -9.54686 h 1.29687 l 5.01563,7.49998 v -7.49998 h 1.20312 v 9.54686 h -1.29687 l -5.01563,-7.49998 v 7.49998 z m 9.04706,-3.45312 q 0,-1.92186 1.07812,-2.84374 0.89063,-0.76562 2.17188,-0.76562 1.42187,0 2.32812,0.9375 0.90625,0.92187 0.90625,2.57811 0,1.32812 -0.40625,2.09375 -0.39062,0.76562 -1.15625,1.1875 -0.76562,0.42187 -1.67187,0.42187 -1.45313,0 -2.35938,-0.92187 -0.89062,-0.9375 -0.89062,-2.6875 z m 1.20312,0 q 0,1.32812 0.57813,1.98437 0.59375,0.65625 1.46875,0.65625 0.875,0 1.45312,-0.65625 0.57813,-0.67187 0.57813,-2.03125 0,-1.28123 -0.59375,-1.93748 -0.57813,-0.65625 -1.4375,-0.65625 -0.875,0 -1.46875,0.65625 -0.57813,0.65625 -0.57813,1.98436 z m 11.13123,3.45312 v -0.875 q -0.65625,1.03125 -1.9375,1.03125 -0.8125,0 -1.51563,-0.45312 -0.6875,-0.45313 -1.07812,-1.26563 -0.375,-0.82812 -0.375,-1.89062 0,-1.03124 0.34375,-1.87499 0.34375,-0.84375 1.03125,-1.28125 0.70312,-0.45312 1.54687,-0.45312 0.625,0 1.10938,0.26562 0.5,0.25 0.79687,0.67188 v -3.42188 h 1.17188 v 9.54686 z m -3.70313,-3.45312 q 0,1.32812 0.5625,1.98437 0.5625,0.65625 1.32813,0.65625 0.76562,0 1.29687,-0.625 0.53125,-0.625 0.53125,-1.90625 0,-1.42186 -0.54687,-2.07811 -0.54688,-0.67187 -1.34375,-0.67187 -0.78125,0 -1.3125,0.64062 -0.51563,0.625 -0.51563,1.99999 z m 11.3656,1.23437 1.20313,0.14063 q -0.28125,1.0625 -1.0625,1.65625 -0.76563,0.57812 -1.96875,0.57812 -1.51563,0 -2.40625,-0.9375 -0.89063,-0.9375 -0.89063,-2.60937 0,-1.74999 0.89063,-2.70311 0.90625,-0.96875 2.34375,-0.96875 1.39062,0 2.26562,0.9375 0.875,0.9375 0.875,2.65623 0,0.10938 0,0.3125 h -5.15625 q 0.0625,1.14063 0.64063,1.75 0.57812,0.59375 1.4375,0.59375 0.65625,0 1.10937,-0.32812 0.45313,-0.34375 0.71875,-1.07813 z m -3.84375,-1.90625 h 3.85938 q -0.0781,-0.85936 -0.4375,-1.29686 -0.5625,-0.6875 -1.45313,-0.6875 -0.8125,0 -1.35937,0.54688 -0.54688,0.53125 -0.60938,1.43748 z m 9.89667,-0.57811 q 0,-1.6875 0.34375,-2.71875 0.35938,-1.03125 1.04688,-1.59375 0.6875,-0.5625 1.71875,-0.5625 0.78125,0 1.35937,0.3125 0.57813,0.29688 0.95313,0.89063 0.375,0.57812 0.59375,1.42187 0.21875,0.82813 0.21875,2.25 0,1.67186 -0.35938,2.70311 -0.34375,1.03125 -1.03125,1.59375 -0.67187,0.5625 -1.73437,0.5625 -1.375,0 -2.15625,-0.98438 -0.95313,-1.1875 -0.95313,-3.87498 z m 1.20313,0 q 0,2.34373 0.54687,3.12498 0.5625,0.78125 1.35938,0.78125 0.8125,0 1.35937,-0.78125 0.5625,-0.78125 0.5625,-3.12498 0,-2.35937 -0.5625,-3.125 -0.54687,-0.78125 -1.35937,-0.78125 -0.8125,0 -1.29688,0.6875 -0.60937,0.875 -0.60937,3.21875 z" style="fill:#000;fill-rule:nonzero"/><path id="path41" d="m 559.7812,295.63623 v -9.54688 h 1.29687 l 5.01563,7.5 v -7.5 h 1.20312 v 9.54688 h -1.29687 l -5.01563,-7.5 v 7.5 z m 9.04706,-3.45313 q 0,-1.92187 1.07812,-2.84375 0.89063,-0.76562 2.17188,-0.76562 1.42187,0 2.32812,0.9375 0.90625,0.92187 0.90625,2.57812 0,1.32813 -0.40625,2.09375 -0.39062,0.76563 -1.15625,1.1875 -0.76562,0.42188 -1.67187,0.42188 -1.45313,0 -2.35938,-0.92188 -0.89062,-0.9375 -0.89062,-2.6875 z m 1.20312,0 q 0,1.32813 0.57813,1.98438 0.59375,0.65625 1.46875,0.65625 0.875,0 1.45312,-0.65625 0.57813,-0.67188 0.57813,-2.03125 0,-1.28125 -0.59375,-1.9375 -0.57813,-0.65625 -1.4375,-0.65625 -0.875,0 -1.46875,0.65625 -0.57813,0.65625 -0.57813,1.98437 z m 11.13123,3.45313 v -0.875 q -0.65625,1.03125 -1.9375,1.03125 -0.8125,0 -1.51563,-0.45313 -0.6875,-0.45312 -1.07812,-1.26562 -0.375,-0.82813 -0.375,-1.89063 0,-1.03125 0.34375,-1.875 0.34375,-0.84375 1.03125,-1.28125 0.70312,-0.45312 1.54687,-0.45312 0.625,0 1.10938,0.26562 0.5,0.25 0.79687,0.67188 v -3.42188 h 1.17188 v 9.54688 z m -3.70313,-3.45313 q 0,1.32813 0.5625,1.98438 0.5625,0.65625 1.32813,0.65625 0.76562,0 1.29687,-0.625 0.53125,-0.625 0.53125,-1.90625 0,-1.42188 -0.54687,-2.07813 -0.54688,-0.67187 -1.34375,-0.67187 -0.78125,0 -1.3125,0.64062 -0.51563,0.625 -0.51563,2 z m 11.3656,1.23438 1.20313,0.14062 q -0.28125,1.0625 -1.0625,1.65625 -0.76563,0.57813 -1.96875,0.57813 -1.51563,0 -2.40625,-0.9375 -0.89063,-0.9375 -0.89063,-2.60938 0,-1.75 0.89063,-2.70312 0.90625,-0.96875 2.34375,-0.96875 1.39062,0 2.26562,0.9375 0.875,0.9375 0.875,2.65625 0,0.10937 0,0.3125 h -5.15625 q 0.0625,1.14062 0.64063,1.75 0.57812,0.59375 1.4375,0.59375 0.65625,0 1.10937,-0.32813 0.45313,-0.34375 0.71875,-1.07812 z m -3.84375,-1.90625 h 3.85938 q -0.0781,-0.85938 -0.4375,-1.29688 -0.5625,-0.6875 -1.45313,-0.6875 -0.8125,0 -1.35937,0.54688 -0.54688,0.53125 -0.60938,1.4375 z m 14.31855,4.125 H 598.128 v -7.46875 q -0.42187,0.40625 -1.10937,0.8125 -0.6875,0.40625 -1.23438,0.60937 v -1.14062 q 0.98438,-0.45313 1.71875,-1.10938 0.73438,-0.67187 1.03125,-1.28125 h 0.76563 z" style="fill:#000;fill-rule:nonzero"/><path id="path43" d="m 559.7812,330.83307 v -9.54687 h 1.29687 l 5.01563,7.5 v -7.5 h 1.20312 v 9.54687 h -1.29687 l -5.01563,-7.5 v 7.5 z m 9.04706,-3.45312 q 0,-1.92188 1.07812,-2.84375 0.89063,-0.76563 2.17188,-0.76563 1.42187,0 2.32812,0.9375 0.90625,0.92188 0.90625,2.57813 0,1.32812 -0.40625,2.09375 -0.39062,0.76562 -1.15625,1.1875 -0.76562,0.42187 -1.67187,0.42187 -1.45313,0 -2.35938,-0.92187 -0.89062,-0.9375 -0.89062,-2.6875 z m 1.20312,0 q 0,1.32812 0.57813,1.98437 0.59375,0.65625 1.46875,0.65625 0.875,0 1.45312,-0.65625 0.57813,-0.67187 0.57813,-2.03125 0,-1.28125 -0.59375,-1.9375 -0.57813,-0.65625 -1.4375,-0.65625 -0.875,0 -1.46875,0.65625 -0.57813,0.65625 -0.57813,1.98438 z m 11.13123,3.45312 v -0.875 q -0.65625,1.03125 -1.9375,1.03125 -0.8125,0 -1.51563,-0.45312 -0.6875,-0.45313 -1.07812,-1.26563 -0.375,-0.82812 -0.375,-1.89062 0,-1.03125 0.34375,-1.875 0.34375,-0.84375 1.03125,-1.28125 0.70312,-0.45313 1.54687,-0.45313 0.625,0 1.10938,0.26563 0.5,0.25 0.79687,0.67187 v -3.42187 h 1.17188 v 9.54687 z m -3.70313,-3.45312 q 0,1.32812 0.5625,1.98437 0.5625,0.65625 1.32813,0.65625 0.76562,0 1.29687,-0.625 0.53125,-0.625 0.53125,-1.90625 0,-1.42187 -0.54687,-2.07812 -0.54688,-0.67188 -1.34375,-0.67188 -0.78125,0 -1.3125,0.64063 -0.51563,0.625 -0.51563,2 z m 11.3656,1.23437 1.20313,0.14063 q -0.28125,1.0625 -1.0625,1.65625 -0.76563,0.57812 -1.96875,0.57812 -1.51563,0 -2.40625,-0.9375 -0.89063,-0.9375 -0.89063,-2.60937 0,-1.75 0.89063,-2.70313 0.90625,-0.96875 2.34375,-0.96875 1.39062,0 2.26562,0.9375 0.875,0.9375 0.875,2.65625 0,0.10938 0,0.3125 h -5.15625 q 0.0625,1.14063 0.64063,1.75 0.57812,0.59375 1.4375,0.59375 0.65625,0 1.10937,-0.32812 0.45313,-0.34375 0.71875,-1.07813 z m -3.84375,-1.90625 h 3.85938 q -0.0781,-0.85937 -0.4375,-1.29687 -0.5625,-0.6875 -1.45313,-0.6875 -0.8125,0 -1.35937,0.54687 -0.54688,0.53125 -0.60938,1.4375 z m 16.05292,3 v 1.125 h -6.29687 q -0.0156,-0.42187 0.14062,-0.8125 0.23438,-0.64062 0.76563,-1.26562 0.53125,-0.625 1.53125,-1.45313 1.5625,-1.26562 2.10937,-2.01562 0.54688,-0.75 0.54688,-1.40625 0,-0.70313 -0.5,-1.17188 -0.5,-0.48437 -1.29688,-0.48437 -0.85937,0 -1.375,0.51562 -0.5,0.5 -0.5,1.39063 l -1.20312,-0.10938 q 0.125,-1.35937 0.92187,-2.0625 0.8125,-0.70312 2.17188,-0.70312 1.375,0 2.17187,0.76562 0.8125,0.75 0.8125,1.875 0,0.57813 -0.23437,1.14063 -0.23438,0.54687 -0.78125,1.15625 -0.54688,0.60937 -1.8125,1.67187 -1.04688,0.89063 -1.35938,1.21875 -0.29687,0.3125 -0.48437,0.625 z" style="fill:#000;fill-rule:nonzero"/><path id="path45" d="m 577.7547,366.0299 v -1.32813 h 1.34375 v 1.32813 z m 3.703,0 v -1.32813 h 1.34375 v 1.32813 z" style="fill:#000;fill-rule:nonzero"/><path id="path47" d="m 559.7812,401.22678 v -9.54687 h 1.29687 l 5.01563,7.5 v -7.5 h 1.20312 v 9.54687 h -1.29687 l -5.01563,-7.5 v 7.5 z m 9.04706,-3.45312 q 0,-1.92188 1.07812,-2.84375 0.89063,-0.76563 2.17188,-0.76563 1.42187,0 2.32812,0.9375 0.90625,0.92188 0.90625,2.57813 0,1.32812 -0.40625,2.09375 -0.39062,0.76562 -1.15625,1.1875 -0.76562,0.42187 -1.67187,0.42187 -1.45313,0 -2.35938,-0.92187 -0.89062,-0.9375 -0.89062,-2.6875 z m 1.20312,0 q 0,1.32812 0.57813,1.98437 0.59375,0.65625 1.46875,0.65625 0.875,0 1.45312,-0.65625 0.57813,-0.67187 0.57813,-2.03125 0,-1.28125 -0.59375,-1.9375 -0.57813,-0.65625 -1.4375,-0.65625 -0.875,0 -1.46875,0.65625 -0.57813,0.65625 -0.57813,1.98438 z m 11.13123,3.45312 v -0.875 q -0.65625,1.03125 -1.9375,1.03125 -0.8125,0 -1.51563,-0.45312 -0.6875,-0.45313 -1.07812,-1.26563 -0.375,-0.82812 -0.375,-1.89062 0,-1.03125 0.34375,-1.875 0.34375,-0.84375 1.03125,-1.28125 0.70312,-0.45313 1.54687,-0.45313 0.625,0 1.10938,0.26563 0.5,0.25 0.79687,0.67187 v -3.42187 h 1.17188 v 9.54687 z m -3.70313,-3.45312 q 0,1.32812 0.5625,1.98437 0.5625,0.65625 1.32813,0.65625 0.76562,0 1.29687,-0.625 0.53125,-0.625 0.53125,-1.90625 0,-1.42187 -0.54687,-2.07812 -0.54688,-0.67188 -1.34375,-0.67188 -0.78125,0 -1.3125,0.64063 -0.51563,0.625 -0.51563,2 z m 11.3656,1.23437 1.20313,0.14063 q -0.28125,1.0625 -1.0625,1.65625 -0.76563,0.57812 -1.96875,0.57812 -1.51563,0 -2.40625,-0.9375 -0.89063,-0.9375 -0.89063,-2.60937 0,-1.75 0.89063,-2.70313 0.90625,-0.96875 2.34375,-0.96875 1.39062,0 2.26562,0.9375 0.875,0.9375 0.875,2.65625 0,0.10938 0,0.3125 h -5.15625 q 0.0625,1.14063 0.64063,1.75 0.57812,0.59375 1.4375,0.59375 0.65625,0 1.10937,-0.32812 0.45313,-0.34375 0.71875,-1.07813 z m -3.84375,-1.90625 h 3.85938 q -0.0781,-0.85937 -0.4375,-1.29687 -0.5625,-0.6875 -1.45313,-0.6875 -0.8125,0 -1.35937,0.54687 -0.54688,0.53125 -0.60938,1.4375 z m 10.2248,4.125 v -6.90625 h 1.0625 v 0.98438 q 0.75,-1.14063 2.1875,-1.14063 0.625,0 1.15625,0.21875 0.53125,0.21875 0.78125,0.59375 0.26562,0.35938 0.375,0.85938 0.0625,0.32812 0.0625,1.14062 v 4.25 h -1.17188 v -4.20312 q 0,-0.71875 -0.14062,-1.0625 -0.14063,-0.35938 -0.48438,-0.5625 -0.34375,-0.21875 -0.8125,-0.21875 -0.75,0 -1.29687,0.46875 -0.54688,0.46875 -0.54688,1.79687 v 3.78125 z" style="fill:#000;fill-rule:nonzero"/><path id="path49" d="m 570.17847,112.47769 h 85.98425 v 35.2126 h -85.98425 z" style="fill:#fdf8f8;fill-rule:evenodd"/><path id="path51" d="m 570.17847,112.47769 h 85.98425 v 35.2126 h -85.98425 z" style="fill-rule:evenodd;stroke:#595959;stroke-width:1;stroke-linecap:butt;stroke-linejoin:round"/><path id="path53" d="m 598.25494,126.88399 v -9.54688 h 1.29688 l 5.01562,7.5 v -7.5 h 1.20313 v 9.54688 h -1.29688 l -5.01562,-7.5 v 7.5 z m 9.047,-3.45313 q 0,-1.92187 1.07812,-2.84375 0.89063,-0.76562 2.17188,-0.76562 1.42187,0 2.32812,0.9375 0.90625,0.92187 0.90625,2.57812 0,1.32813 -0.40625,2.09375 -0.39062,0.76563 -1.15625,1.1875 -0.76562,0.42188 -1.67187,0.42188 -1.45313,0 -2.35938,-0.92188 -0.89062,-0.9375 -0.89062,-2.6875 z m 1.20312,0 q 0,1.32813 0.57813,1.98438 0.59375,0.65625 1.46875,0.65625 0.875,0 1.45312,-0.65625 0.57813,-0.67188 0.57813,-2.03125 0,-1.28125 -0.59375,-1.9375 -0.57813,-0.65625 -1.4375,-0.65625 -0.875,0 -1.46875,0.65625 -0.57813,0.65625 -0.57813,1.98437 z m 11.13123,3.45313 v -0.875 q -0.65625,1.03125 -1.9375,1.03125 -0.8125,0 -1.51563,-0.45313 -0.6875,-0.45312 -1.07812,-1.26562 -0.375,-0.82813 -0.375,-1.89063 0,-1.03125 0.34375,-1.875 0.34375,-0.84375 1.03125,-1.28125 0.70312,-0.45312 1.54687,-0.45312 0.625,0 1.10938,0.26562 0.5,0.25 0.79687,0.67188 v -3.42188 h 1.17188 v 9.54688 z m -3.70313,-3.45313 q 0,1.32813 0.5625,1.98438 0.5625,0.65625 1.32813,0.65625 0.76562,0 1.29687,-0.625 0.53125,-0.625 0.53125,-1.90625 0,-1.42188 -0.54687,-2.07813 -0.54688,-0.67187 -1.34375,-0.67187 -0.78125,0 -1.3125,0.64062 -0.51563,0.625 -0.51563,2 z m 11.3656,1.23438 1.20313,0.14062 q -0.28125,1.0625 -1.0625,1.65625 -0.76563,0.57813 -1.96875,0.57813 -1.51563,0 -2.40625,-0.9375 -0.89063,-0.9375 -0.89063,-2.60938 0,-1.75 0.89063,-2.70312 0.90625,-0.96875 2.34375,-0.96875 1.39062,0 2.26562,0.9375 0.875,0.9375 0.875,2.65625 0,0.10937 0,0.3125 h -5.15625 q 0.0625,1.14062 0.64063,1.75 0.57812,0.59375 1.4375,0.59375 0.65625,0 1.10937,-0.32813 0.45313,-0.34375 0.71875,-1.07812 z m -3.84375,-1.90625 h 3.85938 q -0.0781,-0.85938 -0.4375,-1.29688 -0.5625,-0.6875 -1.45313,-0.6875 -0.8125,0 -1.35937,0.54688 -0.54688,0.53125 -0.60938,1.4375 z" style="fill:#000;fill-rule:nonzero"/><path id="path55" d="m 596.41,142.88399 v -9.54688 h 1.29687 l 5.01563,7.5 v -7.5 h 1.20312 v 9.54688 h -1.29687 l -5.01563,-7.5 v 7.5 z m 14.00012,-0.85938 q -0.65625,0.5625 -1.26562,0.79688 -0.59375,0.21875 -1.28125,0.21875 -1.14063,0 -1.75,-0.54688 -0.60938,-0.5625 -0.60938,-1.4375 0,-0.5 0.21875,-0.92187 0.23438,-0.42188 0.60938,-0.67188 0.375,-0.25 0.84375,-0.39062 0.34375,-0.0781 1.04687,-0.17188 1.42188,-0.17187 2.09375,-0.40625 0,-0.23437 0,-0.29687 0,-0.71875 -0.32812,-1.01563 -0.45313,-0.39062 -1.34375,-0.39062 -0.8125,0 -1.21875,0.29687 -0.39063,0.28125 -0.57813,1.01563 l -1.14062,-0.15625 q 0.15625,-0.73438 0.51562,-1.1875 0.35938,-0.45313 1.03125,-0.6875 0.67188,-0.25 1.5625,-0.25 0.89063,0 1.4375,0.20312 0.5625,0.20313 0.8125,0.53125 0.26563,0.3125 0.375,0.79688 0.0469,0.29687 0.0469,1.07812 v 1.5625 q 0,1.625 0.0781,2.0625 0.0781,0.4375 0.29688,0.82813 h -1.21875 q -0.1875,-0.35938 -0.23438,-0.85938 z m -0.0937,-2.60937 q -0.64062,0.26562 -1.92187,0.4375 -0.71875,0.10937 -1.01563,0.25 -0.29687,0.125 -0.46875,0.375 -0.15625,0.25 -0.15625,0.54687 0,0.46875 0.34375,0.78125 0.35938,0.3125 1.04688,0.3125 0.67187,0 1.20312,-0.29687 0.53125,-0.29688 0.78125,-0.8125 0.1875,-0.39063 0.1875,-1.17188 z m 2.9906,3.46875 v -6.90625 h 1.04688 v 0.96875 q 0.32812,-0.51563 0.85937,-0.8125 0.54688,-0.3125 1.23438,-0.3125 0.78125,0 1.26562,0.3125 0.48438,0.3125 0.6875,0.89062 0.82813,-1.20312 2.14063,-1.20312 1.03125,0 1.57812,0.57812 0.5625,0.5625 0.5625,1.73438 v 4.75 h -1.17187 v -4.35938 q 0,-0.70312 -0.125,-1 -0.10938,-0.3125 -0.40625,-0.5 -0.29688,-0.1875 -0.70313,-0.1875 -0.71875,0 -1.20312,0.48438 -0.48438,0.48437 -0.48438,1.54687 v 4.01563 h -1.17187 v -4.48438 q 0,-0.78125 -0.29688,-1.17187 -0.28125,-0.39063 -0.92187,-0.39063 -0.5,0 -0.92188,0.26563 -0.42187,0.25 -0.60937,0.75 -0.1875,0.5 -0.1875,1.45312 v 3.57813 z m 15.83686,-2.21875 1.20312,0.14062 q -0.28125,1.0625 -1.0625,1.65625 -0.76562,0.57813 -1.96875,0.57813 -1.51562,0 -2.40625,-0.9375 -0.89062,-0.9375 -0.89062,-2.60938 0,-1.75 0.89062,-2.70312 0.90625,-0.96875 2.34375,-0.96875 1.39063,0 2.26563,0.9375 0.875,0.9375 0.875,2.65625 0,0.10937 0,0.3125 h -5.15625 q 0.0625,1.14062 0.64062,1.75 0.57813,0.59375 1.4375,0.59375 0.65625,0 1.10938,-0.32813 0.45312,-0.34375 0.71875,-1.07812 z m -3.84375,-1.90625 h 3.85937 q -0.0781,-0.85938 -0.4375,-1.29688 -0.5625,-0.6875 -1.45312,-0.6875 -0.8125,0 -1.35938,0.54688 -0.54687,0.53125 -0.60937,1.4375 z" style="fill:#000;fill-rule:nonzero"/><path id="path57" d="M 164.11023,161.09973 H 272.51968 V 416.65878 H 164.11023 Z" style="fill:#d9ead3;fill-rule:evenodd"/><path id="path59" d="M 164.11023,161.09973 H 272.51968 V 416.65878 H 164.11023 Z" style="fill-rule:evenodd;stroke:#595959;stroke-width:1;stroke-linecap:butt;stroke-linejoin:round"/><path id="path61" d="m 186.03761,297.92676 v -11.48438 h 1.28125 v 1.07813 q 0.45312,-0.64063 1.01562,-0.95313 0.57813,-0.3125 1.39063,-0.3125 1.0625,0 1.875,0.54688 0.8125,0.54687 1.21875,1.54687 0.42187,0.98438 0.42187,2.17188 0,1.28125 -0.46875,2.29687 -0.45312,1.01563 -1.32812,1.5625 -0.85938,0.54688 -1.82813,0.54688 -0.70312,0 -1.26562,-0.29688 -0.54688,-0.29687 -0.90625,-0.75 v 4.04688 z m 1.26562,-7.29688 q 0,1.60938 0.64063,2.375 0.65625,0.76563 1.57812,0.76563 0.9375,0 1.60938,-0.79688 0.67187,-0.79687 0.67187,-2.45312 0,-1.59375 -0.65625,-2.375 -0.65625,-0.79688 -1.5625,-0.79688 -0.89062,0 -1.59375,0.84375 -0.6875,0.84375 -0.6875,2.4375 z m 7.61719,4.10938 v -8.29688 h 1.26563 v 1.25 q 0.48437,-0.875 0.89062,-1.15625 0.40625,-0.28125 0.90625,-0.28125 0.70313,0 1.4375,0.45313 l -0.48437,1.29687 q -0.51563,-0.29687 -1.03125,-0.29687 -0.45313,0 -0.82813,0.28125 -0.35937,0.26562 -0.51562,0.76562 -0.23438,0.75 -0.23438,1.64063 v 4.34375 z m 4.8125,-4.15625 q 0,-2.29688 1.28125,-3.40625 1.07813,-0.92188 2.60938,-0.92188 1.71875,0 2.79687,1.125 1.09375,1.10938 1.09375,3.09375 0,1.59375 -0.48437,2.51563 -0.48438,0.92187 -1.40625,1.4375 -0.90625,0.5 -2,0.5 -1.73438,0 -2.8125,-1.10938 -1.07813,-1.125 -1.07813,-3.23437 z m 1.45313,0 q 0,1.59375 0.6875,2.39062 0.70312,0.79688 1.75,0.79688 1.04687,0 1.73437,-0.79688 0.70313,-0.79687 0.70313,-2.4375 0,-1.53125 -0.70313,-2.32812 -0.6875,-0.79688 -1.73437,-0.79688 -1.04688,0 -1.75,0.79688 -0.6875,0.78125 -0.6875,2.375 z m 13.38281,1.10937 1.39062,0.1875 q -0.23437,1.42188 -1.17187,2.23438 -0.92188,0.8125 -2.28125,0.8125 -1.70313,0 -2.75,-1.10938 -1.03125,-1.125 -1.03125,-3.20312 0,-1.34375 0.4375,-2.34375 0.45312,-1.01563 1.35937,-1.51563 0.92188,-0.5 1.98438,-0.5 1.35937,0 2.21875,0.6875 0.85937,0.67188 1.09375,1.9375 l -1.35938,0.20313 q -0.20312,-0.82813 -0.70312,-1.25 -0.48438,-0.42188 -1.1875,-0.42188 -1.0625,0 -1.73438,0.76563 -0.65625,0.75 -0.65625,2.40625 0,1.67187 0.64063,2.4375 0.64062,0.75 1.67187,0.75 0.82813,0 1.375,-0.5 0.5625,-0.51563 0.70313,-1.57813 z m 8.26562,0.375 1.45313,0.17188 q -0.34375,1.28125 -1.28125,1.98437 -0.92188,0.70313 -2.35938,0.70313 -1.82812,0 -2.89062,-1.125 -1.0625,-1.125 -1.0625,-3.14063 0,-2.09375 1.07812,-3.25 1.07813,-1.15625 2.79688,-1.15625 1.65625,0 2.70312,1.14063 1.0625,1.125 1.0625,3.17187 0,0.125 0,0.375 h -6.1875 q 0.0781,1.375 0.76563,2.10938 0.70312,0.71875 1.73437,0.71875 0.78125,0 1.32813,-0.40625 0.54687,-0.40625 0.85937,-1.29688 z m -4.60937,-2.28125 h 4.625 q -0.0937,-1.04687 -0.53125,-1.5625 -0.67188,-0.8125 -1.73438,-0.8125 -0.96875,0 -1.64062,0.65625 -0.65625,0.64063 -0.71875,1.71875 z m 7.27344,2.46875 1.39062,-0.21875 q 0.10938,0.84375 0.64063,1.29688 0.54687,0.4375 1.5,0.4375 0.96875,0 1.4375,-0.39063 0.46875,-0.40625 0.46875,-0.9375 0,-0.46875 -0.40625,-0.75 -0.29688,-0.1875 -1.4375,-0.46875 -1.54688,-0.39062 -2.15625,-0.67187 -0.59375,-0.29688 -0.90625,-0.79688 -0.29688,-0.5 -0.29688,-1.10937 0,-0.5625 0.25,-1.03125 0.25,-0.46875 0.6875,-0.78125 0.32813,-0.25 0.89063,-0.40625 0.57812,-0.17188 1.21875,-0.17188 0.98437,0 1.71875,0.28125 0.73437,0.28125 1.07812,0.76563 0.35938,0.46875 0.5,1.28125 l -1.375,0.1875 q -0.0937,-0.64063 -0.54687,-1 -0.45313,-0.35938 -1.26563,-0.35938 -0.96875,0 -1.39062,0.32813 -0.40625,0.3125 -0.40625,0.73437 0,0.28125 0.17187,0.5 0.17188,0.21875 0.53125,0.375 0.21875,0.0781 1.25,0.35938 1.48438,0.39062 2.07813,0.65625 0.59375,0.25 0.92187,0.73437 0.34375,0.48438 0.34375,1.20313 0,0.70312 -0.42187,1.32812 -0.40625,0.60938 -1.1875,0.95313 -0.76563,0.34375 -1.73438,0.34375 -1.625,0 -2.46875,-0.67188 -0.84375,-0.67187 -1.07812,-2 z m 8,0 1.39062,-0.21875 q 0.10938,0.84375 0.64063,1.29688 0.54687,0.4375 1.5,0.4375 0.96875,0 1.4375,-0.39063 0.46875,-0.40625 0.46875,-0.9375 0,-0.46875 -0.40625,-0.75 -0.29688,-0.1875 -1.4375,-0.46875 -1.54688,-0.39062 -2.15625,-0.67187 -0.59375,-0.29688 -0.90625,-0.79688 -0.29688,-0.5 -0.29688,-1.10937 0,-0.5625 0.25,-1.03125 0.25,-0.46875 0.6875,-0.78125 0.32813,-0.25 0.89063,-0.40625 0.57812,-0.17188 1.21875,-0.17188 0.98437,0 1.71875,0.28125 0.73437,0.28125 1.07812,0.76563 0.35938,0.46875 0.5,1.28125 l -1.375,0.1875 q -0.0937,-0.64063 -0.54687,-1 -0.45313,-0.35938 -1.26563,-0.35938 -0.96875,0 -1.39062,0.32813 -0.40625,0.3125 -0.40625,0.73437 0,0.28125 0.17187,0.5 0.17188,0.21875 0.53125,0.375 0.21875,0.0781 1.25,0.35938 1.48438,0.39062 2.07813,0.65625 0.59375,0.25 0.92187,0.73437 0.34375,0.48438 0.34375,1.20313 0,0.70312 -0.42187,1.32812 -0.40625,0.60938 -1.1875,0.95313 -0.76563,0.34375 -1.73438,0.34375 -1.625,0 -2.46875,-0.67188 -0.84375,-0.67187 -1.07812,-2 z m 11.25,5.85938 q -1.17188,-1.46875 -1.98438,-3.4375 -0.79687,-1.98438 -0.79687,-4.09375 0,-1.85938 0.60937,-3.5625 0.70313,-1.96875 2.17188,-3.9375 h 1 q -0.9375,1.625 -1.25,2.32812 -0.46875,1.07813 -0.75,2.25 -0.32813,1.45313 -0.32813,2.9375 0,3.75 2.32813,7.51563 z m 3.5625,0 h -1.01563 q 2.34375,-3.76563 2.34375,-7.51563 0,-1.46875 -0.34375,-2.92187 -0.26562,-1.17188 -0.73437,-2.25 -0.3125,-0.70313 -1.26563,-2.34375 h 1.01563 q 1.46875,1.96875 2.17187,3.9375 0.59375,1.70312 0.59375,3.5625 0,2.10937 -0.8125,4.09375 -0.79687,1.96875 -1.95312,3.4375 z" style="fill:#000;fill-rule:nonzero"/><path id="path63" d="m 308.11023,161.09973 h 161.48032 v 141.7008 H 308.11023 Z" style="fill:#cfe2f3;fill-rule:evenodd"/><path id="path65" d="m 308.11023,161.09973 h 161.48032 v 141.7008 H 308.11023 Z" style="fill-rule:evenodd;stroke:#595959;stroke-width:1;stroke-linecap:butt;stroke-linejoin:round"/><path id="path67" d="m 372.79996,224.29451 1.51562,0.375 q -0.46875,1.875 -1.71875,2.85937 -1.23437,0.98438 -3.01562,0.98438 -1.85938,0 -3.01563,-0.75 -1.15625,-0.76563 -1.76562,-2.1875 -0.60938,-1.4375 -0.60938,-3.07813 0,-1.79687 0.6875,-3.125 0.6875,-1.32812 1.9375,-2.01562 1.26563,-0.70313 2.78125,-0.70313 1.71875,0 2.89063,0.875 1.17187,0.875 1.64062,2.46875 l -1.5,0.34375 q -0.39062,-1.25 -1.15625,-1.8125 -0.75,-0.57812 -1.90625,-0.57812 -1.3125,0 -2.20312,0.64062 -0.89063,0.625 -1.25,1.70313 -0.35938,1.0625 -0.35938,2.1875 0,1.46875 0.42188,2.5625 0.4375,1.07812 1.32812,1.625 0.90625,0.53125 1.95313,0.53125 1.26562,0 2.14062,-0.73438 0.89063,-0.73437 1.20313,-2.17187 z m 2.67969,-0.14063 q 0,-2.29687 1.28125,-3.40625 1.07812,-0.92187 2.60937,-0.92187 1.71875,0 2.79688,1.125 1.09375,1.10937 1.09375,3.09375 0,1.59375 -0.48438,2.51562 -0.48437,0.92188 -1.40625,1.4375 -0.90625,0.5 -2,0.5 -1.73437,0 -2.8125,-1.10937 -1.07812,-1.125 -1.07812,-3.23438 z m 1.45312,0 q 0,1.59375 0.6875,2.39063 0.70313,0.79687 1.75,0.79687 1.04688,0 1.73438,-0.79687 0.70312,-0.79688 0.70312,-2.4375 0,-1.53125 -0.70312,-2.32813 -0.6875,-0.79687 -1.73438,-0.79687 -1.04687,0 -1.75,0.79687 -0.6875,0.78125 -0.6875,2.375 z m 7.97656,4.15625 v -8.29687 h 1.26563 v 1.17187 q 0.90625,-1.35937 2.64062,-1.35937 0.75,0 1.375,0.26562 0.625,0.26563 0.9375,0.70313 0.3125,0.4375 0.4375,1.04687 0.0781,0.39063 0.0781,1.35938 v 5.10937 h -1.40625 v -5.04687 q 0,-0.85938 -0.17188,-1.28125 -0.15625,-0.4375 -0.57812,-0.6875 -0.40625,-0.25 -0.96875,-0.25 -0.90625,0 -1.5625,0.57812 -0.64063,0.5625 -0.64063,2.15625 v 4.53125 z m 11.96094,-1.26562 0.20313,1.25 q -0.59375,0.125 -1.0625,0.125 -0.76563,0 -1.1875,-0.23438 -0.42188,-0.25 -0.59375,-0.64062 -0.17188,-0.40625 -0.17188,-1.67188 v -4.76562 h -1.03125 v -1.09375 h 1.03125 v -2.0625 l 1.40625,-0.84375 v 2.90625 h 1.40625 v 1.09375 h -1.40625 v 4.84375 q 0,0.60937 0.0625,0.78125 0.0781,0.17187 0.25,0.28125 0.17188,0.0937 0.48438,0.0937 0.23437,0 0.60937,-0.0625 z m 7.05469,-1.40625 1.45312,0.17187 q -0.34375,1.28125 -1.28125,1.98438 -0.92187,0.70312 -2.35937,0.70312 -1.82813,0 -2.89063,-1.125 -1.0625,-1.125 -1.0625,-3.14062 0,-2.09375 1.07813,-3.25 1.07812,-1.15625 2.79687,-1.15625 1.65625,0 2.70313,1.14062 1.0625,1.125 1.0625,3.17188 0,0.125 0,0.375 h -6.1875 q 0.0781,1.375 0.76562,2.10937 0.70313,0.71875 1.73438,0.71875 0.78125,0 1.32812,-0.40625 0.54688,-0.40625 0.85938,-1.29687 z m -4.60938,-2.28125 h 4.625 q -0.0937,-1.04688 -0.53125,-1.5625 -0.67187,-0.8125 -1.73437,-0.8125 -0.96875,0 -1.64063,0.65625 -0.65625,0.64062 -0.71875,1.71875 z m 6.89844,4.95312 3.03125,-4.3125 -2.8125,-3.98437 h 1.76563 l 1.26562,1.9375 q 0.35938,0.5625 0.57813,0.9375 0.34375,-0.51563 0.64062,-0.92188 l 1.39063,-1.95312 h 1.6875 l -2.875,3.90625 3.09375,4.39062 h -1.73438 l -1.70312,-2.57812 -0.45313,-0.70313 -2.17187,3.28125 z m 12,-1.26562 0.20313,1.25 q -0.59375,0.125 -1.0625,0.125 -0.76563,0 -1.1875,-0.23438 -0.42188,-0.25 -0.59375,-0.64062 -0.17188,-0.40625 -0.17188,-1.67188 v -4.76562 h -1.03125 v -1.09375 h 1.03125 v -2.0625 l 1.40625,-0.84375 v 2.90625 h 1.40625 v 1.09375 h -1.40625 v 4.84375 q 0,0.60937 0.0625,0.78125 0.0781,0.17187 0.25,0.28125 0.17188,0.0937 0.48438,0.0937 0.23437,0 0.60937,-0.0625 z" style="fill:#000;fill-rule:nonzero"/><path id="path69" d="M 364.5812,247.31013 V 235.857 h 2.28125 l 2.71875,8.10938 q 0.375,1.125 0.54688,1.6875 0.1875,-0.625 0.60937,-1.82813 l 2.73438,-7.96875 h 2.04687 v 11.45313 h -1.46875 v -9.59375 l -3.32812,9.59375 h -1.35938 l -3.3125,-9.75 v 9.75 z m 18.875,-2.67188 1.45313,0.17188 q -0.34375,1.28125 -1.28125,1.98437 -0.92188,0.70313 -2.35938,0.70313 -1.82812,0 -2.89062,-1.125 -1.0625,-1.125 -1.0625,-3.14063 0,-2.09375 1.07812,-3.25 1.07813,-1.15625 2.79688,-1.15625 1.65625,0 2.70312,1.14063 1.0625,1.125 1.0625,3.17187 0,0.125 0,0.375 h -6.1875 q 0.0781,1.375 0.76563,2.10938 0.70312,0.71875 1.73437,0.71875 0.78125,0 1.32813,-0.40625 0.54687,-0.40625 0.85937,-1.29688 z m -4.60937,-2.28125 h 4.625 q -0.0937,-1.04687 -0.53125,-1.5625 -0.67188,-0.8125 -1.73438,-0.8125 -0.96875,0 -1.64062,0.65625 -0.65625,0.64063 -0.71875,1.71875 z m 7.83593,4.95313 v -8.29688 h 1.25 v 1.15625 q 0.39063,-0.60937 1.03125,-0.96875 0.65625,-0.375 1.48438,-0.375 0.92187,0 1.51562,0.39063 0.59375,0.375 0.82813,1.0625 0.98437,-1.45313 2.5625,-1.45313 1.23437,0 1.89062,0.6875 0.67188,0.67188 0.67188,2.09375 v 5.70313 h -1.39063 v -5.23438 q 0,-0.84375 -0.14062,-1.20312 -0.14063,-0.375 -0.5,-0.59375 -0.35938,-0.23438 -0.84375,-0.23438 -0.875,0 -1.45313,0.57813 -0.57812,0.57812 -0.57812,1.85937 v 4.82813 h -1.40625 v -5.39063 q 0,-0.9375 -0.34375,-1.40625 -0.34375,-0.46875 -1.125,-0.46875 -0.59375,0 -1.09375,0.3125 -0.5,0.3125 -0.73438,0.92188 -0.21875,0.59375 -0.21875,1.71875 v 4.3125 z m 12.79688,-4.15625 q 0,-2.29688 1.28125,-3.40625 1.07812,-0.92188 2.60937,-0.92188 1.71875,0 2.79688,1.125 1.09375,1.10938 1.09375,3.09375 0,1.59375 -0.48438,2.51563 -0.48437,0.92187 -1.40625,1.4375 -0.90625,0.5 -2,0.5 -1.73437,0 -2.8125,-1.10938 -1.07812,-1.125 -1.07812,-3.23437 z m 1.45312,0 q 0,1.59375 0.6875,2.39062 0.70313,0.79688 1.75,0.79688 1.04688,0 1.73438,-0.79688 0.70312,-0.79687 0.70312,-2.4375 0,-1.53125 -0.70312,-2.32812 -0.6875,-0.79688 -1.73438,-0.79688 -1.04687,0 -1.75,0.79688 -0.6875,0.78125 -0.6875,2.375 z m 7.96094,4.15625 v -8.29688 h 1.26563 v 1.25 q 0.48437,-0.875 0.89062,-1.15625 0.40625,-0.28125 0.90625,-0.28125 0.70313,0 1.4375,0.45313 l -0.48437,1.29687 q -0.51563,-0.29687 -1.03125,-0.29687 -0.45313,0 -0.82813,0.28125 -0.35937,0.26562 -0.51562,0.76562 -0.23438,0.75 -0.23438,1.64063 v 4.34375 z m 5.28125,3.20312 -0.15625,-1.32812 q 0.45313,0.125 0.79688,0.125 0.46875,0 0.75,-0.15625 0.28125,-0.15625 0.46875,-0.4375 0.125,-0.20313 0.42187,-1.04688 0.0469,-0.10937 0.125,-0.34375 l -3.14062,-8.3125 h 1.51562 l 1.71875,4.79688 q 0.34375,0.92187 0.60938,1.92187 0.23437,-0.96875 0.57812,-1.89062 l 1.76563,-4.82813 h 1.40625 l -3.15625,8.4375 q -0.5,1.375 -0.78125,1.89063 -0.375,0.6875 -0.85938,1.01562 -0.48437,0.32813 -1.15625,0.32813 -0.40625,0 -0.90625,-0.17188 z" style="fill:#000;fill-rule:nonzero"/><path id="path71" d="m 308.11023,334.86877 h 74.4567 v 80.97638 h -74.4567 z" style="fill:#f4cccc;fill-rule:evenodd"/><path id="path73" d="m 308.11023,334.86877 h 74.4567 v 80.97638 h -74.4567 z" style="fill-rule:evenodd;stroke:#595959;stroke-width:1;stroke-linecap:butt;stroke-linejoin:round"/><path id="path75" d="m 330.8464,371.3732 v -1.60938 h 1.40625 v 1.60938 z m 0,9.84375 v -8.29688 h 1.40625 v 8.29688 z m 3.55469,0 v -8.29688 h 1.26562 v 1.17188 q 0.90625,-1.35938 2.64063,-1.35938 0.75,0 1.375,0.26563 0.625,0.26562 0.9375,0.70312 0.3125,0.4375 0.4375,1.04688 0.0781,0.39062 0.0781,1.35937 v 5.10938 h -1.40625 v -5.04688 q 0,-0.85937 -0.17187,-1.28125 -0.15625,-0.4375 -0.57813,-0.6875 -0.40625,-0.25 -0.96875,-0.25 -0.90625,0 -1.5625,0.57813 -0.64062,0.5625 -0.64062,2.15625 v 4.53125 z m 8.89844,-9.84375 v -1.60938 h 1.40625 v 1.60938 z m 0,9.84375 v -8.29688 h 1.40625 v 8.29688 z m 6.61718,-1.26563 0.20313,1.25 q -0.59375,0.125 -1.0625,0.125 -0.76563,0 -1.1875,-0.23437 -0.42188,-0.25 -0.59375,-0.64063 -0.17188,-0.40625 -0.17188,-1.67187 v -4.76563 h -1.03125 v -1.09375 h 1.03125 v -2.0625 l 1.40625,-0.84375 v 2.90625 h 1.40625 v 1.09375 h -1.40625 v 4.84375 q 0,0.60938 0.0625,0.78125 0.0781,0.17188 0.25,0.28125 0.17188,0.0937 0.48438,0.0937 0.23437,0 0.60937,-0.0625 z m 4.07032,4.64063 q -1.17188,-1.46875 -1.98438,-3.4375 -0.79687,-1.98438 -0.79687,-4.09375 0,-1.85938 0.60937,-3.5625 0.70313,-1.96875 2.17188,-3.9375 h 1 q -0.9375,1.625 -1.25,2.32812 -0.46875,1.07813 -0.75,2.25 -0.32813,1.45313 -0.32813,2.9375 0,3.75 2.32813,7.51563 z m 3.5625,0 h -1.01563 q 2.34375,-3.76563 2.34375,-7.51563 0,-1.46875 -0.34375,-2.92187 -0.26562,-1.17188 -0.73437,-2.25 -0.3125,-0.70313 -1.26563,-2.34375 h 1.01563 q 1.46875,1.96875 2.17187,3.9375 0.59375,1.70312 0.59375,3.5625 0,2.10937 -0.8125,4.09375 -0.79687,1.96875 -1.95312,3.4375 z" style="fill:#000;fill-rule:nonzero"/><path id="path77" d="m 395.14435,334.86877 h 74.4567 v 80.97638 h -74.4567 z" style="fill:#f4cccc;fill-rule:evenodd"/><path id="path79" d="m 395.14435,334.86877 h 74.4567 v 80.97638 h -74.4567 z" style="fill-rule:evenodd;stroke:#595959;stroke-width:1;stroke-linecap:butt;stroke-linejoin:round"/><path id="path81" d="m 418.20865,381.21695 v -7.20313 h -1.23438 v -1.09375 h 1.23438 v -0.89062 q 0,-0.82813 0.15625,-1.23438 0.20312,-0.54687 0.70312,-0.89062 0.51563,-0.34375 1.4375,-0.34375 0.59375,0 1.3125,0.14062 l -0.20312,1.23438 q -0.4375,-0.0781 -0.82813,-0.0781 -0.64062,0 -0.90625,0.28125 -0.26562,0.26563 -0.26562,1.01563 v 0.76562 h 1.60937 v 1.09375 h -1.60937 v 7.20313 z m 4.11719,-9.84375 v -1.60938 h 1.40625 v 1.60938 z m 0,9.84375 v -8.29688 h 1.40625 v 8.29688 z m 3.55468,0 v -8.29688 h 1.26563 v 1.17188 q 0.90625,-1.35938 2.64062,-1.35938 0.75,0 1.375,0.26563 0.625,0.26562 0.9375,0.70312 0.3125,0.4375 0.4375,1.04688 0.0781,0.39062 0.0781,1.35937 v 5.10938 h -1.40625 v -5.04688 q 0,-0.85937 -0.17188,-1.28125 -0.15625,-0.4375 -0.57812,-0.6875 -0.40625,-0.25 -0.96875,-0.25 -0.90625,0 -1.5625,0.57813 -0.64063,0.5625 -0.64063,2.15625 v 4.53125 z m 8.89844,-9.84375 v -1.60938 h 1.40625 v 1.60938 z m 0,9.84375 v -8.29688 h 1.40625 v 8.29688 z m 6.24219,3.375 q -1.17188,-1.46875 -1.98438,-3.4375 -0.79687,-1.98438 -0.79687,-4.09375 0,-1.85938 0.60937,-3.5625 0.70313,-1.96875 2.17188,-3.9375 h 1 q -0.9375,1.625 -1.25,2.32812 -0.46875,1.07813 -0.75,2.25 -0.32813,1.45313 -0.32813,2.9375 0,3.75 2.32813,7.51563 z m 3.5625,0 h -1.01563 q 2.34375,-3.76563 2.34375,-7.51563 0,-1.46875 -0.34375,-2.92187 -0.26562,-1.17188 -0.73437,-2.25 -0.3125,-0.70313 -1.26563,-2.34375 h 1.01563 q 1.46875,1.96875 2.17187,3.9375 0.59375,1.70312 0.59375,3.5625 0,2.10937 -0.8125,4.09375 -0.79687,1.96875 -1.95312,3.4375 z" style="fill:#000;fill-rule:nonzero"/><path id="path83" d="m 272.51968,240.83989 6.33072,-6.3307 v 3.16536 h 22.92914 v -3.16536 l 6.33069,6.3307 -6.33069,6.33072 v -3.16536 H 278.8504 v 3.16536 z" style="fill:#eee;fill-rule:evenodd"/><path id="path85" d="m 272.51968,240.83989 6.33072,-6.3307 v 3.16536 h 22.92914 v -3.16536 l 6.33069,6.3307 -6.33069,6.33072 v -3.16536 H 278.8504 v 3.16536 z" style="fill-rule:evenodd;stroke:#595959;stroke-width:1;stroke-linecap:butt;stroke-linejoin:round"/><path id="path87" d="m 344.71915,308.78217 3.16537,-3.16537 3.16535,3.16537 h -1.58267 v 18.86612 h 1.58267 l -3.16535,3.16537 -3.16537,-3.16537 h 1.5827 v -18.86612 z" style="fill:#eee;fill-rule:evenodd"/><path id="path89" d="m 344.71915,308.78217 3.16537,-3.16537 3.16535,3.16537 h -1.58267 v 18.86612 h 1.58267 l -3.16535,3.16537 -3.16537,-3.16537 h 1.5827 v -18.86612 z" style="fill-rule:evenodd;stroke:#595959;stroke-width:1;stroke-linecap:butt;stroke-linejoin:round"/><path id="path91" d="m 424.71915,308.78217 3.16537,-3.16537 3.16535,3.16537 h -1.58267 v 18.86612 h 1.58267 l -3.16535,3.16537 -3.16537,-3.16537 h 1.5827 v -18.86612 z" style="fill:#eee;fill-rule:evenodd"/><path id="path93" d="m 424.71915,308.78217 3.16537,-3.16537 3.16535,3.16537 h -1.58267 v 18.86612 h 1.58267 l -3.16535,3.16537 -3.16537,-3.16537 h 1.5827 v -18.86612 z" style="fill-rule:evenodd;stroke:#595959;stroke-width:1;stroke-linecap:butt;stroke-linejoin:round"/><path id="path95" d="m 532.8373,210.97375 h 99.40155 v 27.46457 H 532.8373 Z" style="fill:#000;fill-opacity:0;fill-rule:evenodd"/><path id="path97" d="m 542.7123,232.77376 v -6.90625 h 1.0625 v 0.98437 q 0.75,-1.14062 2.1875,-1.14062 0.625,0 1.15625,0.21875 0.53125,0.21875 0.78125,0.59375 0.26563,0.35937 0.375,0.85937 0.0625,0.32813 0.0625,1.14063 v 4.25 h -1.17187 v -4.20313 q 0,-0.71875 -0.14063,-1.0625 -0.14062,-0.35937 -0.48437,-0.5625 -0.34375,-0.21875 -0.8125,-0.21875 -0.75,0 -1.29688,0.46875 -0.54687,0.46875 -0.54687,1.79688 v 3.78125 z m 12.14685,-2.21875 1.20313,0.14062 q -0.28125,1.0625 -1.0625,1.65625 -0.76563,0.57813 -1.96875,0.57813 -1.51563,0 -2.40625,-0.9375 -0.89063,-0.9375 -0.89063,-2.60938 0,-1.75 0.89063,-2.70312 0.90625,-0.96875 2.34375,-0.96875 1.39062,0 2.26562,0.9375 0.875,0.9375 0.875,2.65625 0,0.10937 0,0.3125 h -5.15625 q 0.0625,1.14062 0.64063,1.75 0.57812,0.59375 1.4375,0.59375 0.65625,0 1.10937,-0.32813 0.45313,-0.34375 0.71875,-1.07812 z m -3.84375,-1.90625 h 3.85938 q -0.0781,-0.85938 -0.4375,-1.29688 -0.5625,-0.6875 -1.45313,-0.6875 -0.8125,0 -1.35937,0.54688 -0.54688,0.53125 -0.60938,1.4375 z m 5.7406,4.125 2.53125,-3.59375 -2.34375,-3.3125 h 1.46875 l 1.0625,1.60937 q 0.29688,0.46875 0.48438,0.78125 0.28125,-0.4375 0.51562,-0.76562 l 1.17188,-1.625 h 1.40625 l -2.39063,3.25 2.5625,3.65625 h -1.4375 l -1.42187,-2.14063 -0.375,-0.59375 -1.8125,2.73438 z m 10.00781,-1.04688 0.17188,1.03125 q -0.5,0.10938 -0.89063,0.10938 -0.64062,0 -1,-0.20313 -0.34375,-0.20312 -0.48437,-0.53125 -0.14063,-0.32812 -0.14063,-1.39062 v -3.96875 h -0.85937 v -0.90625 h 0.85937 v -1.71875 l 1.17188,-0.70313 v 2.42188 h 1.17187 v 0.90625 h -1.17187 v 4.04687 q 0,0.5 0.0469,0.64063 0.0625,0.14062 0.20313,0.23437 0.14062,0.0781 0.40625,0.0781 0.20312,0 0.51562,-0.0469 z m 0.0624,3.70313 v -0.85938 h 7.76563 v 0.85938 z m 8.4906,-2.65625 v -6.90625 h 1.0625 v 0.98437 q 0.75,-1.14062 2.1875,-1.14062 0.625,0 1.15625,0.21875 0.53125,0.21875 0.78125,0.59375 0.26563,0.35937 0.375,0.85937 0.0625,0.32813 0.0625,1.14063 v 4.25 h -1.17187 v -4.20313 q 0,-0.71875 -0.14063,-1.0625 -0.14062,-0.35937 -0.48437,-0.5625 -0.34375,-0.21875 -0.8125,-0.21875 -0.75,0 -1.29688,0.46875 -0.54687,0.46875 -0.54687,1.79688 v 3.78125 z m 6.97498,-3.45313 q 0,-1.92187 1.07812,-2.84375 0.89063,-0.76562 2.17188,-0.76562 1.42187,0 2.32812,0.9375 0.90625,0.92187 0.90625,2.57812 0,1.32813 -0.40625,2.09375 -0.39062,0.76563 -1.15625,1.1875 -0.76562,0.42188 -1.67187,0.42188 -1.45313,0 -2.35938,-0.92188 -0.89062,-0.9375 -0.89062,-2.6875 z m 1.20312,0 q 0,1.32813 0.57813,1.98438 0.59375,0.65625 1.46875,0.65625 0.875,0 1.45312,-0.65625 0.57813,-0.67188 0.57813,-2.03125 0,-1.28125 -0.59375,-1.9375 -0.57813,-0.65625 -1.4375,-0.65625 -0.875,0 -1.46875,0.65625 -0.57813,0.65625 -0.57813,1.98437 z m 11.13123,3.45313 v -0.875 q -0.65625,1.03125 -1.9375,1.03125 -0.8125,0 -1.51563,-0.45313 -0.6875,-0.45312 -1.07812,-1.26562 -0.375,-0.82813 -0.375,-1.89063 0,-1.03125 0.34375,-1.875 0.34375,-0.84375 1.03125,-1.28125 0.70312,-0.45312 1.54687,-0.45312 0.625,0 1.10938,0.26562 0.5,0.25 0.79687,0.67188 v -3.42188 h 1.17188 v 9.54688 z m -3.70313,-3.45313 q 0,1.32813 0.5625,1.98438 0.5625,0.65625 1.32813,0.65625 0.76562,0 1.29687,-0.625 0.53125,-0.625 0.53125,-1.90625 0,-1.42188 -0.54687,-2.07813 -0.54688,-0.67187 -1.34375,-0.67187 -0.78125,0 -1.3125,0.64062 -0.51563,0.625 -0.51563,2 z m 11.36561,1.23438 1.20312,0.14062 q -0.28125,1.0625 -1.0625,1.65625 -0.76562,0.57813 -1.96875,0.57813 -1.51562,0 -2.40625,-0.9375 -0.89062,-0.9375 -0.89062,-2.60938 0,-1.75 0.89062,-2.70312 0.90625,-0.96875 2.34375,-0.96875 1.39063,0 2.26563,0.9375 0.875,0.9375 0.875,2.65625 0,0.10937 0,0.3125 h -5.15625 q 0.0625,1.14062 0.64062,1.75 0.57813,0.59375 1.4375,0.59375 0.65625,0 1.10938,-0.32813 0.45312,-0.34375 0.71875,-1.07812 z m -3.84375,-1.90625 h 3.85937 q -0.0781,-0.85938 -0.4375,-1.29688 -0.5625,-0.6875 -1.45312,-0.6875 -0.8125,0 -1.35938,0.54688 -0.54687,0.53125 -0.60937,1.4375 z m 6.0531,2.0625 1.15625,-0.1875 q 0.10937,0.70312 0.54687,1.07812 0.45313,0.35938 1.25,0.35938 0.8125,0 1.20313,-0.32813 0.39062,-0.32812 0.39062,-0.76562 0,-0.39063 -0.35937,-0.625 -0.23438,-0.15625 -1.1875,-0.39063 -1.29688,-0.32812 -1.79688,-0.5625 -0.48437,-0.25 -0.75,-0.65625 -0.25,-0.42187 -0.25,-0.9375 0,-0.45312 0.20313,-0.84375 0.21875,-0.40625 0.57812,-0.67187 0.28125,-0.1875 0.75,-0.32813 0.46875,-0.14062 1.01563,-0.14062 0.8125,0 1.42187,0.23437 0.60938,0.23438 0.90625,0.64063 0.29688,0.39062 0.40625,1.0625 l -1.14062,0.15625 q -0.0781,-0.53125 -0.45313,-0.82813 -0.375,-0.3125 -1.0625,-0.3125 -0.8125,0 -1.15625,0.26563 -0.34375,0.26562 -0.34375,0.625 0,0.23437 0.14063,0.42187 0.15625,0.1875 0.45312,0.3125 0.17188,0.0625 1.03125,0.29688 1.25,0.32812 1.73438,0.54687 0.5,0.20313 0.78125,0.60938 0.28125,0.40625 0.28125,1 0,0.59375 -0.34375,1.10937 -0.34375,0.51563 -1,0.79688 -0.64063,0.28125 -1.45313,0.28125 -1.34375,0 -2.04687,-0.5625 -0.70313,-0.5625 -0.90625,-1.65625 z m 7.16406,4.71875 v -12.20313 h 2.57812 v 0.96875 h -1.40625 v 10.25 h 1.40625 v 0.98438 z m 5.64044,0 h -2.59375 v -0.98438 h 1.42188 v -10.25 h -1.42188 v -0.96875 h 2.59375 z" style="fill:#000;fill-rule:nonzero"/><path id="path99" d="m 526.56824,415.85303 c -7.18402,0 -13.00787,-0.97061 -13.00787,-2.16791 v -85.33349 c 0,-1.1973 -5.82383,-2.16791 -13.00788,-2.16791 v 0 c 7.18405,0 13.00788,-0.97058 13.00788,-2.16788 v -85.33351 0 c 0,-1.19729 5.82385,-2.16789 13.00787,-2.16789 z" style="fill:#000;fill-opacity:0;fill-rule:evenodd"/><path id="path101" d="m 526.56824,415.85303 c -7.18402,0 -13.00787,-0.97061 -13.00787,-2.16791 v -85.33349 c 0,-1.1973 -5.82383,-2.16791 -13.00788,-2.16791 v 0 c 7.18405,0 13.00788,-0.97058 13.00788,-2.16788 v -85.33351 0 c 0,-1.19729 5.82385,-2.16789 13.00787,-2.16789" style="fill:#000;fill-opacity:0;fill-rule:evenodd"/><path id="path103" d="m 526.56824,415.85303 c -7.18402,0 -13.00787,-0.97061 -13.00787,-2.16791 v -85.33349 c 0,-1.1973 -5.82383,-2.16791 -13.00788,-2.16791 v 0 c 7.18405,0 13.00788,-0.97058 13.00788,-2.16788 v -85.33351 0 c 0,-1.19729 5.82385,-2.16789 13.00787,-2.16789" style="fill-rule:evenodd;stroke:#595959;stroke-width:1;stroke-linecap:butt;stroke-linejoin:round"/><path id="path105" d="m 445.60104,298.39108 h 99.40158 v 27.46457 h -99.40158 z" style="fill:#000;fill-opacity:0;fill-rule:evenodd"/><path id="path107" d="m 455.39792,318.91107 v -6.21875 h 0.9375 v 0.875 q 0.6875,-1.01563 1.98437,-1.01563 0.5625,0 1.03125,0.20313 0.48438,0.20312 0.71875,0.53125 0.23438,0.32812 0.32813,0.76562 0.0469,0.29688 0.0469,1.03125 v 3.82813 h -1.04687 v -3.78125 q 0,-0.65625 -0.125,-0.96875 -0.125,-0.3125 -0.4375,-0.5 -0.3125,-0.20313 -0.73438,-0.20313 -0.67187,0 -1.17187,0.4375 -0.48438,0.42188 -0.48438,1.60938 v 3.40625 z m 7.64258,0 h -0.98438 v -8.59375 h 1.0625 v 3.0625 q 0.67188,-0.82813 1.70313,-0.82813 0.57812,0 1.07812,0.23438 0.51563,0.21875 0.84375,0.64062 0.34375,0.42188 0.53125,1.01563 0.1875,0.59375 0.1875,1.26562 0,1.59375 -0.79687,2.46875 -0.79688,0.875 -1.89063,0.875 -1.10937,0 -1.73437,-0.92187 z m -0.0156,-3.15625 q 0,1.10937 0.3125,1.60937 0.5,0.8125 1.34375,0.8125 0.6875,0 1.1875,-0.59375 0.51563,-0.59375 0.51563,-1.79687 0,-1.21875 -0.48438,-1.79688 -0.48437,-0.57812 -1.17187,-0.57812 -0.6875,0 -1.20313,0.60937 -0.5,0.59375 -0.5,1.73438 z m 4.73633,5.54687 v -0.76562 h 7 v 0.76562 z m 11.9082,-4.39062 1.09375,0.125 q -0.25,0.95312 -0.95312,1.48437 -0.70313,0.53125 -1.78125,0.53125 -1.35938,0 -2.17188,-0.84375 -0.79687,-0.84375 -0.79687,-2.35937 0,-1.5625 0.8125,-2.42188 0.8125,-0.875 2.09375,-0.875 1.25,0 2.03125,0.84375 0.79687,0.84375 0.79687,2.39063 0,0.0937 0,0.28125 h -4.64062 q 0.0625,1.03125 0.57812,1.57812 0.51563,0.53125 1.29688,0.53125 0.57812,0 0.98437,-0.29687 0.42188,-0.3125 0.65625,-0.96875 z m -3.45312,-1.70313 h 3.46875 q -0.0625,-0.79687 -0.39063,-1.1875 -0.51562,-0.60937 -1.3125,-0.60937 -0.73437,0 -1.23437,0.48437 -0.48438,0.48438 -0.53125,1.3125 z m 9.9082,3.70313 v -0.78125 q -0.59375,0.92187 -1.73437,0.92187 -0.75,0 -1.375,-0.40625 -0.625,-0.42187 -0.96875,-1.15625 -0.34375,-0.73437 -0.34375,-1.6875 0,-0.92187 0.3125,-1.6875 0.3125,-0.76562 0.9375,-1.15625 0.625,-0.40625 1.39062,-0.40625 0.5625,0 1,0.23438 0.4375,0.23437 0.71875,0.60937 v -3.07812 h 1.04688 v 8.59375 z m -3.32812,-3.10938 q 0,1.20313 0.5,1.79688 0.5,0.57812 1.1875,0.57812 0.6875,0 1.17187,-0.5625 0.48438,-0.5625 0.48438,-1.71875 0,-1.28125 -0.5,-1.875 -0.48438,-0.59375 -1.20313,-0.59375 -0.70312,0 -1.17187,0.57813 -0.46875,0.5625 -0.46875,1.79687 z m 5.76758,3.625 1.03125,0.15625 q 0.0625,0.46875 0.35937,0.6875 0.39063,0.29688 1.0625,0.29688 0.73438,0 1.125,-0.29688 0.40625,-0.29687 0.54688,-0.8125 0.0937,-0.32812 0.0781,-1.35937 -0.6875,0.8125 -1.71875,0.8125 -1.28125,0 -1.98437,-0.92188 -0.70313,-0.9375 -0.70313,-2.21875 0,-0.89062 0.3125,-1.64062 0.32813,-0.76563 0.9375,-1.17188 0.60938,-0.40625 1.4375,-0.40625 1.10938,0 1.82813,0.89063 v -0.75 h 0.96875 v 5.375 q 0,1.45312 -0.29688,2.0625 -0.29687,0.60937 -0.9375,0.95312 -0.64062,0.35938 -1.57812,0.35938 -1.10938,0 -1.79688,-0.5 -0.6875,-0.5 -0.67187,-1.51563 z m 0.875,-3.73437 q 0,1.21875 0.48437,1.78125 0.48438,0.5625 1.21875,0.5625 0.73438,0 1.21875,-0.5625 0.5,-0.5625 0.5,-1.75 0,-1.14063 -0.51562,-1.71875 -0.5,-0.57813 -1.21875,-0.57813 -0.70313,0 -1.20313,0.57813 -0.48437,0.5625 -0.48437,1.6875 z m 10.25195,1.21875 1.09375,0.125 q -0.25,0.95312 -0.95313,1.48437 -0.70312,0.53125 -1.78125,0.53125 -1.35937,0 -2.17187,-0.84375 -0.79688,-0.84375 -0.79688,-2.35937 0,-1.5625 0.8125,-2.42188 0.8125,-0.875 2.09375,-0.875 1.25,0 2.03125,0.84375 0.79688,0.84375 0.79688,2.39063 0,0.0937 0,0.28125 h -4.64063 q 0.0625,1.03125 0.57813,1.57812 0.51562,0.53125 1.29687,0.53125 0.57813,0 0.98438,-0.29687 0.42187,-0.3125 0.65625,-0.96875 z m -3.45313,-1.70313 h 3.46875 q -0.0625,-0.79687 -0.39062,-1.1875 -0.51563,-0.60937 -1.3125,-0.60937 -0.73438,0 -1.23438,0.48437 -0.48437,0.48438 -0.53125,1.3125 z m 5.45508,1.84375 1.03125,-0.15625 q 0.0937,0.625 0.48438,0.95313 0.40625,0.32812 1.14062,0.32812 0.71875,0 1.0625,-0.28125 0.35938,-0.29687 0.35938,-0.70312 0,-0.35938 -0.3125,-0.5625 -0.21875,-0.14063 -1.07813,-0.35938 -1.15625,-0.29687 -1.60937,-0.5 -0.4375,-0.21875 -0.67188,-0.59375 -0.23437,-0.375 -0.23437,-0.84375 0,-0.40625 0.1875,-0.76562 0.1875,-0.35938 0.51562,-0.59375 0.25,-0.17188 0.67188,-0.29688 0.42187,-0.125 0.92187,-0.125 0.71875,0 1.26563,0.21875 0.5625,0.20313 0.82812,0.5625 0.26563,0.35938 0.35938,0.95313 l -1.03125,0.14062 q -0.0625,-0.46875 -0.40625,-0.73437 -0.32813,-0.28125 -0.95313,-0.28125 -0.71875,0 -1.03125,0.25 -0.3125,0.23437 -0.3125,0.5625 0,0.20312 0.125,0.35937 0.14063,0.17188 0.40625,0.28125 0.15625,0.0625 0.9375,0.26563 1.125,0.3125 1.5625,0.5 0.4375,0.1875 0.6875,0.54687 0.25,0.35938 0.25,0.90625 0,0.53125 -0.3125,1 -0.29687,0.45313 -0.875,0.71875 -0.57812,0.25 -1.3125,0.25 -1.21875,0 -1.85937,-0.5 -0.625,-0.51562 -0.79688,-1.5 z" style="fill:#000;fill-rule:nonzero"/><path id="path109" d="M 89.115486,28.062992 H 289.55644 V 55.527557 H 89.115486 Z" style="fill:#000;fill-opacity:0;fill-rule:evenodd"/><path id="path111" d="m 98.084236,54.98299 5.125004,-13.359375 h 1.90625 l 5.46875,13.359375 h -2.01563 l -1.54687,-4.046875 h -5.59375 l -1.468754,4.046875 z m 3.859374,-5.484375 h 4.53125 l -1.40625,-3.703125 q -0.625,-1.6875 -0.9375,-2.765625 -0.26562,1.28125 -0.71875,2.546875 z m 9.84982,5.484375 v -9.671875 h 1.46875 v 1.375 q 1.0625,-1.59375 3.07813,-1.59375 0.875,0 1.60937,0.3125 0.73438,0.3125 1.09375,0.828125 0.375,0.5 0.51563,1.203125 0.0937,0.453125 0.0937,1.59375 v 5.953125 h -1.64063 v -5.890625 q 0,-1 -0.20312,-1.484375 -0.1875,-0.5 -0.67188,-0.796875 -0.48437,-0.296875 -1.14062,-0.296875 -1.04688,0 -1.8125,0.671875 -0.75,0.65625 -0.75,2.515625 v 5.28125 z m 16.68821,-1.1875 q -0.92186,0.765625 -1.76561,1.09375 -0.82813,0.3125 -1.79688,0.3125 -1.59375,0 -2.45312,-0.78125 -0.85938,-0.78125 -0.85938,-1.984375 0,-0.71875 0.32813,-1.296875 0.32812,-0.59375 0.84375,-0.9375 0.53125,-0.359375 1.1875,-0.546875 0.46875,-0.125 1.45312,-0.25 1.98438,-0.234375 2.92187,-0.5625 0.0156,-0.34375 0.0156,-0.421875 0,-1 -0.46874,-1.421875 -0.625,-0.546875 -1.875,-0.546875 -1.15625,0 -1.70312,0.40625 -0.54688,0.40625 -0.8125,1.421875 l -1.60938,-0.21875 q 0.21875,-1.015625 0.71875,-1.640625 0.5,-0.640625 1.45313,-0.984375 0.95312,-0.34375 2.1875,-0.34375 1.25,0 2.01561,0.296875 0.78125,0.28125 1.14063,0.734375 0.375,0.4375 0.51562,1.109375 0.0781,0.421875 0.0781,1.515625 v 2.1875 q 0,2.28125 0.10937,2.890625 0.10938,0.59375 0.40625,1.15625 h -1.70312 q -0.26563,-0.515625 -0.32813,-1.1875 z m -0.14062,-3.671875 q -0.89062,0.375 -2.67187,0.625 -1.01562,0.140625 -1.4375,0.328125 -0.42187,0.1875 -0.65625,0.53125 -0.21875,0.34375 -0.21875,0.78125 0,0.65625 0.5,1.09375 0.5,0.4375 1.45313,0.4375 0.9375,0 1.67187,-0.40625 0.75,-0.421875 1.09374,-1.140625 0.26563,-0.5625 0.26563,-1.640625 z m 7.78197,3.390625 0.23437,1.453125 q -0.6875,0.140625 -1.23437,0.140625 -0.89063,0 -1.39063,-0.28125 -0.48437,-0.28125 -0.6875,-0.734375 -0.20312,-0.46875 -0.20312,-1.9375 V 46.57674 h -1.20313 v -1.265625 h 1.20313 V 42.92049 l 1.625,-0.984375 v 3.375 h 1.65625 v 1.265625 h -1.65625 v 5.671875 q 0,0.6875 0.0781,0.890625 0.0937,0.203125 0.28125,0.328125 0.20313,0.109375 0.57813,0.109375 0.26562,0 0.71875,-0.0625 z m 0.9958,-3.375 q 0,-2.6875 1.48437,-3.96875 1.25,-1.078125 3.04688,-1.078125 2,0 3.26562,1.3125 1.26563,1.296875 1.26563,3.609375 0,1.859375 -0.5625,2.9375 -0.5625,1.0625 -1.64063,1.65625 -1.0625,0.59375 -2.32812,0.59375 -2.03125,0 -3.28125,-1.296875 -1.25,-1.3125 -1.25,-3.765625 z m 1.6875,0 q 0,1.859375 0.79687,2.796875 0.8125,0.921875 2.04688,0.921875 1.21875,0 2.03125,-0.921875 0.8125,-0.9375 0.8125,-2.84375 0,-1.796875 -0.8125,-2.71875 -0.8125,-0.921875 -2.03125,-0.921875 -1.23438,0 -2.04688,0.921875 -0.79687,0.90625 -0.79687,2.765625 z m 9.29759,4.84375 v -9.671875 h 1.46875 v 1.359375 q 0.45313,-0.71875 1.20313,-1.140625 0.76562,-0.4375 1.71875,-0.4375 1.07812,0 1.76562,0.453125 0.6875,0.4375 0.96875,1.234375 1.15625,-1.6875 2.98438,-1.6875 1.45312,0 2.21875,0.796875 0.78125,0.796875 0.78125,2.453125 v 6.640625 h -1.64063 v -6.09375 q 0,-0.984375 -0.15625,-1.40625 -0.15625,-0.4375 -0.57812,-0.703125 -0.42188,-0.265625 -0.98438,-0.265625 -1.01562,0 -1.6875,0.6875 -0.67187,0.671875 -0.67187,2.15625 v 5.625 h -1.64063 v -6.28125 q 0,-1.09375 -0.40625,-1.640625 -0.40625,-0.546875 -1.3125,-0.546875 -0.6875,0 -1.28125,0.359375 -0.59375,0.359375 -0.85937,1.0625 -0.25,0.703125 -0.25,2.03125 v 5.015625 z m 15.46268,3.71875 -0.1875,-1.53125 q 0.54687,0.140625 0.9375,0.140625 0.54687,0 0.875,-0.1875 0.32812,-0.171875 0.54687,-0.5 0.15625,-0.25 0.5,-1.21875 0.0469,-0.140625 0.14063,-0.40625 l -3.67188,-9.6875 h 1.76563 l 2.01562,5.59375 q 0.39063,1.078125 0.70313,2.25 0.28125,-1.125 0.67187,-2.203125 l 2.07813,-5.640625 h 1.64062 l -3.6875,9.828125 q -0.59375,1.609375 -0.92187,2.203125 -0.4375,0.8125 -1,1.1875 -0.5625,0.375 -1.34375,0.375 -0.48438,0 -1.0625,-0.203125 z m 13.98018,-8.5625 q 0,-2.6875 1.48437,-3.96875 1.25,-1.078125 3.04688,-1.078125 2,0 3.26562,1.3125 1.26563,1.296875 1.26563,3.609375 0,1.859375 -0.5625,2.9375 -0.5625,1.0625 -1.64063,1.65625 -1.0625,0.59375 -2.32812,0.59375 -2.03125,0 -3.28125,-1.296875 -1.25,-1.3125 -1.25,-3.765625 z m 1.6875,0 q 0,1.859375 0.79687,2.796875 0.8125,0.921875 2.04688,0.921875 1.21875,0 2.03125,-0.921875 0.8125,-0.9375 0.8125,-2.84375 0,-1.796875 -0.8125,-2.71875 -0.8125,-0.921875 -2.03125,-0.921875 -1.23438,0 -2.04688,0.921875 -0.79687,0.90625 -0.79687,2.765625 z m 9.68821,4.84375 v -8.40625 h -1.45312 v -1.265625 h 1.45312 v -1.03125 q 0,-0.96875 0.17188,-1.453125 0.23437,-0.640625 0.82812,-1.03125 0.59375,-0.390625 1.67188,-0.390625 0.6875,0 1.53125,0.15625 l -0.25,1.4375 q -0.5,-0.09375 -0.95313,-0.09375 -0.75,0 -1.0625,0.328125 -0.3125,0.3125 -0.3125,1.1875 v 0.890625 h 1.89063 v 1.265625 h -1.89063 v 8.40625 z m 16.28849,-1.1875 q -0.92188,0.765625 -1.76563,1.09375 -0.82812,0.3125 -1.79687,0.3125 -1.59375,0 -2.45313,-0.78125 -0.85937,-0.78125 -0.85937,-1.984375 0,-0.71875 0.32812,-1.296875 0.32813,-0.59375 0.84375,-0.9375 0.53125,-0.359375 1.1875,-0.546875 0.46875,-0.125 1.45313,-0.25 1.98437,-0.234375 2.92187,-0.5625 0.0156,-0.34375 0.0156,-0.421875 0,-1 -0.46875,-1.421875 -0.625,-0.546875 -1.875,-0.546875 -1.15625,0 -1.70313,0.40625 -0.54687,0.40625 -0.8125,1.421875 l -1.60937,-0.21875 q 0.21875,-1.015625 0.71875,-1.640625 0.5,-0.640625 1.45312,-0.984375 0.95313,-0.34375 2.1875,-0.34375 1.25,0 2.01563,0.296875 0.78125,0.28125 1.14062,0.734375 0.375,0.4375 0.51563,1.109375 0.0781,0.421875 0.0781,1.515625 v 2.1875 q 0,2.28125 0.10938,2.890625 0.10937,0.59375 0.40625,1.15625 h -1.70313 q -0.26562,-0.515625 -0.32812,-1.1875 z m -0.14063,-3.671875 q -0.89062,0.375 -2.67187,0.625 -1.01563,0.140625 -1.4375,0.328125 -0.42188,0.1875 -0.65625,0.53125 -0.21875,0.34375 -0.21875,0.78125 0,0.65625 0.5,1.09375 0.5,0.4375 1.45312,0.4375 0.9375,0 1.67188,-0.40625 0.75,-0.421875 1.09375,-1.140625 0.26562,-0.5625 0.26562,-1.640625 z m 9.38715,4.859375 v -9.671875 h 1.46875 v 1.375 q 1.0625,-1.59375 3.07812,-1.59375 0.875,0 1.60938,0.3125 0.73437,0.3125 1.09375,0.828125 0.375,0.5 0.51562,1.203125 0.0937,0.453125 0.0937,1.59375 v 5.953125 h -1.64062 v -5.890625 q 0,-1 -0.20313,-1.484375 -0.1875,-0.5 -0.67187,-0.796875 -0.48438,-0.296875 -1.14063,-0.296875 -1.04687,0 -1.8125,0.671875 -0.75,0.65625 -0.75,2.515625 v 5.28125 z m 9.76634,-4.84375 q 0,-2.6875 1.48438,-3.96875 1.25,-1.078125 3.04687,-1.078125 2,0 3.26563,1.3125 1.26562,1.296875 1.26562,3.609375 0,1.859375 -0.5625,2.9375 -0.5625,1.0625 -1.64062,1.65625 -1.0625,0.59375 -2.32813,0.59375 -2.03125,0 -3.28125,-1.296875 -1.25,-1.3125 -1.25,-3.765625 z m 1.6875,0 q 0,1.859375 0.79688,2.796875 0.8125,0.921875 2.04687,0.921875 1.21875,0 2.03125,-0.921875 0.8125,-0.9375 0.8125,-2.84375 0,-1.796875 -0.8125,-2.71875 -0.8125,-0.921875 -2.03125,-0.921875 -1.23437,0 -2.04687,0.921875 -0.79688,0.90625 -0.79688,2.765625 z m 15.56322,4.84375 v -1.21875 q -0.90625,1.4375 -2.70313,1.4375 -1.15625,0 -2.125,-0.640625 -0.96875,-0.640625 -1.5,-1.78125 -0.53125,-1.140625 -0.53125,-2.625 0,-1.453125 0.48438,-2.625 0.48437,-1.1875 1.4375,-1.8125 0.96875,-0.625 2.17187,-0.625 0.875,0 1.54688,0.375 0.6875,0.359375 1.10937,0.953125 v -4.796875 h 1.64063 V 54.98299 Z m -5.17188,-4.828125 q 0,1.859375 0.78125,2.78125 0.78125,0.921875 1.84375,0.921875 1.07813,0 1.82813,-0.875 0.75,-0.890625 0.75,-2.6875 0,-1.984375 -0.76563,-2.90625 -0.76562,-0.9375 -1.89062,-0.9375 -1.07813,0 -1.8125,0.890625 -0.73438,0.890625 -0.73438,2.8125 z m 15.90697,1.71875 1.6875,0.203125 q -0.40625,1.484375 -1.48438,2.3125 -1.07812,0.8125 -2.76562,0.8125 -2.125,0 -3.375,-1.296875 -1.23438,-1.3125 -1.23438,-3.671875 0,-2.453125 1.25,-3.796875 1.26563,-1.34375 3.26563,-1.34375 1.9375,0 3.15625,1.328125 1.23437,1.3125 1.23437,3.703125 0,0.15625 0,0.4375 h -7.21875 q 0.0937,1.59375 0.90625,2.453125 0.8125,0.84375 2.01563,0.84375 0.90625,0 1.54687,-0.46875 0.64063,-0.484375 1.01563,-1.515625 z m -5.39063,-2.65625 h 5.40625 q -0.10937,-1.21875 -0.625,-1.828125 -0.78125,-0.953125 -2.03125,-0.953125 -1.125,0 -1.90625,0.765625 -0.76562,0.75 -0.84375,2.015625 z" style="fill:#000;fill-rule:nonzero"/><path id="path113" d="m 784.2409,84.97754 h 86.01471 v 74.04492 H 784.2409 Z" style="fill:#fff;fill-rule:evenodd"/><path id="path115" d="m 784.2409,84.97754 h 86.01471 v 74.04492 H 784.2409 Z" style="fill-rule:evenodd;stroke:#c00;stroke-width:1;stroke-linecap:butt;stroke-linejoin:round"/><path id="path117" d="m 854.0783,92.15187 h 12.664 v 7.173988 h -12.664 z" style="fill:#fdf8f8;fill-rule:evenodd"/><path id="path119" d="m 854.0783,92.15187 h 12.664 v 7.173988 h -12.664 z" style="fill-rule:evenodd;stroke:#595959;stroke-width:1;stroke-linecap:butt;stroke-linejoin:round"/><path id="path121" d="m 796.6742,97.166214 h 15.94489 V 149.21876 H 796.6742 Z" style="fill:#d9ead3;fill-rule:evenodd"/><path id="path123" d="m 796.6742,97.166214 h 15.94489 V 149.21876 H 796.6742 Z" style="fill-rule:evenodd;stroke:#595959;stroke-width:1;stroke-linecap:butt;stroke-linejoin:round"/><path id="path125" d="m 817.86584,97.166214 h 23.76062 v 28.860576 h -23.76062 z" style="fill:#cfe2f3;fill-rule:evenodd"/><path id="path127" d="m 817.86584,97.166214 h 23.76062 v 28.860576 h -23.76062 z" style="fill-rule:evenodd;stroke:#595959;stroke-width:1;stroke-linecap:butt;stroke-linejoin:round"/><path id="path129" d="m 817.86584,132.55469 h 10.95038 v 16.4884 h -10.95038 z" style="fill:#f4cccc;fill-rule:evenodd"/><path id="path131" d="m 817.86584,132.55469 h 10.95038 v 16.4884 h -10.95038 z" style="fill-rule:evenodd;stroke:#595959;stroke-width:1;stroke-linecap:butt;stroke-linejoin:round"/><path id="path133" d="m 830.6742,132.55469 h 10.95032 v 16.4884 H 830.6742 Z" style="fill:#f4cccc;fill-rule:evenodd"/><path id="path135" d="m 830.6742,132.55469 h 10.95032 v 16.4884 H 830.6742 Z" style="fill-rule:evenodd;stroke:#595959;stroke-width:1;stroke-linecap:butt;stroke-linejoin:round"/><path id="path137" d="m 812.6282,113.40989 1.2937,-1.29367 v 0.64683 h 2.65796 v -0.64683 l 1.29364,1.29367 -1.29364,1.29367 v -0.64683 h -2.65796 v 0.64683 z" style="fill:#eee;fill-rule:evenodd"/><path id="path139" d="m 812.6282,113.40989 1.2937,-1.29367 v 0.64683 h 2.65796 v -0.64683 l 1.29364,1.29367 -1.29364,1.29367 v -0.64683 h -2.65796 v 0.64683 z" style="fill-rule:evenodd;stroke:#595959;stroke-width:1;stroke-linecap:butt;stroke-linejoin:round"/><path id="path141" d="m 823.25336,127.06765 0.47021,-0.4702 0.47022,0.4702 h -0.23511 v 4.18723 h 0.23511 l -0.47022,0.4702 -0.47021,-0.4702 h 0.23511 v -4.18723 z" style="fill:#eee;fill-rule:evenodd"/><path id="path143" d="m 823.25336,127.06765 0.47021,-0.4702 0.47022,0.4702 h -0.23511 v 4.18723 h 0.23511 l -0.47022,0.4702 -0.47021,-0.4702 h 0.23511 v -4.18723 z" style="fill-rule:evenodd;stroke:#595959;stroke-width:1;stroke-linecap:butt;stroke-linejoin:round"/><path id="path145" d="m 835.02655,127.06765 0.47015,-0.4702 0.47022,0.4702 h -0.23511 v 4.18723 h 0.23511 l -0.47022,0.4702 -0.47015,-0.4702 h 0.23505 v -4.18723 z" style="fill:#eee;fill-rule:evenodd"/><path id="path147" d="m 835.02655,127.06765 0.47015,-0.4702 0.47022,0.4702 h -0.23511 v 4.18723 h 0.23511 l -0.47022,0.4702 -0.47015,-0.4702 h 0.23505 v -4.18723 z" style="fill-rule:evenodd;stroke:#595959;stroke-width:1;stroke-linecap:butt;stroke-linejoin:round"/><path id="path149" d="m 850.9376,107.32317 h 14.62836 v 5.59806 H 850.9376 Z" style="fill:#000;fill-opacity:0;fill-rule:evenodd"/><path id="path151" d="m 850.01074,149.05312 c -1.05603,0 -1.91211,-0.94864 -1.91211,-2.11884 v -14.02659 c 0,-1.1702 -0.85614,-2.11884 -1.91217,-2.11884 v 0 c 1.05603,0 1.91217,-0.94864 1.91217,-2.11883 v -14.02659 0 c 0,-1.1702 0.85608,-2.11884 1.91211,-2.11884 z" style="fill:#000;fill-opacity:0;fill-rule:evenodd"/><path id="path153" d="m 850.01074,149.05312 c -1.05603,0 -1.91211,-0.94864 -1.91211,-2.11884 v -14.02659 c 0,-1.1702 -0.85614,-2.11884 -1.91217,-2.11884 v 0 c 1.05603,0 1.91217,-0.94864 1.91217,-2.11883 v -14.02659 0 c 0,-1.1702 0.85608,-2.11884 1.91211,-2.11884" style="fill:#000;fill-opacity:0;fill-rule:evenodd"/><path id="path155" d="m 850.01074,149.05312 c -1.05603,0 -1.91211,-0.94864 -1.91211,-2.11884 v -14.02659 c 0,-1.1702 -0.85614,-2.11884 -1.91217,-2.11884 v 0 c 1.05603,0 1.91217,-0.94864 1.91217,-2.11883 v -14.02659 0 c 0,-1.1702 0.85608,-2.11884 1.91211,-2.11884" style="fill-rule:evenodd;stroke:#595959;stroke-width:1;stroke-linecap:butt;stroke-linejoin:round"/><path id="path157" d="m 838.0996,125.12592 h 14.62836 v 5.59805 H 838.0996 Z" style="fill:#000;fill-opacity:0;fill-rule:evenodd"/><path id="path159" d="m 855.78827,115.21598 h 7.92023 v 7.17398 h -7.92023 z" style="fill:#fff;fill-rule:evenodd"/><path id="path161" d="m 855.78827,115.21598 h 7.92023 v 7.17398 h -7.92023 z" style="fill-rule:evenodd;stroke:#4a86e8;stroke-width:1;stroke-linecap:butt;stroke-linejoin:round"/><path id="path163" d="m 855.78827,121.19038 h 7.92023 v 7.17399 h -7.92023 z" style="fill:#fff;fill-rule:evenodd"/><path id="path165" d="m 855.78827,121.19038 h 7.92023 v 7.17399 h -7.92023 z" style="fill-rule:evenodd;stroke:#4a86e8;stroke-width:1;stroke-linecap:butt;stroke-linejoin:round"/><path id="path167" d="m 855.78827,127.16478 h 7.92023 v 7.17398 h -7.92023 z" style="fill:#fff;fill-rule:evenodd"/><path id="path169" d="m 855.78827,127.16478 h 7.92023 v 7.17398 h -7.92023 z" style="fill-rule:evenodd;stroke:#4a86e8;stroke-width:1;stroke-linecap:butt;stroke-linejoin:round"/><path id="path171" d="m 855.78827,133.13918 h 7.92023 v 7.17398 h -7.92023 z" style="fill:#fff;fill-rule:evenodd"/><path id="path173" d="m 855.78827,133.13918 h 7.92023 v 7.17398 h -7.92023 z" style="fill-rule:evenodd;stroke:#4a86e8;stroke-width:1;stroke-linecap:butt;stroke-linejoin:round"/><path id="path175" d="m 855.78827,139.11357 h 7.92023 v 7.174 h -7.92023 z" style="fill:#fff;fill-rule:evenodd"/><path id="path177" d="m 855.78827,139.11357 h 7.92023 v 7.174 h -7.92023 z" style="fill-rule:evenodd;stroke:#4a86e8;stroke-width:1;stroke-linecap:butt;stroke-linejoin:round"/><path id="path179" d="m 784.2409,188.97754 h 86.01471 v 74.04492 H 784.2409 Z" style="fill:#fff;fill-rule:evenodd"/><path id="path181" d="m 784.2409,188.97754 h 86.01471 v 74.04492 H 784.2409 Z" style="fill-rule:evenodd;stroke:#c00;stroke-width:1;stroke-linecap:butt;stroke-linejoin:round"/><path id="path183" d="m 854.0783,196.15187 h 12.664 v 7.17398 h -12.664 z" style="fill:#fdf8f8;fill-rule:evenodd"/><path id="path185" d="m 854.0783,196.15187 h 12.664 v 7.17398 h -12.664 z" style="fill-rule:evenodd;stroke:#595959;stroke-width:1;stroke-linecap:butt;stroke-linejoin:round"/><path id="path187" d="m 796.6742,201.16621 h 15.94489 v 52.05255 H 796.6742 Z" style="fill:#d9ead3;fill-rule:evenodd"/><path id="path189" d="m 796.6742,201.16621 h 15.94489 v 52.05255 H 796.6742 Z" style="fill-rule:evenodd;stroke:#595959;stroke-width:1;stroke-linecap:butt;stroke-linejoin:round"/><path id="path191" d="m 817.86584,201.16621 h 23.76062 v 28.86058 h -23.76062 z" style="fill:#cfe2f3;fill-rule:evenodd"/><path id="path193" d="m 817.86584,201.16621 h 23.76062 v 28.86058 h -23.76062 z" style="fill-rule:evenodd;stroke:#595959;stroke-width:1;stroke-linecap:butt;stroke-linejoin:round"/><path id="path195" d="m 817.86584,236.55469 h 10.95038 v 16.4884 h -10.95038 z" style="fill:#f4cccc;fill-rule:evenodd"/><path id="path197" d="m 817.86584,236.55469 h 10.95038 v 16.4884 h -10.95038 z" style="fill-rule:evenodd;stroke:#595959;stroke-width:1;stroke-linecap:butt;stroke-linejoin:round"/><path id="path199" d="m 830.6742,236.55469 h 10.95032 v 16.4884 H 830.6742 Z" style="fill:#f4cccc;fill-rule:evenodd"/><path id="path201" d="m 830.6742,236.55469 h 10.95032 v 16.4884 H 830.6742 Z" style="fill-rule:evenodd;stroke:#595959;stroke-width:1;stroke-linecap:butt;stroke-linejoin:round"/><path id="path203" d="m 812.6282,217.40988 1.2937,-1.29367 v 0.64683 h 2.65796 v -0.64683 l 1.29364,1.29367 -1.29364,1.29367 v -0.64683 h -2.65796 v 0.64683 z" style="fill:#eee;fill-rule:evenodd"/><path id="path205" d="m 812.6282,217.40988 1.2937,-1.29367 v 0.64683 h 2.65796 v -0.64683 l 1.29364,1.29367 -1.29364,1.29367 v -0.64683 h -2.65796 v 0.64683 z" style="fill-rule:evenodd;stroke:#595959;stroke-width:1;stroke-linecap:butt;stroke-linejoin:round"/><path id="path207" d="m 823.25336,231.06764 0.47021,-0.47018 0.47022,0.47018 h -0.23511 v 4.18724 h 0.23511 l -0.47022,0.4702 -0.47021,-0.4702 h 0.23511 v -4.18724 z" style="fill:#eee;fill-rule:evenodd"/><path id="path209" d="m 823.25336,231.06764 0.47021,-0.47018 0.47022,0.47018 h -0.23511 v 4.18724 h 0.23511 l -0.47022,0.4702 -0.47021,-0.4702 h 0.23511 v -4.18724 z" style="fill-rule:evenodd;stroke:#595959;stroke-width:1;stroke-linecap:butt;stroke-linejoin:round"/><path id="path211" d="m 835.02655,231.06764 0.47015,-0.47018 0.47022,0.47018 h -0.23511 v 4.18724 h 0.23511 l -0.47022,0.4702 -0.47015,-0.4702 h 0.23505 v -4.18724 z" style="fill:#eee;fill-rule:evenodd"/><path id="path213" d="m 835.02655,231.06764 0.47015,-0.47018 0.47022,0.47018 h -0.23511 v 4.18724 h 0.23511 l -0.47022,0.4702 -0.47015,-0.4702 h 0.23505 v -4.18724 z" style="fill-rule:evenodd;stroke:#595959;stroke-width:1;stroke-linecap:butt;stroke-linejoin:round"/><path id="path215" d="m 850.9376,211.32317 h 14.62836 v 5.59807 H 850.9376 Z" style="fill:#000;fill-opacity:0;fill-rule:evenodd"/><path id="path217" d="m 850.01074,253.05312 c -1.05603,0 -1.91211,-0.94864 -1.91211,-2.11884 v -14.02659 c 0,-1.1702 -0.85614,-2.11884 -1.91217,-2.11884 v 0 c 1.05603,0 1.91217,-0.94864 1.91217,-2.11883 v -14.02658 0 c 0,-1.17021 0.85608,-2.11884 1.91211,-2.11884 z" style="fill:#000;fill-opacity:0;fill-rule:evenodd"/><path id="path219" d="m 850.01074,253.05312 c -1.05603,0 -1.91211,-0.94864 -1.91211,-2.11884 v -14.02659 c 0,-1.1702 -0.85614,-2.11884 -1.91217,-2.11884 v 0 c 1.05603,0 1.91217,-0.94864 1.91217,-2.11883 v -14.02658 0 c 0,-1.17021 0.85608,-2.11884 1.91211,-2.11884" style="fill:#000;fill-opacity:0;fill-rule:evenodd"/><path id="path221" d="m 850.01074,253.05312 c -1.05603,0 -1.91211,-0.94864 -1.91211,-2.11884 v -14.02659 c 0,-1.1702 -0.85614,-2.11884 -1.91217,-2.11884 v 0 c 1.05603,0 1.91217,-0.94864 1.91217,-2.11883 v -14.02658 0 c 0,-1.17021 0.85608,-2.11884 1.91211,-2.11884" style="fill-rule:evenodd;stroke:#595959;stroke-width:1;stroke-linecap:butt;stroke-linejoin:round"/><path id="path223" d="m 838.0996,229.12592 h 14.62836 v 5.59805 H 838.0996 Z" style="fill:#000;fill-opacity:0;fill-rule:evenodd"/><path id="path225" d="m 855.78827,219.21597 h 7.92023 v 7.17398 h -7.92023 z" style="fill:#fff;fill-rule:evenodd"/><path id="path227" d="m 855.78827,219.21597 h 7.92023 v 7.17398 h -7.92023 z" style="fill-rule:evenodd;stroke:#4a86e8;stroke-width:1;stroke-linecap:butt;stroke-linejoin:round"/><path id="path229" d="m 855.78827,225.19038 h 7.92023 v 7.17398 h -7.92023 z" style="fill:#fff;fill-rule:evenodd"/><path id="path231" d="m 855.78827,225.19038 h 7.92023 v 7.17398 h -7.92023 z" style="fill-rule:evenodd;stroke:#4a86e8;stroke-width:1;stroke-linecap:butt;stroke-linejoin:round"/><path id="path233" d="m 855.78827,231.16478 h 7.92023 v 7.17398 h -7.92023 z" style="fill:#fff;fill-rule:evenodd"/><path id="path235" d="m 855.78827,231.16478 h 7.92023 v 7.17398 h -7.92023 z" style="fill-rule:evenodd;stroke:#4a86e8;stroke-width:1;stroke-linecap:butt;stroke-linejoin:round"/><path id="path237" d="m 855.78827,237.13918 h 7.92023 v 7.17398 h -7.92023 z" style="fill:#fff;fill-rule:evenodd"/><path id="path239" d="m 855.78827,237.13918 h 7.92023 v 7.17398 h -7.92023 z" style="fill-rule:evenodd;stroke:#4a86e8;stroke-width:1;stroke-linecap:butt;stroke-linejoin:round"/><path id="path241" d="m 855.78827,243.11357 h 7.92023 v 7.174 h -7.92023 z" style="fill:#fff;fill-rule:evenodd"/><path id="path243" d="m 855.78827,243.11357 h 7.92023 v 7.174 h -7.92023 z" style="fill-rule:evenodd;stroke:#4a86e8;stroke-width:1;stroke-linecap:butt;stroke-linejoin:round"/><path id="path245" d="m 784.2409,284.97754 h 86.01471 v 74.04492 H 784.2409 Z" style="fill:#fff;fill-rule:evenodd"/><path id="path247" d="m 784.2409,284.97754 h 86.01471 v 74.04492 H 784.2409 Z" style="fill-rule:evenodd;stroke:#c00;stroke-width:1;stroke-linecap:butt;stroke-linejoin:round"/><path id="path249" d="m 854.0783,292.1519 h 12.664 v 7.17398 h -12.664 z" style="fill:#fdf8f8;fill-rule:evenodd"/><path id="path251" d="m 854.0783,292.1519 h 12.664 v 7.17398 h -12.664 z" style="fill-rule:evenodd;stroke:#595959;stroke-width:1;stroke-linecap:butt;stroke-linejoin:round"/><path id="path253" d="m 796.6742,297.1662 h 15.94489 v 52.05255 H 796.6742 Z" style="fill:#d9ead3;fill-rule:evenodd"/><path id="path255" d="m 796.6742,297.1662 h 15.94489 v 52.05255 H 796.6742 Z" style="fill-rule:evenodd;stroke:#595959;stroke-width:1;stroke-linecap:butt;stroke-linejoin:round"/><path id="path257" d="m 817.86584,297.1662 h 23.76062 v 28.8606 h -23.76062 z" style="fill:#cfe2f3;fill-rule:evenodd"/><path id="path259" d="m 817.86584,297.1662 h 23.76062 v 28.8606 h -23.76062 z" style="fill-rule:evenodd;stroke:#595959;stroke-width:1;stroke-linecap:butt;stroke-linejoin:round"/><path id="path261" d="m 817.86584,332.5547 h 10.95038 v 16.4884 h -10.95038 z" style="fill:#f4cccc;fill-rule:evenodd"/><path id="path263" d="m 817.86584,332.5547 h 10.95038 v 16.4884 h -10.95038 z" style="fill-rule:evenodd;stroke:#595959;stroke-width:1;stroke-linecap:butt;stroke-linejoin:round"/><path id="path265" d="m 830.6742,332.5547 h 10.95032 v 16.4884 H 830.6742 Z" style="fill:#f4cccc;fill-rule:evenodd"/><path id="path267" d="m 830.6742,332.5547 h 10.95032 v 16.4884 H 830.6742 Z" style="fill-rule:evenodd;stroke:#595959;stroke-width:1;stroke-linecap:butt;stroke-linejoin:round"/><path id="path269" d="m 812.6282,313.40988 1.2937,-1.29367 v 0.64685 h 2.65796 v -0.64685 l 1.29364,1.29367 -1.29364,1.29367 v -0.64682 h -2.65796 v 0.64682 z" style="fill:#eee;fill-rule:evenodd"/><path id="path271" d="m 812.6282,313.40988 1.2937,-1.29367 v 0.64685 h 2.65796 v -0.64685 l 1.29364,1.29367 -1.29364,1.29367 v -0.64682 h -2.65796 v 0.64682 z" style="fill-rule:evenodd;stroke:#595959;stroke-width:1;stroke-linecap:butt;stroke-linejoin:round"/><path id="path273" d="m 823.25336,327.06766 0.47021,-0.47021 0.47022,0.47021 h -0.23511 v 4.18723 h 0.23511 l -0.47022,0.47021 -0.47021,-0.47021 h 0.23511 v -4.18723 z" style="fill:#eee;fill-rule:evenodd"/><path id="path275" d="m 823.25336,327.06766 0.47021,-0.47021 0.47022,0.47021 h -0.23511 v 4.18723 h 0.23511 l -0.47022,0.47021 -0.47021,-0.47021 h 0.23511 v -4.18723 z" style="fill-rule:evenodd;stroke:#595959;stroke-width:1;stroke-linecap:butt;stroke-linejoin:round"/><path id="path277" d="m 835.02655,327.06766 0.47015,-0.47021 0.47022,0.47021 h -0.23511 v 4.18723 h 0.23511 l -0.47022,0.47021 -0.47015,-0.47021 h 0.23505 v -4.18723 z" style="fill:#eee;fill-rule:evenodd"/><path id="path279" d="m 835.02655,327.06766 0.47015,-0.47021 0.47022,0.47021 h -0.23511 v 4.18723 h 0.23511 l -0.47022,0.47021 -0.47015,-0.47021 h 0.23505 v -4.18723 z" style="fill-rule:evenodd;stroke:#595959;stroke-width:1;stroke-linecap:butt;stroke-linejoin:round"/><path id="path281" d="m 850.9376,307.32318 h 14.62836 v 5.59805 H 850.9376 Z" style="fill:#000;fill-opacity:0;fill-rule:evenodd"/><path id="path283" d="m 850.01074,349.0531 c -1.05603,0 -1.91211,-0.94864 -1.91211,-2.11884 v -14.02658 c 0,-1.17019 -0.85614,-2.11883 -1.91217,-2.11883 v 0 c 1.05603,0 1.91217,-0.94864 1.91217,-2.11884 v -14.02658 0 c 0,-1.17019 0.85608,-2.11883 1.91211,-2.11883 z" style="fill:#000;fill-opacity:0;fill-rule:evenodd"/><path id="path285" d="m 850.01074,349.0531 c -1.05603,0 -1.91211,-0.94864 -1.91211,-2.11884 v -14.02658 c 0,-1.17019 -0.85614,-2.11883 -1.91217,-2.11883 v 0 c 1.05603,0 1.91217,-0.94864 1.91217,-2.11884 v -14.02658 0 c 0,-1.17019 0.85608,-2.11883 1.91211,-2.11883" style="fill:#000;fill-opacity:0;fill-rule:evenodd"/><path id="path287" d="m 850.01074,349.0531 c -1.05603,0 -1.91211,-0.94864 -1.91211,-2.11884 v -14.02658 c 0,-1.17019 -0.85614,-2.11883 -1.91217,-2.11883 v 0 c 1.05603,0 1.91217,-0.94864 1.91217,-2.11884 v -14.02658 0 c 0,-1.17019 0.85608,-2.11883 1.91211,-2.11883" style="fill-rule:evenodd;stroke:#595959;stroke-width:1;stroke-linecap:butt;stroke-linejoin:round"/><path id="path289" d="m 838.0996,325.12592 h 14.62836 v 5.59805 H 838.0996 Z" style="fill:#000;fill-opacity:0;fill-rule:evenodd"/><path id="path291" d="m 855.78827,315.21597 h 7.92023 v 7.17398 h -7.92023 z" style="fill:#fff;fill-rule:evenodd"/><path id="path293" d="m 855.78827,315.21597 h 7.92023 v 7.17398 h -7.92023 z" style="fill-rule:evenodd;stroke:#4a86e8;stroke-width:1;stroke-linecap:butt;stroke-linejoin:round"/><path id="path295" d="m 855.78827,321.19037 h 7.92023 v 7.17398 h -7.92023 z" style="fill:#fff;fill-rule:evenodd"/><path id="path297" d="m 855.78827,321.19037 h 7.92023 v 7.17398 h -7.92023 z" style="fill-rule:evenodd;stroke:#4a86e8;stroke-width:1;stroke-linecap:butt;stroke-linejoin:round"/><path id="path299" d="m 855.78827,327.16476 h 7.92023 v 7.17401 h -7.92023 z" style="fill:#fff;fill-rule:evenodd"/><path id="path301" d="m 855.78827,327.16476 h 7.92023 v 7.17401 h -7.92023 z" style="fill-rule:evenodd;stroke:#4a86e8;stroke-width:1;stroke-linecap:butt;stroke-linejoin:round"/><path id="path303" d="m 855.78827,333.1392 h 7.92023 v 7.17398 h -7.92023 z" style="fill:#fff;fill-rule:evenodd"/><path id="path305" d="m 855.78827,333.1392 h 7.92023 v 7.17398 h -7.92023 z" style="fill-rule:evenodd;stroke:#4a86e8;stroke-width:1;stroke-linecap:butt;stroke-linejoin:round"/><path id="path307" d="m 855.78827,339.1136 h 7.92023 v 7.17398 h -7.92023 z" style="fill:#fff;fill-rule:evenodd"/><path id="path309" d="m 855.78827,339.1136 h 7.92023 v 7.17398 h -7.92023 z" style="fill-rule:evenodd;stroke:#4a86e8;stroke-width:1;stroke-linecap:butt;stroke-linejoin:round"/><path id="path311" d="m 784.2409,380.97754 h 86.01471 v 74.04492 H 784.2409 Z" style="fill:#fff;fill-rule:evenodd"/><path id="path313" d="m 784.2409,380.97754 h 86.01471 v 74.04492 H 784.2409 Z" style="fill-rule:evenodd;stroke:#c00;stroke-width:1;stroke-linecap:butt;stroke-linejoin:round"/><path id="path315" d="m 854.0783,388.1519 h 12.664 v 7.17398 h -12.664 z" style="fill:#fdf8f8;fill-rule:evenodd"/><path id="path317" d="m 854.0783,388.1519 h 12.664 v 7.17398 h -12.664 z" style="fill-rule:evenodd;stroke:#595959;stroke-width:1;stroke-linecap:butt;stroke-linejoin:round"/><path id="path319" d="m 796.6742,393.1662 h 15.94489 v 52.05255 H 796.6742 Z" style="fill:#d9ead3;fill-rule:evenodd"/><path id="path321" d="m 796.6742,393.1662 h 15.94489 v 52.05255 H 796.6742 Z" style="fill-rule:evenodd;stroke:#595959;stroke-width:1;stroke-linecap:butt;stroke-linejoin:round"/><path id="path323" d="m 817.86584,393.1662 h 23.76062 v 28.8606 h -23.76062 z" style="fill:#cfe2f3;fill-rule:evenodd"/><path id="path325" d="m 817.86584,393.1662 h 23.76062 v 28.8606 h -23.76062 z" style="fill-rule:evenodd;stroke:#595959;stroke-width:1;stroke-linecap:butt;stroke-linejoin:round"/><path id="path327" d="m 817.86584,428.5547 h 10.95038 v 16.4884 h -10.95038 z" style="fill:#f4cccc;fill-rule:evenodd"/><path id="path329" d="m 817.86584,428.5547 h 10.95038 v 16.4884 h -10.95038 z" style="fill-rule:evenodd;stroke:#595959;stroke-width:1;stroke-linecap:butt;stroke-linejoin:round"/><path id="path331" d="m 830.6742,428.5547 h 10.95032 v 16.4884 H 830.6742 Z" style="fill:#f4cccc;fill-rule:evenodd"/><path id="path333" d="m 830.6742,428.5547 h 10.95032 v 16.4884 H 830.6742 Z" style="fill-rule:evenodd;stroke:#595959;stroke-width:1;stroke-linecap:butt;stroke-linejoin:round"/><path id="path335" d="m 812.6282,409.40988 1.2937,-1.29367 v 0.64685 h 2.65796 v -0.64685 l 1.29364,1.29367 -1.29364,1.29367 v -0.64682 h -2.65796 v 0.64682 z" style="fill:#eee;fill-rule:evenodd"/><path id="path337" d="m 812.6282,409.40988 1.2937,-1.29367 v 0.64685 h 2.65796 v -0.64685 l 1.29364,1.29367 -1.29364,1.29367 v -0.64682 h -2.65796 v 0.64682 z" style="fill-rule:evenodd;stroke:#595959;stroke-width:1;stroke-linecap:butt;stroke-linejoin:round"/><path id="path339" d="m 823.25336,423.06766 0.47021,-0.47021 0.47022,0.47021 h -0.23511 v 4.18723 h 0.23511 l -0.47022,0.47021 -0.47021,-0.47021 h 0.23511 v -4.18723 z" style="fill:#eee;fill-rule:evenodd"/><path id="path341" d="m 823.25336,423.06766 0.47021,-0.47021 0.47022,0.47021 h -0.23511 v 4.18723 h 0.23511 l -0.47022,0.47021 -0.47021,-0.47021 h 0.23511 v -4.18723 z" style="fill-rule:evenodd;stroke:#595959;stroke-width:1;stroke-linecap:butt;stroke-linejoin:round"/><path id="path343" d="m 835.02655,423.06766 0.47015,-0.47021 0.47022,0.47021 h -0.23511 v 4.18723 h 0.23511 l -0.47022,0.47021 -0.47015,-0.47021 h 0.23505 v -4.18723 z" style="fill:#eee;fill-rule:evenodd"/><path id="path345" d="m 835.02655,423.06766 0.47015,-0.47021 0.47022,0.47021 h -0.23511 v 4.18723 h 0.23511 l -0.47022,0.47021 -0.47015,-0.47021 h 0.23505 v -4.18723 z" style="fill-rule:evenodd;stroke:#595959;stroke-width:1;stroke-linecap:butt;stroke-linejoin:round"/><path id="path347" d="m 850.9376,403.32318 h 14.62836 v 5.59805 H 850.9376 Z" style="fill:#000;fill-opacity:0;fill-rule:evenodd"/><path id="path349" d="m 850.01074,445.0531 c -1.05603,0 -1.91211,-0.94864 -1.91211,-2.11884 v -14.02658 c 0,-1.17019 -0.85614,-2.11883 -1.91217,-2.11883 v 0 c 1.05603,0 1.91217,-0.94864 1.91217,-2.11884 v -14.02658 0 c 0,-1.17019 0.85608,-2.11883 1.91211,-2.11883 z" style="fill:#000;fill-opacity:0;fill-rule:evenodd"/><path id="path351" d="m 850.01074,445.0531 c -1.05603,0 -1.91211,-0.94864 -1.91211,-2.11884 v -14.02658 c 0,-1.17019 -0.85614,-2.11883 -1.91217,-2.11883 v 0 c 1.05603,0 1.91217,-0.94864 1.91217,-2.11884 v -14.02658 0 c 0,-1.17019 0.85608,-2.11883 1.91211,-2.11883" style="fill:#000;fill-opacity:0;fill-rule:evenodd"/><path id="path353" d="m 850.01074,445.0531 c -1.05603,0 -1.91211,-0.94864 -1.91211,-2.11884 v -14.02658 c 0,-1.17019 -0.85614,-2.11883 -1.91217,-2.11883 v 0 c 1.05603,0 1.91217,-0.94864 1.91217,-2.11884 v -14.02658 0 c 0,-1.17019 0.85608,-2.11883 1.91211,-2.11883" style="fill-rule:evenodd;stroke:#595959;stroke-width:1;stroke-linecap:butt;stroke-linejoin:round"/><path id="path355" d="m 838.0996,421.12592 h 14.62836 v 5.59805 H 838.0996 Z" style="fill:#000;fill-opacity:0;fill-rule:evenodd"/><path id="path357" d="m 855.78827,411.21597 h 7.92023 v 7.17398 h -7.92023 z" style="fill:#fff;fill-rule:evenodd"/><path id="path359" d="m 855.78827,411.21597 h 7.92023 v 7.17398 h -7.92023 z" style="fill-rule:evenodd;stroke:#4a86e8;stroke-width:1;stroke-linecap:butt;stroke-linejoin:round"/><path id="path361" d="m 855.78827,417.19037 h 7.92023 v 7.17398 h -7.92023 z" style="fill:#fff;fill-rule:evenodd"/><path id="path363" d="m 855.78827,417.19037 h 7.92023 v 7.17398 h -7.92023 z" style="fill-rule:evenodd;stroke:#4a86e8;stroke-width:1;stroke-linecap:butt;stroke-linejoin:round"/><path id="path365" d="m 855.78827,423.16476 h 7.92023 v 7.17401 h -7.92023 z" style="fill:#fff;fill-rule:evenodd"/><path id="path367" d="m 855.78827,423.16476 h 7.92023 v 7.17401 h -7.92023 z" style="fill-rule:evenodd;stroke:#4a86e8;stroke-width:1;stroke-linecap:butt;stroke-linejoin:round"/><path id="path369" d="m 855.78827,429.1392 h 7.92023 v 7.17398 h -7.92023 z" style="fill:#fff;fill-rule:evenodd"/><path id="path371" d="m 855.78827,429.1392 h 7.92023 v 7.17398 h -7.92023 z" style="fill-rule:evenodd;stroke:#4a86e8;stroke-width:1;stroke-linecap:butt;stroke-linejoin:round"/><path id="path373" d="m 855.78827,435.1136 h 7.92023 v 7.17398 h -7.92023 z" style="fill:#fff;fill-rule:evenodd"/><path id="path375" d="m 855.78827,435.1136 h 7.92023 v 7.17398 h -7.92023 z" style="fill-rule:evenodd;stroke:#4a86e8;stroke-width:1;stroke-linecap:butt;stroke-linejoin:round"/><path id="path377" d="m 618.7606,261.25125 c 40.95276,0 61.42914,-35.92914 81.90552,-71.85828 20.47638,-35.92914 40.95276,-71.85827 81.90552,-71.85827" style="fill:#000;fill-opacity:0;fill-rule:evenodd"/><path id="path379" d="m 618.7606,261.25125 c 40.95276,0 61.42914,-35.92914 81.90546,-71.85826 10.23822,-17.96457 20.47638,-35.92915 33.27411,-49.40257 6.39886,-6.73671 13.43762,-12.35065 21.43622,-16.2804 3.99933,-1.96487 8.23858,-3.5087 12.75781,-4.56131 2.25958,-0.52631 4.58911,-0.92981 6.99371,-1.20174 1.20227,-0.13596 2.42334,-0.23902 3.66376,-0.3081 l 0.35388,-0.0172" style="fill-rule:evenodd;stroke:#595959;stroke-width:1;stroke-linecap:butt;stroke-linejoin:round;stroke-dasharray:8,3"/><path id="path381" d="m 779.1456,117.62166 -1.0957,1.15275 3.06024,-1.20262 -3.11731,-1.04582 z" style="fill:#595959;fill-rule:evenodd;stroke:#595959;stroke-width:1;stroke-linecap:butt"/><path id="path383" d="m 618.7606,293.24408 c 41.37006,0 62.05511,-16.81101 82.74017,-33.62204 C 722.18577,242.81102 742.87083,226 784.24088,226" style="fill:#000;fill-opacity:0;fill-rule:evenodd"/><path id="path385" d="m 618.7606,293.24408 c 41.37006,0 62.05511,-16.81101 82.74011,-33.62204 10.34253,-8.4055 20.68506,-16.81102 33.61322,-23.11514 6.46405,-3.15207 13.57452,-5.7788 21.6546,-7.61751 4.0401,-0.91934 8.32251,-1.64169 12.88776,-2.1342 2.28265,-0.24626 4.63592,-0.43506 7.06506,-0.5623 1.21448,-0.0636 2.448,-0.11184 3.70105,-0.14415 l 0.39166,-0.009" style="fill-rule:evenodd;stroke:#595959;stroke-width:1;stroke-linecap:butt;stroke-linejoin:round;stroke-dasharray:8,3"/><path id="path387" d="m 780.814,226.03992 -1.11139,1.1376 3.07648,-1.16049 -3.10266,-1.08851 z" style="fill:#595959;fill-rule:evenodd;stroke:#595959;stroke-width:1;stroke-linecap:butt"/><path id="path389" d="m 618.7606,333.24408 c 39.72443,0 59.58661,3.52759 79.44879,7.05515 19.86224,3.52755 39.72443,7.05511 79.44885,7.05511" style="fill:#000;fill-opacity:0;fill-rule:evenodd"/><path id="path391" d="m 618.7606,333.24408 c 39.72443,0 59.58661,3.52759 79.44879,7.05515 9.93109,1.76376 19.86218,3.52755 32.27606,4.85037 6.20697,0.66144 13.03455,1.21261 20.79322,1.59842 3.87939,0.19293 7.99151,0.34451 12.37512,0.44784 2.19183,0.0517 4.45147,0.0913 6.78399,0.11798 1.1662,0.0133 2.35065,0.0235 3.55384,0.0303 l 0.2395,9.7e-4" style="fill-rule:evenodd;stroke:#595959;stroke-width:1;stroke-linecap:butt;stroke-linejoin:round;stroke-dasharray:8,3"/><path id="path393" d="m 774.23114,347.34512 -1.12762,1.12155 3.09283,-1.11627 -3.08673,-1.1329 z" style="fill:#595959;fill-rule:evenodd;stroke:#595959;stroke-width:1;stroke-linecap:butt"/><path id="path395" d="m 618.7606,397.24408 c 40.95276,0 61.42914,11.07877 81.90552,22.1575 20.47638,11.07874 40.95276,22.15747 81.90552,22.15747" style="fill:#000;fill-opacity:0;fill-rule:evenodd"/><path id="path397" d="m 618.7606,397.24408 c 40.95276,0 61.42914,11.07877 81.90546,22.1575 10.23822,5.53937 20.47638,11.07874 33.27411,15.23328 6.39886,2.07724 13.43762,3.80829 21.43622,5.02005 3.99933,0.60583 8.23858,1.08188 12.75781,1.40649 2.25958,0.16226 4.58911,0.28668 6.99371,0.37052 1.20227,0.0419 2.42334,0.0737 3.66376,0.095 l 0.35291,0.005" style="fill-rule:evenodd;stroke:#595959;stroke-width:1;stroke-linecap:butt;stroke-linejoin:round;stroke-dasharray:8,3"/><path id="path399" d="m 779.1446,441.53223 -1.1333,1.11575 3.09845,-1.10037 -3.08087,-1.14874 z" style="fill:#595959;fill-rule:evenodd;stroke:#595959;stroke-width:1;stroke-linecap:butt"/><path id="path401" d="m 780.8373,58.973755 h 99.40155 v 27.46457 H 780.8373 Z" style="fill:#000;fill-opacity:0;fill-rule:evenodd"/><path id="path403" d="M 811.0304,80.77375 V 73.8675 h 1.0625 v 0.984375 q 0.75,-1.140625 2.1875,-1.140625 0.625,0 1.15625,0.21875 0.53125,0.21875 0.78125,0.59375 0.26562,0.359375 0.375,0.859375 0.0625,0.328125 0.0625,1.140625 v 4.25 h -1.17188 v -4.203125 q 0,-0.71875 -0.14062,-1.0625 -0.14063,-0.359375 -0.48438,-0.5625 -0.34375,-0.21875 -0.8125,-0.21875 -0.75,0 -1.29687,0.46875 -0.54688,0.46875 -0.54688,1.796875 v 3.78125 z m 6.97498,-3.453125 q 0,-1.921875 1.07812,-2.84375 0.89063,-0.765625 2.17188,-0.765625 1.42187,0 2.32812,0.9375 0.90625,0.921875 0.90625,2.578125 0,1.328125 -0.40625,2.09375 -0.39062,0.765625 -1.15625,1.1875 -0.76562,0.421875 -1.67187,0.421875 -1.45313,0 -2.35938,-0.921875 -0.89062,-0.9375 -0.89062,-2.6875 z m 1.20312,0 q 0,1.328125 0.57813,1.984375 0.59375,0.65625 1.46875,0.65625 0.875,0 1.45312,-0.65625 0.57813,-0.671875 0.57813,-2.03125 0,-1.28125 -0.59375,-1.9375 -0.57813,-0.65625 -1.4375,-0.65625 -0.875,0 -1.46875,0.65625 -0.57813,0.65625 -0.57813,1.984375 z m 11.13123,3.453125 v -0.875 q -0.65625,1.03125 -1.9375,1.03125 -0.8125,0 -1.51563,-0.453125 -0.6875,-0.453125 -1.07812,-1.265625 -0.375,-0.828125 -0.375,-1.890625 0,-1.03125 0.34375,-1.875 0.34375,-0.84375 1.03125,-1.28125 0.70312,-0.453125 1.54687,-0.453125 0.625,0 1.10938,0.265625 0.5,0.25 0.79687,0.671875 v -3.421875 h 1.17188 v 9.546875 z m -3.70313,-3.453125 q 0,1.328125 0.5625,1.984375 0.5625,0.65625 1.32813,0.65625 0.76562,0 1.29687,-0.625 0.53125,-0.625 0.53125,-1.90625 0,-1.421875 -0.54687,-2.078125 Q 829.2616,74.68 828.46473,74.68 q -0.78125,0 -1.3125,0.640625 -0.51563,0.625 -0.51563,2 z m 11.3656,1.234375 1.20313,0.140625 q -0.28125,1.0625 -1.0625,1.65625 Q 837.3772,80.93 836.17408,80.93 q -1.51563,0 -2.40625,-0.9375 -0.89063,-0.9375 -0.89063,-2.609375 0,-1.75 0.89063,-2.703125 0.90625,-0.96875 2.34375,-0.96875 1.39062,0 2.26562,0.9375 0.875,0.9375 0.875,2.65625 0,0.109375 0,0.3125 h -5.15625 q 0.0625,1.140625 0.64063,1.75 0.57812,0.59375 1.4375,0.59375 0.65625,0 1.10937,-0.328125 0.45313,-0.34375 0.71875,-1.078125 z m -3.84375,-1.90625 h 3.85938 q -0.0781,-0.859375 -0.4375,-1.296875 -0.5625,-0.6875 -1.45313,-0.6875 -0.8125,0 -1.35937,0.546875 -0.54688,0.53125 -0.60938,1.4375 z m 9.89667,-0.578125 q 0,-1.6875 0.34375,-2.71875 0.35938,-1.03125 1.04688,-1.59375 0.6875,-0.5625 1.71875,-0.5625 0.78125,0 1.35937,0.3125 0.57813,0.296875 0.95313,0.890625 0.375,0.578125 0.59375,1.421875 0.21875,0.828125 0.21875,2.25 0,1.671875 -0.35938,2.703125 -0.34375,1.03125 -1.03125,1.59375 -0.67187,0.5625 -1.73437,0.5625 -1.375,0 -2.15625,-0.984375 -0.95313,-1.1875 -0.95313,-3.875 z m 1.20313,0 q 0,2.34375 0.54687,3.125 0.5625,0.78125 1.35938,0.78125 0.8125,0 1.35937,-0.78125 0.5625,-0.78125 0.5625,-3.125 0,-2.359375 -0.5625,-3.125 -0.54687,-0.78125 -1.35937,-0.78125 -0.8125,0 -1.29688,0.6875 -0.60937,0.875 -0.60937,3.21875 z" style="fill:#000;fill-rule:nonzero"/><path id="path405" d="m 780.8373,162.97375 h 99.40155 v 27.46457 H 780.8373 Z" style="fill:#000;fill-opacity:0;fill-rule:evenodd"/><path id="path407" d="m 811.0304,184.77376 v -6.90625 h 1.0625 v 0.98437 q 0.75,-1.14062 2.1875,-1.14062 0.625,0 1.15625,0.21875 0.53125,0.21875 0.78125,0.59375 0.26562,0.35937 0.375,0.85937 0.0625,0.32813 0.0625,1.14063 v 4.25 h -1.17188 v -4.20313 q 0,-0.71875 -0.14062,-1.0625 -0.14063,-0.35937 -0.48438,-0.5625 -0.34375,-0.21875 -0.8125,-0.21875 -0.75,0 -1.29687,0.46875 -0.54688,0.46875 -0.54688,1.79688 v 3.78125 z m 6.97498,-3.45313 q 0,-1.92187 1.07812,-2.84375 0.89063,-0.76562 2.17188,-0.76562 1.42187,0 2.32812,0.9375 0.90625,0.92187 0.90625,2.57812 0,1.32813 -0.40625,2.09375 -0.39062,0.76563 -1.15625,1.1875 -0.76562,0.42188 -1.67187,0.42188 -1.45313,0 -2.35938,-0.92188 -0.89062,-0.9375 -0.89062,-2.6875 z m 1.20312,0 q 0,1.32813 0.57813,1.98438 0.59375,0.65625 1.46875,0.65625 0.875,0 1.45312,-0.65625 0.57813,-0.67188 0.57813,-2.03125 0,-1.28125 -0.59375,-1.9375 -0.57813,-0.65625 -1.4375,-0.65625 -0.875,0 -1.46875,0.65625 -0.57813,0.65625 -0.57813,1.98437 z m 11.13123,3.45313 v -0.875 q -0.65625,1.03125 -1.9375,1.03125 -0.8125,0 -1.51563,-0.45313 -0.6875,-0.45312 -1.07812,-1.26562 -0.375,-0.82813 -0.375,-1.89063 0,-1.03125 0.34375,-1.875 0.34375,-0.84375 1.03125,-1.28125 0.70312,-0.45312 1.54687,-0.45312 0.625,0 1.10938,0.26562 0.5,0.25 0.79687,0.67188 v -3.42188 h 1.17188 v 9.54688 z m -3.70313,-3.45313 q 0,1.32813 0.5625,1.98438 0.5625,0.65625 1.32813,0.65625 0.76562,0 1.29687,-0.625 0.53125,-0.625 0.53125,-1.90625 0,-1.42188 -0.54687,-2.07813 -0.54688,-0.67187 -1.34375,-0.67187 -0.78125,0 -1.3125,0.64062 -0.51563,0.625 -0.51563,2 z m 11.3656,1.23438 1.20313,0.14062 q -0.28125,1.0625 -1.0625,1.65625 -0.76563,0.57813 -1.96875,0.57813 -1.51563,0 -2.40625,-0.9375 -0.89063,-0.9375 -0.89063,-2.60938 0,-1.75 0.89063,-2.70312 0.90625,-0.96875 2.34375,-0.96875 1.39062,0 2.26562,0.9375 0.875,0.9375 0.875,2.65625 0,0.10937 0,0.3125 h -5.15625 q 0.0625,1.14062 0.64063,1.75 0.57812,0.59375 1.4375,0.59375 0.65625,0 1.10937,-0.32813 0.45313,-0.34375 0.71875,-1.07812 z m -3.84375,-1.90625 h 3.85938 q -0.0781,-0.85938 -0.4375,-1.29688 -0.5625,-0.6875 -1.45313,-0.6875 -0.8125,0 -1.35937,0.54688 -0.54688,0.53125 -0.60938,1.4375 z m 14.31855,4.125 h -1.17188 v -7.46875 q -0.42187,0.40625 -1.10937,0.8125 -0.6875,0.40625 -1.23438,0.60937 v -1.14062 q 0.98438,-0.45313 1.71875,-1.10938 0.73438,-0.67187 1.03125,-1.28125 h 0.76563 z" style="fill:#000;fill-rule:nonzero"/><path id="path409" d="m 780.8373,258.97375 h 99.40155 v 27.46457 H 780.8373 Z" style="fill:#000;fill-opacity:0;fill-rule:evenodd"/><path id="path411" d="m 811.0304,280.77374 v -6.90625 h 1.0625 v 0.98437 q 0.75,-1.14062 2.1875,-1.14062 0.625,0 1.15625,0.21875 0.53125,0.21875 0.78125,0.59375 0.26562,0.35937 0.375,0.85937 0.0625,0.32813 0.0625,1.14063 v 4.25 h -1.17188 v -4.20313 q 0,-0.71875 -0.14062,-1.0625 -0.14063,-0.35937 -0.48438,-0.5625 -0.34375,-0.21875 -0.8125,-0.21875 -0.75,0 -1.29687,0.46875 -0.54688,0.46875 -0.54688,1.79688 v 3.78125 z m 6.97498,-3.45313 q 0,-1.92187 1.07812,-2.84375 0.89063,-0.76562 2.17188,-0.76562 1.42187,0 2.32812,0.9375 0.90625,0.92187 0.90625,2.57812 0,1.32813 -0.40625,2.09375 -0.39062,0.76563 -1.15625,1.1875 -0.76562,0.42188 -1.67187,0.42188 -1.45313,0 -2.35938,-0.92188 -0.89062,-0.9375 -0.89062,-2.6875 z m 1.20312,0 q 0,1.32813 0.57813,1.98438 0.59375,0.65625 1.46875,0.65625 0.875,0 1.45312,-0.65625 0.57813,-0.67188 0.57813,-2.03125 0,-1.28125 -0.59375,-1.9375 -0.57813,-0.65625 -1.4375,-0.65625 -0.875,0 -1.46875,0.65625 -0.57813,0.65625 -0.57813,1.98437 z m 11.13123,3.45313 v -0.875 q -0.65625,1.03125 -1.9375,1.03125 -0.8125,0 -1.51563,-0.45313 -0.6875,-0.45312 -1.07812,-1.26562 -0.375,-0.82813 -0.375,-1.89063 0,-1.03125 0.34375,-1.875 0.34375,-0.84375 1.03125,-1.28125 0.70312,-0.45312 1.54687,-0.45312 0.625,0 1.10938,0.26562 0.5,0.25 0.79687,0.67188 v -3.42188 h 1.17188 v 9.54688 z m -3.70313,-3.45313 q 0,1.32813 0.5625,1.98438 0.5625,0.65625 1.32813,0.65625 0.76562,0 1.29687,-0.625 0.53125,-0.625 0.53125,-1.90625 0,-1.42188 -0.54687,-2.07813 -0.54688,-0.67187 -1.34375,-0.67187 -0.78125,0 -1.3125,0.64062 -0.51563,0.625 -0.51563,2 z m 11.3656,1.23438 1.20313,0.14062 q -0.28125,1.0625 -1.0625,1.65625 -0.76563,0.57813 -1.96875,0.57813 -1.51563,0 -2.40625,-0.9375 -0.89063,-0.9375 -0.89063,-2.60938 0,-1.75 0.89063,-2.70312 0.90625,-0.96875 2.34375,-0.96875 1.39062,0 2.26562,0.9375 0.875,0.9375 0.875,2.65625 0,0.10937 0,0.3125 h -5.15625 q 0.0625,1.14062 0.64063,1.75 0.57812,0.59375 1.4375,0.59375 0.65625,0 1.10937,-0.32813 0.45313,-0.34375 0.71875,-1.07812 z m -3.84375,-1.90625 h 3.85938 q -0.0781,-0.85938 -0.4375,-1.29688 -0.5625,-0.6875 -1.45313,-0.6875 -0.8125,0 -1.35937,0.54688 -0.54688,0.53125 -0.60938,1.4375 z m 16.05292,3 v 1.125 h -6.29688 q -0.0156,-0.42188 0.14063,-0.8125 0.23437,-0.64063 0.76562,-1.26563 0.53125,-0.625 1.53125,-1.45312 1.5625,-1.26563 2.10938,-2.01563 0.54687,-0.75 0.54687,-1.40625 0,-0.70312 -0.5,-1.17187 -0.5,-0.48438 -1.29687,-0.48438 -0.85938,0 -1.375,0.51563 -0.5,0.5 -0.5,1.39062 l -1.20313,-0.10937 q 0.125,-1.35938 0.92188,-2.0625 0.8125,-0.70313 2.17187,-0.70313 1.375,0 2.17188,0.76563 0.8125,0.75 0.8125,1.875 0,0.57812 -0.23438,1.14062 -0.23437,0.54688 -0.78125,1.15625 -0.54687,0.60938 -1.8125,1.67188 -1.04687,0.89062 -1.35937,1.21875 -0.29688,0.3125 -0.48438,0.625 z" style="fill:#000;fill-rule:nonzero"/><path id="path413" d="m 780.8373,354.97375 h 99.40155 v 27.46457 H 780.8373 Z" style="fill:#000;fill-opacity:0;fill-rule:evenodd"/><path id="path415" d="m 811.0304,376.77374 v -6.90625 h 1.0625 v 0.98437 q 0.75,-1.14062 2.1875,-1.14062 0.625,0 1.15625,0.21875 0.53125,0.21875 0.78125,0.59375 0.26562,0.35937 0.375,0.85937 0.0625,0.32813 0.0625,1.14063 v 4.25 h -1.17188 v -4.20313 q 0,-0.71875 -0.14062,-1.0625 -0.14063,-0.35937 -0.48438,-0.5625 -0.34375,-0.21875 -0.8125,-0.21875 -0.75,0 -1.29687,0.46875 -0.54688,0.46875 -0.54688,1.79688 v 3.78125 z m 6.97498,-3.45313 q 0,-1.92187 1.07812,-2.84375 0.89063,-0.76562 2.17188,-0.76562 1.42187,0 2.32812,0.9375 0.90625,0.92187 0.90625,2.57812 0,1.32813 -0.40625,2.09375 -0.39062,0.76563 -1.15625,1.1875 -0.76562,0.42188 -1.67187,0.42188 -1.45313,0 -2.35938,-0.92188 -0.89062,-0.9375 -0.89062,-2.6875 z m 1.20312,0 q 0,1.32813 0.57813,1.98438 0.59375,0.65625 1.46875,0.65625 0.875,0 1.45312,-0.65625 0.57813,-0.67188 0.57813,-2.03125 0,-1.28125 -0.59375,-1.9375 -0.57813,-0.65625 -1.4375,-0.65625 -0.875,0 -1.46875,0.65625 -0.57813,0.65625 -0.57813,1.98437 z m 11.13123,3.45313 v -0.875 q -0.65625,1.03125 -1.9375,1.03125 -0.8125,0 -1.51563,-0.45313 -0.6875,-0.45312 -1.07812,-1.26562 -0.375,-0.82813 -0.375,-1.89063 0,-1.03125 0.34375,-1.875 0.34375,-0.84375 1.03125,-1.28125 0.70312,-0.45312 1.54687,-0.45312 0.625,0 1.10938,0.26562 0.5,0.25 0.79687,0.67188 v -3.42188 h 1.17188 v 9.54688 z m -3.70313,-3.45313 q 0,1.32813 0.5625,1.98438 0.5625,0.65625 1.32813,0.65625 0.76562,0 1.29687,-0.625 0.53125,-0.625 0.53125,-1.90625 0,-1.42188 -0.54687,-2.07813 -0.54688,-0.67187 -1.34375,-0.67187 -0.78125,0 -1.3125,0.64062 -0.51563,0.625 -0.51563,2 z m 11.3656,1.23438 1.20313,0.14062 q -0.28125,1.0625 -1.0625,1.65625 -0.76563,0.57813 -1.96875,0.57813 -1.51563,0 -2.40625,-0.9375 -0.89063,-0.9375 -0.89063,-2.60938 0,-1.75 0.89063,-2.70312 0.90625,-0.96875 2.34375,-0.96875 1.39062,0 2.26562,0.9375 0.875,0.9375 0.875,2.65625 0,0.10937 0,0.3125 h -5.15625 q 0.0625,1.14062 0.64063,1.75 0.57812,0.59375 1.4375,0.59375 0.65625,0 1.10937,-0.32813 0.45313,-0.34375 0.71875,-1.07812 z m -3.84375,-1.90625 h 3.85938 q -0.0781,-0.85938 -0.4375,-1.29688 -0.5625,-0.6875 -1.45313,-0.6875 -0.8125,0 -1.35937,0.54688 -0.54688,0.53125 -0.60938,1.4375 z m 10.2248,4.125 v -6.90625 h 1.0625 v 0.98437 q 0.75,-1.14062 2.1875,-1.14062 0.625,0 1.15625,0.21875 0.53125,0.21875 0.78125,0.59375 0.26562,0.35937 0.375,0.85937 0.0625,0.32813 0.0625,1.14063 v 4.25 h -1.17188 v -4.20313 q 0,-0.71875 -0.14062,-1.0625 -0.14063,-0.35937 -0.48438,-0.5625 -0.34375,-0.21875 -0.8125,-0.21875 -0.75,0 -1.29687,0.46875 -0.54688,0.46875 -0.54688,1.79688 v 3.78125 z" style="fill:#000;fill-rule:nonzero"/></g></svg>