<svg xmlns="http://www.w3.org/2000/svg" xmlns:svg="http://www.w3.org/2000/svg" id="svg14043" width="635.308" height="570.862" version="1.1"><defs id="defs14045"><marker id="Arrow1Lend" orient="auto" refX="0" refY="0" style="overflow:visible"><path id="path4058" d="M 0,0 5,-5 -12.5,0 5,5 0,0 z" transform="matrix(-0.8,0,0,-0.8,-10,0)" style="fill-rule:evenodd;stroke:#000;stroke-width:1pt;marker-start:none"/></marker><marker id="Arrow1Mstart" orient="auto" refX="0" refY="0" style="overflow:visible"><path id="path4437" d="M 0,0 5,-5 -12.5,0 5,5 0,0 z" transform="matrix(0.4,0,0,0.4,4,0)" style="fill-rule:evenodd;stroke:#000;stroke-width:1pt;marker-start:none"/></marker><marker id="Arrow1Mend" orient="auto" refX="0" refY="0" style="overflow:visible"><path id="path14797" d="M 0,0 5,-5 -12.5,0 5,5 0,0 z" transform="matrix(-0.4,0,0,-0.4,-4,0)" style="fill-rule:evenodd;stroke:#000;stroke-width:1pt;marker-start:none"/></marker><marker id="Arrow1Mend-4" orient="auto" refX="0" refY="0" style="overflow:visible"><path id="path14797-7" d="M 0,0 5,-5 -12.5,0 5,5 0,0 z" transform="matrix(-0.4,0,0,-0.4,-4,0)" style="fill-rule:evenodd;stroke:#000;stroke-width:1pt;marker-start:none"/></marker><marker id="Arrow1Mend-5" orient="auto" refX="0" refY="0" style="overflow:visible"><path id="path14797-0" d="M 0,0 5,-5 -12.5,0 5,5 0,0 z" transform="matrix(-0.4,0,0,-0.4,-4,0)" style="fill-rule:evenodd;stroke:#000;stroke-width:1pt;marker-start:none"/></marker><marker id="Arrow1Mend-0" orient="auto" refX="0" refY="0" style="overflow:visible"><path id="path14797-6" d="M 0,0 5,-5 -12.5,0 5,5 0,0 z" transform="matrix(-0.4,0,0,-0.4,-4,0)" style="fill-rule:evenodd;stroke:#000;stroke-width:1pt;marker-start:none"/></marker><marker id="Arrow1Mstart-5" orient="auto" refX="0" refY="0" style="overflow:visible"><path id="path4437-5" d="M 0,0 5,-5 -12.5,0 5,5 0,0 z" transform="matrix(0.4,0,0,0.4,4,0)" style="fill-rule:evenodd;stroke:#000;stroke-width:1pt;marker-start:none"/></marker><marker id="Arrow1Mstart-9" orient="auto" refX="0" refY="0" style="overflow:visible"><path id="path4437-3" d="M 0,0 5,-5 -12.5,0 5,5 0,0 z" transform="matrix(0.4,0,0,0.4,4,0)" style="fill-rule:evenodd;stroke:#000;stroke-width:1pt;marker-start:none"/></marker></defs><metadata id="metadata14048"/><g id="layer1" transform="translate(-13.525282,-9.9128498)"><rect style="fill:#000;fill-opacity:.10041839;stroke:none" id="rect15785-3" width="206.634" height="186.885" x="13.625" y="355.828" rx="25.958" ry="32.63"/><rect style="fill:#000;fill-opacity:.10041839;stroke:none" id="rect15785" width="190.114" height="227.263" x="242.767" y="353.412" rx="25.958" ry="32.63"/><rect style="fill:#000;fill-opacity:.10041839;stroke:none" id="rect15785-1" width="188.81" height="271.013" x="243.419" y="76.721" rx="25.958" ry="32.63"/><rect style="fill:#000;fill-opacity:.10041839;stroke:none" id="rect15785-1-3" width="186.898" height="171.308" x="23.493" y="152.363" rx="25.958" ry="32.63"/><rect style="fill:#000;fill-opacity:.10041839;stroke:none" id="rect15785-1-4" width="194.589" height="169.677" x="454.144" y="10.013" rx="25.958" ry="32.63"/><rect style="fill:#000;fill-opacity:.10041839;stroke:none" id="rect15785-1-5" width="193.388" height="203.938" x="454.745" y="199.211" rx="25.958" ry="32.63"/><rect style="fill:#000;fill-opacity:.10041839;stroke:none" id="rect15785-1-2-0" width="185.6" height="137.047" x="458.639" y="432.485" rx="25.958" ry="32.63"/><g id="g14229" transform="matrix(1.2848591,0,0,1.6151089,-288.29741,-857.02037)"><rect id="rect2837-4-06-5" width="124.802" height="44.501" x="252.995" y="756.778" rx="8.586" ry="7.071" style="fill:#c3c4ff;fill-opacity:1;stroke:#000;stroke-opacity:1"/><text id="text14084" x="285.357" y="781.648" xml:space="preserve" style="font-size:10px;font-style:normal;font-weight:400;fill:#000;fill-opacity:1;stroke:none;font-family:Bitstream Vera Sans"><tspan id="tspan14086" x="285.357" y="781.648">rte_malloc</tspan></text></g><g id="g14234" transform="matrix(1.2848591,0,0,1.6151089,-66.98918,-730.50352)"><rect id="rect2837-4-06-5-3" width="124.802" height="44.501" x="252.663" y="678.206" rx="8.586" ry="7.071" style="fill:#c3c4ff;fill-opacity:1;stroke:#000;stroke-opacity:1"/><text id="text14084-0" x="283.866" y="703.076" xml:space="preserve" style="font-size:10px;font-style:normal;font-weight:400;fill:#000;fill-opacity:1;stroke:none;font-family:Bitstream Vera Sans"><tspan id="tspan14086-7" x="283.866" y="703.076">rte_eal + libc</tspan></text></g><g id="g14239" transform="matrix(1.2848591,0,0,1.6151089,165.66317,-754.1564)"><rect id="rect2837-4-06-5-6" width="124.802" height="44.501" x="237.846" y="600.349" rx="8.586" ry="7.071" style="fill:#c3c4ff;fill-opacity:1;stroke:#000;stroke-opacity:1"/><text id="text14084-8" x="275.357" y="625.219" xml:space="preserve" style="font-size:10px;font-style:normal;font-weight:400;fill:#000;fill-opacity:1;stroke:none;font-family:Bitstream Vera Sans"><tspan id="tspan14086-8" x="275.357" y="625.219">rte_ring</tspan></text></g><g id="g14254" transform="matrix(1.2848591,0,0,1.6151089,-388.59024,-722.81247)"><rect id="rect2837-4-06-5-31" width="124.802" height="44.501" x="502.964" y="588.206" rx="8.586" ry="7.071" style="fill:#c3c4ff;fill-opacity:1;stroke:#000;stroke-opacity:1"/><text id="text14084-4" x="526.786" y="613.076" xml:space="preserve" style="font-size:10px;font-style:normal;font-weight:400;fill:#000;fill-opacity:1;stroke:none;font-family:Bitstream Vera Sans"><tspan id="tspan14086-9" x="526.786" y="613.076">rte_mempool</tspan></text></g><g id="g14244" transform="matrix(1.2848591,0,0,1.6151089,160.86376,-719.73612)"><rect id="rect2837-4-06-5-0" width="124.802" height="44.501" x="241.582" y="501.064" rx="8.586" ry="7.071" style="fill:#c3c4ff;fill-opacity:1;stroke:#000;stroke-opacity:1"/><text id="text14084-6" x="275.357" y="525.934" xml:space="preserve" style="font-size:10px;font-style:normal;font-weight:400;fill:#000;fill-opacity:1;stroke:none;font-family:Bitstream Vera Sans"><tspan id="tspan14086-89" x="275.357" y="525.934">rte_mbuf</tspan></text></g><g id="g15423" transform="matrix(1.2848591,0,0,1.6151089,-52.842661,-589.8906)"><rect id="rect2837-4-06-5-0-0-7" width="124.802" height="44.501" x="69.742" y="510.826" rx="8.586" ry="7.071" style="fill:#c3c4ff;fill-opacity:1;stroke:#000;stroke-opacity:1"/><text id="text14084-6-4-1" x="103.239" y="535.696" xml:space="preserve" style="font-size:10px;font-style:normal;font-weight:400;fill:#000;fill-opacity:1;stroke:none;font-family:Bitstream Vera Sans"><tspan id="tspan14086-89-8-7" x="103.239" y="535.696">rte_timer</tspan></text></g><path style="fill:none;stroke:#000;stroke-width:1.44055104px;stroke-linecap:butt;stroke-linejoin:miter;stroke-opacity:1;marker-start:url(#Arrow1Mstart);marker-end:none" id="path14259" d="m 257.64752,400.95017 -60.52887,0.10538"/><path style="fill:none;stroke:#000;stroke-width:1.44055104px;stroke-linecap:butt;stroke-linejoin:miter;stroke-opacity:1;marker-end:url(#Arrow1Mend)" id="path14261" d="M 500.0555,287.34697 389.20701,364.87361"/><path style="fill:none;stroke:#000;stroke-width:1.44024909;stroke-linecap:butt;stroke-linejoin:miter;stroke-miterlimit:4;stroke-opacity:1;stroke-dasharray:none;marker-start:url(#Arrow1Mstart-9);marker-end:none" id="path14263" d="M 469.93838,257.33479 418.9627,257.1672"/><path style="fill:none;stroke:#000;stroke-width:1.44024909;stroke-linecap:butt;stroke-linejoin:miter;stroke-miterlimit:4;stroke-opacity:1;stroke-dasharray:none;marker-start:url(#Arrow1Mstart-9);marker-end:url(#Arrow1Mend)" id="path14265" d="m 337.82388,299.07882 1e-5,65.79479"/><path style="fill:none;stroke:#000;stroke-width:1.44055104px;stroke-linecap:butt;stroke-linejoin:miter;stroke-opacity:1;marker-end:url(#Arrow1Mend)" id="path15233" d="m 51.331468,66.475997 58.736412,0"/><text style="font-size:14.40550995px;font-style:normal;font-weight:400;fill:#000;fill-opacity:1;stroke:none;font-family:Bitstream Vera Sans" id="text15419" x="62.267" y="84.594" transform="scale(0.89192198,1.1211743)" xml:space="preserve"><tspan id="tspan15421" x="62.267" y="84.594">X uses Y</tspan></text><text style="font-size:14.40550995px;font-style:normal;font-weight:400;fill:#000;fill-opacity:1;stroke:none;font-family:Bitstream Vera Sans" id="text15436" x="56.602" y="417.217" transform="scale(0.89192198,1.1211743)" xml:space="preserve"><tspan id="tspan15438" x="56.602" y="417.217">Allocation of named</tspan><tspan id="tspan15440" x="56.602" y="435.224">memory zones using</tspan><tspan id="tspan3464" x="56.602" y="453.231">libc&apos;s malloc()</tspan></text><text style="font-size:14.40550995px;font-style:normal;font-weight:400;fill:#000;fill-opacity:1;stroke:none;font-family:Bitstream Vera Sans" id="text15436-2" x="278.899" y="419.931" transform="scale(0.89192198,1.1211743)" xml:space="preserve"><tspan id="tspan3092" x="278.899" y="419.931">Environment abstraction</tspan><tspan id="tspan3129" x="278.899" y="437.938">layer: RTE loading, memory</tspan><tspan id="tspan3096" x="278.899" y="455.945">allocation, time reference,</tspan><tspan id="tspan3102" x="278.899" y="473.951">PCI access, logging</tspan></text><text style="font-size:14.40550995px;font-style:normal;font-weight:400;fill:#000;fill-opacity:1;stroke:none;font-family:Bitstream Vera Sans" id="text15436-2-2" x="49.941" y="158.518" transform="scale(0.89192198,1.1211743)" xml:space="preserve"><tspan id="tspan15537" x="49.941" y="158.518">Timer facilities. Based</tspan><tspan id="tspan3238" x="49.941" y="176.525">on HPET interface that</tspan><tspan id="tspan3240" x="49.941" y="194.532">is provided by EAL.</tspan></text><text style="font-size:14.40550995px;font-style:normal;font-weight:400;fill:#000;fill-opacity:1;stroke:none;font-family:Bitstream Vera Sans" id="text15436-2-2-5" x="288.368" y="101.25" transform="scale(0.89192198,1.1211743)" xml:space="preserve"><tspan id="tspan15537-9" x="288.368" y="101.25">Handle a pool of objects</tspan><tspan id="tspan15575" x="288.368" y="119.256">using a ring to store</tspan><tspan id="tspan15581" x="288.368" y="137.263">them. Allow bulk</tspan><tspan id="tspan15775" x="288.368" y="155.27">enqueue/dequeue and</tspan><tspan id="tspan15781" x="288.368" y="173.277">per-CPU cache.</tspan></text><text style="font-size:14.40550995px;font-style:normal;font-weight:400;fill:#000;fill-opacity:1;stroke:none;font-family:Bitstream Vera Sans" id="text15436-2-2-5-0" x="534.006" y="297.334" transform="scale(0.89192198,1.1211743)" xml:space="preserve"><tspan id="tspan15581-1" x="534.006" y="297.334">Fixed-size lockless </tspan><tspan id="tspan15634" x="534.006" y="315.341">FIFO for storing objects</tspan><tspan id="tspan15656" x="534.006" y="333.348">in a table.</tspan></text><text style="font-size:14.40550995px;font-style:normal;font-weight:400;fill:#000;fill-opacity:1;stroke:none;font-family:Bitstream Vera Sans" id="text15436-2-2-5-0-1" x="529.163" y="33.516" transform="scale(0.89192198,1.1211743)" xml:space="preserve"><tspan id="tspan15719" x="529.163" y="33.516">Manipulation of packet</tspan><tspan id="tspan15727" x="529.163" y="51.523">buffers carrying network</tspan><tspan id="tspan3246" x="529.163" y="69.53">data.</tspan></text><rect style="fill:#c3c4ff;fill-opacity:1;stroke:#000;stroke-width:1.44055104;stroke-opacity:1" id="rect2837-4-06-5-0-0-9" width="160.353" height="71.874" x="471.262" y="445.246" rx="11.032" ry="11.421"/><text style="font-size:14.40550995px;font-style:normal;font-weight:400;fill:#000;fill-opacity:1;stroke:none;font-family:Bitstream Vera Sans" id="text14084-6-4-4" x="581.711" y="432.951" transform="scale(0.89192198,1.1211743)" xml:space="preserve"><tspan id="tspan14086-89-8-78" x="581.711" y="432.951">rte_debug</tspan></text><text style="font-size:14.40550995px;font-style:normal;font-weight:400;fill:#000;fill-opacity:1;stroke:none;font-family:Bitstream Vera Sans" id="text15432-4" x="533.415" y="480.627" transform="scale(0.89192198,1.1211743)" xml:space="preserve"><tspan id="tspan15434-5" x="533.415" y="480.627">Provides debug helpers</tspan></text><path style="fill:none;stroke:#000;stroke-width:1.44055104px;stroke-linecap:butt;stroke-linejoin:miter;stroke-opacity:1;marker-end:url(#Arrow1Mend);display:inline" id="path14261-1" d="M 472.46111,451.46754 416.80139,430.5257"/><flowRoot id="flowRoot3225" transform="matrix(1.066935,0,0,1.3411713,-43.506194,-197.99784)" xml:space="preserve" style="font-size:10px;font-style:normal;font-weight:400;fill:#000;fill-opacity:1;stroke:none;font-family:Bitstream Vera Sans"><flowRegion id="flowRegion3227"><rect id="rect3229" width="7.143" height="12.857" x="157.143" y="171.648"/></flowRegion><flowPara id="flowPara3231"/></flowRoot><path style="fill:none;stroke:#000;stroke-width:1.44055104px;stroke-linecap:butt;stroke-linejoin:miter;stroke-opacity:1;marker-start:url(#Arrow1Mstart);marker-end:none;display:inline" id="path14259-4" d="M 276.63415,364.87361 178.13203,307.02292"/><path style="fill:none;stroke:#000;stroke-width:1.44055104px;stroke-linecap:butt;stroke-linejoin:miter;stroke-opacity:1;marker-start:url(#Arrow1Mstart);marker-end:none;display:inline" id="path14259-4-7" d="m 393.58574,227.20486 102.091,-65.79483"/><text style="font-size:14.40550995px;font-style:normal;font-weight:400;fill:#000;fill-opacity:1;stroke:none;font-family:Bitstream Vera Sans" id="text15419-1" x="41.769" y="63.652" transform="scale(0.89192198,1.1211743)" xml:space="preserve"><tspan id="tspan15421-7" x="41.769" y="63.652">X</tspan></text><text style="font-size:14.40550995px;font-style:normal;font-weight:400;fill:#000;fill-opacity:1;stroke:none;font-family:Bitstream Vera Sans" id="text15419-9" x="134.988" y="62.798" transform="scale(0.89192198,1.1211743)" xml:space="preserve"><tspan id="tspan15421-4" x="134.988" y="62.798">Y</tspan></text></g></svg>