<svg xmlns="http://www.w3.org/2000/svg" xmlns:svg="http://www.w3.org/2000/svg" xmlns:xlink="http://www.w3.org/1999/xlink" id="svg70" width="469.761" height="374.139" class="st10" version="1.1" viewBox="0 0 352.32 280.605" xml:space="preserve" style="font-size:12px;overflow:visible;color-interpolation-filters:sRGB;fill:none;fill-rule:evenodd;stroke-linecap:square;stroke-miterlimit:3"><metadata id="metadata74"/><style id="style2" type="text/css">.st1{fill:url(#grad0-4);stroke:#386288;stroke-width:.75}.st2{fill:#386288;font-family:Calibri;font-size:.833336em}.st3{visibility:visible}.st4{fill:#bdd0e9;fill-opacity:.25;filter:url(#filter_2);stroke:#bdd0e9;stroke-opacity:.25}.st5{fill:#a6b6cd;stroke:#41719c;stroke-width:.75}.st6{fill:#41719c;font-family:Calibri;font-size:.833336em}.st7{fill:#fff;stroke:#41719c;stroke-width:.75}.st10{fill:none;fill-rule:evenodd;font-size:12px;overflow:visible;stroke-linecap:square;stroke-miterlimit:3}</style><defs id="Patterns_And_Gradients"><marker id="marker5421" orient="auto" refX="0" refY="0" style="overflow:visible"><path id="path5419" d="M 8.7185878,4.0337352 -2.2072895,0.01601326 8.7185884,-4.0017078 c -1.7454984,2.3720609 -1.7354408,5.6174519 -6e-7,8.035443 z" transform="matrix(-1.1,0,0,-1.1,-1.1,0)" style="fill:#41719c;fill-opacity:1;fill-rule:evenodd;stroke:#41719c;stroke-width:.625;stroke-linejoin:round;stroke-opacity:1"/></marker><marker style="overflow:visible" id="Arrow2Lend" orient="auto" refX="0" refY="0"><path style="fill:#41719c;fill-opacity:1;fill-rule:evenodd;stroke:#41719c;stroke-width:.625;stroke-linejoin:round;stroke-opacity:1" id="path5004" d="M 8.7185878,4.0337352 -2.2072895,0.01601326 8.7185884,-4.0017078 c -1.7454984,2.3720609 -1.7354408,5.6174519 -6e-7,8.035443 z" transform="matrix(-1.1,0,0,-1.1,-1.1,0)"/></marker><marker style="overflow:visible" id="Arrow1Lend" orient="auto" refX="0" refY="0"><path style="fill:#000;fill-opacity:1;fill-rule:evenodd;stroke:#000;stroke-width:1.00000003pt;stroke-opacity:1" id="path4986" d="M 0,0 5,-5 -12.5,0 5,5 Z" transform="matrix(-0.8,0,0,-0.8,-10,0)"/></marker><linearGradient id="grad0-4" x1="0" x2="1" y1="0" y2="0" gradientTransform="rotate(60,0.5,0.5)"><stop id="stop4" offset="0" stop-color="#e8ebef" stop-opacity="1"/><stop id="stop6" offset=".24" stop-color="#f4f5f7" stop-opacity="1"/><stop id="stop8" offset=".54" stop-color="#feffff" stop-opacity="1"/></linearGradient><filter id="filter_2-4"><feGaussianBlur id="feGaussianBlur12-0" stdDeviation="2"/></filter><linearGradient id="linearGradient189" x1="-.427" x2="176.711" y1=".989" y2=".989" gradientTransform="scale(0.8787489,1.1379815)" gradientUnits="userSpaceOnUse" xlink:href="#grad0-4"/><filter id="filter_2-5"><feGaussianBlur id="feGaussianBlur12-8" stdDeviation="2"/></filter><filter id="filter_2-3"><feGaussianBlur id="feGaussianBlur12-2" stdDeviation="2"/></filter><linearGradient id="linearGradient189-7" x1="-.427" x2="176.711" y1=".989" y2=".989" gradientTransform="scale(0.8787489,1.1379815)" gradientUnits="userSpaceOnUse" xlink:href="#grad0-4"/><linearGradient id="linearGradient500" x1="-.427" x2="176.711" y1=".989" y2=".989" gradientTransform="matrix(0.87785006,0,0,2.0116303,15.940232,20.619826)" gradientUnits="userSpaceOnUse" xlink:href="#grad0-4"/></defs><defs id="Filters"><filter id="filter_2"><feGaussianBlur id="feGaussianBlur12" stdDeviation="2"/></filter></defs><g id="shape18-1" transform="matrix(1,0,0,0.46836022,-12.05774,-7.0354309)"><title id="title18">Rounded Rectangle.12</title><desc id="desc20">Crypto Symmetric Session</desc><path id="path22" d="M 22.713297,378.28219 H 163.92871 a 6.7704177,11.980443 0 0 0 6.76307,-11.96745 V 35.256532 A 6.7704177,11.980443 0 0 0 163.92871,23.271405 H 22.713297 A 6.7704177,11.980443 0 0 0 15.940232,35.256532 V 366.31474 a 6.7704177,11.980443 0 0 0 6.773065,11.96745 z" class="st1" style="fill:url(#linearGradient500);stroke:#386288;stroke-width:.99665654"/></g><g id="shape19-6" transform="matrix(1,0,0,0.41409874,-2.136529,-9.5289258)"><title id="title27">Rounded Rectangle.13</title><desc id="desc29">Private Session Data</desc></g><path style="fill:#fff;stroke:#41719c;stroke-width:1.28185344" id="path43" d="m 16.65204,162.41822 h 123.21341 a 5.9074955,17.266947 0 0 0 5.90824,-17.2399 V 38.904442 A 5.9074955,17.266947 0 0 0 139.86545,21.635299 H 16.65204 A 5.9074955,17.266947 0 0 0 10.743795,38.904442 V 145.17832 a 5.9074955,17.266947 0 0 0 5.908245,17.2399 z" class="st7"/><rect id="rect4604" width="15.963" height="15.954" x="25.092" y="121.375" style="fill:none;fill-opacity:1;stroke:#41719c;stroke-width:.7760548;stroke-opacity:1"/><rect id="rect4604-7" width="15.963" height="15.954" x="41.055" y="121.375" style="font-size:12px;overflow:visible;color-interpolation-filters:sRGB;fill:none;fill-opacity:1;fill-rule:evenodd;stroke:#41719c;stroke-width:.7760548;stroke-linecap:square;stroke-miterlimit:3;stroke-opacity:1"/><rect id="rect4604-7-6" width="15.963" height="15.954" x="57.018" y="121.375" style="font-size:12px;overflow:visible;color-interpolation-filters:sRGB;fill:none;fill-opacity:1;fill-rule:evenodd;stroke:#41719c;stroke-width:.7760548;stroke-linecap:square;stroke-miterlimit:3;stroke-opacity:1"/><rect id="rect4604-7-6-9" width="15.963" height="15.954" x="72.982" y="121.375" style="font-size:12px;overflow:visible;color-interpolation-filters:sRGB;fill:none;fill-opacity:1;fill-rule:evenodd;stroke:#41719c;stroke-width:.7760548;stroke-linecap:square;stroke-miterlimit:3;stroke-opacity:1"/><rect id="rect4604-7-6-9-8" width="15.963" height="15.954" x="88.945" y="121.375" style="font-size:12px;overflow:visible;color-interpolation-filters:sRGB;fill:none;fill-opacity:1;fill-rule:evenodd;stroke:#41719c;stroke-width:.7760548;stroke-linecap:square;stroke-miterlimit:3;stroke-opacity:1"/><rect id="rect4604-7-6-9-8-9" width="15.963" height="15.954" x="104.909" y="121.375" style="font-size:12px;overflow:visible;color-interpolation-filters:sRGB;fill:none;fill-opacity:1;fill-rule:evenodd;stroke:#41719c;stroke-width:.7760548;stroke-linecap:square;stroke-miterlimit:3;stroke-opacity:1"/><rect id="rect4604-7-6-9-8-9-6" width="15.963" height="15.954" x="120.872" y="121.375" style="font-size:12px;overflow:visible;color-interpolation-filters:sRGB;fill:none;fill-opacity:1;fill-rule:evenodd;stroke:#41719c;stroke-width:.7760548;stroke-linecap:square;stroke-miterlimit:3;stroke-opacity:1"/><path id="path5030" d="m 128.80127,137.90141 -0.20704,20.06801 44.6966,-0.10399 0.20705,-93.424256 16.84434,0.62379" style="fill:none;fill-opacity:1;stroke:#41719c;stroke-width:.86738265px;stroke-linecap:butt;stroke-linejoin:miter;stroke-opacity:1;marker-end:url(#Arrow2Lend)"/><g id="shape18-1-4" transform="matrix(1,0,0,0.57815109,191.45876,-0.65041967)"><title id="title18-4">Rounded Rectangle.12</title><desc id="desc20-6">Crypto Symmetric Session</desc><path id="path22-0" d="m 6.78,202.33 h 141.36 a 6.77735,6.77735 -180 0 0 6.77,-6.77 V 8.28 A 6.77735,6.77735 -180 0 0 148.14,1.5 H 6.78 A 6.77735,6.77735 -180 0 0 0,8.28 v 187.28 a 6.77735,6.77735 -180 0 0 6.78,6.77 z" class="st1" style="fill:url(#linearGradient189);stroke:#386288;stroke-width:.75"/><text id="text24-5" x="26.318" y="17.335" class="st2" transform="scale(0.71276665,1.4029837)" style="font-size:14.02988338px;font-family:Calibri;fill:#386288;stroke-width:1.40298378">Crypto Driver Private Session</text><text id="text24-5-3" x="-240.043" y="19.076" class="st2" transform="scale(0.71276665,1.4029837)" style="font-size:14.02988338px;font-family:Calibri;overflow:visible;color-interpolation-filters:sRGB;fill:#386288;fill-rule:evenodd;stroke-width:1.40298378;stroke-linecap:square;stroke-miterlimit:3">Crypto Symmetric Session</text><text id="text24-5-5" x="-241.246" y="46.558" class="st2" transform="scale(0.71276665,1.4029837)" style="font-size:14.02988338px;font-family:Calibri;overflow:visible;color-interpolation-filters:sRGB;fill:#386288;fill-rule:evenodd;stroke-width:1.40298378;stroke-linecap:square;stroke-miterlimit:3">uint16_t nb_drivers;</text><text id="text24-5-6" x="-240.043" y="98.349" class="st2" transform="scale(0.71276665,1.4029837)" style="font-size:14.02988338px;font-family:Calibri;overflow:visible;color-interpolation-filters:sRGB;fill:#386288;fill-rule:evenodd;stroke-width:1.40298378;stroke-linecap:square;stroke-miterlimit:3">struct {</text><text id="text24-5-2" x="-204.559" y="115.261" class="st2" transform="scale(0.71276665,1.4029837)" style="font-size:14.02988338px;font-family:Calibri;overflow:visible;color-interpolation-filters:sRGB;fill:#386288;fill-rule:evenodd;stroke-width:1.40298378;stroke-linecap:square;stroke-miterlimit:3">void *data;</text><text id="text24-5-9" x="-240.043" y="144.328" class="st2" transform="scale(0.71276665,1.4029837)" style="font-size:14.02988338px;font-family:Calibri;overflow:visible;color-interpolation-filters:sRGB;fill:#386288;fill-rule:evenodd;stroke-width:1.40298378;stroke-linecap:square;stroke-miterlimit:3">} session_data[];</text><text id="text24-5-5-1" x="-240.515" y="58.946" class="st2" transform="scale(0.71276665,1.4029837)" style="font-size:14.02988338px;font-family:Calibri;overflow:visible;color-interpolation-filters:sRGB;fill:#386288;fill-rule:evenodd;stroke-width:1.40298378;stroke-linecap:square;stroke-miterlimit:3">uint16_t user_data_sz;</text><text id="text24-5-5-2" x="-185.786" y="189.482" class="st2" transform="scale(0.71276665,1.4029837)" style="font-size:14.02988338px;font-family:Calibri;overflow:visible;color-interpolation-filters:sRGB;fill:#386288;fill-rule:evenodd;stroke-width:1.40298378;stroke-linecap:square;stroke-miterlimit:3">user_data</text><text id="text24-5-5-1-4" x="-204.952" y="129.235" class="st2" transform="scale(0.71276665,1.4029837)" style="font-size:14.02988338px;font-family:Calibri;overflow:visible;color-interpolation-filters:sRGB;fill:#386288;fill-rule:evenodd;stroke-width:1.40298378;stroke-linecap:square;stroke-miterlimit:3">uint16_t refcnt;</text><text id="text24-5-5-1-4-3" x="-242.001" y="72.642" class="st2" transform="scale(0.71276665,1.4029837)" style="font-size:14.02988338px;font-family:Calibri;overflow:visible;color-interpolation-filters:sRGB;fill:#386288;fill-rule:evenodd;stroke-width:1.40298378;stroke-linecap:square;stroke-miterlimit:3">uint64_t opaque_data;</text></g><g id="shape19-6-5" transform="matrix(1.022976,0,0,0.71529071,199.82034,-39.936699)"><title id="title27-2">Rounded Rectangle.13</title><desc id="desc29-0">Private Session Data</desc><g id="shadow19-7-1" class="st3" transform="translate(0.345598,1.97279)" style="visibility:visible"><path id="path31-8" d="m 5.91,202.33 h 123.25 a 5.90925,5.90925 -180 0 0 5.91,-5.9 v -92.78 a 5.90925,5.90925 -180 0 0 -5.91,-5.91 H 5.91 A 5.90925,5.90925 -180 0 0 0,103.65 v 92.78 a 5.90925,5.90925 -180 0 0 5.91,5.9 z" class="st4" style="fill:#bdd0e9;fill-opacity:.25;stroke:#bdd0e9;stroke-opacity:.25;filter:url(#filter_2)"/></g><path id="path34-8" d="m 5.91,202.33 h 123.25 a 5.90925,5.90925 -180 0 0 5.91,-5.9 v -92.78 a 5.90925,5.90925 -180 0 0 -5.91,-5.91 H 5.91 A 5.90925,5.90925 -180 0 0 0,103.65 v 92.78 a 5.90925,5.90925 -180 0 0 5.91,5.9 z" class="st5" style="fill:#a6b6cd;stroke:#41719c;stroke-width:.75"/><text id="text36-7" x="34.64" y="119.965" class="st6" transform="scale(0.76039781,1.3151011)" style="font-size:13.15105343px;font-family:Calibri;fill:#41719c;stroke-width:1.31510115">Private Session Data</text></g><g id="shape18-1-4-7" transform="matrix(1,0,0,0.57815109,191.61478,163.41083)"><title id="title18-4-3">Rounded Rectangle.12</title><desc id="desc20-6-5">Crypto Symmetric Session</desc><path id="path22-0-8" d="m 6.78,202.33 h 141.36 a 6.77735,6.77735 -180 0 0 6.77,-6.77 V 8.28 A 6.77735,6.77735 -180 0 0 148.14,1.5 H 6.78 A 6.77735,6.77735 -180 0 0 0,8.28 v 187.28 a 6.77735,6.77735 -180 0 0 6.78,6.77 z" class="st1" style="fill:url(#linearGradient189-7);stroke:#386288;stroke-width:.75"/><text id="text24-5-1" x="26.318" y="17.335" class="st2" transform="scale(0.71276665,1.4029837)" style="font-size:14.02988338px;font-family:Calibri;fill:#386288;stroke-width:1.40298378">Crypto Driver Private Session</text></g><g id="shape19-6-5-1" transform="matrix(1.022976,0,0,0.71529071,199.97637,124.12455)"><title id="title27-2-4">Rounded Rectangle.13</title><desc id="desc29-0-9">Private Session Data</desc><g id="shadow19-7-1-8" class="st3" transform="translate(0.345598,1.97279)" style="visibility:visible"><path id="path31-8-4" d="m 5.91,202.33 h 123.25 a 5.90925,5.90925 -180 0 0 5.91,-5.9 v -92.78 a 5.90925,5.90925 -180 0 0 -5.91,-5.91 H 5.91 A 5.90925,5.90925 -180 0 0 0,103.65 v 92.78 a 5.90925,5.90925 -180 0 0 5.91,5.9 z" class="st4" style="fill:#bdd0e9;fill-opacity:.25;stroke:#bdd0e9;stroke-opacity:.25;filter:url(#filter_2-3)"/></g><path id="path34-8-3" d="m 5.91,202.33 h 123.25 a 5.90925,5.90925 -180 0 0 5.91,-5.9 v -92.78 a 5.90925,5.90925 -180 0 0 -5.91,-5.91 H 5.91 A 5.90925,5.90925 -180 0 0 0,103.65 v 92.78 a 5.90925,5.90925 -180 0 0 5.91,5.9 z" class="st5" style="fill:#a6b6cd;stroke:#41719c;stroke-width:.75"/><text id="text36-7-6" x="34.64" y="119.965" class="st6" transform="scale(0.76039781,1.3151011)" style="font-size:13.15105343px;font-family:Calibri;fill:#41719c;stroke-width:1.31510115">Private Session Data</text></g><text style="font-style:normal;font-variant:normal;font-weight:400;font-stretch:normal;font-size:22.00006485px;line-height:1.25;font-family:sans-serif;-inkscape-font-specification:'sans-serif, Normal';font-variant-ligatures:normal;font-variant-caps:normal;font-variant-numeric:normal;font-feature-settings:normal;text-align:start;letter-spacing:0;word-spacing:0;writing-mode:lr-tb;text-anchor:start;fill:#000;fill-opacity:1;stroke:none;stroke-width:.75000221" id="text5074" x="251.281" y="142.686" xml:space="preserve"><tspan id="tspan5072" x="251.281" y="142.686" style="font-style:normal;font-variant:normal;font-weight:400;font-stretch:normal;font-size:22.00006485px;font-family:sans-serif;-inkscape-font-specification:'sans-serif, Normal';font-variant-ligatures:normal;font-variant-caps:normal;font-variant-numeric:normal;font-feature-settings:normal;text-align:start;writing-mode:lr-tb;text-anchor:start;stroke-width:.75000221">...</tspan></text><path style="fill:none;stroke:#41719c;stroke-width:.56864393px;stroke-linecap:butt;stroke-linejoin:miter;stroke-opacity:1;marker-end:url(#marker5421)" id="path5076" d="m 32.13263,137.96494 1.19624,93.60569 156.25849,0.0883"/></svg>