<svg xmlns="http://www.w3.org/2000/svg" xmlns:ev="http://www.w3.org/2001/xml-events" xmlns:xlink="http://www.w3.org/1999/xlink" width="937.646" height="271.6" class="st15" color-interpolation-filters="sRGB" viewBox="0 0 703.234 203.701" xml:space="preserve"><style type="text/css">.st1{fill:#fff;stroke:none;stroke-width:.75}.st1,.st2,.st3{stroke-linecap:round;stroke-linejoin:round}.st2{fill:none;stroke:#00aeef;stroke-width:2.03901}.st3{stroke:none;stroke-width:.75}.st4{fill:#000;font-family:Arial;font-size:.998566em}.st5{fill:#0071c5;stroke:none;stroke-linecap:round;stroke-linejoin:round;stroke-width:.75}.st6{font-style:italic}.st10{font-family:Arial}.st6,.st7{fill:#000;font-size:.918686em}.st6,.st7,.st8,.st9{font-family:Arial}.st10,.st8,.st9{font-size:.998566em;font-weight:700}.st8,.st9{fill:#7e8d96}.st9{fill:#00b050}.st10{fill:red}.st11{fill:#004280;stroke:#004280;stroke-linecap:round;stroke-linejoin:round;stroke-width:.0299855}.st12{fill:#fff;font-family:Arial;font-size:1.49785em}.st13,.st14{stroke:#004280;stroke-linecap:round;stroke-linejoin:round;stroke-width:2.03901}.st14{fill:#004280;stroke-width:.0149927}.st15{fill:none;fill-rule:evenodd;font-size:12px;overflow:visible;stroke-linecap:square;stroke-miterlimit:3}</style><g><title>Page-1</title><g id="shape3-1" transform="translate(19.0195,-93.4328)"><title>Sheet.3</title><path d="M0 182.93 C0 180.64 1.87 178.78 4.16 178.78 L109.18 178.78 C111.47 178.78 113.33 180.64 113.33 182.93 L113.33 199.55 C113.33 201.84 111.47 203.7 109.18 203.7 L4.16 203.7 C1.87 203.7 0 201.84 0 199.55 L0 182.93 Z" class="st1"/></g><g id="shape4-3" transform="translate(19.0195,-93.4328)"><title>Sheet.4</title><path d="M0 182.93 C0 180.64 1.87 178.78 4.16 178.78 L109.18 178.78 C111.47 178.78 113.33 180.64 113.33 182.93 L113.33 199.55 C113.33 201.84 111.47 203.7 109.18 203.7 L4.16 203.7 C1.87 203.7 0 201.84 0 199.55 L0 182.93 Z" class="st2"/></g><g id="shape5-5" transform="translate(19.0195,-96.9057)"><title>Sheet.5</title><desc>Key1: Value = 0</desc><path d="M116.11 189.32 L0 189.32 L0 203.7 L116.11 203.7 L116.11 189.32" class="st3"/><text x="15.59" y="200.1" class="st4">Key1: Value = 0</text></g><g id="shape6-9" transform="translate(19.0195,-68.6284)"><title>Sheet.6</title><path d="M0 182.93 C0 180.64 1.87 178.78 4.16 178.78 L109.18 178.78 C111.47 178.78 113.33 180.64 113.33 182.93 L113.33 199.55 C113.33 201.84 111.47 203.7 109.18 203.7 L4.16 203.7 C1.87 203.7 0 201.84 0 199.55 L0 182.93 Z" class="st1"/></g><g id="shape7-11" transform="translate(19.0195,-68.6284)"><title>Sheet.7</title><path d="M0 182.93 C0 180.64 1.87 178.78 4.16 178.78 L109.18 178.78 C111.47 178.78 113.33 180.64 113.33 182.93 L113.33 199.55 C113.33 201.84 111.47 203.7 109.18 203.7 L4.16 203.7 C1.87 203.7 0 201.84 0 199.55 L0 182.93 Z" class="st2"/></g><g id="shape8-13" transform="translate(19.0195,-72.0832)"><title>Sheet.8</title><desc>Key3: Value = 1</desc><path d="M116.11 189.32 L0 189.32 L0 203.7 L116.11 203.7 L116.11 189.32" class="st3"/><text x="15.59" y="200.1" class="st4">Key3: Value = 1</text></g><g id="shape9-17" transform="translate(19.0195,-43.5843)"><title>Sheet.9</title><path d="M0 182.84 C-0 180.53 1.88 178.66 4.19 178.66 L109.15 178.66 C111.46 178.66 113.33 180.53 113.33 182.84 L113.33 199.53 C113.33 201.84 111.46 203.7 109.15 203.7 L4.19 203.7 C1.88 203.7 0 201.84 0 199.53 L0 182.84 Z" class="st1"/></g><g id="shape10-19" transform="translate(19.0195,-43.5843)"><title>Sheet.10</title><path d="M0 182.84 C-0 180.53 1.88 178.66 4.19 178.66 L109.15 178.66 C111.46 178.66 113.33 180.53 113.33 182.84 L113.33 199.53 C113.33 201.84 111.46 203.7 109.15 203.7 L4.19 203.7 C1.88 203.7 0 201.84 0 199.53 L0 182.84 Z" class="st2"/></g><g id="shape11-21" transform="translate(19.0195,-47.1109)"><title>Sheet.11</title><desc>Key4: Value = 0</desc><path d="M116.11 189.32 L0 189.32 L0 203.7 L116.11 203.7 L116.11 189.32" class="st3"/><text x="15.59" y="200.1" class="st4">Key4: Value = 0</text></g><g id="shape12-25" transform="translate(19.0195,-19.0195)"><title>Sheet.12</title><path d="M0 182.84 C-0 180.53 1.88 178.66 4.19 178.66 L109.15 178.66 C111.46 178.66 113.33 180.53 113.33 182.84 L113.33 199.53 C113.33 201.84 111.46 203.7 109.15 203.7 L4.19 203.7 C1.88 203.7 0 201.84 0 199.53 L0 182.84 Z" class="st1"/></g><g id="shape13-27" transform="translate(19.0195,-19.0195)"><title>Sheet.13</title><path d="M0 182.84 C-0 180.53 1.88 178.66 4.19 178.66 L109.15 178.66 C111.46 178.66 113.33 180.53 113.33 182.84 L113.33 199.53 C113.33 201.84 111.46 203.7 109.15 203.7 L4.19 203.7 C1.88 203.7 0 201.84 0 199.53 L0 182.84 Z" class="st2"/></g><g id="shape14-29" transform="translate(19.0195,-22.5475)"><title>Sheet.14</title><desc>Key7: Value = 1</desc><path d="M116.11 189.32 L0 189.32 L0 203.7 L116.11 203.7 L116.11 189.32" class="st3"/><text x="15.59" y="200.1" class="st4">Key7: Value = 1</text></g><g id="shape15-33" transform="translate(141.656,-45.5615)"><title>Sheet.15</title><path d="M0 169.01 L22.75 169.01 L22.75 157.45 L45.5 180.57 L22.75 203.7 L22.75 192.14 L0 192.14 L0 169.01 Z" class="st5"/></g><g id="shape16-35" transform="translate(193.22,-56.0464)"><title>Sheet.16</title><path d="M0 182.84 C0 180.53 1.88 178.66 4.19 178.66 L96.55 178.66 C98.87 178.66 100.73 180.53 100.73 182.84 L100.73 199.54 C100.73 201.84 98.87 203.7 96.55 203.7 L4.19 203.7 C1.88 203.7 0 201.84 0 199.54 L0 182.84 Z" class="st1"/></g><g id="shape17-37" transform="translate(193.22,-56.0464)"><title>Sheet.17</title><path d="M0 182.84 C0 180.53 1.88 178.66 4.19 178.66 L96.55 178.66 C98.87 178.66 100.73 180.53 100.73 182.84 L100.73 199.54 C100.73 201.84 98.87 203.7 96.55 203.7 L4.19 203.7 C1.88 203.7 0 201.84 0 199.54 L0 182.84 Z" class="st2"/></g><g id="shape18-39" transform="translate(228.157,-66.9545)"><title>Sheet.18</title><desc>F</desc><path d="M11.27 190.47 L0 190.47 L0 203.7 L11.27 203.7 L11.27 190.47" class="st3"/><text x="2.27" y="200.39" class="st6">F</text></g><g id="shape19-43" transform="translate(234.88,-66.9545)"><title>Sheet.19</title><desc>(key,</desc><path d="M34.52 190.47 L0 190.47 L0 203.7 L34.52 203.7 L34.52 190.47" class="st3"/><text x="5.32" y="200.39" class="st7">(key,</text></g><g id="shape20-47" transform="translate(198.215,-53.7734)"><title>Sheet.20</title><desc>hash_index =</desc><path d="M82.83 190.47 L0 190.47 L0 203.7 L82.83 203.7 L82.83 190.47" class="st3"/><text x="8.47" y="200.39" class="st7">hash_index =</text></g><g id="shape21-51" transform="translate(274.858,-53.7734)"><title>Sheet.21</title><desc>i)</desc><path d="M10.56 190.47 L0 190.47 L0 203.7 L10.56 203.7 L10.56 190.47" class="st3"/><text x="2.22" y="200.39" class="st7">i)</text></g><g id="shape22-55" transform="translate(351.453,-93.7923)"><title>Sheet.22</title><path d="M0 182.84 C0 180.53 1.88 178.66 4.19 178.66 L109.16 178.66 C111.47 178.66 113.33 180.53 113.33 182.84 L113.33 199.54 C113.33 201.84 111.47 203.7 109.16 203.7 L4.19 203.7 C1.88 203.7 0 201.84 0 199.54 L0 182.84 Z" class="st1"/></g><g id="shape23-57" transform="translate(351.453,-93.7923)"><title>Sheet.23</title><path d="M0 182.84 C0 180.53 1.88 178.66 4.19 178.66 L109.16 178.66 C111.47 178.66 113.33 180.53 113.33 182.84 L113.33 199.54 C113.33 201.84 111.47 203.7 109.16 203.7 L4.19 203.7 C1.88 203.7 0 201.84 0 199.54 L0 182.84 Z" class="st2"/></g><g id="shape24-59" transform="translate(355.798,-97.3147)"><title>Sheet.24</title><desc>Key1: Position 4</desc><path d="M103.42 189.32 L0 189.32 L0 203.7 L103.42 203.7 L103.42 189.32" class="st3"/><text x="8.41" y="200.1" class="st4">Key1: Position 4</text></g><g id="shape25-63" transform="translate(351.453,-68.9879)"><title>Sheet.25</title><path d="M0 182.94 C0 180.65 1.88 178.78 4.17 178.78 L109.18 178.78 C111.47 178.78 113.33 180.65 113.33 182.94 L113.33 199.55 C113.33 201.84 111.47 203.7 109.18 203.7 L4.17 203.7 C1.88 203.7 0 201.84 0 199.55 L0 182.94 Z" class="st1"/></g><g id="shape26-65" transform="translate(351.453,-68.9879)"><title>Sheet.26</title><path d="M0 182.94 C0 180.65 1.88 178.78 4.17 178.78 L109.18 178.78 C111.47 178.78 113.33 180.65 113.33 182.94 L113.33 199.55 C113.33 201.84 111.47 203.7 109.18 203.7 L4.17 203.7 C1.88 203.7 0 201.84 0 199.55 L0 182.94 Z" class="st2"/></g><g id="shape27-67" transform="translate(355.798,-72.4921)"><title>Sheet.27</title><desc>Key3: Position 6</desc><path d="M103.42 189.32 L0 189.32 L0 203.7 L103.42 203.7 L103.42 189.32" class="st3"/><text x="8.41" y="200.1" class="st4">Key3: Position 6</text></g><g id="shape28-71" transform="translate(351.453,-44.0636)"><title>Sheet.28</title><path d="M0 182.94 C0 180.65 1.88 178.78 4.17 178.78 L109.18 178.78 C111.47 178.78 113.33 180.65 113.33 182.94 L113.33 199.55 C113.33 201.84 111.47 203.7 109.18 203.7 L4.17 203.7 C1.88 203.7 0 201.84 0 199.55 L0 182.94 Z" class="st1"/></g><g id="shape29-73" transform="translate(351.453,-44.0636)"><title>Sheet.29</title><path d="M0 182.94 C0 180.65 1.88 178.78 4.17 178.78 L109.18 178.78 C111.47 178.78 113.33 180.65 113.33 182.94 L113.33 199.55 C113.33 201.84 111.47 203.7 109.18 203.7 L4.17 203.7 C1.88 203.7 0 201.84 0 199.55 L0 182.94 Z" class="st2"/></g><g id="shape30-75" transform="translate(351.215,-47.5198)"><title>Sheet.30</title><desc>Key4: Position 14</desc><path d="M111.08 189.32 L0 189.32 L0 203.7 L111.08 203.7 L111.08 189.32" class="st3"/><text x="8.91" y="200.1" class="st4">Key4: Position 14</text></g><g id="shape31-79" transform="translate(351.453,-19.4988)"><title>Sheet.31</title><path d="M0 182.94 C0 180.65 1.88 178.78 4.17 178.78 L109.18 178.78 C111.47 178.78 113.33 180.65 113.33 182.94 L113.33 199.55 C113.33 201.84 111.47 203.7 109.18 203.7 L4.17 203.7 C1.88 203.7 0 201.84 0 199.55 L0 182.94 Z" class="st1"/></g><g id="shape32-81" transform="translate(351.453,-19.4988)"><title>Sheet.32</title><path d="M0 182.94 C0 180.65 1.88 178.78 4.17 178.78 L109.18 178.78 C111.47 178.78 113.33 180.65 113.33 182.94 L113.33 199.55 C113.33 201.84 111.47 203.7 109.18 203.7 L4.17 203.7 C1.88 203.7 0 201.84 0 199.55 L0 182.94 Z" class="st2"/></g><g id="shape33-83" transform="translate(351.215,-22.9565)"><title>Sheet.33</title><desc>Key7: Position 14</desc><path d="M111.08 189.32 L0 189.32 L0 203.7 L111.08 203.7 L111.08 189.32" class="st3"/><text x="8.91" y="200.1" class="st4">Key7: Position 14</text></g><g id="shape34-87" transform="translate(299.89,-46.0408)"><title>Sheet.34</title><path d="M0 169.01 L22.75 169.01 L22.75 157.45 L45.5 180.57 L22.75 203.7 L22.75 192.14 L0 192.14 L0 169.01 Z" class="st5"/></g><g id="shape35-89" transform="translate(528.896,-117.518)"><title>Sheet.35</title><path d="M0 182.94 C0 180.66 1.89 178.78 4.17 178.78 L137.64 178.78 C139.92 178.78 141.79 180.66 141.79 182.94 L141.79 199.57 C141.79 201.84 139.92 203.7 137.64 203.7 L4.17 203.7 C1.89 203.7 0 201.84 0 199.57 L0 182.94 Z" class="st1"/></g><g id="shape36-91" transform="translate(528.896,-117.518)"><title>Sheet.36</title><path d="M0 182.94 C0 180.66 1.89 178.78 4.17 178.78 L137.64 178.78 C139.92 178.78 141.79 180.66 141.79 182.94 L141.79 199.57 C141.79 201.84 139.92 203.7 137.64 203.7 L4.17 203.7 C1.89 203.7 0 201.84 0 199.57 L0 182.94 Z" class="st2"/></g><g id="shape37-93" transform="translate(530.056,-121.017)"><title>Sheet.37</title><desc>0000</desc><path d="M38.32 189.32 L0 189.32 L0 203.7 L38.32 203.7 L38.32 189.32" class="st3"/><text x="5.83" y="200.1" class="st8">0000</text></g><g id="shape38-97" transform="translate(567.215,-121.017)"><title>Sheet.38</title><desc>0</desc><path d="M11.5 189.32 L0 189.32 L0 203.7 L11.5 203.7 L11.5 189.32" class="st3"/><text x="2.42" y="200.1" class="st9">0</text></g><g id="shape39-101" transform="translate(576.215,-121.017)"><title>Sheet.39</title><desc>0</desc><path d="M11.5 189.32 L0 189.32 L0 203.7 L11.5 203.7 L11.5 189.32" class="st3"/><text x="2.42" y="200.1" class="st8">0</text></g><g id="shape40-105" transform="translate(584.486,-121.017)"><title>Sheet.40</title><desc>1</desc><path d="M11.5 189.32 L0 189.32 L0 203.7 L11.5 203.7 L11.5 189.32" class="st3"/><text x="2.42" y="200.1" class="st9">1</text></g><g id="shape41-109" transform="translate(588.646,-121.017)"><title>Sheet.41</title><desc>0 0000 00</desc><path d="M65.14 189.32 L0 189.32 L0 203.7 L65.14 203.7 L65.14 189.32" class="st3"/><text x="5.91" y="200.1" class="st8">0 0000 00</text></g><g id="shape42-113" transform="translate(644.965,-121.017)"><title>Sheet.42</title><desc>?</desc><path d="M12.25 189.32 L0 189.32 L0 203.7 L12.25 203.7 L12.25 189.32" class="st3"/><text x="2.47" y="200.1" class="st10">?</text></g><g id="shape43-117" transform="translate(654.718,-121.017)"><title>Sheet.43</title><desc>0</desc><path d="M11.5 189.32 L0 189.32 L0 203.7 L11.5 203.7 L11.5 189.32" class="st3"/><text x="2.42" y="200.1" class="st8">0</text></g><g id="shape44-121" transform="translate(464.786,-105.296)"><title>Sheet.44</title><path d="M0 203.7 L108.29 203.7 C108.86 203.7 109.31 203.22 109.31 202.68 L109.31 189.5 L107.27 189.5 L107.27 202.68 L108.29 201.66 L0 201.66 L0 203.7 ZM111.35 190.52 L108.29 184.41 L105.23 190.55 L111.35 190.52 Z" class="st11"/></g><g id="shape45-123" transform="translate(464.786,-80.4315)"><title>Sheet.45</title><path d="M0 203.7 L123.63 203.7 C124.2 203.7 124.65 203.25 124.65 202.68 L124.65 164.28 L122.61 164.28 L122.61 202.68 L123.63 201.66 L0 201.66 L0 203.7 ZM126.69 165.3 L123.6 159.18 L120.57 165.33 L126.69 165.3 Z" class="st11"/></g><g id="shape46-125" transform="translate(464.786,-55.4772)"><title>Sheet.46</title><path d="M0 203.7 L186.48 203.7 C186.75 203.7 186.99 203.61 187.2 203.4 C187.38 203.22 187.5 202.95 187.5 202.68 L187.41 139.32 L185.37 139.32 L185.46 202.68 L186.48 201.66 L0 201.66 L0 203.7 ZM189.51 140.07 L185.94 134.23 L183.41 140.61 L189.51 140.07 Z" class="st11"/></g><g id="shape47-127" transform="translate(464.786,-30.9125)"><title>Sheet.47</title><path d="M0 203.7 L186.48 203.7 C186.75 203.7 186.99 203.61 187.2 203.4 C187.38 203.22 187.5 202.95 187.5 202.68 L187.41 114.76 L185.37 114.76 L185.46 202.68 L186.48 201.66 L0 201.66 L0 203.7 ZM189.51 115.51 L185.94 109.67 L183.41 116.05 L189.51 115.51 Z" class="st11"/></g><g id="shape48-129" transform="translate(442.996,-151.106)"><title>Sheet.48</title><path d="M0 179.56 C0 176.89 2.19 174.7 4.86 174.7 L70.8 174.7 C73.47 174.7 75.64 176.89 75.64 179.56 L75.64 198.88 C75.64 201.54 73.47 203.7 70.8 203.7 L4.86 203.7 C2.19 203.7 0 201.54 0 198.88 L0 179.56 Z" class="st5"/></g><g id="shape49-131" transform="translate(443.529,-155.018)"><title>Sheet.49</title><desc>Values</desc><path d="M75.64 182.13 L0 182.13 L0 203.7 L75.64 203.7 L75.64 182.13" class="st3"/><text x="10.34" y="198.31" class="st12">Values</text></g><g id="shape50-135" transform="translate(102.458,-122.192)"><title>Sheet.50</title><path d="M0 203.7 C-0 199.21 0.62 195.55 1.37 195.55 L11.67 195.55 C12.42 195.55 13.03 191.9 13.03 187.4 C13.03 191.9 13.64 195.55 14.39 195.55 L24.69 195.55 C25.44 195.55 26.05 199.21 26.05 203.7" class="st13"/></g><g id="shape51-138" transform="translate(115.454,-137.5)"><title>Sheet.51</title><path d="M0.2 203.7 L322.66 174.12 L322.48 172.1 L0 201.68 L0.2 203.7 L0.2 203.7 ZM321.84 176.24 L327.66 172.64 L321.28 170.16 L321.84 176.24 L321.84 176.24 Z" class="st14"/></g><g id="shape52-140" transform="translate(518.211,-142.473)"><title>Sheet.52</title><path d="M0.99 176.74 L44.78 200.38 L43.82 202.17 L0 178.51 L0.99 176.74 L0.99 176.74 ZM44.87 198.1 L48.8 203.7 L41.96 203.46 L44.87 198.1 L44.87 198.1 Z" class="st11"/></g><g id="shape53-142" transform="translate(518.331,-141.963)"><title>Sheet.53</title><path d="M0.75 176.17 L60.09 200.32 L59.34 202.2 L0 178.06 L0.75 176.17 L0.75 176.17 ZM59.91 198.04 L64.44 203.19 L57.6 203.7 L59.91 198.04 L59.91 198.04 Z" class="st11"/></g><g id="shape54-144" transform="translate(576.558,-153.706)"><title>Sheet.54</title><path d="M0 177.04 C0 174.1 2.4 171.71 5.34 171.71 L101.51 171.71 C104.48 171.71 106.85 174.1 106.85 177.04 L106.85 198.37 C106.85 201.33 104.48 203.7 101.51 203.7 L5.34 203.7 C2.4 203.7 0 201.33 0 198.37 L0 177.04 Z" class="st1"/></g><g id="shape55-146" transform="translate(577.365,-151.611)"><title>Sheet.55</title><path d="M0 177.04 C0 174.1 2.4 171.71 5.34 171.71 L101.51 171.71 C104.48 171.71 106.85 174.1 106.85 177.04 L106.85 198.37 C106.85 201.33 104.48 203.7 101.51 203.7 L5.34 203.7 C2.4 203.7 0 201.33 0 198.37 L0 177.04 Z" class="st2"/></g><g id="shape56-148" transform="translate(593.952,-167.894)"><title>Sheet.56</title><desc>Lookup_table</desc><path d="M86.59 189.32 L0 189.32 L0 203.7 L86.59 203.7 L86.59 189.32" class="st3"/><text x="7.31" y="200.1" class="st4">Lookup_table</text></g><g id="shape57-152" transform="translate(608.239,-153.515)"><title>Sheet.57</title><desc>(16 bits)</desc><path d="M53.61 189.32 L0 189.32 L0 203.7 L53.61 203.7 L53.61 189.32" class="st3"/><text x="5.16" y="200.1" class="st4">(16 bits)</text></g></g></svg>