<svg xmlns="http://www.w3.org/2000/svg" xmlns:ev="http://www.w3.org/2001/xml-events" xmlns:xlink="http://www.w3.org/1999/xlink" width="629.795" height="522.513" class="st22" color-interpolation-filters="sRGB" viewBox="0 0 472.346 391.884" xml:space="preserve"><style type="text/css">.st1{visibility:visible}.st2,.st3{fill:#5b9bd5}.st2{fill-opacity:.22;filter:url(#filter_2);stroke:#5b9bd5;stroke-opacity:.22}.st3{stroke:#c7c8c8;stroke-width:.25}.st4{fill:#feffff;font-family:Calibri;font-size:.833336em}.st5,.st6{stroke:#5b9bd5}.st5{marker-end:url(#mrkr5-24);stroke-linecap:round;stroke-linejoin:round;stroke-width:1}.st6{fill:#5b9bd5;fill-opacity:1;stroke-opacity:1;stroke-width:.28409090909091}.st7{fill:none;stroke:#2e75b5;stroke-width:1}.st8{fill:#5b9bd5;font-family:Calibri;font-size:1.00001em}.st9{font-size:1em}.st10{fill:none;stroke:none;stroke-width:1}.st11{fill:#feffff;font-family:Calibri;font-size:1.00001em;font-weight:700}.st12{fill:#5b9bd5;fill-opacity:.25;filter:url(#filter_2);stroke:#5b9bd5;stroke-opacity:.25}.st13{fill:#4f87bb;stroke:#40709c;stroke-width:.75}.st14{fill:#feffff;font-family:Calibri;font-size:.75em}.st15{fill:none;filter:url(#filter_2);stroke:#5b9bd5;stroke-opacity:.22}.st16{fill:none;stroke:#2e75b5;stroke-width:2.25}.st17,.st18{stroke-width:1}.st17{stroke:#5b9bd5;stroke-linecap:round;stroke-linejoin:round}.st18{fill:#305497;stroke:#2e75b5}.st19{fill:#5b9bd5;fill-opacity:.22;filter:url(#filter_2);stroke:none}.st20{fill:#92d050;fill-opacity:.3;stroke:none;stroke-width:.25}.st21{fill:#feffff;font-family:Calibri;font-size:1.16666em}.st22{fill:none;fill-rule:evenodd;font-size:12px;overflow:visible;stroke-linecap:square;stroke-miterlimit:3}</style><defs id="Markers"><g id="lend5"><path d="M 2 1 L 0 0 L 1.98117 -0.993387 C 1.67173 -0.364515 1.67301 0.372641 1.98465 1.00043" style="stroke:none"/></g><marker id="mrkr5-24" class="st6" markerUnits="strokeWidth" orient="auto" overflow="visible" refX="-6.16"><use transform="scale(-3.52,-3.52)" xlink:href="#lend5"/></marker></defs><defs id="Filters"><filter id="filter_2"><feGaussianBlur stdDeviation="2"/></filter></defs><g><title>Page-1</title><g id="shape2-1" transform="translate(111.25,-354.482)"><title>Rectangle</title><desc>Packet Header</desc><g id="shadow2-2" class="st1" transform="matrix(1,0,0,1,0.345598,1.97279)"><rect width="85.5" height="18" x="0" y="373.884" class="st2"/></g><rect width="85.5" height="18" x="0" y="373.884" class="st3"/><text x="13.24" y="385.88" class="st4">Packet Header</text></g><g id="shape3-7" transform="translate(192.25,-354.482)"><title>Rectangle.3</title><desc>Payload</desc><g id="shadow3-8" class="st1" transform="matrix(1,0,0,1,0.345598,1.97279)"><rect width="108" height="18" x="0" y="373.884" class="st2"/></g><rect width="108" height="18" x="0" y="373.884" class="st3"/><text x="37.95" y="385.88" class="st4">Payload</text></g><g id="shape4-13" transform="translate(136,-311.232)"><title>Rectangle.4</title><desc>Flow Key</desc><g id="shadow4-14" class="st1" transform="matrix(1,0,0,1,0.345598,1.97279)"><rect width="54" height="18" x="0" y="373.884" class="st2"/></g><rect width="54" height="18" x="0" y="373.884" class="st3"/><text x="8.87" y="385.88" class="st4">Flow Key</text></g><g id="shape5-19" transform="translate(465.501,-160.057) rotate(59.7436)"><title>Sheet.5</title><path d="M0 391.88 L25.1 391.88" class="st5"/></g><g id="shape8-25" transform="translate(219.25,-320.169)"><title>Sheet.8</title><desc>Fields of the packet are used to form a flow Key</desc><rect width="135" height="28.125" x="0" y="363.759" class="st7"/><text x="10.7" y="374.22" class="st8">Fields of the packet are <tspan x="9.67" class="st9" dy="1.2em">used to form a flow Key</tspan></text></g><g id="group13-29" transform="translate(120.25,-266.897)"><title>Sheet.13</title><g id="shape11-30" transform="translate(85.5,751.143) rotate(180)"><title>Trapezoid</title><g id="shadow11-31" class="st1"><path d="M0 391.88 L85.5 391.88 L60.19 359.26 L25.31 359.26 L0 391.88 Z" class="st2" transform="matrix(1,0,0,1,-0.345598,-1.97279)"/></g><path d="M0 391.88 L85.5 391.88 L60.19 359.26 L25.31 359.26 L0 391.88 Z" class="st3"/></g><g id="shape12-35" transform="translate(13.5,-6.525)"><title>Sheet.12</title><desc>H(..)</desc><rect width="54" height="20.391" x="0" y="371.494" class="st10"/><text x="16.27" y="385.29" class="st11">H(..)</text></g></g><g id="shape14-38" transform="translate(-229.872,96.3648) rotate(-90.0429)"><title>Simple Arrow</title><g id="shadow14-39" class="st1"><path d="M0 391.88 L10.18 387.38 L10.18 389.63 L16.71 389.63 L16.71 391.88 L16.71 394.13 L10.18 394.13 L10.18 396.38 L0 391.88 Z" class="st12" transform="matrix(1,0,0,1,-1.97305,0.344122)"/></g><path d="M0 391.88 L10.18 387.38 L10.18 389.63 L16.71 389.63 L16.71 391.88 L16.71 394.13 L10.18 394.13 L10.18 396.38 L0 391.88 Z" class="st13"/></g><g id="shape15-43" transform="translate(212.5,-271.46)"><title>Sheet.15</title><desc>Hash function is used to create a flow table index</desc><rect width="135" height="28.125" x="0" y="363.759" class="st7"/><text x="9.05" y="374.22" class="st8">Hash function is used to <tspan x="7.39" class="st9" dy="1.2em">create a flow table index</tspan></text></g><g id="shape58-47" transform="translate(199,-221.397)"><title>Rectangle.58</title><desc>Key 1</desc><g id="shadow58-48" class="st1" transform="matrix(1,0,0,1,0.345598,1.97279)"><rect width="31.5" height="18" x="0" y="373.884" class="st2"/></g><rect width="31.5" height="18" x="0" y="373.884" class="st3"/><text x="4.74" y="385.88" class="st4">Key 1</text></g><g id="shape59-53" transform="translate(232.75,-221.397)"><title>Rectangle.59</title><desc>Action 1</desc><g id="shadow59-54" class="st1" transform="matrix(1,0,0,1,0.345598,1.97279)"><rect width="42.75" height="18" x="0" y="373.884" class="st2"/></g><rect width="42.75" height="18" x="0" y="373.884" class="st3"/><text x="4.62" y="385.88" class="st4">Action 1</text></g><g id="shape60-59" transform="translate(280,-221.397)"><title>Rectangle.60</title><desc>Key 2</desc><g id="shadow60-60" class="st1" transform="matrix(1,0,0,1,0.345598,1.97279)"><rect width="31.5" height="18" x="0" y="373.884" class="st2"/></g><rect width="31.5" height="18" x="0" y="373.884" class="st3"/><text x="4.74" y="385.88" class="st4">Key 2</text></g><g id="shape61-65" transform="translate(313.75,-221.397)"><title>Rectangle.61</title><desc>Action 2</desc><g id="shadow61-66" class="st1" transform="matrix(1,0,0,1,0.345598,1.97279)"><rect width="42.75" height="18" x="0" y="373.884" class="st2"/></g><rect width="42.75" height="18" x="0" y="373.884" class="st3"/><text x="4.62" y="385.88" class="st4">Action 2</text></g><g id="shape62-71" transform="translate(361,-221.397)"><title>Rectangle.62</title><g id="shadow62-72" class="st1" transform="matrix(1,0,0,1,0.345598,1.97279)"><rect width="31.5" height="18" x="0" y="373.884" class="st2"/></g><rect width="31.5" height="18" x="0" y="373.884" class="st3"/></g><g id="shape63-76" transform="translate(394.75,-221.397)"><title>Rectangle.63</title><g id="shadow63-77" class="st1" transform="matrix(1,0,0,1,0.345598,1.97279)"><rect width="42.75" height="18" x="0" y="373.884" class="st2"/></g><rect width="42.75" height="18" x="0" y="373.884" class="st3"/></g><g id="shape64-81" transform="translate(199,-198.897)"><title>Rectangle.64</title><g id="shadow64-82" class="st1" transform="matrix(1,0,0,1,0.345598,1.97279)"><rect width="31.5" height="18" x="0" y="373.884" class="st2"/></g><rect width="31.5" height="18" x="0" y="373.884" class="st3"/></g><g id="shape65-86" transform="translate(232.75,-198.897)"><title>Rectangle.65</title><g id="shadow65-87" class="st1" transform="matrix(1,0,0,1,0.345598,1.97279)"><rect width="42.75" height="18" x="0" y="373.884" class="st2"/></g><rect width="42.75" height="18" x="0" y="373.884" class="st3"/></g><g id="shape66-91" transform="translate(280,-198.897)"><title>Rectangle.66</title><g id="shadow66-92" class="st1" transform="matrix(1,0,0,1,0.345598,1.97279)"><rect width="31.5" height="18" x="0" y="373.884" class="st2"/></g><rect width="31.5" height="18" x="0" y="373.884" class="st3"/></g><g id="shape67-96" transform="translate(313.75,-198.897)"><title>Rectangle.67</title><g id="shadow67-97" class="st1" transform="matrix(1,0,0,1,0.345598,1.97279)"><rect width="42.75" height="18" x="0" y="373.884" class="st2"/></g><rect width="42.75" height="18" x="0" y="373.884" class="st3"/></g><g id="shape68-101" transform="translate(361,-198.897)"><title>Rectangle.68</title><g id="shadow68-102" class="st1" transform="matrix(1,0,0,1,0.345598,1.97279)"><rect width="31.5" height="18" x="0" y="373.884" class="st2"/></g><rect width="31.5" height="18" x="0" y="373.884" class="st3"/></g><g id="shape69-106" transform="translate(394.75,-198.897)"><title>Rectangle.69</title><g id="shadow69-107" class="st1" transform="matrix(1,0,0,1,0.345598,1.97279)"><rect width="42.75" height="18" x="0" y="373.884" class="st2"/></g><rect width="42.75" height="18" x="0" y="373.884" class="st3"/></g><g id="shape70-111" transform="translate(199,-162.897)"><title>Rectangle.70</title><desc>Key x</desc><g id="shadow70-112" class="st1" transform="matrix(1,0,0,1,0.345598,1.97279)"><rect width="31.5" height="18" x="0" y="373.884" class="st2"/></g><rect width="31.5" height="18" x="0" y="373.884" class="st3"/><text x="5.11" y="385.88" class="st4">Key x</text></g><g id="shape71-117" transform="translate(232.75,-162.897)"><title>Rectangle.71</title><desc>Action x</desc><g id="shadow71-118" class="st1" transform="matrix(1,0,0,1,0.345598,1.97279)"><rect width="42.75" height="18" x="0" y="373.884" class="st2"/></g><rect width="42.75" height="18" x="0" y="373.884" class="st3"/><text x="4.99" y="385.88" class="st4">Action x</text></g><g id="shape72-123" transform="translate(280,-162.897)"><title>Rectangle.72</title><desc>Key y</desc><g id="shadow72-124" class="st1" transform="matrix(1,0,0,1,0.345598,1.97279)"><rect width="31.5" height="18" x="0" y="373.884" class="st2"/></g><rect width="31.5" height="18" x="0" y="373.884" class="st3"/><text x="5.01" y="385.88" class="st4">Key y</text></g><g id="shape73-129" transform="translate(313.75,-162.897)"><title>Rectangle.73</title><desc>Action y</desc><g id="shadow73-130" class="st1" transform="matrix(1,0,0,1,0.345598,1.97279)"><rect width="42.75" height="18" x="0" y="373.884" class="st2"/></g><rect width="42.75" height="18" x="0" y="373.884" class="st3"/><text x="4.89" y="385.88" class="st4">Action y</text></g><g id="shape74-135" transform="translate(361,-162.897)"><title>Rectangle.74</title><desc>Key z</desc><g id="shadow74-136" class="st1" transform="matrix(1,0,0,1,0.345598,1.97279)"><rect width="31.5" height="18" x="0" y="373.884" class="st2"/></g><rect width="31.5" height="18" x="0" y="373.884" class="st3"/><text x="5.3" y="385.88" class="st4">Key z</text></g><g id="shape75-141" transform="translate(394.75,-162.897)"><title>Rectangle.75</title><desc>Action z</desc><g id="shadow75-142" class="st1" transform="matrix(1,0,0,1,0.345598,1.97279)"><rect width="42.75" height="18" x="0" y="373.884" class="st2"/></g><rect width="42.75" height="18" x="0" y="373.884" class="st3"/><text x="5.18" y="385.88" class="st4">Action z</text></g><g id="shape76-147" transform="translate(199,-126.397)"><title>Rectangle.76</title><g id="shadow76-148" class="st1" transform="matrix(1,0,0,1,0.345598,1.97279)"><rect width="31.5" height="18" x="0" y="373.884" class="st2"/></g><rect width="31.5" height="18" x="0" y="373.884" class="st3"/></g><g id="shape77-152" transform="translate(232.75,-126.397)"><title>Rectangle.77</title><g id="shadow77-153" class="st1" transform="matrix(1,0,0,1,0.345598,1.97279)"><rect width="42.75" height="18" x="0" y="373.884" class="st2"/></g><rect width="42.75" height="18" x="0" y="373.884" class="st3"/></g><g id="shape78-157" transform="translate(280,-126.397)"><title>Rectangle.78</title><g id="shadow78-158" class="st1" transform="matrix(1,0,0,1,0.345598,1.97279)"><rect width="31.5" height="18" x="0" y="373.884" class="st2"/></g><rect width="31.5" height="18" x="0" y="373.884" class="st3"/></g><g id="shape79-162" transform="translate(313.75,-126.397)"><title>Rectangle.79</title><g id="shadow79-163" class="st1" transform="matrix(1,0,0,1,0.345598,1.97279)"><rect width="42.75" height="18" x="0" y="373.884" class="st2"/></g><rect width="42.75" height="18" x="0" y="373.884" class="st3"/></g><g id="shape80-167" transform="translate(361,-126.397)"><title>Rectangle.80</title><desc>Key N</desc><g id="shadow80-168" class="st1" transform="matrix(1,0,0,1,0.345598,1.97279)"><rect width="31.5" height="18" x="0" y="373.884" class="st2"/></g><rect width="31.5" height="18" x="0" y="373.884" class="st3"/><text x="5.21" y="385.58" class="st14">Key N</text></g><g id="shape81-173" transform="translate(394.75,-126.397)"><title>Rectangle.81</title><desc>Action N</desc><g id="shadow81-174" class="st1" transform="matrix(1,0,0,1,0.345598,1.97279)"><rect width="42.75" height="18" x="0" y="373.884" class="st2"/></g><rect width="42.75" height="18" x="0" y="373.884" class="st3"/><text x="5.67" y="385.58" class="st14">Action N</text></g><g id="shape82-179" transform="translate(196.75,-117.397)"><title>Rectangle.82</title><g id="shadow82-180" class="st1" transform="matrix(1,0,0,1,0.345598,1.97279)"><rect width="245.25" height="135.5" x="0" y="256.384" class="st15"/></g><rect width="245.25" height="135.5" x="0" y="256.384" class="st16"/></g><g id="shape83-184" transform="translate(554.884,123.862) rotate(90)"><title>Sheet.83</title><path d="M0 391.88 L99 391.88" class="st17"/></g><g id="shape84-187" transform="translate(208,-248.397)"><title>Sheet.84</title><desc>Load Balancing Flow Table</desc><rect width="183.5" height="11.25" x="0" y="380.634" class="st18"/><text x="26.14" y="389.86" class="st11">Load Balancing Flow Table</text></g><g id="shape85-190" transform="translate(190,-157.835)"><title>Rectangle.85</title><g id="shadow85-191" class="st1" transform="matrix(1,0,0,1,0.345598,1.97279)"><rect width="261" height="28.125" x="0" y="363.759" class="st19"/></g><rect width="261" height="28.125" x="0" y="363.759" class="st20"/></g><g id="shape86-195" transform="translate(163,-169.022)"><title>Sheet.86</title><path d="M0 391.88 L18.76 391.88" class="st5"/></g><g id="shape87-200" transform="translate(19,-198.107)"><title>Sheet.87</title><desc>Hash value used to index Flow table</desc><rect width="135" height="28.125" x="0" y="363.759" class="st7"/><text x="6.79" y="374.22" class="st8">Hash value used to index <tspan x="42.16" class="st9" dy="1.2em">Flow table</tspan></text></g><g id="shape88-204" transform="translate(551.381,21.2928) rotate(87.9001)"><title>Sheet.88</title><path d="M0 391.88 L20.86 391.88" class="st5"/></g><g id="shape89-209" transform="translate(494.785,297.309) rotate(131.987)"><title>Sheet.89</title><path d="M0 391.88 L30.84 391.88" class="st5"/></g><g id="shape90-214" transform="translate(228.25,-92.5847)"><title>Rectangle.90</title><desc>Key x</desc><g id="shadow90-215" class="st1" transform="matrix(1,0,0,1,0.345598,1.97279)"><rect width="31.5" height="18" x="0" y="373.884" class="st2"/></g><rect width="31.5" height="18" x="0" y="373.884" class="st3"/><text x="5.11" y="385.88" class="st4">Key x</text></g><g id="shape91-220" transform="translate(340.75,-92.5847)"><title>Rectangle.91</title><desc>Key z</desc><g id="shadow91-221" class="st1" transform="matrix(1,0,0,1,0.345598,1.97279)"><rect width="31.5" height="18" x="0" y="373.884" class="st2"/></g><rect width="31.5" height="18" x="0" y="373.884" class="st3"/><text x="5.3" y="385.88" class="st4">Key z</text></g><g id="group96-226" transform="translate(253,-51.4597)"><title>Sheet.96</title><g id="shape97-227" transform="translate(85.5,751.143) rotate(180)"><title>Trapezoid</title><g id="shadow97-228" class="st1"><path d="M0 391.88 L85.5 391.88 L60.19 359.26 L25.31 359.26 L0 391.88 Z" class="st2" transform="matrix(1,0,0,1,-0.345598,-1.97279)"/></g><path d="M0 391.88 L85.5 391.88 L60.19 359.26 L25.31 359.26 L0 391.88 Z" class="st3"/></g><g id="shape98-232" transform="translate(13.5,-6.525)"><title>Sheet.98</title><desc>Match</desc><rect width="54" height="20.391" x="0" y="371.494" class="st10"/><text x="10.98" y="385.29" class="st11">Match</text></g></g><g id="shape99-235" transform="translate(532.137,0.00916548) rotate(54.6508)"><title>Sheet.99</title><path d="M0 391.88 L93.23 391.88" class="st5"/></g><g id="shape100-240" transform="translate(683.134,224.487) rotate(90)"><title>Sheet.100</title><path d="M0 391.88 L77.15 391.88" class="st5"/></g><g id="shape101-245" transform="translate(692.213,476.024) rotate(129.078)"><title>Sheet.101</title><path d="M0 391.88 L95.37 391.88" class="st5"/></g><g id="shape102-250" transform="translate(293.5,-97.0847)"><title>Rectangle.102</title><desc>Key y</desc><g id="shadow102-251" class="st1" transform="matrix(1,0,0,1,0.345598,1.97279)"><rect width="31.5" height="18" x="0" y="373.884" class="st2"/></g><rect width="31.5" height="18" x="0" y="373.884" class="st3"/><text x="5.01" y="385.88" class="st4">Key y</text></g><g id="shape103-256" transform="translate(169.75,-55.9597)"><title>Rectangle.103</title><desc>Flow Key</desc><g id="shadow103-257" class="st1" transform="matrix(1,0,0,1,0.345598,1.97279)"><rect width="54" height="18" x="0" y="373.884" class="st2"/></g><rect width="54" height="18" x="0" y="373.884" class="st3"/><text x="8.87" y="385.88" class="st4">Flow Key</text></g><g id="shape104-262" transform="translate(226,-64.9597)"><title>Sheet.104</title><path d="M0 391.88 L34.34 391.88" class="st5"/></g><g id="shape105-267" transform="translate(54,-82.4597)"><title>Sheet.105</title><desc>Retrieved keys are matched with input key</desc><rect width="135" height="28.125" x="0" y="363.759" class="st7"/><text x="22.51" y="374.22" class="st8">Retrieved keys are <tspan x="9.83" class="st9" dy="1.2em">matched with input key</tspan></text></g><g id="shape106-271" transform="translate(271,-23.9597)"><title>Rectangle.106</title><desc>Action</desc><g id="shadow106-272" class="st1" transform="matrix(1,0,0,1,0.345598,1.97279)"><rect width="54" height="18" x="0" y="373.884" class="st2"/></g><rect width="54" height="18" x="0" y="373.884" class="st3"/><text x="8.67" y="387.08" class="st21">Action</text></g><g id="shape111-277" transform="translate(-94.8716,350.902) rotate(-90.0429)"><title>Simple Arrow.111</title><g id="shadow111-278" class="st1"><path d="M0 391.88 L10.18 387.38 L10.18 389.63 L16.71 389.63 L16.71 391.88 L16.71 394.13 L10.18 394.13 L10.18 396.38 L0 391.88 Z" class="st12" transform="matrix(1,0,0,1,-1.97305,0.344122)"/></g><path d="M0 391.88 L10.18 387.38 L10.18 389.63 L16.71 389.63 L16.71 391.88 L16.71 394.13 L10.18 394.13 L10.18 396.38 L0 391.88 Z" class="st13"/></g></g></svg>