<svg xmlns="http://www.w3.org/2000/svg" xmlns:ev="http://www.w3.org/2001/xml-events" xmlns:xlink="http://www.w3.org/1999/xlink" width="801" height="274.985" class="st14" color-interpolation-filters="sRGB" viewBox="0 0 600.75 206.239" xml:space="preserve"><style type="text/css">.st1{visibility:visible}.st2,.st3{fill:#5b9bd5}.st2{fill-opacity:.22;filter:url(#filter_2);stroke:#5b9bd5;stroke-opacity:.22}.st3{stroke:#c7c8c8;stroke-width:.25}.st4,.st5{fill:#feffff;font-family:Calibri;font-size:1.5em}.st5{font-size:1.16666em}.st6{marker-end:url(#mrkr5-36);stroke-linecap:round;stroke-linejoin:round;stroke-width:1.5}.st6,.st7,.st8{stroke:#5b9bd5}.st7{fill:#5b9bd5;fill-opacity:1;stroke-opacity:1;stroke-width:.37313432835821}.st8{stroke-dasharray:1.5,3;stroke-linecap:round;stroke-linejoin:round;stroke-width:1.5}.st9{fill:none;stroke:none;stroke-width:.25}.st10{fill:#5b9bd5;font-family:Calibri;font-size:1.5em;font-weight:700}.st11{baseline-shift:-32.4951%;font-size:.649902em}.st12{fill:#deebf6;stroke:#0070c0;stroke-width:1}.st13{fill:#5b9bd5;font-family:Calibri;font-size:1.5em}.st14{fill:none;fill-rule:evenodd;font-size:12px;overflow:visible;stroke-linecap:square;stroke-miterlimit:3}</style><defs id="Markers"><g id="lend5"><path d="M 2 1 L 0 0 L 1.98117 -0.993387 C 1.67173 -0.364515 1.67301 0.372641 1.98465 1.00043" style="stroke:none"/></g><marker id="mrkr5-36" class="st7" markerUnits="strokeWidth" orient="auto" overflow="visible" refX="-4.69"><use transform="scale(-2.68,-2.68)" xlink:href="#lend5"/></marker></defs><defs id="Filters"><filter id="filter_2"><feGaussianBlur stdDeviation="2"/></filter></defs><g><title>Page-1</title><g id="shape2-1" transform="translate(93.0294,-158.5)"><title>Rectangle</title><desc>All Keys</desc><g id="shadow2-2" class="st1" transform="matrix(1,0,0,1,0.345598,1.97279)"><rect width="432" height="27" x="0" y="179.239" class="st2"/></g><rect width="432" height="27" x="0" y="179.239" class="st3"/><text x="187.88" y="198.14" class="st4">All Keys</text></g><g id="shape3-7" transform="translate(21.0294,-77.5)"><title>Rectangle.3</title><desc>Group 1</desc><g id="shadow3-8" class="st1" transform="matrix(1,0,0,1,0.345598,1.97279)"><rect width="108" height="36" x="0" y="170.239" class="st2"/></g><rect width="108" height="36" x="0" y="170.239" class="st3"/><text x="30.97" y="192.44" class="st5">Group 1</text></g><g id="shape4-13" transform="translate(156.029,-77.5)"><title>Rectangle.4</title><desc>Group 2</desc><g id="shadow4-14" class="st1" transform="matrix(1,0,0,1,0.345598,1.97279)"><rect width="108" height="36" x="0" y="170.239" class="st2"/></g><rect width="108" height="36" x="0" y="170.239" class="st3"/><text x="30.97" y="192.44" class="st5">Group 2</text></g><g id="shape5-19" transform="translate(291.029,-77.5)"><title>Rectangle.5</title><desc>Group 3</desc><g id="shadow5-20" class="st1" transform="matrix(1,0,0,1,0.345598,1.97279)"><rect width="108" height="36" x="0" y="170.239" class="st2"/></g><rect width="108" height="36" x="0" y="170.239" class="st3"/><text x="30.97" y="192.44" class="st5">Group 3</text></g><g id="shape6-25" transform="translate(471.029,-77.5)"><title>Rectangle.6</title><desc>Group X</desc><g id="shadow6-26" class="st1" transform="matrix(1,0,0,1,0.345598,1.97279)"><rect width="108" height="36" x="0" y="170.239" class="st2"/></g><rect width="108" height="36" x="0" y="170.239" class="st3"/><text x="30.88" y="192.44" class="st5">Group X</text></g><g id="shape7-31" transform="translate(359.05,247.819) rotate(165.964)"><title>Sheet.7</title><path d="M0 206.24 L178.5 206.24" class="st6"/></g><g id="shape8-37" transform="translate(428.903,215.562) rotate(144.462)"><title>Sheet.8</title><path d="M0 206.24 L70.39 206.24" class="st6"/></g><g id="shape9-42" transform="translate(470.075,-81.0976) rotate(51.3402)"><title>Sheet.9</title><path d="M0 206.24 L50.59 206.24" class="st6"/></g><g id="shape10-47" transform="translate(364.228,-150.976) rotate(15.5241)"><title>Sheet.10</title><path d="M0 206.24 L161.1 206.24" class="st6"/></g><g id="shape11-52" transform="translate(408.029,-95.5)"><title>Sheet.11</title><path d="M0 206.24 L45 206.24" class="st8"/></g><g id="shape12-55" transform="translate(48.0294,-50.5)"><title>Sheet.12</title><desc>H7</desc><rect width="45" height="27" x="0" y="179.239" class="st9"/><text x="13.86" y="198.14" class="st10">H<tspan class="st11" dy="-.284em">7</tspan></text></g><g id="shape13-59" transform="translate(192.029,-50.5)"><title>Sheet.13</title><desc>H267</desc><rect width="45" height="27" x="0" y="179.239" class="st9"/><text x="7.93" y="198.14" class="st10">H<tspan class="st11" dy="-.284em">267</tspan></text></g><g id="shape14-63" transform="translate(318.029,-50.5)"><title>Sheet.14</title><desc>H46</desc><rect width="45" height="27" x="0" y="179.239" class="st9"/><text x="10.89" y="198.14" class="st10">H<tspan class="st11" dy="-.284em">46</tspan></text></g><g id="shape15-67" transform="translate(502.529,-50.5)"><title>Sheet.15</title><desc>H132</desc><rect width="45" height="27" x="0" y="179.239" class="st9"/><text x="7.93" y="198.14" class="st10">H<tspan class="st11" dy="-.284em">132</tspan></text></g><g id="shape16-71" transform="translate(111.029,-19)"><title>Sheet.16</title><desc>Store hash function index for each group of keys</desc><rect width="378" height="27" x="0" y="179.239" class="st12"/><text x="12.27" y="198.14" class="st13">Store hash function index for each group of keys</text></g></g></svg>