<svg xmlns="http://www.w3.org/2000/svg" xmlns:ev="http://www.w3.org/2001/xml-events" xmlns:xlink="http://www.w3.org/1999/xlink" width="791.962" height="566.086" class="st27" color-interpolation-filters="sRGB" viewBox="0 0 593.971 424.565" xml:space="preserve"><style type="text/css">.st1{visibility:visible}.st2,.st3{fill:#5b9bd5}.st2{fill-opacity:.22;filter:url(#filter_2);stroke:#5b9bd5;stroke-opacity:.22}.st3{stroke:#c7c8c8;stroke-width:.25}.st4,.st5{fill:#feffff;font-family:Calibri;font-size:.833336em}.st5{font-size:.75em}.st6{fill:none;filter:url(#filter_2);stroke:#5b9bd5;stroke-opacity:.22}.st7,.st8{fill:none;stroke:#2e75b5;stroke-width:2.25}.st8{fill:#305497;stroke-width:1}.st9{fill:#feffff;font-family:Calibri;font-size:.833336em;font-weight:700}.st10{fill-opacity:.22;filter:url(#filter_2)}.st10,.st11{fill:#5b9bd5}.st12,.st13{stroke:#c7c8c8;stroke-width:.25}.st13{fill:#acccea}.st14{fill:#feffff;font-family:Calibri;font-size:1.00001em;font-weight:700}.st15,.st16{fill:#ed7d31;stroke:#c7c8c8;stroke-width:.25}.st16{fill:#deebf6}.st17{marker-end:url(#mrkr5-212);stroke:red;stroke-linecap:round;stroke-linejoin:round;stroke-width:1}.st18{fill:red;fill-opacity:1;stroke:red;stroke-opacity:1;stroke-width:.28409090909091}.st19{fill:none;stroke:#2e75b5;stroke-width:1}.st20{fill:#5b9bd5;font-family:Calibri;font-size:1.00001em}.st21{fill:none;stroke:none;stroke-width:.25}.st22{font-size:1em}.st23{fill:#fff}.st24{stroke-dasharray:1.5,3;stroke-linecap:round;stroke-linejoin:round;stroke-width:1.5}.st24,.st25,.st26{stroke:#5b9bd5}.st25{marker-end:url(#mrkr5-444);stroke-linecap:round;stroke-linejoin:round;stroke-width:1.5}.st26{fill:#5b9bd5;fill-opacity:1;stroke-opacity:1;stroke-width:.37313432835821}.st27{fill:none;fill-rule:evenodd;font-size:12px;overflow:visible;stroke-linecap:square;stroke-miterlimit:3}</style><defs id="Markers"><g id="lend5"><path style="stroke:none" d="M 2 1 L 0 0 L 1.98117 -0.993387 C 1.67173 -0.364515 1.67301 0.372641 1.98465 1.00043"/></g><marker id="mrkr5-212" class="st18" markerUnits="strokeWidth" orient="auto" overflow="visible" refX="-5.8"><use transform="scale(-3.52,-3.52)" xlink:href="#lend5"/></marker><marker id="mrkr5-444" class="st26" markerUnits="strokeWidth" orient="auto" overflow="visible" refX="-4.69"><use transform="scale(-2.68,-2.68)" xlink:href="#lend5"/></marker></defs><defs id="Filters"><filter id="filter_2"><feGaussianBlur stdDeviation="2"/></filter></defs><g><title>Page-1</title><g id="shape3-1" transform="translate(319.501,-335.688)"><title>Rectangle.58</title><desc>Key 1</desc><g id="shadow3-2" class="st1" transform="matrix(1,0,0,1,0.345598,1.97279)"><rect width="31.5" height="18" x="0" y="406.565" class="st2"/></g><rect width="31.5" height="18" x="0" y="406.565" class="st3"/><text x="4.74" y="418.56" class="st4">Key 1</text></g><g id="shape4-7" transform="translate(353.251,-335.688)"><title>Rectangle.59</title><desc>Action 1</desc><g id="shadow4-8" class="st1" transform="matrix(1,0,0,1,0.345598,1.97279)"><rect width="42.75" height="18" x="0" y="406.565" class="st2"/></g><rect width="42.75" height="18" x="0" y="406.565" class="st3"/><text x="4.62" y="418.56" class="st4">Action 1</text></g><g id="shape5-13" transform="translate(400.501,-335.688)"><title>Rectangle.60</title><desc>Key 2</desc><g id="shadow5-14" class="st1" transform="matrix(1,0,0,1,0.345598,1.97279)"><rect width="31.5" height="18" x="0" y="406.565" class="st2"/></g><rect width="31.5" height="18" x="0" y="406.565" class="st3"/><text x="4.74" y="418.56" class="st4">Key 2</text></g><g id="shape6-19" transform="translate(434.251,-335.688)"><title>Rectangle.61</title><desc>Action 2</desc><g id="shadow6-20" class="st1" transform="matrix(1,0,0,1,0.345598,1.97279)"><rect width="42.75" height="18" x="0" y="406.565" class="st2"/></g><rect width="42.75" height="18" x="0" y="406.565" class="st3"/><text x="4.62" y="418.56" class="st4">Action 2</text></g><g id="shape7-25" transform="translate(481.501,-335.688)"><title>Rectangle.62</title><g id="shadow7-26" class="st1" transform="matrix(1,0,0,1,0.345598,1.97279)"><rect width="31.5" height="18" x="0" y="406.565" class="st2"/></g><rect width="31.5" height="18" x="0" y="406.565" class="st3"/></g><g id="shape8-30" transform="translate(515.251,-335.688)"><title>Rectangle.63</title><g id="shadow8-31" class="st1" transform="matrix(1,0,0,1,0.345598,1.97279)"><rect width="42.75" height="18" x="0" y="406.565" class="st2"/></g><rect width="42.75" height="18" x="0" y="406.565" class="st3"/></g><g id="shape9-35" transform="translate(319.501,-313.188)"><title>Rectangle.64</title><g id="shadow9-36" class="st1" transform="matrix(1,0,0,1,0.345598,1.97279)"><rect width="31.5" height="18" x="0" y="406.565" class="st2"/></g><rect width="31.5" height="18" x="0" y="406.565" class="st3"/></g><g id="shape10-40" transform="translate(353.251,-313.188)"><title>Rectangle.65</title><g id="shadow10-41" class="st1" transform="matrix(1,0,0,1,0.345598,1.97279)"><rect width="42.75" height="18" x="0" y="406.565" class="st2"/></g><rect width="42.75" height="18" x="0" y="406.565" class="st3"/></g><g id="shape11-45" transform="translate(400.501,-313.188)"><title>Rectangle.66</title><g id="shadow11-46" class="st1" transform="matrix(1,0,0,1,0.345598,1.97279)"><rect width="31.5" height="18" x="0" y="406.565" class="st2"/></g><rect width="31.5" height="18" x="0" y="406.565" class="st3"/></g><g id="shape12-50" transform="translate(434.251,-313.188)"><title>Rectangle.67</title><g id="shadow12-51" class="st1" transform="matrix(1,0,0,1,0.345598,1.97279)"><rect width="42.75" height="18" x="0" y="406.565" class="st2"/></g><rect width="42.75" height="18" x="0" y="406.565" class="st3"/></g><g id="shape13-55" transform="translate(481.501,-313.188)"><title>Rectangle.68</title><g id="shadow13-56" class="st1" transform="matrix(1,0,0,1,0.345598,1.97279)"><rect width="31.5" height="18" x="0" y="406.565" class="st2"/></g><rect width="31.5" height="18" x="0" y="406.565" class="st3"/></g><g id="shape14-60" transform="translate(515.251,-313.188)"><title>Rectangle.69</title><g id="shadow14-61" class="st1" transform="matrix(1,0,0,1,0.345598,1.97279)"><rect width="42.75" height="18" x="0" y="406.565" class="st2"/></g><rect width="42.75" height="18" x="0" y="406.565" class="st3"/></g><g id="shape15-65" transform="translate(319.501,-277.188)"><title>Rectangle.70</title><desc>Key x</desc><g id="shadow15-66" class="st1" transform="matrix(1,0,0,1,0.345598,1.97279)"><rect width="31.5" height="18" x="0" y="406.565" class="st2"/></g><rect width="31.5" height="18" x="0" y="406.565" class="st3"/><text x="5.11" y="418.56" class="st4">Key x</text></g><g id="shape16-71" transform="translate(353.251,-277.188)"><title>Rectangle.71</title><desc>Action x</desc><g id="shadow16-72" class="st1" transform="matrix(1,0,0,1,0.345598,1.97279)"><rect width="42.75" height="18" x="0" y="406.565" class="st2"/></g><rect width="42.75" height="18" x="0" y="406.565" class="st3"/><text x="4.99" y="418.56" class="st4">Action x</text></g><g id="shape17-77" transform="translate(400.501,-277.188)"><title>Rectangle.72</title><desc>Key y</desc><g id="shadow17-78" class="st1" transform="matrix(1,0,0,1,0.345598,1.97279)"><rect width="31.5" height="18" x="0" y="406.565" class="st2"/></g><rect width="31.5" height="18" x="0" y="406.565" class="st3"/><text x="5.01" y="418.56" class="st4">Key y</text></g><g id="shape18-83" transform="translate(434.251,-277.188)"><title>Rectangle.73</title><desc>Action y</desc><g id="shadow18-84" class="st1" transform="matrix(1,0,0,1,0.345598,1.97279)"><rect width="42.75" height="18" x="0" y="406.565" class="st2"/></g><rect width="42.75" height="18" x="0" y="406.565" class="st3"/><text x="4.89" y="418.56" class="st4">Action y</text></g><g id="shape19-89" transform="translate(481.501,-277.188)"><title>Rectangle.74</title><desc>Key z</desc><g id="shadow19-90" class="st1" transform="matrix(1,0,0,1,0.345598,1.97279)"><rect width="31.5" height="18" x="0" y="406.565" class="st2"/></g><rect width="31.5" height="18" x="0" y="406.565" class="st3"/><text x="5.3" y="418.56" class="st4">Key z</text></g><g id="shape20-95" transform="translate(515.251,-277.188)"><title>Rectangle.75</title><desc>Action z</desc><g id="shadow20-96" class="st1" transform="matrix(1,0,0,1,0.345598,1.97279)"><rect width="42.75" height="18" x="0" y="406.565" class="st2"/></g><rect width="42.75" height="18" x="0" y="406.565" class="st3"/><text x="5.18" y="418.56" class="st4">Action z</text></g><g id="shape21-101" transform="translate(319.501,-240.687)"><title>Rectangle.76</title><g id="shadow21-102" class="st1" transform="matrix(1,0,0,1,0.345598,1.97279)"><rect width="31.5" height="18" x="0" y="406.565" class="st2"/></g><rect width="31.5" height="18" x="0" y="406.565" class="st3"/></g><g id="shape22-106" transform="translate(353.251,-240.687)"><title>Rectangle.77</title><g id="shadow22-107" class="st1" transform="matrix(1,0,0,1,0.345598,1.97279)"><rect width="42.75" height="18" x="0" y="406.565" class="st2"/></g><rect width="42.75" height="18" x="0" y="406.565" class="st3"/></g><g id="shape23-111" transform="translate(400.501,-240.687)"><title>Rectangle.78</title><g id="shadow23-112" class="st1" transform="matrix(1,0,0,1,0.345598,1.97279)"><rect width="31.5" height="18" x="0" y="406.565" class="st2"/></g><rect width="31.5" height="18" x="0" y="406.565" class="st3"/></g><g id="shape24-116" transform="translate(434.251,-240.687)"><title>Rectangle.79</title><g id="shadow24-117" class="st1" transform="matrix(1,0,0,1,0.345598,1.97279)"><rect width="42.75" height="18" x="0" y="406.565" class="st2"/></g><rect width="42.75" height="18" x="0" y="406.565" class="st3"/></g><g id="shape25-121" transform="translate(481.501,-240.687)"><title>Rectangle.80</title><desc>Key N</desc><g id="shadow25-122" class="st1" transform="matrix(1,0,0,1,0.345598,1.97279)"><rect width="31.5" height="18" x="0" y="406.565" class="st2"/></g><rect width="31.5" height="18" x="0" y="406.565" class="st3"/><text x="5.21" y="418.26" class="st5">Key N</text></g><g id="shape26-127" transform="translate(515.251,-240.687)"><title>Rectangle.81</title><desc>Action N</desc><g id="shadow26-128" class="st1" transform="matrix(1,0,0,1,0.345598,1.97279)"><rect width="42.75" height="18" x="0" y="406.565" class="st2"/></g><rect width="42.75" height="18" x="0" y="406.565" class="st3"/><text x="5.67" y="418.26" class="st5">Action N</text></g><g id="shape27-133" transform="translate(317.251,-231.687)"><title>Rectangle.82</title><g id="shadow27-134" class="st1" transform="matrix(1,0,0,1,0.345598,1.97279)"><rect width="245.25" height="135.5" x="0" y="289.065" class="st6"/></g><rect width="245.25" height="135.5" x="0" y="289.065" class="st7"/></g><g id="shape28-138" transform="translate(328.501,-362.688)"><title>Sheet.28</title><desc>Local Table for N Specific Flows Serviced at Node 1</desc><rect width="220.846" height="11.25" x="0" y="413.315" class="st8"/><text x="5.77" y="421.94" class="st9">Local Table for N Specific Flows Serviced at Node 1</text></g><g id="group34-141" transform="translate(66.0294,-165.569)"><title>Load balancer</title><g id="shape35-142" transform="translate(0,-7.33146)"><title>Sheet.35</title><g id="shadow35-143" class="st1"><path d="M54 367.23 L18 367.23 L0 377.86 L0 424.56 L72 424.56 L72 377.86 L54 367.23 Z" class="st10" transform="matrix(1,0,0,1,0.345598,1.97279)"/><path d="M0 377.86 L72 377.86" class="st6" transform="matrix(1,0,0,1,0.345598,1.97279)"/><path d="M54 367.23 L18 367.23 L0 377.86 L0 424.56 L72 424.56 L72 377.86 L54 367.23" class="st6" transform="matrix(1,0,0,1,0.345598,1.97279)"/></g><path d="M54 367.23 L18 367.23 L0 377.86 L0 424.56 L72 424.56 L72 377.86 L54 367.23 Z" class="st11"/><path d="M0 377.86 L72 377.86" class="st12"/><path d="M54 367.23 L18 367.23 L0 377.86 L0 424.56 L72 424.56 L72 377.86 L54 367.23" class="st12"/></g><g id="shape36-152" transform="translate(8.03054,-12.9324)"><title>Sheet.36</title><g id="shadow36-153" class="st1"><path d="M45.34 421.81 L41.2 422.66 L44.12 424.56 L49.68 423.16 L48.75 417.51 L45.8 415.59 L46.69 419.68 L36.97 413.34 L35.6 415.45 L45.34 421.81 ZM50.83 405.36 L39.2 405.36 L39.2 407.88 L50.8 407.88 L47.82 410.83 L51.34 410.83 L55.21 406.61 L51.32 402.39 L47.83 402.39 L50.83 405.36 ZM46.49 392.01 L36.75 398.37 L38.13 400.48 L47.84 394.14 L46.96 398.23 L49.91 396.31 L50.84 390.66 L45.28 389.26 L42.36 391.16 L46.49 392.01 ZM27.71 397.16 C22.66 397.16 18.58 401.25 18.58 406.29 C18.58 411.33 22.66 415.42 27.71 415.42 C32.75 415.42 36.84 411.33 36.84 406.29 C36.84 401.25 32.75 397.16 27.71 397.16 ZM27.71 400.04 C31.15 400.04 33.96 402.84 33.96 406.29 C33.96 409.74 31.15 412.54 27.71 412.54 C24.26 412.54 21.46 409.74 21.46 406.29 C21.46 402.84 24.26 400.04 27.71 400.04 ZM11.64 405.04 L0 405.04 L0 407.56 L11.6 407.56 L8.62 410.51 L12.14 410.51 L16.01 406.29 L12.12 402.07 L8.64 402.07 L11.64 405.04 Z" class="st2" transform="matrix(1,0,0,1,0.345598,1.97279)"/></g><path d="M45.34 421.81 L41.2 422.66 L44.12 424.56 L49.68 423.16 L48.75 417.51 L45.8 415.59 L46.69 419.68 L36.97 413.34 L35.6 415.45 L45.34 421.81 ZM50.83 405.36 L39.2 405.36 L39.2 407.88 L50.8 407.88 L47.82 410.83 L51.34 410.83 L55.21 406.61 L51.32 402.39 L47.83 402.39 L50.83 405.36 ZM46.49 392.01 L36.75 398.37 L38.13 400.48 L47.84 394.14 L46.96 398.23 L49.91 396.31 L50.84 390.66 L45.28 389.26 L42.36 391.16 L46.49 392.01 ZM27.71 397.16 C22.66 397.16 18.58 401.25 18.58 406.29 C18.58 411.33 22.66 415.42 27.71 415.42 C32.75 415.42 36.84 411.33 36.84 406.29 C36.84 401.25 32.75 397.16 27.71 397.16 ZM27.71 400.04 C31.15 400.04 33.96 402.84 33.96 406.29 C33.96 409.74 31.15 412.54 27.71 412.54 C24.26 412.54 21.46 409.74 21.46 406.29 C21.46 402.84 24.26 400.04 27.71 400.04 ZM11.64 405.04 L0 405.04 L0 407.56 L11.6 407.56 L8.62 410.51 L12.14 410.51 L16.01 406.29 L12.12 402.07 L8.64 402.07 L11.64 405.04 Z" class="st13"/></g></g><g id="shape37-157" transform="translate(21.0294,-45.4375)"><title>Rectangle</title><g id="shadow37-158" class="st1" transform="matrix(1,0,0,1,0.345598,1.97279)"><rect width="135" height="88.132" x="0" y="336.433" class="st2"/></g><rect width="135" height="88.132" x="0" y="336.433" class="st3"/></g><g id="shape38-162" transform="translate(34.693,-126.438)"><title>Sheet.38</title><desc>EFD Table</desc><rect width="98.673" height="18" x="0" y="406.565" class="st8"/><text x="24.87" y="419.17" class="st14">EFD Table</text></g><g id="shape39-165" transform="translate(30.0294,-99.4375)"><title>Rectangle.39</title><desc>Group_id</desc><g id="shadow39-166" class="st1" transform="matrix(1,0,0,1,0.345598,1.97279)"><rect width="53.836" height="18" x="0" y="406.565" class="st2"/></g><rect width="53.836" height="18" x="0" y="406.565" class="st15"/><text x="7.87" y="418.56" class="st4">Group_id</text></g><g id="shape40-171" transform="translate(93.193,-99.4375)"><title>Rectangle.40</title><desc>Hash index</desc><g id="shadow40-172" class="st1" transform="matrix(1,0,0,1,0.345598,1.97279)"><rect width="53.836" height="18" x="0" y="406.565" class="st2"/></g><rect width="53.836" height="18" x="0" y="406.565" class="st15"/><text x="4.64" y="418.56" class="st4">Hash index</text></g><g id="shape41-177" transform="translate(30.193,-82.4275)"><title>Rectangle.41</title><g id="shadow41-178" class="st1" transform="matrix(1,0,0,1,0.345598,1.97279)"><rect width="53.836" height="11.25" x="0" y="413.315" class="st2"/></g><rect width="53.836" height="11.25" x="0" y="413.315" class="st16"/></g><g id="shape42-182" transform="translate(30.193,-66.8125)"><title>Rectangle.42</title><g id="shadow42-183" class="st1" transform="matrix(1,0,0,1,0.345598,1.97279)"><rect width="53.836" height="11.25" x="0" y="413.315" class="st2"/></g><rect width="53.836" height="11.25" x="0" y="413.315" class="st16"/></g><g id="shape43-187" transform="translate(30.1112,-52.1875)"><title>Rectangle.43</title><g id="shadow43-188" class="st1" transform="matrix(1,0,0,1,0.345598,1.97279)"><rect width="53.836" height="11.25" x="0" y="413.315" class="st2"/></g><rect width="53.836" height="11.25" x="0" y="413.315" class="st16"/></g><g id="shape44-192" transform="translate(93.0294,-81.4375)"><title>Rectangle.44</title><g id="shadow44-193" class="st1" transform="matrix(1,0,0,1,0.345598,1.97279)"><rect width="53.836" height="11.25" x="0" y="413.315" class="st2"/></g><rect width="53.836" height="11.25" x="0" y="413.315" class="st16"/></g><g id="shape45-197" transform="translate(93.193,-66.8125)"><title>Rectangle.45</title><g id="shadow45-198" class="st1" transform="matrix(1,0,0,1,0.345598,1.97279)"><rect width="53.836" height="11.25" x="0" y="413.315" class="st2"/></g><rect width="53.836" height="11.25" x="0" y="413.315" class="st16"/></g><g id="shape46-202" transform="translate(93.193,-52.1875)"><title>Rectangle.46</title><g id="shadow46-203" class="st1" transform="matrix(1,0,0,1,0.345598,1.97279)"><rect width="53.836" height="11.25" x="0" y="413.315" class="st2"/></g><rect width="53.836" height="11.25" x="0" y="413.315" class="st16"/></g><g id="shape47-207" transform="translate(374.924,544.022) rotate(135)"><title>Sheet.47</title><path d="M-0 417.75 A40.674 18.0151 -156.2 0 0 40.24 422.15 L40.49 421.89" class="st17"/></g><g id="shape48-213" transform="translate(21.0294,-19)"><title>Sheet.48</title><desc>Supports X*N Flows</desc><rect width="135" height="18" x="0" y="406.565" class="st19"/><text x="19.05" y="419.17" class="st20">Supports X*N Flows</text></g><g id="shape49-216" transform="translate(48.0294,-229.938)"><title>Sheet.49</title><desc>Frontend Server or Load Balancer</desc><rect width="108" height="47.25" x="0" y="377.315" class="st21"/><text x="14.56" y="397.34" class="st20">Frontend Server<tspan x="13.16" class="st22" dy="1.2em">or Load Balancer</tspan></text></g><g id="group51-220" transform="translate(223.876,-310.938)"><title>Server</title><g id="shape52-221" transform="translate(13.0183,0)"><title>Sheet.52</title><g id="shadow52-222" class="st1" transform="matrix(1,0,0,1,0.345598,1.97279)"><rect width="45.963" height="72" x="0" y="352.565" class="st2"/></g><rect width="45.963" height="72" x="0" y="352.565" class="st3"/></g><g id="shape53-226" transform="translate(47.371,-30.7354)"><title>Sheet.53</title><g id="shadow53-227" class="st1" transform="matrix(1,0,0,1,0.345598,1.97279)"><ellipse cx="2.778" cy="421.786" class="st2" rx="2.778" ry="2.778"/></g><ellipse cx="2.778" cy="421.786" class="st13" rx="2.778" ry="2.778"/></g><g id="shape54-231" transform="translate(30.51,-11.8022)"><title>Sheet.54</title><g id="shadow54-232" class="st1"><path d="M-0 424.56 L22.42 424.56 L22.42 422.76 L-0 422.76 L-0 424.56 ZM-0 419.11 L22.42 419.11 L22.42 417.31 L-0 417.31 L-0 419.11 ZM-0 413.65 L22.42 413.65 L22.42 411.84 L-0 411.84 L-0 413.65 Z" class="st10" transform="matrix(1,0,0,1,0.345598,1.97279)"/></g><path d="M-0 424.56 L22.42 424.56 L22.42 422.76 L-0 422.76 L-0 424.56 ZM-0 419.11 L22.42 419.11 L22.42 417.31 L-0 417.31 L-0 419.11 ZM-0 413.65 L22.42 413.65 L22.42 411.84 L-0 411.84 L-0 413.65 Z" class="st23"/></g></g><g id="shape59-239" transform="translate(277.876,-373.938)"><title>Sheet.59</title><path d="M-0 424.56 A111.108 53.2538 42.31 0 1 93.83 421.21 L94.14 421.41" class="st17"/></g><g id="shape60-244" transform="translate(205.876,-283.938)"><title>Sheet.60</title><desc>Backend Server 1</desc><rect width="108" height="32.882" x="0" y="391.683" class="st21"/><text x="11.93" y="411.72" class="st20">Backend Server 1</text></g><g id="group61-247" transform="translate(223.876,-207.438)"><title>Server.61</title><g id="shape62-248" transform="translate(13.0183,0)"><title>Sheet.62</title><g id="shadow62-249" class="st1" transform="matrix(1,0,0,1,0.345598,1.97279)"><rect width="45.963" height="72" x="0" y="352.565" class="st2"/></g><rect width="45.963" height="72" x="0" y="352.565" class="st3"/></g><g id="shape63-253" transform="translate(47.371,-30.7354)"><title>Sheet.63</title><g id="shadow63-254" class="st1" transform="matrix(1,0,0,1,0.345598,1.97279)"><ellipse cx="2.778" cy="421.786" class="st2" rx="2.778" ry="2.778"/></g><ellipse cx="2.778" cy="421.786" class="st13" rx="2.778" ry="2.778"/></g><g id="shape64-258" transform="translate(30.51,-11.8022)"><title>Sheet.64</title><g id="shadow64-259" class="st1"><path d="M-0 424.56 L22.42 424.56 L22.42 422.76 L-0 422.76 L-0 424.56 ZM-0 419.11 L22.42 419.11 L22.42 417.31 L-0 417.31 L-0 419.11 ZM-0 413.65 L22.42 413.65 L22.42 411.84 L-0 411.84 L-0 413.65 Z" class="st10" transform="matrix(1,0,0,1,0.345598,1.97279)"/></g><path d="M-0 424.56 L22.42 424.56 L22.42 422.76 L-0 422.76 L-0 424.56 ZM-0 419.11 L22.42 419.11 L22.42 417.31 L-0 417.31 L-0 419.11 ZM-0 413.65 L22.42 413.65 L22.42 411.84 L-0 411.84 L-0 413.65 Z" class="st23"/></g></g><g id="shape65-266" transform="translate(205.876,-180.437)"><title>Sheet.65</title><desc>Backend Server 2</desc><rect width="108" height="32.882" x="0" y="391.683" class="st21"/><text x="11.93" y="411.72" class="st20">Backend Server 2</text></g><g id="group66-269" transform="translate(219.029,-58.9375)"><title>Server.66</title><g id="shape67-270" transform="translate(13.0183,0)"><title>Sheet.67</title><g id="shadow67-271" class="st1" transform="matrix(1,0,0,1,0.345598,1.97279)"><rect width="45.963" height="72" x="0" y="352.565" class="st2"/></g><rect width="45.963" height="72" x="0" y="352.565" class="st3"/></g><g id="shape68-275" transform="translate(47.371,-30.7354)"><title>Sheet.68</title><g id="shadow68-276" class="st1" transform="matrix(1,0,0,1,0.345598,1.97279)"><ellipse cx="2.778" cy="421.786" class="st2" rx="2.778" ry="2.778"/></g><ellipse cx="2.778" cy="421.786" class="st13" rx="2.778" ry="2.778"/></g><g id="shape69-280" transform="translate(30.51,-11.8022)"><title>Sheet.69</title><g id="shadow69-281" class="st1"><path d="M-0 424.56 L22.42 424.56 L22.42 422.76 L-0 422.76 L-0 424.56 ZM-0 419.11 L22.42 419.11 L22.42 417.31 L-0 417.31 L-0 419.11 ZM-0 413.65 L22.42 413.65 L22.42 411.84 L-0 411.84 L-0 413.65 Z" class="st10" transform="matrix(1,0,0,1,0.345598,1.97279)"/></g><path d="M-0 424.56 L22.42 424.56 L22.42 422.76 L-0 422.76 L-0 424.56 ZM-0 419.11 L22.42 419.11 L22.42 417.31 L-0 417.31 L-0 419.11 ZM-0 413.65 L22.42 413.65 L22.42 411.84 L-0 411.84 L-0 413.65 Z" class="st23"/></g></g><g id="shape70-288" transform="translate(201.029,-26.056)"><title>Sheet.70</title><desc>Backend Server X</desc><rect width="108" height="32.882" x="0" y="391.683" class="st21"/><text x="11.86" y="411.72" class="st20">Backend Server X</text></g><g id="shape71-291" transform="translate(684.44,239.627) rotate(90)"><title>Sheet.71</title><path d="M0 424.56 L45 424.56" class="st24"/></g><g id="shape72-294" transform="translate(6.85967,-22.443) rotate(-38.1076)"><title>Sheet.72</title><path d="M-0 424.56 A96.1331 44.4001 55.03 0 1 68.24 420.56 L68.51 420.79" class="st17"/></g><g id="shape73-299" transform="translate(328.501,-135.937)"><title>Rectangle.73</title><desc>Key 1</desc><g id="shadow73-300" class="st1" transform="matrix(1,0,0,1,0.345598,1.97279)"><rect width="31.5" height="18" x="0" y="406.565" class="st2"/></g><rect width="31.5" height="18" x="0" y="406.565" class="st3"/><text x="4.74" y="418.56" class="st4">Key 1</text></g><g id="shape74-305" transform="translate(362.251,-135.937)"><title>Rectangle.74</title><desc>Action 1</desc><g id="shadow74-306" class="st1" transform="matrix(1,0,0,1,0.345598,1.97279)"><rect width="42.75" height="18" x="0" y="406.565" class="st2"/></g><rect width="42.75" height="18" x="0" y="406.565" class="st3"/><text x="4.62" y="418.56" class="st4">Action 1</text></g><g id="shape75-311" transform="translate(409.501,-135.937)"><title>Rectangle.75</title><desc>Key 2</desc><g id="shadow75-312" class="st1" transform="matrix(1,0,0,1,0.345598,1.97279)"><rect width="31.5" height="18" x="0" y="406.565" class="st2"/></g><rect width="31.5" height="18" x="0" y="406.565" class="st3"/><text x="4.74" y="418.56" class="st4">Key 2</text></g><g id="shape76-317" transform="translate(443.251,-135.937)"><title>Rectangle.76</title><desc>Action 2</desc><g id="shadow76-318" class="st1" transform="matrix(1,0,0,1,0.345598,1.97279)"><rect width="42.75" height="18" x="0" y="406.565" class="st2"/></g><rect width="42.75" height="18" x="0" y="406.565" class="st3"/><text x="4.62" y="418.56" class="st4">Action 2</text></g><g id="shape77-323" transform="translate(490.501,-135.937)"><title>Rectangle.77</title><g id="shadow77-324" class="st1" transform="matrix(1,0,0,1,0.345598,1.97279)"><rect width="31.5" height="18" x="0" y="406.565" class="st2"/></g><rect width="31.5" height="18" x="0" y="406.565" class="st3"/></g><g id="shape78-328" transform="translate(524.251,-135.937)"><title>Rectangle.78</title><g id="shadow78-329" class="st1" transform="matrix(1,0,0,1,0.345598,1.97279)"><rect width="42.75" height="18" x="0" y="406.565" class="st2"/></g><rect width="42.75" height="18" x="0" y="406.565" class="st3"/></g><g id="shape79-333" transform="translate(328.501,-113.437)"><title>Rectangle.79</title><g id="shadow79-334" class="st1" transform="matrix(1,0,0,1,0.345598,1.97279)"><rect width="31.5" height="18" x="0" y="406.565" class="st2"/></g><rect width="31.5" height="18" x="0" y="406.565" class="st3"/></g><g id="shape80-338" transform="translate(362.251,-113.437)"><title>Rectangle.80</title><g id="shadow80-339" class="st1" transform="matrix(1,0,0,1,0.345598,1.97279)"><rect width="42.75" height="18" x="0" y="406.565" class="st2"/></g><rect width="42.75" height="18" x="0" y="406.565" class="st3"/></g><g id="shape81-343" transform="translate(409.501,-113.437)"><title>Rectangle.81</title><g id="shadow81-344" class="st1" transform="matrix(1,0,0,1,0.345598,1.97279)"><rect width="31.5" height="18" x="0" y="406.565" class="st2"/></g><rect width="31.5" height="18" x="0" y="406.565" class="st3"/></g><g id="shape82-348" transform="translate(443.251,-113.437)"><title>Rectangle.82</title><g id="shadow82-349" class="st1" transform="matrix(1,0,0,1,0.345598,1.97279)"><rect width="42.75" height="18" x="0" y="406.565" class="st2"/></g><rect width="42.75" height="18" x="0" y="406.565" class="st3"/></g><g id="shape83-353" transform="translate(490.501,-113.437)"><title>Rectangle.83</title><g id="shadow83-354" class="st1" transform="matrix(1,0,0,1,0.345598,1.97279)"><rect width="31.5" height="18" x="0" y="406.565" class="st2"/></g><rect width="31.5" height="18" x="0" y="406.565" class="st3"/></g><g id="shape84-358" transform="translate(524.251,-113.437)"><title>Rectangle.84</title><g id="shadow84-359" class="st1" transform="matrix(1,0,0,1,0.345598,1.97279)"><rect width="42.75" height="18" x="0" y="406.565" class="st2"/></g><rect width="42.75" height="18" x="0" y="406.565" class="st3"/></g><g id="shape85-363" transform="translate(328.501,-77.4375)"><title>Rectangle.85</title><desc>Key x</desc><g id="shadow85-364" class="st1" transform="matrix(1,0,0,1,0.345598,1.97279)"><rect width="31.5" height="18" x="0" y="406.565" class="st2"/></g><rect width="31.5" height="18" x="0" y="406.565" class="st3"/><text x="5.11" y="418.56" class="st4">Key x</text></g><g id="shape86-369" transform="translate(362.251,-77.4375)"><title>Rectangle.86</title><desc>Action x</desc><g id="shadow86-370" class="st1" transform="matrix(1,0,0,1,0.345598,1.97279)"><rect width="42.75" height="18" x="0" y="406.565" class="st2"/></g><rect width="42.75" height="18" x="0" y="406.565" class="st3"/><text x="4.99" y="418.56" class="st4">Action x</text></g><g id="shape87-375" transform="translate(409.501,-77.4375)"><title>Rectangle.87</title><desc>Key y</desc><g id="shadow87-376" class="st1" transform="matrix(1,0,0,1,0.345598,1.97279)"><rect width="31.5" height="18" x="0" y="406.565" class="st2"/></g><rect width="31.5" height="18" x="0" y="406.565" class="st3"/><text x="5.01" y="418.56" class="st4">Key y</text></g><g id="shape88-381" transform="translate(443.251,-77.4375)"><title>Rectangle.88</title><desc>Action y</desc><g id="shadow88-382" class="st1" transform="matrix(1,0,0,1,0.345598,1.97279)"><rect width="42.75" height="18" x="0" y="406.565" class="st2"/></g><rect width="42.75" height="18" x="0" y="406.565" class="st3"/><text x="4.89" y="418.56" class="st4">Action y</text></g><g id="shape89-387" transform="translate(490.501,-77.4375)"><title>Rectangle.89</title><desc>Key z</desc><g id="shadow89-388" class="st1" transform="matrix(1,0,0,1,0.345598,1.97279)"><rect width="31.5" height="18" x="0" y="406.565" class="st2"/></g><rect width="31.5" height="18" x="0" y="406.565" class="st3"/><text x="5.3" y="418.56" class="st4">Key z</text></g><g id="shape90-393" transform="translate(524.251,-77.4375)"><title>Rectangle.90</title><desc>Action z</desc><g id="shadow90-394" class="st1" transform="matrix(1,0,0,1,0.345598,1.97279)"><rect width="42.75" height="18" x="0" y="406.565" class="st2"/></g><rect width="42.75" height="18" x="0" y="406.565" class="st3"/><text x="5.18" y="418.56" class="st4">Action z</text></g><g id="shape91-399" transform="translate(328.501,-40.9375)"><title>Rectangle.91</title><g id="shadow91-400" class="st1" transform="matrix(1,0,0,1,0.345598,1.97279)"><rect width="31.5" height="18" x="0" y="406.565" class="st2"/></g><rect width="31.5" height="18" x="0" y="406.565" class="st3"/></g><g id="shape92-404" transform="translate(362.251,-40.9375)"><title>Rectangle.92</title><g id="shadow92-405" class="st1" transform="matrix(1,0,0,1,0.345598,1.97279)"><rect width="42.75" height="18" x="0" y="406.565" class="st2"/></g><rect width="42.75" height="18" x="0" y="406.565" class="st3"/></g><g id="shape93-409" transform="translate(409.501,-40.9375)"><title>Rectangle.93</title><g id="shadow93-410" class="st1" transform="matrix(1,0,0,1,0.345598,1.97279)"><rect width="31.5" height="18" x="0" y="406.565" class="st2"/></g><rect width="31.5" height="18" x="0" y="406.565" class="st3"/></g><g id="shape94-414" transform="translate(443.251,-40.9375)"><title>Rectangle.94</title><g id="shadow94-415" class="st1" transform="matrix(1,0,0,1,0.345598,1.97279)"><rect width="42.75" height="18" x="0" y="406.565" class="st2"/></g><rect width="42.75" height="18" x="0" y="406.565" class="st3"/></g><g id="shape95-419" transform="translate(490.501,-40.9375)"><title>Rectangle.95</title><desc>Key N</desc><g id="shadow95-420" class="st1" transform="matrix(1,0,0,1,0.345598,1.97279)"><rect width="31.5" height="18" x="0" y="406.565" class="st2"/></g><rect width="31.5" height="18" x="0" y="406.565" class="st3"/><text x="5.21" y="418.26" class="st5">Key N</text></g><g id="shape96-425" transform="translate(524.251,-40.9375)"><title>Rectangle.96</title><desc>Action N</desc><g id="shadow96-426" class="st1" transform="matrix(1,0,0,1,0.345598,1.97279)"><rect width="42.75" height="18" x="0" y="406.565" class="st2"/></g><rect width="42.75" height="18" x="0" y="406.565" class="st3"/><text x="5.67" y="418.26" class="st5">Action N</text></g><g id="shape97-431" transform="translate(326.251,-31.9375)"><title>Rectangle.97</title><g id="shadow97-432" class="st1" transform="matrix(1,0,0,1,0.345598,1.97279)"><rect width="245.25" height="135.5" x="0" y="289.065" class="st6"/></g><rect width="245.25" height="135.5" x="0" y="289.065" class="st7"/></g><g id="shape98-436" transform="translate(337.501,-162.938)"><title>Sheet.98</title><desc>Local Table for N Specific Flows Serviced at Node X</desc><rect width="220.846" height="11.25" x="0" y="413.315" class="st8"/><text x="5.55" y="421.94" class="st9">Local Table for N Specific Flows Serviced at Node X</text></g><g id="shape99-439" transform="translate(-204.342,-29.4449) rotate(-53.7462)"><title>Sheet.99</title><path d="M0 424.56 L160.37 424.56" class="st25"/></g><g id="shape100-445" transform="translate(-37.6568,-164.882) rotate(-24.444)"><title>Sheet.100</title><path d="M0 424.56 L101.71 424.56" class="st25"/></g><g id="shape101-450" transform="translate(464.049,-50.8578) rotate(50.099)"><title>Sheet.101</title><path d="M0 424.56 L139.8 424.56" class="st25"/></g><g id="shape102-455" transform="translate(372.376,-207.438)"><title>Sheet.102</title><desc>Supports N Flows</desc><rect width="135" height="18" x="0" y="406.565" class="st19"/><text x="25.15" y="419.17" class="st20">Supports N Flows</text></g></g></svg>