<svg xmlns="http://www.w3.org/2000/svg" xmlns:ev="http://www.w3.org/2001/xml-events" xmlns:xlink="http://www.w3.org/1999/xlink" width="267.833" height="171.025" class="st19" color-interpolation-filters="sRGB" viewBox="0 0 200.875 128.269" xml:space="preserve"><style type="text/css">.st1{fill:none;stroke:none;stroke-width:.25}.st2{fill:#5b9bd5;font-family:Calibri;font-size:.75em}.st3{font-size:1em}.st4{fill:#5b9bd5;font-family:Calibri;font-size:.75em;font-weight:700}.st5{fill:#deebf6;stroke:none;stroke-width:.25}.st6,.st7{stroke:#5b9bd5;stroke-linecap:round;stroke-linejoin:round;stroke-width:1}.st7{stroke-dasharray:.75,1.5;stroke-width:.75}.st8{fill:red;font-size:1em}.st9{baseline-shift:-28.8834%;font-size:.577667em}.st10{fill:red;font-family:Calibri;font-size:.75em}.st11{fill:#5b9bd5;font-size:1em}.st12{visibility:visible}.st13{fill:#5b9bd5;fill-opacity:.25;filter:url(#filter_2);stroke:#5b9bd5;stroke-opacity:.25}.st14{fill:url(#grad0-73);stroke:#40709c;stroke-width:.75}.st15{fill:#feffff;font-family:Calibri;font-size:.833336em}.st16{fill:#00fefe;font-size:1em}.st17{fill:#00b050}.st18{stroke:red;stroke-linecap:round;stroke-linejoin:round;stroke-width:1}.st19{fill:none;fill-rule:evenodd;font-size:12px;overflow:visible;stroke-linecap:square;stroke-miterlimit:3}</style><defs id="Patterns_And_Gradients"><linearGradient id="grad0-73" x1="0" x2="1" y1="0" y2="0" gradientTransform="rotate(250 0.5 0.5)"><stop offset="0" stop-color="#4f87bb" stop-opacity="1"/><stop offset=".48" stop-color="#4f87bb" stop-opacity="1"/><stop offset=".82" stop-color="#5b9bd5" stop-opacity="1"/></linearGradient></defs><defs id="Filters"><filter id="filter_2"><feGaussianBlur stdDeviation="2"/></filter></defs><g><title>Page-1</title><g id="shape2-1" transform="translate(18.25,-59.3478)"><title>Sheet.2</title><desc>Key 1 Key 2 ... Key 28</desc><rect width="36" height="13.5" x="0" y="114.769" class="st1"/><text x="8.09" y="108.02" class="st2">Key 1<tspan x="8.09" class="st3" dy="1.2em">Key </tspan>2<tspan x="14.59" class="st3" dy="1.2em">...</tspan><tspan x="5.81" class="st3" dy="1.2em">Key </tspan>28</text></g><g id="shape9-7" transform="translate(52,-91.9728)"><title>Sheet.9</title><desc>Target Value</desc><rect width="34.875" height="11.25" x="0" y="117.019" class="st1"/><text x="5.43" y="119.94" class="st4">Target <tspan x="6.77" class="st3" dy="1.2em">Value</tspan></text></g><g id="shape11-11" transform="translate(52,-42.4728)"><title>Sheet.11</title><desc>0 1 0</desc><rect width="34.875" height="45" x="0" y="83.269" class="st5"/><text x="15.16" y="92.27" class="st2">0<tspan x="15.16" class="st3" dy="1.2em">1</tspan><tspan x="15.16" class="st3" dy="2.4em">0</tspan></text></g><g id="shape8-16" transform="translate(180.269,21.6711) rotate(90)"><title>Sheet.8</title><path d="M0 128.27 L69.75 128.27" class="st6"/></g><g id="shape10-19" transform="translate(215.144,21.6711) rotate(90)"><title>Sheet.10</title><path d="M0 128.27 L69.75 128.27" class="st6"/></g><g id="shape4-22" transform="translate(22.75,-77.3478)"><title>Sheet.4</title><path d="M0 128.27 L157.5 128.27" class="st7"/></g><g id="shape5-25" transform="translate(23.875,-66.0978)"><title>Sheet.5</title><path d="M0 128.27 L158.62 128.27" class="st7"/></g><g id="shape6-28" transform="translate(22.75,-54.8478)"><title>Sheet.6</title><path d="M0 128.27 L159.75 128.27" class="st7"/></g><g id="shape7-31" transform="translate(22.75,-87.4728)"><title>Sheet.7</title><path d="M0 128.27 L155.25 128.27" class="st6"/></g><g id="shape12-34" transform="translate(91.9375,-42.4728)"><title>Sheet.12</title><desc>0 0 0</desc><rect width="16.875" height="45" x="0" y="83.269" class="st1"/><text x="6.16" y="92.27" class="st2">0<tspan x="6.16" class="st8" dy="1.2em">0</tspan><tspan x="6.16" class="st3" dy="2.4em">0</tspan></text></g><g id="shape26-39" transform="translate(86.875,-88.5978)"><title>Sheet.26</title><desc>H1(x)</desc><rect width="28.125" height="11.25" x="0" y="117.019" class="st1"/><text x="5.03" y="125.34" class="st4">H<tspan class="st9" dy="-.284em">1</tspan><tspan class="st3" dy=".164em">(</tspan>x)</text></g><g id="shape27-44" transform="translate(115,-42.4728)"><title>Sheet.27</title><desc>1 1 0</desc><rect width="16.875" height="45" x="0" y="83.269" class="st1"/><text x="6.16" y="92.27" class="st10">1<tspan x="6.16" class="st11" dy="1.2em">1</tspan><tspan x="6.16" class="st11" dy="2.4em">0</tspan></text></g><g id="shape28-49" transform="translate(109.938,-88.5978)"><title>Sheet.28</title><desc>H2(x)</desc><rect width="28.125" height="11.25" x="0" y="117.019" class="st1"/><text x="5.03" y="125.34" class="st4">H<tspan class="st9" dy="-.284em">2</tspan><tspan class="st3" dy=".164em">(</tspan>x)</text></g><g id="shape29-54" transform="translate(155.5,-42.4728)"><title>Sheet.29</title><desc>0 1 0</desc><rect width="16.875" height="45" x="0" y="83.269" class="st1"/><text x="6.16" y="92.27" class="st2">0<tspan x="6.16" class="st3" dy="1.2em">1</tspan><tspan x="6.16" class="st3" dy="2.4em">0</tspan></text></g><g id="shape30-59" transform="translate(150.438,-88.5978)"><title>Sheet.30</title><desc>Hm(x)</desc><rect width="28.125" height="11.25" x="0" y="117.019" class="st1"/><text x="4.24" y="125.34" class="st4">H<tspan class="st9" dy="-.284em">m</tspan><tspan class="st3" dy=".164em">(</tspan>x)</text></g><g id="shape31-64" transform="translate(130.188,-89.7228)"><title>Sheet.31</title><desc>…..</desc><rect width="28.125" height="11.25" x="0" y="117.019" class="st1"/><text x="8.46" y="125.34" class="st4">…..</text></g><g id="shape32-67" transform="translate(34,-23.3478)"><title>Sheet.32</title><desc>Store m for this group of keys</desc><g id="shadow32-68" class="st12" transform="matrix(1,0,0,1,0.345598,1.97279)"><rect width="132.75" height="11.25" x="0" y="117.019" class="st13"/></g><rect width="132.75" height="11.25" x="0" y="117.019" class="st14"/><text x="6.32" y="125.64" class="st15">Store <tspan class="st16">m</tspan> for this group of keys</text></g><g id="shape36-76" transform="translate(159.381,-100.964)"><title>Sheet.36</title><path d="M3.45 125.81 L6.87 119.34 L7.99 120.16 L3.87 128.27 L0 124.35 L0.86 123.13 L3.45 125.81 Z" class="st17"/></g><g id="group44-79" transform="translate(97.5625,-100.086)"><title>Sheet.44</title><g id="shape42-80" transform="translate(85.4972,28.6255) rotate(41.8011)"><title>Sheet.42</title><path d="M0 128.27 L6.04 128.27" class="st18"/></g><g id="shape43-83" transform="translate(-87.9035,34.8564) rotate(-43.2597)"><title>Sheet.43</title><path d="M0 128.27 L5.87 128.27" class="st18"/></g></g><g id="group45-86" transform="translate(120.625,-100.086)"><title>Sheet.45</title><g id="shape46-87" transform="translate(85.4972,28.6255) rotate(41.8011)"><title>Sheet.46</title><path d="M0 128.27 L6.04 128.27" class="st18"/></g><g id="shape47-90" transform="translate(-87.9035,34.8564) rotate(-43.2597)"><title>Sheet.47</title><path d="M0 128.27 L5.87 128.27" class="st18"/></g></g></g></svg>