<svg xmlns="http://www.w3.org/2000/svg" xmlns:ev="http://www.w3.org/2001/xml-events" xmlns:xlink="http://www.w3.org/1999/xlink" width="478.437" height="200.104" class="st8" color-interpolation-filters="sRGB" viewBox="0 0 358.828 150.078" xml:space="preserve"><style type="text/css">.st1{fill:#fff;stroke:none;stroke-linecap:round;stroke-linejoin:round;stroke-width:.75}.st2{stroke:#00aeef;stroke-width:2.03901}.st2,.st3,.st4{stroke-linecap:round;stroke-linejoin:round}.st3{fill:none;stroke:#00aeef;stroke-width:2.03901}.st4{stroke:none;stroke-width:.75}.st5,.st6{fill:#000;font-family:Intel Clear;font-size:.998566em}.st6{fill:#c00000;font-size:.828804em;font-weight:700}.st7{fill:#0071c5;stroke:none;stroke-linecap:round;stroke-linejoin:round;stroke-width:.75}.st8{fill:none;fill-rule:evenodd;font-size:12px;overflow:visible;stroke-linecap:square;stroke-miterlimit:3}</style><g><title>Page-2</title><g id="shape4-1" transform="translate(206.306,-19.0195)"><title>Sheet.4</title><path d="M0 38.04 L0 150.08 L133.5 150.08 L133.5 38.04 L0 38.04 L0 38.04 Z" class="st1"/></g><g id="shape5-3" transform="translate(206.306,-19.0195)"><title>Sheet.5</title><path d="M0 38.04 L133.5 38.04 L133.5 150.08 L0 150.08 L0 38.04" class="st2"/></g><g id="shape6-6" transform="translate(215.55,-70.7853)"><title>Sheet.6</title><path d="M0 121.92 C0 118.82 2.54 116.29 5.64 116.29 L110.69 116.29 C113.81 116.29 116.33 118.82 116.33 121.92 L116.33 144.45 C116.33 147.56 113.81 150.08 110.69 150.08 L5.64 150.08 C2.54 150.08 0 147.56 0 144.45 L0 121.92 Z" class="st1"/></g><g id="shape7-8" transform="translate(215.55,-70.7853)"><title>Sheet.7</title><path d="M0 121.92 C0 118.82 2.54 116.29 5.64 116.29 L110.69 116.29 C113.81 116.29 116.33 118.82 116.33 121.92 L116.33 144.45 C116.33 147.56 113.81 150.08 110.69 150.08 L5.64 150.08 C2.54 150.08 0 147.56 0 144.45 L0 121.92 Z" class="st3"/></g><g id="shape8-10" transform="translate(242.756,-86.1914)"><title>Sheet.8</title><desc>hash_index</desc><path d="M73.99 135.7 L0 135.7 L0 150.08 L73.99 150.08 L73.99 135.7" class="st4"/><text x="6.29" y="146.48" class="st5">hash_index</text></g><g id="shape9-14" transform="translate(229.67,-71.812)"><title>Sheet.9</title><desc>(integer, 16 bits)</desc><path d="M104.13 135.7 L0 135.7 L0 150.08 L104.13 150.08 L104.13 135.7" class="st4"/><text x="8.25" y="146.48" class="st5">(integer, 16 bits)</text></g><g id="shape10-18" transform="translate(215.55,-27.1678)"><title>Sheet.10</title><path d="M0 121.92 C0 118.82 2.54 116.29 5.64 116.29 L110.69 116.29 C113.81 116.29 116.33 118.82 116.33 121.92 L116.33 144.45 C116.33 147.56 113.81 150.08 110.69 150.08 L5.64 150.08 C2.54 150.08 0 147.56 0 144.45 L0 121.92 Z" class="st1"/></g><g id="shape11-20" transform="translate(215.55,-27.1678)"><title>Sheet.11</title><path d="M0 121.92 C0 118.82 2.54 116.29 5.64 116.29 L110.69 116.29 C113.81 116.29 116.33 118.82 116.33 121.92 L116.33 144.45 C116.33 147.56 113.81 150.08 110.69 150.08 L5.64 150.08 C2.54 150.08 0 147.56 0 144.45 L0 121.92 Z" class="st3"/></g><g id="shape12-22" transform="translate(237.836,-42.6033)"><title>Sheet.12</title><desc>lookup_table</desc><path d="M85.39 135.7 L0 135.7 L0 150.08 L85.39 150.08 L85.39 135.7" class="st4"/><text x="7.03" y="146.48" class="st5">lookup_table</text></g><g id="shape13-26" transform="translate(251.643,-28.2239)"><title>Sheet.13</title><desc>(16 bits)</desc><path d="M53.91 135.7 L0 135.7 L0 150.08 L53.91 150.08 L53.91 135.7" class="st4"/><text x="4.98" y="146.48" class="st5">(16 bits)</text></g><g id="shape14-30" transform="translate(213.473,-114.303)"><title>Sheet.14</title><desc>Group ID: 0x0102</desc><path d="M95.95 138.14 L0 138.14 L0 150.08 L95.95 150.08 L95.95 138.14" class="st4"/><text x="7.47" y="147.09" class="st6">Group ID: 0x0102</text></g><g id="shape15-34" transform="translate(19.0195,-99.4242)"><title>Sheet.15</title><path d="M0 129.31 C0 127.02 1.87 125.15 4.16 125.15 L109.18 125.15 C111.47 125.15 113.33 127.02 113.33 129.31 L113.33 145.93 C113.33 148.22 111.47 150.08 109.18 150.08 L4.16 150.08 C1.87 150.08 0 148.22 0 145.93 L0 129.31 Z" class="st1"/></g><g id="shape16-36" transform="translate(19.0195,-99.4242)"><title>Sheet.16</title><path d="M0 129.31 C0 127.02 1.87 125.15 4.16 125.15 L109.18 125.15 C111.47 125.15 113.33 127.02 113.33 129.31 L113.33 145.93 C113.33 148.22 111.47 150.08 109.18 150.08 L4.16 150.08 C1.87 150.08 0 148.22 0 145.93 L0 129.31 Z" class="st3"/></g><g id="shape17-38" transform="translate(33.9485,-103.285)"><title>Sheet.17</title><desc>Key1: Value = 0</desc><path d="M99.37 135.7 L0 135.7 L0 150.08 L99.37 150.08 L99.37 135.7" class="st4"/><text x="7.94" y="146.48" class="st5">Key1: Value = 0</text></g><g id="shape18-42" transform="translate(19.0195,-74.6198)"><title>Sheet.18</title><path d="M0 129.31 C0 127.02 1.87 125.15 4.16 125.15 L109.18 125.15 C111.47 125.15 113.33 127.02 113.33 129.31 L113.33 145.93 C113.33 148.22 111.47 150.08 109.18 150.08 L4.16 150.08 C1.87 150.08 0 148.22 0 145.93 L0 129.31 Z" class="st1"/></g><g id="shape19-44" transform="translate(19.0195,-74.6198)"><title>Sheet.19</title><path d="M0 129.31 C0 127.02 1.87 125.15 4.16 125.15 L109.18 125.15 C111.47 125.15 113.33 127.02 113.33 129.31 L113.33 145.93 C113.33 148.22 111.47 150.08 109.18 150.08 L4.16 150.08 C1.87 150.08 0 148.22 0 145.93 L0 129.31 Z" class="st3"/></g><g id="shape20-46" transform="translate(33.9485,-78.4626)"><title>Sheet.20</title><desc>Key3: Value = 1</desc><path d="M99.37 135.7 L0 135.7 L0 150.08 L99.37 150.08 L99.37 135.7" class="st4"/><text x="7.94" y="146.48" class="st5">Key3: Value = 1</text></g><g id="shape21-50" transform="translate(19.0195,-49.5757)"><title>Sheet.21</title><path d="M0 129.21 C0 126.91 1.88 125.03 4.19 125.03 L109.15 125.03 C111.46 125.03 113.33 126.91 113.33 129.21 L113.33 145.91 C113.33 148.21 111.46 150.08 109.15 150.08 L4.19 150.08 C1.88 150.08 0 148.21 0 145.91 L0 129.21 Z" class="st1"/></g><g id="shape22-52" transform="translate(19.0195,-49.5757)"><title>Sheet.22</title><path d="M0 129.21 C0 126.91 1.88 125.03 4.19 125.03 L109.15 125.03 C111.46 125.03 113.33 126.91 113.33 129.21 L113.33 145.91 C113.33 148.21 111.46 150.08 109.15 150.08 L4.19 150.08 C1.88 150.08 0 148.21 0 145.91 L0 129.21 Z" class="st3"/></g><g id="shape23-54" transform="translate(33.9485,-53.4903)"><title>Sheet.23</title><desc>Key4: Value = 0</desc><path d="M99.37 135.7 L0 135.7 L0 150.08 L99.37 150.08 L99.37 135.7" class="st4"/><text x="7.94" y="146.48" class="st5">Key4: Value = 0</text></g><g id="shape24-58" transform="translate(19.0195,-25.0109)"><title>Sheet.24</title><path d="M0 129.21 C0 126.91 1.88 125.03 4.19 125.03 L109.15 125.03 C111.46 125.03 113.33 126.91 113.33 129.21 L113.33 145.91 C113.33 148.21 111.46 150.08 109.15 150.08 L4.19 150.08 C1.88 150.08 0 148.21 0 145.91 L0 129.21 Z" class="st1"/></g><g id="shape25-60" transform="translate(19.0195,-25.0109)"><title>Sheet.25</title><path d="M0 129.21 C0 126.91 1.88 125.03 4.19 125.03 L109.15 125.03 C111.46 125.03 113.33 126.91 113.33 129.21 L113.33 145.91 C113.33 148.21 111.46 150.08 109.15 150.08 L4.19 150.08 C1.88 150.08 0 148.21 0 145.91 L0 129.21 Z" class="st3"/></g><g id="shape26-62" transform="translate(33.9485,-28.927)"><title>Sheet.26</title><desc>Key7: Value = 1</desc><path d="M99.37 135.7 L0 135.7 L0 150.08 L99.37 150.08 L99.37 135.7" class="st4"/><text x="7.94" y="146.48" class="st5">Key7: Value = 1</text></g><g id="shape27-66" transform="translate(141.536,-51.5529)"><title>Sheet.27</title><path d="M0 115.39 L22.75 115.39 L22.75 103.82 L45.5 126.95 L22.75 150.08 L22.75 138.51 L0 138.51 L0 115.39 Z" class="st7"/></g></g></svg>