<svg xmlns="http://www.w3.org/2000/svg" xmlns:ev="http://www.w3.org/2001/xml-events" xmlns:xlink="http://www.w3.org/1999/xlink" width="273.75" height="286.826" class="st18" color-interpolation-filters="sRGB" viewBox="0 0 205.313 215.12" xml:space="preserve"><style type="text/css">.st1{visibility:visible}.st2{fill:#5b9bd5;fill-opacity:.22;filter:url(#filter_2);stroke:#5b9bd5;stroke-opacity:.22}.st3{fill:#deebf6}.st3,.st4,.st5{stroke:#c7c8c8;stroke-width:.25}.st4{fill:#5b9bd5}.st5{fill:red}.st6{fill:none;filter:url(#filter_2);stroke:#5b9bd5;stroke-opacity:.22}.st7{fill:none;stroke-width:1.5}.st7,.st8,.st9{stroke:#0070c0}.st8{marker-end:url(#mrkr5-91);stroke-linecap:round;stroke-linejoin:round;stroke-width:1.5}.st9{fill:#0070c0;fill-opacity:1;stroke-opacity:1;stroke-width:.37313432835821}.st10{fill:none;stroke:none;stroke-width:.25}.st11{fill:red;font-family:Calibri;font-size:1.00001em;font-weight:700}.st12{font-size:1em}.st13{marker-end:url(#mrkr5-101);stroke:red;stroke-linecap:round;stroke-linejoin:round;stroke-width:1}.st14{fill:red;fill-opacity:1;stroke:red;stroke-opacity:1;stroke-width:.28409090909091}.st15{fill:#5b9bd5;font-family:Calibri;font-size:1.00001em;font-weight:700}.st16,.st17{stroke:#41719c}.st16{marker-end:url(#mrkr5-110);stroke-linecap:round;stroke-linejoin:round;stroke-width:1}.st17{fill:#41719c;fill-opacity:1;stroke-opacity:1;stroke-width:.28409090909091}.st18{fill:none;fill-rule:evenodd;font-size:12px;overflow:visible;stroke-linecap:square;stroke-miterlimit:3}</style><defs id="Markers"><g id="lend5"><path d="M 2 1 L 0 0 L 1.98117 -0.993387 C 1.67173 -0.364515 1.67301 0.372641 1.98465 1.00043" style="stroke:none"/></g><marker id="mrkr5-91" class="st9" markerUnits="strokeWidth" orient="auto" overflow="visible" refX="-4.45"><use transform="scale(-2.68,-2.68)" xlink:href="#lend5"/></marker><marker id="mrkr5-101" class="st14" markerUnits="strokeWidth" orient="auto" overflow="visible" refX="-6.16"><use transform="scale(-3.52,-3.52)" xlink:href="#lend5"/></marker><marker id="mrkr5-110" class="st17" markerUnits="strokeWidth" orient="auto" overflow="visible" refX="-6.16"><use transform="scale(-3.52,-3.52)" xlink:href="#lend5"/></marker></defs><defs id="Filters"><filter id="filter_2"><feGaussianBlur stdDeviation="2"/></filter></defs><g><title>Page-1</title><g id="shape2-1" transform="translate(24.4044,-42.7174)"><title>Circle</title><g id="shadow2-2" class="st1"><path d="M0 138.62 A76.5 76.5 0 0 1 153 138.62 A76.5 76.5 0 1 1 0 138.62 Z" class="st2" transform="matrix(1,0,0,1,0.345598,1.97279)"/></g><path d="M0 138.62 A76.5 76.5 0 0 1 153 138.62 A76.5 76.5 0 1 1 0 138.62 Z" class="st3"/></g><g id="shape3-6" transform="translate(24.4044,-144.53)"><title>Circle.3</title><g id="shadow3-7" class="st1"><path d="M0 208.93 A6.1875 6.1875 0 1 1 12.37 208.93 A6.1875 6.1875 0 0 1 0 208.93 Z" class="st2" transform="matrix(1,0,0,1,0.345598,1.97279)"/></g><path d="M0 208.93 A6.1875 6.1875 0 1 1 12.37 208.93 A6.1875 6.1875 0 0 1 0 208.93 Z" class="st4"/></g><g id="shape4-11" transform="translate(21.0294,-102.342)"><title>Circle.4</title><g id="shadow4-12" class="st1"><path d="M0 208.93 A6.1875 6.1875 0 1 1 12.37 208.93 A6.1875 6.1875 0 0 1 0 208.93 Z" class="st2" transform="matrix(1,0,0,1,0.345598,1.97279)"/></g><path d="M0 208.93 A6.1875 6.1875 0 1 1 12.37 208.93 A6.1875 6.1875 0 0 1 0 208.93 Z" class="st4"/></g><g id="shape5-16" transform="translate(69.4044,-183.342)"><title>Circle.5</title><g id="shadow5-17" class="st1"><path d="M0 208.93 A6.1875 6.1875 0 1 1 12.37 208.93 A6.1875 6.1875 0 0 1 0 208.93 Z" class="st2" transform="matrix(1,0,0,1,0.345598,1.97279)"/></g><path d="M0 208.93 A6.1875 6.1875 0 1 1 12.37 208.93 A6.1875 6.1875 0 0 1 0 208.93 Z" class="st4"/></g><g id="shape6-21" transform="translate(117.217,-183.342)"><title>Circle.6</title><g id="shadow6-22" class="st1"><path d="M0 208.93 A6.1875 6.1875 0 1 1 12.37 208.93 A6.1875 6.1875 0 0 1 0 208.93 Z" class="st2" transform="matrix(1,0,0,1,0.345598,1.97279)"/></g><path d="M0 208.93 A6.1875 6.1875 0 1 1 12.37 208.93 A6.1875 6.1875 0 0 1 0 208.93 Z" class="st5"/></g><g id="shape7-26" transform="translate(171.217,-104.03)"><title>Circle.7</title><g id="shadow7-27" class="st1"><path d="M0 208.93 A6.1875 6.1875 0 1 1 12.37 208.93 A6.1875 6.1875 0 0 1 0 208.93 Z" class="st2" transform="matrix(1,0,0,1,0.345598,1.97279)"/></g><path d="M0 208.93 A6.1875 6.1875 0 1 1 12.37 208.93 A6.1875 6.1875 0 0 1 0 208.93 Z" class="st5"/></g><g id="shape8-31" transform="translate(109.904,-38.2174)"><title>Circle.8</title><g id="shadow8-32" class="st1"><path d="M0 208.93 A6.1875 6.1875 0 1 1 12.37 208.93 A6.1875 6.1875 0 0 1 0 208.93 Z" class="st2" transform="matrix(1,0,0,1,0.345598,1.97279)"/></g><path d="M0 208.93 A6.1875 6.1875 0 1 1 12.37 208.93 A6.1875 6.1875 0 0 1 0 208.93 Z" class="st5"/></g><g id="shape9-36" transform="translate(21.0294,-124.842)"><title>Circle.9</title><g id="shadow9-37" class="st1"><path d="M0 208.93 A6.1875 6.1875 0 1 1 12.37 208.93 A6.1875 6.1875 0 0 1 0 208.93 Z" class="st2" transform="matrix(1,0,0,1,0.345598,1.97279)"/></g><path d="M0 208.93 A6.1875 6.1875 0 1 1 12.37 208.93 A6.1875 6.1875 0 0 1 0 208.93 Z" class="st5"/></g><g id="shape10-41" transform="translate(147.029,-168.717)"><title>Circle.10</title><g id="shadow10-42" class="st1"><path d="M0 208.93 A6.1875 6.1875 0 1 1 12.37 208.93 A6.1875 6.1875 0 0 1 0 208.93 Z" class="st2" transform="matrix(1,0,0,1,0.345598,1.97279)"/></g><path d="M0 208.93 A6.1875 6.1875 0 1 1 12.37 208.93 A6.1875 6.1875 0 0 1 0 208.93 Z" class="st4"/></g><g id="shape11-46" transform="translate(138.029,-48.3424)"><title>Circle.11</title><g id="shadow11-47" class="st1"><path d="M0 208.93 A6.1875 6.1875 0 1 1 12.37 208.93 A6.1875 6.1875 0 0 1 0 208.93 Z" class="st2" transform="matrix(1,0,0,1,0.345598,1.97279)"/></g><path d="M0 208.93 A6.1875 6.1875 0 1 1 12.37 208.93 A6.1875 6.1875 0 0 1 0 208.93 Z" class="st4"/></g><g id="shape12-51" transform="translate(160.529,-74.2174)"><title>Circle.12</title><g id="shadow12-52" class="st1"><path d="M0 208.93 A6.1875 6.1875 0 1 1 12.37 208.93 A6.1875 6.1875 0 0 1 0 208.93 Z" class="st2" transform="matrix(1,0,0,1,0.345598,1.97279)"/></g><path d="M0 208.93 A6.1875 6.1875 0 1 1 12.37 208.93 A6.1875 6.1875 0 0 1 0 208.93 Z" class="st4"/></g><g id="shape13-56" transform="translate(40.7169,-57.3424)"><title>Circle.13</title><g id="shadow13-57" class="st1"><path d="M0 208.93 A6.1875 6.1875 0 1 1 12.37 208.93 A6.1875 6.1875 0 0 1 0 208.93 Z" class="st2" transform="matrix(1,0,0,1,0.345598,1.97279)"/></g><path d="M0 208.93 A6.1875 6.1875 0 1 1 12.37 208.93 A6.1875 6.1875 0 0 1 0 208.93 Z" class="st4"/></g><g id="shape14-61" transform="translate(42.4044,-168.717)"><title>Circle.14</title><g id="shadow14-62" class="st1"><path d="M0 208.93 A6.1875 6.1875 0 1 1 12.37 208.93 A6.1875 6.1875 0 0 1 0 208.93 Z" class="st2" transform="matrix(1,0,0,1,0.345598,1.97279)"/></g><path d="M0 208.93 A6.1875 6.1875 0 1 1 12.37 208.93 A6.1875 6.1875 0 0 1 0 208.93 Z" class="st4"/></g><g id="shape15-66" transform="translate(66.0294,-42.7174)"><title>Circle.15</title><g id="shadow15-67" class="st1"><path d="M0 208.93 A6.1875 6.1875 0 1 1 12.37 208.93 A6.1875 6.1875 0 0 1 0 208.93 Z" class="st2" transform="matrix(1,0,0,1,0.345598,1.97279)"/></g><path d="M0 208.93 A6.1875 6.1875 0 1 1 12.37 208.93 A6.1875 6.1875 0 0 1 0 208.93 Z" class="st4"/></g><g id="shape16-71" transform="translate(25.5294,-79.8424)"><title>Circle.16</title><g id="shadow16-72" class="st1"><path d="M0 208.93 A6.1875 6.1875 0 1 1 12.37 208.93 A6.1875 6.1875 0 0 1 0 208.93 Z" class="st2" transform="matrix(1,0,0,1,0.345598,1.97279)"/></g><path d="M0 208.93 A6.1875 6.1875 0 1 1 12.37 208.93 A6.1875 6.1875 0 0 1 0 208.93 Z" class="st4"/></g><g id="shape17-76" transform="translate(165.029,-143.405)"><title>Circle.17</title><g id="shadow17-77" class="st1"><path d="M0 208.93 A6.1875 6.1875 0 1 1 12.37 208.93 A6.1875 6.1875 0 0 1 0 208.93 Z" class="st2" transform="matrix(1,0,0,1,0.345598,1.97279)"/></g><path d="M0 208.93 A6.1875 6.1875 0 1 1 12.37 208.93 A6.1875 6.1875 0 0 1 0 208.93 Z" class="st4"/></g><g id="shape18-81" transform="translate(276.618,4.50201) rotate(45)"><title>Ellipse</title><g id="shadow18-82" class="st1"><path d="M0 187.01 A14.7383 28.1086 0 1 1 29.48 187.01 A14.7383 28.1086 0 1 1 0 187.01 Z" class="st6" transform="matrix(1,0,0,1,1.63935,1.1506)"/></g><path d="M0 187.01 A14.7383 28.1086 0 1 1 29.48 187.01 A14.7383 28.1086 0 1 1 0 187.01 Z" class="st7"/></g><g id="shape19-86" transform="translate(251.273,355.436) rotate(156.038)"><title>Sheet.19</title><path d="M-0 215.12 A73.4538 31.2572 85.43 0 1 40.92 208.96 L41.1 209.27" class="st8"/></g><g id="shape20-92" transform="translate(62.705,-78.7174)"><title>Sheet.20</title><desc>Target Hashed Value</desc><rect width="85.399" height="22.5" x="0" y="192.62" class="st10"/><text x="6.73" y="200.27" class="st11">Target Hashed <tspan x="28.48" class="st12" dy="1.2em">Value</tspan></text></g><g id="shape21-96" transform="translate(314.101,88.728) rotate(75.9638)"><title>Sheet.21</title><path d="M0 215.12 L16.92 215.12" class="st13"/></g><g id="shape23-102" transform="translate(60.4044,-138.342)"><title>Sheet.23</title><desc>Keys</desc><rect width="49.5" height="22.5" x="0" y="192.62" class="st10"/><text x="13.21" y="207.47" class="st15">Keys</text></g><g id="shape24-105" transform="translate(-125.293,114.034) rotate(-104.574)"><title>Sheet.24</title><path d="M0 215.12 L22.9 215.12" class="st16"/></g></g></svg>