<svg xmlns="http://www.w3.org/2000/svg" xmlns:ev="http://www.w3.org/2001/xml-events" xmlns:xlink="http://www.w3.org/1999/xlink" width="312.585" height="324" class="st10" color-interpolation-filters="sRGB" viewBox="0 0 234.439 243" xml:space="preserve"><style type="text/css">.st1{visibility:visible}.st2,.st3{fill:#5b9bd5}.st2{fill-opacity:.22;filter:url(#filter_2);stroke:#5b9bd5;stroke-opacity:.22}.st3{stroke:#c7c8c8;stroke-width:.25}.st4{fill:#feffff;font-family:Calibri;font-size:.833336em}.st5,.st6{stroke:#5b9bd5}.st5{marker-end:url(#mrkr5-12);stroke-linecap:round;stroke-linejoin:round;stroke-width:6}.st6{fill:#5b9bd5;fill-opacity:1;stroke-opacity:1;stroke-width:.70422535211268}.st7{stroke-dasharray:2.25,4.5;stroke-linecap:round;stroke-linejoin:round;stroke-width:2.25}.st7,.st8,.st9{stroke:#5b9bd5}.st8{marker-end:url(#mrkr5-39);stroke-linecap:round;stroke-linejoin:round;stroke-width:1.5}.st9{fill:#5b9bd5;fill-opacity:1;stroke-opacity:1;stroke-width:.37313432835821}.st10{fill:none;fill-rule:evenodd;font-size:12px;overflow:visible;stroke-linecap:square;stroke-miterlimit:3}</style><defs id="Markers"><g id="lend5"><path d="M 2 1 L 0 0 L 1.98117 -0.993387 C 1.67173 -0.364515 1.67301 0.372641 1.98465 1.00043" style="stroke:none"/></g><marker id="mrkr5-12" class="st6" markerUnits="strokeWidth" orient="auto" overflow="visible" refX="-2.485"><use transform="scale(-1.42,-1.42)" xlink:href="#lend5"/></marker><marker id="mrkr5-39" class="st9" markerUnits="strokeWidth" orient="auto" overflow="visible" refX="-4.69"><use transform="scale(-2.68,-2.68)" xlink:href="#lend5"/></marker></defs><defs id="Filters"><filter id="filter_2"><feGaussianBlur stdDeviation="2"/></filter></defs><g><title>Page-1</title><g id="shape2-1" transform="translate(77.718,-113.348)"><title>Square</title><desc>LB</desc><g id="shadow2-2" class="st1" transform="matrix(1,0,0,1,0.345598,1.97279)"><rect width="36" height="36" x="0" y="207" class="st2"/></g><rect width="36" height="36" x="0" y="207" class="st3"/><text x="13.18" y="228" class="st4">LB</text></g><g id="shape3-7" transform="translate(37.0513,-131.348)"><title>Sheet.3</title><path d="M0 243 L25.76 243" class="st5"/></g><g id="shape4-13" transform="translate(167.718,-178.598)"><title>Square.4</title><desc>Target 1</desc><g id="shadow4-14" class="st1" transform="matrix(1,0,0,1,0.345598,1.97279)"><rect width="45" height="45" x="0" y="198" class="st2"/></g><rect width="45" height="45" x="0" y="198" class="st3"/><text x="5.74" y="223.5" class="st4">Target 1</text></g><g id="shape5-19" transform="translate(167.718,-121.005)"><title>Square.5</title><desc>Target 2</desc><g id="shadow5-20" class="st1" transform="matrix(1,0,0,1,0.345598,1.97279)"><rect width="45" height="45" x="0" y="198" class="st2"/></g><rect width="45" height="45" x="0" y="198" class="st3"/><text x="5.74" y="223.5" class="st4">Target 2</text></g><g id="shape7-25" transform="translate(167.718,-23.3478)"><title>Square.7</title><desc>Target N</desc><g id="shadow7-26" class="st1" transform="matrix(1,0,0,1,0.345598,1.97279)"><rect width="45" height="45" x="0" y="198" class="st2"/></g><rect width="45" height="45" x="0" y="198" class="st3"/><text x="5.05" y="223.5" class="st4">Target N</text></g><g id="shape8-31" transform="translate(433.218,132.402) rotate(90)"><title>Sheet.8</title><path d="M0 243 L34.59 243" class="st7"/></g><g id="shape9-34" transform="translate(-78.4279,-37.1059) rotate(-52.2532)"><title>Sheet.9</title><path d="M0 243 L81.18 243" class="st8"/></g><g id="shape11-40" transform="translate(60.3469,-125.414) rotate(-12.6875)"><title>Sheet.11</title><path d="M0 243 L48.32 243" class="st8"/></g><g id="shape12-45" transform="translate(319.172,-18.1081) rotate(57.7244)"><title>Sheet.12</title><path d="M0 243 L94.09 243" class="st8"/></g></g></svg>