<svg xmlns="http://www.w3.org/2000/svg" xmlns:ev="http://www.w3.org/2001/xml-events" xmlns:xlink="http://www.w3.org/1999/xlink" width="868" height="177.218" class="st12" color-interpolation-filters="sRGB" viewBox="0 0 651 132.913" xml:space="preserve"><style type="text/css">.st1{fill:#3c63ac;stroke:#30518f;stroke-width:.75}.st2{fill:#feffff;font-family:Calibri;font-size:.833336em}.st3{fill:none;stroke-width:.25}.st3,.st4,.st5{stroke:#203864}.st4{stroke-linecap:round;stroke-linejoin:round;stroke-width:1}.st5{fill:#ffd965;stroke-width:.25}.st6{fill:#000;font-family:Calibri;font-size:1.16666em}.st7{font-size:1em}.st8{fill:none;stroke:none;stroke-width:.25}.st10,.st9{fill:#000;font-family:Calibri}.st9{font-size:.833336em}.st10{font-size:1.00001em}.st11{font-size:1.16665em}.st12{fill:none;fill-rule:evenodd;font-size:12px;overflow:visible;stroke-linecap:square;stroke-miterlimit:3}</style><g><title>Page-1</title><g id="group1068-1" transform="translate(0.75,-0.25)"><title>Sheet.1068</title><g id="shape3-2" transform="translate(63,184.827) rotate(180)"><title>Simple Arrow</title><desc>In Intf</desc><path d="M0 132.91 L12 120.92 L12 126.92 L63 126.92 L63 132.91 L63 138.91 L12 138.91 L12 144.91 L0 132.91 Z" class="st1"/><text x="-43.6" y="-129.91" class="st2" transform="rotate(180)">In Intf</text></g><g id="group1010-5" transform="translate(130.5,-73.3167)"><title>Sheet.1010</title><g id="group1000-6" transform="translate(-2.19824E-14,-0.0534178)"><title>Sheet.1000</title><g id="shape1001-7" transform="translate(0,-4.86)"><title>Rectangle.38</title><rect width="22.397" height="9" x="0" y="123.913" class="st3"/></g><g id="shape1002-9" transform="translate(2.19832,-18.18)"><title>Dynamic connector.162</title><path d="M9 137.41 L9 146.41" class="st4"/></g><g id="shape1003-12" transform="translate(7.79747,-18.18)"><title>Dynamic connector.163</title><path d="M9 137.41 L9 146.41" class="st4"/></g><g id="shape1004-15" transform="translate(-3.40084,-18)"><title>Dynamic connector.164</title><path d="M9 137.41 L9 146.41" class="st4"/></g></g><g id="group1005-18" transform="translate(22.6034,0)"><title>Sheet.1005</title><g id="shape1006-19" transform="translate(0,-4.86)"><title>Rectangle.38</title><rect width="22.397" height="9" x="0" y="123.913" class="st3"/></g><g id="shape1007-21" transform="translate(2.19832,-18.18)"><title>Dynamic connector.162</title><path d="M9 137.41 L9 146.41" class="st4"/></g><g id="shape1008-24" transform="translate(7.79747,-18.18)"><title>Dynamic connector.163</title><path d="M9 137.41 L9 146.41" class="st4"/></g><g id="shape1009-27" transform="translate(-3.40084,-18)"><title>Dynamic connector.164</title><path d="M9 137.41 L9 146.41" class="st4"/></g></g></g><g id="group1016-30" transform="translate(301.5,-73.3167)"><title>Sheet.1016</title><g id="group1017-31" transform="translate(-2.19824E-14,-0.0534178)"><title>Sheet.1017</title><g id="shape1018-32" transform="translate(0,-4.86)"><title>Rectangle.38</title><rect width="22.397" height="9" x="0" y="123.913" class="st3"/></g><g id="shape1019-34" transform="translate(2.19832,-18.18)"><title>Dynamic connector.162</title><path d="M9 137.41 L9 146.41" class="st4"/></g><g id="shape1020-37" transform="translate(7.79747,-18.18)"><title>Dynamic connector.163</title><path d="M9 137.41 L9 146.41" class="st4"/></g><g id="shape1021-40" transform="translate(-3.40084,-18)"><title>Dynamic connector.164</title><path d="M9 137.41 L9 146.41" class="st4"/></g></g><g id="group1022-43" transform="translate(22.6034,0)"><title>Sheet.1022</title><g id="shape1023-44" transform="translate(0,-4.86)"><title>Rectangle.38</title><rect width="22.397" height="9" x="0" y="123.913" class="st3"/></g><g id="shape1024-46" transform="translate(2.19832,-18.18)"><title>Dynamic connector.162</title><path d="M9 137.41 L9 146.41" class="st4"/></g><g id="shape1025-49" transform="translate(7.79747,-18.18)"><title>Dynamic connector.163</title><path d="M9 137.41 L9 146.41" class="st4"/></g><g id="shape1026-52" transform="translate(-3.40084,-18)"><title>Dynamic connector.164</title><path d="M9 137.41 L9 146.41" class="st4"/></g></g></g><g id="group1032-55" transform="translate(468,-73.2)"><title>Sheet.1032</title><g id="group1033-56" transform="translate(-2.19824E-14,-0.0534178)"><title>Sheet.1033</title><g id="shape1034-57" transform="translate(0,-4.86)"><title>Rectangle.38</title><rect width="22.397" height="9" x="0" y="123.913" class="st3"/></g><g id="shape1035-59" transform="translate(2.19832,-18.18)"><title>Dynamic connector.162</title><path d="M9 137.41 L9 146.41" class="st4"/></g><g id="shape1036-62" transform="translate(7.79747,-18.18)"><title>Dynamic connector.163</title><path d="M9 137.41 L9 146.41" class="st4"/></g><g id="shape1037-65" transform="translate(-3.40084,-18)"><title>Dynamic connector.164</title><path d="M9 137.41 L9 146.41" class="st4"/></g></g><g id="group1038-68" transform="translate(22.6034,0)"><title>Sheet.1038</title><g id="shape1039-69" transform="translate(0,-4.86)"><title>Rectangle.38</title><rect width="22.397" height="9" x="0" y="123.913" class="st3"/></g><g id="shape1040-71" transform="translate(2.19832,-18.18)"><title>Dynamic connector.162</title><path d="M9 137.41 L9 146.41" class="st4"/></g><g id="shape1041-74" transform="translate(7.79747,-18.18)"><title>Dynamic connector.163</title><path d="M9 137.41 L9 146.41" class="st4"/></g><g id="shape1042-77" transform="translate(-3.40084,-18)"><title>Dynamic connector.164</title><path d="M9 137.41 L9 146.41" class="st4"/></g></g></g><g id="shape1044-80" transform="translate(651.291,179.381) rotate(179.228)"><title>Simple Arrow.1044</title><desc>Out Intf</desc><path d="M0 132.91 L12 120.92 L12 126.92 L60.61 126.92 L60.61 132.91 L60.61 138.91 L12 138.91 L12 144.91 L0 132.91 Z" class="st1"/><text x="-46.13" y="-129.91" class="st2" transform="rotate(180)">Out Intf</text></g><g id="shape1045-83" transform="translate(67.8,-50.9334)"><title>Rounded Rectangle.1045</title><desc>RX Core</desc><path d="M5.06 132.91 L45.56 132.91 A5.06242 5.06242 -180 0 0 50.62 127.85 L50.62 74.98 A5.06242 5.06242 -180 0 0 45.56 69.91 L5.06 69.91 A5.06242 5.06242 -180 0 0 0 74.98 L0 127.85 A5.06242 5.06242 -180 0 0 5.06 132.91 Z" class="st5"/><text x="17.88" y="88.81" class="st6">RX<tspan x="11.97" class="st7" dy="2.4em">Core</tspan></text></g><g id="shape1056-87" transform="translate(532.5,-54)"><title>Rounded Rectangle.1056</title><desc>TX Core</desc><path d="M5.06 132.91 L45.56 132.91 A5.06242 5.06242 -180 0 0 50.62 127.85 L50.62 74.98 A5.06242 5.06242 -180 0 0 45.56 69.91 L5.06 69.91 A5.06242 5.06242 -180 0 0 0 74.98 L0 127.85 A5.06242 5.06242 -180 0 0 5.06 132.91 Z" class="st5"/><text x="18.27" y="88.81" class="st6">TX<tspan x="11.97" class="st7" dy="2.4em">Core</tspan></text></g><g id="shape1057-91" transform="translate(123.188,-59.0334)"><title>Rectangle.1057</title><desc>Atomic Q 1</desc><rect width="59.625" height="18.233" x="0" y="114.68" class="st8"/><text x="7.19" y="126.8" class="st9">Atomic Q 1</text></g><g id="shape1058-94" transform="translate(295.5,-59.4)"><title>Rectangle.1058</title><desc>Atomic Q 2</desc><rect width="59.625" height="18.233" x="0" y="114.68" class="st8"/><text x="7.19" y="126.8" class="st9">Atomic Q 2</text></g><g id="shape1059-97" transform="translate(460.687,-58.3167)"><title>Rectangle.1059</title><desc>Single Link</desc><rect width="59.625" height="18.233" x="0" y="114.68" class="st8"/><text x="8.47" y="126.8" class="st9">Single Link</text></g><g id="shape1060-100" transform="translate(198,-1.2)"><title>Rectangle.1060</title><desc>Stage 1</desc><rect width="59.625" height="18.233" x="0" y="114.68" class="st8"/><text x="14.94" y="126.8" class="st9">Stage 1</text></g><g id="shape1061-103" transform="translate(366.188,0)"><title>Rectangle.1061</title><desc>Stage 2</desc><rect width="59.625" height="18.233" x="0" y="114.68" class="st8"/><text x="14.94" y="126.8" class="st9">Stage 2</text></g><g id="group1062-106" transform="translate(199.2,-18.7134)"><title>Sheet.1062</title><g id="shape1052-107" transform="translate(18.66,-50.7)"><title>Rounded Rectangle.1049</title><desc>Worker4 Core</desc><path d="M7.01 132.91 L63.13 132.91 A7.01389 7.01389 -180 0 0 70.14 125.9 L70.14 76.93 A7.01389 7.01389 -180 0 0 63.13 69.91 L7.01 69.91 A7.01389 7.01389 -180 0 0 0 76.93 L0 125.9 A7.01389 7.01389 -180 0 0 7.01 132.91 Z" class="st5"/><text x="13.63" y="84.71" class="st10">Worker4<tspan x="21.72" class="st11" dy="2.357em">Core</tspan></text></g><g id="shape1053-111" transform="translate(12.9,-33.6)"><title>Rounded Rectangle.1048</title><desc>Worker3 Core</desc><path d="M7.14 132.91 L64.26 132.91 A7.13988 7.13988 -180 0 0 71.4 125.77 L71.4 77.05 A7.13988 7.13988 -180 0 0 64.26 69.91 L7.14 69.91 A7.13988 7.13988 -180 0 0 0 77.05 L0 125.77 A7.13988 7.13988 -180 0 0 7.14 132.91 Z" class="st5"/><text x="14.26" y="84.71" class="st10">Worker3<tspan x="22.35" class="st11" dy="2.357em">Core</tspan></text></g><g id="shape1054-115" transform="translate(5.89875,-16.8)"><title>Rounded Rectangle.1047</title><desc>Worker2 Core</desc><path d="M7.05 132.91 L63.47 132.91 A7.05251 7.05251 -180 0 0 70.53 125.86 L70.53 76.97 A7.05251 7.05251 -180 0 0 63.47 69.91 L7.05 69.91 A7.05251 7.05251 -180 0 0 0 76.97 L0 125.86 A7.05251 7.05251 -180 0 0 7.05 132.91 Z" class="st5"/><text x="13.82" y="84.71" class="st10">Worker2<tspan x="21.92" class="st11" dy="2.357em">Core</tspan></text></g><g id="shape1055-119"><title>Rounded Rectangle.1046</title><desc>Worker1 Core</desc><path d="M7.08 132.91 L63.72 132.91 A7.07988 7.07988 -180 0 0 70.8 125.83 L70.8 76.99 A7.07988 7.07988 -180 0 0 63.72 69.91 L7.08 69.91 A7.07988 7.07988 -180 0 0 0 76.99 L0 125.83 A7.07988 7.07988 -180 0 0 7.08 132.91 Z" class="st5"/><text x="13.96" y="84.71" class="st10">Worker1<tspan x="22.05" class="st11" dy="2.357em">Core</tspan></text></g></g><g id="group1063-123" transform="translate(369.6,-18.6)"><title>Sheet.1063</title><g id="shape1064-124" transform="translate(18.66,-50.7)"><title>Rounded Rectangle.1049</title><desc>Worker4 Core</desc><path d="M7.01 132.91 L63.13 132.91 A7.01389 7.01389 -180 0 0 70.14 125.9 L70.14 76.93 A7.01389 7.01389 -180 0 0 63.13 69.91 L7.01 69.91 A7.01389 7.01389 -180 0 0 0 76.93 L0 125.9 A7.01389 7.01389 -180 0 0 7.01 132.91 Z" class="st5"/><text x="13.63" y="84.71" class="st10">Worker4<tspan x="21.72" class="st11" dy="2.357em">Core</tspan></text></g><g id="shape1065-128" transform="translate(12.9,-33.6)"><title>Rounded Rectangle.1048</title><desc>Worker3 Core</desc><path d="M7.14 132.91 L64.26 132.91 A7.13988 7.13988 -180 0 0 71.4 125.77 L71.4 77.05 A7.13988 7.13988 -180 0 0 64.26 69.91 L7.14 69.91 A7.13988 7.13988 -180 0 0 0 77.05 L0 125.77 A7.13988 7.13988 -180 0 0 7.14 132.91 Z" class="st5"/><text x="14.26" y="84.71" class="st10">Worker3<tspan x="22.35" class="st11" dy="2.357em">Core</tspan></text></g><g id="shape1066-132" transform="translate(5.89875,-16.8)"><title>Rounded Rectangle.1047</title><desc>Worker2 Core</desc><path d="M7.05 132.91 L63.47 132.91 A7.05251 7.05251 -180 0 0 70.53 125.86 L70.53 76.97 A7.05251 7.05251 -180 0 0 63.47 69.91 L7.05 69.91 A7.05251 7.05251 -180 0 0 0 76.97 L0 125.86 A7.05251 7.05251 -180 0 0 7.05 132.91 Z" class="st5"/><text x="13.82" y="84.71" class="st10">Worker2<tspan x="21.92" class="st11" dy="2.357em">Core</tspan></text></g><g id="shape1067-136"><title>Rounded Rectangle.1046</title><desc>Worker1 Core</desc><path d="M7.08 132.91 L63.72 132.91 A7.07988 7.07988 -180 0 0 70.8 125.83 L70.8 76.99 A7.07988 7.07988 -180 0 0 63.72 69.91 L7.08 69.91 A7.07988 7.07988 -180 0 0 0 76.99 L0 125.83 A7.07988 7.07988 -180 0 0 7.08 132.91 Z" class="st5"/><text x="13.96" y="84.71" class="st10">Worker1<tspan x="22.05" class="st11" dy="2.357em">Core</tspan></text></g></g></g></g></svg>