<svg xmlns="http://www.w3.org/2000/svg" xmlns:ev="http://www.w3.org/2001/xml-events" xmlns:xlink="http://www.w3.org/1999/xlink" width="581.916" height="255.666" class="st10" color-interpolation-filters="sRGB" viewBox="0 0 436.438 191.75" xml:space="preserve"><style type="text/css">.st1{fill:url(#grad30-4);stroke:#404040;stroke-linecap:round;stroke-linejoin:round;stroke-width:.25}.st2{fill:#000;font-family:Calibri;font-size:1.00001em}.st3,.st4{font-size:1em;font-weight:700}.st4{fill:#000;font-family:Calibri;font-size:1.00001em}.st5{font-size:1em;font-weight:400}.st6,.st7{stroke:#404040}.st6{marker-end:url(#mrkr5-38);stroke-linecap:round;stroke-linejoin:round;stroke-width:1}.st7{fill:#404040;fill-opacity:1;stroke-opacity:1;stroke-width:.28409090909091}.st8{fill:none;stroke:none;stroke-linecap:round;stroke-linejoin:round;stroke-width:.25}.st9{fill:#000;font-family:Calibri;font-size:.833336em}.st10{fill:none;fill-rule:evenodd;font-size:12px;overflow:visible;stroke-linecap:square;stroke-miterlimit:3}</style><defs id="Patterns_And_Gradients"><linearGradient id="grad30-4" x1="0" x2="0" y1="1" y2="0"><stop offset="0" style="stop-color:#c6d09f;stop-opacity:1"/><stop offset="1" style="stop-color:#d1dab4;stop-opacity:1"/></linearGradient><linearGradient id="grad30-35" x1="0" x2="0" y1="1" y2="0"><stop offset="0" style="stop-color:#f0f0f0;stop-opacity:1"/><stop offset="1" style="stop-color:#fff;stop-opacity:1"/></linearGradient></defs><defs id="Markers"><g id="lend5"><path d="M 2 1 L 0 0 L 1.98117 -0.993387 C 1.67173 -0.364515 1.67301 0.372641 1.98465 1.00043" style="stroke:none"/></g><marker id="mrkr5-38" class="st7" markerUnits="strokeWidth" orient="auto" overflow="visible" refX="-6.16"><use transform="scale(-3.52,-3.52)" xlink:href="#lend5"/></marker></defs><g><title>Page-1</title><g id="shape1-1" transform="translate(0.25,-117.25)"><title>Rounded rectangle</title><desc>Categorize into an existed “flow”</desc><path d="M171 191.75 A9.00007 9.00007 -180 0 0 180 182.75 L180 164.75 A9.00007 9.00007 -180 0 0 171 155.75 L9 155.75 A9.00007 9.00007 -180 0 0 -0 164.75 L0 182.75 A9.00007 9.00007 -180 0 0 9 191.75 L171 191.75 Z" class="st1"/><text x="8.91" y="177.35" class="st2">Categorize into an <tspan class="st3">existed</tspan><tspan class="st3"> </tspan>“<tspan class="st3">flow</tspan>”</text></g><g id="shape2-9" transform="translate(0.25,-58.75)"><title>Rounded rectangle.2</title><desc>Search for a “neighbor”</desc><path d="M171 191.75 A9.00007 9.00007 -180 0 0 180 182.75 L180 164.75 A9.00007 9.00007 -180 0 0 171 155.75 L9 155.75 A9.00007 9.00007 -180 0 0 -0 164.75 L0 182.75 A9.00007 9.00007 -180 0 0 9 191.75 L171 191.75 Z" class="st1"/><text x="32.19" y="177.35" class="st2">Search for a “<tspan class="st3">neighbor</tspan>”</text></g><g id="shape3-14" transform="translate(225.813,-117.25)"><title>Rounded rectangle.3</title><desc>Insert a new “flow” and store the packet</desc><path d="M201.37 191.75 A9.00007 9.00007 -180 0 0 210.37 182.75 L210.37 164.75 A9.00007 9.00007 -180 0 0 201.37 155.75 L9 155.75 A9.00007 9.00007 -180 0 0 -0 164.75 L0 182.75 A9.00007 9.00007 -180 0 0 9 191.75 L201.37 191.75 Z" class="st1"/><text x="5.45" y="177.35" class="st2">Insert a <tspan class="st3">new </tspan>“<tspan class="st3">flow</tspan>” and <tspan class="st3">store </tspan>the packet</text></g><g id="shape4-21" transform="translate(225.25,-58.75)"><title>Rounded rectangle.4</title><desc>Store the packet</desc><path d="M157.5 191.75 A9.00007 9.00007 -180 0 0 166.5 182.75 L166.5 164.75 A9.00007 9.00007 -180 0 0 157.5 155.75 L9 155.75 A9.00007 9.00007 -180 0 0 -0 164.75 L0 182.75 A9.00007 9.00007 -180 0 0 9 191.75 L157.5 191.75 Z" class="st1"/><text x="42.81" y="177.35" class="st4">Store <tspan class="st5">the packet</tspan></text></g><g id="shape5-26" transform="translate(0.25,-0.25)"><title>Rounded rectangle.5</title><desc>Merge the packet</desc><path d="M171 191.75 A9.00007 9.00007 -180 0 0 180 182.75 L180 164.75 A9.00007 9.00007 -180 0 0 171 155.75 L9 155.75 A9.00007 9.00007 -180 0 0 -0 164.75 L0 182.75 A9.00007 9.00007 -180 0 0 9 191.75 L171 191.75 Z" class="st1"/><text x="46.59" y="177.35" class="st4">Merge <tspan class="st5">the packet</tspan></text></g><g id="shape6-31" transform="translate(81.25,-175.75)"><title>Dynamic connector</title><path d="M9 191.75 L9 208.09" class="st6"/></g><g id="shape7-39" transform="translate(81.25,-117.25)"><title>Dynamic connector.7</title><path d="M9 191.75 L9 208.09" class="st6"/></g><g id="shape8-45" transform="translate(81.25,-58.75)"><title>Dynamic connector.8</title><path d="M9 191.75 L9 208.09" class="st6"/></g><g id="shape9-51" transform="translate(180.25,-126.25)"><title>Dynamic connector.9</title><path d="M0 182.75 L39.4 182.75" class="st6"/></g><g id="shape10-57" transform="translate(180.25,-67.75)"><title>Dynamic connector.10</title><path d="M0 182.75 L38.84 182.75" class="st6"/></g><g id="shape11-63" transform="translate(65.5,-173.5)"><title>Sheet.11</title><desc>packet</desc><rect width="49.5" height="18" x="0" y="173.75" class="st8"/><text x="8.46" y="186.35" class="st2">packet</text></g><g id="shape14-66" transform="translate(98.125,-98.125)"><title>Sheet.14</title><desc>find a “flow”</desc><rect width="64.125" height="15.75" x="0" y="176" class="st8"/><text x="6.41" y="186.88" class="st9">find a “flow”</text></g><g id="shape15-69" transform="translate(99.25,-39.625)"><title>Sheet.15</title><desc>find a “neighbor”</desc><rect width="81" height="15.75" x="0" y="176" class="st8"/><text x="5.48" y="186.88" class="st9">find a “neighbor”</text></g><g id="shape13-72" transform="translate(181.375,-79)"><title>Sheet.13</title><desc>not find</desc><rect width="42.75" height="15.75" x="0" y="176" class="st8"/><text x="5.38" y="186.88" class="st9">not find</text></g><g id="shape12-75" transform="translate(181.375,-137.5)"><title>Sheet.12</title><desc>not find</desc><rect width="42.75" height="15.75" x="0" y="176" class="st8"/><text x="5.38" y="186.88" class="st9">not find</text></g></g></svg>