<svg xmlns="http://www.w3.org/2000/svg" xmlns:svg="http://www.w3.org/2000/svg" xmlns:xlink="http://www.w3.org/1999/xlink" id="svg3868" width="631.914" height="288.343" version="1.1"><defs id="defs3870"><marker id="Arrow1Lend" orient="auto" refX="0" refY="0" style="overflow:visible"><path id="path3211" d="M 0,0 5,-5 -12.5,0 5,5 0,0 z" transform="matrix(-0.8,0,0,-0.8,-10,0)" style="fill-rule:evenodd;stroke:#000;stroke-width:1pt;marker-start:none"/></marker><marker id="marker3892" orient="auto" refX="0" refY="0" style="overflow:visible"><path id="path3894" d="M 0,0 5,-5 -12.5,0 5,5 0,0 z" transform="matrix(-0.8,0,0,-0.8,-10,0)" style="fill-rule:evenodd;stroke:#000;stroke-width:1pt;marker-start:none"/></marker><marker id="marker3896" orient="auto" refX="0" refY="0" style="overflow:visible"><path id="path3898" d="M 0,0 5,-5 -12.5,0 5,5 0,0 z" transform="matrix(-0.8,0,0,-0.8,-10,0)" style="fill-rule:evenodd;stroke:#000;stroke-width:1pt;marker-start:none"/></marker><marker id="Arrow1Lstart" orient="auto" refX="0" refY="0" style="overflow:visible"><path id="path3208" d="M 0,0 5,-5 -12.5,0 5,5 0,0 z" transform="matrix(0.8,0,0,0.8,10,0)" style="fill-rule:evenodd;stroke:#000;stroke-width:1pt;marker-start:none"/></marker><marker id="marker3902" orient="auto" refX="0" refY="0" style="overflow:visible"><path id="path3904" d="M 0,0 5,-5 -12.5,0 5,5 0,0 z" transform="matrix(-0.8,0,0,-0.8,-10,0)" style="fill-rule:evenodd;stroke:#000;stroke-width:1pt;marker-start:none"/></marker><marker id="marker3906" orient="auto" refX="0" refY="0" style="overflow:visible"><path id="path3908" d="M 0,0 5,-5 -12.5,0 5,5 0,0 z" transform="matrix(0.8,0,0,0.8,10,0)" style="fill-rule:evenodd;stroke:#000;stroke-width:1pt;marker-start:none"/></marker><marker id="marker3910" orient="auto" refX="0" refY="0" style="overflow:visible"><path id="path3912" d="M 0,0 5,-5 -12.5,0 5,5 0,0 z" transform="matrix(-0.8,0,0,-0.8,-10,0)" style="fill-rule:evenodd;stroke:#000;stroke-width:1pt;marker-start:none"/></marker><marker id="Arrow1Lend-6" orient="auto" refX="0" refY="0" style="overflow:visible"><path id="path3211-5" d="M 0,0 5,-5 -12.5,0 5,5 0,0 z" transform="matrix(-0.8,0,0,-0.8,-10,0)" style="fill-rule:evenodd;stroke:#000;stroke-width:1pt;marker-start:none"/></marker><marker id="Arrow1Lstart-6" orient="auto" refX="0" refY="0" style="overflow:visible"><path id="path3208-9" d="M 0,0 5,-5 -12.5,0 5,5 0,0 z" transform="matrix(0.8,0,0,0.8,10,0)" style="fill-rule:evenodd;stroke:#000;stroke-width:1pt;marker-start:none"/></marker><marker id="marker4312" orient="auto" refX="0" refY="0" style="overflow:visible"><path id="path4314" d="M 0,0 5,-5 -12.5,0 5,5 0,0 z" transform="matrix(-0.8,0,0,-0.8,-10,0)" style="fill-rule:evenodd;stroke:#000;stroke-width:1pt;marker-start:none"/></marker><marker id="marker4316" orient="auto" refX="0" refY="0" style="overflow:visible"><path id="path4318" d="M 0,0 5,-5 -12.5,0 5,5 0,0 z" transform="matrix(0.8,0,0,0.8,10,0)" style="fill-rule:evenodd;stroke:#000;stroke-width:1pt;marker-start:none"/></marker><marker id="marker4320" orient="auto" refX="0" refY="0" style="overflow:visible"><path id="path4322" d="M 0,0 5,-5 -12.5,0 5,5 0,0 z" transform="matrix(-0.8,0,0,-0.8,-10,0)" style="fill-rule:evenodd;stroke:#000;stroke-width:1pt;marker-start:none"/></marker><marker id="Arrow1Lend-8" orient="auto" refX="0" refY="0" style="overflow:visible"><path id="path3211-8" d="M 0,0 5,-5 -12.5,0 5,5 0,0 z" transform="matrix(-0.8,0,0,-0.8,-10,0)" style="fill-rule:evenodd;stroke:#000;stroke-width:1pt;marker-start:none"/></marker><marker id="Arrow1Lstart-4" orient="auto" refX="0" refY="0" style="overflow:visible"><path id="path3208-3" d="M 0,0 5,-5 -12.5,0 5,5 0,0 z" transform="matrix(0.8,0,0,0.8,10,0)" style="fill-rule:evenodd;stroke:#000;stroke-width:1pt;marker-start:none"/></marker><marker id="marker4312-1" orient="auto" refX="0" refY="0" style="overflow:visible"><path id="path4314-4" d="M 0,0 5,-5 -12.5,0 5,5 0,0 z" transform="matrix(-0.8,0,0,-0.8,-10,0)" style="fill-rule:evenodd;stroke:#000;stroke-width:1pt;marker-start:none"/></marker><marker id="marker4316-9" orient="auto" refX="0" refY="0" style="overflow:visible"><path id="path4318-2" d="M 0,0 5,-5 -12.5,0 5,5 0,0 z" transform="matrix(0.8,0,0,0.8,10,0)" style="fill-rule:evenodd;stroke:#000;stroke-width:1pt;marker-start:none"/></marker><marker id="marker4320-0" orient="auto" refX="0" refY="0" style="overflow:visible"><path id="path4322-6" d="M 0,0 5,-5 -12.5,0 5,5 0,0 z" transform="matrix(-0.8,0,0,-0.8,-10,0)" style="fill-rule:evenodd;stroke:#000;stroke-width:1pt;marker-start:none"/></marker><marker id="Arrow1Lend-2" orient="auto" refX="0" refY="0" style="overflow:visible"><path id="path3211-2" d="M 0,0 5,-5 -12.5,0 5,5 0,0 z" transform="matrix(-0.8,0,0,-0.8,-10,0)" style="fill-rule:evenodd;stroke:#000;stroke-width:1pt;marker-start:none"/></marker><marker id="Arrow1Lend-61" orient="auto" refX="0" refY="0" style="overflow:visible"><path id="path3211-59" d="M 0,0 5,-5 -12.5,0 5,5 0,0 z" transform="matrix(-0.8,0,0,-0.8,-10,0)" style="fill-rule:evenodd;stroke:#000;stroke-width:1pt;marker-start:none"/></marker><marker id="Arrow1Lstart-9" orient="auto" refX="0" refY="0" style="overflow:visible"><path id="path3208-31" d="M 0,0 5,-5 -12.5,0 5,5 0,0 z" transform="matrix(0.8,0,0,0.8,10,0)" style="fill-rule:evenodd;stroke:#000;stroke-width:1pt;marker-start:none"/></marker><marker id="Arrow1Lend-9" orient="auto" refX="0" refY="0" style="overflow:visible"><path id="path3211-4" d="M 0,0 5,-5 -12.5,0 5,5 0,0 z" transform="matrix(-0.8,0,0,-0.8,-10,0)" style="fill-rule:evenodd;stroke:#000;stroke-width:1pt;marker-start:none"/></marker><marker id="Arrow1Mstart" orient="auto" refX="0" refY="0" style="overflow:visible"><path id="path4530" d="M 0,0 5,-5 -12.5,0 5,5 0,0 z" transform="matrix(0.4,0,0,0.4,4,0)" style="fill-rule:evenodd;stroke:#000;stroke-width:1pt;marker-start:none"/></marker><marker id="Arrow1Mend" orient="auto" refX="0" refY="0" style="overflow:visible"><path id="path4533" d="M 0,0 5,-5 -12.5,0 5,5 0,0 z" transform="matrix(-0.4,0,0,-0.4,-4,0)" style="fill-rule:evenodd;stroke:#000;stroke-width:1pt;marker-start:none"/></marker><marker id="marker5624" orient="auto" refX="0" refY="0" style="overflow:visible"><path id="path5626" d="M 0,0 5,-5 -12.5,0 5,5 0,0 z" transform="matrix(0.4,0,0,0.4,4,0)" style="fill-rule:evenodd;stroke:#000;stroke-width:1pt;marker-start:none"/></marker><marker id="marker5628" orient="auto" refX="0" refY="0" style="overflow:visible"><path id="path5630" d="M 0,0 5,-5 -12.5,0 5,5 0,0 z" transform="matrix(-0.4,0,0,-0.4,-4,0)" style="fill-rule:evenodd;stroke:#000;stroke-width:1pt;marker-start:none"/></marker><marker id="marker5632" orient="auto" refX="0" refY="0" style="overflow:visible"><path id="path5634" d="M 0,0 5,-5 -12.5,0 5,5 0,0 z" transform="matrix(-0.4,0,0,-0.4,-4,0)" style="fill-rule:evenodd;stroke:#000;stroke-width:1pt;marker-start:none"/></marker><marker id="marker5636" orient="auto" refX="0" refY="0" style="overflow:visible"><path id="path5638" d="M 0,0 5,-5 -12.5,0 5,5 0,0 z" transform="matrix(-0.4,0,0,-0.4,-4,0)" style="fill-rule:evenodd;stroke:#000;stroke-width:1pt;marker-start:none"/></marker><marker id="marker5640" orient="auto" refX="0" refY="0" style="overflow:visible"><path id="path5642" d="M 0,0 5,-5 -12.5,0 5,5 0,0 z" transform="matrix(-0.4,0,0,-0.4,-4,0)" style="fill-rule:evenodd;stroke:#000;stroke-width:1pt;marker-start:none"/></marker><marker id="marker5644" orient="auto" refX="0" refY="0" style="overflow:visible"><path id="path5646" d="M 0,0 5,-5 -12.5,0 5,5 0,0 z" transform="matrix(0.4,0,0,0.4,4,0)" style="fill-rule:evenodd;stroke:#000;stroke-width:1pt;marker-start:none"/></marker><marker id="marker5648" orient="auto" refX="0" refY="0" style="overflow:visible"><path id="path5650" d="M 0,0 5,-5 -12.5,0 5,5 0,0 z" transform="matrix(-0.4,0,0,-0.4,-4,0)" style="fill-rule:evenodd;stroke:#000;stroke-width:1pt;marker-start:none"/></marker><linearGradient id="linearGradient4519" x1="47.143" x2="677.857" y1="244.505" y2="244.505" gradientUnits="userSpaceOnUse" xlink:href="#linearGradient4513"/><linearGradient id="linearGradient4513"><stop style="stop-color:#fdffdb;stop-opacity:1" id="stop4515" offset="0"/><stop style="stop-color:#dfe2d8;stop-opacity:0" id="stop4517" offset="1"/></linearGradient><linearGradient id="linearGradient5687" x1="47.143" x2="677.857" y1="244.505" y2="244.505" gradientTransform="translate(17.806842,326.00779)" gradientUnits="userSpaceOnUse" xlink:href="#linearGradient4513"/><marker id="Arrow1Mend-4" orient="auto" refX="0" refY="0" style="overflow:visible"><path id="path4533-5" d="M 0,0 5,-5 -12.5,0 5,5 0,0 z" transform="matrix(-0.4,0,0,-0.4,-4,0)" style="fill-rule:evenodd;stroke:#000;stroke-width:1pt;marker-start:none"/></marker><marker id="Arrow1Mend-5" orient="auto" refX="0" refY="0" style="overflow:visible"><path id="path4533-4" d="M 0,0 5,-5 -12.5,0 5,5 0,0 z" transform="matrix(-0.4,0,0,-0.4,-4,0)" style="fill-rule:evenodd;stroke:#000;stroke-width:1pt;marker-start:none"/></marker><marker id="Arrow1Mend-44" orient="auto" refX="0" refY="0" style="overflow:visible"><path id="path4533-3" d="M 0,0 5,-5 -12.5,0 5,5 0,0 z" transform="matrix(-0.4,0,0,-0.4,-4,0)" style="fill-rule:evenodd;stroke:#000;stroke-width:1pt;marker-start:none"/></marker><marker id="Arrow1Mend-7" orient="auto" refX="0" refY="0" style="overflow:visible"><path id="path4533-8" d="M 0,0 5,-5 -12.5,0 5,5 0,0 z" transform="matrix(-0.4,0,0,-0.4,-4,0)" style="fill-rule:evenodd;stroke:#000;stroke-width:1pt;marker-start:none"/></marker><marker id="Arrow1Mend-9" orient="auto" refX="0" refY="0" style="overflow:visible"><path id="path4533-2" d="M 0,0 5,-5 -12.5,0 5,5 0,0 z" transform="matrix(-0.4,0,0,-0.4,-4,0)" style="fill-rule:evenodd;stroke:#000;stroke-width:1pt;marker-start:none"/></marker><marker id="Arrow1Mstart-9" orient="auto" refX="0" refY="0" style="overflow:visible"><path id="path4530-5" d="M 0,0 5,-5 -12.5,0 5,5 0,0 z" transform="matrix(0.4,0,0,0.4,4,0)" style="fill-rule:evenodd;stroke:#000;stroke-width:1pt;marker-start:none"/></marker><marker id="Arrow1Mend-0" orient="auto" refX="0" refY="0" style="overflow:visible"><path id="path4533-48" d="M 0,0 5,-5 -12.5,0 5,5 0,0 z" transform="matrix(-0.4,0,0,-0.4,-4,0)" style="fill-rule:evenodd;stroke:#000;stroke-width:1pt;marker-start:none"/></marker><marker id="Arrow1Mstart-1" orient="auto" refX="0" refY="0" style="overflow:visible"><path id="path4530-7" d="M 0,0 5,-5 -12.5,0 5,5 0,0 z" transform="matrix(0.4,0,0,0.4,4,0)" style="fill-rule:evenodd;stroke:#000;stroke-width:1pt;marker-start:none"/></marker><marker id="Arrow1Mend-2" orient="auto" refX="0" refY="0" style="overflow:visible"><path id="path4533-7" d="M 0,0 5,-5 -12.5,0 5,5 0,0 z" transform="matrix(-0.4,0,0,-0.4,-4,0)" style="fill-rule:evenodd;stroke:#000;stroke-width:1pt;marker-start:none"/></marker><marker id="Arrow1Mstart-6" orient="auto" refX="0" refY="0" style="overflow:visible"><path id="path4530-1" d="M 0,0 5,-5 -12.5,0 5,5 0,0 z" transform="matrix(0.4,0,0,0.4,4,0)" style="fill-rule:evenodd;stroke:#000;stroke-width:1pt;marker-start:none"/></marker><marker id="Arrow1Mend-59" orient="auto" refX="0" refY="0" style="overflow:visible"><path id="path4533-49" d="M 0,0 5,-5 -12.5,0 5,5 0,0 z" transform="matrix(-0.4,0,0,-0.4,-4,0)" style="fill-rule:evenodd;stroke:#000;stroke-width:1pt;marker-start:none"/></marker><marker id="Arrow1Mstart-7" orient="auto" refX="0" refY="0" style="overflow:visible"><path id="path4530-11" d="M 0,0 5,-5 -12.5,0 5,5 0,0 z" transform="matrix(0.4,0,0,0.4,4,0)" style="fill-rule:evenodd;stroke:#000;stroke-width:1pt;marker-start:none"/></marker><marker id="Arrow1Mend-597" orient="auto" refX="0" refY="0" style="overflow:visible"><path id="path4533-76" d="M 0,0 5,-5 -12.5,0 5,5 0,0 z" transform="matrix(-0.4,0,0,-0.4,-4,0)" style="fill-rule:evenodd;stroke:#000;stroke-width:1pt;marker-start:none"/></marker></defs><metadata id="metadata3873"/><g id="layer1" transform="translate(-64.349699,-426.34141)"><rect style="fill:url(#linearGradient5687);fill-opacity:1;stroke:#000;stroke-opacity:1" id="rect3697" width="630.714" height="287.143" x="64.95" y="426.941" rx="6.757" ry="6.757"/><rect style="fill:#fff;fill-opacity:1;fill-rule:evenodd;stroke:#000;stroke-width:.73872942;stroke-miterlimit:4;stroke-opacity:1;stroke-dasharray:none;stroke-dashoffset:0" id="rect2896" width="179.332" height="33.77" x="111.028" y="537.487" rx="6.757" ry="6.757"/><rect style="fill:#b93a3a;fill-opacity:1;fill-rule:evenodd;stroke:none" id="rect2898" width="119.43" height="33.771" x="169.261" y="537.487" rx="4.327" ry="5"/><rect style="fill:#fff;fill-opacity:1;fill-rule:evenodd;stroke:#000;stroke-width:.73872942;stroke-miterlimit:4;stroke-opacity:1;stroke-dasharray:none;stroke-dashoffset:0" id="rect2910" width="35.28" height="30.077" x="113.578" y="539.334" rx="5" ry="5"/><path style="fill:none;stroke:#000;stroke-width:0;stroke-linecap:butt;stroke-linejoin:miter;stroke-miterlimit:4;stroke-opacity:1;stroke-dasharray:none;marker-end:url(#marker5648)" id="path2974" d="m 125.12469,563.52674 c 2.06519,75.98508 108.79908,120.50695 185.10147,9.9944"/><rect style="fill:#fff;fill-opacity:1;fill-rule:evenodd;stroke:#000;stroke-width:.73872942;stroke-miterlimit:4;stroke-opacity:1;stroke-dasharray:none;stroke-dashoffset:0" id="rect2896-3" width="179.332" height="33.77" x="304.62" y="537.487" rx="6.757" ry="6.757"/><rect style="fill:#b93a3a;fill-opacity:1;fill-rule:evenodd;stroke:none" id="rect2898-7" width="137.287" height="33.771" x="344.996" y="537.487" rx="5" ry="5"/><rect style="fill:#fff;fill-opacity:1;fill-rule:evenodd;stroke:#000;stroke-width:.73872942;stroke-miterlimit:4;stroke-opacity:1;stroke-dasharray:none;stroke-dashoffset:0" id="rect2910-7" width="35.28" height="30.077" x="307.17" y="539.334" rx="5" ry="5"/><rect style="fill:#fff;fill-opacity:1;fill-rule:evenodd;stroke:#000;stroke-width:.73872942;stroke-miterlimit:4;stroke-opacity:1;stroke-dasharray:none;stroke-dashoffset:0" id="rect2896-8" width="179.332" height="33.77" x="496.048" y="537.487" rx="6.757" ry="6.757"/><rect style="fill:#b93a3a;fill-opacity:1;fill-rule:evenodd;stroke:none" id="rect2898-9" width="101.573" height="33.771" x="534.996" y="537.487" rx="5" ry="5"/><rect style="fill:#fff;fill-opacity:1;fill-rule:evenodd;stroke:#000;stroke-width:.73872942;stroke-miterlimit:4;stroke-opacity:1;stroke-dasharray:none;stroke-dashoffset:0" id="rect2910-5" width="35.28" height="30.077" x="498.599" y="539.334" rx="5" ry="5"/><path style="fill:none;stroke:#000;stroke-width:0;stroke-linecap:butt;stroke-linejoin:miter;stroke-miterlimit:4;stroke-opacity:1;stroke-dasharray:none;marker-end:url(#marker5648)" id="path2974-6" d="m 323.19397,564.19918 c 2.06519,75.98508 173.08478,89.07838 185.10146,9.9944"/><path style="fill:none;stroke:#000;stroke-width:0;stroke-linecap:butt;stroke-linejoin:miter;stroke-miterlimit:4;stroke-opacity:1;stroke-dasharray:none;marker-end:url(#marker5648)" id="path2976-1-4" d="m 519.12036,562.95397 c 4.39975,33.26738 10.7052,43.94422 27.24434,62.13727"/><text style="font-size:15.22520161px;font-style:normal;font-weight:400;fill:#000;fill-opacity:1;stroke:none;font-family:Bitstream Vera Sans" id="text2912" x="424.789" y="702.449" xml:space="preserve"><tspan id="tspan2916" x="424.789" y="702.449" style="font-weight:700">multi-segmented rte_mbuf</tspan></text><path style="fill:none;stroke:#000;stroke-width:1.26900005;stroke-linecap:butt;stroke-linejoin:miter;stroke-miterlimit:4;stroke-opacity:1;stroke-dasharray:none;marker-end:url(#Arrow1Mend)" id="path2976-3-7" d="m 119.23004,564.01527 c 101.10943,109.21871 189.23315,8.60651 189.23315,8.60651"/><path style="fill:none;stroke:#000;stroke-width:1.26900005;stroke-linecap:butt;stroke-linejoin:miter;stroke-miterlimit:4;stroke-opacity:1;stroke-dasharray:none;marker-end:url(#Arrow1Mend)" id="path2976-3-7-0" d="m 312.98114,565.49459 c 101.10943,109.21871 189.23315,8.60651 189.23315,8.60651"/><path style="fill:none;stroke:#000;stroke-width:1.26900005;stroke-linecap:butt;stroke-linejoin:miter;stroke-miterlimit:4;stroke-opacity:1;stroke-dasharray:none;marker-end:url(#Arrow1Mend)" id="path2974-9-6" d="m 509.59959,565.53369 c -3.54694,48.3097 82.1453,49.9618 82.1453,49.9618"/><text style="font-size:10px;font-style:normal;font-weight:400;fill:#000;fill-opacity:1;stroke:none;font-family:Bitstream Vera Sans" id="text5254-8" x="527.195" y="628.459" xml:space="preserve"><tspan id="tspan5256-8" x="527.195" y="628.459">m-&gt;pkt.next = NULL</tspan></text><text style="font-size:10px;font-style:normal;font-weight:400;fill:#000;fill-opacity:1;stroke:none;font-family:Bitstream Vera Sans" id="text5254-8-4" x="330.504" y="628.459" xml:space="preserve"><tspan id="tspan5256-8-3" x="330.504" y="628.459">m-&gt;pkt.next = mseg3</tspan></text><text style="font-size:10px;font-style:normal;font-weight:400;fill:#000;fill-opacity:1;stroke:none;font-family:Bitstream Vera Sans" id="text5254-8-4-1" x="144.794" y="628.459" xml:space="preserve"><tspan id="tspan5256-8-3-4" x="144.794" y="628.459">m-&gt;pkt.next = mseg2</tspan></text><text style="font-size:10px;font-style:normal;font-weight:400;fill:#000;fill-opacity:1;stroke:none;font-family:Bitstream Vera Sans" id="text6906" x="113.857" y="529.92" xml:space="preserve"><tspan id="tspan6908" x="113.857" y="529.92">m</tspan></text><text style="font-size:10px;font-style:normal;font-weight:400;fill:#000;fill-opacity:1;stroke:none;font-family:Bitstream Vera Sans" id="text6910" x="310.429" y="529.791" xml:space="preserve"><tspan id="tspan6912" x="310.429" y="529.791">mseg2</tspan></text><text style="font-size:10px;font-style:normal;font-weight:400;fill:#000;fill-opacity:1;stroke:none;font-family:Bitstream Vera Sans" id="text6914" x="501.857" y="529.791" xml:space="preserve"><tspan id="tspan6916" x="501.857" y="529.791">mseg3</tspan></text><path style="fill:none;stroke:#000;stroke-width:1.26900005;stroke-linecap:butt;stroke-linejoin:miter;stroke-miterlimit:4;stroke-opacity:1;stroke-dasharray:none;marker-end:url(#Arrow1Mend)" id="path2976-3-0" d="m 158.74072,504.12577 c 12.53799,12.07585 14.94743,31.46365 14.94743,31.46365"/><text style="font-size:10px;font-style:normal;font-weight:400;fill:#000;fill-opacity:1;stroke:none;font-family:Bitstream Vera Sans" id="text5219-6" x="78.793" y="498.271" xml:space="preserve"><tspan id="tspan5223-9" x="78.793" y="498.271">rte_pktmbuf_mtod(m)</tspan></text><text style="font-size:10.48159599px;font-style:normal;font-weight:400;fill:#000;fill-opacity:1;stroke:none;font-family:Bitstream Vera Sans" id="text5258-2" x="233.534" y="470.284" transform="scale(1.0481596,0.95405318)" xml:space="preserve"><tspan id="tspan5262-64" x="233.534" y="470.284">rte_pktmbuf_pktlen(m) = rte_pktmbuf_datalen(m) +</tspan><tspan id="tspan6985" x="233.534" y="483.386"> rte_pktmbuf_datalen(mseg2) + rte_pktmbuf_datalen(mseg3)</tspan></text><path style="fill:none;stroke:#000;stroke-width:1.26900005;stroke-linecap:butt;stroke-linejoin:miter;stroke-miterlimit:4;stroke-opacity:1;stroke-dasharray:none;marker-start:url(#Arrow1Mstart);marker-end:url(#Arrow1Mend)" id="path2904-5-7" d="m 173.97266,470.21933 c 141.42583,0 391.36979,0 450.62611,0"/><path style="fill:none;stroke:#000;stroke-width:1.26900005;stroke-linecap:butt;stroke-linejoin:miter;stroke-miterlimit:4;stroke-opacity:1;stroke-dasharray:none;marker-start:url(#Arrow1Mstart);marker-end:url(#Arrow1Mend)" id="path2904-5-2" d="m 175.25836,577.20906 c 141.42583,0 49.22693,0 108.48325,0"/><text style="font-size:10px;font-style:normal;font-weight:400;fill:#000;fill-opacity:1;stroke:none;font-family:Bitstream Vera Sans" id="text5258-26" x="153.42" y="590.869" xml:space="preserve"><tspan id="tspan5262-0" x="153.42" y="590.869">rte_pktmbuf_datalen(m)</tspan></text><path style="fill:none;stroke:#000;stroke-width:1.26900005;stroke-linecap:butt;stroke-linejoin:miter;stroke-miterlimit:4;stroke-opacity:1;stroke-dasharray:none;marker-start:url(#Arrow1Mstart);marker-end:url(#Arrow1Mend)" id="path2904-5-2-0" d="m 348.97266,577.20906 c 141.42583,0 69.22693,0 128.48325,0"/><text style="font-size:10px;font-style:normal;font-weight:400;fill:#000;fill-opacity:1;stroke:none;font-family:Bitstream Vera Sans" id="text5258-26-9" x="345.563" y="590.869" xml:space="preserve"><tspan id="tspan5262-0-1" x="345.563" y="590.869">rte_pktmbuf_datalen(m)</tspan></text><path style="fill:none;stroke:#000;stroke-width:1.26900005;stroke-linecap:butt;stroke-linejoin:miter;stroke-miterlimit:4;stroke-opacity:1;stroke-dasharray:none;marker-start:url(#Arrow1Mstart);marker-end:url(#Arrow1Mend)" id="path2904-5-2-7" d="m 539.68695,577.20906 c 141.42582,0 33.51263,0 92.76895,0"/><text style="font-size:10px;font-style:normal;font-weight:400;fill:#000;fill-opacity:1;stroke:none;font-family:Bitstream Vera Sans" id="text5258-26-3" x="537.134" y="590.869" xml:space="preserve"><tspan id="tspan5262-0-6" x="537.134" y="590.869">rte_pktmbuf_datalen(m)</tspan></text></g></svg>