<svg xmlns="http://www.w3.org/2000/svg" xmlns:svg="http://www.w3.org/2000/svg" xmlns:xlink="http://www.w3.org/1999/xlink" id="svg3868" width="631.914" height="288.343" version="1.1"><defs id="defs3870"><marker style="overflow:visible" id="Arrow1Mstart" orient="auto" refX="0" refY="0"><path style="fill-rule:evenodd;stroke:#000;stroke-width:1pt;marker-start:none" id="path4530" d="M 0,0 5,-5 -12.5,0 5,5 0,0 z" transform="matrix(0.4,0,0,0.4,4,0)"/></marker><marker style="overflow:visible" id="Arrow1Mend" orient="auto" refX="0" refY="0"><path style="fill-rule:evenodd;stroke:#000;stroke-width:1pt;marker-start:none" id="path4533" d="M 0,0 5,-5 -12.5,0 5,5 0,0 z" transform="matrix(-0.4,0,0,-0.4,-4,0)"/></marker><linearGradient id="linearGradient4513"><stop id="stop4515" offset="0" style="stop-color:#fdffdb;stop-opacity:1"/><stop id="stop4517" offset="1" style="stop-color:#dfe2d8;stop-opacity:0"/></linearGradient><marker style="overflow:visible" id="Arrow1Lend" orient="auto" refX="0" refY="0"><path style="fill-rule:evenodd;stroke:#000;stroke-width:1pt;marker-start:none" id="path3211" d="M 0,0 5,-5 -12.5,0 5,5 0,0 z" transform="matrix(-0.8,0,0,-0.8,-10,0)"/></marker><marker style="overflow:visible" id="marker3892" orient="auto" refX="0" refY="0"><path style="fill-rule:evenodd;stroke:#000;stroke-width:1pt;marker-start:none" id="path3894" d="M 0,0 5,-5 -12.5,0 5,5 0,0 z" transform="matrix(-0.8,0,0,-0.8,-10,0)"/></marker><marker style="overflow:visible" id="marker3896" orient="auto" refX="0" refY="0"><path style="fill-rule:evenodd;stroke:#000;stroke-width:1pt;marker-start:none" id="path3898" d="M 0,0 5,-5 -12.5,0 5,5 0,0 z" transform="matrix(-0.8,0,0,-0.8,-10,0)"/></marker><marker style="overflow:visible" id="Arrow1Lstart" orient="auto" refX="0" refY="0"><path style="fill-rule:evenodd;stroke:#000;stroke-width:1pt;marker-start:none" id="path3208" d="M 0,0 5,-5 -12.5,0 5,5 0,0 z" transform="matrix(0.8,0,0,0.8,10,0)"/></marker><marker style="overflow:visible" id="marker3902" orient="auto" refX="0" refY="0"><path style="fill-rule:evenodd;stroke:#000;stroke-width:1pt;marker-start:none" id="path3904" d="M 0,0 5,-5 -12.5,0 5,5 0,0 z" transform="matrix(-0.8,0,0,-0.8,-10,0)"/></marker><marker style="overflow:visible" id="marker3906" orient="auto" refX="0" refY="0"><path style="fill-rule:evenodd;stroke:#000;stroke-width:1pt;marker-start:none" id="path3908" d="M 0,0 5,-5 -12.5,0 5,5 0,0 z" transform="matrix(0.8,0,0,0.8,10,0)"/></marker><marker style="overflow:visible" id="marker3910" orient="auto" refX="0" refY="0"><path style="fill-rule:evenodd;stroke:#000;stroke-width:1pt;marker-start:none" id="path3912" d="M 0,0 5,-5 -12.5,0 5,5 0,0 z" transform="matrix(-0.8,0,0,-0.8,-10,0)"/></marker><linearGradient id="linearGradient4519" x1="47.143" x2="677.857" y1="244.505" y2="244.505" gradientUnits="userSpaceOnUse" xlink:href="#linearGradient4513"/><marker style="overflow:visible" id="Arrow1Mend-4" orient="auto" refX="0" refY="0"><path style="fill-rule:evenodd;stroke:#000;stroke-width:1pt;marker-start:none" id="path4533-7" d="M 0,0 5,-5 -12.5,0 5,5 0,0 z" transform="matrix(-0.4,0,0,-0.4,-4,0)"/></marker><marker style="overflow:visible" id="Arrow1Mstart-4" orient="auto" refX="0" refY="0"><path style="fill-rule:evenodd;stroke:#000;stroke-width:1pt;marker-start:none" id="path4530-5" d="M 0,0 5,-5 -12.5,0 5,5 0,0 z" transform="matrix(0.4,0,0,0.4,4,0)"/></marker><marker style="overflow:visible" id="Arrow1Mend-0" orient="auto" refX="0" refY="0"><path style="fill-rule:evenodd;stroke:#000;stroke-width:1pt;marker-start:none" id="path4533-3" d="M 0,0 5,-5 -12.5,0 5,5 0,0 z" transform="matrix(-0.4,0,0,-0.4,-4,0)"/></marker><marker style="overflow:visible" id="Arrow1Mstart-3" orient="auto" refX="0" refY="0"><path style="fill-rule:evenodd;stroke:#000;stroke-width:1pt;marker-start:none" id="path4530-2" d="M 0,0 5,-5 -12.5,0 5,5 0,0 z" transform="matrix(0.4,0,0,0.4,4,0)"/></marker><marker style="overflow:visible" id="Arrow1Mend-06" orient="auto" refX="0" refY="0"><path style="fill-rule:evenodd;stroke:#000;stroke-width:1pt;marker-start:none" id="path4533-1" d="M 0,0 5,-5 -12.5,0 5,5 0,0 z" transform="matrix(-0.4,0,0,-0.4,-4,0)"/></marker></defs><metadata id="metadata3873"/><g id="layer1" transform="translate(-46.542857,-100.33361)"><rect id="rect3697" width="630.714" height="287.143" x="47.143" y="100.934" rx="6.757" ry="6.757" style="fill:url(#linearGradient4519);fill-opacity:1;stroke:#000;stroke-opacity:1"/><rect id="rect2896" width="308.002" height="58.001" x="253.552" y="197.482" rx="11.605" ry="11.605" style="fill:#fff;fill-opacity:1;fill-rule:evenodd;stroke:#000;stroke-width:1.26876688;stroke-miterlimit:4;stroke-opacity:1;stroke-dasharray:none;stroke-dashoffset:0"/><rect id="rect2898" width="174.71" height="58.001" x="349.471" y="197.482" rx="8.587" ry="8.587" style="fill:#b93a3a;fill-opacity:1;fill-rule:evenodd;stroke:none"/><path id="path2904" d="m 357.26687,268.98771 c 141.42583,0 105.6555,0 164.91182,0" style="fill:none;stroke:#000;stroke-width:1.26900005;stroke-linecap:butt;stroke-linejoin:miter;stroke-miterlimit:4;stroke-opacity:1;stroke-dasharray:none;marker-start:url(#Arrow1Mstart);marker-end:url(#Arrow1Mend)"/><rect id="rect2910" width="60.593" height="51.657" x="255.932" y="200.909" rx="8.587" ry="8.587" style="fill:#fff;fill-opacity:1;fill-rule:evenodd;stroke:#000;stroke-width:1.26876688;stroke-miterlimit:4;stroke-opacity:1;stroke-dasharray:none;stroke-dashoffset:0"/><text id="text2912" x="468.477" y="376.466" xml:space="preserve" style="font-size:15.22520161px;font-style:normal;font-weight:400;fill:#000;fill-opacity:1;stroke:none;font-family:Bitstream Vera Sans"><tspan style="font-weight:700" id="tspan2916" x="468.477" y="376.466">struct rte_mbuf</tspan></text><path id="path2974" d="M 270.40246,239.43649 C 273.9494,287.74619 176.1143,278.684 176.1143,278.684" style="fill:none;stroke:#000;stroke-width:1.26900005;stroke-linecap:butt;stroke-linejoin:miter;stroke-miterlimit:4;stroke-opacity:1;stroke-dasharray:none;marker-end:url(#Arrow1Mend)"/><path id="path2976" d="m 339.73824,127.0486 c 18.96656,9.93299 12.80457,67.17793 12.80457,67.17793" style="fill:none;stroke:#000;stroke-width:1.26900005;stroke-linecap:butt;stroke-linejoin:miter;stroke-miterlimit:4;stroke-opacity:1;stroke-dasharray:none;marker-end:url(#Arrow1Mend)"/><path id="path2974-8" d="m 263.28446,331.99662 c 39.26122,1.88113 54.28327,-61.82392 54.28327,-61.82392" style="fill:none;stroke:#000;stroke-width:1.26900005;stroke-linecap:butt;stroke-linejoin:miter;stroke-miterlimit:4;stroke-opacity:1;stroke-dasharray:none;marker-end:url(#Arrow1Mend)"/><text id="text5215" x="187.857" y="335.219" xml:space="preserve" style="font-size:10px;font-style:normal;font-weight:400;fill:#000;fill-opacity:1;stroke:none;font-family:Bitstream Vera Sans"><tspan id="tspan5217" x="187.857" y="335.219">m-&gt;buf_addr</tspan><tspan id="tspan5240" x="187.857" y="347.719">(m-&gt;buf_iova is the</tspan><tspan id="tspan5242" x="187.857" y="360.219">corresponding physical address)</tspan></text><text id="text5219" x="249.286" y="119.505" xml:space="preserve" style="font-size:10px;font-style:normal;font-weight:400;fill:#000;fill-opacity:1;stroke:none;font-family:Bitstream Vera Sans"><tspan id="tspan5223" x="249.286" y="119.505">rte_pktmbuf_mtod(m)</tspan></text><text id="text5248" x="271.429" y="210.934" xml:space="preserve" style="font-size:10px;font-style:normal;font-weight:400;fill:#000;fill-opacity:1;stroke:none;font-family:Bitstream Vera Sans"><tspan id="tspan5250" x="271.429" y="210.934">mbuf</tspan><tspan id="tspan5252" x="271.429" y="223.434">struct</tspan></text><text id="text5254" x="59.842" y="282.377" xml:space="preserve" style="font-size:10px;font-style:normal;font-weight:400;fill:#000;fill-opacity:1;stroke:none;font-family:Bitstream Vera Sans"><tspan id="tspan5256" x="59.842" y="282.377">m-&gt;pkt.next = NULL</tspan></text><text id="text5258" x="372.143" y="282.648" xml:space="preserve" style="font-size:10px;font-style:normal;font-weight:400;fill:#000;fill-opacity:1;stroke:none;font-family:Bitstream Vera Sans"><tspan id="tspan5260" x="372.143" y="282.648">rte_pktmbuf_pktlen(m)</tspan><tspan id="tspan5262" x="372.143" y="295.148">or rte_pktmbuf_datalen(m)</tspan></text><path id="path2904-6" d="m 323.25837,215.46035 c 141.42583,0 -35.05878,0 24.19754,0" style="fill:none;stroke:#000;stroke-width:1.26900005;stroke-linecap:butt;stroke-linejoin:miter;stroke-miterlimit:4;stroke-opacity:1;stroke-dasharray:none;marker-start:url(#Arrow1Mstart);marker-end:url(#Arrow1Mend)"/><text id="text5258-1" x="319.563" y="231.048" xml:space="preserve" style="font-size:10px;font-style:normal;font-weight:400;fill:#000;fill-opacity:1;stroke:none;font-family:Bitstream Vera Sans"><tspan id="tspan5262-6" x="319.563" y="231.048">headroom</tspan></text><path id="path2904-6-5" d="m 526.20982,215.46035 c 141.42583,0 -25.77306,0 33.48326,0" style="fill:none;stroke:#000;stroke-width:1.26900005;stroke-linecap:butt;stroke-linejoin:miter;stroke-miterlimit:4;stroke-opacity:1;stroke-dasharray:none;marker-start:url(#Arrow1Mstart);marker-end:url(#Arrow1Mend)"/><text id="text5258-1-5" x="525.014" y="231.048" xml:space="preserve" style="font-size:10px;font-style:normal;font-weight:400;fill:#000;fill-opacity:1;stroke:none;font-family:Bitstream Vera Sans"><tspan id="tspan5262-6-4" x="525.014" y="231.048">tailroom</tspan></text><path id="path7127" d="m 318.57143,197.71932 0,69.28572" style="fill:none;stroke:#000;stroke-width:1;stroke-linecap:butt;stroke-linejoin:miter;stroke-miterlimit:4;stroke-opacity:1;stroke-dasharray:1,2;stroke-dashoffset:0"/></g></svg>