<svg xmlns="http://www.w3.org/2000/svg" xmlns:ev="http://www.w3.org/2001/xml-events" xmlns:xlink="http://www.w3.org/1999/xlink" width="816" height="432" class="st23" color-interpolation-filters="sRGB" viewBox="0 0 612 324" xml:space="preserve"><style type="text/css">.st1{visibility:visible}.st2,.st3{fill:#5b9bd5;stroke-width:.25}.st2{fill-opacity:.22;stroke:#5b9bd5;stroke-opacity:.22}.st3{stroke:#c8c8c8}.st4{fill:#feffff;font-family:Calibri;font-size:.833336em;font-weight:700}.st5{font-size:1em}.st6{fill:#70ad47;fill-opacity:.5;stroke:#00b050;stroke-width:1.5}.st7{fill:none;stroke:none;stroke-width:.25}.st8{fill:#00b050;font-family:Calibri;font-size:1.16666em}.st9{fill:none;stroke:#00b050;stroke-width:2.25}.st10,.st11{fill:#5b9bd5;font-family:Calibri;font-size:.833336em}.st11{font-size:1.16666em}.st12{fill:#a8d08d;stroke:#c8c8c8;stroke-width:.25}.st13{marker-end:url(#mrkr5-83);stroke:red;stroke-linecap:round;stroke-linejoin:round;stroke-width:2.25}.st14{fill:red;fill-opacity:1;stroke:red;stroke-opacity:1;stroke-width:.47169811320755}.st15,.st16{stroke:#92d050}.st15{marker-end:url(#mrkr5-95);stroke-linecap:round;stroke-linejoin:round;stroke-width:2.25}.st16{fill:#92d050;fill-opacity:1;stroke-opacity:1;stroke-width:.47169811320755}.st17,.st18{font-family:Calibri;font-size:1.00001em}.st17{fill:#00b050;font-weight:700}.st18{fill:#5b9bd5}.st19{fill:none;stroke:red;stroke-width:2.25}.st20{fill:red;font-family:Calibri;font-size:1.00001em;font-weight:700}.st21{marker-end:url(#mrkr5-123);stroke:red;stroke-linecap:round;stroke-linejoin:round;stroke-width:1}.st22{fill:red;fill-opacity:1;stroke:red;stroke-opacity:1;stroke-width:.28409090909091}.st23{fill:none;fill-rule:evenodd;font-size:12px;overflow:visible;stroke-linecap:square;stroke-miterlimit:3}</style><defs id="Markers"><g id="lend5"><path d="M 2 1 L 0 0 L 1.98117 -0.993387 C 1.67173 -0.364515 1.67301 0.372641 1.98465 1.00043" style="stroke:none"/></g><marker id="mrkr5-83" class="st14" markerUnits="strokeWidth" orient="auto" overflow="visible" refX="-3.71"><use transform="scale(-2.12,-2.12)" xlink:href="#lend5"/></marker><marker id="mrkr5-95" class="st16" markerUnits="strokeWidth" orient="auto" overflow="visible" refX="-3.71"><use transform="scale(-2.12,-2.12)" xlink:href="#lend5"/></marker><marker id="mrkr5-123" class="st22" markerUnits="strokeWidth" orient="auto" overflow="visible" refX="-5.8"><use transform="scale(-3.52,-3.52)" xlink:href="#lend5"/></marker></defs><g><title>Page-1</title><g id="group121-1" transform="translate(21.0294,-32.2733)"><title>Sheet.121</title><g id="shape49-2" transform="translate(460.471,-62.2267)"><title>Rectangle.2</title><g id="shadow49-3" class="st1" transform="matrix(1,0,0,1,0.3456,1.9728)"><rect width="108" height="45" x="0" y="279" class="st2"/></g><rect width="108" height="45" x="0" y="279" class="st3"/></g><g id="shape50-6" transform="translate(320.452,-18.123)"><title>Rectangle.4</title><g id="shadow50-7" class="st1" transform="matrix(1,0,0,1,0.3456,1.9728)"><rect width="108" height="90" x="0" y="234" class="st2"/></g><rect width="108" height="90" x="0" y="234" class="st3"/></g><g id="shape52-10" transform="translate(0,-31.5)"><title>Rectangle.10</title><desc>Flow Keys Matching Mask 1</desc><g id="shadow52-11" class="st1" transform="matrix(1,0,0,1,0.3456,1.9728)"><rect width="108" height="76.5" x="0" y="247.5" class="st2"/></g><rect width="108" height="76.5" x="0" y="247.5" class="st3"/><text x="12.56" y="282.75" class="st4">Flow Keys Matching <tspan x="39.1" class="st5" dy="1.2em">Mask </tspan>1</text></g><g id="shape53-16" transform="translate(311.452,-27.123)"><title>Sheet.53</title><rect width="126" height="13.5" x="0" y="310.5" class="st6"/></g><g id="shape54-18" transform="translate(424.471,-26.2267)"><title>Sheet.54</title><desc>Match</desc><rect width="72" height="13.5" x="0" y="310.5" class="st7"/><text x="17.68" y="321.45" class="st8">Match</text></g><g id="shape55-21" transform="translate(261,-247.163)"><title>Sheet.55</title><desc>Flow ID1</desc><rect width="54.346" height="18" x="0" y="306" class="st9"/><text x="9.52" y="318" class="st10">Flow ID1</text></g><g id="shape96-24" transform="translate(0,-109.783)"><title>Sheet.96</title><desc>Flow Mask 1</desc><rect width="108" height="9" x="0" y="315" class="st7"/><text x="18.51" y="323.7" class="st11">Flow Mask 1</text></g><g id="group114-27" transform="translate(247.5,-163.783)"><title>Sheet.114</title><g id="group106-28" transform="translate(0,-27)"><title>Sheet.106</title><g id="shape100-29" transform="translate(0,-13.5)"><title>Rectangle.100</title><g id="shadow100-30" class="st1" transform="matrix(1,0,0,1,0.3456,1.9728)"><rect width="27" height="13.5" x="0" y="310.5" class="st2"/></g><rect width="27" height="13.5" x="0" y="310.5" class="st3"/></g><g id="shape101-33" transform="translate(27,-13.5)"><title>Rectangle.101</title><g id="shadow101-34" class="st1" transform="matrix(1,0,0,1,0.3456,1.9728)"><rect width="27" height="13.5" x="0" y="310.5" class="st2"/></g><rect width="27" height="13.5" x="0" y="310.5" class="st3"/></g><g id="shape102-37" transform="translate(54,-13.5)"><title>Rectangle.102</title><g id="shadow102-38" class="st1" transform="matrix(1,0,0,1,0.3456,1.9728)"><rect width="27" height="13.5" x="0" y="310.5" class="st2"/></g><rect width="27" height="13.5" x="0" y="310.5" class="st3"/></g><g id="shape103-41"><title>Rectangle.103</title><g id="shadow103-42" class="st1" transform="matrix(1,0,0,1,0.3456,1.9728)"><rect width="27" height="13.5" x="0" y="310.5" class="st2"/></g><rect width="27" height="13.5" x="0" y="310.5" class="st3"/></g><g id="shape104-45" transform="translate(27,0)"><title>Rectangle.104</title><g id="shadow104-46" class="st1" transform="matrix(1,0,0,1,0.3456,1.9728)"><rect width="27" height="13.5" x="0" y="310.5" class="st2"/></g><rect width="27" height="13.5" x="0" y="310.5" class="st3"/></g><g id="shape105-49" transform="translate(54,0)"><title>Rectangle.105</title><g id="shadow105-50" class="st1" transform="matrix(1,0,0,1,0.3456,1.9728)"><rect width="27" height="13.5" x="0" y="310.5" class="st2"/></g><rect width="27" height="13.5" x="0" y="310.5" class="st3"/></g></g><g id="group107-53"><title>Sheet.107</title><g id="shape108-54" transform="translate(0,-13.5)"><title>Rectangle.100</title><g id="shadow108-55" class="st1" transform="matrix(1,0,0,1,0.3456,1.9728)"><rect width="27" height="13.5" x="0" y="310.5" class="st2"/></g><rect width="27" height="13.5" x="0" y="310.5" class="st3"/></g><g id="shape109-58" transform="translate(27,-13.5)"><title>Rectangle.101</title><g id="shadow109-59" class="st1" transform="matrix(1,0,0,1,0.3456,1.9728)"><rect width="27" height="13.5" x="0" y="310.5" class="st2"/></g><rect width="27" height="13.5" x="0" y="310.5" class="st3"/></g><g id="shape110-62" transform="translate(54,-13.5)"><title>Rectangle.102</title><g id="shadow110-63" class="st1" transform="matrix(1,0,0,1,0.3456,1.9728)"><rect width="27" height="13.5" x="0" y="310.5" class="st2"/></g><rect width="27" height="13.5" x="0" y="310.5" class="st12"/></g><g id="shape111-66"><title>Rectangle.103</title><g id="shadow111-67" class="st1" transform="matrix(1,0,0,1,0.3456,1.9728)"><rect width="27" height="13.5" x="0" y="310.5" class="st2"/></g><rect width="27" height="13.5" x="0" y="310.5" class="st3"/></g><g id="shape112-70" transform="translate(27,0)"><title>Rectangle.104</title><g id="shadow112-71" class="st1" transform="matrix(1,0,0,1,0.3456,1.9728)"><rect width="27" height="13.5" x="0" y="310.5" class="st2"/></g><rect width="27" height="13.5" x="0" y="310.5" class="st3"/></g><g id="shape113-74" transform="translate(54,0)"><title>Rectangle.105</title><g id="shadow113-75" class="st1" transform="matrix(1,0,0,1,0.3456,1.9728)"><rect width="27" height="13.5" x="0" y="310.5" class="st2"/></g><rect width="27" height="13.5" x="0" y="310.5" class="st3"/></g></g></g><g id="shape89-78" transform="translate(413.723,393.802) rotate(146.31)"><title>Sheet.89</title><path d="M0 324 L153.9 324" class="st13"/></g><g id="shape115-84" transform="translate(126,0)"><title>Rectangle.115</title><desc>Flow Keys Matching Mask 2</desc><g id="shadow115-85" class="st1" transform="matrix(1,0,0,1,0.3456,1.9728)"><rect width="108" height="108" x="0" y="216" class="st2"/></g><rect width="108" height="108" x="0" y="216" class="st3"/><text x="12.56" y="267" class="st4">Flow Keys Matching <tspan x="39.1" class="st5" dy="1.2em">Mask </tspan>2</text></g><g id="shape85-90" transform="translate(635.321,91.2793) rotate(81.3573)"><title>Sheet.85</title><path d="M0 324 L143.93 324" class="st15"/></g><g id="shape56-96" transform="translate(579.175,-64.556) rotate(64.1257)"><title>Sheet.56</title><path d="M0 324 L54.31 324" class="st15"/></g></g><g id="shape122-101" transform="translate(351,-213.444)"><title>Sheet.122</title><desc>HTSS with False Negative (Cache)</desc><rect width="90" height="38.556" x="0" y="285.444" class="st7"/><text x="13.29" y="301.72" class="st10">HTSS with False <tspan x="10.52" class="st5" dy="1.2em">Negative </tspan>(Cache)</text></g><g id="shape123-105" transform="translate(287.654,-290.556)"><title>Sheet.123</title><desc>Active</desc><rect width="48.375" height="27" x="0" y="297" class="st7"/><text x="8.63" y="314.1" class="st17">Active</text></g><g id="shape124-108" transform="translate(278.827,-153)"><title>Sheet.124</title><desc>Target for Flow ID 1</desc><rect width="72.173" height="27" x="0" y="297" class="st9"/><text x="11.93" y="306.9" class="st18">Target for <tspan x="13.54" class="st5" dy="1.2em">Flow ID </tspan>1</text></g><g id="shape125-112" transform="translate(155.857,-254.556)"><title>Sheet.125</title><desc>Flow ID2</desc><rect width="54.346" height="18" x="0" y="306" class="st19"/><text x="9.52" y="318" class="st10">Flow ID2</text></g><g id="shape126-115" transform="translate(153,-270)"><title>Sheet.126</title><desc>New/Inactive</desc><rect width="81" height="27" x="0" y="297" class="st7"/><text x="6.77" y="314.1" class="st20">New/Inactive</text></g><g id="shape127-118" transform="translate(251.739,-239.709) rotate(14.0795)"><title>Sheet.127</title><path d="M0 318.73 A39.2404 18 -180 0 0 49.73 320.91 L50.07 320.78" class="st21"/></g><g id="shape128-124" transform="translate(219.24,-229.5)"><title>Sheet.128</title><desc>Miss</desc><rect width="41.76" height="27" x="0" y="297" class="st7"/><text x="7.81" y="314.7" class="st11">Miss</text></g><g id="shape129-127" transform="translate(147.029,-142.056)"><title>Sheet.129</title><desc>Flow Mask 2</desc><rect width="108" height="9" x="0" y="315" class="st7"/><text x="18.51" y="323.7" class="st11">Flow Mask 2</text></g><g id="shape130-130" transform="translate(166.845,-18.5004) rotate(18.2325)"><title>Sheet.130</title><path d="M0 293.46 A71.1913 104.269 -180 0 0 97.04 298.43 L97.25 298.14" class="st21"/></g><g id="shape131-135" transform="translate(184.406,-3.04505) rotate(-3.24734)"><title>Sheet.131</title><path d="M0 293.46 A112.345 104.269 -180 0 0 154.25 297.52 L154.52 297.28" class="st21"/></g><g id="shape132-140" transform="translate(301.368,16.888) rotate(-25.868)"><title>Sheet.132</title><path d="M0 293.46 A83.375 104.269 -180 0 0 113.91 298.14 L114.14 297.87" class="st21"/></g><g id="shape133-145" transform="translate(345.029,-142.056)"><title>Sheet.133</title><desc>Flow Mask X</desc><rect width="108" height="9" x="0" y="315" class="st7"/><text x="18.43" y="323.7" class="st11">Flow Mask X</text></g><g id="shape134-148" transform="translate(481.5,-139.5)"><title>Sheet.134</title><desc>Flow Mask L</desc><rect width="108" height="9" x="0" y="315" class="st7"/><text x="19.12" y="323.7" class="st11">Flow Mask L</text></g></g></svg>