<svg xmlns="http://www.w3.org/2000/svg" xmlns:ev="http://www.w3.org/2001/xml-events" xmlns:xlink="http://www.w3.org/1999/xlink" width="8in" height="348" class="st16" color-interpolation-filters="sRGB" viewBox="0 0 576 261" xml:space="preserve"><style type="text/css">.st1{visibility:visible}.st2,.st3{fill:#5b9bd5;stroke-width:.25}.st2{fill-opacity:.22;stroke:#5b9bd5;stroke-opacity:.22}.st3{stroke:#c8c8c8}.st4{fill:#feffff;font-family:Calibri;font-size:.666664em;font-weight:700}.st5{font-size:1em}.st6{fill:#70ad47;fill-opacity:.5;stroke:#00b050;stroke-width:1.5}.st7{fill:none;stroke:none;stroke-width:.25}.st8{fill:#00b050;font-family:Calibri;font-size:1.00001em}.st9{fill:none;stroke:red;stroke-width:.25}.st10{fill:#5b9bd5;font-family:Calibri;font-size:.833336em}.st11{marker-end:url(#mrkr5-29);stroke:red;stroke-linecap:round;stroke-linejoin:round;stroke-width:2.25}.st12{fill:red;fill-opacity:1;stroke:red;stroke-opacity:1;stroke-width:.47169811320755}.st13{fill:#5b9bd5;font-family:Calibri;font-size:.75em}.st14{fill:#92d050;stroke:#c8c8c8;stroke-width:.25}.st15{fill:#5b9bd5;font-family:Calibri;font-size:1.00001em;font-weight:700}.st16{fill:none;fill-rule:evenodd;font-size:12px;overflow:visible;stroke-linecap:square;stroke-miterlimit:3}</style><defs id="Markers"><g id="lend5"><path d="M 2 1 L 0 0 L 1.98117 -0.993387 C 1.67173 -0.364515 1.67301 0.372641 1.98465 1.00043" style="stroke:none"/></g><marker id="mrkr5-29" class="st12" markerUnits="strokeWidth" orient="auto" overflow="visible" refX="-3.71"><use transform="scale(-2.12,-2.12)" xlink:href="#lend5"/></marker></defs><g><title>Page-1</title><g id="group121-1" transform="translate(21.0294,-9.8478)"><title>Sheet.121</title><g id="shape49-2" transform="translate(396.989,-54.9268)"><title>Rectangle.2</title><g id="shadow49-3" class="st1" transform="matrix(1,0,0,1,0.3456,1.9728)"><rect width="99.482" height="41.451" x="0" y="219.549" class="st2"/></g><rect width="99.482" height="41.451" x="0" y="219.549" class="st3"/></g><g id="shape50-6" transform="translate(248.261,-12.1936)"><title>Rectangle.4</title><g id="shadow50-7" class="st1" transform="matrix(1,0,0,1,0.3456,1.9728)"><rect width="99.482" height="82.901" x="0" y="178.099" class="st2"/></g><rect width="99.482" height="82.901" x="0" y="178.099" class="st3"/></g><g id="shape52-10" transform="translate(6.07514E-013,-29.0155)"><title>Rectangle.10</title><desc>Signatures for target 1</desc><g id="shadow52-11" class="st1" transform="matrix(1,0,0,1,0.3456,1.9728)"><rect width="99.482" height="70.466" x="0" y="190.534" class="st2"/></g><rect width="99.482" height="70.466" x="0" y="190.534" class="st3"/><text x="26.54" y="223.37" class="st4">Signatures for<tspan x="36.73" class="st5" dy="1.2em">target </tspan>1</text></g><g id="shape53-16" transform="translate(239.971,-20.4837)"><title>Sheet.53</title><rect width="116.062" height="12.435" x="0" y="248.565" class="st6"/></g><g id="shape54-18" transform="translate(353.649,-19.9346)"><title>Sheet.54</title><desc>Match 1</desc><rect width="66.321" height="12.435" x="0" y="248.565" class="st7"/><text x="13.06" y="258.38" class="st8">Match 1</text></g><g id="shape55-21" transform="translate(216.989,-210.652)"><title>Sheet.55</title><desc>Packet Payload</desc><rect width="99.482" height="16.58" x="0" y="244.42" class="st9"/><text x="19.04" y="255.71" class="st10">Packet Payload</text></g><g id="shape56-24" transform="translate(526.665,52.2365) rotate(90)"><title>Sheet.56</title><path d="M0 261 L16.52 261" class="st11"/></g><g id="shape96-30" transform="translate(-3.0294,-95.7818)"><title>Sheet.96</title><desc>Attack Signature Length 1</desc><rect width="103.5" height="24.87" x="0" y="236.13" class="st7"/><text x="4.79" y="251.26" class="st13">Attack Signature Length 1</text></g><g id="group114-33" transform="translate(228.359,-134.152)"><title>Sheet.114</title><g id="group106-34" transform="translate(0,-24.8704)"><title>Sheet.106</title><g id="shape100-35" transform="translate(3.65707E-013,-12.4352)"><title>Rectangle.100</title><g id="shadow100-36" class="st1" transform="matrix(1,0,0,1,0.3456,1.9728)"><rect width="24.87" height="12.435" x="0" y="248.565" class="st2"/></g><rect width="24.87" height="12.435" x="0" y="248.565" class="st3"/></g><g id="shape101-39" transform="translate(24.8704,-12.4352)"><title>Rectangle.101</title><g id="shadow101-40" class="st1" transform="matrix(1,0,0,1,0.3456,1.9728)"><rect width="24.87" height="12.435" x="0" y="248.565" class="st2"/></g><rect width="24.87" height="12.435" x="0" y="248.565" class="st3"/></g><g id="shape102-43" transform="translate(49.7409,-12.4352)"><title>Rectangle.102</title><g id="shadow102-44" class="st1" transform="matrix(1,0,0,1,0.3456,1.9728)"><rect width="24.87" height="12.435" x="0" y="248.565" class="st2"/></g><rect width="24.87" height="12.435" x="0" y="248.565" class="st3"/></g><g id="shape103-47"><title>Rectangle.103</title><g id="shadow103-48" class="st1" transform="matrix(1,0,0,1,0.3456,1.9728)"><rect width="24.87" height="12.435" x="0" y="248.565" class="st2"/></g><rect width="24.87" height="12.435" x="0" y="248.565" class="st3"/></g><g id="shape104-51" transform="translate(24.8704,1.13687E-013)"><title>Rectangle.104</title><g id="shadow104-52" class="st1" transform="matrix(1,0,0,1,0.3456,1.9728)"><rect width="24.87" height="12.435" x="0" y="248.565" class="st2"/></g><rect width="24.87" height="12.435" x="0" y="248.565" class="st3"/></g><g id="shape105-55" transform="translate(49.7409,1.13687E-013)"><title>Rectangle.105</title><g id="shadow105-56" class="st1" transform="matrix(1,0,0,1,0.3456,1.9728)"><rect width="24.87" height="12.435" x="0" y="248.565" class="st2"/></g><rect width="24.87" height="12.435" x="0" y="248.565" class="st3"/></g></g><g id="group107-59"><title>Sheet.107</title><g id="shape108-60" transform="translate(3.65707E-013,-12.4352)"><title>Rectangle.100</title><g id="shadow108-61" class="st1" transform="matrix(1,0,0,1,0.3456,1.9728)"><rect width="24.87" height="12.435" x="0" y="248.565" class="st2"/></g><rect width="24.87" height="12.435" x="0" y="248.565" class="st3"/></g><g id="shape109-64" transform="translate(24.8704,-12.4352)"><title>Rectangle.101</title><g id="shadow109-65" class="st1" transform="matrix(1,0,0,1,0.3456,1.9728)"><rect width="24.87" height="12.435" x="0" y="248.565" class="st2"/></g><rect width="24.87" height="12.435" x="0" y="248.565" class="st3"/></g><g id="shape110-68" transform="translate(49.7409,-12.4352)"><title>Rectangle.102</title><g id="shadow110-69" class="st1" transform="matrix(1,0,0,1,0.3456,1.9728)"><rect width="24.87" height="12.435" x="0" y="248.565" class="st2"/></g><rect width="24.87" height="12.435" x="0" y="248.565" class="st3"/></g><g id="shape111-72"><title>Rectangle.103</title><g id="shadow111-73" class="st1" transform="matrix(1,0,0,1,0.3456,1.9728)"><rect width="24.87" height="12.435" x="0" y="248.565" class="st2"/></g><rect width="24.87" height="12.435" x="0" y="248.565" class="st14"/></g><g id="shape112-76" transform="translate(24.8704,1.13687E-013)"><title>Rectangle.104</title><g id="shadow112-77" class="st1" transform="matrix(1,0,0,1,0.3456,1.9728)"><rect width="24.87" height="12.435" x="0" y="248.565" class="st2"/></g><rect width="24.87" height="12.435" x="0" y="248.565" class="st3"/></g><g id="shape113-80" transform="translate(49.7409,1.13687E-013)"><title>Rectangle.105</title><g id="shadow113-81" class="st1" transform="matrix(1,0,0,1,0.3456,1.9728)"><rect width="24.87" height="12.435" x="0" y="248.565" class="st2"/></g><rect width="24.87" height="12.435" x="0" y="248.565" class="st14"/></g></g></g><g id="shape89-84" transform="translate(398.644,-116.927) rotate(24.4696)"><title>Sheet.89</title><path d="M0 261 L143.75 261" class="st11"/></g><g id="shape115-89" transform="translate(116.062,-1.19371E-012)"><title>Rectangle.115</title><desc>Signatures for target 2</desc><g id="shadow115-90" class="st1" transform="matrix(1,0,0,1,0.3456,1.9728)"><rect width="99.482" height="99.482" x="0" y="161.518" class="st2"/></g><rect width="99.482" height="99.482" x="0" y="161.518" class="st3"/><text x="26.54" y="208.86" class="st4">Signatures for<tspan x="36.73" class="st5" dy="1.2em">target </tspan>2</text></g><g id="shape116-95" transform="translate(117.989,-95.7818)"><title>Sheet.116</title><desc>Attack Signature Length 2</desc><rect width="103.982" height="24.87" x="0" y="236.13" class="st7"/><text x="5.03" y="251.26" class="st13">Attack Signature Length 2</text></g><g id="shape118-98" transform="translate(392.971,-90.217)"><title>Sheet.118</title><desc>Attack Signature Length L</desc><rect width="108" height="24.87" x="0" y="236.13" class="st7"/><text x="7.43" y="251.26" class="st13">Attack Signature Length L</text></g><g id="shape119-101" transform="translate(384.909,-64.9346)"><title>Sheet.119</title><rect width="116.062" height="12.435" x="0" y="248.565" class="st6"/></g><g id="shape120-103" transform="translate(491.971,-64.9346)"><title>Sheet.120</title><desc>Match 2</desc><rect width="66.321" height="12.435" x="0" y="248.565" class="st7"/><text x="13.06" y="258.38" class="st8">Match 2</text></g><g id="shape85-106" transform="translate(478.538,12.9307) rotate(65.6291)"><title>Sheet.85</title><path d="M0 261 L109.61 261" class="st11"/></g><g id="shape117-111" transform="translate(247.054,-91.2818)"><title>Sheet.117</title><desc>Attack Signature Length X</desc><rect width="105.416" height="24.87" x="0" y="236.13" class="st7"/><text x="5.7" y="251.26" class="st13">Attack Signature Length X</text></g></g><g id="shape122-114" transform="translate(315.114,-164.13)"><title>Sheet.122</title><desc>HTSS</desc><rect width="53.886" height="24.87" x="0" y="236.13" class="st7"/><text x="14.52" y="252.16" class="st15">HTSS</text></g></g></svg>