<svg xmlns="http://www.w3.org/2000/svg" xmlns:ev="http://www.w3.org/2001/xml-events" xmlns:xlink="http://www.w3.org/1999/xlink" width="732" height="300" class="st18" color-interpolation-filters="sRGB" viewBox="0 0 549 225" xml:space="preserve"><style type="text/css">.st1{fill:none;stroke:red;stroke-width:.25}.st2{fill:#5b9bd5;font-family:Calibri;font-size:1.00001em}.st3{marker-end:url(#mrkr5-10);stroke:red;stroke-linecap:round;stroke-linejoin:round;stroke-width:2.25}.st4{fill:red;fill-opacity:1;stroke:red;stroke-opacity:1;stroke-width:.47169811320755}.st5{visibility:visible}.st6,.st7{fill:#5b9bd5}.st6,.st7,.st8{stroke-width:.25}.st6{fill-opacity:.22;stroke:#5b9bd5;stroke-opacity:.22}.st7{stroke:#c8c8c8}.st8{fill:none;stroke:none}.st9{fill:#5b9bd5;font-family:Calibri;font-size:1.16666em}.st10{stroke:#5b9bd5;stroke-dasharray:1.5,3;stroke-linecap:round;stroke-linejoin:round;stroke-width:1.5}.st11,.st12{stroke-width:.75}.st11{fill:#5b9bd5;fill-opacity:.25;stroke:#5b9bd5;stroke-opacity:.25}.st12{fill:#4f88bb;stroke:#41719c}.st13,.st14{font-family:Calibri;font-size:1.00001em}.st13{fill:#fff;font-weight:700}.st14{fill:#000}.st15{font-size:1em}.st16{marker-end:url(#mrkr5-162);stroke:#000;stroke-linecap:round;stroke-linejoin:round;stroke-width:1}.st17{fill:#000;fill-opacity:1;stroke:#000;stroke-opacity:1;stroke-width:.28409090909091}.st18{fill:none;fill-rule:evenodd;font-size:12px;overflow:visible;stroke-linecap:square;stroke-miterlimit:3}</style><defs id="Markers"><g id="lend5"><path d="M 2 1 L 0 0 L 1.98117 -0.993387 C 1.67173 -0.364515 1.67301 0.372641 1.98465 1.00043" style="stroke:none"/></g><marker id="mrkr5-10" class="st4" markerUnits="strokeWidth" orient="auto" overflow="visible" refX="-3.71"><use transform="scale(-2.12,-2.12)" xlink:href="#lend5"/></marker><marker id="mrkr5-162" class="st17" markerUnits="strokeWidth" orient="auto" overflow="visible" refX="-5.8"><use transform="scale(-3.52,-3.52)" xlink:href="#lend5"/></marker></defs><g><title>Page-1</title><g id="group47-1" transform="translate(3.0294,-0.25)"><title>Sheet.47</title><g id="shape1-2" transform="translate(177.75,-191.922)"><title>Sheet.1</title><desc>Element</desc><rect width="108" height="18" x="0" y="207" class="st1"/><text x="33.77" y="219.6" class="st2">Element</text></g><g id="shape2-5" transform="translate(456.75,33.0781) rotate(90)"><title>Sheet.2</title><path d="M0 225 L18.65 225" class="st3"/></g><g id="shape3-11" transform="translate(0,-67.0469)"><title>Rectangle.54</title><g id="shadow3-12" class="st5" transform="matrix(1,0,0,1,0.3456,1.9728)"><rect width="27" height="13.5" x="0" y="211.5" class="st6"/></g><rect width="27" height="13.5" x="0" y="211.5" class="st7"/></g><g id="shape4-15" transform="translate(27,-67.0469)"><title>Rectangle.55</title><g id="shadow4-16" class="st5" transform="matrix(1,0,0,1,0.3456,1.9728)"><rect width="27" height="13.5" x="0" y="211.5" class="st6"/></g><rect width="27" height="13.5" x="0" y="211.5" class="st7"/></g><g id="shape5-19" transform="translate(54,-67.0469)"><title>Rectangle.56</title><g id="shadow5-20" class="st5" transform="matrix(1,0,0,1,0.3456,1.9728)"><rect width="27" height="13.5" x="0" y="211.5" class="st6"/></g><rect width="27" height="13.5" x="0" y="211.5" class="st7"/></g><g id="shape6-23" transform="translate(0,-53.5469)"><title>Rectangle.57</title><g id="shadow6-24" class="st5" transform="matrix(1,0,0,1,0.3456,1.9728)"><rect width="27" height="13.5" x="0" y="211.5" class="st6"/></g><rect width="27" height="13.5" x="0" y="211.5" class="st7"/></g><g id="shape7-27" transform="translate(27,-53.5469)"><title>Rectangle.58</title><g id="shadow7-28" class="st5" transform="matrix(1,0,0,1,0.3456,1.9728)"><rect width="27" height="13.5" x="0" y="211.5" class="st6"/></g><rect width="27" height="13.5" x="0" y="211.5" class="st7"/></g><g id="shape8-31" transform="translate(54,-53.5469)"><title>Rectangle.59</title><g id="shadow8-32" class="st5" transform="matrix(1,0,0,1,0.3456,1.9728)"><rect width="27" height="13.5" x="0" y="211.5" class="st6"/></g><rect width="27" height="13.5" x="0" y="211.5" class="st7"/></g><g id="shape9-35" transform="translate(5.625,-72.6719)"><title>Sheet.9</title><desc>BF-1</desc><rect width="72" height="27" x="0" y="198" class="st8"/><text x="23.29" y="215.7" class="st9">BF-1</text></g><g id="shape10-38" transform="translate(128.25,-65.0781)"><title>Rectangle.74</title><g id="shadow10-39" class="st5" transform="matrix(1,0,0,1,0.3456,1.9728)"><rect width="27" height="13.5" x="0" y="211.5" class="st6"/></g><rect width="27" height="13.5" x="0" y="211.5" class="st7"/></g><g id="shape11-42" transform="translate(155.25,-65.0781)"><title>Rectangle.75</title><g id="shadow11-43" class="st5" transform="matrix(1,0,0,1,0.3456,1.9728)"><rect width="27" height="13.5" x="0" y="211.5" class="st6"/></g><rect width="27" height="13.5" x="0" y="211.5" class="st7"/></g><g id="shape12-46" transform="translate(182.25,-65.0781)"><title>Rectangle.76</title><g id="shadow12-47" class="st5" transform="matrix(1,0,0,1,0.3456,1.9728)"><rect width="27" height="13.5" x="0" y="211.5" class="st6"/></g><rect width="27" height="13.5" x="0" y="211.5" class="st7"/></g><g id="shape13-50" transform="translate(128.25,-51.5781)"><title>Rectangle.77</title><g id="shadow13-51" class="st5" transform="matrix(1,0,0,1,0.3456,1.9728)"><rect width="27" height="13.5" x="0" y="211.5" class="st6"/></g><rect width="27" height="13.5" x="0" y="211.5" class="st7"/></g><g id="shape14-54" transform="translate(155.25,-51.5781)"><title>Rectangle.78</title><g id="shadow14-55" class="st5" transform="matrix(1,0,0,1,0.3456,1.9728)"><rect width="27" height="13.5" x="0" y="211.5" class="st6"/></g><rect width="27" height="13.5" x="0" y="211.5" class="st7"/></g><g id="shape15-58" transform="translate(182.25,-51.5781)"><title>Rectangle.79</title><g id="shadow15-59" class="st5" transform="matrix(1,0,0,1,0.3456,1.9728)"><rect width="27" height="13.5" x="0" y="211.5" class="st6"/></g><rect width="27" height="13.5" x="0" y="211.5" class="st7"/></g><g id="shape16-62" transform="translate(301.5,-65.0781)"><title>Rectangle.81</title><g id="shadow16-63" class="st5" transform="matrix(1,0,0,1,0.3456,1.9728)"><rect width="27" height="13.5" x="0" y="211.5" class="st6"/></g><rect width="27" height="13.5" x="0" y="211.5" class="st7"/></g><g id="shape17-66" transform="translate(328.5,-65.0781)"><title>Rectangle.82</title><g id="shadow17-67" class="st5" transform="matrix(1,0,0,1,0.3456,1.9728)"><rect width="27" height="13.5" x="0" y="211.5" class="st6"/></g><rect width="27" height="13.5" x="0" y="211.5" class="st7"/></g><g id="shape18-70" transform="translate(355.5,-65.0781)"><title>Rectangle.83</title><g id="shadow18-71" class="st5" transform="matrix(1,0,0,1,0.3456,1.9728)"><rect width="27" height="13.5" x="0" y="211.5" class="st6"/></g><rect width="27" height="13.5" x="0" y="211.5" class="st7"/></g><g id="shape19-74" transform="translate(301.5,-51.5781)"><title>Rectangle.84</title><g id="shadow19-75" class="st5" transform="matrix(1,0,0,1,0.3456,1.9728)"><rect width="27" height="13.5" x="0" y="211.5" class="st6"/></g><rect width="27" height="13.5" x="0" y="211.5" class="st7"/></g><g id="shape20-78" transform="translate(328.5,-51.5781)"><title>Rectangle.85</title><g id="shadow20-79" class="st5" transform="matrix(1,0,0,1,0.3456,1.9728)"><rect width="27" height="13.5" x="0" y="211.5" class="st6"/></g><rect width="27" height="13.5" x="0" y="211.5" class="st7"/></g><g id="shape21-82" transform="translate(355.5,-51.5781)"><title>Rectangle.86</title><g id="shadow21-83" class="st5" transform="matrix(1,0,0,1,0.3456,1.9728)"><rect width="27" height="13.5" x="0" y="211.5" class="st6"/></g><rect width="27" height="13.5" x="0" y="211.5" class="st7"/></g><g id="shape22-86" transform="translate(447.75,-65.6406)"><title>Rectangle.88</title><g id="shadow22-87" class="st5" transform="matrix(1,0,0,1,0.3456,1.9728)"><rect width="27" height="13.5" x="0" y="211.5" class="st6"/></g><rect width="27" height="13.5" x="0" y="211.5" class="st7"/></g><g id="shape23-90" transform="translate(474.75,-65.6406)"><title>Rectangle.89</title><g id="shadow23-91" class="st5" transform="matrix(1,0,0,1,0.3456,1.9728)"><rect width="27" height="13.5" x="0" y="211.5" class="st6"/></g><rect width="27" height="13.5" x="0" y="211.5" class="st7"/></g><g id="shape24-94" transform="translate(501.75,-65.6406)"><title>Rectangle.90</title><g id="shadow24-95" class="st5" transform="matrix(1,0,0,1,0.3456,1.9728)"><rect width="27" height="13.5" x="0" y="211.5" class="st6"/></g><rect width="27" height="13.5" x="0" y="211.5" class="st7"/></g><g id="shape25-98" transform="translate(447.75,-52.1406)"><title>Rectangle.91</title><g id="shadow25-99" class="st5" transform="matrix(1,0,0,1,0.3456,1.9728)"><rect width="27" height="13.5" x="0" y="211.5" class="st6"/></g><rect width="27" height="13.5" x="0" y="211.5" class="st7"/></g><g id="shape26-102" transform="translate(474.75,-52.1406)"><title>Rectangle.92</title><g id="shadow26-103" class="st5" transform="matrix(1,0,0,1,0.3456,1.9728)"><rect width="27" height="13.5" x="0" y="211.5" class="st6"/></g><rect width="27" height="13.5" x="0" y="211.5" class="st7"/></g><g id="shape27-106" transform="translate(501.75,-52.1406)"><title>Rectangle.93</title><g id="shadow27-107" class="st5" transform="matrix(1,0,0,1,0.3456,1.9728)"><rect width="27" height="13.5" x="0" y="211.5" class="st6"/></g><rect width="27" height="13.5" x="0" y="211.5" class="st7"/></g><g id="shape28-110" transform="translate(213.75,-63.9531)"><title>Sheet.28</title><path d="M0 225 L83.25 225" class="st10"/></g><g id="shape29-113" transform="translate(387,-63.9531)"><title>Sheet.29</title><path d="M0 225 L54 225" class="st10"/></g><g id="group31-116" transform="translate(184.5,-113.172)"><title>Sheet.31</title><g id="shape32-117" transform="translate(225,173.25) rotate(90)"><title>Block Arrow</title><g id="shadow32-118" class="st5"><path d="M0 225 L25.87 225 L51.75 177.75 L25.87 130.5 L0 130.5 L0 225 Z" class="st11" transform="matrix(1,0,0,1,1.9728,-0.3456)"/></g><path d="M0 225 L25.87 225 L51.75 177.75 L25.87 130.5 L0 130.5 L0 225 Z" class="st12"/></g><g id="shape33-121" transform="translate(2.25,-24.3529)"><title>Sheet.33</title><desc>h1, h2 .. hk</desc><rect width="90" height="18.265" x="0" y="206.735" class="st8"/><text x="17.56" y="219.47" class="st13">h1, h2 .. hk</text></g></g><g id="shape34-124" transform="translate(307.011,286.73) rotate(152.323)"><title>Sheet.34</title><path d="M0 225 L128.85 225" class="st3"/></g><g id="shape35-129" transform="translate(433.272,125.452) rotate(99.7172)"><title>Sheet.35</title><path d="M0 225 L58.31 225" class="st3"/></g><g id="shape36-134" transform="translate(407.724,-64.1459) rotate(45)"><title>Sheet.36</title><path d="M0 225 L79.16 225" class="st3"/></g><g id="shape37-139" transform="translate(320.441,-127.12) rotate(15.6155)"><title>Sheet.37</title><path d="M0 225 L200.75 225" class="st3"/></g><g id="shape38-144" transform="translate(132.75,-75.2588)"><title>Sheet.38</title><desc>BF-2</desc><rect width="72" height="27" x="0" y="198" class="st8"/><text x="23.29" y="215.7" class="st9">BF-2</text></g><g id="shape39-147" transform="translate(303.75,-70.7588)"><title>Sheet.39</title><desc>BF-X</desc><rect width="72" height="27" x="0" y="198" class="st8"/><text x="23.2" y="215.7" class="st9">BF-X</text></g><g id="shape40-150" transform="translate(447.75,-75.2588)"><title>Sheet.40</title><desc>BF-L</desc><rect width="72" height="27" x="0" y="198" class="st8"/><text x="23.89" y="215.7" class="st9">BF-L</text></g><g id="shape41-153" transform="translate(300.375,-117)"><title>Sheet.41</title><desc>Hashing for lookup/Insertion into a vector of BFs happens once</desc><rect width="180" height="45" x="0" y="180" class="st8"/><text x="4.6" y="198.9" class="st14">Hashing for lookup/Insertion into a <tspan x="23.06" class="st15" dy="1.2em">vector of BFs happens once</tspan></text></g><g id="shape44-157" transform="translate(249.698,-151.505) rotate(-3.74012)"><title>Sheet.44</title><path d="M-0 225 A93.4958 45.6256 42.23 0 1 79.38 221.66 L79.68 221.85" class="st16"/></g><g id="shape45-163" transform="translate(30.375,0.25)"><title>Sheet.45</title><desc>Lookup/Insertion is done in the series of BFs, one by one or ...</desc><rect width="466.096" height="45" x="0" y="180" class="st8"/><text x="4.34" y="206.1" class="st14">Lookup/Insertion is done in the series of BFs, one by one or can be optimized to do in parallel.</text></g><g id="shape46-166" transform="translate(123.252,-43.6868) rotate(17.0249)"><title>Sheet.46</title><path d="M-0 225 A88.2185 43.0621 47.63 0 1 70.31 221.39 L70.6 221.6" class="st16"/></g></g></g></svg>