<svg xmlns="http://www.w3.org/2000/svg" xmlns:ev="http://www.w3.org/2001/xml-events" xmlns:xlink="http://www.w3.org/1999/xlink" width="509.262" height="188.3" class="st15" color-interpolation-filters="sRGB" viewBox="0 0 381.946 141.225" xml:space="preserve"><style type="text/css">.st1{visibility:visible}.st2,.st3{fill:#5b9bd5}.st2,.st3,.st4{stroke-width:.25}.st2{fill-opacity:.22;stroke:#5b9bd5;stroke-opacity:.22}.st3{stroke:#c8c8c8}.st4{fill:none;stroke:none}.st5{fill:#fff;font-family:Calibri;font-size:1.16666em;font-weight:700}.st6,.st7{stroke:#5b9bd5}.st6{marker-end:url(#mrkr5-14);stroke-linecap:round;stroke-linejoin:round;stroke-width:1}.st7{fill:#5b9bd5;fill-opacity:1;stroke-opacity:1;stroke-width:.28409090909091}.st8,.st9{fill:#5b9bd5;font-family:Calibri;font-size:.833336em}.st9{font-size:.75em}.st10,.st11{stroke:#5b9bd5;stroke-linecap:round;stroke-linejoin:round;stroke-width:1}.st11{marker-end:url(#mrkr5-63);stroke:#000;stroke-width:.75}.st12{fill:#000;fill-opacity:1;stroke:#000;stroke-opacity:1;stroke-width:.22935779816514}.st13{fill:#000;font-family:Calibri;font-size:1.00001em}.st14{font-size:1em}.st15{fill:none;fill-rule:evenodd;font-size:12px;overflow:visible;stroke-linecap:square;stroke-miterlimit:3}</style><defs id="Markers"><g id="lend5"><path d="M 2 1 L 0 0 L 1.98117 -0.993387 C 1.67173 -0.364515 1.67301 0.372641 1.98465 1.00043" style="stroke:none"/></g><marker id="mrkr5-14" class="st7" markerUnits="strokeWidth" orient="auto" overflow="visible" refX="-6.16"><use transform="scale(-3.52,-3.52)" xlink:href="#lend5"/></marker><marker id="mrkr5-63" class="st12" markerUnits="strokeWidth" orient="auto" overflow="visible" refX="-7.15"><use transform="scale(-4.36,-4.36)" xlink:href="#lend5"/></marker></defs><g><title>Page-1</title><g id="group1-1" transform="translate(191.995,-19.4751)"><title>Sheet.1</title><g id="shape2-2" transform="translate(146.944,42.2251) rotate(90)"><title>Triangle</title><g id="shadow2-3" class="st1"><path d="M99 141.23 L49.5 58.62 L0 141.23 L99 141.23 Z" class="st2" transform="matrix(1,0,0,1,1.9728,-0.3456)"/></g><path d="M99 141.23 L49.5 58.62 L0 141.23 L99 141.23 Z" class="st3"/></g><g id="shape3-6" transform="translate(0,-34.65)"><title>Sheet.3</title><desc>vBF</desc><rect width="76.25" height="29.7" x="0" y="111.525" class="st4"/><text x="27.68" y="130.58" class="st5">vBF</text></g></g><g id="shape4-9" transform="translate(126.724,-100.475)"><title>Sheet.4</title><path d="M0 141.23 L64.83 141.23" class="st6"/></g><g id="shape5-15" transform="translate(103.5,-101.775)"><title>Sheet.5</title><desc>Flow Key</desc><rect width="79.824" height="10.725" x="0" y="130.5" class="st4"/><text x="21.78" y="138.86" class="st8">Flow Key</text></g><g id="shape6-18" transform="translate(221.726,-56.2468) rotate(-24.5123)"><title>Sheet.6</title><path d="M0 141.23 L65.42 141.23" class="st6"/></g><g id="shape7-23" transform="translate(280.318,-68.9751)"><title>Sheet.7</title><path d="M0 141.23 L64.83 141.23" class="st6"/></g><g id="shape8-28" transform="translate(338.125,-56.6022) rotate(24.1625)"><title>Sheet.8</title><path d="M0 141.23 L70.8 141.23" class="st6"/></g><g id="shape9-33" transform="translate(197.714,217.975) rotate(180)"><title>Sheet.9</title><path d="M0 141.23 L51.03 141.23" class="st6"/></g><g id="shape10-38" transform="translate(18,-67.5)"><title>Sheet.10</title><desc>New Flow =&gt; New Assignment</desc><rect width="160.84" height="13.5" x="0" y="127.725" class="st4"/><text x="25.11" y="137.18" class="st9">New Flow =&gt; New Assignment</text></g><g id="shape11-41" transform="translate(198.032,253.975) rotate(180)"><title>Sheet.11</title><path d="M0 141.23 L51.03 141.23" class="st6"/></g><g id="shape12-46" transform="translate(0,-31.5)"><title>Sheet.12</title><desc>Old Flow =&gt; forward to specific thread</desc><rect width="162" height="9" x="0" y="132.225" class="st4"/><text x="11.04" y="139.43" class="st9">Old Flow =&gt; forward to specific thread</text></g><g id="shape13-49" transform="translate(494.552,22.75) rotate(90)"><title>Sheet.13</title><path d="M0 134.49 C3.18 142.89 7.57 142.28 11.25 138.99 C15.79 134.93 19.26 126.78 27 134.49" class="st10"/></g><g id="shape14-52" transform="translate(494.552,58.75) rotate(90)"><title>Sheet.14</title><path d="M0 134.49 C3.18 142.89 7.57 142.28 11.25 138.99 C15.79 134.93 19.26 126.78 27 134.49" class="st10"/></g><g id="shape15-55" transform="translate(494.552,94.75) rotate(90)"><title>Sheet.15</title><path d="M0 134.49 C3.18 142.89 7.57 142.28 11.25 138.99 C15.79 134.93 19.26 126.78 27 134.49" class="st10"/></g><g id="shape17-58" transform="translate(348.769,-25.0593) rotate(44.5185)"><title>Sheet.17</title><path d="M-0 141.23 A35.1884 19.2595 167.75 0 1 42.43 138.27 L42.74 138.46" class="st11"/></g><g id="shape18-64" transform="translate(222.188,-5.40005)"><title>Sheet.18</title><desc>A BF corresponding to each worker thread</desc><rect width="118.125" height="27" x="0" y="114.225" class="st4"/><text x="5.14" y="124.13" class="st13">A BF corresponding to <tspan x="11.19" class="st14" dy="1.2em">each worker thread</tspan></text></g></g></svg>