<svg xmlns="http://www.w3.org/2000/svg" xmlns:svg="http://www.w3.org/2000/svg" id="svg2" width="721.636" height="182.366" version="1.1"><defs id="defs4"><marker id="Arrow1Mstart" orient="auto" refX="0" refY="0" style="overflow:visible"><path id="path4669" d="M 0,0 5,-5 -12.5,0 5,5 0,0 z" transform="matrix(0.4,0,0,0.4,4,0)" style="fill-rule:evenodd;stroke:#000;stroke-width:1pt;marker-start:none"/></marker><marker id="Arrow1Mend" orient="auto" refX="0" refY="0" style="overflow:visible"><path id="path4672" d="M 0,0 5,-5 -12.5,0 5,5 0,0 z" transform="matrix(-0.4,0,0,-0.4,-4,0)" style="fill-rule:evenodd;stroke:#000;stroke-width:1pt;marker-start:none"/></marker><marker id="Arrow1Lend" orient="auto" refX="0" refY="0" style="overflow:visible"><path id="path4666" d="M 0,0 5,-5 -12.5,0 5,5 0,0 z" transform="matrix(-0.8,0,0,-0.8,-10,0)" style="fill-rule:evenodd;stroke:#000;stroke-width:1pt;marker-start:none"/></marker><marker id="Arrow1Mend-1" orient="auto" refX="0" refY="0" style="overflow:visible"><path id="path4672-1" d="M 0,0 5,-5 -12.5,0 5,5 0,0 z" transform="matrix(-0.4,0,0,-0.4,-4,0)" style="fill-rule:evenodd;stroke:#000;stroke-width:1pt;marker-start:none"/></marker><marker id="Arrow1Mend-0" orient="auto" refX="0" refY="0" style="overflow:visible"><path id="path4672-3" d="M 0,0 5,-5 -12.5,0 5,5 0,0 z" transform="matrix(-0.4,0,0,-0.4,-4,0)" style="fill-rule:evenodd;stroke:#000;stroke-width:1pt;marker-start:none"/></marker><marker id="Arrow1Mend-6" orient="auto" refX="0" refY="0" style="overflow:visible"><path id="path4672-9" d="M 0,0 5,-5 -12.5,0 5,5 0,0 z" transform="matrix(-0.4,0,0,-0.4,-4,0)" style="fill-rule:evenodd;stroke:#000;stroke-width:1pt;marker-start:none"/></marker></defs><metadata id="metadata7"/><g id="layer1" transform="translate(-9.3094645,-454.23035)"><rect style="fill:#aeda00;fill-opacity:1;stroke:none" id="rect3590" width="28.307" height="14.153" x="79.789" y="499.666" rx="0" ry="0"/><rect style="fill:#8a0;fill-opacity:1;stroke:none" id="rect3590-9" width="28.307" height="14.153" x="108.096" y="499.666" rx="0" ry="0"/><rect style="fill:#668000;fill-opacity:1;stroke:none" id="rect3590-3" width="28.307" height="14.153" x="136.403" y="499.666" rx="0" ry="0"/><rect style="fill:#aeda00;fill-opacity:1;stroke:none" id="rect3590-94" width="28.307" height="14.153" x="164.709" y="499.666" rx="0" ry="0"/><rect style="fill:#8a0;fill-opacity:1;stroke:none" id="rect3590-8" width="28.307" height="14.153" x="193.016" y="499.666" rx="0" ry="0"/><rect style="fill:#668000;fill-opacity:1;stroke:none" id="rect3590-5" width="28.307" height="14.153" x="221.323" y="499.666" rx="0" ry="0"/><rect style="fill:#aeda00;fill-opacity:1;stroke:none" id="rect3590-36" width="28.307" height="14.153" x="249.63" y="499.666" rx="0" ry="0"/><rect style="fill:#8a0;fill-opacity:1;stroke:none" id="rect3590-6" width="28.307" height="14.153" x="277.937" y="499.666" rx="0" ry="0"/><rect style="fill:#668000;fill-opacity:1;stroke:none" id="rect3590-2" width="28.307" height="14.153" x="306.243" y="499.666" rx="0" ry="0"/><rect style="fill:#aeda00;fill-opacity:1;stroke:none" id="rect3590-1" width="28.307" height="14.153" x="334.55" y="499.666" rx="0" ry="0"/><rect style="fill:#8a0;fill-opacity:1;stroke:none" id="rect3590-54" width="28.307" height="14.153" x="362.857" y="499.666" rx="0" ry="0"/><rect style="fill:#668000;fill-opacity:1;stroke:none" id="rect3590-56" width="28.307" height="14.153" x="391.164" y="499.666" rx="0" ry="0"/><rect style="fill:#aeda00;fill-opacity:1;stroke:none" id="rect3590-37" width="28.307" height="14.153" x="419.471" y="499.666" rx="0" ry="0"/><rect style="fill:#8a0;fill-opacity:1;stroke:none" id="rect3590-25" width="28.307" height="14.153" x="447.777" y="499.666" rx="0" ry="0"/><rect style="fill:#668000;fill-opacity:1;stroke:none" id="rect3590-4" width="28.307" height="14.153" x="476.084" y="499.666" rx="0" ry="0"/><rect style="fill:#aeda00;fill-opacity:1;stroke:none" id="rect3590-0" width="28.307" height="14.153" x="504.391" y="499.666" rx="0" ry="0"/><rect style="fill:#8a0;fill-opacity:1;stroke:none" id="rect3590-68" width="28.307" height="14.153" x="532.698" y="499.666" rx="0" ry="0"/><rect style="fill:#668000;fill-opacity:1;stroke:none" id="rect3590-43" width="28.307" height="14.153" x="561.005" y="499.666" rx="0" ry="0"/><rect style="fill:#aeda00;fill-opacity:1;stroke:none" id="rect3590-92" width="28.307" height="14.153" x="589.311" y="499.666" rx="0" ry="0"/><rect style="fill:#8a0;fill-opacity:1;stroke:none" id="rect3590-926" width="28.307" height="14.153" x="617.618" y="499.666" rx="0" ry="0"/><rect style="fill:#668000;fill-opacity:1;stroke:none" id="rect3590-49" width="28.307" height="14.153" x="645.925" y="499.666" rx="0" ry="0"/><rect style="fill:#aeda00;fill-opacity:1;stroke:none" id="rect3590-48" width="28.307" height="14.153" x="674.232" y="499.666" rx="0" ry="0"/><rect style="fill:#8a0;fill-opacity:1;stroke:none" id="rect3590-7" width="28.307" height="14.153" x="702.539" y="499.666" rx="0" ry="0"/><rect style="fill:#c8b7b7;fill-opacity:1;stroke:none" id="rect3590-67" width="28.307" height="14.153" x="79.789" y="527.973" rx="0" ry="0"/><rect style="fill:#c8b7b7;fill-opacity:1;stroke:none" id="rect3590-9-3" width="28.307" height="14.153" x="108.096" y="527.973" rx="0" ry="0"/><rect style="fill:#c8b7b7;fill-opacity:1;stroke:none" id="rect3590-3-6" width="28.307" height="14.153" x="136.403" y="527.973" rx="0" ry="0"/><rect style="fill:#c8b7b7;fill-opacity:1;stroke:none" id="rect3590-94-5" width="28.307" height="14.153" x="164.709" y="527.973" rx="0" ry="0"/><rect style="fill:gray;fill-opacity:1;stroke:none" id="rect3590-8-6" width="28.307" height="14.153" x="193.016" y="527.973" rx="0" ry="0"/><rect style="fill:gray;fill-opacity:1;stroke:none" id="rect3590-5-3" width="28.307" height="14.153" x="221.323" y="527.973" rx="0" ry="0"/><rect style="fill:gray;fill-opacity:1;stroke:none" id="rect3590-36-9" width="28.307" height="14.153" x="249.63" y="527.973" rx="0" ry="0"/><rect style="fill:gray;fill-opacity:1;stroke:none" id="rect3590-6-4" width="28.307" height="14.153" x="277.937" y="527.973" rx="0" ry="0"/><rect style="fill:#c8b7b7;fill-opacity:1;stroke:none" id="rect3590-2-8" width="28.307" height="14.153" x="306.243" y="527.973" rx="0" ry="0"/><rect style="fill:#c8b7b7;fill-opacity:1;stroke:none" id="rect3590-1-1" width="28.307" height="14.153" x="334.55" y="527.973" rx="0" ry="0"/><rect style="fill:#c8b7b7;fill-opacity:1;stroke:none" id="rect3590-54-2" width="28.307" height="14.153" x="362.857" y="527.973" rx="0" ry="0"/><rect style="fill:#c8b7b7;fill-opacity:1;stroke:none" id="rect3590-56-9" width="28.307" height="14.153" x="391.164" y="527.973" rx="0" ry="0"/><rect style="fill:gray;fill-opacity:1;stroke:none" id="rect3590-37-3" width="28.307" height="14.153" x="419.471" y="527.973" rx="0" ry="0"/><rect style="fill:gray;fill-opacity:1;stroke:none" id="rect3590-25-9" width="28.307" height="14.153" x="447.777" y="527.973" rx="0" ry="0"/><rect style="fill:gray;fill-opacity:1;stroke:none" id="rect3590-4-0" width="28.307" height="14.153" x="476.084" y="527.973" rx="0" ry="0"/><rect style="fill:gray;fill-opacity:1;stroke:none" id="rect3590-0-8" width="28.307" height="14.153" x="504.391" y="527.973" rx="0" ry="0"/><rect style="fill:#c8b7b7;fill-opacity:1;stroke:none" id="rect3590-68-8" width="28.307" height="14.153" x="532.698" y="527.973" rx="0" ry="0"/><rect style="fill:#c8b7b7;fill-opacity:1;stroke:none" id="rect3590-43-5" width="28.307" height="14.153" x="561.005" y="527.973" rx="0" ry="0"/><rect style="fill:#c8b7b7;fill-opacity:1;stroke:none" id="rect3590-92-0" width="28.307" height="14.153" x="589.311" y="527.973" rx="0" ry="0"/><rect style="fill:#c8b7b7;fill-opacity:1;stroke:none" id="rect3590-926-9" width="28.307" height="14.153" x="617.618" y="527.973" rx="0" ry="0"/><rect style="fill:gray;fill-opacity:1;stroke:none" id="rect3590-49-6" width="28.307" height="14.153" x="645.925" y="527.973" rx="0" ry="0"/><rect style="fill:gray;fill-opacity:1;stroke:none" id="rect3590-48-3" width="28.307" height="14.153" x="674.232" y="527.973" rx="0" ry="0"/><rect style="fill:gray;fill-opacity:1;stroke:none" id="rect3590-7-8" width="28.307" height="14.153" x="702.539" y="527.973" rx="0" ry="0"/><rect style="fill:#008fff;fill-opacity:1;stroke:none" id="rect3590-61" width="28.307" height="14.153" x="79.789" y="542.127" rx="0" ry="0"/><rect style="fill:#008fff;fill-opacity:1;stroke:none" id="rect3590-9-1" width="28.307" height="14.153" x="108.096" y="542.127" rx="0" ry="0"/><rect style="fill:#008fff;fill-opacity:1;stroke:none" id="rect3590-3-5" width="28.307" height="14.153" x="136.403" y="542.127" rx="0" ry="0"/><rect style="fill:#008fff;fill-opacity:1;stroke:none" id="rect3590-94-9" width="28.307" height="14.153" x="164.709" y="542.127" rx="0" ry="0"/><rect style="fill:#008fff;fill-opacity:1;stroke:none" id="rect3590-8-8" width="28.307" height="14.153" x="193.016" y="542.127" rx="0" ry="0"/><rect style="fill:#008fff;fill-opacity:1;stroke:none" id="rect3590-5-4" width="28.307" height="14.153" x="221.323" y="542.127" rx="0" ry="0"/><rect style="fill:#008fff;fill-opacity:1;stroke:none" id="rect3590-36-8" width="28.307" height="14.153" x="249.63" y="542.127" rx="0" ry="0"/><rect style="fill:#008fff;fill-opacity:1;stroke:none" id="rect3590-6-1" width="28.307" height="14.153" x="277.937" y="542.127" rx="0" ry="0"/><rect style="fill:#008fff;fill-opacity:1;stroke:none" id="rect3590-2-0" width="28.307" height="14.153" x="306.243" y="542.127" rx="0" ry="0"/><rect style="fill:#008fff;fill-opacity:1;stroke:none" id="rect3590-1-3" width="28.307" height="14.153" x="334.55" y="542.127" rx="0" ry="0"/><rect style="fill:#008fff;fill-opacity:1;stroke:none" id="rect3590-54-0" width="28.307" height="14.153" x="362.857" y="542.127" rx="0" ry="0"/><rect style="fill:#008fff;fill-opacity:1;stroke:none" id="rect3590-56-4" width="28.307" height="14.153" x="391.164" y="542.127" rx="0" ry="0"/><rect style="fill:#008fff;fill-opacity:1;stroke:none" id="rect3590-37-4" width="28.307" height="14.153" x="419.471" y="542.127" rx="0" ry="0"/><rect style="fill:#008fff;fill-opacity:1;stroke:none" id="rect3590-25-4" width="28.307" height="14.153" x="447.777" y="542.127" rx="0" ry="0"/><rect style="fill:#008fff;fill-opacity:1;stroke:none" id="rect3590-4-4" width="28.307" height="14.153" x="476.084" y="542.127" rx="0" ry="0"/><rect style="fill:#008fff;fill-opacity:1;stroke:none" id="rect3590-0-7" width="28.307" height="14.153" x="504.391" y="542.127" rx="0" ry="0"/><rect style="fill:#008fff;fill-opacity:1;stroke:none" id="rect3590-68-6" width="28.307" height="14.153" x="532.698" y="542.127" rx="0" ry="0"/><rect style="fill:#008fff;fill-opacity:1;stroke:none" id="rect3590-43-3" width="28.307" height="14.153" x="561.005" y="542.127" rx="0" ry="0"/><rect style="fill:#008fff;fill-opacity:1;stroke:none" id="rect3590-92-1" width="28.307" height="14.153" x="589.311" y="542.127" rx="0" ry="0"/><rect style="fill:#008fff;fill-opacity:1;stroke:none" id="rect3590-926-7" width="28.307" height="14.153" x="617.618" y="542.127" rx="0" ry="0"/><rect style="fill:#008fff;fill-opacity:1;stroke:none" id="rect3590-49-5" width="28.307" height="14.153" x="645.925" y="542.127" rx="0" ry="0"/><rect style="fill:#008fff;fill-opacity:1;stroke:none" id="rect3590-48-9" width="28.307" height="14.153" x="674.232" y="542.127" rx="0" ry="0"/><rect style="fill:#008fff;fill-opacity:1;stroke:none" id="rect3590-7-6" width="28.307" height="14.153" x="702.539" y="542.127" rx="0" ry="0"/><rect style="fill:#a40;fill-opacity:1;stroke:none" id="rect3590-17" width="28.307" height="14.153" x="79.789" y="513.82" rx="0" ry="0"/><rect style="fill:#a40;fill-opacity:1;stroke:none" id="rect3590-9-8" width="28.307" height="14.153" x="108.096" y="513.82" rx="0" ry="0"/><rect style="fill:#d45500;fill-opacity:1;stroke:none" id="rect3590-3-57" width="28.307" height="14.153" x="136.403" y="513.82" rx="0" ry="0"/><rect style="fill:#d45500;fill-opacity:1;stroke:none" id="rect3590-94-4" width="28.307" height="14.153" x="164.709" y="513.82" rx="0" ry="0"/><rect style="fill:#a40;fill-opacity:1;stroke:none" id="rect3590-8-1" width="28.307" height="14.153" x="193.016" y="513.82" rx="0" ry="0"/><rect style="fill:#a40;fill-opacity:1;stroke:none" id="rect3590-5-8" width="28.307" height="14.153" x="221.323" y="513.82" rx="0" ry="0"/><rect style="fill:#d45500;fill-opacity:1;stroke:none" id="rect3590-36-5" width="28.307" height="14.153" x="249.63" y="513.82" rx="0" ry="0"/><rect style="fill:#d45500;fill-opacity:1;stroke:none" id="rect3590-6-9" width="28.307" height="14.153" x="277.937" y="513.82" rx="0" ry="0"/><rect style="fill:#a40;fill-opacity:1;stroke:none" id="rect3590-2-7" width="28.307" height="14.153" x="306.243" y="513.82" rx="0" ry="0"/><rect style="fill:#a40;fill-opacity:1;stroke:none" id="rect3590-1-5" width="28.307" height="14.153" x="334.55" y="513.82" rx="0" ry="0"/><rect style="fill:#d45500;fill-opacity:1;stroke:none" id="rect3590-54-3" width="28.307" height="14.153" x="362.857" y="513.82" rx="0" ry="0"/><rect style="fill:#d45500;fill-opacity:1;stroke:none" id="rect3590-56-8" width="28.307" height="14.153" x="391.164" y="513.82" rx="0" ry="0"/><rect style="fill:#a40;fill-opacity:1;stroke:none" id="rect3590-37-8" width="28.307" height="14.153" x="419.471" y="513.82" rx="0" ry="0"/><rect style="fill:#a40;fill-opacity:1;stroke:none" id="rect3590-25-3" width="28.307" height="14.153" x="447.777" y="513.82" rx="0" ry="0"/><rect style="fill:#d45500;fill-opacity:1;stroke:none" id="rect3590-4-1" width="28.307" height="14.153" x="476.084" y="513.82" rx="0" ry="0"/><rect style="fill:#d45500;fill-opacity:1;stroke:none" id="rect3590-0-89" width="28.307" height="14.153" x="504.391" y="513.82" rx="0" ry="0"/><rect style="fill:#a40;fill-opacity:1;stroke:none" id="rect3590-68-64" width="28.307" height="14.153" x="532.698" y="513.82" rx="0" ry="0"/><rect style="fill:#a40;fill-opacity:1;stroke:none" id="rect3590-43-33" width="28.307" height="14.153" x="561.005" y="513.82" rx="0" ry="0"/><rect style="fill:#d45500;fill-opacity:1;stroke:none" id="rect3590-92-3" width="28.307" height="14.153" x="589.311" y="513.82" rx="0" ry="0"/><rect style="fill:#d45500;fill-opacity:1;stroke:none" id="rect3590-926-8" width="28.307" height="14.153" x="617.618" y="513.82" rx="0" ry="0"/><rect style="fill:#a40;fill-opacity:1;stroke:none" id="rect3590-49-60" width="28.307" height="14.153" x="645.925" y="513.82" rx="0" ry="0"/><rect style="fill:#a40;fill-opacity:1;stroke:none" id="rect3590-48-4" width="28.307" height="14.153" x="674.232" y="513.82" rx="0" ry="0"/><rect style="fill:#d45500;fill-opacity:1;stroke:none" id="rect3590-7-88" width="28.307" height="14.153" x="702.539" y="513.82" rx="0" ry="0"/><text style="font-size:12.18360996px;font-style:normal;font-weight:400;fill:#000;fill-opacity:1;stroke:none;font-family:Bitstream Vera Sans" id="text4268" x="21.945" y="510.97" xml:space="preserve"><tspan id="tspan4270" x="21.945" y="510.97">Channel</tspan></text><text style="font-size:12.18360996px;font-style:normal;font-weight:400;fill:#000;fill-opacity:1;stroke:none;font-family:Bitstream Vera Sans" id="text4272" x="33.021" y="525.124" xml:space="preserve"><tspan id="tspan4274" x="33.021" y="525.124">Rank</tspan></text><text style="font-size:12.18360996px;font-style:normal;font-weight:400;fill:#000;fill-opacity:1;stroke:none;font-family:Bitstream Vera Sans" id="text4276" x="261.322" y="572.176" xml:space="preserve"><tspan id="tspan4278" x="261.322" y="572.176">packet 1</tspan></text><text style="font-size:12.18360996px;font-style:normal;font-weight:400;fill:#000;fill-opacity:1;stroke:none;font-family:Bitstream Vera Sans" id="text4276-8" x="579.703" y="572.176" xml:space="preserve"><tspan id="tspan4278-9" x="579.703" y="572.176">packet 2</tspan></text><text style="font-size:12.18360996px;font-style:normal;font-weight:400;fill:#000;fill-opacity:1;stroke:none;font-family:Bitstream Vera Sans" id="text4316" x="89.635" y="511.278" xml:space="preserve"><tspan id="tspan4320" x="89.635" y="511.278">0</tspan></text><text style="font-size:12.18360996px;font-style:normal;font-weight:400;fill:#000;fill-opacity:1;stroke:none;font-family:Bitstream Vera Sans" id="text4324" x="118.557" y="511.284" xml:space="preserve"><tspan id="tspan4326" x="118.557" y="511.284">1</tspan></text><text style="font-size:12.18360996px;font-style:normal;font-weight:400;fill:#000;fill-opacity:1;stroke:none;font-family:Bitstream Vera Sans" id="text4316-4-0" x="175.041" y="511.278" xml:space="preserve"><tspan id="tspan4320-3-9" x="175.041" y="511.278">0</tspan></text><text style="font-size:12.18360996px;font-style:normal;font-weight:400;fill:#000;fill-opacity:1;stroke:none;font-family:Bitstream Vera Sans" id="text4324-0-9" x="206.93" y="511.284" xml:space="preserve"><tspan id="tspan4326-3-2" x="206.93" y="511.284">1</tspan></text><text style="font-size:12.18360996px;font-style:normal;font-weight:400;fill:#000;fill-opacity:1;stroke:none;font-family:Bitstream Vera Sans" id="text4324-0-5" x="626.558" y="511.284" xml:space="preserve"><tspan id="tspan4326-3-4" x="626.558" y="511.284">1</tspan></text><text style="font-size:12.18360996px;font-style:normal;font-weight:400;fill:#000;fill-opacity:1;stroke:none;font-family:Bitstream Vera Sans" id="text4324-0-1" x="158.575" y="525.101" xml:space="preserve"><tspan id="tspan4326-3-28" x="158.575" y="525.101">1</tspan></text><text style="font-size:12.18360996px;font-style:normal;font-weight:400;fill:#000;fill-opacity:1;stroke:none;font-family:Bitstream Vera Sans" id="text4324-0-3" x="386.27" y="525.101" xml:space="preserve"><tspan id="tspan4326-3-6" x="386.27" y="525.101">1</tspan></text><text style="font-size:12.18360996px;font-style:normal;font-weight:400;fill:#000;fill-opacity:1;stroke:none;font-family:Bitstream Vera Sans" id="text4324-0-2" x="613.965" y="525.101" xml:space="preserve"><tspan id="tspan4326-3-1" x="613.965" y="525.101">1</tspan></text><text style="font-size:12.18360996px;font-style:normal;font-weight:400;fill:#000;fill-opacity:1;stroke:none;font-family:Bitstream Vera Sans" id="text4316-4-05" x="101.761" y="525.096" xml:space="preserve"><tspan id="tspan4320-3-1" x="101.761" y="525.096">0</tspan></text><text style="font-size:12.18360996px;font-style:normal;font-weight:400;fill:#000;fill-opacity:1;stroke:none;font-family:Bitstream Vera Sans" id="text4316-4-08" x="329.456" y="525.096" xml:space="preserve"><tspan id="tspan4320-3-5" x="329.456" y="525.096">0</tspan></text><text style="font-size:12.18360996px;font-style:normal;font-weight:400;fill:#000;fill-opacity:1;stroke:none;font-family:Bitstream Vera Sans" id="text4316-4-6" x="557.151" y="525.096" xml:space="preserve"><tspan id="tspan4320-3-462" x="557.151" y="525.096">0</tspan></text><text style="font-size:12.18360996px;font-style:normal;font-weight:400;fill:#000;fill-opacity:1;stroke:none;font-family:Bitstream Vera Sans" id="text4328-5" x="215.77" y="525.182" xml:space="preserve"><tspan id="tspan4330-8" x="215.77" y="525.182">0</tspan></text><text style="font-size:12.18360996px;font-style:normal;font-weight:400;fill:#000;fill-opacity:1;stroke:none;font-family:Bitstream Vera Sans" id="text4328-2" x="443.465" y="525.182" xml:space="preserve"><tspan id="tspan4330-84" x="443.465" y="525.182">0</tspan></text><text style="font-size:12.18360996px;font-style:normal;font-weight:400;fill:#000;fill-opacity:1;stroke:none;font-family:Bitstream Vera Sans" id="text4328-24" x="671.16" y="525.182" xml:space="preserve"><tspan id="tspan4330-0" x="671.16" y="525.182">0</tspan></text><text style="font-size:12.18360996px;font-style:normal;font-weight:400;fill:#000;fill-opacity:1;stroke:none;font-family:Bitstream Vera Sans" id="text4332-6" x="272.554" y="525.096" xml:space="preserve"><tspan id="tspan4334-2" x="272.554" y="525.096">1</tspan></text><text style="font-size:12.18360996px;font-style:normal;font-weight:400;fill:#000;fill-opacity:1;stroke:none;font-family:Bitstream Vera Sans" id="text4332-9" x="500.248" y="525.096" xml:space="preserve"><tspan id="tspan4334-0" x="500.248" y="525.096">1</tspan></text><text style="font-size:12.18360996px;font-style:normal;font-weight:400;fill:#000;fill-opacity:1;stroke:none;font-family:Bitstream Vera Sans" id="text4654" x="68.712" y="464.202" xml:space="preserve"><tspan id="tspan4656" x="68.712" y="464.202">memory addresses</tspan></text><path style="fill:none;stroke:#000;stroke-width:1.21836102px;stroke-linecap:butt;stroke-linejoin:miter;stroke-opacity:1;marker-end:url(#Arrow1Mend)" id="path4658" d="m 157.32493,467.27924 45.53702,0"/><text style="font-size:12.18360996px;font-style:normal;font-weight:400;fill:#000;fill-opacity:1;stroke:none;font-family:Bitstream Vera Sans" id="text4654-0" x="89.551" y="598.225" xml:space="preserve"><tspan id="tspan4656-3" x="89.551" y="598.225">pkt0 starts at</tspan><tspan id="tspan5744" x="89.551" y="613.455">channel 0, rank 1</tspan></text><path style="fill:none;stroke:#000;stroke-width:1.21836102px;stroke-linecap:butt;stroke-linejoin:miter;stroke-opacity:1;marker-end:url(#Arrow1Mend)" id="path4658-4" d="m 82.623257,606.68185 0,-45.53702"/><path style="fill:none;stroke:#000;stroke-width:1.21836102px;stroke-linecap:butt;stroke-linejoin:miter;stroke-opacity:1;marker-end:url(#Arrow1Mend)" id="path4658-4-9" d="m 543.77432,606.19331 0,-45.53702"/><text style="font-size:12.18360996px;font-style:normal;font-weight:400;fill:#000;fill-opacity:1;stroke:none;font-family:Bitstream Vera Sans" id="text4654-0-1" x="547.476" y="603.503" xml:space="preserve"><tspan id="tspan4656-3-9" x="547.476" y="603.503">pkt2 starts at</tspan><tspan id="tspan5746" x="547.476" y="618.733">channel 1, rank 0</tspan><tspan id="tspan8239" x="547.476" y="633.962">(no padding needed)</tspan></text><path style="fill:none;stroke:#000;stroke-width:1.21836102px;stroke-linecap:butt;stroke-linejoin:miter;stroke-opacity:1;marker-start:url(#Arrow1Mstart);marker-end:url(#Arrow1Mend)" id="path4658-3" d="m 422.11522,471.5868 23.99924,0"/><text style="font-size:12.18360996px;font-style:normal;font-weight:400;fill:#000;fill-opacity:1;stroke:none;font-family:Bitstream Vera Sans" id="text5607" x="394.241" y="463.587" xml:space="preserve"><tspan id="tspan5609" x="394.241" y="463.587">64 bytes wide</tspan></text><text style="font-size:12.18360996px;font-style:normal;font-weight:400;fill:#000;fill-opacity:1;stroke:none;font-family:Bitstream Vera Sans" id="text5611" x="88.404" y="493.74" xml:space="preserve"><tspan id="tspan5613" x="88.404" y="493.74">0</tspan></text><text style="font-size:12.18360996px;font-style:normal;font-weight:400;fill:#000;fill-opacity:1;stroke:none;font-family:Bitstream Vera Sans" id="text5615" x="117.381" y="493.746" xml:space="preserve"><tspan id="tspan5617" x="117.381" y="493.746">1</tspan></text><text style="font-size:12.18360996px;font-style:normal;font-weight:400;fill:#000;fill-opacity:1;stroke:none;font-family:Bitstream Vera Sans" id="text5619" x="146.137" y="493.826" xml:space="preserve"><tspan id="tspan5621" x="146.137" y="493.826">2</tspan></text><text style="font-size:12.18360996px;font-style:normal;font-weight:400;fill:#000;fill-opacity:1;stroke:none;font-family:Bitstream Vera Sans" id="text5623" x="174.555" y="493.74" xml:space="preserve"><tspan id="tspan5625" x="174.555" y="493.74">3</tspan></text><text style="font-size:12.18360996px;font-style:normal;font-weight:400;fill:#000;fill-opacity:1;stroke:none;font-family:Bitstream Vera Sans" id="text5627" x="202.924" y="493.746" xml:space="preserve"><tspan id="tspan5629" x="202.924" y="493.746">4</tspan></text><text style="font-size:12.18360996px;font-style:normal;font-weight:400;fill:#000;fill-opacity:1;stroke:none;font-family:Bitstream Vera Sans" id="text5631" x="231.966" y="493.66" xml:space="preserve"><tspan id="tspan5633" x="231.966" y="493.66">5</tspan></text><text style="font-size:12.18360996px;font-style:normal;font-weight:400;fill:#000;fill-opacity:1;stroke:none;font-family:Bitstream Vera Sans" id="text5635" x="260.33" y="493.74" xml:space="preserve"><tspan id="tspan5637" x="260.33" y="493.74">6</tspan></text><text style="font-size:12.18360996px;font-style:normal;font-weight:400;fill:#000;fill-opacity:1;stroke:none;font-family:Bitstream Vera Sans" id="text5639" x="289.265" y="493.746" xml:space="preserve"><tspan id="tspan5641" x="289.265" y="493.746">7</tspan></text><text style="font-size:12.18360996px;font-style:normal;font-weight:400;fill:#000;fill-opacity:1;stroke:none;font-family:Bitstream Vera Sans" id="text5643" x="317.718" y="493.74" xml:space="preserve"><tspan id="tspan5645" x="317.718" y="493.74">8</tspan></text><text style="font-size:12.18360996px;font-style:normal;font-weight:400;fill:#000;fill-opacity:1;stroke:none;font-family:Bitstream Vera Sans" id="text5647" x="346.403" y="493.74" xml:space="preserve"><tspan id="tspan5649" x="346.403" y="493.74">9</tspan></text><text style="font-size:12.18360996px;font-style:normal;font-weight:400;fill:#000;fill-opacity:1;stroke:none;font-family:Bitstream Vera Sans" id="text5651" x="373.726" y="493.746" xml:space="preserve"><tspan id="tspan5653" x="373.726" y="493.746">A</tspan></text><text style="font-size:12.18360996px;font-style:normal;font-weight:400;fill:#000;fill-opacity:1;stroke:none;font-family:Bitstream Vera Sans" id="text5655" x="403.125" y="493.746" xml:space="preserve"><tspan id="tspan5657" x="403.125" y="493.746">B</tspan></text><text style="font-size:12.18360996px;font-style:normal;font-weight:400;fill:#000;fill-opacity:1;stroke:none;font-family:Bitstream Vera Sans" id="text5659" x="431.435" y="493.74" xml:space="preserve"><tspan id="tspan5661" x="431.435" y="493.74">C</tspan></text><text style="font-size:12.18360996px;font-style:normal;font-weight:400;fill:#000;fill-opacity:1;stroke:none;font-family:Bitstream Vera Sans" id="text5663" x="459.282" y="493.746" xml:space="preserve"><tspan id="tspan5665" x="459.282" y="493.746">D</tspan></text><text style="font-size:12.18360996px;font-style:normal;font-weight:400;fill:#000;fill-opacity:1;stroke:none;font-family:Bitstream Vera Sans" id="text5667" x="489.686" y="493.746" xml:space="preserve"><tspan id="tspan5669" x="489.686" y="493.746">E</tspan></text><text style="font-size:12.18360996px;font-style:normal;font-weight:400;fill:#000;fill-opacity:1;stroke:none;font-family:Bitstream Vera Sans" id="text5671" x="518.966" y="493.746" xml:space="preserve"><tspan id="tspan5673" x="518.966" y="493.746">F</tspan></text><text style="font-size:12.18360996px;font-style:normal;font-weight:400;fill:#000;fill-opacity:1;stroke:none;font-family:Bitstream Vera Sans" id="text5675" x="539.227" y="493.74" xml:space="preserve"><tspan id="tspan5677" x="539.227" y="493.74">10</tspan></text><text style="font-size:12.18360996px;font-style:normal;font-weight:400;fill:#000;fill-opacity:1;stroke:none;font-family:Bitstream Vera Sans" id="text5679" x="568.204" y="493.746" xml:space="preserve"><tspan id="tspan5681" x="568.204" y="493.746">11</tspan></text><text style="font-size:12.18360996px;font-style:normal;font-weight:400;fill:#000;fill-opacity:1;stroke:none;font-family:Bitstream Vera Sans" id="text5683" x="596.961" y="493.826" xml:space="preserve"><tspan id="tspan5685" x="596.961" y="493.826">12</tspan></text><text style="font-size:12.18360996px;font-style:normal;font-weight:400;fill:#000;fill-opacity:1;stroke:none;font-family:Bitstream Vera Sans" id="text5687" x="625.378" y="493.74" xml:space="preserve"><tspan id="tspan5689" x="625.378" y="493.74">13</tspan></text><text style="font-size:12.18360996px;font-style:normal;font-weight:400;fill:#000;fill-opacity:1;stroke:none;font-family:Bitstream Vera Sans" id="text5691" x="653.748" y="493.746" xml:space="preserve"><tspan id="tspan5693" x="653.748" y="493.746">14</tspan></text><text style="font-size:12.18360996px;font-style:normal;font-weight:400;fill:#000;fill-opacity:1;stroke:none;font-family:Bitstream Vera Sans" id="text5695" x="682.79" y="493.66" xml:space="preserve"><tspan id="tspan5697" x="682.79" y="493.66">15</tspan></text><text style="font-size:12.18360996px;font-style:normal;font-weight:400;fill:#000;fill-opacity:1;stroke:none;font-family:Bitstream Vera Sans" id="text5699" x="711.154" y="493.74" xml:space="preserve"><tspan id="tspan5701" x="711.154" y="493.74">...</tspan></text><text style="font-size:12.18360996px;font-style:normal;font-weight:400;fill:#000;fill-opacity:1;stroke:none;font-family:Bitstream Vera Sans" id="text4268-3" x="8.214" y="492.768" xml:space="preserve"><tspan id="tspan4270-8" x="8.214" y="492.768">Block num</tspan></text><flowRoot id="flowRoot5728" xml:space="preserve" style="font-size:10px;font-style:normal;font-weight:400;fill:#000;fill-opacity:1;stroke:none;font-family:Bitstream Vera Sans"><flowRegion id="flowRegion5730"><rect id="rect5732" width="110.612" height="25.254" x="314.663" y="435.664"/></flowRegion><flowPara id="flowPara5734"/></flowRoot><flowRoot id="flowRoot5736" xml:space="preserve" style="font-size:10px;font-style:normal;font-weight:400;fill:#000;fill-opacity:1;stroke:none;font-family:Bitstream Vera Sans"><flowRegion id="flowRegion5738"><rect id="rect5740" width="32.83" height="11.617" x="356.584" y="428.088"/></flowRegion><flowPara id="flowPara5742"/></flowRoot><text style="font-size:12.18360996px;font-style:normal;font-weight:400;fill:#000;fill-opacity:1;stroke:none;font-family:Bitstream Vera Sans" id="text5611-0" x="88.641" y="553.558" xml:space="preserve"><tspan id="tspan5613-5" x="88.641" y="553.558">0</tspan></text><text style="font-size:12.18360996px;font-style:normal;font-weight:400;fill:#000;fill-opacity:1;stroke:none;font-family:Bitstream Vera Sans" id="text5615-6" x="117.618" y="553.564" xml:space="preserve"><tspan id="tspan5617-6" x="117.618" y="553.564">1</tspan></text><text style="font-size:12.18360996px;font-style:normal;font-weight:400;fill:#000;fill-opacity:1;stroke:none;font-family:Bitstream Vera Sans" id="text5619-4" x="146.375" y="553.644" xml:space="preserve"><tspan id="tspan5621-0" x="146.375" y="553.644">2</tspan></text><text style="font-size:12.18360996px;font-style:normal;font-weight:400;fill:#000;fill-opacity:1;stroke:none;font-family:Bitstream Vera Sans" id="text5623-0" x="174.792" y="553.558" xml:space="preserve"><tspan id="tspan5625-4" x="174.792" y="553.558">3</tspan></text><text style="font-size:12.18360996px;font-style:normal;font-weight:400;fill:#000;fill-opacity:1;stroke:none;font-family:Bitstream Vera Sans" id="text5627-6" x="203.162" y="553.564" xml:space="preserve"><tspan id="tspan5629-2" x="203.162" y="553.564">4</tspan></text><text style="font-size:12.18360996px;font-style:normal;font-weight:400;fill:#000;fill-opacity:1;stroke:none;font-family:Bitstream Vera Sans" id="text5631-6" x="232.204" y="553.477" xml:space="preserve"><tspan id="tspan5633-7" x="232.204" y="553.477">5</tspan></text><text style="font-size:12.18360996px;font-style:normal;font-weight:400;fill:#000;fill-opacity:1;stroke:none;font-family:Bitstream Vera Sans" id="text5635-5" x="260.568" y="553.558" xml:space="preserve"><tspan id="tspan5637-6" x="260.568" y="553.558">6</tspan></text><text style="font-size:12.18360996px;font-style:normal;font-weight:400;fill:#000;fill-opacity:1;stroke:none;font-family:Bitstream Vera Sans" id="text5639-9" x="289.503" y="553.564" xml:space="preserve"><tspan id="tspan5641-8" x="289.503" y="553.564">7</tspan></text><text style="font-size:12.18360996px;font-style:normal;font-weight:400;fill:#000;fill-opacity:1;stroke:none;font-family:Bitstream Vera Sans" id="text5643-7" x="317.956" y="553.558" xml:space="preserve"><tspan id="tspan5645-2" x="317.956" y="553.558">8</tspan></text><text style="font-size:12.18360996px;font-style:normal;font-weight:400;fill:#000;fill-opacity:1;stroke:none;font-family:Bitstream Vera Sans" id="text5647-8" x="346.641" y="553.558" xml:space="preserve"><tspan id="tspan5649-2" x="346.641" y="553.558">9</tspan></text><text style="font-size:12.18360996px;font-style:normal;font-weight:400;fill:#000;fill-opacity:1;stroke:none;font-family:Bitstream Vera Sans" id="text5651-9" x="373.964" y="553.564" xml:space="preserve"><tspan id="tspan5653-9" x="373.964" y="553.564">A</tspan></text><text style="font-size:12.18360996px;font-style:normal;font-weight:400;fill:#000;fill-opacity:1;stroke:none;font-family:Bitstream Vera Sans" id="text5655-6" x="403.363" y="553.564" xml:space="preserve"><tspan id="tspan5657-0" x="403.363" y="553.564">B</tspan></text><text style="font-size:12.18360996px;font-style:normal;font-weight:400;fill:#000;fill-opacity:1;stroke:none;font-family:Bitstream Vera Sans" id="text5659-2" x="431.673" y="553.558" xml:space="preserve"><tspan id="tspan5661-7" x="431.673" y="553.558">C</tspan></text><text style="font-size:12.18360996px;font-style:normal;font-weight:400;fill:#000;fill-opacity:1;stroke:none;font-family:Bitstream Vera Sans" id="text5663-6" x="459.519" y="553.564" xml:space="preserve"><tspan id="tspan5665-1" x="459.519" y="553.564">D</tspan></text><text style="font-size:12.18360996px;font-style:normal;font-weight:400;fill:#000;fill-opacity:1;stroke:none;font-family:Bitstream Vera Sans" id="text5667-3" x="489.924" y="553.564" xml:space="preserve"><tspan id="tspan5669-2" x="489.924" y="553.564">E</tspan></text><text style="font-size:12.18360996px;font-style:normal;font-weight:400;fill:#000;fill-opacity:1;stroke:none;font-family:Bitstream Vera Sans" id="text5671-1" x="519.204" y="553.564" xml:space="preserve"><tspan id="tspan5673-5" x="519.204" y="553.564">F</tspan></text><text style="font-size:12.18360996px;font-style:normal;font-weight:400;fill:#000;fill-opacity:1;stroke:none;font-family:Bitstream Vera Sans" id="text5611-0-4" x="541.681" y="553.558" xml:space="preserve"><tspan id="tspan5613-5-8" x="541.681" y="553.558">0</tspan></text><text style="font-size:12.18360996px;font-style:normal;font-weight:400;fill:#000;fill-opacity:1;stroke:none;font-family:Bitstream Vera Sans" id="text5615-6-0" x="570.657" y="553.564" xml:space="preserve"><tspan id="tspan5617-6-4" x="570.657" y="553.564">1</tspan></text><text style="font-size:12.18360996px;font-style:normal;font-weight:400;fill:#000;fill-opacity:1;stroke:none;font-family:Bitstream Vera Sans" id="text5619-4-2" x="599.414" y="553.644" xml:space="preserve"><tspan id="tspan5621-0-9" x="599.414" y="553.644">2</tspan></text><text style="font-size:12.18360996px;font-style:normal;font-weight:400;fill:#000;fill-opacity:1;stroke:none;font-family:Bitstream Vera Sans" id="text5623-0-6" x="627.831" y="553.558" xml:space="preserve"><tspan id="tspan5625-4-1" x="627.831" y="553.558">3</tspan></text><text style="font-size:12.18360996px;font-style:normal;font-weight:400;fill:#000;fill-opacity:1;stroke:none;font-family:Bitstream Vera Sans" id="text4328-5-0" x="146.528" y="511.498" xml:space="preserve"><tspan id="tspan4330-8-6" x="146.528" y="511.498">2</tspan></text><text style="font-size:12.18360996px;font-style:normal;font-weight:400;fill:#000;fill-opacity:1;stroke:none;font-family:Bitstream Vera Sans" id="text4324-3" x="543.391" y="510.772" xml:space="preserve"><tspan id="tspan4326-2" x="543.391" y="510.772">1</tspan></text><text style="font-size:12.18360996px;font-style:normal;font-weight:400;fill:#000;fill-opacity:1;stroke:none;font-family:Bitstream Vera Sans" id="text4316-4-0-0" x="599.875" y="510.766" xml:space="preserve"><tspan id="tspan4320-3-9-6" x="599.875" y="510.766">0</tspan></text><text style="font-size:12.18360996px;font-style:normal;font-weight:400;fill:#000;fill-opacity:1;stroke:none;font-family:Bitstream Vera Sans" id="text4328-5-0-1" x="571.362" y="510.986" xml:space="preserve"><tspan id="tspan4330-8-6-5" x="571.362" y="510.986">2</tspan></text><text style="font-size:12.18360996px;font-style:normal;font-weight:400;fill:#000;fill-opacity:1;stroke:none;font-family:Bitstream Vera Sans" id="text4272-5" x="33.475" y="540.454" xml:space="preserve"><tspan id="tspan4274-4" x="33.475" y="540.454">DIMM</tspan></text><text style="font-size:12.18360996px;font-style:normal;font-weight:400;fill:#000;fill-opacity:1;stroke:none;font-family:Bitstream Vera Sans" id="text4328-5-7" x="133.749" y="538.914" xml:space="preserve"><tspan id="tspan4330-8-65" x="133.749" y="538.914">0</tspan></text><text style="font-size:12.18360996px;font-style:normal;font-weight:400;fill:#000;fill-opacity:1;stroke:none;font-family:Bitstream Vera Sans" id="text4328-5-9" x="359.581" y="538.914" xml:space="preserve"><tspan id="tspan4330-8-3" x="359.581" y="538.914">0</tspan></text><text style="font-size:12.18360996px;font-style:normal;font-weight:400;fill:#000;fill-opacity:1;stroke:none;font-family:Bitstream Vera Sans" id="text4328-5-4" x="585.413" y="538.914" xml:space="preserve"><tspan id="tspan4330-8-5" x="585.413" y="538.914">0</tspan></text><text style="font-size:12.18360996px;font-style:normal;font-weight:400;fill:#000;fill-opacity:1;stroke:none;font-family:Bitstream Vera Sans" id="text4332-9-2" x="471.734" y="538.92" xml:space="preserve"><tspan id="tspan4334-0-5" x="471.734" y="538.92">1</tspan></text><text style="font-size:12.18360996px;font-style:normal;font-weight:400;fill:#000;fill-opacity:1;stroke:none;font-family:Bitstream Vera Sans" id="text4332-9-7" x="245.467" y="538.92" xml:space="preserve"><tspan id="tspan4334-0-4" x="245.467" y="538.92">1</tspan></text><text style="font-size:12.18360996px;font-style:normal;font-weight:400;fill:#000;fill-opacity:1;stroke:none;font-family:Bitstream Vera Sans" id="text4332-9-0" x="699.742" y="538.92" xml:space="preserve"><tspan id="tspan4334-0-7" x="699.742" y="538.92">1</tspan></text></g></svg>