<svg xmlns="http://www.w3.org/2000/svg" xmlns:svg="http://www.w3.org/2000/svg" id="svg2" width="717.595" height="165.089" version="1.1"><defs id="defs4"><marker id="Arrow1Mstart" orient="auto" refX="0" refY="0" style="overflow:visible"><path id="path4669" d="M 0,0 5,-5 -12.5,0 5,5 0,0 z" transform="matrix(0.4,0,0,0.4,4,0)" style="fill-rule:evenodd;stroke:#000;stroke-width:1pt;marker-start:none"/></marker><marker id="Arrow1Mend" orient="auto" refX="0" refY="0" style="overflow:visible"><path id="path4672" d="M 0,0 5,-5 -12.5,0 5,5 0,0 z" transform="matrix(-0.4,0,0,-0.4,-4,0)" style="fill-rule:evenodd;stroke:#000;stroke-width:1pt;marker-start:none"/></marker><marker id="Arrow1Lend" orient="auto" refX="0" refY="0" style="overflow:visible"><path id="path4666" d="M 0,0 5,-5 -12.5,0 5,5 0,0 z" transform="matrix(-0.8,0,0,-0.8,-10,0)" style="fill-rule:evenodd;stroke:#000;stroke-width:1pt;marker-start:none"/></marker><marker id="Arrow1Mend-1" orient="auto" refX="0" refY="0" style="overflow:visible"><path id="path4672-1" d="M 0,0 5,-5 -12.5,0 5,5 0,0 z" transform="matrix(-0.4,0,0,-0.4,-4,0)" style="fill-rule:evenodd;stroke:#000;stroke-width:1pt;marker-start:none"/></marker><marker id="Arrow1Mend-0" orient="auto" refX="0" refY="0" style="overflow:visible"><path id="path4672-3" d="M 0,0 5,-5 -12.5,0 5,5 0,0 z" transform="matrix(-0.4,0,0,-0.4,-4,0)" style="fill-rule:evenodd;stroke:#000;stroke-width:1pt;marker-start:none"/></marker><marker id="Arrow1Mend-6" orient="auto" refX="0" refY="0" style="overflow:visible"><path id="path4672-9" d="M 0,0 5,-5 -12.5,0 5,5 0,0 z" transform="matrix(-0.4,0,0,-0.4,-4,0)" style="fill-rule:evenodd;stroke:#000;stroke-width:1pt;marker-start:none"/></marker></defs><metadata id="metadata7"/><g id="layer1" transform="translate(-9.3094651,-454.23034)"><rect style="fill:#8a0;fill-opacity:1;stroke:none" id="rect3590" width="28.148" height="14.074" x="79.395" y="499.412" rx="0" ry="0"/><rect style="fill:#668000;fill-opacity:1;stroke:none" id="rect3590-9" width="28.148" height="14.074" x="107.543" y="499.412" rx="0" ry="0"/><rect style="fill:#8a0;fill-opacity:1;stroke:none" id="rect3590-3" width="28.148" height="14.074" x="135.691" y="499.412" rx="0" ry="0"/><rect style="fill:#668000;fill-opacity:1;stroke:none" id="rect3590-94" width="28.148" height="14.074" x="163.84" y="499.412" rx="0" ry="0"/><rect style="fill:#8a0;fill-opacity:1;stroke:none" id="rect3590-8" width="28.148" height="14.074" x="191.988" y="499.412" rx="0" ry="0"/><rect style="fill:#668000;fill-opacity:1;stroke:none" id="rect3590-5" width="28.148" height="14.074" x="220.136" y="499.412" rx="0" ry="0"/><rect style="fill:#8a0;fill-opacity:1;stroke:none" id="rect3590-36" width="28.148" height="14.074" x="248.284" y="499.412" rx="0" ry="0"/><rect style="fill:#668000;fill-opacity:1;stroke:none" id="rect3590-6" width="28.148" height="14.074" x="276.433" y="499.412" rx="0" ry="0"/><rect style="fill:#8a0;fill-opacity:1;stroke:none" id="rect3590-2" width="28.148" height="14.074" x="304.581" y="499.412" rx="0" ry="0"/><rect style="fill:#668000;fill-opacity:1;stroke:none" id="rect3590-1" width="28.148" height="14.074" x="332.729" y="499.412" rx="0" ry="0"/><rect style="fill:#8a0;fill-opacity:1;stroke:none" id="rect3590-54" width="28.148" height="14.074" x="360.877" y="499.412" rx="0" ry="0"/><rect style="fill:#668000;fill-opacity:1;stroke:none" id="rect3590-56" width="28.148" height="14.074" x="389.026" y="499.412" rx="0" ry="0"/><rect style="fill:#8a0;fill-opacity:1;stroke:none" id="rect3590-37" width="28.148" height="14.074" x="417.174" y="499.412" rx="0" ry="0"/><rect style="fill:#668000;fill-opacity:1;stroke:none" id="rect3590-25" width="28.148" height="14.074" x="445.322" y="499.412" rx="0" ry="0"/><rect style="fill:#8a0;fill-opacity:1;stroke:none" id="rect3590-4" width="28.148" height="14.074" x="473.47" y="499.412" rx="0" ry="0"/><rect style="fill:#668000;fill-opacity:1;stroke:none" id="rect3590-0" width="28.148" height="14.074" x="501.619" y="499.412" rx="0" ry="0"/><rect style="fill:#8a0;fill-opacity:1;stroke:none" id="rect3590-68" width="28.148" height="14.074" x="529.767" y="499.412" rx="0" ry="0"/><rect style="fill:#668000;fill-opacity:1;stroke:none" id="rect3590-43" width="28.148" height="14.074" x="557.915" y="499.412" rx="0" ry="0"/><rect style="fill:#8a0;fill-opacity:1;stroke:none" id="rect3590-92" width="28.148" height="14.074" x="586.063" y="499.412" rx="0" ry="0"/><rect style="fill:#668000;fill-opacity:1;stroke:none" id="rect3590-926" width="28.148" height="14.074" x="614.212" y="499.412" rx="0" ry="0"/><rect style="fill:#8a0;fill-opacity:1;stroke:none" id="rect3590-49" width="28.148" height="14.074" x="642.36" y="499.412" rx="0" ry="0"/><rect style="fill:#668000;fill-opacity:1;stroke:none" id="rect3590-48" width="28.148" height="14.074" x="670.508" y="499.412" rx="0" ry="0"/><rect style="fill:#8a0;fill-opacity:1;stroke:none" id="rect3590-7" width="28.148" height="14.074" x="698.657" y="499.412" rx="0" ry="0"/><rect style="fill:#c8b7b7;fill-opacity:1;stroke:none" id="rect3590-67" width="28.148" height="14.074" x="79.395" y="527.561" rx="0" ry="0"/><rect style="fill:#c8b7b7;fill-opacity:1;stroke:none" id="rect3590-9-3" width="28.148" height="14.074" x="107.543" y="527.561" rx="0" ry="0"/><rect style="fill:#c8b7b7;fill-opacity:1;stroke:none" id="rect3590-3-6" width="28.148" height="14.074" x="135.691" y="527.561" rx="0" ry="0"/><rect style="fill:#c8b7b7;fill-opacity:1;stroke:none" id="rect3590-94-5" width="28.148" height="14.074" x="163.84" y="527.561" rx="0" ry="0"/><rect style="fill:#c8b7b7;fill-opacity:1;stroke:none" id="rect3590-8-6" width="28.148" height="14.074" x="191.988" y="527.561" rx="0" ry="0"/><rect style="fill:#c8b7b7;fill-opacity:1;stroke:none" id="rect3590-5-3" width="28.148" height="14.074" x="220.136" y="527.561" rx="0" ry="0"/><rect style="fill:#c8b7b7;fill-opacity:1;stroke:none" id="rect3590-36-9" width="28.148" height="14.074" x="248.284" y="527.561" rx="0" ry="0"/><rect style="fill:#c8b7b7;fill-opacity:1;stroke:none" id="rect3590-6-4" width="28.148" height="14.074" x="276.433" y="527.561" rx="0" ry="0"/><rect style="fill:#c8b7b7;fill-opacity:1;stroke:none" id="rect3590-2-8" width="28.148" height="14.074" x="304.581" y="527.561" rx="0" ry="0"/><rect style="fill:#c8b7b7;fill-opacity:1;stroke:none" id="rect3590-1-1" width="28.148" height="14.074" x="332.729" y="527.561" rx="0" ry="0"/><rect style="fill:#c8b7b7;fill-opacity:1;stroke:none" id="rect3590-54-2" width="28.148" height="14.074" x="360.877" y="527.561" rx="0" ry="0"/><rect style="fill:#c8b7b7;fill-opacity:1;stroke:none" id="rect3590-56-9" width="28.148" height="14.074" x="389.026" y="527.561" rx="0" ry="0"/><rect style="fill:#c8b7b7;fill-opacity:1;stroke:none" id="rect3590-37-3" width="28.148" height="14.074" x="417.174" y="527.561" rx="0" ry="0"/><rect style="fill:#c8b7b7;fill-opacity:1;stroke:none" id="rect3590-25-9" width="28.148" height="14.074" x="445.322" y="527.561" rx="0" ry="0"/><rect style="fill:#c8b7b7;fill-opacity:1;stroke:none" id="rect3590-4-0" width="28.148" height="14.074" x="473.47" y="527.561" rx="0" ry="0"/><rect style="fill:#c8b7b7;fill-opacity:1;stroke:none" id="rect3590-0-8" width="28.148" height="14.074" x="501.619" y="527.561" rx="0" ry="0"/><rect style="fill:#c8b7b7;fill-opacity:1;stroke:none" id="rect3590-68-8" width="28.148" height="14.074" x="529.767" y="527.561" rx="0" ry="0"/><rect style="fill:#c8b7b7;fill-opacity:1;stroke:none" id="rect3590-43-5" width="28.148" height="14.074" x="557.915" y="527.561" rx="0" ry="0"/><rect style="fill:#c8b7b7;fill-opacity:1;stroke:none" id="rect3590-92-0" width="28.148" height="14.074" x="586.063" y="527.561" rx="0" ry="0"/><rect style="fill:#c8b7b7;fill-opacity:1;stroke:none" id="rect3590-926-9" width="28.148" height="14.074" x="614.212" y="527.561" rx="0" ry="0"/><rect style="fill:#c8b7b7;fill-opacity:1;stroke:none" id="rect3590-49-6" width="28.148" height="14.074" x="642.36" y="527.561" rx="0" ry="0"/><rect style="fill:#c8b7b7;fill-opacity:1;stroke:none" id="rect3590-48-3" width="28.148" height="14.074" x="670.508" y="527.561" rx="0" ry="0"/><rect style="fill:#c8b7b7;fill-opacity:1;stroke:none" id="rect3590-7-8" width="28.148" height="14.074" x="698.657" y="527.561" rx="0" ry="0"/><rect style="fill:#008fff;fill-opacity:1;stroke:none" id="rect3590-61" width="28.148" height="14.074" x="79.395" y="541.635" rx="0" ry="0"/><rect style="fill:#008fff;fill-opacity:1;stroke:none" id="rect3590-9-1" width="28.148" height="14.074" x="107.543" y="541.635" rx="0" ry="0"/><rect style="fill:#008fff;fill-opacity:1;stroke:none" id="rect3590-3-5" width="28.148" height="14.074" x="135.691" y="541.635" rx="0" ry="0"/><rect style="fill:#008fff;fill-opacity:1;stroke:none" id="rect3590-94-9" width="28.148" height="14.074" x="163.84" y="541.635" rx="0" ry="0"/><rect style="fill:#008fff;fill-opacity:1;stroke:none" id="rect3590-8-8" width="28.148" height="14.074" x="191.988" y="541.635" rx="0" ry="0"/><rect style="fill:#008fff;fill-opacity:1;stroke:none" id="rect3590-5-4" width="28.148" height="14.074" x="220.136" y="541.635" rx="0" ry="0"/><rect style="fill:#008fff;fill-opacity:1;stroke:none" id="rect3590-36-8" width="28.148" height="14.074" x="248.284" y="541.635" rx="0" ry="0"/><rect style="fill:#008fff;fill-opacity:1;stroke:none" id="rect3590-6-1" width="28.148" height="14.074" x="276.433" y="541.635" rx="0" ry="0"/><rect style="fill:#008fff;fill-opacity:1;stroke:none" id="rect3590-2-0" width="28.148" height="14.074" x="304.581" y="541.635" rx="0" ry="0"/><rect style="fill:#008fff;fill-opacity:1;stroke:none" id="rect3590-1-3" width="28.148" height="14.074" x="332.729" y="541.635" rx="0" ry="0"/><rect style="fill:#008fff;fill-opacity:1;stroke:none" id="rect3590-54-0" width="28.148" height="14.074" x="360.877" y="541.635" rx="0" ry="0"/><rect style="fill:#008fff;fill-opacity:1;stroke:none" id="rect3590-56-4" width="28.148" height="14.074" x="389.026" y="541.635" rx="0" ry="0"/><rect style="fill:#008fff;fill-opacity:1;stroke:none" id="rect3590-37-4" width="28.148" height="14.074" x="417.174" y="541.635" rx="0" ry="0"/><rect style="fill:#008fff;fill-opacity:1;stroke:none" id="rect3590-25-4" width="28.148" height="14.074" x="445.322" y="541.635" rx="0" ry="0"/><rect style="fill:#008fff;fill-opacity:1;stroke:none" id="rect3590-4-4" width="28.148" height="14.074" x="473.47" y="541.635" rx="0" ry="0"/><rect style="fill:#008fff;fill-opacity:1;stroke:none" id="rect3590-0-7" width="28.148" height="14.074" x="501.619" y="541.635" rx="0" ry="0"/><rect style="fill:#460080;fill-opacity:1;stroke:none" id="rect3590-68-6" width="28.148" height="14.074" x="529.767" y="541.635" rx="0" ry="0"/><rect style="fill:#460080;fill-opacity:1;stroke:none" id="rect3590-43-3" width="28.148" height="14.074" x="557.915" y="541.635" rx="0" ry="0"/><rect style="fill:#460080;fill-opacity:1;stroke:none" id="rect3590-92-1" width="28.148" height="14.074" x="586.064" y="541.635" rx="0" ry="0"/><rect style="fill:#008fff;fill-opacity:1;stroke:none" id="rect3590-926-7" width="28.148" height="14.074" x="614.212" y="541.635" rx="0" ry="0"/><rect style="fill:#008fff;fill-opacity:1;stroke:none" id="rect3590-49-5" width="28.148" height="14.074" x="642.36" y="541.635" rx="0" ry="0"/><rect style="fill:#008fff;fill-opacity:1;stroke:none" id="rect3590-48-9" width="28.148" height="14.074" x="670.508" y="541.635" rx="0" ry="0"/><rect style="fill:#008fff;fill-opacity:1;stroke:none" id="rect3590-7-6" width="28.148" height="14.074" x="698.657" y="541.635" rx="0" ry="0"/><rect style="fill:#a40;fill-opacity:1;stroke:none" id="rect3590-17" width="28.148" height="14.074" x="79.395" y="513.486" rx="0" ry="0"/><rect style="fill:#a40;fill-opacity:1;stroke:none" id="rect3590-9-8" width="28.148" height="14.074" x="107.543" y="513.486" rx="0" ry="0"/><rect style="fill:#d45500;fill-opacity:1;stroke:none" id="rect3590-3-57" width="28.148" height="14.074" x="135.691" y="513.486" rx="0" ry="0"/><rect style="fill:#d45500;fill-opacity:1;stroke:none" id="rect3590-94-4" width="28.148" height="14.074" x="163.84" y="513.486" rx="0" ry="0"/><rect style="fill:#f60;fill-opacity:1;stroke:none" id="rect3590-8-1" width="28.148" height="14.074" x="191.988" y="513.486" rx="0" ry="0"/><rect style="fill:#f60;fill-opacity:1;stroke:none" id="rect3590-5-8" width="28.148" height="14.074" x="220.136" y="513.486" rx="0" ry="0"/><rect style="fill:#ff7f2a;fill-opacity:1;stroke:none" id="rect3590-36-5" width="28.148" height="14.074" x="248.284" y="513.486" rx="0" ry="0"/><rect style="fill:#ff7f2a;fill-opacity:1;stroke:none" id="rect3590-6-9" width="28.148" height="14.074" x="276.433" y="513.486" rx="0" ry="0"/><rect style="fill:#a40;fill-opacity:1;stroke:none" id="rect3590-2-7" width="28.148" height="14.074" x="304.581" y="513.486" rx="0" ry="0"/><rect style="fill:#a40;fill-opacity:1;stroke:none" id="rect3590-1-5" width="28.148" height="14.074" x="332.729" y="513.486" rx="0" ry="0"/><rect style="fill:#d45500;fill-opacity:1;stroke:none" id="rect3590-54-3" width="28.148" height="14.074" x="360.877" y="513.486" rx="0" ry="0"/><rect style="fill:#d45500;fill-opacity:1;stroke:none" id="rect3590-56-8" width="28.148" height="14.074" x="389.026" y="513.486" rx="0" ry="0"/><rect style="fill:#f60;fill-opacity:1;stroke:none" id="rect3590-37-8" width="28.148" height="14.074" x="417.174" y="513.486" rx="0" ry="0"/><rect style="fill:#f60;fill-opacity:1;stroke:none" id="rect3590-25-3" width="28.148" height="14.074" x="445.322" y="513.486" rx="0" ry="0"/><rect style="fill:#ff7f2a;fill-opacity:1;stroke:none" id="rect3590-4-1" width="28.148" height="14.074" x="473.47" y="513.486" rx="0" ry="0"/><rect style="fill:#ff7f2a;fill-opacity:1;stroke:none" id="rect3590-0-89" width="28.148" height="14.074" x="501.619" y="513.486" rx="0" ry="0"/><rect style="fill:#a40;fill-opacity:1;stroke:none" id="rect3590-68-64" width="28.148" height="14.074" x="529.767" y="513.486" rx="0" ry="0"/><rect style="fill:#a40;fill-opacity:1;stroke:none" id="rect3590-43-33" width="28.148" height="14.074" x="557.915" y="513.486" rx="0" ry="0"/><rect style="fill:#d45500;fill-opacity:1;stroke:none" id="rect3590-92-3" width="28.148" height="14.074" x="586.063" y="513.486" rx="0" ry="0"/><rect style="fill:#d45500;fill-opacity:1;stroke:none" id="rect3590-926-8" width="28.148" height="14.074" x="614.212" y="513.486" rx="0" ry="0"/><rect style="fill:#f60;fill-opacity:1;stroke:none" id="rect3590-49-60" width="28.148" height="14.074" x="642.36" y="513.486" rx="0" ry="0"/><rect style="fill:#f60;fill-opacity:1;stroke:none" id="rect3590-48-4" width="28.148" height="14.074" x="670.508" y="513.486" rx="0" ry="0"/><rect style="fill:#ff7f2a;fill-opacity:1;stroke:none" id="rect3590-7-88" width="28.148" height="14.074" x="698.657" y="513.486" rx="0" ry="0"/><text style="font-size:12.11537266px;font-style:normal;font-weight:400;fill:#000;fill-opacity:1;stroke:none;font-family:Bitstream Vera Sans" id="text4268" x="21.874" y="510.653" xml:space="preserve"><tspan id="tspan4270" x="21.874" y="510.653">Channel</tspan></text><text style="font-size:12.11537266px;font-style:normal;font-weight:400;fill:#000;fill-opacity:1;stroke:none;font-family:Bitstream Vera Sans" id="text4272" x="32.889" y="524.727" xml:space="preserve"><tspan id="tspan4274" x="32.889" y="524.727">Rank</tspan></text><text style="font-size:12.11537266px;font-style:normal;font-weight:400;fill:#000;fill-opacity:1;stroke:none;font-family:Bitstream Vera Sans" id="text4276" x="259.911" y="571.516" xml:space="preserve"><tspan id="tspan4278" x="259.911" y="571.516">packet 1</tspan></text><text style="font-size:12.11537266px;font-style:normal;font-weight:400;fill:#000;fill-opacity:1;stroke:none;font-family:Bitstream Vera Sans" id="text4276-8" x="652.999" y="571.516" xml:space="preserve"><tspan id="tspan4278-9" x="652.999" y="571.516">packet 2</tspan></text><text style="font-size:12.11537266px;font-style:normal;font-weight:400;fill:#000;fill-opacity:1;stroke:none;font-family:Bitstream Vera Sans" id="text4276-7" x="547.137" y="571.516" xml:space="preserve"><tspan id="tspan4278-6" x="547.137" y="571.516">padding</tspan></text><text style="font-size:12.11537266px;font-style:normal;font-weight:400;fill:#000;fill-opacity:1;stroke:none;font-family:Bitstream Vera Sans" id="text4316" x="89.185" y="510.959" xml:space="preserve"><tspan id="tspan4320" x="89.185" y="510.959">0</tspan></text><text style="font-size:12.11537266px;font-style:normal;font-weight:400;fill:#000;fill-opacity:1;stroke:none;font-family:Bitstream Vera Sans" id="text4324" x="117.946" y="510.965" xml:space="preserve"><tspan id="tspan4326" x="117.946" y="510.965">1</tspan></text><text style="font-size:12.11537266px;font-style:normal;font-weight:400;fill:#000;fill-opacity:1;stroke:none;font-family:Bitstream Vera Sans" id="text4316-4-0" x="144.69" y="510.959" xml:space="preserve"><tspan id="tspan4320-3-9" x="144.69" y="510.959">0</tspan></text><text style="font-size:12.11537266px;font-style:normal;font-weight:400;fill:#000;fill-opacity:1;stroke:none;font-family:Bitstream Vera Sans" id="text4316-4-5" x="539.99" y="510.959" xml:space="preserve"><tspan id="tspan4320-3-4" x="539.99" y="510.959">0</tspan></text><text style="font-size:12.11537266px;font-style:normal;font-weight:400;fill:#000;fill-opacity:1;stroke:none;font-family:Bitstream Vera Sans" id="text4316-4-59" x="596.898" y="510.959" xml:space="preserve"><tspan id="tspan4320-3-46" x="596.898" y="510.959">0</tspan></text><text style="font-size:12.11537266px;font-style:normal;font-weight:400;fill:#000;fill-opacity:1;stroke:none;font-family:Bitstream Vera Sans" id="text4324-0-9" x="176.401" y="510.965" xml:space="preserve"><tspan id="tspan4326-3-2" x="176.401" y="510.965">1</tspan></text><text style="font-size:12.11537266px;font-style:normal;font-weight:400;fill:#000;fill-opacity:1;stroke:none;font-family:Bitstream Vera Sans" id="text4324-0-4" x="569.277" y="510.965" xml:space="preserve"><tspan id="tspan4326-3-7" x="569.277" y="510.965">1</tspan></text><text style="font-size:12.11537266px;font-style:normal;font-weight:400;fill:#000;fill-opacity:1;stroke:none;font-family:Bitstream Vera Sans" id="text4324-0-5" x="623.101" y="510.965" xml:space="preserve"><tspan id="tspan4326-3-4" x="623.101" y="510.965">1</tspan></text><text style="font-size:12.11537266px;font-style:normal;font-weight:400;fill:#000;fill-opacity:1;stroke:none;font-family:Bitstream Vera Sans" id="text4324-0-1" x="157.74" y="524.705" xml:space="preserve"><tspan id="tspan4326-3-28" x="157.74" y="524.705">1</tspan></text><text style="font-size:12.11537266px;font-style:normal;font-weight:400;fill:#000;fill-opacity:1;stroke:none;font-family:Bitstream Vera Sans" id="text4324-0-3" x="384.159" y="524.705" xml:space="preserve"><tspan id="tspan4326-3-6" x="384.159" y="524.705">1</tspan></text><text style="font-size:12.11537266px;font-style:normal;font-weight:400;fill:#000;fill-opacity:1;stroke:none;font-family:Bitstream Vera Sans" id="text4324-0-2" x="610.579" y="524.705" xml:space="preserve"><tspan id="tspan4326-3-1" x="610.579" y="524.705">1</tspan></text><text style="font-size:12.11537266px;font-style:normal;font-weight:400;fill:#000;fill-opacity:1;stroke:none;font-family:Bitstream Vera Sans" id="text4316-4-05" x="101.244" y="524.699" xml:space="preserve"><tspan id="tspan4320-3-1" x="101.244" y="524.699">0</tspan></text><text style="font-size:12.11537266px;font-style:normal;font-weight:400;fill:#000;fill-opacity:1;stroke:none;font-family:Bitstream Vera Sans" id="text4316-4-08" x="327.664" y="524.699" xml:space="preserve"><tspan id="tspan4320-3-5" x="327.664" y="524.699">0</tspan></text><text style="font-size:12.11537266px;font-style:normal;font-weight:400;fill:#000;fill-opacity:1;stroke:none;font-family:Bitstream Vera Sans" id="text4316-4-6" x="554.084" y="524.699" xml:space="preserve"><tspan id="tspan4320-3-462" x="554.084" y="524.699">0</tspan></text><text style="font-size:12.11537266px;font-style:normal;font-weight:400;fill:#000;fill-opacity:1;stroke:none;font-family:Bitstream Vera Sans" id="text4328-5" x="214.614" y="524.785" xml:space="preserve"><tspan id="tspan4330-8" x="214.614" y="524.785">2</tspan></text><text style="font-size:12.11537266px;font-style:normal;font-weight:400;fill:#000;fill-opacity:1;stroke:none;font-family:Bitstream Vera Sans" id="text4328-2" x="441.034" y="524.785" xml:space="preserve"><tspan id="tspan4330-84" x="441.034" y="524.785">2</tspan></text><text style="font-size:12.11537266px;font-style:normal;font-weight:400;fill:#000;fill-opacity:1;stroke:none;font-family:Bitstream Vera Sans" id="text4328-24" x="667.453" y="524.785" xml:space="preserve"><tspan id="tspan4330-0" x="667.453" y="524.785">2</tspan></text><text style="font-size:12.11537266px;font-style:normal;font-weight:400;fill:#000;fill-opacity:1;stroke:none;font-family:Bitstream Vera Sans" id="text4332-6" x="271.08" y="524.699" xml:space="preserve"><tspan id="tspan4334-2" x="271.08" y="524.699">3</tspan></text><text style="font-size:12.11537266px;font-style:normal;font-weight:400;fill:#000;fill-opacity:1;stroke:none;font-family:Bitstream Vera Sans" id="text4332-9" x="497.499" y="524.699" xml:space="preserve"><tspan id="tspan4334-0" x="497.499" y="524.699">3</tspan></text><text style="font-size:12.11537266px;font-style:normal;font-weight:400;fill:#000;fill-opacity:1;stroke:none;font-family:Bitstream Vera Sans" id="text4654" x="68.38" y="464.147" xml:space="preserve"><tspan id="tspan4656" x="68.38" y="464.147">memory addresses</tspan></text><path style="fill:none;stroke:#000;stroke-width:1.21153724px;stroke-linecap:butt;stroke-linejoin:miter;stroke-opacity:1;marker-end:url(#Arrow1Mend)" id="path4658" d="m 156.49649,467.20671 45.28198,0"/><text style="font-size:12.11537266px;font-style:normal;font-weight:400;fill:#000;fill-opacity:1;stroke:none;font-family:Bitstream Vera Sans" id="text4654-0" x="89.102" y="597.419" xml:space="preserve"><tspan id="tspan4656-3" x="89.102" y="597.419">pkt1 starts at</tspan><tspan id="tspan5744" x="89.102" y="612.564">channel 0, rank 0</tspan></text><path style="fill:none;stroke:#000;stroke-width:1.21153724px;stroke-linecap:butt;stroke-linejoin:miter;stroke-opacity:1;marker-end:url(#Arrow1Mend)" id="path4658-4" d="m 82.213202,605.82856 0,-45.28198"/><path style="fill:none;stroke:#000;stroke-width:1.21153724px;stroke-linecap:butt;stroke-linejoin:miter;stroke-opacity:1;marker-end:url(#Arrow1Mend)" id="path4658-4-9" d="m 617.27129,605.34276 0,-45.28198"/><text style="font-size:12.11537266px;font-style:normal;font-weight:400;fill:#000;fill-opacity:1;stroke:none;font-family:Bitstream Vera Sans" id="text4654-0-1" x="620.952" y="602.668" xml:space="preserve"><tspan id="tspan4656-3-9" x="620.952" y="602.668">pkt2 starts at</tspan><tspan id="tspan5746" x="620.952" y="617.812">channel 1, rank 1</tspan></text><path style="fill:none;stroke:#000;stroke-width:1.21153724px;stroke-linecap:butt;stroke-linejoin:miter;stroke-opacity:1;marker-start:url(#Arrow1Mstart);marker-end:url(#Arrow1Mend)" id="path4658-3" d="m 419.80374,471.49015 23.86482,0"/><text style="font-size:12.11537266px;font-style:normal;font-weight:400;fill:#000;fill-opacity:1;stroke:none;font-family:Bitstream Vera Sans" id="text5607" x="392.085" y="463.535" xml:space="preserve"><tspan id="tspan5609" x="392.085" y="463.535">64 bytes wide</tspan></text><text style="font-size:12.11537266px;font-style:normal;font-weight:400;fill:#000;fill-opacity:1;stroke:none;font-family:Bitstream Vera Sans" id="text5611" x="87.962" y="493.519" xml:space="preserve"><tspan id="tspan5613" x="87.962" y="493.519">0</tspan></text><text style="font-size:12.11537266px;font-style:normal;font-weight:400;fill:#000;fill-opacity:1;stroke:none;font-family:Bitstream Vera Sans" id="text5615" x="116.776" y="493.525" xml:space="preserve"><tspan id="tspan5617" x="116.776" y="493.525">1</tspan></text><text style="font-size:12.11537266px;font-style:normal;font-weight:400;fill:#000;fill-opacity:1;stroke:none;font-family:Bitstream Vera Sans" id="text5619" x="145.371" y="493.605" xml:space="preserve"><tspan id="tspan5621" x="145.371" y="493.605">2</tspan></text><text style="font-size:12.11537266px;font-style:normal;font-weight:400;fill:#000;fill-opacity:1;stroke:none;font-family:Bitstream Vera Sans" id="text5623" x="173.63" y="493.519" xml:space="preserve"><tspan id="tspan5625" x="173.63" y="493.519">3</tspan></text><text style="font-size:12.11537266px;font-style:normal;font-weight:400;fill:#000;fill-opacity:1;stroke:none;font-family:Bitstream Vera Sans" id="text5627" x="201.84" y="493.525" xml:space="preserve"><tspan id="tspan5629" x="201.84" y="493.525">4</tspan></text><text style="font-size:12.11537266px;font-style:normal;font-weight:400;fill:#000;fill-opacity:1;stroke:none;font-family:Bitstream Vera Sans" id="text5631" x="230.72" y="493.439" xml:space="preserve"><tspan id="tspan5633" x="230.72" y="493.439">5</tspan></text><text style="font-size:12.11537266px;font-style:normal;font-weight:400;fill:#000;fill-opacity:1;stroke:none;font-family:Bitstream Vera Sans" id="text5635" x="258.925" y="493.519" xml:space="preserve"><tspan id="tspan5637" x="258.925" y="493.519">6</tspan></text><text style="font-size:12.11537266px;font-style:normal;font-weight:400;fill:#000;fill-opacity:1;stroke:none;font-family:Bitstream Vera Sans" id="text5639" x="287.698" y="493.525" xml:space="preserve"><tspan id="tspan5641" x="287.698" y="493.525">7</tspan></text><text style="font-size:12.11537266px;font-style:normal;font-weight:400;fill:#000;fill-opacity:1;stroke:none;font-family:Bitstream Vera Sans" id="text5643" x="315.992" y="493.519" xml:space="preserve"><tspan id="tspan5645" x="315.992" y="493.519">8</tspan></text><text style="font-size:12.11537266px;font-style:normal;font-weight:400;fill:#000;fill-opacity:1;stroke:none;font-family:Bitstream Vera Sans" id="text5647" x="344.516" y="493.519" xml:space="preserve"><tspan id="tspan5649" x="344.516" y="493.519">9</tspan></text><text style="font-size:12.11537266px;font-style:normal;font-weight:400;fill:#000;fill-opacity:1;stroke:none;font-family:Bitstream Vera Sans" id="text5651" x="371.686" y="493.525" xml:space="preserve"><tspan id="tspan5653" x="371.686" y="493.525">A</tspan></text><text style="font-size:12.11537266px;font-style:normal;font-weight:400;fill:#000;fill-opacity:1;stroke:none;font-family:Bitstream Vera Sans" id="text5655" x="400.92" y="493.525" xml:space="preserve"><tspan id="tspan5657" x="400.92" y="493.525">B</tspan></text><text style="font-size:12.11537266px;font-style:normal;font-weight:400;fill:#000;fill-opacity:1;stroke:none;font-family:Bitstream Vera Sans" id="text5659" x="429.072" y="493.519" xml:space="preserve"><tspan id="tspan5661" x="429.072" y="493.519">C</tspan></text><text style="font-size:12.11537266px;font-style:normal;font-weight:400;fill:#000;fill-opacity:1;stroke:none;font-family:Bitstream Vera Sans" id="text5663" x="456.762" y="493.525" xml:space="preserve"><tspan id="tspan5665" x="456.762" y="493.525">D</tspan></text><text style="font-size:12.11537266px;font-style:normal;font-weight:400;fill:#000;fill-opacity:1;stroke:none;font-family:Bitstream Vera Sans" id="text5667" x="486.996" y="493.525" xml:space="preserve"><tspan id="tspan5669" x="486.996" y="493.525">E</tspan></text><text style="font-size:12.11537266px;font-style:normal;font-weight:400;fill:#000;fill-opacity:1;stroke:none;font-family:Bitstream Vera Sans" id="text5671" x="516.112" y="493.525" xml:space="preserve"><tspan id="tspan5673" x="516.112" y="493.525">F</tspan></text><text style="font-size:12.11537266px;font-style:normal;font-weight:400;fill:#000;fill-opacity:1;stroke:none;font-family:Bitstream Vera Sans" id="text5675" x="536.26" y="493.519" xml:space="preserve"><tspan id="tspan5677" x="536.26" y="493.519">10</tspan></text><text style="font-size:12.11537266px;font-style:normal;font-weight:400;fill:#000;fill-opacity:1;stroke:none;font-family:Bitstream Vera Sans" id="text5679" x="565.074" y="493.525" xml:space="preserve"><tspan id="tspan5681" x="565.074" y="493.525">11</tspan></text><text style="font-size:12.11537266px;font-style:normal;font-weight:400;fill:#000;fill-opacity:1;stroke:none;font-family:Bitstream Vera Sans" id="text5683" x="593.67" y="493.605" xml:space="preserve"><tspan id="tspan5685" x="593.67" y="493.605">12</tspan></text><text style="font-size:12.11537266px;font-style:normal;font-weight:400;fill:#000;fill-opacity:1;stroke:none;font-family:Bitstream Vera Sans" id="text5687" x="621.928" y="493.519" xml:space="preserve"><tspan id="tspan5689" x="621.928" y="493.519">13</tspan></text><text style="font-size:12.11537266px;font-style:normal;font-weight:400;fill:#000;fill-opacity:1;stroke:none;font-family:Bitstream Vera Sans" id="text5691" x="650.139" y="493.525" xml:space="preserve"><tspan id="tspan5693" x="650.139" y="493.525">14</tspan></text><text style="font-size:12.11537266px;font-style:normal;font-weight:400;fill:#000;fill-opacity:1;stroke:none;font-family:Bitstream Vera Sans" id="text5695" x="679.018" y="493.439" xml:space="preserve"><tspan id="tspan5697" x="679.018" y="493.439">15</tspan></text><text style="font-size:12.11537266px;font-style:normal;font-weight:400;fill:#000;fill-opacity:1;stroke:none;font-family:Bitstream Vera Sans" id="text5699" x="707.223" y="493.519" xml:space="preserve"><tspan id="tspan5701" x="707.223" y="493.519">...</tspan></text><text style="font-size:12.11537266px;font-style:normal;font-weight:400;fill:#000;fill-opacity:1;stroke:none;font-family:Bitstream Vera Sans" id="text4268-3" x="8.22" y="492.553" xml:space="preserve"><tspan id="tspan4270-8" x="8.22" y="492.553">Block num</tspan></text><flowRoot id="flowRoot5728" xml:space="preserve" style="font-size:10px;font-style:normal;font-weight:400;fill:#000;fill-opacity:1;stroke:none;font-family:Bitstream Vera Sans"><flowRegion id="flowRegion5730"><rect id="rect5732" width="110.612" height="25.254" x="314.663" y="435.664"/></flowRegion><flowPara id="flowPara5734"/></flowRoot><flowRoot id="flowRoot5736" xml:space="preserve" style="font-size:10px;font-style:normal;font-weight:400;fill:#000;fill-opacity:1;stroke:none;font-family:Bitstream Vera Sans"><flowRegion id="flowRegion5738"><rect id="rect5740" width="32.83" height="11.617" x="356.584" y="428.088"/></flowRegion><flowPara id="flowPara5742"/></flowRoot><text style="font-size:12.11537266px;font-style:normal;font-weight:400;fill:#000;fill-opacity:1;stroke:none;font-family:Bitstream Vera Sans" id="text5611-0" x="88.198" y="553.002" xml:space="preserve"><tspan id="tspan5613-5" x="88.198" y="553.002">0</tspan></text><text style="font-size:12.11537266px;font-style:normal;font-weight:400;fill:#000;fill-opacity:1;stroke:none;font-family:Bitstream Vera Sans" id="text5615-6" x="117.012" y="553.008" xml:space="preserve"><tspan id="tspan5617-6" x="117.012" y="553.008">1</tspan></text><text style="font-size:12.11537266px;font-style:normal;font-weight:400;fill:#000;fill-opacity:1;stroke:none;font-family:Bitstream Vera Sans" id="text5619-4" x="145.607" y="553.088" xml:space="preserve"><tspan id="tspan5621-0" x="145.607" y="553.088">2</tspan></text><text style="font-size:12.11537266px;font-style:normal;font-weight:400;fill:#000;fill-opacity:1;stroke:none;font-family:Bitstream Vera Sans" id="text5623-0" x="173.866" y="553.002" xml:space="preserve"><tspan id="tspan5625-4" x="173.866" y="553.002">3</tspan></text><text style="font-size:12.11537266px;font-style:normal;font-weight:400;fill:#000;fill-opacity:1;stroke:none;font-family:Bitstream Vera Sans" id="text5627-6" x="202.077" y="553.008" xml:space="preserve"><tspan id="tspan5629-2" x="202.077" y="553.008">4</tspan></text><text style="font-size:12.11537266px;font-style:normal;font-weight:400;fill:#000;fill-opacity:1;stroke:none;font-family:Bitstream Vera Sans" id="text5631-6" x="230.956" y="552.922" xml:space="preserve"><tspan id="tspan5633-7" x="230.956" y="552.922">5</tspan></text><text style="font-size:12.11537266px;font-style:normal;font-weight:400;fill:#000;fill-opacity:1;stroke:none;font-family:Bitstream Vera Sans" id="text5635-5" x="259.161" y="553.002" xml:space="preserve"><tspan id="tspan5637-6" x="259.161" y="553.002">6</tspan></text><text style="font-size:12.11537266px;font-style:normal;font-weight:400;fill:#000;fill-opacity:1;stroke:none;font-family:Bitstream Vera Sans" id="text5639-9" x="287.934" y="553.008" xml:space="preserve"><tspan id="tspan5641-8" x="287.934" y="553.008">7</tspan></text><text style="font-size:12.11537266px;font-style:normal;font-weight:400;fill:#000;fill-opacity:1;stroke:none;font-family:Bitstream Vera Sans" id="text5643-7" x="316.228" y="553.002" xml:space="preserve"><tspan id="tspan5645-2" x="316.228" y="553.002">8</tspan></text><text style="font-size:12.11537266px;font-style:normal;font-weight:400;fill:#000;fill-opacity:1;stroke:none;font-family:Bitstream Vera Sans" id="text5647-8" x="344.752" y="553.002" xml:space="preserve"><tspan id="tspan5649-2" x="344.752" y="553.002">9</tspan></text><text style="font-size:12.11537266px;font-style:normal;font-weight:400;fill:#000;fill-opacity:1;stroke:none;font-family:Bitstream Vera Sans" id="text5651-9" x="371.922" y="553.008" xml:space="preserve"><tspan id="tspan5653-9" x="371.922" y="553.008">A</tspan></text><text style="font-size:12.11537266px;font-style:normal;font-weight:400;fill:#000;fill-opacity:1;stroke:none;font-family:Bitstream Vera Sans" id="text5655-6" x="401.156" y="553.008" xml:space="preserve"><tspan id="tspan5657-0" x="401.156" y="553.008">B</tspan></text><text style="font-size:12.11537266px;font-style:normal;font-weight:400;fill:#000;fill-opacity:1;stroke:none;font-family:Bitstream Vera Sans" id="text5659-2" x="429.308" y="553.002" xml:space="preserve"><tspan id="tspan5661-7" x="429.308" y="553.002">C</tspan></text><text style="font-size:12.11537266px;font-style:normal;font-weight:400;fill:#000;fill-opacity:1;stroke:none;font-family:Bitstream Vera Sans" id="text5663-6" x="456.998" y="553.008" xml:space="preserve"><tspan id="tspan5665-1" x="456.998" y="553.008">D</tspan></text><text style="font-size:12.11537266px;font-style:normal;font-weight:400;fill:#000;fill-opacity:1;stroke:none;font-family:Bitstream Vera Sans" id="text5667-3" x="487.232" y="553.008" xml:space="preserve"><tspan id="tspan5669-2" x="487.232" y="553.008">E</tspan></text><text style="font-size:12.11537266px;font-style:normal;font-weight:400;fill:#000;fill-opacity:1;stroke:none;font-family:Bitstream Vera Sans" id="text5671-1" x="516.348" y="553.008" xml:space="preserve"><tspan id="tspan5673-5" x="516.348" y="553.008">F</tspan></text><text style="font-size:12.11537266px;font-style:normal;font-weight:400;fill:#000;fill-opacity:1;stroke:none;font-family:Bitstream Vera Sans" id="text5611-0-4" x="625.13" y="553.002" xml:space="preserve"><tspan id="tspan5613-5-8" x="625.13" y="553.002">0</tspan></text><text style="font-size:12.11537266px;font-style:normal;font-weight:400;fill:#000;fill-opacity:1;stroke:none;font-family:Bitstream Vera Sans" id="text5615-6-0" x="653.944" y="553.008" xml:space="preserve"><tspan id="tspan5617-6-4" x="653.944" y="553.008">1</tspan></text><text style="font-size:12.11537266px;font-style:normal;font-weight:400;fill:#000;fill-opacity:1;stroke:none;font-family:Bitstream Vera Sans" id="text5619-4-2" x="682.539" y="553.088" xml:space="preserve"><tspan id="tspan5621-0-9" x="682.539" y="553.088">2</tspan></text><text style="font-size:12.11537266px;font-style:normal;font-weight:400;fill:#000;fill-opacity:1;stroke:none;font-family:Bitstream Vera Sans" id="text5623-0-6" x="710.798" y="553.002" xml:space="preserve"><tspan id="tspan5625-4-1" x="710.798" y="553.002">3</tspan></text></g></svg>