<svg xmlns="http://www.w3.org/2000/svg" xmlns:ev="http://www.w3.org/2001/xml-events" xmlns:xlink="http://www.w3.org/1999/xlink" width="2064" height="1584" class="st21" color-interpolation-filters="sRGB" viewBox="0 0 1548 1188" xml:space="preserve"><style type="text/css">.st1{fill:#92d050;stroke:none;stroke-linecap:round;stroke-linejoin:round;stroke-width:.75}.st2{fill:red}.st2,.st3{stroke:none;stroke-linecap:round;stroke-linejoin:round;stroke-width:.75}.st4,.st5{font-size:1.81435em}.st4{fill:#fff;font-family:Calibri;font-weight:700}.st5{fill:#333e48;font-family:Century Gothic}.st6{fill:#000;font-family:Calibri;font-size:1.99578em;font-weight:700}.st7{stroke:#000;stroke-linecap:round;stroke-linejoin:round;stroke-width:1.45071}.st8{fill:#000;font-family:Century Gothic;font-size:1.75001em}.st9{font-size:1em}.st10{stroke:#000;stroke-linecap:round;stroke-linejoin:round;stroke-width:2.90143}.st11{fill:#333e48;font-family:Calibri;font-size:2.11672em;font-weight:700}.st12,.st13{stroke:#651beb;stroke-linecap:round;stroke-linejoin:round;stroke-width:2.90143}.st13{stroke:#b31166;stroke-width:.725356}.st14,.st15{fill:#000;font-family:Century Gothic;font-size:1.99999em}.st15{fill:#feffff;font-family:Calibri;font-weight:700}.st16{marker-end:url(#mrkr5-239);marker-start:url(#mrkr5-237);stroke:#000;stroke-linecap:round;stroke-linejoin:round;stroke-width:3}.st17{fill:#000;fill-opacity:1;stroke:#000;stroke-opacity:1;stroke-width:.54347826086957}.st18,.st19{stroke:#651beb}.st18{marker-end:url(#mrkr5-248);marker-start:url(#mrkr5-246);stroke-linecap:round;stroke-linejoin:round;stroke-width:3}.st19{fill:#651beb;fill-opacity:1;stroke-opacity:1;stroke-width:.67567567567568}.st20{marker-end:url(#mrkr5-239);stroke:#000;stroke-linecap:round;stroke-linejoin:round;stroke-width:3}.st21{fill:none;fill-rule:evenodd;font-size:12px;overflow:visible;stroke-linecap:square;stroke-miterlimit:3}</style><defs id="Markers"><g id="lend5"><path style="stroke:none" d="M 2 1 L 0 0 L 1.98117 -0.993387 C 1.67173 -0.364515 1.67301 0.372641 1.98465 1.00043"/></g><marker id="mrkr5-237" class="st17" markerUnits="strokeWidth" orient="auto" overflow="visible" refX="3.1"><use transform="scale(1.84)" xlink:href="#lend5"/></marker><marker id="mrkr5-239" class="st17" markerUnits="strokeWidth" orient="auto" overflow="visible" refX="-3.22"><use transform="scale(-1.84,-1.84)" xlink:href="#lend5"/></marker><marker id="mrkr5-246" class="st19" markerUnits="strokeWidth" orient="auto" overflow="visible" refX="2.47"><use transform="scale(1.48)" xlink:href="#lend5"/></marker><marker id="mrkr5-248" class="st19" markerUnits="strokeWidth" orient="auto" overflow="visible" refX="-2.59"><use transform="scale(-1.48,-1.48)" xlink:href="#lend5"/></marker></defs><g><title>Page-1</title><g id="shape3-1" transform="translate(327.227,-946.908)"><title>Sheet.3</title><path d="M0 1142.11 C0 1137.08 4.14 1132.94 9.17 1132.94 L124.27 1132.94 C129.36 1132.94 133.44 1137.08 133.44 1142.11 L133.44 1178.82 C133.44 1183.92 129.36 1188 124.27 1188 L9.17 1188 C4.14 1188 0 1183.92 0 1178.82 L0 1142.11 Z" class="st1"/></g><g id="shape4-3" transform="translate(460.665,-944.869)"><title>Sheet.4</title><path d="M0 1142.11 C0 1137.08 4.14 1132.94 9.17 1132.94 L141.59 1132.94 C146.68 1132.94 150.75 1137.08 150.75 1142.11 L150.75 1178.82 C150.75 1183.92 146.68 1188 141.59 1188 L9.17 1188 C4.14 1188 0 1183.92 0 1178.82 L0 1142.11 Z" class="st2"/></g><g id="shape5-5" transform="translate(519.302,-950.79)"><title>Sheet.5</title><desc>D1</desc><path d="M47.43 1151.29 L0 1151.29 L0 1188 L47.43 1188 L47.43 1151.29" class="st3"/><text x="11.34" y="1176.17" class="st4">D1</text></g><g id="shape6-9" transform="translate(612.438,-944.869)"><title>Sheet.6</title><path d="M0 1141.6 C0 1136.82 3.88 1132.94 8.66 1132.94 L43.29 1132.94 C48.13 1132.94 51.95 1136.82 51.95 1141.6 L51.95 1179.33 C51.95 1184.18 48.13 1188 43.29 1188 L8.66 1188 C3.88 1188 0 1184.18 0 1179.33 L0 1141.6 Z" class="st1"/></g><g id="shape7-11" transform="translate(664.388,-945.889)"><title>Sheet.7</title><path d="M0 1142.11 C0 1137.08 4.14 1132.94 9.17 1132.94 L141.59 1132.94 C146.68 1132.94 150.75 1137.08 150.75 1142.11 L150.75 1178.82 C150.75 1183.92 146.68 1188 141.59 1188 L9.17 1188 C4.14 1188 0 1183.92 0 1178.82 L0 1142.11 Z" class="st2"/></g><g id="shape8-13" transform="translate(723.025,-951.494)"><title>Sheet.8</title><desc>D2</desc><path d="M47.43 1151.29 L0 1151.29 L0 1188 L47.43 1188 L47.43 1151.29" class="st3"/><text x="11.34" y="1176.17" class="st4">D2</text></g><g id="shape9-17" transform="translate(814.123,-945.889)"><title>Sheet.9</title><path d="M0 1141.6 C0 1136.82 3.88 1132.94 8.66 1132.94 L43.29 1132.94 C48.13 1132.94 51.95 1136.82 51.95 1141.6 L51.95 1179.33 C51.95 1184.18 48.13 1188 43.29 1188 L8.66 1188 C3.88 1188 0 1184.18 0 1179.33 L0 1141.6 Z" class="st1"/></g><g id="shape10-19" transform="translate(27,-952.759)"><title>Sheet.10</title><desc>Reader Thread 1</desc><path d="M292.52 1151.29 L0 1151.29 L0 1188 L292.52 1188 L292.52 1151.29" class="st3"/><text x="58.76" y="1176.17" class="st5">Reader Thread 1</text></g><g id="shape11-23" transform="translate(379.176,-863.295)"><title>Sheet.11</title><path d="M0 1142.11 C0 1137.08 4.14 1132.94 9.17 1132.94 L124.27 1132.94 C129.36 1132.94 133.44 1137.08 133.44 1142.11 L133.44 1178.82 C133.44 1183.92 129.36 1188 124.27 1188 L9.17 1188 C4.14 1188 0 1183.92 0 1178.82 L0 1142.11 Z" class="st1"/></g><g id="shape12-25" transform="translate(512.614,-861.255)"><title>Sheet.12</title><path d="M0 1142.11 C0 1137.08 4.14 1132.94 9.17 1132.94 L141.59 1132.94 C146.68 1132.94 150.75 1137.08 150.75 1142.11 L150.75 1178.82 C150.75 1183.92 146.68 1188 141.59 1188 L9.17 1188 C4.14 1188 0 1183.92 0 1178.82 L0 1142.11 Z" class="st2"/></g><g id="shape13-27" transform="translate(561.284,-867.106)"><title>Sheet.13</title><desc>D1</desc><path d="M47.43 1151.29 L0 1151.29 L0 1188 L47.43 1188 L47.43 1151.29" class="st3"/><text x="11.34" y="1176.17" class="st4">D1</text></g><g id="shape14-31" transform="translate(664.388,-861.255)"><title>Sheet.14</title><path d="M0 1141.6 C0 1136.82 3.88 1132.94 8.66 1132.94 L43.29 1132.94 C48.13 1132.94 51.95 1136.82 51.95 1141.6 L51.95 1179.33 C51.95 1184.18 48.13 1188 43.29 1188 L8.66 1188 C3.88 1188 0 1184.18 0 1179.33 L0 1141.6 Z" class="st1"/></g><g id="shape15-33" transform="translate(716.337,-862.275)"><title>Sheet.15</title><path d="M0 1142.11 C0 1137.08 4.14 1132.94 9.17 1132.94 L141.59 1132.94 C146.68 1132.94 150.75 1137.08 150.75 1142.11 L150.75 1178.82 C150.75 1183.92 146.68 1188 141.59 1188 L9.17 1188 C4.14 1188 0 1183.92 0 1178.82 L0 1142.11 Z" class="st2"/></g><g id="shape16-35" transform="translate(775.009,-867.81)"><title>Sheet.16</title><desc>D2</desc><path d="M47.43 1151.29 L0 1151.29 L0 1188 L47.43 1188 L47.43 1151.29" class="st3"/><text x="11.34" y="1176.17" class="st4">D2</text></g><g id="shape17-39" transform="translate(866.073,-862.275)"><title>Sheet.17</title><path d="M0 1141.6 C0 1136.82 3.88 1132.94 8.66 1132.94 L43.29 1132.94 C48.13 1132.94 51.95 1136.82 51.95 1141.6 L51.95 1179.33 C51.95 1184.18 48.13 1188 43.29 1188 L8.66 1188 C3.88 1188 0 1184.18 0 1179.33 L0 1141.6 Z" class="st1"/></g><g id="shape18-41" transform="translate(143.348,-873.294)"><title>Sheet.18</title><desc>T 2</desc><path d="M53.96 1151.29 L0 1151.29 L0 1188 L53.96 1188 L53.96 1151.29" class="st3"/><text x="13.3" y="1176.17" class="st5">T 2</text></g><g id="shape19-45" transform="translate(474.188,-777.642)"><title>Sheet.19</title><path d="M0 1143.01 C0 1138.04 4.07 1133.96 9.04 1133.96 L124.46 1133.96 C129.43 1133.96 133.44 1138.04 133.44 1143.01 L133.44 1179.01 C133.44 1183.99 129.43 1188 124.46 1188 L9.04 1188 C4.07 1188 0 1183.99 0 1179.01 L0 1143.01 Z" class="st1"/></g><g id="shape20-47" transform="translate(608.645,-775.602)"><title>Sheet.20</title><path d="M0 1142.11 C0 1137.08 4.14 1132.94 9.17 1132.94 L141.59 1132.94 C146.68 1132.94 150.75 1137.08 150.75 1142.11 L150.75 1178.82 C150.75 1183.92 146.68 1188 141.59 1188 L9.17 1188 C4.14 1188 0 1183.92 0 1178.82 L0 1142.11 Z" class="st2"/></g><g id="shape21-49" transform="translate(666.862,-781.311)"><title>Sheet.21</title><desc>D1</desc><path d="M47.43 1151.29 L0 1151.29 L0 1188 L47.43 1188 L47.43 1151.29" class="st3"/><text x="11.34" y="1176.17" class="st4">D1</text></g><g id="shape22-53" transform="translate(760.418,-775.602)"><title>Sheet.22</title><path d="M0 1141.6 C0 1136.82 3.88 1132.94 8.66 1132.94 L43.29 1132.94 C48.13 1132.94 51.95 1136.82 51.95 1141.6 L51.95 1179.33 C51.95 1184.18 48.13 1188 43.29 1188 L8.66 1188 C3.88 1188 0 1184.18 0 1179.33 L0 1141.6 Z" class="st1"/></g><g id="shape23-55" transform="translate(812.367,-776.622)"><title>Sheet.23</title><path d="M0 1142.11 C0 1137.08 4.14 1132.94 9.17 1132.94 L141.59 1132.94 C146.68 1132.94 150.75 1137.08 150.75 1142.11 L150.75 1178.82 C150.75 1183.92 146.68 1188 141.59 1188 L9.17 1188 C4.14 1188 0 1183.92 0 1178.82 L0 1142.11 Z" class="st2"/></g><g id="shape24-57" transform="translate(870.584,-782.015)"><title>Sheet.24</title><desc>D2</desc><path d="M47.43 1151.29 L0 1151.29 L0 1188 L47.43 1188 L47.43 1151.29" class="st3"/><text x="11.34" y="1176.17" class="st4">D2</text></g><g id="shape25-61" transform="translate(962.103,-776.622)"><title>Sheet.25</title><path d="M0 1141.6 C0 1136.82 3.88 1132.94 8.66 1132.94 L43.29 1132.94 C48.13 1132.94 51.95 1136.82 51.95 1141.6 L51.95 1179.33 C51.95 1184.18 48.13 1188 43.29 1188 L8.66 1188 C3.88 1188 0 1184.18 0 1179.33 L0 1141.6 Z" class="st1"/></g><g id="shape26-63" transform="translate(142.645,-787.5)"><title>Sheet.26</title><desc>T 3</desc><path d="M53.96 1151.29 L0 1151.29 L0 1188 L53.96 1188 L53.96 1151.29" class="st3"/><text x="13.3" y="1176.17" class="st5">T 3</text></g><g id="shape28-67" transform="translate(882.826,-574.263)"><title>Sheet.28</title><desc>Time</desc><path d="M91.91 1145.17 L0 1145.17 L0 1188 L91.91 1188 L91.91 1145.17" class="st3"/><text x="21.32" y="1173.77" class="st6">Time</text></g><g id="shape29-71" transform="translate(419.545,-660.119)"><title>Sheet.29</title><path d="M0 1145.17 L0 1188 L0 1145.17" class="st7"/></g><g id="shape30-74" transform="translate(419.545,-684.783)"><title>Sheet.30</title><path d="M0 1188 L82.7 1187.36 L151.2 1172.07" class="st7"/></g><g id="shape31-77" transform="translate(214.454,-663.095)"><title>Sheet.31</title><desc>Remove reference to entry1</desc><path d="M193.55 1150.9 L0 1150.9 L0 1188 L193.55 1188 L193.55 1150.9" class="st3"/><text x="2.39" y="1163.15" class="st8">Remove reference <tspan x="104.08" class="st9" dy="1.2em">to entry1</tspan></text></g><g id="shape33-82" transform="translate(571.287,-681.326)"><title>Sheet.33</title><path d="M0 738.67 L0 1188" class="st10"/></g><g id="shape34-85" transform="translate(515.013,-1130.65)"><title>Sheet.34</title><desc>Delete</desc><path d="M121.45 1145.17 L0 1145.17 L0 1188 L121.45 1188 L121.45 1145.17" class="st3"/><text x="26.02" y="1174.2" class="st11">Delete</text></g><g id="shape35-89" transform="translate(434.372,-1096.8)"><title>Sheet.35</title><path d="M0 1154.35 L0 1188 L0 1154.35" class="st7"/></g><g id="shape36-92" transform="translate(434.372,-1100.37)"><title>Sheet.36</title><path d="M0 1171.88 L84.54 1171.24 L136.43 1188" class="st7"/></g><g id="shape37-95" transform="translate(193.5,-1103.76)"><title>Sheet.37</title><desc>Delete entry1 from D1</desc><path d="M229.5 1163.52 L0 1163.52 L0 1188 L229.5 1188 L229.5 1163.52" class="st3"/><text x="3.88" y="1182.06" class="st8">Delete entry1 from D1</text></g><g id="shape38-99" transform="translate(714.3,-675.425)"><title>Sheet.38</title><path d="M0 732.77 L0 1188" class="st10"/></g><g id="shape39-102" transform="translate(795.979,-637.904)"><title>Sheet.39</title><path d="M0 1112.54 L0 1188 L0 1112.54" class="st7"/></g><g id="shape40-105" transform="translate(716.782,-675.425)"><title>Sheet.40</title><path d="M79.2 1188 L52.71 1187.94 L0 1147.21" class="st7"/></g><g id="shape41-108" transform="translate(803.572,-639.285)"><title>Sheet.41</title><desc>Free memory for entries1 and 2 after every reader has gone th...</desc><path d="M344.84 1117.02 L0 1117.02 L0 1188 L344.84 1188 L344.84 1117.02" class="st3"/><text x="0" y="1133.61" class="st8">Free memory for entries1 and 2 <tspan x="0" class="st9" dy="1.2em">after every reader has gone </tspan><tspan x="0" class="st9" dy="1.2em">through at least 1 quiescent state</tspan></text></g><g id="shape46-114" transform="translate(680.801,-1130.65)"><title>Sheet.46</title><desc>Free</desc><path d="M84.03 1145.17 L0 1145.17 L0 1188 L84.03 1188 L84.03 1145.17" class="st3"/><text x="18.89" y="1174.2" class="st11">Free</text></g><g id="shape48-118" transform="translate(811.005,-1110.05)"><title>Sheet.48</title><path d="M0 1145.17 L0 1188 L0 1145.17" class="st7"/></g><g id="shape49-121" transform="translate(658.61,-1083.99)"><title>Sheet.49</title><path d="M153.05 1149.63 L113.7 1149.57 L0 1188" class="st7"/></g><g id="shape50-124" transform="translate(798.359,-1110.46)"><title>Sheet.50</title><desc>Grace Period</desc><path d="M215.6 1147.62 L0 1147.62 L0 1188 L215.6 1188 L215.6 1147.62" class="st3"/><text x="43.79" y="1174.99" class="st6">Grace Period</text></g><g id="shape51-128" transform="translate(599.196,-662.779)"><title>Sheet.51</title><path d="M0 732.77 L0 1188" class="st12"/></g><g id="shape52-131" transform="translate(464.931,-1052.95)"><title>Sheet.52</title><path d="M0 1154.35 L0 1188 L0 1154.35" class="st7"/></g><g id="shape53-134" transform="translate(464.931,-1056.52)"><title>Sheet.53</title><path d="M0 1171.88 L84.54 1171.24 L136.43 1188" class="st7"/></g><g id="shape54-137" transform="translate(225,-1058.76)"><title>Sheet.54</title><desc>Delete entry2 from D1</desc><path d="M229.5 1163.52 L0 1163.52 L0 1188 L229.5 1188 L229.5 1163.52" class="st3"/><text x="3.88" y="1182.06" class="st8">Delete entry2 from D1</text></g><g id="shape56-141" transform="translate(711.244,-662.779)"><title>Sheet.56</title><path d="M0 732.77 L0 1188" class="st12"/></g><g id="shape57-144" transform="translate(664.897,-1045.31)"><title>Sheet.57</title><path d="M-0 1188 L146.76 1112.94" class="st13"/></g><g id="shape58-147" transform="translate(619.059,-848.701)"><title>Sheet.58</title><path d="M432.2 1184.24 L-0 1188" class="st7"/></g><g id="shape59-150" transform="translate(1038.62,-837.364)"><title>Sheet.59</title><desc>Critical sections</desc><path d="M260 1147.62 L0 1147.62 L0 1188 L260 1188 L260 1147.62" class="st3"/><text x="52.25" y="1174.99" class="st6">Critical sections</text></g><g id="shape60-154" transform="translate(621.606,-848.828)"><title>Sheet.60</title><path d="M0 1173.53 L0 1188" class="st7"/></g><g id="shape61-157" transform="translate(824.31,-849.848)"><title>Sheet.61</title><path d="M0 1173.53 L0 1188" class="st7"/></g><g id="shape62-160" transform="translate(345.944,-933.143)"><title>Sheet.62</title><path d="M705.32 1188 L0 1187.43" class="st7"/></g><g id="shape63-163" transform="translate(1038.62,-915.684)"><title>Sheet.63</title><desc>Quiescent states</desc><path d="M275.38 1147.62 L0 1147.62 L0 1188 L275.38 1188 L275.38 1147.62" class="st3"/><text x="55.18" y="1174.99" class="st6">Quiescent states</text></g><g id="shape64-167" transform="translate(346.581,-932.442)"><title>Sheet.64</title><path d="M0 1173.53 L0 1188" class="st7"/></g><g id="shape65-170" transform="translate(621.606,-933.461)"><title>Sheet.65</title><path d="M0 1173.53 L0 1188" class="st7"/></g><g id="shape66-173" transform="translate(856.905,-934.481)"><title>Sheet.66</title><path d="M0 1173.53 L0 1188" class="st7"/></g><g id="shape67-176" transform="translate(472.82,-756.389)"><title>Sheet.67</title><path d="M578.44 1188 L0 1187.43" class="st7"/></g><g id="shape68-179" transform="translate(473.456,-755.688)"><title>Sheet.68</title><path d="M0 1173.53 L0 1188" class="st7"/></g><g id="shape69-182" transform="translate(1016.87,-757.728)"><title>Sheet.69</title><path d="M0 1173.53 L0 1188" class="st7"/></g><g id="shape70-185" transform="translate(1060.04,-738.651)"><title>Sheet.70</title><desc>while(1) loop</desc><path d="M193.55 1147.62 L0 1147.62 L0 1188 L193.55 1188 L193.55 1147.62" class="st3"/><text x="31.03" y="1174.99" class="st6">while(1) loop</text></g><g id="shape71-189" transform="translate(190.02,-464.886)"><title>Sheet.71</title><path d="M0 1151.91 C0 1148.19 3.88 1145.17 8.66 1145.17 L43.29 1145.17 C48.13 1145.17 51.95 1148.19 51.95 1151.91 L51.95 1181.26 C51.95 1185.03 48.13 1188 43.29 1188 L8.66 1188 C3.88 1188 0 1185.03 0 1181.26 L0 1151.91 Z" class="st1"/></g><g id="shape72-191" transform="translate(259.003,-466.895)"><title>Sheet.72</title><desc>Reader thread is not accessing any shared data structure. i.e...</desc><path d="M689.93 1150.9 L0 1150.9 L0 1188 L689.93 1188 L689.93 1150.9" class="st3"/><text x="0" y="1162.25" class="st14">Reader thread is not accessing any shared data structure.<tspan x="0" class="st9" dy="1.2em">i.e. non critical section or quiescent state.</tspan></text></g><g id="shape73-196" transform="translate(190.02,-389.169)"><title>Sheet.73</title><desc>Dx</desc><path d="M0 1152.31 C0 1148.39 1.43 1145.17 3.16 1145.17 L48.79 1145.17 C50.55 1145.17 51.95 1148.39 51.95 1152.31 L51.95 1180.86 C51.95 1184.83 50.55 1188 48.79 1188 L3.16 1188 C1.43 1188 0 1184.83 0 1180.86 L0 1152.31 Z" class="st2"/><text x="12.9" y="1173.78" class="st15">Dx</text></g><g id="shape74-199" transform="translate(259.003,-388.777)"><title>Sheet.74</title><desc>Reader thread is accessing the shared data structure Dx. i.e....</desc><path d="M689.93 1150.9 L0 1150.9 L0 1188 L689.93 1188 L689.93 1150.9" class="st3"/><text x="0" y="1162.25" class="st14">Reader thread is accessing the shared data structure Dx.<tspan x="0" class="st9" dy="1.2em">i.e. critical section.</tspan></text></g><g id="shape75-204" transform="translate(289.017,-301.151)"><title>Sheet.75</title><desc>Point in time when the reference to the entry is removed usin...</desc><path d="M664.98 1132.94 L0 1132.94 L0 1188 L664.98 1188 L664.98 1132.94" class="st3"/><text x="0" y="1153.27" class="st14">Point in time when the reference to the entry is removed <tspan x="0" class="st9" dy="1.2em">using an atomic operation.</tspan></text></g><g id="shape76-209" transform="translate(177.543,-315.596)"><title>Sheet.76</title><desc>Delete</desc><path d="M91.91 1145.17 L0 1145.17 L0 1188 L91.91 1188 L91.91 1145.17" class="st3"/><text x="11.25" y="1174.2" class="st11">Delete</text></g><g id="shape77-213" transform="translate(288,-239.327)"><title>Sheet.77</title><desc>Point in time when the writer can free the deleted entry.</desc><path d="M657 1147.62 L0 1147.62 L0 1188 L657 1188 L657 1147.62" class="st3"/><text x="0" y="1175.01" class="st14">Point in time when the writer can free the deleted entry.</text></g><g id="shape78-217" transform="translate(177.543,-240.744)"><title>Sheet.78</title><desc>Free</desc><path d="M68.76 1145.17 L0 1145.17 L0 1188 L68.76 1188 L68.76 1145.17" class="st3"/><text x="11.25" y="1174.2" class="st11">Free</text></g><g id="shape79-221" transform="translate(289.228,-163.612)"><title>Sheet.79</title><desc>Time duration between Delete and Free, during which memory ca...</desc><path d="M657 1147.62 L0 1147.62 L0 1188 L657 1188 L657 1147.62" class="st3"/><text x="0" y="1160.61" class="st14">Time duration between Delete and Free, during which <tspan x="0" class="st9" dy="1.2em">memory cannot be freed.</tspan></text></g><g id="shape80-226" transform="translate(187.999,-162)"><title>Sheet.80</title><desc>Grace Period</desc><path d="M79.2 1145.17 L0 1145.17 L0 1188 L79.2 1188 L79.2 1145.17" class="st3"/><text x="0" y="1158.96" class="st11">Grace <tspan x="0" class="st9" dy="1.2em">Period</tspan></text></g><g id="shape83-231" transform="translate(572.146,-1080.07)"><title>Sheet.83</title><path d="M9.3 1188 L9.66 1188 L132.49 1188" class="st16"/></g><g id="shape84-240" transform="translate(599.196,-1042.14)"><title>Sheet.84</title><path d="M7.41 1188 L7.77 1188 L104.28 1188" class="st18"/></g><g id="shape85-249" transform="translate(980.637,-595.338)"><title>Sheet.85</title><path d="M0 1188 L92.16 1188" class="st20"/></g><g id="shape86-254" transform="translate(444.835,-603.428)"><title>Sheet.86</title><path d="M0 1145.17 L0 1188 L0 1145.17" class="st7"/></g><g id="shape87-257" transform="translate(444.835,-637.489)"><title>Sheet.87</title><path d="M0 1188 L84.43 1186.61 L154.36 1153.31" class="st7"/></g><g id="shape88-260" transform="translate(241.369,-607.028)"><title>Sheet.88</title><desc>Remove reference to entry2</desc><path d="M193.55 1150.9 L0 1150.9 L0 1188 L193.55 1188 L193.55 1150.9" class="st3"/><text x="2.39" y="1163.15" class="st8">Remove reference <tspan x="104.08" class="st9" dy="1.2em">to entry2</tspan></text></g></g></svg>