<svg xmlns="http://www.w3.org/2000/svg" xmlns:svg="http://www.w3.org/2000/svg" id="svg3388" width="706.331" height="225.989" version="1.1"><defs id="defs3390"><marker id="Arrow1Lend" orient="auto" refX="0" refY="0" style="overflow:visible"><path id="path4317" d="M 0,0 5,-5 -12.5,0 5,5 0,0 z" transform="matrix(-0.8,0,0,-0.8,-10,0)" style="fill-rule:evenodd;stroke:#000;stroke-width:1pt;marker-start:none"/></marker><marker id="Arrow1Lend-7" orient="auto" refX="0" refY="0" style="overflow:visible"><path id="path4317-4" d="M 0,0 5,-5 -12.5,0 5,5 0,0 z" transform="matrix(-0.8,0,0,-0.8,-10,0)" style="fill-rule:evenodd;stroke:#000;stroke-width:1pt;marker-start:none"/></marker></defs><metadata id="metadata3393"/><g id="layer1" transform="translate(-20.563935,-371.41468)"><rect style="fill:#ffd080;fill-opacity:1;stroke:#000;stroke-width:1.60332525;stroke-miterlimit:4;stroke-opacity:1;stroke-dasharray:none;stroke-dashoffset:0" id="rect4257" width="704.527" height="93.937" x="21.466" y="372.316" rx="18.649" ry="18.649"/><g id="g4259" transform="matrix(1.6033252,0,0,1.6033252,-104.17626,-364.40569)"><rect id="rect3398" width="52.857" height="50" x="83.143" y="463.791" rx="11.632" ry="11.632" style="fill:#ff8080;fill-opacity:1;stroke:#000;stroke-opacity:1"/><rect id="rect3398-3" width="52.857" height="50" x="137" y="463.791" rx="11.632" ry="11.632" style="fill:#ff8080;fill-opacity:1;stroke:#000;stroke-opacity:1"/><rect id="rect3398-1" width="52.857" height="50" x="190.857" y="463.791" rx="11.632" ry="11.632" style="fill:#ff8080;fill-opacity:1;stroke:#000;stroke-opacity:1"/><rect id="rect3398-6" width="52.857" height="50" x="244.714" y="463.791" rx="11.632" ry="11.632" style="fill:#ff8080;fill-opacity:1;stroke:#000;stroke-opacity:1"/><rect id="rect3398-2" width="52.857" height="50" x="298.571" y="463.791" rx="11.632" ry="11.632" style="fill:#ff8080;fill-opacity:1;stroke:#000;stroke-opacity:1"/><rect id="rect3398-15" width="52.857" height="50" x="352.429" y="463.791" rx="11.632" ry="11.632" style="fill:#ff8080;fill-opacity:1;stroke:#000;stroke-opacity:1"/><rect id="rect3398-4" width="52.857" height="50" x="406.286" y="463.791" rx="11.632" ry="11.632" style="fill:#ff8080;fill-opacity:1;stroke:#000;stroke-opacity:1"/><rect id="rect3398-65" width="52.857" height="50" x="460.143" y="463.791" rx="11.632" ry="11.632" style="fill:#ff8080;fill-opacity:1;stroke:#000;stroke-opacity:1"/></g><text style="font-size:16.03325272px;font-style:normal;font-weight:400;fill:#000;fill-opacity:1;stroke:none;font-family:Bitstream Vera Sans" id="text4269" x="225.131" y="423.708" xml:space="preserve"><tspan id="tspan4271" x="225.131" y="423.708">obj1</tspan></text><text style="font-size:16.03325272px;font-style:normal;font-weight:400;fill:#000;fill-opacity:1;stroke:none;font-family:Bitstream Vera Sans" id="text4269-4" x="313.389" y="423.708" xml:space="preserve"><tspan id="tspan4271-5" x="313.389" y="423.708">obj2</tspan></text><text style="font-size:16.03325272px;font-style:normal;font-weight:400;fill:#000;fill-opacity:1;stroke:none;font-family:Bitstream Vera Sans" id="text4269-5" x="400.038" y="423.708" xml:space="preserve"><tspan id="tspan4271-4" x="400.038" y="423.708">obj3</tspan></text><path style="fill:none;stroke:#000;stroke-width:1.60332525px;stroke-linecap:butt;stroke-linejoin:miter;stroke-opacity:1;marker-end:url(#Arrow1Lend)" id="path4309" d="m 240.62926,556.11067 0,-67.56871"/><path style="fill:none;stroke:#000;stroke-width:1.60332525px;stroke-linecap:butt;stroke-linejoin:miter;stroke-opacity:1;marker-end:url(#Arrow1Lend)" id="path4309-4" d="m 502.88746,551.52975 0,-67.56871"/><text style="font-size:16.03325272px;font-style:normal;font-weight:400;fill:#000;fill-opacity:1;stroke:none;font-family:Bitstream Vera Sans" id="text4787" x="199.401" y="574.434" xml:space="preserve"><tspan id="tspan4789" x="199.401" y="574.434">cons_head</tspan></text><text style="font-size:16.03325272px;font-style:normal;font-weight:400;fill:#000;fill-opacity:1;stroke:none;font-family:Bitstream Vera Sans" id="text4787-3" x="205.167" y="593.522" xml:space="preserve"><tspan id="tspan4789-0" x="205.167" y="593.522">cons_tail</tspan></text><text style="font-size:16.03325272px;font-style:normal;font-weight:400;fill:#000;fill-opacity:1;stroke:none;font-family:Bitstream Vera Sans" id="text4787-7" x="465.115" y="571.954" xml:space="preserve"><tspan id="tspan4789-8" x="465.115" y="571.954">prod_head</tspan></text><text style="font-size:16.03325272px;font-style:normal;font-weight:400;fill:#000;fill-opacity:1;stroke:none;font-family:Bitstream Vera Sans" id="text4787-3-6" x="467.445" y="592.187" xml:space="preserve"><tspan id="tspan4789-0-8" x="467.445" y="592.187">prod_tail</tspan></text></g></svg>