<svg xmlns="http://www.w3.org/2000/svg" xmlns:svg="http://www.w3.org/2000/svg" id="svg3388" width="484.057" height="383.107" version="1.1"><defs id="defs3390"><marker id="Arrow1Lend" orient="auto" refX="0" refY="0" style="overflow:visible"><path id="path4317" d="M 0,0 5,-5 -12.5,0 5,5 0,0 z" transform="matrix(-0.8,0,0,-0.8,-10,0)" style="fill-rule:evenodd;stroke:#000;stroke-width:1pt;marker-start:none"/></marker><marker id="Arrow1Lend-7" orient="auto" refX="0" refY="0" style="overflow:visible"><path id="path4317-4" d="M 0,0 5,-5 -12.5,0 5,5 0,0 z" transform="matrix(-0.8,0,0,-0.8,-10,0)" style="fill-rule:evenodd;stroke:#000;stroke-width:1pt;marker-start:none"/></marker><marker id="Arrow1Lend-0" orient="auto" refX="0" refY="0" style="overflow:visible"><path id="path4317-6" d="M 0,0 5,-5 -12.5,0 5,5 0,0 z" transform="matrix(-0.8,0,0,-0.8,-10,0)" style="fill-rule:evenodd;stroke:#000;stroke-width:1pt;marker-start:none"/></marker><marker id="marker4999" orient="auto" refX="0" refY="0" style="overflow:visible"><path id="path5001" d="M 0,0 5,-5 -12.5,0 5,5 0,0 z" transform="matrix(-0.8,0,0,-0.8,-10,0)" style="fill-rule:evenodd;stroke:#000;stroke-width:1pt;marker-start:none"/></marker><marker id="Arrow1Lend-9" orient="auto" refX="0" refY="0" style="overflow:visible"><path id="path4317-0" d="M 0,0 5,-5 -12.5,0 5,5 0,0 z" transform="matrix(-0.8,0,0,-0.8,-10,0)" style="fill-rule:evenodd;stroke:#000;stroke-width:1pt;marker-start:none"/></marker><marker id="Arrow1Lend-6" orient="auto" refX="0" refY="0" style="overflow:visible"><path id="path4317-7" d="M 0,0 5,-5 -12.5,0 5,5 0,0 z" transform="matrix(-0.8,0,0,-0.8,-10,0)" style="fill-rule:evenodd;stroke:#000;stroke-width:1pt;marker-start:none"/></marker><marker id="Arrow1Lend-63" orient="auto" refX="0" refY="0" style="overflow:visible"><path id="path4317-9" d="M 0,0 5,-5 -12.5,0 5,5 0,0 z" transform="matrix(-0.8,0,0,-0.8,-10,0)" style="fill-rule:evenodd;stroke:#000;stroke-width:1pt;marker-start:none"/></marker></defs><metadata id="metadata3393"/><g id="layer1" transform="translate(-162.97143,-299.23987)"><rect style="fill:#ffd080;fill-opacity:1;stroke:#000;stroke-width:1;stroke-miterlimit:4;stroke-opacity:1;stroke-dasharray:none;stroke-dashoffset:0" id="rect4257" width="439.416" height="58.589" x="186.878" y="463.443" rx="11.632" ry="11.632"/><g id="g4259" transform="translate(108.51492,3.9469318)"><rect id="rect3398" width="52.857" height="50" x="83.143" y="463.791" rx="11.632" ry="11.632" style="fill:#ff8080;fill-opacity:1;stroke:#000;stroke-opacity:1"/><rect id="rect3398-3" width="52.857" height="50" x="137" y="463.791" rx="11.632" ry="11.632" style="fill:#ff8080;fill-opacity:1;stroke:#000;stroke-opacity:1"/><rect id="rect3398-1" width="52.857" height="50" x="190.857" y="463.791" rx="11.632" ry="11.632" style="fill:#ff8080;fill-opacity:1;stroke:#000;stroke-opacity:1"/><rect id="rect3398-6" width="52.857" height="50" x="244.714" y="463.791" rx="11.632" ry="11.632" style="fill:#ff8080;fill-opacity:1;stroke:#000;stroke-opacity:1"/><rect id="rect3398-2" width="52.857" height="50" x="298.571" y="463.791" rx="11.632" ry="11.632" style="fill:#ff8080;fill-opacity:1;stroke:#000;stroke-opacity:1"/><rect id="rect3398-15" width="52.857" height="50" x="352.429" y="463.791" rx="11.632" ry="11.632" style="fill:#ff8080;fill-opacity:1;stroke:#000;stroke-opacity:1"/><rect id="rect3398-4" width="52.857" height="50" x="406.286" y="463.791" rx="11.632" ry="11.632" style="fill:#ff8080;fill-opacity:1;stroke:#000;stroke-opacity:1"/><rect id="rect3398-65" width="52.857" height="50" x="460.143" y="463.791" rx="11.632" ry="11.632" style="fill:#ff8080;fill-opacity:1;stroke:#000;stroke-opacity:1"/></g><text style="font-size:16px;font-style:normal;font-variant:normal;font-weight:400;font-stretch:normal;text-align:start;line-height:125%;writing-mode:lr-tb;text-anchor:start;fill:#000;fill-opacity:1;stroke:none;font-family:Arial;-inkscape-font-specification:Arial" id="text4269-4" x="368.952" y="495.496" xml:space="preserve"><tspan id="tspan4271-5" x="368.952" y="495.496">obj2</tspan></text><text style="font-size:16px;font-style:normal;font-variant:normal;font-weight:400;font-stretch:normal;text-align:start;line-height:125%;writing-mode:lr-tb;text-anchor:start;fill:#000;fill-opacity:1;stroke:none;font-family:Arial;-inkscape-font-specification:Arial" id="text4269-5" x="422.995" y="495.496" xml:space="preserve"><tspan id="tspan4271-4" x="422.995" y="495.496">obj3</tspan></text><path style="fill:none;stroke:#000;stroke-width:1px;stroke-linecap:butt;stroke-linejoin:miter;stroke-opacity:1;marker-end:url(#Arrow1Lend)" id="path4309" d="m 323.57143,578.07647 0,-42.14286"/><text style="font-size:16px;font-style:normal;font-variant:normal;font-weight:400;font-stretch:normal;text-align:start;line-height:125%;writing-mode:lr-tb;text-anchor:start;fill:#000;fill-opacity:1;stroke:none;font-family:Arial;-inkscape-font-specification:Arial" id="text4787" x="355.714" y="591.505" xml:space="preserve"><tspan id="tspan4789" x="355.714" y="591.505">cons_head</tspan></text><text style="font-size:16px;font-style:normal;font-variant:normal;font-weight:400;font-stretch:normal;text-align:start;line-height:125%;writing-mode:lr-tb;text-anchor:start;fill:#000;fill-opacity:1;stroke:none;font-family:Arial;-inkscape-font-specification:Arial" id="text4787-3" x="276.168" y="591.41" xml:space="preserve"><tspan id="tspan4789-0" x="276.168" y="591.41">cons_tail</tspan></text><text style="font-size:16px;font-style:normal;font-variant:normal;font-weight:400;font-stretch:normal;text-align:start;line-height:125%;writing-mode:lr-tb;text-anchor:start;fill:#000;fill-opacity:1;stroke:none;font-family:Arial;-inkscape-font-specification:Arial" id="text4787-7" x="503.298" y="606.815" xml:space="preserve"><tspan id="tspan4789-8" x="503.298" y="606.815">prod_head</tspan></text><text style="font-size:16px;font-style:normal;font-variant:normal;font-weight:400;font-stretch:normal;text-align:start;line-height:125%;writing-mode:lr-tb;text-anchor:start;fill:#000;fill-opacity:1;stroke:none;font-family:Arial;-inkscape-font-specification:Arial" id="text4787-3-6" x="510.751" y="589.72" xml:space="preserve"><tspan id="tspan4789-0-8" x="510.751" y="589.72">prod_tail</tspan></text><rect style="fill:none;stroke:#000;stroke-width:1;stroke-miterlimit:4;stroke-opacity:1;stroke-dasharray:1,1;stroke-dashoffset:0" id="rect4889" width="482.857" height="138.571" x="163.571" y="315.219" rx="11.632" ry="11.632"/><text style="font-size:16px;font-style:normal;font-variant:normal;font-weight:400;font-stretch:normal;text-align:start;line-height:125%;writing-mode:lr-tb;text-anchor:start;fill:#000;fill-opacity:1;stroke:none;font-family:Arial;-inkscape-font-specification:Arial" id="text4891" x="174.286" y="310.934" xml:space="preserve"><tspan id="tspan4893" x="174.286" y="310.934">local variables</tspan></text><rect style="fill:none;stroke:#000;stroke-width:1;stroke-miterlimit:4;stroke-opacity:1;stroke-dasharray:1,1;stroke-dashoffset:0" id="rect4889-8" width="482.857" height="138.571" x="163.571" y="529.934" rx="11.632" ry="11.632"/><text style="font-size:16px;font-style:normal;font-variant:normal;font-weight:400;font-stretch:normal;text-align:start;line-height:125%;writing-mode:lr-tb;text-anchor:start;fill:#000;fill-opacity:1;stroke:none;font-family:Arial;-inkscape-font-specification:Arial" id="text4891-4" x="170.893" y="682.09" xml:space="preserve"><tspan id="tspan4893-3" x="170.893" y="682.09">structure state</tspan></text><path style="fill:none;stroke:#000;stroke-width:1px;stroke-linecap:butt;stroke-linejoin:miter;stroke-opacity:1;marker-end:url(#Arrow1Lend)" id="path4309-8" d="m 325.25296,407.43361 0,42.14286"/><path style="fill:none;stroke:#000;stroke-width:1px;stroke-linecap:butt;stroke-linejoin:miter;stroke-opacity:1;marker-end:url(#Arrow1Lend)" id="path4309-4-9" d="m 542.39581,407.43361 0,42.14286"/><text style="font-size:16px;font-style:normal;font-variant:normal;font-weight:400;font-stretch:normal;text-align:start;line-height:125%;writing-mode:lr-tb;text-anchor:start;fill:#000;fill-opacity:1;stroke:none;font-family:Arial;-inkscape-font-specification:Arial" id="text4787-3-64" x="272.135" y="399.481" xml:space="preserve"><tspan id="tspan4789-0-9" x="272.135" y="399.481">cons_head</tspan></text><text style="font-size:16px;font-style:normal;font-variant:normal;font-weight:400;font-stretch:normal;text-align:start;line-height:125%;writing-mode:lr-tb;text-anchor:start;fill:#000;fill-opacity:1;stroke:none;font-family:Arial;-inkscape-font-specification:Arial" id="text4787-7-5" x="511.694" y="399.481" xml:space="preserve"><tspan id="tspan4789-8-0" x="511.694" y="399.481">prod_tail</tspan></text><text style="font-size:16px;font-style:normal;font-variant:normal;font-weight:400;font-stretch:normal;text-align:start;line-height:125%;writing-mode:lr-tb;text-anchor:start;fill:#000;fill-opacity:1;stroke:none;font-family:Arial;-inkscape-font-specification:Arial" id="text4787-3-6-4" x="364.147" y="399.481" xml:space="preserve"><tspan id="tspan4789-0-8-8" x="364.147" y="399.481">cons_next</tspan></text><path style="fill:none;stroke:#000;stroke-width:1px;stroke-linecap:butt;stroke-linejoin:miter;stroke-opacity:1;marker-end:url(#Arrow1Lend)" id="path4309-4-9-9" d="m 380.71428,407.43361 0,42.14286"/><path style="fill:none;stroke:#000;stroke-width:1px;stroke-linecap:butt;stroke-linejoin:miter;stroke-opacity:1;marker-end:url(#Arrow1Lend)" id="path4309-4-3" d="m 540,575.57647 0,-42.14286"/><text style="font-size:16px;font-style:normal;font-variant:normal;font-weight:400;font-stretch:normal;text-align:start;line-height:125%;writing-mode:lr-tb;text-anchor:start;fill:#000;fill-opacity:1;stroke:none;font-family:Arial;-inkscape-font-specification:Arial" id="text4269-5-6" x="476.469" y="495.121" xml:space="preserve"><tspan id="tspan4271-4-5" x="476.469" y="495.121">obj4</tspan></text><path style="fill:none;stroke:#000;stroke-width:1px;stroke-linecap:butt;stroke-linejoin:miter;stroke-opacity:1;marker-end:url(#Arrow1Lend)" id="path4309-4" d="m 380.71429,577.71932 0,-42.14286"/></g></svg>