<svg xmlns="http://www.w3.org/2000/svg" xmlns:ev="http://www.w3.org/2001/xml-events" xmlns:xlink="http://www.w3.org/1999/xlink" width="600.055" height="697.765" class="st8" color-interpolation-filters="sRGB" viewBox="0 0 450.041 523.324" xml:space="preserve"><style type="text/css">.st1{fill:#0070c0;stroke-linecap:round;stroke-linejoin:round;stroke-width:.75}.st1,.st2,.st3{stroke:#000}.st2{marker-end:url(#mrkr13-71);stroke-linecap:round;stroke-linejoin:round;stroke-width:1.5}.st3{fill:#000;fill-opacity:1;stroke-opacity:1;stroke-width:.37313432835821}.st4,.st5{stroke:#000;stroke-linecap:round;stroke-linejoin:round;stroke-width:1.5}.st5{fill:none;stroke:none;stroke-width:.75}.st6{fill:#000;font-family:Calibri;font-size:1.16666em}.st7{font-size:1em}.st8{fill:none;fill-rule:evenodd;font-size:12px;overflow:visible;stroke-linecap:square;stroke-miterlimit:3}</style><defs id="Markers"><g id="lend13"><path d="M 3 1 L 0 0 L 3 -1 L 3 1" style="stroke:none"/></g><marker id="mrkr13-71" class="st3" markerUnits="strokeWidth" orient="auto" overflow="visible" refX="-8.04"><use transform="scale(-2.68,-2.68)" xlink:href="#lend13"/></marker></defs><g><title>Page-1</title><g id="group234-1" transform="translate(0.375,-12.7124)"><title>Sheet.234</title><g id="shape1-2" transform="translate(265.039,-113.796)"><title>Sheet.1</title><rect width="19.298" height="15.438" x="0" y="507.885" class="st1"/></g><g id="shape2-4" transform="translate(265.039,-98.3577)"><title>Sheet.2</title><rect width="19.298" height="15.438" x="0" y="507.885" class="st1"/></g><g id="shape3-6" transform="translate(265.039,-82.9192)"><title>Sheet.3</title><rect width="19.298" height="15.438" x="0" y="507.885" class="st1"/></g><g id="shape4-8" transform="translate(265.039,-67.4807)"><title>Sheet.4</title><rect width="19.298" height="15.438" x="0" y="507.885" class="st1"/></g><g id="shape6-10" transform="translate(288.197,-113.796)"><title>Sheet.6</title><rect width="19.298" height="15.438" x="0" y="507.885" class="st1"/></g><g id="shape7-12" transform="translate(288.197,-98.3577)"><title>Sheet.7</title><rect width="19.298" height="15.438" x="0" y="507.885" class="st1"/></g><g id="shape8-14" transform="translate(288.197,-82.9192)"><title>Sheet.8</title><rect width="19.298" height="15.438" x="0" y="507.885" class="st1"/></g><g id="shape9-16" transform="translate(288.197,-67.4807)"><title>Sheet.9</title><rect width="19.298" height="15.438" x="0" y="507.885" class="st1"/></g><g id="shape10-18" transform="translate(311.355,-113.796)"><title>Sheet.10</title><rect width="19.298" height="15.438" x="0" y="507.885" class="st1"/></g><g id="shape11-20" transform="translate(311.355,-98.3577)"><title>Sheet.11</title><rect width="19.298" height="15.438" x="0" y="507.885" class="st1"/></g><g id="shape12-22" transform="translate(311.355,-82.9192)"><title>Sheet.12</title><rect width="19.298" height="15.438" x="0" y="507.885" class="st1"/></g><g id="shape13-24" transform="translate(311.355,-67.4807)"><title>Sheet.13</title><rect width="19.298" height="15.438" x="0" y="507.885" class="st1"/></g><g id="shape14-26" transform="translate(334.513,-113.796)"><title>Sheet.14</title><rect width="19.298" height="15.438" x="0" y="507.885" class="st1"/></g><g id="shape15-28" transform="translate(334.513,-98.3577)"><title>Sheet.15</title><rect width="19.298" height="15.438" x="0" y="507.885" class="st1"/></g><g id="shape16-30" transform="translate(334.513,-82.9192)"><title>Sheet.16</title><rect width="19.298" height="15.438" x="0" y="507.885" class="st1"/></g><g id="shape17-32" transform="translate(334.513,-67.4807)"><title>Sheet.17</title><rect width="19.298" height="15.438" x="0" y="507.885" class="st1"/></g><g id="shape26-34" transform="translate(199.484,-113.968)"><title>Sheet.26</title><rect width="19.513" height="15.611" x="0" y="507.713" class="st1"/></g><g id="shape27-36" transform="translate(199.484,-98.3577)"><title>Sheet.27</title><rect width="19.513" height="15.611" x="0" y="507.713" class="st1"/></g><g id="shape28-38" transform="translate(199.484,-82.7471)"><title>Sheet.28</title><rect width="19.513" height="15.611" x="0" y="507.713" class="st1"/></g><g id="shape29-40" transform="translate(199.484,-67.1365)"><title>Sheet.29</title><rect width="19.513" height="15.611" x="0" y="507.713" class="st1"/></g><g id="shape30-42" transform="translate(68.9749,-115.97)"><title>Sheet.30</title><rect width="19.149" height="15.319" x="0" y="508.004" class="st1"/></g><g id="shape31-44" transform="translate(68.9749,-100.65)"><title>Sheet.31</title><rect width="19.149" height="15.319" x="0" y="508.004" class="st1"/></g><g id="shape32-46" transform="translate(68.9749,-85.3307)"><title>Sheet.32</title><rect width="19.149" height="15.319" x="0" y="508.004" class="st1"/></g><g id="shape33-48" transform="translate(68.9749,-70.0112)"><title>Sheet.33</title><rect width="19.149" height="15.319" x="0" y="508.004" class="st1"/></g><g id="shape40-50" transform="translate(67.8551,-198.425)"><title>Sheet.40</title><ellipse cx="11.168" cy="512.155" class="st1" rx="11.168" ry="11.168"/></g><g id="shape42-52" transform="translate(198.153,-205.871)"><title>Sheet.42</title><ellipse cx="11.168" cy="512.155" class="st1" rx="11.168" ry="11.168"/></g><g id="shape44-54" transform="translate(297.427,-205.871)"><title>Sheet.44</title><ellipse cx="11.168" cy="512.155" class="st1" rx="11.168" ry="11.168"/></g><g id="shape46-56" transform="translate(170.852,-306.005)"><title>Sheet.46</title><ellipse cx="11.168" cy="512.155" class="st1" rx="11.168" ry="11.168"/></g><g id="shape47-58" transform="translate(255.236,-388.69)"><title>Sheet.47</title><ellipse cx="11.168" cy="512.155" class="st1" rx="11.168" ry="11.168"/></g><g id="shape48-60" transform="translate(341.169,-317.821)"><title>Sheet.48</title><ellipse cx="11.168" cy="512.155" class="st1" rx="11.168" ry="11.168"/></g><g id="shape49-62" transform="translate(344.583,-470.722)"><title>Sheet.49</title><ellipse cx="11.168" cy="512.155" class="st1" rx="11.168" ry="11.168"/></g><g id="shape50-64" transform="translate(426.955,-399.855)"><title>Sheet.50</title><ellipse cx="11.168" cy="512.155" class="st1" rx="11.168" ry="11.168"/></g><g id="shape51-66" transform="translate(86.747,-217.661)"><title>Dynamic connector</title><path d="M0 523.32 L79.21 440.59" class="st2"/></g><g id="shape52-72" transform="translate(71.6902,-131.289)"><title>Dynamic connector.52</title><path d="M6.9 523.32 L7.21 468.25" class="st2"/></g><g id="shape157-77" transform="translate(202.193,-129.579)"><title>Dynamic connector.157</title><path d="M7.05 523.32 L7.11 459.09" class="st2"/></g><g id="shape158-82" transform="translate(206.384,-227.814)"><title>Dynamic connector.158</title><path d="M0 523.32 L-18.25 456.38" class="st2"/></g><g id="shape159-87" transform="translate(299.837,-223.969)"><title>Dynamic connector.159</title><path d="M0 523.32 L-99.6 444.53" class="st2"/></g><g id="shape160-92" transform="translate(295.944,-129.235)"><title>Dynamic connector.160</title><path d="M2.77 523.32 L10.05 458.6" class="st2"/></g><g id="shape161-97" transform="translate(277.428,-129.235)"><title>Dynamic connector.161</title><path d="M0 523.32 L23.4 457.41" class="st2"/></g><g id="shape162-102" transform="translate(322.104,-129.235)"><title>Dynamic connector.162</title><path d="M-2.1 523.32 L-10.52 458.55" class="st2"/></g><g id="shape163-107" transform="translate(341.288,-129.235)"><title>Dynamic connector.163</title><path d="M0 523.32 L-24.59 457.29" class="st2"/></g><g id="shape164-112" transform="translate(111.288,-84.3465)"><title>Dynamic connector.164</title><path d="M0 516.63 L69.49 515.85" class="st4"/></g><g id="shape165-115" transform="translate(189.998,-324.99)"><title>Dynamic connector.165</title><path d="M0 523.32 L59.82 464.71" class="st2"/></g><g id="shape166-120" transform="translate(343.721,-336.095)"><title>Dynamic connector.166</title><path d="M0 523.32 L-59.4 474.34" class="st2"/></g><g id="shape167-125" transform="translate(274.631,-407.412)"><title>Dynamic connector.167</title><path d="M0 523.32 L64.01 464.55" class="st2"/></g><g id="shape168-130" transform="translate(429.657,-418.308)"><title>Dynamic connector.168</title><path d="M0 523.32 L-56.3 474.89" class="st2"/></g><g id="shape170-135" transform="translate(70.9299,-2.87469)"><title>Dynamic connector.170</title><path d="M6.65 523.32 L7.36 468.25" class="st2"/></g><g id="shape171-140" transform="translate(201.964,1.13687E-13)"><title>Dynamic connector.171</title><path d="M6.93 523.32 L7.19 468.25" class="st2"/></g><g id="shape172-145" transform="translate(267.581,-0.34415)"><title>Dynamic connector.172</title><path d="M7.07 523.32 L7.1 468.25" class="st2"/></g><g id="shape173-150" transform="translate(290.626,-0.34415)"><title>Dynamic connector.173</title><path d="M6.98 523.32 L7.16 468.25" class="st2"/></g><g id="shape174-155" transform="translate(328.373,-0.34415)"><title>Dynamic connector.174</title><path d="M-6.86 523.32 L-7.23 468.25" class="st2"/></g><g id="shape175-160" transform="translate(336.683,-0.344153)"><title>Dynamic connector.175</title><path d="M6.77 523.32 L7.29 468.25" class="st2"/></g><g id="shape176-165" transform="translate(3.59712E-14,-85.0395)"><title>Sheet.176</title><desc>Queue</desc><rect width="52.441" height="42.52" x="0" y="480.804" class="st5"/><text x="7.19" y="506.26" class="st6">Queue</text></g><g id="shape177-168" transform="translate(265.039,-113.796)"><title>Sheet.177</title><rect width="19.298" height="15.438" x="0" y="507.885" class="st1"/></g><g id="shape178-170" transform="translate(265.039,-98.3577)"><title>Sheet.178</title><rect width="19.298" height="15.438" x="0" y="507.885" class="st1"/></g><g id="shape179-172" transform="translate(265.039,-82.9192)"><title>Sheet.179</title><rect width="19.298" height="15.438" x="0" y="507.885" class="st1"/></g><g id="shape180-174" transform="translate(265.039,-67.4807)"><title>Sheet.180</title><rect width="19.298" height="15.438" x="0" y="507.885" class="st1"/></g><g id="shape181-176" transform="translate(288.197,-113.796)"><title>Sheet.181</title><rect width="19.298" height="15.438" x="0" y="507.885" class="st1"/></g><g id="shape182-178" transform="translate(288.197,-98.3577)"><title>Sheet.182</title><rect width="19.298" height="15.438" x="0" y="507.885" class="st1"/></g><g id="shape183-180" transform="translate(288.197,-82.9192)"><title>Sheet.183</title><rect width="19.298" height="15.438" x="0" y="507.885" class="st1"/></g><g id="shape184-182" transform="translate(288.197,-67.4807)"><title>Sheet.184</title><rect width="19.298" height="15.438" x="0" y="507.885" class="st1"/></g><g id="shape185-184" transform="translate(311.355,-113.796)"><title>Sheet.185</title><rect width="19.298" height="15.438" x="0" y="507.885" class="st1"/></g><g id="shape186-186" transform="translate(311.355,-98.3577)"><title>Sheet.186</title><rect width="19.298" height="15.438" x="0" y="507.885" class="st1"/></g><g id="shape187-188" transform="translate(311.355,-82.9192)"><title>Sheet.187</title><rect width="19.298" height="15.438" x="0" y="507.885" class="st1"/></g><g id="shape188-190" transform="translate(311.355,-67.4807)"><title>Sheet.188</title><rect width="19.298" height="15.438" x="0" y="507.885" class="st1"/></g><g id="shape189-192" transform="translate(334.513,-113.796)"><title>Sheet.189</title><rect width="19.298" height="15.438" x="0" y="507.885" class="st1"/></g><g id="shape190-194" transform="translate(334.513,-98.3577)"><title>Sheet.190</title><rect width="19.298" height="15.438" x="0" y="507.885" class="st1"/></g><g id="shape191-196" transform="translate(334.513,-82.9192)"><title>Sheet.191</title><rect width="19.298" height="15.438" x="0" y="507.885" class="st1"/></g><g id="shape192-198" transform="translate(334.513,-67.4807)"><title>Sheet.192</title><rect width="19.298" height="15.438" x="0" y="507.885" class="st1"/></g><g id="shape193-200" transform="translate(199.484,-113.968)"><title>Sheet.193</title><rect width="19.513" height="15.611" x="0" y="507.713" class="st1"/></g><g id="shape194-202" transform="translate(199.484,-98.3577)"><title>Sheet.194</title><rect width="19.513" height="15.611" x="0" y="507.713" class="st1"/></g><g id="shape195-204" transform="translate(199.484,-82.7471)"><title>Sheet.195</title><rect width="19.513" height="15.611" x="0" y="507.713" class="st1"/></g><g id="shape196-206" transform="translate(199.484,-67.1365)"><title>Sheet.196</title><rect width="19.513" height="15.611" x="0" y="507.713" class="st1"/></g><g id="shape197-208" transform="translate(68.9749,-115.97)"><title>Sheet.197</title><rect width="19.149" height="15.319" x="0" y="508.004" class="st1"/></g><g id="shape198-210" transform="translate(68.9749,-100.65)"><title>Sheet.198</title><rect width="19.149" height="15.319" x="0" y="508.004" class="st1"/></g><g id="shape199-212" transform="translate(68.9749,-85.3307)"><title>Sheet.199</title><rect width="19.149" height="15.319" x="0" y="508.004" class="st1"/></g><g id="shape200-214" transform="translate(68.9749,-70.0112)"><title>Sheet.200</title><rect width="19.149" height="15.319" x="0" y="508.004" class="st1"/></g><g id="shape201-216" transform="translate(67.8551,-198.425)"><title>Sheet.201</title><ellipse cx="11.168" cy="512.155" class="st1" rx="11.168" ry="11.168"/></g><g id="shape202-218" transform="translate(198.153,-205.871)"><title>Sheet.202</title><ellipse cx="11.168" cy="512.155" class="st1" rx="11.168" ry="11.168"/></g><g id="shape203-220" transform="translate(297.427,-205.871)"><title>Sheet.203</title><ellipse cx="11.168" cy="512.155" class="st1" rx="11.168" ry="11.168"/></g><g id="shape204-222" transform="translate(170.852,-306.005)"><title>Sheet.204</title><ellipse cx="11.168" cy="512.155" class="st1" rx="11.168" ry="11.168"/></g><g id="shape205-224" transform="translate(255.236,-388.69)"><title>Sheet.205</title><ellipse cx="11.168" cy="512.155" class="st1" rx="11.168" ry="11.168"/></g><g id="shape206-226" transform="translate(341.169,-317.821)"><title>Sheet.206</title><ellipse cx="11.168" cy="512.155" class="st1" rx="11.168" ry="11.168"/></g><g id="shape207-228" transform="translate(344.583,-470.722)"><title>Sheet.207</title><ellipse cx="11.168" cy="512.155" class="st1" rx="11.168" ry="11.168"/></g><g id="shape208-230" transform="translate(426.955,-399.855)"><title>Sheet.208</title><ellipse cx="11.168" cy="512.155" class="st1" rx="11.168" ry="11.168"/></g><g id="shape209-232" transform="translate(86.747,-217.661)"><title>Dynamic connector.209</title><path d="M0 523.32 L79.21 440.59" class="st2"/></g><g id="shape210-237" transform="translate(71.6902,-131.289)"><title>Dynamic connector.210</title><path d="M6.9 523.32 L7.21 468.25" class="st2"/></g><g id="shape211-242" transform="translate(202.193,-129.579)"><title>Dynamic connector.211</title><path d="M7.05 523.32 L7.11 459.09" class="st2"/></g><g id="shape212-247" transform="translate(206.384,-227.814)"><title>Dynamic connector.212</title><path d="M0 523.32 L-18.25 456.38" class="st2"/></g><g id="shape213-252" transform="translate(299.837,-223.969)"><title>Dynamic connector.213</title><path d="M0 523.32 L-99.6 444.53" class="st2"/></g><g id="shape214-257" transform="translate(295.944,-129.235)"><title>Dynamic connector.214</title><path d="M2.77 523.32 L10.05 458.6" class="st2"/></g><g id="shape215-262" transform="translate(277.428,-129.235)"><title>Dynamic connector.215</title><path d="M0 523.32 L23.4 457.41" class="st2"/></g><g id="shape216-267" transform="translate(322.104,-129.235)"><title>Dynamic connector.216</title><path d="M-2.1 523.32 L-10.52 458.55" class="st2"/></g><g id="shape217-272" transform="translate(341.288,-129.235)"><title>Dynamic connector.217</title><path d="M0 523.32 L-24.59 457.29" class="st2"/></g><g id="shape218-277" transform="translate(111.288,-84.3465)"><title>Dynamic connector.218</title><path d="M0 516.63 L69.49 515.85" class="st4"/></g><g id="shape219-280" transform="translate(189.998,-324.99)"><title>Dynamic connector.219</title><path d="M0 523.32 L59.82 464.71" class="st2"/></g><g id="shape220-285" transform="translate(343.721,-336.095)"><title>Dynamic connector.220</title><path d="M0 523.32 L-59.4 474.34" class="st2"/></g><g id="shape221-290" transform="translate(274.631,-407.412)"><title>Dynamic connector.221</title><path d="M0 523.32 L64.01 464.55" class="st2"/></g><g id="shape222-295" transform="translate(429.657,-418.308)"><title>Dynamic connector.222</title><path d="M0 523.32 L-56.3 474.89" class="st2"/></g><g id="shape223-300" transform="translate(70.9299,-2.87469)"><title>Dynamic connector.223</title><path d="M6.65 523.32 L7.36 468.25" class="st2"/></g><g id="shape224-305" transform="translate(201.964,1.13687E-13)"><title>Dynamic connector.224</title><path d="M6.93 523.32 L7.19 468.25" class="st2"/></g><g id="shape225-310" transform="translate(267.581,-0.34415)"><title>Dynamic connector.225</title><path d="M7.07 523.32 L7.1 468.25" class="st2"/></g><g id="shape226-315" transform="translate(290.626,-0.34415)"><title>Dynamic connector.226</title><path d="M6.98 523.32 L7.16 468.25" class="st2"/></g><g id="shape227-320" transform="translate(328.373,-0.34415)"><title>Dynamic connector.227</title><path d="M-6.86 523.32 L-7.23 468.25" class="st2"/></g><g id="shape228-325" transform="translate(336.683,-0.344153)"><title>Dynamic connector.228</title><path d="M6.77 523.32 L7.29 468.25" class="st2"/></g><g id="shape230-330" transform="translate(9.92126,-185.273)"><title>Sheet.230</title><desc>Traffic Class</desc><rect width="52.441" height="48.642" x="0" y="474.681" class="st5"/><text x="8.18" y="494.8" class="st6">Traffic<tspan x="12.05" class="st7" dy="1.2em">Class</tspan></text></g><g id="shape231-334" transform="translate(113.386,-297.638)"><title>Sheet.231</title><desc>Pipe</desc><rect width="52.441" height="48.642" x="0" y="474.681" class="st5"/><text x="13.84" y="503.2" class="st6">Pipe</text></g><g id="shape232-337" transform="translate(185.669,-382.677)"><title>Sheet.232</title><desc>Subport</desc><rect width="65.197" height="48.642" x="0" y="474.681" class="st5"/><text x="9.87" y="503.2" class="st6">Subport</text></g><g id="shape233-340" transform="translate(284.882,-461.594)"><title>Sheet.233</title><desc>Port</desc><rect width="65.197" height="48.642" x="0" y="474.681" class="st5"/><text x="20.51" y="503.2" class="st6">Port</text></g></g></g></svg>