<svg xmlns="http://www.w3.org/2000/svg" xmlns:ev="http://www.w3.org/2001/xml-events" xmlns:xlink="http://www.w3.org/1999/xlink" width="182.1" height="154.236" class="st7" color-interpolation-filters="sRGB" viewBox="0 0 136.575 115.676" xml:space="preserve"><style type="text/css">.st1{visibility:visible}.st2,.st3{fill:#5b9bd5}.st2{fill-opacity:.22;filter:url(#filter_2);stroke:#5b9bd5;stroke-opacity:.22}.st3{stroke:#c7c8c8;stroke-width:.25}.st4{fill:#feffff;font-family:Calibri;font-size:.833336em}.st5{fill:none}.st6{stroke:#5b9bd5;stroke-linecap:round;stroke-linejoin:round;stroke-width:.999999}.st7{fill:none;fill-rule:evenodd;font-size:12px;overflow:visible;stroke-linecap:square;stroke-miterlimit:3}</style><defs id="Filters"><filter id="filter_2"><feGaussianBlur stdDeviation="2"/></filter></defs><g><title>Page-1</title><g id="group47-1" transform="translate(3.02997,-5.34779)"><title>Sheet.47</title><g id="shape36-2" transform="translate(66.2255,-27.0553)"><title>Circle</title><desc>priv_xform</desc><g id="shadow36-3" class="st1"><path d="M0 88.27 A31.7998 27.1694 0 1 1 63.6 88.27 A31.7998 27.1694 0 1 1 0 88.27 Z" class="st2" transform="matrix(1,0,0,1,0.345598,1.97279)"/></g><path d="M0 88.27 A31.7998 27.1694 0 1 1 63.6 88.27 A31.7998 27.1694 0 1 1 0 88.27 Z" class="st3"/><text x="9.47" y="91.27" class="st4">priv_xform</text></g><g id="shape39-8" transform="translate(-5.9952E-015,-81.5083)"><title>Circle.40</title><desc>op</desc><g id="shadow39-9" class="st1"><path d="M0 101.97 A13.5848 13.5848 0 1 1 27.17 101.97 A13.5848 13.5848 0 1 1 0 101.97 Z" class="st2" transform="matrix(1,0,0,1,0.345598,1.97279)"/></g><path d="M0 101.97 A13.5848 13.5848 0 1 1 27.17 101.97 A13.5848 13.5848 0 1 1 0 101.97 Z" class="st3"/><text x="8.32" y="104.97" class="st4">op</text></g><g id="shape40-14" transform="translate(-5.9952E-015,-54.3389)"><title>Circle.41</title><desc>op</desc><g id="shadow40-15" class="st1"><path d="M0 101.97 A13.5848 13.5848 0 1 1 27.17 101.97 A13.5848 13.5848 0 1 1 0 101.97 Z" class="st2" transform="matrix(1,0,0,1,0.345598,1.97279)"/></g><path d="M0 101.97 A13.5848 13.5848 0 1 1 27.17 101.97 A13.5848 13.5848 0 1 1 0 101.97 Z" class="st3"/><text x="8.32" y="104.97" class="st4">op</text></g><g id="shape41-20" transform="translate(-5.9952E-015,-27.1694)"><title>Circle.42</title><desc>op</desc><g id="shadow41-21" class="st1"><path d="M0 101.97 A13.5848 13.5848 0 1 1 27.17 101.97 A13.5848 13.5848 0 1 1 0 101.97 Z" class="st2" transform="matrix(1,0,0,1,0.345598,1.97279)"/></g><path d="M0 101.97 A13.5848 13.5848 0 1 1 27.17 101.97 A13.5848 13.5848 0 1 1 0 101.97 Z" class="st3"/><text x="8.32" y="104.97" class="st4">op</text></g><g id="shape42-26"><title>Circle.249</title><desc>op</desc><g id="shadow42-27" class="st1"><path d="M0 101.97 A13.5848 13.5848 0 1 1 27.17 101.97 A13.5848 13.5848 0 1 1 0 101.97 Z" class="st2" transform="matrix(1,0,0,1,0.345598,1.97279)"/></g><path d="M0 101.97 A13.5848 13.5848 0 1 1 27.17 101.97 A13.5848 13.5848 0 1 1 0 101.97 Z" class="st3"/><text x="8.32" y="104.97" class="st4">op</text></g><g id="shape43-32" transform="translate(75.3544,-84.7046) rotate(24.6166)"><title>Sheet.43</title><path d="M0 115.68 L51.71 115.68 L0 115.68 Z" class="st5"/><path d="M0 115.68 L51.71 115.68" class="st6"/></g><g id="shape44-35" transform="translate(40.8189,-67.2403) rotate(6.77654)"><title>Sheet.44</title><path d="M0 115.68 L40.8 115.68 L0 115.68 Z" class="st5"/><path d="M0 115.68 L40.8 115.68" class="st6"/></g><g id="shape45-38" transform="translate(-10.8336,-34.4585) rotate(-19.179)"><title>Sheet.45</title><path d="M0 115.68 L41.35 115.68 L0 115.68 Z" class="st5"/><path d="M0 115.68 L41.35 115.68" class="st6"/></g><g id="shape46-41" transform="translate(-21.0159,-3.19618) rotate(-24.6166)"><title>Sheet.46</title><path d="M0 115.68 L51.71 115.68 L0 115.68 Z" class="st5"/><path d="M0 115.68 L51.71 115.68" class="st6"/></g></g></g></svg>