<svg xmlns="http://www.w3.org/2000/svg" xmlns:ev="http://www.w3.org/2001/xml-events" xmlns:xlink="http://www.w3.org/1999/xlink" width="215.063" height="259.768" class="st8" color-interpolation-filters="sRGB" viewBox="0 0 161.298 194.826" xml:space="preserve"><style type="text/css">.st1{visibility:visible}.st2,.st3{fill:#5b9bd5}.st2{fill-opacity:.22;filter:url(#filter_2);stroke:#5b9bd5;stroke-opacity:.22}.st3{stroke:#c7c8c8;stroke-width:.25}.st4,.st5{fill:#feffff;font-family:Calibri;font-size:.833336em}.st5{font-size:.75em}.st6,.st7{stroke:#5b9bd5}.st6{marker-start:url(#mrkr13-19);stroke-linecap:round;stroke-linejoin:round;stroke-width:1}.st7{fill:#5b9bd5;fill-opacity:1;stroke-opacity:1;stroke-width:.28409094308259}.st8{fill:none;fill-rule:evenodd;font-size:12px;overflow:visible;stroke-linecap:square;stroke-miterlimit:3}</style><defs id="Markers"><g id="lend13"><path d="M 3 1 L 0 0 L 3 -1 L 3 1" style="stroke:none"/></g><marker id="mrkr13-19" class="st7" markerUnits="strokeWidth" orient="auto" overflow="visible" refX="0"><use transform="scale(3.5199995788296)" xlink:href="#lend13"/></marker></defs><defs id="Filters"><filter id="filter_2"><feGaussianBlur stdDeviation="2"/></filter></defs><g><title>Page-1</title><g id="group61-1" transform="translate(3.02943,-5.34782)"><title>Sheet.61</title><g id="shape52-2" transform="translate(97.856,-133.39)"><title>Circle.40</title><desc>op</desc><g id="shadow52-3" class="st1"><path d="M-0 167.48 A28.3465 27.6272 180 0 1 56.69 167.48 A28.3465 27.6272 180 0 1 -0 167.48 Z" class="st2" transform="matrix(1,0,0,1,0.345598,1.97279)"/></g><path d="M-0 167.48 A28.3465 27.6272 180 0 1 56.69 167.48 A28.3465 27.6272 180 0 1 -0 167.48 Z" class="st3"/><text x="23.08" y="170.48" class="st4">op</text></g><g id="shape53-8" transform="translate(-3.9968E-015,-133.39)"><title>Circle.299</title><desc>priv_xform</desc><g id="shadow53-9" class="st1"><path d="M-0 167.48 A28.3465 27.6272 180 0 1 56.69 167.48 A28.3465 27.6272 180 0 1 -0 167.48 Z" class="st2" transform="matrix(1,0,0,1,0.345598,1.97279)"/></g><path d="M-0 167.48 A28.3465 27.6272 180 0 1 56.69 167.48 A28.3465 27.6272 180 0 1 -0 167.48 Z" class="st3"/><text x="8.25" y="170.18" class="st5">priv_xform</text></g><g id="shape54-14" transform="translate(56.693,-160.74)"><title>Sheet.54</title><path d="M0 194.83 L10.2 194.83 L10.56 194.83 L41.16 194.83" class="st6"/></g><g id="shape55-20" transform="translate(97.856,-65.1969)"><title>Circle.479</title><desc>op</desc><g id="shadow55-21" class="st1"><path d="M0 166.19 A28.3465 28.3465 0 1 1 56.69 166.19 A28.3465 28.3465 0 1 1 0 166.19 Z" class="st2" transform="matrix(1,0,0,1,0.345598,1.97279)"/></g><path d="M0 166.19 A28.3465 28.3465 0 1 1 56.69 166.19 A28.3465 28.3465 0 1 1 0 166.19 Z" class="st3"/><text x="23.08" y="169.19" class="st4">op</text></g><g id="shape56-26" transform="translate(-3.9968E-015,-65.7801)"><title>Circle.480</title><desc>priv_xform</desc><g id="shadow56-27" class="st1"><path d="M0 166.77 A28.3465 28.3465 0 0 1 56.69 166.77 A28.3465 28.3465 0 0 1 0 166.77 Z" class="st2" transform="matrix(1,0,0,1,0.345598,1.97279)"/></g><path d="M0 166.77 A28.3465 28.3465 0 0 1 56.69 166.77 A28.3465 28.3465 0 0 1 0 166.77 Z" class="st3"/><text x="8.25" y="169.47" class="st5">priv_xform</text></g><g id="shape57-32" transform="translate(56.693,-93.8414)"><title>Sheet.57</title><path d="M0 194.83 L10.2 194.83 L10.56 194.83 L41.16 194.83" class="st6"/></g><g id="shape58-37" transform="translate(97.856,0)"><title>Circle.482</title><desc>op</desc><g id="shadow58-38" class="st1"><path d="M0 166.19 A28.3465 28.3465 0 1 1 56.69 166.19 A28.3465 28.3465 0 1 1 0 166.19 Z" class="st2" transform="matrix(1,0,0,1,0.345598,1.97279)"/></g><path d="M0 166.19 A28.3465 28.3465 0 1 1 56.69 166.19 A28.3465 28.3465 0 1 1 0 166.19 Z" class="st3"/><text x="23.08" y="169.19" class="st4">op</text></g><g id="shape59-43" transform="translate(-3.9968E-015,-0.583223)"><title>Circle.483</title><desc>priv_xform</desc><g id="shadow59-44" class="st1"><path d="M0 166.77 A28.3465 28.3465 0 0 1 56.69 166.77 A28.3465 28.3465 0 0 1 0 166.77 Z" class="st2" transform="matrix(1,0,0,1,0.345598,1.97279)"/></g><path d="M0 166.77 A28.3465 28.3465 0 0 1 56.69 166.77 A28.3465 28.3465 0 0 1 0 166.77 Z" class="st3"/><text x="8.25" y="169.47" class="st5">priv_xform</text></g><g id="shape60-49" transform="translate(56.693,-28.6446)"><title>Sheet.60</title><path d="M0 194.83 L10.2 194.83 L10.56 194.83 L41.16 194.83" class="st6"/></g></g></g></svg>