<svg xmlns="http://www.w3.org/2000/svg" xmlns:ev="http://www.w3.org/2001/xml-events" xmlns:xlink="http://www.w3.org/1999/xlink" width="143.173" height="129.945" class="st6" color-interpolation-filters="sRGB" viewBox="0 0 107.38 97.459" xml:space="preserve"><style type="text/css">.st1{visibility:visible}.st2,.st3{fill:#5b9bd5}.st2{fill-opacity:.22;filter:url(#filter_2);stroke:#5b9bd5;stroke-opacity:.22}.st3{stroke:#c7c8c8;stroke-width:.25}.st4{fill:#feffff;font-family:Calibri;font-size:.833336em}.st5{stroke:#5b9bd5;stroke-linecap:round;stroke-linejoin:round;stroke-width:1}.st6{fill:none;fill-rule:evenodd;font-size:12px;overflow:visible;stroke-linecap:square;stroke-miterlimit:3}</style><defs id="Filters"><filter id="filter_2"><feGaussianBlur stdDeviation="2"/></filter></defs><g><title>Page-1</title><g id="shape38-1" transform="translate(58.305,-28.025)"><title>Circle</title><desc>stream</desc><g id="shadow38-2" class="st1"><path d="M0 74.78 A22.6772 22.6772 0 0 1 45.35 74.78 A22.6772 22.6772 0 1 1 0 74.78 Z" class="st2" transform="matrix(1,0,0,1,0.345598,1.97279)"/></g><path d="M0 74.78 A22.6772 22.6772 0 0 1 45.35 74.78 A22.6772 22.6772 0 1 1 0 74.78 Z" class="st3"/><text x="8.43" y="77.78" class="st4">stream</text></g><g id="shape39-7" transform="translate(3.0294,-73.3793)"><title>Circle.39</title><desc>op</desc><g id="shadow39-8" class="st1"><path d="M0 86.12 A11.3386 11.3386 0 0 1 22.68 86.12 A11.3386 11.3386 0 1 1 0 86.12 Z" class="st2" transform="matrix(1,0,0,1,0.345598,1.97279)"/></g><path d="M0 86.12 A11.3386 11.3386 0 0 1 22.68 86.12 A11.3386 11.3386 0 1 1 0 86.12 Z" class="st3"/><text x="6.07" y="89.12" class="st4">op</text></g><g id="shape40-13" transform="translate(3.0294,-50.7021)"><title>Circle.40</title><desc>op</desc><g id="shadow40-14" class="st1"><path d="M0 86.12 A11.3386 11.3386 0 0 1 22.68 86.12 A11.3386 11.3386 0 1 1 0 86.12 Z" class="st2" transform="matrix(1,0,0,1,0.345598,1.97279)"/></g><path d="M0 86.12 A11.3386 11.3386 0 0 1 22.68 86.12 A11.3386 11.3386 0 1 1 0 86.12 Z" class="st3"/><text x="6.07" y="89.12" class="st4">op</text></g><g id="shape41-19" transform="translate(3.0294,-28.025)"><title>Circle.41</title><desc>op</desc><g id="shadow41-20" class="st1"><path d="M0 86.12 A11.3386 11.3386 0 0 1 22.68 86.12 A11.3386 11.3386 0 1 1 0 86.12 Z" class="st2" transform="matrix(1,0,0,1,0.345598,1.97279)"/></g><path d="M0 86.12 A11.3386 11.3386 0 0 1 22.68 86.12 A11.3386 11.3386 0 1 1 0 86.12 Z" class="st3"/><text x="6.07" y="89.12" class="st4">op</text></g><g id="shape42-25" transform="translate(3.0294,-5.34779)"><title>Circle.249</title><desc>op</desc><g id="shadow42-26" class="st1"><path d="M0 86.12 A11.3386 11.3386 0 0 1 22.68 86.12 A11.3386 11.3386 0 1 1 0 86.12 Z" class="st2" transform="matrix(1,0,0,1,0.345598,1.97279)"/></g><path d="M0 86.12 A11.3386 11.3386 0 0 1 22.68 86.12 A11.3386 11.3386 0 1 1 0 86.12 Z" class="st3"/><text x="6.07" y="89.12" class="st4">op</text></g><g id="shape43-31" transform="translate(66.3024,-75.8604) rotate(24.6166)"><title>Sheet.43</title><path d="M0 97.46 L43.16 97.46" class="st5"/></g><g id="shape44-34" transform="translate(37.2064,-61.3598) rotate(6.77654)"><title>Sheet.44</title><path d="M0 97.46 L34.05 97.46" class="st5"/></g><g id="shape45-37" transform="translate(-6.31062,-33.9543) rotate(-19.179)"><title>Sheet.45</title><path d="M0 97.46 L34.51 97.46" class="st5"/></g><g id="shape46-40" transform="translate(-14.8893,-7.82888) rotate(-24.6166)"><title>Sheet.46</title><path d="M0 97.46 L43.16 97.46" class="st5"/></g></g></svg>