<svg xmlns="http://www.w3.org/2000/svg" xmlns:svg="http://www.w3.org/2000/svg" id="svg7800" width="1237.487" height="481.375" version="1.1" viewBox="0 0 1237.487 481.375" xml:space="preserve"><metadata id="metadata7804"/><defs id="defs7394"><clipPath id="clipPath3975"><path id="path7226" d="M 0,1.2207e-4 H 960 V 540.00012 H 0 Z" style="clip-rule:evenodd"/></clipPath><clipPath id="clipPath4003"><path id="path7229" d="M 1.4305e-5,0 H 960.00001 V 540 H 1.4305e-5 Z" style="clip-rule:evenodd"/></clipPath><clipPath id="clipPath4025"><path id="path7232" d="M 1.4305e-5,0 H 960.00001 V 540 H 1.4305e-5 Z" style="clip-rule:evenodd"/></clipPath><clipPath id="clipPath4037"><path id="path7235" d="M 1.4305e-5,0 H 960.00001 V 540 H 1.4305e-5 Z" style="clip-rule:evenodd"/></clipPath><clipPath id="clipPath4049"><path id="path7238" d="M 1.4305e-5,0 H 960.00001 V 540 H 1.4305e-5 Z" style="clip-rule:evenodd"/></clipPath><clipPath id="clipPath4061"><path id="path7241" d="M 1.4305e-5,0 H 960.00001 V 540 H 1.4305e-5 Z" style="clip-rule:evenodd"/></clipPath><clipPath id="clipPath4073"><path id="path7244" d="M 1.4305e-5,0 H 960.00001 V 540 H 1.4305e-5 Z" style="clip-rule:evenodd"/></clipPath><clipPath id="clipPath4085"><path id="path7247" d="M 1.4305e-5,0 H 960.00001 V 540 H 1.4305e-5 Z" style="clip-rule:evenodd"/></clipPath><clipPath id="clipPath4097"><path id="path7250" d="M 1.4305e-5,0 H 960.00001 V 540 H 1.4305e-5 Z" style="clip-rule:evenodd"/></clipPath><clipPath id="clipPath4109"><path id="path7253" d="M 1.4305e-5,0 H 960.00001 V 540 H 1.4305e-5 Z" style="clip-rule:evenodd"/></clipPath><clipPath id="clipPath4121"><path id="path7256" d="M 1.4305e-5,0 H 960.00001 V 540 H 1.4305e-5 Z" style="clip-rule:evenodd"/></clipPath><clipPath id="clipPath4133"><path id="path7259" d="M 1.4305e-5,0 H 960.00001 V 540 H 1.4305e-5 Z" style="clip-rule:evenodd"/></clipPath><clipPath id="clipPath4145"><path id="path7262" d="M 1.4305e-5,0 H 960.00001 V 540 H 1.4305e-5 Z" style="clip-rule:evenodd"/></clipPath><clipPath id="clipPath4157"><path id="path7265" d="M 1.4305e-5,0 H 960.00001 V 540 H 1.4305e-5 Z" style="clip-rule:evenodd"/></clipPath><clipPath id="clipPath4169"><path id="path7268" d="M 1.4305e-5,0 H 960.00001 V 540 H 1.4305e-5 Z" style="clip-rule:evenodd"/></clipPath><clipPath id="clipPath4181"><path id="path7271" d="M 1.4305e-5,0 H 960.00001 V 540 H 1.4305e-5 Z" style="clip-rule:evenodd"/></clipPath><clipPath id="clipPath4193"><path id="path7274" d="M 1.4305e-5,0 H 960.00001 V 540 H 1.4305e-5 Z" style="clip-rule:evenodd"/></clipPath><clipPath id="clipPath4205"><path id="path7277" d="M 1.4305e-5,0 H 960.00001 V 540 H 1.4305e-5 Z" style="clip-rule:evenodd"/></clipPath><clipPath id="clipPath4217"><path id="path7280" d="M 1.4305e-5,0 H 960.00001 V 540 H 1.4305e-5 Z" style="clip-rule:evenodd"/></clipPath><clipPath id="clipPath4229"><path id="path7283" d="M 1.4305e-5,0 H 960.00001 V 540 H 1.4305e-5 Z" style="clip-rule:evenodd"/></clipPath><clipPath id="clipPath4241"><path id="path7286" d="M 1.4305e-5,0 H 960.00001 V 540 H 1.4305e-5 Z" style="clip-rule:evenodd"/></clipPath><clipPath id="clipPath4253"><path id="path7289" d="M 1.4305e-5,0 H 960.00001 V 540 H 1.4305e-5 Z" style="clip-rule:evenodd"/></clipPath><clipPath id="clipPath4265"><path id="path7292" d="M 1.4305e-5,0 H 960.00001 V 540 H 1.4305e-5 Z" style="clip-rule:evenodd"/></clipPath><clipPath id="clipPath4277"><path id="path7295" d="M 1.4305e-5,0 H 960.00001 V 540 H 1.4305e-5 Z" style="clip-rule:evenodd"/></clipPath><clipPath id="clipPath4289"><path id="path7298" d="M 1.4305e-5,0 H 960.00001 V 540 H 1.4305e-5 Z" style="clip-rule:evenodd"/></clipPath><clipPath id="clipPath4301"><path id="path7301" d="M 1.4305e-5,0 H 960.00001 V 540 H 1.4305e-5 Z" style="clip-rule:evenodd"/></clipPath><clipPath id="clipPath4313"><path id="path7304" d="M 1.4305e-5,0 H 960.00001 V 540 H 1.4305e-5 Z" style="clip-rule:evenodd"/></clipPath><clipPath id="clipPath4327"><path id="path7307" d="M 1.4305e-5,0 H 960.00001 V 540 H 1.4305e-5 Z" style="clip-rule:evenodd"/></clipPath><clipPath id="clipPath4339"><path id="path7310" d="M 1.4305e-5,0 H 960.00001 V 540 H 1.4305e-5 Z" style="clip-rule:evenodd"/></clipPath><clipPath id="clipPath4351"><path id="path7313" d="M 1.4305e-5,0 H 960.00001 V 540 H 1.4305e-5 Z" style="clip-rule:evenodd"/></clipPath><clipPath id="clipPath4363"><path id="path7316" d="M 1.4305e-5,0 H 960.00001 V 540 H 1.4305e-5 Z" style="clip-rule:evenodd"/></clipPath><clipPath id="clipPath4375"><path id="path7319" d="M 1.4305e-5,0 H 960.00001 V 540 H 1.4305e-5 Z" style="clip-rule:evenodd"/></clipPath><clipPath id="clipPath4389"><path id="path7322" d="M 1.4305e-5,0 H 960.00001 V 540 H 1.4305e-5 Z" style="clip-rule:evenodd"/></clipPath><clipPath id="clipPath4403"><path id="path7325" d="M 1.4305e-5,0 H 960.00001 V 540 H 1.4305e-5 Z" style="clip-rule:evenodd"/></clipPath><clipPath id="clipPath4417"><path id="path7328" d="M 1.4305e-5,0 H 960.00001 V 540 H 1.4305e-5 Z" style="clip-rule:evenodd"/></clipPath><clipPath id="clipPath4429"><path id="path7331" d="M 1.4305e-5,0 H 960.00001 V 540 H 1.4305e-5 Z" style="clip-rule:evenodd"/></clipPath><clipPath id="clipPath4441"><path id="path7334" d="M 1.4305e-5,0 H 960.00001 V 540 H 1.4305e-5 Z" style="clip-rule:evenodd"/></clipPath><clipPath id="clipPath4453"><path id="path7337" d="M 1.4305e-5,0 H 960.00001 V 540 H 1.4305e-5 Z" style="clip-rule:evenodd"/></clipPath><clipPath id="clipPath4477"><path id="path7340" d="M 1.4305e-5,0 H 960.00001 V 540 H 1.4305e-5 Z" style="clip-rule:evenodd"/></clipPath><clipPath id="clipPath4489"><path id="path7343" d="M 1.4305e-5,0 H 960.00001 V 540 H 1.4305e-5 Z" style="clip-rule:evenodd"/></clipPath><clipPath id="clipPath4501"><path id="path7346" d="M 1.4305e-5,0 H 960.00001 V 540 H 1.4305e-5 Z" style="clip-rule:evenodd"/></clipPath><clipPath id="clipPath4513"><path id="path7349" d="M 1.4305e-5,0 H 960.00001 V 540 H 1.4305e-5 Z" style="clip-rule:evenodd"/></clipPath><clipPath id="clipPath4525"><path id="path7352" d="M 1.4305e-5,0 H 960.00001 V 540 H 1.4305e-5 Z" style="clip-rule:evenodd"/></clipPath><clipPath id="clipPath4537"><path id="path7355" d="M 1.4305e-5,0 H 960.00001 V 540 H 1.4305e-5 Z" style="clip-rule:evenodd"/></clipPath><clipPath id="clipPath4549"><path id="path7358" d="M 1.4305e-5,0 H 960.00001 V 540 H 1.4305e-5 Z" style="clip-rule:evenodd"/></clipPath><clipPath id="clipPath4561"><path id="path7361" d="M 1.4305e-5,0 H 960.00001 V 540 H 1.4305e-5 Z" style="clip-rule:evenodd"/></clipPath><clipPath id="clipPath4573"><path id="path7364" d="M 1.4305e-5,0 H 960.00001 V 540 H 1.4305e-5 Z" style="clip-rule:evenodd"/></clipPath><clipPath id="clipPath4589"><path id="path7367" d="M 1.4305e-5,0 H 960.00001 V 540 H 1.4305e-5 Z" style="clip-rule:evenodd"/></clipPath><clipPath id="clipPath4601"><path id="path7370" d="M 1.4305e-5,0 H 960.00001 V 540 H 1.4305e-5 Z" style="clip-rule:evenodd"/></clipPath><clipPath id="clipPath4615"><path id="path7373" d="M 1.4305e-5,0 H 960.00001 V 540 H 1.4305e-5 Z" style="clip-rule:evenodd"/></clipPath><clipPath id="clipPath4629"><path id="path7376" d="M 1.4305e-5,0 H 960.00001 V 540 H 1.4305e-5 Z" style="clip-rule:evenodd"/></clipPath><clipPath id="clipPath4641"><path id="path7379" d="M 1.4305e-5,0 H 960.00001 V 540 H 1.4305e-5 Z" style="clip-rule:evenodd"/></clipPath><clipPath id="clipPath4653"><path id="path7382" d="M 1.4305e-5,0 H 960.00001 V 540 H 1.4305e-5 Z" style="clip-rule:evenodd"/></clipPath><clipPath id="clipPath4673"><path id="path7385" d="M 1.4305e-5,0 H 960.00001 V 540 H 1.4305e-5 Z" style="clip-rule:evenodd"/></clipPath><clipPath id="clipPath4685"><path id="path7388" d="M 1.4305e-5,0 H 960.00001 V 540 H 1.4305e-5 Z" style="clip-rule:evenodd"/></clipPath><clipPath id="clipPath4699"><path id="path7391" d="M 1.4305e-5,0 H 960.00001 V 540 H 1.4305e-5 Z" style="clip-rule:evenodd"/></clipPath></defs><g id="g7406" transform="matrix(1.3333,0,0,-1.3333,-24.241503,623.02442)"><path style="fill:#44546a" id="path7400" d="m 161.83,180.57 773.79,4.78 c 0.82,0.01 1.49,0.68 1.49,1.51 -0.01,0.83 -0.68,1.5 -1.51,1.49 l -773.79,-4.78 c -0.83,-0.01 -1.5,-0.68 -1.49,-1.51 0.01,-0.83 0.68,-1.5 1.51,-1.49 z m 772.3,1.77 8.97,4.56 -9.03,4.44 z"/><path style="fill:#00b050;fill-rule:evenodd" id="path7402" d="m 173.28,182.22 c 0,4.67 3.36,8.46 7.5,8.46 4.14,0 7.5,-3.79 7.5,-8.46 0,-4.67 -3.36,-8.46 -7.5,-8.46 -4.14,0 -7.5,3.79 -7.5,8.46 z"/><path style="fill:#00b050;fill-rule:evenodd" id="path7404" d="m 612.24,183.78 c 0,4.67 3.36,8.46 7.5,8.46 4.14,0 7.5,-3.79 7.5,-8.46 0,-4.67 -3.36,-8.46 -7.5,-8.46 -4.14,0 -7.5,3.79 -7.5,8.46 z"/></g><g style="fill:red;fill-rule:evenodd" id="g7420" transform="matrix(1.3333,0,0,-1.3333,-24.241503,623.02442)"><path id="path7408" d="m 228.12,182.22 c 0,4.67 3.36,8.46 7.5,8.46 4.14,0 7.5,-3.79 7.5,-8.46 0,-4.67 -3.36,-8.46 -7.5,-8.46 -4.14,0 -7.5,3.79 -7.5,8.46 z"/><path id="path7410" d="m 282.96,182.22 c 0,4.67 3.36,8.46 7.5,8.46 4.14,0 7.5,-3.79 7.5,-8.46 0,-4.67 -3.36,-8.46 -7.5,-8.46 -4.14,0 -7.5,3.79 -7.5,8.46 z"/><path id="path7412" d="m 337.8,182.22 c 0,4.67 3.38,8.46 7.56,8.46 4.18,0 7.56,-3.79 7.56,-8.46 0,-4.67 -3.38,-8.46 -7.56,-8.46 -4.18,0 -7.56,3.79 -7.56,8.46 z"/><path id="path7414" d="m 447.6,182.22 c 0,4.67 3.36,8.46 7.5,8.46 4.14,0 7.5,-3.79 7.5,-8.46 0,-4.67 -3.36,-8.46 -7.5,-8.46 -4.14,0 -7.5,3.79 -7.5,8.46 z"/><path id="path7416" d="m 502.44,182.34 c 0,4.67 3.38,8.46 7.56,8.46 4.18,0 7.56,-3.79 7.56,-8.46 0,-4.67 -3.38,-8.46 -7.56,-8.46 -4.18,0 -7.56,3.79 -7.56,8.46 z"/><path id="path7418" d="m 557.28,182.34 c 0,4.67 3.38,8.46 7.56,8.46 4.18,0 7.56,-3.79 7.56,-8.46 0,-4.67 -3.38,-8.46 -7.56,-8.46 -4.18,0 -7.56,3.79 -7.56,8.46 z"/></g><g id="g7426" clip-path="url(#clipPath4003)" transform="matrix(1.3333,0,0,-1.3333,-24.241503,623.02442)"><text style="font-size:14.03999996px;font-family:Calibri;fill:#000" id="text7424" font-size="14.04" transform="matrix(1,0,0,-1,152.98,149.45)"><tspan id="tspan7422" x="0 6.346 13.464 20.526 24.107 31.225" y="0">v19.11</tspan></text></g><path style="fill:#00b050;fill-rule:evenodd;stroke-width:1.33329999" id="path7428" d="m 499.42541,379.9105 c 0,-6.22651 4.47989,-11.27972 9.99975,-11.27972 5.51986,0 9.99975,5.05321 9.99975,11.27972 0,6.22651 -4.47989,11.27972 -9.99975,11.27972 -5.51986,0 -9.99975,-5.05321 -9.99975,-11.27972 z"/><path style="fill:#00b050;fill-rule:evenodd;stroke-width:1.33329999" id="path7430" d="m 1084.6908,373.67065 c 0,-6.22651 4.4799,-11.27971 9.9997,-11.27971 5.5199,0 9.9998,5.0532 9.9998,11.27971 0,6.22652 -4.4799,11.27972 -9.9998,11.27972 -5.5198,0 -9.9997,-5.0532 -9.9997,-11.27972 z"/><g style="fill:red;fill-rule:evenodd" id="g7438" transform="matrix(1.3333,0,0,-1.3333,-24.241503,623.02442)"><path id="path7432" d="m 667.08,185.4 c 0,4.64 3.36,8.4 7.5,8.4 4.14,0 7.5,-3.76 7.5,-8.4 0,-4.64 -3.36,-8.4 -7.5,-8.4 -4.14,0 -7.5,3.76 -7.5,8.4 z"/><path id="path7434" d="m 721.92,185.58 c 0,4.67 3.38,8.46 7.56,8.46 4.18,0 7.56,-3.79 7.56,-8.46 0,-4.67 -3.38,-8.46 -7.56,-8.46 -4.18,0 -7.56,3.79 -7.56,8.46 z"/><path id="path7436" d="m 776.76,185.58 c 0,4.67 3.38,8.46 7.56,8.46 4.18,0 7.56,-3.79 7.56,-8.46 0,-4.67 -3.38,-8.46 -7.56,-8.46 -4.18,0 -7.56,3.79 -7.56,8.46 z"/></g><g id="g7444" clip-path="url(#clipPath4025)" transform="matrix(1.3333,0,0,-1.3333,-24.241503,623.02442)"><text style="font-size:14.03999996px;font-family:Calibri;fill:#000" id="text7442" font-size="14.04" transform="matrix(1,0,0,-1,210.14,150.1)"><tspan id="tspan7440" x="0 6.346 13.464 20.526 24.107 31.225" y="0">v20.02</tspan></text></g><g id="g7450" clip-path="url(#clipPath4037)" transform="matrix(1.3333,0,0,-1.3333,-24.241503,623.02442)"><text style="font-size:14.03999996px;font-family:Calibri;fill:#000" id="text7448" font-size="14.04" transform="matrix(1,0,0,-1,265.01,150.1)"><tspan id="tspan7446" x="0 6.346 13.464 20.526 24.107 31.225" y="0">v20.05</tspan></text></g><g id="g7456" clip-path="url(#clipPath4049)" transform="matrix(1.3333,0,0,-1.3333,-24.241503,623.02442)"><text style="font-size:14.03999996px;font-family:Calibri;fill:#000" id="text7454" font-size="14.04" transform="matrix(1,0,0,-1,319.9,150.77)"><tspan id="tspan7452" x="0 6.346 13.464 20.526 24.107 31.225" y="0">v20.08</tspan></text></g><g id="g7462" clip-path="url(#clipPath4061)" transform="matrix(1.3333,0,0,-1.3333,-24.241503,623.02442)"><text style="font-size:14.06400013px;font-family:Calibri;fill:#000" id="text7460" font-size="14.064" transform="matrix(1,0,0,-1,375,150.94)"><tspan id="tspan7458" x="0 7.918 14.992 22.066 25.653 32.727" y="0">V20.11</tspan></text></g><g id="g7468" clip-path="url(#clipPath4073)" transform="matrix(1.3333,0,0,-1.3333,-24.241503,623.02442)"><text style="font-size:14.06400013px;font-family:Calibri;fill:#000" id="text7466" font-size="14.064" transform="matrix(1,0,0,-1,429.17,150.94)"><tspan id="tspan7464" x="0 6.357 13.445 20.519 24.106 31.18" y="0">v21.02</tspan></text></g><g id="g7474" clip-path="url(#clipPath4085)" transform="matrix(1.3333,0,0,-1.3333,-24.241503,623.02442)"><text style="font-size:14.03999996px;font-family:Calibri;fill:#000" id="text7472" font-size="14.04" transform="matrix(1,0,0,-1,483,150.55)"><tspan id="tspan7470" x="0 6.346 13.464 20.526 24.107 31.225" y="0">v21.05</tspan></text></g><g id="g7480" clip-path="url(#clipPath4097)" transform="matrix(1.3333,0,0,-1.3333,-24.241503,623.02442)"><text style="font-size:14.06400013px;font-family:Calibri;fill:#000" id="text7478" font-size="14.064" transform="matrix(1,0,0,-1,537.38,150.82)"><tspan id="tspan7476" x="0 6.357 13.445 20.519 24.106 31.18" y="0">v21.08</tspan></text></g><g id="g7486" clip-path="url(#clipPath4109)" transform="matrix(1.3333,0,0,-1.3333,-24.241503,623.02442)"><text style="font-size:14.06400013px;font-family:Calibri;fill:#000" id="text7484" font-size="14.064" transform="matrix(1,0,0,-1,592.27,150.82)"><tspan id="tspan7482" x="0 6.357 13.445 20.519 24.106 31.18" y="0">v21.11</tspan></text></g><g id="g7492" clip-path="url(#clipPath4121)" transform="matrix(1.3333,0,0,-1.3333,-24.241503,623.02442)"><text style="font-size:14.03999996px;font-family:Calibri;fill:#000" id="text7490" font-size="14.04" transform="matrix(1,0,0,-1,647.14,151.46)"><tspan id="tspan7488" x="0 6.346 13.464 20.526 24.107 31.225" y="0">v22.02</tspan></text></g><g id="g7498" clip-path="url(#clipPath4133)" transform="matrix(1.3333,0,0,-1.3333,-24.241503,623.02442)"><text style="font-size:14.03999996px;font-family:Calibri;fill:#000" id="text7496" font-size="14.04" transform="matrix(1,0,0,-1,702.24,151.63)"><tspan id="tspan7494" x="0 7.961 14.995 22.113 25.651 32.769" y="0">V22.05</tspan></text></g><g id="g7504" clip-path="url(#clipPath4145)" transform="matrix(1.3333,0,0,-1.3333,-24.241503,623.02442)"><text style="font-size:14.03999996px;font-family:Calibri;fill:#000" id="text7502" font-size="14.04" transform="matrix(1,0,0,-1,756.43,151.63)"><tspan id="tspan7500" x="0 7.961 14.995 22.113 25.651 32.769" y="0">V22.08</tspan></text></g><g id="g7510" clip-path="url(#clipPath4157)" transform="matrix(1.3333,0,0,-1.3333,-24.241503,623.02442)"><text style="font-size:14.03999996px;font-family:Calibri;fill:#000" id="text7508" font-size="14.04" transform="matrix(1,0,0,-1,811.99,151.63)"><tspan id="tspan7506" x="0 7.961 14.995 22.113 25.651 32.769" y="0">V22.11</tspan></text></g><g id="g7516" clip-path="url(#clipPath4169)" transform="matrix(1.3333,0,0,-1.3333,-24.241503,623.02442)"><text style="font-size:14.03999996px;font-family:Calibri;fill:#000" id="text7514" font-size="14.04" transform="matrix(1,0,0,-1,105.82,214.18)"><tspan id="tspan7512" x="0 6.346 13.464" y="0">v20</tspan></text></g><g id="g7522" clip-path="url(#clipPath4181)" transform="matrix(1.3333,0,0,-1.3333,-24.241503,623.02442)"><text style="font-size:14.06400013px;font-family:Calibri;fill:#000" id="text7520" font-size="14.064" transform="matrix(1,0,0,-1,105.5,247.68)"><tspan id="tspan7518" x="0 6.357 13.445" y="0">v21</tspan></text></g><g id="g7528" clip-path="url(#clipPath4193)" transform="matrix(1.3333,0,0,-1.3333,-24.241503,623.02442)"><text style="font-size:14.03999996px;font-family:Calibri;fill:#000" id="text7526" font-size="14.04" transform="matrix(1,0,0,-1,228.79,214.51)"><tspan id="tspan7524" x="0" y="0">√</tspan></text></g><g id="g7534" clip-path="url(#clipPath4205)" transform="matrix(1.3333,0,0,-1.3333,-24.241503,623.02442)"><text style="font-size:14.03999996px;font-family:Calibri;fill:#000" id="text7532" font-size="14.04" transform="matrix(1,0,0,-1,283.8,214.51)"><tspan id="tspan7530" x="0" y="0">√</tspan></text></g><g id="g7540" clip-path="url(#clipPath4217)" transform="matrix(1.3333,0,0,-1.3333,-24.241503,623.02442)"><text style="font-size:14.03999996px;font-family:Calibri;fill:#000" id="text7538" font-size="14.04" transform="matrix(1,0,0,-1,337.68,214.51)"><tspan id="tspan7536" x="0" y="0">√</tspan></text></g><g id="g7546" clip-path="url(#clipPath4229)" transform="matrix(1.3333,0,0,-1.3333,-24.241503,623.02442)"><text style="font-size:14.03999996px;font-family:Calibri;fill:#000" id="text7544" font-size="14.04" transform="matrix(1,0,0,-1,611.66,285.79)"><tspan id="tspan7542" x="0" y="0">√</tspan></text></g><g id="g7552" clip-path="url(#clipPath4241)" transform="matrix(1.3333,0,0,-1.3333,-24.241503,623.02442)"><text style="font-size:14.03999996px;font-family:Calibri;fill:#000" id="text7550" font-size="14.04" transform="matrix(1,0,0,-1,666.65,285.79)"><tspan id="tspan7548" x="0" y="0">√</tspan></text></g><g id="g7558" clip-path="url(#clipPath4253)" transform="matrix(1.3333,0,0,-1.3333,-24.241503,623.02442)"><text style="font-size:14.03999996px;font-family:Calibri;fill:#000" id="text7556" font-size="14.04" transform="matrix(1,0,0,-1,719.4,285.79)"><tspan id="tspan7554" x="0" y="0">√</tspan></text></g><g id="g7564" clip-path="url(#clipPath4265)" transform="matrix(1.3333,0,0,-1.3333,-24.241503,623.02442)"><text style="font-size:14.03999996px;font-family:Calibri;fill:#000" id="text7562" font-size="14.04" transform="matrix(1,0,0,-1,775.56,285.79)"><tspan id="tspan7560" x="0" y="0">√</tspan></text></g><g id="g7570" clip-path="url(#clipPath4277)" transform="matrix(1.3333,0,0,-1.3333,-24.241503,623.02442)"><text style="font-size:14.03999996px;font-family:Calibri;fill:#000" id="text7568" font-size="14.04" transform="matrix(1,0,0,-1,398.54,249.22)"><tspan id="tspan7566" x="0" y="0">√</tspan></text></g><g id="g7576" clip-path="url(#clipPath4289)" transform="matrix(1.3333,0,0,-1.3333,-24.241503,623.02442)"><text style="font-size:14.03999996px;font-family:Calibri;fill:#000" id="text7574" font-size="14.04" transform="matrix(1,0,0,-1,453.53,249.22)"><tspan id="tspan7572" x="0" y="0">√</tspan></text></g><g id="g7582" clip-path="url(#clipPath4301)" transform="matrix(1.3333,0,0,-1.3333,-24.241503,623.02442)"><text style="font-size:14.03999996px;font-family:Calibri;fill:#000" id="text7580" font-size="14.04" transform="matrix(1,0,0,-1,507.43,249.22)"><tspan id="tspan7578" x="0" y="0">√</tspan></text></g><g id="g7588" clip-path="url(#clipPath4313)" transform="matrix(1.3333,0,0,-1.3333,-24.241503,623.02442)"><text style="font-size:14.03999996px;font-family:Calibri;fill:#000" id="text7586" font-size="14.04" transform="matrix(1,0,0,-1,561.05,249.22)"><tspan id="tspan7584" x="0" y="0">√</tspan></text></g><path style="fill:#44546a;stroke-width:1.33329999" id="path7590" d="m 217.67245,474.73479 v -25.14603 c 0,-1.10664 -0.89331,-1.99995 -1.99995,-1.99995 -1.10664,0 -1.99995,0.89331 -1.99995,1.99995 v 25.14603 c 0,1.09331 0.89331,1.99995 1.99995,1.99995 1.10664,0 1.99995,-0.90664 1.99995,-1.99995 z m 3.9999,-23.14608 -5.99985,-11.9997 -5.99985,11.9997 z"/><g id="g7596" clip-path="url(#clipPath4327)" transform="matrix(1.3333,0,0,-1.3333,-24.241503,623.02442)"><text style="font-size:14.03999996px;font-family:Calibri;fill:#000" id="text7594" font-size="14.04" transform="matrix(1,0,0,-1,170.83,214.51)"><tspan id="tspan7592" x="0" y="0">√</tspan></text></g><g id="g7602" clip-path="url(#clipPath4339)" transform="matrix(1.3333,0,0,-1.3333,-24.241503,623.02442)"><text style="font-weight:700;font-size:14.06400013px;font-family:Calibri;fill:#000" id="text7600" font-size="14.064" font-weight="bold" transform="matrix(1,0,0,-1,23.4,272.33)"><tspan id="tspan7598" x="0 8.523 16.413 20.168" y="0">ABI</tspan></text></g><g id="g7608" clip-path="url(#clipPath4351)" transform="matrix(1.3333,0,0,-1.3333,-24.241503,623.02442)"><text style="font-weight:700;font-size:14.06400013px;font-family:Calibri;fill:#000" id="text7606" font-size="14.064" font-weight="bold" transform="matrix(1,0,0,-1,46.68,272.33)"><tspan id="tspan7604" x="0 7.566 14.641 19.563 25.175 28.662 36.229" y="0">Version</tspan></text></g><g id="g7614" clip-path="url(#clipPath4363)" transform="matrix(1.3333,0,0,-1.3333,-24.241503,623.02442)"><text style="font-weight:700;font-size:14.03999996px;font-family:Calibri;fill:#000" id="text7612" font-size="14.04" font-weight="bold" transform="matrix(1,0,0,-1,17.64,255.5)"><tspan id="tspan7610" x="0 7.427 14.981 26.395 33.935 40.8 45.7 49.154 56.722 60.175 63.671 67.125 72.053" y="0">Compatibility</tspan></text></g><g id="g7620" clip-path="url(#clipPath4375)" transform="matrix(1.3333,0,0,-1.3333,-24.241503,623.02442)"><text style="font-size:14.03999996px;font-family:Calibri;fill:#000" id="text7618" font-size="14.04" transform="matrix(1,0,0,-1,191.28,116.86)"><tspan id="tspan7616" x="0 6.346 13.464" y="0">v20</tspan></text></g><path style="fill:#44546a;stroke-width:1.33329999" id="path7622" d="m 511.7451,474.89479 v -25.14604 c 0,-1.10664 -0.89331,-1.99995 -1.99995,-1.99995 -1.10664,0 -1.99995,0.89331 -1.99995,1.99995 v 25.14604 c 0,1.09331 0.89331,1.99995 1.99995,1.99995 1.10664,0 1.99995,-0.90664 1.99995,-1.99995 z m 3.9999,-23.14609 -5.99985,-11.9997 -5.99985,11.9997 z"/><g id="g7628" clip-path="url(#clipPath4389)" transform="matrix(1.3333,0,0,-1.3333,-24.241503,623.02442)"><text style="font-size:14.03999996px;font-family:Calibri;fill:#000" id="text7626" font-size="14.04" transform="matrix(1,0,0,-1,407.06,115.63)"><tspan id="tspan7624" x="0 6.346 13.464" y="0">v21</tspan></text></g><path style="fill:#44546a;stroke-width:1.33329999" id="path7630" d="m 804.53778,476.01476 v -25.14604 c 0,-1.10664 -0.89331,-1.99995 -1.99995,-1.99995 -1.10664,0 -1.99995,0.89331 -1.99995,1.99995 v 25.14604 c 0,1.09331 0.89331,1.99995 1.99995,1.99995 1.10664,0 1.99995,-0.90664 1.99995,-1.99995 z m 3.9999,-23.14609 -5.99985,-11.9997 -5.99985,11.9997 z"/><g id="g7636" clip-path="url(#clipPath4403)" transform="matrix(1.3333,0,0,-1.3333,-24.241503,623.02442)"><text style="font-size:14.03999996px;font-family:Calibri;fill:#000" id="text7634" font-size="14.04" transform="matrix(1,0,0,-1,626.66,114.74)"><tspan id="tspan7632" x="0 6.346 13.464" y="0">v22</tspan></text></g><path style="fill:#44546a;stroke-width:1.33329999" id="path7638" d="m 1098.2904,479.37468 v -25.14604 c 0,-1.10664 -0.8933,-1.99995 -1.9999,-1.99995 -1.1067,0 -2,0.89331 -2,1.99995 v 25.14604 c 0,1.0933 0.8933,1.99995 2,1.99995 1.1066,0 1.9999,-0.90665 1.9999,-1.99995 z m 3.9999,-23.14609 -5.9998,-11.9997 -5.9999,11.9997 z"/><g id="g7644" clip-path="url(#clipPath4417)" transform="matrix(1.3333,0,0,-1.3333,-24.241503,623.02442)"><text style="font-size:14.06400013px;font-family:Calibri;fill:#000" id="text7642" font-size="14.064" transform="matrix(1,0,0,-1,846.96,112.22)"><tspan id="tspan7640" x="0 6.357 13.445" y="0">v23</tspan></text></g><g id="g7650" clip-path="url(#clipPath4429)" transform="matrix(1.3333,0,0,-1.3333,-24.241503,623.02442)"><text style="font-size:14.03999996px;font-family:Calibri;fill:#000" id="text7648" font-size="14.04" transform="matrix(1,0,0,-1,832.87,318.46)"><tspan id="tspan7646" x="0" y="0">√</tspan></text></g><g id="g7656" clip-path="url(#clipPath4441)" transform="matrix(1.3333,0,0,-1.3333,-24.241503,623.02442)"><text style="font-size:14.03999996px;font-family:Calibri;fill:#000" id="text7654" font-size="14.04" transform="matrix(1,0,0,-1,105.5,285.67)"><tspan id="tspan7652" x="0 6.346 13.464" y="0">v22</tspan></text></g><g id="g7662" clip-path="url(#clipPath4453)" transform="matrix(1.3333,0,0,-1.3333,-24.241503,623.02442)"><text style="font-size:14.03999996px;font-family:Calibri;fill:#000" id="text7660" font-size="14.04" transform="matrix(1,0,0,-1,104.93,319.87)"><tspan id="tspan7658" x="0 6.346 13.464" y="0">v23</tspan></text></g><path style="fill:none;stroke:#5b9bd5;stroke-width:.63998401;stroke-miterlimit:10;stroke-dasharray:2.559936,1.919952" id="path7664" stroke-miterlimit="10" d="m 1104.7569,213.75465 -934.60326,0.39999"/><path style="fill:none;stroke:#5b9bd5;stroke-width:.63998401;stroke-miterlimit:10;stroke-dasharray:2.559936,1.919952" id="path7666" stroke-miterlimit="10" d="M 1105.3969,255.35361 170.79362,255.7536"/><path style="fill:none;stroke:#5b9bd5;stroke-width:.63998401;stroke-miterlimit:10;stroke-dasharray:2.559936,1.919952" id="path7668" stroke-miterlimit="10" d="M 1105.3969,299.35251 170.79362,299.7525"/><g id="g7674" clip-path="url(#clipPath4477)" transform="matrix(1.3333,0,0,-1.3333,-24.241503,623.02442)"><text style="font-size:14.06400013px;font-family:Calibri;fill:#8497b0" id="text7672" font-size="14.064" transform="matrix(1,0,0,-1,283.8,251.38)"><tspan id="tspan7670" x="0" y="0">√</tspan></text></g><g id="g7680" clip-path="url(#clipPath4489)" transform="matrix(1.3333,0,0,-1.3333,-24.241503,623.02442)"><text style="font-size:14.03999996px;font-family:Calibri;fill:#8497b0" id="text7678" font-size="14.04" transform="matrix(1,0,0,-1,339.5,251.95)"><tspan id="tspan7676" x="0" y="0">√</tspan></text></g><g id="g7686" clip-path="url(#clipPath4501)" transform="matrix(1.3333,0,0,-1.3333,-24.241503,623.02442)"><text style="font-size:14.03999996px;font-family:Calibri;fill:#d0cece" id="text7684" font-size="14.04" transform="matrix(1,0,0,-1,229.8,250.63)"><tspan id="tspan7682" x="0" y="0">√</tspan></text></g><g id="g7692" clip-path="url(#clipPath4513)" transform="matrix(1.3333,0,0,-1.3333,-24.241503,623.02442)"><text style="font-size:14.03999996px;font-family:Calibri;fill:#d0cece" id="text7690" font-size="14.04" transform="matrix(1,0,0,-1,453.53,286.63)"><tspan id="tspan7688" x="0" y="0">√</tspan></text></g><g id="g7698" clip-path="url(#clipPath4525)" transform="matrix(1.3333,0,0,-1.3333,-24.241503,623.02442)"><text style="font-size:14.03999996px;font-family:Calibri;fill:#8497b0" id="text7696" font-size="14.04" transform="matrix(1,0,0,-1,507.43,286.63)"><tspan id="tspan7694" x="0" y="0">√</tspan></text></g><g id="g7704" clip-path="url(#clipPath4537)" transform="matrix(1.3333,0,0,-1.3333,-24.241503,623.02442)"><text style="font-size:14.03999996px;font-family:Calibri;fill:#8497b0" id="text7702" font-size="14.04" transform="matrix(1,0,0,-1,561.05,286.63)"><tspan id="tspan7700" x="0" y="0">√</tspan></text></g><g id="g7710" clip-path="url(#clipPath4549)" transform="matrix(1.3333,0,0,-1.3333,-24.241503,623.02442)"><text style="font-size:14.03999996px;font-family:Calibri;fill:#d0cece" id="text7708" font-size="14.04" transform="matrix(1,0,0,-1,667.39,318.89)"><tspan id="tspan7706" x="0" y="0">√</tspan></text></g><g id="g7716" clip-path="url(#clipPath4561)" transform="matrix(1.3333,0,0,-1.3333,-24.241503,623.02442)"><text style="font-size:14.03999996px;font-family:Calibri;fill:#8497b0" id="text7714" font-size="14.04" transform="matrix(1,0,0,-1,720.14,318.89)"><tspan id="tspan7712" x="0" y="0">√</tspan></text></g><g id="g7722" clip-path="url(#clipPath4573)" transform="matrix(1.3333,0,0,-1.3333,-24.241503,623.02442)"><text style="font-size:14.03999996px;font-family:Calibri;fill:#8497b0" id="text7720" font-size="14.04" transform="matrix(1,0,0,-1,776.3,318.89)"><tspan id="tspan7718" x="0" y="0">√</tspan></text></g><path style="fill:#7030a0;stroke-width:1.33329999" id="path7724" d="m 211.36594,305.0057 2.18661,-227.154316 c 0.0133,-1.0933 -0.87997,-1.99995 -1.98661,-2.01328 -1.09331,-0.0133 -1.99995,0.87998 -2.01329,1.98662 l -2.18661,227.140986 c -0.0133,1.10663 0.87998,2.01328 1.98662,2.02661 1.10664,0.0133 1.99995,-0.87998 2.01328,-1.98662 z m -7.97313,-2.07994 5.87985,12.06636 6.11985,-11.94637 z"/><path style="fill:#7030a0;stroke-width:1.33329999" id="path7726" d="M 289.03067,238.94069 V 107.43731 c 0,-1.10664 -0.89331,-1.99995 -1.99995,-1.99995 -1.10664,0 -1.99995,0.89331 -1.99995,1.99995 v 131.50338 c 0,1.09331 0.89331,1.99995 1.99995,1.99995 1.10664,0 1.99995,-0.90664 1.99995,-1.99995 z m -7.9998,-1.99995 5.99985,11.9997 5.99985,-11.9997 z"/><g id="g7732" clip-path="url(#clipPath4589)" transform="matrix(1.3333,0,0,-1.3333,-24.241503,623.02442)"><text style="font-size:14.03999996px;font-family:Calibri;fill:#000" id="text7730" font-size="14.04" transform="matrix(1,0,0,-1,164.59,422.74)"><tspan id="tspan7728" x="0 6.346 13.464 20.526 23.756 31.885 39.579 43.061 46.065 49.294 54.784 57.957 65.272 72.264 78.119 81.348 88.073 92.762 99.754 107.041 110.382 117.108 120.337 123.566 130.179 137.508 144.5 151.786 155.128 165.167 168.438 173.141 180.442 183.671 190.017 197.136 204.198 207.778 214.896 221.944 225.174 229.975 236.7" y="0">v20 ABI is declared aligned with v19.11 LTS</tspan></text></g><g id="g7738" clip-path="url(#clipPath4601)" transform="matrix(1.3333,0,0,-1.3333,-24.241503,623.02442)"><text style="font-size:14.06400013px;font-family:Calibri;fill:#000" id="text7736" font-size="14.064" transform="matrix(1,0,0,-1,222.12,398.3)"><tspan id="tspan7734" x="0 6.357 13.445 20.519 23.74 29.014 35.385 46.538 53.851 61.263 64.498 70.039 73.034 79.771 84.44 91.402 94.623 101.359 108.658 115.972 122.933 130.247 133.594 140.331 147.63 154.943 158.164 164.521 171.609 178.683 181.904 187.178 193.549 204.702 212.015 219.427 222.661 228.202 231.325 238.061 242.731 249.692 252.814 263.981 271.393 278.777 282.011 286.301 289.536 296.539 303.825 307.341 310.519 316.046 323.36 330.673 337.986 345.398 350.306 355.018 358.14 362.218 369.63 374.538 377.576 383.933 391.021 398.096 401.218 409.361 417.04 420.514 423.636 429.402 436.814 444.043 448.754 451.989 459.288 466.601 473.563 479.062" y="0">v21 symbols are added and v20 symbols are modified, support for v20 ABI continues.</tspan></text></g><path style="fill:#7030a0;stroke-width:1.33329999" id="path7740" d="m 510.78512,258.56686 -0.31999,-126.17017 c 0,-1.09331 0.89331,-1.99995 1.99995,-1.99995 1.09331,0 1.99995,0.89331 1.99995,1.99995 l 0.31999,126.15684 c 0,1.10664 -0.89331,2.01328 -1.99995,2.01328 -1.0933,0 -1.99995,-0.89331 -1.99995,-1.99995 z m 7.9998,-2.01328 -5.97318,12.01303 -6.02652,-11.98636 z"/><g id="g7746" clip-path="url(#clipPath4615)" transform="matrix(1.3333,0,0,-1.3333,-24.241503,623.02442)"><text style="font-size:14.03999996px;font-family:Calibri;fill:#000" id="text7744" font-size="14.04" transform="matrix(1,0,0,-1,388.51,373.39)"><tspan id="tspan7742" x="0 6.346 13.464 20.526 23.756 31.885 39.579 43.061 46.065 49.294 54.784 57.957 65.272 72.264 78.119 81.348 88.073 92.762 99.754 107.041 110.382 117.108 120.337 123.566 130.179 137.508 144.5 151.786 155.128 165.167 168.438 173.141 180.442 183.671 190.017 197.136 204.198 207.778 214.896 221.944 225.174 229.975 236.7 243.145 246.655 249.786 254.461 261.453 272.587 279.312 282.541 289.87 293.099 300.47 307.027 310.368 316.714 323.833 330.895 334.124 339.403 345.763 356.925 364.24 371.639 374.91 380.4 383.432 390.158 394.833 401.825 404.998 409.715 416.707 427.841 435.24 441.516 448.508 455.795" y="0">v21 ABI is declared aligned with v20.11 LTS, remaining v20 symbols are removed.</tspan></text></g><path style="fill:none;stroke:#7030a0;stroke-width:2.07994795;stroke-miterlimit:10" id="path7748" stroke-miterlimit="10" d="M 278.23094,342.95142 H 449.58665 V 261.03347 H 278.23094 Z"/><g id="g7754" clip-path="url(#clipPath4629)" transform="matrix(1.3333,0,0,-1.3333,-24.241503,623.02442)"><text style="font-weight:700;font-size:14.03999996px;font-family:Calibri;fill:#000" id="text7752" font-size="14.04" font-weight="bold" transform="matrix(1,0,0,-1,23.616,114.74)"><tspan id="tspan7750" x="0 8.508 16.427 20.175 23.264 30.818 37.88 42.822 48.424 51.934 59.487 67.027" y="0">ABI Versions</tspan></text></g><g id="g7760" clip-path="url(#clipPath4641)" transform="matrix(1.3333,0,0,-1.3333,-24.241503,623.02442)"><text style="font-weight:700;font-size:14.03999996px;font-family:Calibri;fill:#000" id="text7758" font-size="14.04" font-weight="bold" transform="matrix(1,0,0,-1,20.064,150.17)"><tspan id="tspan7756" x="0 8.845 16.314 25.16 32.84 36.013 43.678 50.741 54.222 61.285 68.248 73.85 80.955" y="0">DPDK Releases</tspan></text></g><g id="g7766" clip-path="url(#clipPath4653)" transform="matrix(1.3333,0,0,-1.3333,-24.241503,623.02442)"><text style="font-size:14.03999996px;font-family:Calibri;fill:#000" id="text7764" font-size="14.04" transform="matrix(1,0,0,-1,444,346.1)"><tspan id="tspan7762" x="0 6.346 13.464 20.526 23.756 29.035 35.395 46.557 53.871 61.271 64.542 70.032 73.064 79.789 84.465 91.457 94.63 101.355 108.726 116.027 123.018 130.305 133.647 140.372 147.687 155.002 158.231 164.577 171.695 178.757 181.986 187.266 193.626 204.787 212.102 219.501 222.773 228.262 231.435 238.161 242.808 249.8 252.888 264.05 271.449 278.82 282.05 286.332 289.603 296.595 303.882 307.392 310.565 316.111 323.425 330.74 338.055 345.454 350.396 355.1 358.203 362.288 369.687 374.629 377.634 383.98 391.098 398.16 401.277 409.406 417.1 420.582 423.699 429.456 436.855 444.099 448.803 452.032 459.333 466.647 473.639 479.129 488.817 492.439" y="0">v22 symbols are added and v21 symbols are modified, support for v21 ABI continues…..</tspan></text></g><path style="fill:#7030a0;stroke-width:1.33329999" id="path7768" d="m 583.39664,198.26171 -0.13333,-30.49257 c 0,-1.10664 0.89331,-2.01329 1.98662,-2.01329 1.10664,0 2.01328,0.89331 2.01328,1.98662 l 0.13333,30.49257 c 0,1.10664 -0.89331,2.01328 -1.99995,2.01328 -1.0933,0 -1.99995,-0.89331 -1.99995,-1.98661 z m 7.98647,-2.03995 -5.94652,12.02636 -6.05318,-11.97303 z"/><path style="fill:none;stroke:#7030a0;stroke-width:2.07994795;stroke-miterlimit:10" id="path7770" stroke-miterlimit="10" d="M 571.18361,299.43251 H 742.37933 V 212.87467 H 571.18361 Z"/><path style="fill:#00b050;fill-rule:evenodd;stroke-width:1.33329999" id="path7772" d="m 933.01457,30.959224 c 0,-6.22651 4.50655,-11.27972 10.07975,-11.27972 5.57319,0 10.07974,5.05321 10.07974,11.27972 0,6.22651 -4.50655,11.27972 -10.07974,11.27972 -5.5732,0 -10.07975,-5.05321 -10.07975,-11.27972 z"/><path style="fill:red;fill-rule:evenodd;stroke-width:1.33329999" id="path7774" d="m 1081.3309,29.759254 c 0,-6.18651 4.4798,-11.19972 9.9997,-11.19972 5.5199,0 9.9998,5.01321 9.9998,11.19972 0,6.18651 -4.4799,11.19972 -9.9998,11.19972 -5.5199,0 -9.9997,-5.01321 -9.9997,-11.19972 z"/><g id="g7780" clip-path="url(#clipPath4673)" transform="matrix(1.3333,0,0,-1.3333,-24.241503,623.02442)"><text style="font-size:14.03999996px;font-family:Calibri;fill:#000" id="text7778" font-size="14.04" transform="matrix(1,0,0,-1,744.89,439.54)"><tspan id="tspan7776" x="0 4.802 11.527 17.971 21.144 28.571 35.563 38.793 45.728 52.453 57.943" y="0">LTS Release</tspan></text></g><g id="g7786" clip-path="url(#clipPath4685)" transform="matrix(1.3333,0,0,-1.3333,-24.241503,623.02442)"><text style="font-size:14.03999996px;font-family:Calibri;fill:#000" id="text7784" font-size="14.04" transform="matrix(1,0,0,-1,856.06,439.75)"><tspan id="tspan7782" x="0 12.004 15.233 22.562 29.961 34.903 38.02 45.462 52.453 55.683 62.618 69.344 74.833" y="0">Minor Release</tspan></text></g><path style="fill:#44546a;stroke-width:1.33329999" id="path7788" d="m 779.25841,46.265514 v -25.14604 c 0,-1.10664 -0.89331,-1.99995 -1.99995,-1.99995 -1.10664,0 -1.99995,0.89331 -1.99995,1.99995 v 25.14604 c 0,1.0933 0.89331,1.99995 1.99995,1.99995 1.10664,0 1.99995,-0.90665 1.99995,-1.99995 z m 3.9999,-23.14609 -5.99985,-11.9997 -5.99985,11.9997 z"/><g id="g7794" clip-path="url(#clipPath4699)" transform="matrix(1.3333,0,0,-1.3333,-24.241503,623.02442)"><text style="font-size:14.03999996px;font-family:Calibri;fill:#000" id="text7792" font-size="14.04" transform="matrix(1,0,0,-1,622.34,439.54)"><tspan id="tspan7790" x="0 8.129 15.823 19.305 22.31 29.512 36.504 41.151 46.641 49.87 57.339" y="0">ABI Version</tspan></text></g><path style="fill:none;stroke:#002060;stroke-width:1.27996802;stroke-miterlimit:10" id="path7796" stroke-miterlimit="10" d="M 763.41881,62.078444 H 1236.847 V 0.63998401 H 763.41881 Z"/></svg>