<svg xmlns="http://www.w3.org/2000/svg" xmlns:svg="http://www.w3.org/2000/svg" id="svg8399" width="970.696" height="522.227" version="1.1" viewBox="0 0 970.696 522.227" xml:space="preserve"><metadata id="metadata8403"/><defs id="defs8269"><clipPath id="clipPath26"><path id="path8206" d="M 0,1.2207e-4 H 960 V 540.00012 H 0 Z" style="clip-rule:evenodd"/></clipPath><radialGradient id="radialGradient40" cx="0" cy="0" r="1" gradientTransform="matrix(386.44367,-1.3123672e-5,-1.3123672e-5,-386.44367,470.30824,246.15384)" gradientUnits="userSpaceOnUse"><stop id="stop8209" offset="0" stop-color="#f9d8e2"/><stop id="stop8211" offset=".74" stop-color="#fff"/><stop id="stop8213" offset=".83" stop-color="#fff"/><stop id="stop8215" offset="1" stop-color="#fff"/></radialGradient><clipPath id="clipPath56"><path id="path8218" d="M 1.4305e-5,0 H 960.00001 V 540 H 1.4305e-5 Z" style="clip-rule:evenodd"/></clipPath><clipPath id="clipPath68"><path id="path8221" d="M 1.4305e-5,0 H 960.00001 V 540 H 1.4305e-5 Z" style="clip-rule:evenodd"/></clipPath><clipPath id="clipPath82"><path id="path8224" d="M 1.4305e-5,0 H 960.00001 V 540 H 1.4305e-5 Z" style="clip-rule:evenodd"/></clipPath><clipPath id="clipPath96"><path id="path8227" d="M 1.4305e-5,0 H 960.00001 V 540 H 1.4305e-5 Z" style="clip-rule:evenodd"/></clipPath><clipPath id="clipPath108"><path id="path8230" d="M 1.4305e-5,0 H 960.00001 V 540 H 1.4305e-5 Z" style="clip-rule:evenodd"/></clipPath><clipPath id="clipPath120"><path id="path8233" d="M 1.4305e-5,0 H 960.00001 V 540 H 1.4305e-5 Z" style="clip-rule:evenodd"/></clipPath><clipPath id="clipPath132"><path id="path8236" d="M 1.4305e-5,0 H 960.00001 V 540 H 1.4305e-5 Z" style="clip-rule:evenodd"/></clipPath><clipPath id="clipPath144"><path id="path8239" d="M 1.4305e-5,0 H 960.00001 V 540 H 1.4305e-5 Z" style="clip-rule:evenodd"/></clipPath><clipPath id="clipPath156"><path id="path8242" d="M 1.4305e-5,0 H 960.00001 V 540 H 1.4305e-5 Z" style="clip-rule:evenodd"/></clipPath><clipPath id="clipPath168"><path id="path8245" d="M 1.4305e-5,0 H 960.00001 V 540 H 1.4305e-5 Z" style="clip-rule:evenodd"/></clipPath><clipPath id="clipPath180"><path id="path8248" d="M 1.4305e-5,0 H 960.00001 V 540 H 1.4305e-5 Z" style="clip-rule:evenodd"/></clipPath><clipPath id="clipPath192"><path id="path8251" d="M 1.4305e-5,0 H 960.00001 V 540 H 1.4305e-5 Z" style="clip-rule:evenodd"/></clipPath><clipPath id="clipPath204"><path id="path8254" d="M 1.4305e-5,0 H 960.00001 V 540 H 1.4305e-5 Z" style="clip-rule:evenodd"/></clipPath><clipPath id="clipPath216"><path id="path8257" d="M 1.4305e-5,0 H 960.00001 V 540 H 1.4305e-5 Z" style="clip-rule:evenodd"/></clipPath><clipPath id="clipPath228"><path id="path8260" d="M 1.4305e-5,0 H 960.00001 V 540 H 1.4305e-5 Z" style="clip-rule:evenodd"/></clipPath><clipPath id="clipPath240"><path id="path8263" d="M 1.4305e-5,0 H 960.00001 V 540 H 1.4305e-5 Z" style="clip-rule:evenodd"/></clipPath><clipPath id="clipPath260"><path id="path8266" d="M 1.4305e-5,0 H 960.00001 V 540 H 1.4305e-5 Z" style="clip-rule:evenodd"/></clipPath></defs><path style="fill:url(#radialGradient40);fill-rule:evenodd;stroke-width:1.33329999" id="path8275" d="m 116.15709,143.06309 c 0,-28.46596 23.07942,-51.545378 51.54538,-51.545378 h 605.21154 c 28.46595,0 51.54537,23.079418 51.54537,51.545378 V 349.2446 c 0,28.46595 -23.07942,51.54538 -51.54537,51.54538 H 167.70247 c -28.46595,0 -51.54538,-23.07943 -51.54538,-51.54538 z"/><path style="fill:#00b050;stroke-width:1.33329999" id="path8277" d="m 478.70803,73.758152 0.58665,373.057338 c 0,1.67996 -1.35997,3.03993 -3.03992,3.03993 -1.67996,0.0133 -3.03993,-1.34663 -3.03993,-3.02659 L 472.62818,73.758152 c 0,-1.67995 1.35997,-3.03992 3.03992,-3.03992 1.67996,0 3.03993,1.35997 3.03993,3.03992 z m 6.65317,370.004088 -9.09311,18.25287 -9.14644,-18.22621 z"/><path style="fill:none;stroke:#7030a0;stroke-width:6.07984781;stroke-linecap:round;stroke-linejoin:round;stroke-miterlimit:10" id="path8279" stroke-miterlimit="10" d="m 3.0399239,186.92866 c 0,-36.70575 29.7459201,-66.45167 66.4516701,-66.45167 H 778.00721 c 36.70575,0 66.45167,29.74592 66.45167,66.45167 v 265.80669 c 0,36.70574 -29.74592,66.45167 -66.45167,66.45167 H 69.491594 c -36.70575,0 -66.4516701,-29.74593 -66.4516701,-66.45167 z"/><path style="fill:none;stroke:#3b3059;stroke-width:6.07984781;stroke-linecap:round;stroke-linejoin:round;stroke-miterlimit:10" id="path8281" stroke-miterlimit="10" d="m 101.27746,71.464882 c 0,-37.78572 30.63924,-68.4249581 68.42496,-68.4249581 h 729.52846 c 37.7857,0 68.4249,30.6392381 68.4249,68.4249581 V 345.1647 c 0,37.78572 -30.6392,68.42496 -68.4249,68.42496 H 169.70242 c -37.78572,0 -68.42496,-30.63924 -68.42496,-68.42496 z"/><g id="g8287" clip-path="url(#clipPath56)" transform="matrix(1.3333,0,0,-1.3333,-143.35642,633.10417)"><text style="font-size:32.06399918px;font-family:'Century Gothic';fill:#3b3059" id="text8285" font-size="32.064" transform="matrix(1,0,0,-1,409.78,93.312)"><tspan id="tspan8283" x="0 23.856 42.838 66.693" y="0">DPDK</tspan></text></g><g id="g8293" clip-path="url(#clipPath68)" transform="matrix(1.3333,0,0,-1.3333,-143.35642,633.10417)"><text style="font-size:32.06399918px;font-family:'Century Gothic';fill:#3b3059" id="text8291" font-size="32.064" transform="matrix(1,0,0,-1,358.03,435.43)"><tspan id="tspan8289" x="0 23.727 45.595 67.463 73.875 80.16 100.905 122.805 133.547 139.959 160.961" y="0">Application</tspan></text></g><path style="fill:#f9d8e2;fill-opacity:.70196001;fill-rule:evenodd;stroke-width:1.33329999" id="path8295" d="M 424.30939,345.59136 H 531.18672 V 277.91305 H 424.30939 Z"/><g id="g8301" clip-path="url(#clipPath82)" transform="matrix(1.3333,0,0,-1.3333,-143.35642,633.10417)"><text style="font-size:32.04000092px;font-family:'Century Gothic';fill:#3b3059" id="text8299" font-size="32.04" transform="matrix(1,0,0,-1,432.96,231.41)"><tspan id="tspan8297" x="0 23.71 42.677" y="0">API</tspan></text></g><path style="fill:#f9d8e2;fill-opacity:.70196001;fill-rule:evenodd;stroke-width:1.33329999" id="path8303" d="m 422.38944,213.91465 h 107.19732 v -67.8383 H 422.38944 Z"/><g id="g8309" clip-path="url(#clipPath96)" transform="matrix(1.3333,0,0,-1.3333,-143.35642,633.10417)"><text style="font-size:32.04000092px;font-family:'Century Gothic';fill:#3b3059" id="text8307" font-size="32.04" transform="matrix(1,0,0,-1,431.54,330.29)"><tspan id="tspan8305" x="0 23.71 42.101" y="0">ABI</tspan></text></g><g id="g8315" clip-path="url(#clipPath108)" transform="matrix(1.3333,0,0,-1.3333,-143.35642,633.10417)"><text style="font-size:15.96000004px;font-family:'Century Gothic';fill:#3b3059" id="text8313" font-size="15.96" transform="matrix(1,0,0,-1,221.78,293.23)"><tspan id="tspan8311" x="0 9.448 14.252 24.706 35.447 40.203 51.104 66.106 81.077 84.333 94.068" y="0">Programming</tspan></text></g><g id="g8321" clip-path="url(#clipPath120)" transform="matrix(1.3333,0,0,-1.3333,-143.35642,633.10417)"><text style="font-size:15.98400021px;font-family:'Century Gothic';fill:#3b3059" id="text8319" font-size="15.984" transform="matrix(1,0,0,-1,221.78,274.03)"><tspan id="tspan8317" x="0 7.321 18.238 27.988 38.633 48.352 59.269 69.946" y="0">Language</tspan></text></g><g id="g8327" clip-path="url(#clipPath132)" transform="matrix(1.3333,0,0,-1.3333,-143.35642,633.10417)"><text style="font-size:15.96000004px;font-family:'Century Gothic';fill:#3b3059" id="text8325" font-size="15.96" transform="matrix(1,0,0,-1,221.78,254.81)"><tspan id="tspan8323" x="0 7.677 17.38 27.116 37.442 42.709 45.933 56.387 66.122" y="0">Functions</tspan></text></g><g id="g8333" clip-path="url(#clipPath144)" transform="matrix(1.3333,0,0,-1.3333,-143.35642,633.10417)"><text style="font-size:15.96000004px;font-family:'Century Gothic';fill:#3b3059" id="text8331" font-size="15.96" transform="matrix(1,0,0,-1,221.78,235.61)"><tspan id="tspan8329" x="0 11.874 22.775 28.074 38.974 44.273 52.891 63.776 74.15" y="0">Datatypes</tspan></text></g><g id="g8339" clip-path="url(#clipPath156)" transform="matrix(1.3333,0,0,-1.3333,-143.35642,633.10417)"><text style="font-size:15.96000004px;font-family:'Century Gothic';fill:#3b3059" id="text8337" font-size="15.96" transform="matrix(1,0,0,-1,221.78,216.41)"><tspan id="tspan8335" x="0 9.688 20.062 25.313 35.016 39.82 49.556 54.216 60.824 69.442 80.327 90.701" y="0">Return Types</tspan></text></g><g id="g8345" clip-path="url(#clipPath168)" transform="matrix(1.3333,0,0,-1.3333,-143.35642,633.10417)"><text style="font-size:15.96000004px;font-family:'Century Gothic';fill:#3b3059" id="text8343" font-size="15.96" transform="matrix(1,0,0,-1,221.78,197.21)"><tspan id="tspan8341" x="0 12.975 23.429 33.165 39.357 44.64 55.541 65.276 70.559" y="0">Constants</tspan></text></g><g id="g8351" clip-path="url(#clipPath180)" transform="matrix(1.3333,0,0,-1.3333,-143.35642,633.10417)"><text style="font-size:15.96000004px;font-family:'Century Gothic';fill:#3b3059" id="text8349" font-size="15.96" transform="matrix(1,0,0,-1,221.78,178.01)"><tspan id="tspan8347" x="0" y="0">…</tspan></text></g><g id="g8357" clip-path="url(#clipPath192)" transform="matrix(1.3333,0,0,-1.3333,-143.35642,633.10417)"><text style="font-size:15.96000004px;font-family:'Century Gothic';fill:#3b3059" id="text8355" font-size="15.96" transform="matrix(1,0,0,-1,546.38,354.12)"><tspan id="tspan8353" x="0 3.83 13.566 19.758 25.073 29.877 39.581 49.907 55.19 58.414 68.867 78.603 83.231 89.424 99.798" y="0">Instruction set</tspan></text></g><g id="g8363" clip-path="url(#clipPath204)" transform="matrix(1.3333,0,0,-1.3333,-143.35642,633.10417)"><text style="font-size:15.98400021px;font-family:'Century Gothic';fill:#3b3059" id="text8361" font-size="15.984" transform="matrix(1,0,0,-1,546.38,332.88)"><tspan id="tspan8359" x="0 8.567 16.24 26.517 36.859 46.577 51.836 62.753 73.654 77.027 87.353 91.892 103.992 108.34 115.66 118.857 128.607 136.631 147.021" y="0">Executable &amp; Linker</tspan></text></g><g id="g8369" clip-path="url(#clipPath216)" transform="matrix(1.3333,0,0,-1.3333,-143.35642,633.10417)"><text style="font-size:15.96000004px;font-family:'Century Gothic';fill:#3b3059" id="text8367" font-size="15.96" transform="matrix(1,0,0,-1,546.38,313.66)"><tspan id="tspan8365" x="0 7.677 18.131 22.935 37.905 48.806" y="0">Format</tspan></text></g><g id="g8375" clip-path="url(#clipPath228)" transform="matrix(1.3333,0,0,-1.3333,-143.35642,633.10417)"><text style="font-size:15.96000004px;font-family:'Century Gothic';fill:#3b3059" id="text8373" font-size="15.96" transform="matrix(1,0,0,-1,546.38,292.42)"><tspan id="tspan8371" x="0 12.975 23.876 27.228 30.579 33.803 43.539 54.2 58.398 71.373 81.827 91.563 100.628 110.954 120.69 125.956 129.18 139.634 149.37 155.562" y="0">Calling Conventions.</tspan></text></g><g id="g8381" clip-path="url(#clipPath240)" transform="matrix(1.3333,0,0,-1.3333,-143.35642,633.10417)"><text style="font-size:15.96000004px;font-family:'Century Gothic';fill:#3b3059" id="text8379" font-size="15.96" transform="matrix(1,0,0,-1,546.38,271.3)"><tspan id="tspan8377" x="0" y="0">…</tspan></text></g><path style="fill:none;stroke:#fff;stroke-width:6.07984781;stroke-linecap:round;stroke-linejoin:round;stroke-miterlimit:10;stroke-dasharray:18.239544,24.319392" id="path8383" stroke-miterlimit="10" d="M 122.71693,120.47699 H 782.84709"/><path style="fill:none;stroke:#fff;stroke-width:6.07984781;stroke-linecap:round;stroke-linejoin:round;stroke-miterlimit:10;stroke-dasharray:18.239544,24.319392" id="path8385" stroke-miterlimit="10" d="M 177.27556,413.58966 H 837.40573"/><g id="g8391" clip-path="url(#clipPath260)" transform="matrix(1.3333,0,0,-1.3333,-143.35642,633.10417)"><text style="font-style:italic;font-size:15.96000004px;font-family:'Century Gothic';fill:#3b3059" id="text8389" font-size="15.96" font-style="italic" transform="matrix(1,0,0,-1,483.19,405.82)"><tspan id="tspan8387" x="0 5.011 14.715 24.451 34.777 40.299 43.523 53.977 63.712 68.133 78.459 89.36 92.584 95.808" y="0">function calls</tspan></text></g><path style="fill:none;stroke:#3b3059;stroke-width:.95997602;stroke-linecap:round;stroke-linejoin:round;stroke-miterlimit:10" id="path8393" stroke-miterlimit="10" d="m 574.38564,303.03242 c -11.93304,0 -21.59946,-1.61329 -21.59946,-3.59991 V 164.62255 c 0,-1.98662 -9.66643,-3.59991 -21.59946,-3.59991 11.93303,0 21.59946,-1.61329 21.59946,-3.59991 v -18.30621 c 0,-1.98662 9.66642,-3.59991 21.59946,-3.59991"/><path style="fill:none;stroke:#3b3059;stroke-width:.95997602;stroke-linecap:round;stroke-linejoin:round;stroke-miterlimit:10" id="path8395" stroke-miterlimit="10" d="m 372.63068,389.43026 c 13.293,0 24.0794,-1.79995 24.0794,-4.01323 v -91.53105 c 0,-2.21327 10.78639,-4.01323 24.0794,-4.01323 -13.29301,0 -24.0794,-1.79995 -24.0794,-4.01323 v -65.3717 c 0,-2.21328 -10.7864,-4.01323 -24.0794,-4.01323"/></svg>