<svg xmlns="http://www.w3.org/2000/svg" xmlns:svg="http://www.w3.org/2000/svg" id="svg4116" width="524.656" height="387.594" version="1.1"><defs id="defs4118"><marker id="Arrow1Mstart" orient="auto" refX="0" refY="0" style="overflow:visible"><path id="path10498" d="M 0,0 5,-5 -12.5,0 5,5 0,0 z" transform="matrix(0.4,0,0,0.4,4,0)" style="fill-rule:evenodd;stroke:#000;stroke-width:1pt"/></marker><marker id="Arrow1Mend" orient="auto" refX="0" refY="0" style="overflow:visible"><path id="path10501" d="M 0,0 5,-5 -12.5,0 5,5 0,0 z" transform="matrix(-0.4,0,0,-0.4,-4,0)" style="fill-rule:evenodd;stroke:#000;stroke-width:1pt"/></marker><marker id="marker4038" orient="auto" refX="0" refY="0" style="overflow:visible"><path id="path4040" d="M 0,0 5,-5 -12.5,0 5,5 0,0 z" transform="matrix(0.4,0,0,0.4,4,0)" style="fill-rule:evenodd;stroke:#000;stroke-width:1pt"/></marker><marker id="marker4042" orient="auto" refX="0" refY="0" style="overflow:visible"><path id="path4044" d="M 0,0 5,-5 -12.5,0 5,5 0,0 z" transform="matrix(0.4,0,0,0.4,4,0)" style="fill-rule:evenodd;stroke:#000;stroke-width:1pt"/></marker><marker id="marker4046" orient="auto" refX="0" refY="0" style="overflow:visible"><path id="path4048" d="M 0,0 5,-5 -12.5,0 5,5 0,0 z" transform="matrix(-0.4,0,0,-0.4,-4,0)" style="fill-rule:evenodd;stroke:#000;stroke-width:1pt"/></marker><marker id="marker4050" orient="auto" refX="0" refY="0" style="overflow:visible"><path id="path4052" d="M 0,0 5,-5 -12.5,0 5,5 0,0 z" transform="matrix(0.4,0,0,0.4,4,0)" style="fill-rule:evenodd;stroke:#000;stroke-width:1pt"/></marker><marker id="marker4054" orient="auto" refX="0" refY="0" style="overflow:visible"><path id="path4056" d="M 0,0 5,-5 -12.5,0 5,5 0,0 z" transform="matrix(0.4,0,0,0.4,4,0)" style="fill-rule:evenodd;stroke:#000;stroke-width:1pt"/></marker><marker id="marker4058" orient="auto" refX="0" refY="0" style="overflow:visible"><path id="path4060" d="M 0,0 5,-5 -12.5,0 5,5 0,0 z" transform="matrix(-0.4,0,0,-0.4,-4,0)" style="fill-rule:evenodd;stroke:#000;stroke-width:1pt"/></marker><marker id="marker4062" orient="auto" refX="0" refY="0" style="overflow:visible"><path id="path4064" d="M 0,0 5,-5 -12.5,0 5,5 0,0 z" transform="matrix(0.4,0,0,0.4,4,0)" style="fill-rule:evenodd;stroke:#000;stroke-width:1pt"/></marker><marker id="marker4066" orient="auto" refX="0" refY="0" style="overflow:visible"><path id="path4068" d="M 0,0 5,-5 -12.5,0 5,5 0,0 z" transform="matrix(0.4,0,0,0.4,4,0)" style="fill-rule:evenodd;stroke:#000;stroke-width:1pt"/></marker><marker id="marker4070" orient="auto" refX="0" refY="0" style="overflow:visible"><path id="path4072" d="M 0,0 5,-5 -12.5,0 5,5 0,0 z" transform="matrix(-0.4,0,0,-0.4,-4,0)" style="fill-rule:evenodd;stroke:#000;stroke-width:1pt"/></marker><marker id="marker4074" orient="auto" refX="0" refY="0" style="overflow:visible"><path id="path4076" d="M 0,0 5,-5 -12.5,0 5,5 0,0 z" transform="matrix(0.4,0,0,0.4,4,0)" style="fill-rule:evenodd;stroke:#000;stroke-width:1pt"/></marker></defs><metadata id="metadata4121"/><g id="layer1" transform="translate(-20.53125,-22.84375)"><rect style="fill:none;stroke:#000;stroke-width:1;stroke-opacity:.98412697" id="rect10443" width="165.528" height="376.844" x="21.024" y="24.286"/><rect style="fill:none;stroke:#000;stroke-width:1;stroke-opacity:.98412697" id="rect10445" width="156.957" height="386.59" x="387.734" y="23.353"/><path style="fill:none;stroke:#000;stroke-width:.99199992;stroke-linecap:butt;stroke-linejoin:miter;stroke-miterlimit:3;stroke-opacity:1;stroke-dasharray:none;marker-start:url(#Arrow1Mstart)" id="path10486" d="m 188.27904,66.970932 195.99264,0.833121"/><path style="fill:none;stroke:#000;stroke-width:.99199992;stroke-linecap:butt;stroke-linejoin:miter;stroke-miterlimit:3;stroke-opacity:1;stroke-dasharray:none;marker-start:none;marker-mid:none;marker-end:url(#Arrow1Mend)" id="path10486-0" d="M 188.05945,91.53983 384.0521,90.566545"/><text style="font-size:11.9913578px;font-style:normal;font-weight:400;line-height:125%;letter-spacing:0;word-spacing:0;fill:#000;fill-opacity:1;stroke:none;font-family:Sans" id="text11995" x="460.41" y="292.919" transform="scale(0.91971036,1.0872988)" xml:space="preserve"><tspan id="tspan12218" x="460.41" y="292.919">Port2</tspan></text><text style="font-size:11.9913578px;font-style:normal;font-weight:400;line-height:125%;letter-spacing:0;word-spacing:0;fill:#000;fill-opacity:1;stroke:none;font-family:Sans" id="text11995-7" x="459.07" y="59.739" transform="scale(0.91971036,1.0872988)" xml:space="preserve"><tspan id="tspan11997-3" x="459.07" y="59.739">Port0</tspan></text><text style="font-size:15.28272438px;font-style:normal;font-weight:400;line-height:125%;letter-spacing:0;word-spacing:0;fill:#000;fill-opacity:1;stroke:none;font-family:Sans" id="text11995-7-3" x="474.06" y="184.779" transform="scale(0.8986678,1.1127582)" xml:space="preserve"><tspan id="tspan11997-3-5" x="474.06" y="184.779">DPDK board</tspan></text><text style="font-size:16.0002594px;font-style:normal;font-weight:400;line-height:125%;letter-spacing:0;word-spacing:0;fill:#000;fill-opacity:1;stroke:none;font-family:Sans" id="text11995-7-3-3" x="54.01" y="171.287" transform="scale(0.81894062,1.2210897)" xml:space="preserve"><tspan id="tspan11997-3-5-8" x="54.01" y="171.287">Traffic Generator</tspan></text><text style="font-size:11.9913578px;font-style:normal;font-weight:400;line-height:125%;letter-spacing:0;word-spacing:0;fill:#000;fill-opacity:1;stroke:none;font-family:Sans" id="text11995-7-8" x="459.467" y="91.196" transform="scale(0.91971036,1.0872988)" xml:space="preserve"><tspan id="tspan11997-3-3" x="459.467" y="91.196">Port1</tspan></text><text style="font-size:11.9913578px;font-style:normal;font-weight:400;line-height:125%;letter-spacing:0;word-spacing:0;fill:#000;fill-opacity:1;stroke:none;font-family:Sans" id="text11995-7-3-6-2" x="460.153" y="326.06" transform="scale(0.91971036,1.0872988)" xml:space="preserve"><tspan id="tspan12214" x="460.153" y="326.06">Port3</tspan></text><path style="fill:none;stroke:#000;stroke-width:.99199992;stroke-linecap:butt;stroke-linejoin:miter;stroke-miterlimit:3;stroke-opacity:1;stroke-dasharray:.99199999,1.98399994;stroke-dashoffset:0;marker-start:url(#Arrow1Mstart);display:inline" id="path10486-06" d="m 389.46894,68.26125 12.5232,0 c 1.5,0 3,1.5 3,3 l 0,21.198419"/><path style="fill:none;stroke:#000;stroke-width:1;stroke-linecap:butt;stroke-linejoin:miter;stroke-miterlimit:3;stroke-opacity:1;stroke-dasharray:.99999997,1.99999998;stroke-dashoffset:0" id="path12267" d="m 398.43415,91.043274 -11.52714,0 0.98804,0"/><path style="fill:none;stroke:#000;stroke-width:.99199992;stroke-linecap:butt;stroke-linejoin:miter;stroke-miterlimit:3;stroke-opacity:1;stroke-dasharray:none;marker-start:url(#Arrow1Mstart)" id="path10486-43" d="m 190.33387,103.00575 195.99267,0.97328"/><path style="fill:none;stroke:#000;stroke-width:.99199992;stroke-linecap:butt;stroke-linejoin:miter;stroke-miterlimit:3;stroke-opacity:1;stroke-dasharray:none;marker-start:none;marker-mid:none;marker-end:url(#Arrow1Mend)" id="path10486-0-9" d="M 187.50304,56.857383 383.49569,55.884111"/><path style="fill:none;stroke:#000;stroke-width:.99199992;stroke-linecap:butt;stroke-linejoin:miter;stroke-miterlimit:3;stroke-opacity:1;stroke-dasharray:.99199997,1.98399998;stroke-dashoffset:0;marker-start:url(#Arrow1Mstart);display:inline" id="path10486-06-7" d="m 388.42391,103.27876 27.61666,0 c 1.5,0 3,-1.5 3,-3 l 0,-41.462569"/><path style="fill:none;stroke:#000;stroke-width:1;stroke-linecap:butt;stroke-linejoin:miter;stroke-miterlimit:3;stroke-opacity:1;stroke-dasharray:.99999997,1.99999994;stroke-dashoffset:0" id="path12267-7" d="m 417.31173,56.402625 -26.65144,0 2.2844,0"/><path style="fill:none;stroke:#000;stroke-width:.99199992;stroke-linecap:butt;stroke-linejoin:miter;stroke-miterlimit:3;stroke-opacity:1;stroke-dasharray:none;marker-start:url(#Arrow1Mstart)" id="path10486-07" d="m 186.54351,319.92933 195.99264,0.83313"/><path style="fill:none;stroke:#000;stroke-width:.99199992;stroke-linecap:butt;stroke-linejoin:miter;stroke-miterlimit:3;stroke-opacity:1;stroke-dasharray:none;marker-start:none;marker-mid:none;marker-end:url(#Arrow1Mend)" id="path10486-0-3" d="m 185.45351,344.49822 195.99262,-0.97328"/><path style="fill:none;stroke:#000;stroke-width:.99199992;stroke-linecap:butt;stroke-linejoin:miter;stroke-miterlimit:3;stroke-opacity:1;stroke-dasharray:.99199997,1.98399993;stroke-dashoffset:0;marker-start:url(#Arrow1Mstart);display:inline" id="path10486-06-4" d="m 387.7334,321.21965 12.52321,0 c 1.5,0 3,1.5 3,3 l 0,21.19843"/><path style="fill:none;stroke:#000;stroke-width:1;stroke-linecap:butt;stroke-linejoin:miter;stroke-miterlimit:3;stroke-opacity:1;stroke-dasharray:.99999997,1.99999994;stroke-dashoffset:0" id="path12267-9" d="m 396.69862,344.00166 -11.52714,0 0.98804,0"/><path style="fill:none;stroke:#000;stroke-width:.99199992;stroke-linecap:butt;stroke-linejoin:miter;stroke-miterlimit:3;stroke-opacity:1;stroke-dasharray:none;marker-start:url(#Arrow1Mstart)" id="path10486-43-6" d="m 190.33918,355.96416 195.99266,0.97327"/><path style="fill:none;stroke:#000;stroke-width:.99199992;stroke-linecap:butt;stroke-linejoin:miter;stroke-miterlimit:3;stroke-opacity:1;stroke-dasharray:none;marker-start:none;marker-mid:none;marker-end:url(#Arrow1Mend)" id="path10486-0-9-5" d="m 185.76751,309.8158 195.99266,-0.97331"/><path style="fill:none;stroke:#000;stroke-width:.99199992;stroke-linecap:butt;stroke-linejoin:miter;stroke-miterlimit:3;stroke-opacity:1;stroke-dasharray:.99199997,1.98399994;stroke-dashoffset:0;marker-start:url(#Arrow1Mstart);display:inline" id="path10486-06-7-1" d="m 386.68838,356.23716 27.61666,0 c 1.5,0 3,-1.5 3,-3 l 0,-41.46255"/><path style="fill:none;stroke:#000;stroke-width:1;stroke-linecap:butt;stroke-linejoin:miter;stroke-miterlimit:3;stroke-opacity:1;stroke-dasharray:.99999995,1.99999991;stroke-dashoffset:0" id="path12267-7-0" d="m 415.57618,309.36103 -26.65143,0 2.28441,0"/><text style="font-size:11.9913578px;font-style:normal;font-weight:400;line-height:125%;letter-spacing:0;word-spacing:0;fill:#000;fill-opacity:1;stroke:none;font-family:Sans" id="text11995-9" x="168.013" y="295.954" transform="scale(0.91971036,1.0872988)" xml:space="preserve"><tspan id="tspan12218-9" x="168.013" y="295.954">Port2</tspan></text><text style="font-size:11.9913578px;font-style:normal;font-weight:400;line-height:125%;letter-spacing:0;word-spacing:0;fill:#000;fill-opacity:1;stroke:none;font-family:Sans" id="text11995-7-6" x="166.673" y="62.774" transform="scale(0.91971036,1.0872988)" xml:space="preserve"><tspan id="tspan11997-3-8" x="166.673" y="62.774">Port0</tspan></text><text style="font-size:11.9913578px;font-style:normal;font-weight:400;line-height:125%;letter-spacing:0;word-spacing:0;fill:#000;fill-opacity:1;stroke:none;font-family:Sans" id="text11995-7-8-3" x="167.07" y="94.231" transform="scale(0.91971036,1.0872988)" xml:space="preserve"><tspan id="tspan11997-3-3-4" x="167.07" y="94.231">Port1</tspan></text><text style="font-size:11.9913578px;font-style:normal;font-weight:400;line-height:125%;letter-spacing:0;word-spacing:0;fill:#000;fill-opacity:1;stroke:none;font-family:Sans" id="text11995-7-3-6-2-8" x="167.756" y="329.095" transform="scale(0.91971036,1.0872988)" xml:space="preserve"><tspan id="tspan12214-4" x="167.756" y="329.095">Port3</tspan></text></g></svg>