<svg xmlns="http://www.w3.org/2000/svg" xmlns:svg="http://www.w3.org/2000/svg" id="svg4090" width="526.944" height="379.537" version="1.1"><defs id="defs4092"><marker id="Arrow1Mend" orient="auto" refX="0" refY="0" style="overflow:visible"><path id="path10501" d="M 0,0 5,-5 -12.5,0 5,5 0,0 z" transform="matrix(-0.4,0,0,-0.4,-4,0)" style="fill-rule:evenodd;stroke:#000;stroke-width:1pt"/></marker><marker id="marker4017" orient="auto" refX="0" refY="0" style="overflow:visible"><path id="path4019" d="M 0,0 5,-5 -12.5,0 5,5 0,0 z" transform="matrix(-0.4,0,0,-0.4,-4,0)" style="fill-rule:evenodd;stroke:#000;stroke-width:1pt"/></marker><marker id="marker4021" orient="auto" refX="0" refY="0" style="overflow:visible"><path id="path4023" d="M 0,0 5,-5 -12.5,0 5,5 0,0 z" transform="matrix(-0.4,0,0,-0.4,-4,0)" style="fill-rule:evenodd;stroke:#000;stroke-width:1pt"/></marker><marker id="marker4025" orient="auto" refX="0" refY="0" style="overflow:visible"><path id="path4027" d="M 0,0 5,-5 -12.5,0 5,5 0,0 z" transform="matrix(-0.4,0,0,-0.4,-4,0)" style="fill-rule:evenodd;stroke:#000;stroke-width:1pt"/></marker><marker id="marker4029" orient="auto" refX="0" refY="0" style="overflow:visible"><path id="path4031" d="M 0,0 5,-5 -12.5,0 5,5 0,0 z" transform="matrix(-0.4,0,0,-0.4,-4,0)" style="fill-rule:evenodd;stroke:#000;stroke-width:1pt"/></marker><marker id="marker4033" orient="auto" refX="0" refY="0" style="overflow:visible"><path id="path4035" d="M 0,0 5,-5 -12.5,0 5,5 0,0 z" transform="matrix(-0.4,0,0,-0.4,-4,0)" style="fill-rule:evenodd;stroke:#000;stroke-width:1pt"/></marker><marker id="Arrow1Mstart" orient="auto" refX="0" refY="0" style="overflow:visible"><path id="path10498" d="M 0,0 5,-5 -12.5,0 5,5 0,0 z" transform="matrix(0.4,0,0,0.4,4,0)" style="fill-rule:evenodd;stroke:#000;stroke-width:1pt"/></marker><marker id="marker4039" orient="auto" refX="0" refY="0" style="overflow:visible"><path id="path4041" d="M 0,0 5,-5 -12.5,0 5,5 0,0 z" transform="matrix(0.4,0,0,0.4,4,0)" style="fill-rule:evenodd;stroke:#000;stroke-width:1pt"/></marker><marker id="marker4043" orient="auto" refX="0" refY="0" style="overflow:visible"><path id="path4045" d="M 0,0 5,-5 -12.5,0 5,5 0,0 z" transform="matrix(0.4,0,0,0.4,4,0)" style="fill-rule:evenodd;stroke:#000;stroke-width:1pt"/></marker><marker id="marker4047" orient="auto" refX="0" refY="0" style="overflow:visible"><path id="path4049" d="M 0,0 5,-5 -12.5,0 5,5 0,0 z" transform="matrix(0.4,0,0,0.4,4,0)" style="fill-rule:evenodd;stroke:#000;stroke-width:1pt"/></marker></defs><metadata id="metadata4095"/><g id="layer1" transform="translate(-35.078263,-28.308125)"><rect style="fill:none;stroke:#000;stroke-width:.81890059;stroke-opacity:.98412697" id="rect10443" width="152.967" height="178.996" x="124.502" y="128.956"/><rect style="fill:none;stroke:#000;stroke-width:.99999988;stroke-opacity:.98412697" id="rect10445-2" width="124.714" height="46.676" x="437.005" y="133.061"/><rect style="fill:none;stroke:#000;stroke-width:.99999988;stroke-opacity:.98412697" id="rect10445-0" width="124.714" height="46.676" x="436.808" y="193.872"/><rect style="fill:none;stroke:#000;stroke-width:.99999988;stroke-opacity:.98412697" id="rect10445-9" width="124.714" height="46.676" x="436.808" y="256.063"/><rect style="fill:none;stroke:#000;stroke-width:.99999988;stroke-opacity:.98412697" id="rect10445-7" width="124.714" height="46.676" x="135.706" y="360.669"/><path style="fill:none;stroke:#000;stroke-width:.99566948;stroke-linecap:butt;stroke-linejoin:miter;stroke-miterlimit:3;stroke-dasharray:none;stroke-opacity:1;marker-start:url(#Arrow1Mstart)" id="path10486-2" d="M 278.89497,147.51907 436.5713,146.78234"/><path style="fill:none;stroke:#000;stroke-width:.99290925;stroke-linecap:butt;stroke-linejoin:miter;stroke-miterlimit:3;stroke-dasharray:none;stroke-opacity:1;marker-start:url(#Arrow1Mstart)" id="path10486-1" d="m 279.37092,206.8834 156.80331,-0.73671"/><path style="fill:none;stroke:#000;stroke-width:.99379504;stroke-linecap:butt;stroke-linejoin:miter;stroke-miterlimit:3;stroke-dasharray:none;stroke-opacity:1;marker-start:url(#Arrow1Mstart)" id="path10486-4" d="m 279.19738,270.88669 157.15478,-0.73638"/><path style="fill:none;stroke:#000;stroke-width:.99820405;stroke-linecap:butt;stroke-linejoin:miter;stroke-miterlimit:3;stroke-dasharray:none;stroke-opacity:1;marker-start:none;marker-mid:none;marker-end:url(#Arrow1Mend)" id="path10486-0-4" d="m 277.17846,166.20347 158.11878,-0.73842"/><path style="fill:none;stroke:#000;stroke-width:.99410033;stroke-linecap:butt;stroke-linejoin:miter;stroke-miterlimit:3;stroke-dasharray:none;stroke-opacity:1;marker-start:none;marker-mid:none;marker-end:url(#Arrow1Mend)" id="path10486-0-7" d="m 277.47049,225.92925 157.32298,-0.73606"/><path style="fill:none;stroke:#000;stroke-width:.99566948;stroke-linecap:butt;stroke-linejoin:miter;stroke-miterlimit:3;stroke-dasharray:none;stroke-opacity:1;marker-start:none;marker-mid:none;marker-end:url(#Arrow1Mend)" id="path10486-0-77" d="M 277.70474,289.26714 435.38107,288.5304"/><text style="font-style:normal;font-weight:400;line-height:0%;font-family:sans-serif;letter-spacing:0;word-spacing:0;fill:#000;fill-opacity:1;stroke:none" id="text11995" x="345.023" y="134.821" transform="scale(0.93992339,1.0639165)" xml:space="preserve"><tspan id="tspan11997" x="345.023" y="134.821" style="font-size:9.32312489px;line-height:1.25;font-family:sans-serif">Request burst</tspan></text><text style="font-style:normal;font-weight:400;line-height:0%;font-family:sans-serif;letter-spacing:0;word-spacing:0;fill:#000;fill-opacity:1;stroke:none" id="text11995-7" x="346.387" y="164.766" transform="scale(0.93992339,1.0639165)" xml:space="preserve"><tspan id="tspan11997-3" x="346.387" y="164.766" style="font-size:9.32312489px;line-height:1.25;font-family:sans-serif">Mbuf Pointers</tspan></text><text style="font-style:normal;font-weight:400;line-height:0%;font-family:sans-serif;letter-spacing:0;word-spacing:0;fill:#000;fill-opacity:1;stroke:none" id="text11995-7-3" x="502.368" y="151.662" transform="scale(0.93992339,1.0639165)" xml:space="preserve"><tspan id="tspan11997-3-5" x="502.368" y="151.662" style="font-size:9.32312489px;line-height:1.25;font-family:sans-serif">WorkerThread1</tspan></text><text style="font-style:normal;font-weight:400;line-height:0%;font-family:sans-serif;letter-spacing:0;word-spacing:0;fill:#000;fill-opacity:1;stroke:none" id="text11995-7-3-9" x="499.401" y="207.945" transform="scale(0.93992339,1.0639165)" xml:space="preserve"><tspan id="tspan11997-3-5-9" x="499.401" y="207.945" style="font-size:9.32312489px;line-height:1.25;font-family:sans-serif">WorkerThread2</tspan></text><text style="font-style:normal;font-weight:400;line-height:0%;font-family:sans-serif;letter-spacing:0;word-spacing:0;fill:#000;fill-opacity:1;stroke:none" id="text11995-7-3-82" x="500.192" y="266.596" transform="scale(0.9399234,1.0639165)" xml:space="preserve"><tspan id="tspan11997-3-5-6" x="500.192" y="266.596" style="font-size:9.32312489px;line-height:1.25;font-family:sans-serif">WorkerThreadN</tspan></text><text style="font-style:normal;font-weight:400;line-height:0%;font-family:sans-serif;letter-spacing:0;word-spacing:0;fill:#000;fill-opacity:1;stroke:none" id="text11995-7-3-6" x="193.797" y="362.852" transform="scale(0.93992342,1.0639165)" xml:space="preserve"><tspan id="tspan11997-3-5-0" x="193.797" y="362.852" style="font-size:9.32312489px;line-height:1.25;font-family:sans-serif">TX thread</tspan></text><text style="font-style:normal;font-weight:400;line-height:0%;font-family:sans-serif;letter-spacing:0;word-spacing:0;fill:#000;fill-opacity:1;stroke:none" id="text11995-7-3-3" x="175.789" y="207.263" transform="scale(0.9399234,1.0639165)" xml:space="preserve"><tspan id="tspan11997-3-5-8" x="175.789" y="207.263" style="font-size:9.32312489px;line-height:1.25;font-family:sans-serif">Distributor Thread</tspan></text><path style="fill:none;stroke:#000;stroke-width:.75945646;stroke-linecap:butt;stroke-linejoin:miter;stroke-miterlimit:3;stroke-dasharray:none;stroke-opacity:1;marker-start:none;marker-mid:none;marker-end:url(#Arrow1Mend)" id="path10486-0-4-5" d="m 49.600127,54.625621 85.546363,-0.79004"/><path style="fill:none;stroke:#000;stroke-width:.75945646;stroke-linecap:butt;stroke-linejoin:miter;stroke-miterlimit:3;stroke-dasharray:none;stroke-opacity:1;marker-start:none;marker-mid:none;marker-end:url(#Arrow1Mend)" id="path10486-0-4-5-7" d="m 135.70569,384.00706 -85.546361,0.79003"/><text style="font-style:normal;font-weight:400;line-height:0%;font-family:sans-serif;letter-spacing:0;word-spacing:0;fill:#000;fill-opacity:1;stroke:none" id="text11995-7-8" x="73.343" y="44.197" transform="scale(0.9399234,1.0639165)" xml:space="preserve"><tspan id="tspan11997-3-3" x="73.343" y="44.197" style="font-size:9.32312489px;line-height:1.25;font-family:sans-serif">Mbufs In</tspan></text><text style="font-style:normal;font-weight:400;line-height:0%;font-family:sans-serif;letter-spacing:0;word-spacing:0;fill:#000;fill-opacity:1;stroke:none" id="text11995-7-8-5" x="83.481" y="352.625" transform="scale(0.93992342,1.0639165)" xml:space="preserve"><tspan id="tspan11997-3-3-1" x="83.481" y="352.625" style="font-size:9.32312489px;line-height:1.25;font-family:sans-serif">Mbufs Out</tspan></text><path style="fill:none;stroke:#000;stroke-width:1.01068497;stroke-miterlimit:3;stroke-dasharray:none;stroke-opacity:.98412697" id="path12188" d="m 171.68192,308.06701 0.21464,27.84908 -8.6322,0.37082 -11.33877,0.17876 25.75778,13.51792 23.25799,10.16096 18.87014,-6.69841 31.83305,-15.77889 -10.75831,-0.30147 -10.37586,-0.40509 -0.22443,-28.8261 z"/><text style="font-style:normal;font-weight:400;line-height:0%;font-family:sans-serif;letter-spacing:0;word-spacing:0;fill:#000;fill-opacity:1;stroke:none" id="text11995-7-3-6-2" x="193.689" y="309.263" transform="scale(0.93992342,1.0639165)" xml:space="preserve"><tspan id="tspan12214" x="193.689" y="309.263" style="font-size:9.32312489px;line-height:1.25;font-family:sans-serif">SW Ring</tspan></text><path style="fill:none;stroke:#000;stroke-width:1.02106845;stroke-miterlimit:3;stroke-dasharray:none;stroke-opacity:.98412697" id="path12188-5" d="m 173.27214,75.568236 0.21464,28.424254 -8.6322,0.37848 -11.33877,0.18245 25.75778,13.79709 23.25799,10.37083 18.87013,-6.83675 31.83305,-16.10478 -10.75831,-0.30769 -10.37586,-0.41345 -0.22443,-29.421453 z"/><rect style="fill:none;stroke:#000;stroke-width:.99999988;stroke-opacity:.98412697" id="rect10445-7-7" width="124.714" height="46.676" x="138.184" y="28.832"/><text style="font-style:normal;font-weight:400;line-height:0%;font-family:sans-serif;letter-spacing:0;word-spacing:0;fill:#000;fill-opacity:1;stroke:none" id="text11995-7-3-6-6" x="190.8" y="51.178" transform="scale(0.93992339,1.0639165)" xml:space="preserve"><tspan id="tspan11997-3-5-0-4" x="190.8" y="51.178" style="font-size:9.32312489px;line-height:1.25;font-family:sans-serif">RX thread</tspan></text><text style="font-style:normal;font-weight:400;line-height:0%;font-family:sans-serif;letter-spacing:0;word-spacing:0;fill:#000;fill-opacity:1;stroke:none" id="text11995-7-3-6-2-9" x="196.381" y="90.225" transform="scale(0.93992339,1.0639165)" xml:space="preserve"><tspan id="tspan12214-8" x="196.381" y="90.225" style="font-size:9.32312489px;line-height:1.25;font-family:sans-serif">SW Ring</tspan></text><rect style="fill:none;stroke:#000;stroke-width:.99999988;stroke-opacity:.98412697" id="rect10445-7-7-5" width="124.714" height="46.676" x="327.866" y="29.009"/><text style="font-style:normal;font-weight:400;line-height:0%;font-family:sans-serif;letter-spacing:0;word-spacing:0;fill:#000;fill-opacity:1;stroke:none" id="text11995-7-3-6-6-3" x="387.272" y="45.362" transform="scale(0.93992339,1.0639165)" xml:space="preserve"><tspan id="tspan11997-3-5-0-4-4" x="387.272" y="45.362" style="font-size:9.32312489px;line-height:1.25;font-family:sans-serif">Stats thread</tspan><tspan style="font-size:9.32312489px;line-height:1.25;font-family:sans-serif" id="tspan165" x="387.272" y="57.016">(to console)</tspan></text></g></svg>