<svg xmlns="http://www.w3.org/2000/svg" xmlns:osb="http://www.openswatchbook.org/uri/2009/osb" xmlns:svg="http://www.w3.org/2000/svg" id="svg2" width="588.416" height="287.475" version="1.1" viewBox="0 0 551.64 269.508"><defs id="defs4"><marker style="overflow:visible" id="marker18451" orient="auto" refX="0" refY="0"><path style="fill:#fff;fill-opacity:1;fill-rule:evenodd;stroke:#000;stroke-width:1pt;stroke-opacity:1" id="path18453" d="M 0,0 5,-5 -12.5,0 5,5 0,0 Z" transform="matrix(-0.8,0,0,-0.8,-10,0)"/></marker><marker id="marker18273" orient="auto" refX="0" refY="0" style="overflow:visible"><path id="path18275" d="M 0,0 5,-5 -12.5,0 5,5 0,0 Z" transform="matrix(-0.8,0,0,-0.8,-10,0)" style="fill:#fff;fill-opacity:1;fill-rule:evenodd;stroke:#000;stroke-width:1pt;stroke-opacity:1"/></marker><marker id="marker10612" orient="auto" refX="0" refY="0" style="overflow:visible"><path id="path10614" d="M 8.7185878,4.0337352 -2.2072895,0.01601326 8.7185884,-4.0017078 c -1.7454984,2.3720609 -1.7354408,5.6174519 -6e-7,8.035443 z" transform="matrix(-0.3,0,0,-0.3,0.69,0)" style="fill:#cfce37;fill-opacity:1;fill-rule:evenodd;stroke:#cfce37;stroke-width:.625;stroke-linejoin:round;stroke-opacity:1"/></marker><marker id="marker10270" orient="auto" refX="0" refY="0" style="overflow:visible"><path id="path10272" d="M 0,0 5,-5 -12.5,0 5,5 0,0 Z" transform="matrix(0.8,0,0,0.8,10,0)" style="fill:#fff;fill-opacity:1;fill-rule:evenodd;stroke:#000;stroke-width:1pt;stroke-opacity:1"/></marker><marker style="overflow:visible" id="marker9102" orient="auto" refX="0" refY="0"><path style="fill:#035002;fill-opacity:1;fill-rule:evenodd;stroke:#035002;stroke-width:1pt;stroke-opacity:1" id="path9104" d="M 0,0 5,-5 -12.5,0 5,5 0,0 Z" transform="matrix(0.2,0,0,0.2,1.2,0)"/></marker><marker style="overflow:visible" id="Arrow1Sstart" orient="auto" refX="0" refY="0"><path style="fill:#d4ce00;fill-opacity:1;fill-rule:evenodd;stroke:#d4ce00;stroke-width:1pt;stroke-opacity:1" id="path5945" d="M 0,0 5,-5 -12.5,0 5,5 0,0 Z" transform="matrix(0.2,0,0,0.2,1.2,0)"/></marker><linearGradient id="linearGradient11398" osb:paint="gradient"><stop id="stop11400" offset="0" style="stop-color:#000;stop-opacity:1"/><stop id="stop11402" offset="1" style="stop-color:#000;stop-opacity:0"/></linearGradient><marker id="marker9540" orient="auto" refX="0" refY="0" style="overflow:visible"><path id="path9542" d="M 0,0 5,-5 -12.5,0 5,5 0,0 Z" transform="matrix(-0.8,0,0,-0.8,-10,0)" style="fill:#000;fill-opacity:1;fill-rule:evenodd;stroke:#000;stroke-width:1pt;stroke-opacity:1"/></marker><linearGradient id="linearGradient9336" osb:paint="solid"><stop id="stop9338" offset="0" style="stop-color:#dc181a;stop-opacity:1"/></linearGradient><marker style="overflow:visible" id="marker7350" orient="auto" refX="0" refY="0"><path style="fill:#fff;fill-opacity:1;fill-rule:evenodd;stroke:#000;stroke-width:1pt;stroke-opacity:1" id="path7352" d="M 0,0 5,-5 -12.5,0 5,5 0,0 Z" transform="matrix(0.8,0,0,0.8,10,0)"/></marker><marker style="overflow:visible" id="Arrow1Lstart" orient="auto" refX="0" refY="0"><path style="fill:#fff;fill-opacity:1;fill-rule:evenodd;stroke:#000;stroke-width:1pt;stroke-opacity:1" id="path4871" d="M 0,0 5,-5 -12.5,0 5,5 0,0 Z" transform="matrix(0.8,0,0,0.8,10,0)"/></marker><marker style="overflow:visible" id="marker7092" orient="auto" refX="0" refY="0"><path style="fill:#000;fill-opacity:1;fill-rule:evenodd;stroke:#000;stroke-width:1pt;stroke-opacity:1" id="path7094" d="M 0,0 5,-5 -12.5,0 5,5 0,0 Z" transform="matrix(-0.8,0,0,-0.8,-10,0)"/></marker><marker id="marker5822" orient="auto" refX="0" refY="0" style="overflow:visible"><path id="path5824" d="M 0,0 5,-5 -12.5,0 5,5 0,0 Z" transform="matrix(-0.8,0,0,-0.8,-10,0)" style="fill:#000;fill-opacity:1;fill-rule:evenodd;stroke:#000;stroke-width:1pt;stroke-opacity:1"/></marker><marker style="overflow:visible" id="marker5369" orient="auto" refX="0" refY="0"><path style="fill:#035002;fill-opacity:1;fill-rule:evenodd;stroke:#035002;stroke-width:.625;stroke-linejoin:round;stroke-opacity:1" id="path5371" d="M 8.7185878,4.0337352 -2.2072895,0.01601326 8.7185884,-4.0017078 c -1.7454984,2.3720609 -1.7354408,5.6174519 -6e-7,8.035443 z" transform="matrix(-0.3,0,0,-0.3,0.69,0)"/></marker><marker style="overflow:visible" id="TriangleOutL" orient="auto" refX="0" refY="0"><path style="fill:#000;fill-opacity:1;fill-rule:evenodd;stroke:#000;stroke-width:1pt;stroke-opacity:1" id="path5013" d="m 5.77,0 -8.65,5 0,-10 8.65,5 z" transform="scale(0.8,0.8)"/></marker><marker style="overflow:visible" id="Tail" orient="auto" refX="0" refY="0"><g style="fill:#528ac6;fill-opacity:1;stroke:#000;stroke-opacity:1" id="g4907" transform="scale(-1.2,-1.2)"><path style="fill:#528ac6;fill-opacity:1;fill-rule:evenodd;stroke:#000;stroke-width:.80000001;stroke-linecap:round;stroke-opacity:1" id="path4909" d="M -3.8048674,-3.9585227 0.54352094,0"/><path style="fill:#528ac6;fill-opacity:1;fill-rule:evenodd;stroke:#000;stroke-width:.80000001;stroke-linecap:round;stroke-opacity:1" id="path4911" d="M -1.2866832,-3.9585227 3.0617053,0"/><path style="fill:#528ac6;fill-opacity:1;fill-rule:evenodd;stroke:#000;stroke-width:.80000001;stroke-linecap:round;stroke-opacity:1" id="path4913" d="M 1.3053582,-3.9585227 5.6537466,0"/><path style="fill:#528ac6;fill-opacity:1;fill-rule:evenodd;stroke:#000;stroke-width:.80000001;stroke-linecap:round;stroke-opacity:1" id="path4915" d="M -3.8048674,4.1775838 0.54352094,0.21974226"/><path style="fill:#528ac6;fill-opacity:1;fill-rule:evenodd;stroke:#000;stroke-width:.80000001;stroke-linecap:round;stroke-opacity:1" id="path4917" d="M -1.2866832,4.1775838 3.0617053,0.21974226"/><path style="fill:#528ac6;fill-opacity:1;fill-rule:evenodd;stroke:#000;stroke-width:.80000001;stroke-linecap:round;stroke-opacity:1" id="path4919" d="M 1.3053582,4.1775838 5.6537466,0.21974226"/></g></marker><marker style="overflow:visible" id="Arrow2Send" orient="auto" refX="0" refY="0"><path style="fill:#528ac6;fill-opacity:1;fill-rule:evenodd;stroke:#000;stroke-width:.625;stroke-linejoin:round;stroke-opacity:1" id="path4904" d="M 8.7185878,4.0337352 -2.2072895,0.01601326 8.7185884,-4.0017078 c -1.7454984,2.3720609 -1.7354408,5.6174519 -6e-7,8.035443 z" transform="matrix(-0.3,0,0,-0.3,0.69,0)"/></marker><marker style="overflow:visible" id="Arrow1Send" orient="auto" refX="0" refY="0"><path style="fill:#528ac6;fill-opacity:1;fill-rule:evenodd;stroke:#000;stroke-width:1pt;stroke-opacity:1" id="path4886" d="M 0,0 5,-5 -12.5,0 5,5 0,0 Z" transform="matrix(-0.2,0,0,-0.2,-1.2,0)"/></marker><marker style="overflow:visible" id="Arrow1Lend" orient="auto" refX="0" refY="0"><path style="fill:#fff;fill-opacity:1;fill-rule:evenodd;stroke:#000;stroke-width:1pt;stroke-opacity:1" id="path4874" d="M 0,0 5,-5 -12.5,0 5,5 0,0 Z" transform="matrix(-0.8,0,0,-0.8,-10,0)"/></marker><marker id="marker5734-4" orient="auto" refX="0" refY="0" style="overflow:visible"><path id="path5736-7" d="M 0,0 5,-5 -12.5,0 5,5 0,0 Z" transform="matrix(-0.8,0,0,-0.8,-10,0)" style="fill:#fff;fill-opacity:1;fill-rule:evenodd;stroke:#000;stroke-width:1pt;stroke-opacity:1"/></marker><marker id="marker5734-4-3" orient="auto" refX="0" refY="0" style="overflow:visible"><path id="path5736-7-7" d="M 0,0 5,-5 -12.5,0 5,5 0,0 Z" transform="matrix(-0.8,0,0,-0.8,-10,0)" style="fill:#000;fill-opacity:1;fill-rule:evenodd;stroke:#000;stroke-width:1pt;stroke-opacity:1"/></marker><marker id="marker5734-4-4" orient="auto" refX="0" refY="0" style="overflow:visible"><path id="path5736-7-1" d="M 0,0 5,-5 -12.5,0 5,5 0,0 Z" transform="matrix(-0.8,0,0,-0.8,-10,0)" style="fill:#000;fill-opacity:1;fill-rule:evenodd;stroke:#000;stroke-width:1pt;stroke-opacity:1"/></marker><marker style="overflow:visible" id="marker5369-3" orient="auto" refX="0" refY="0"><path style="fill:#d4ce00;fill-opacity:1;fill-rule:evenodd;stroke:#d4ce00;stroke-width:.625;stroke-linejoin:round;stroke-opacity:1" id="path5371-1" d="M 8.7185878,4.0337352 -2.2072895,0.01601326 8.7185884,-4.0017078 c -1.7454984,2.3720609 -1.7354408,5.6174519 -6e-7,8.035443 z" transform="matrix(-0.3,0,0,-0.3,0.69,0)"/></marker><marker style="overflow:visible" id="marker5369-7" orient="auto" refX="0" refY="0"><path style="fill:#38782d;fill-opacity:1;fill-rule:evenodd;stroke:#38782d;stroke-width:.625;stroke-linejoin:round;stroke-opacity:1" id="path5371-9" d="M 8.7185878,4.0337352 -2.2072895,0.01601326 8.7185884,-4.0017078 c -1.7454984,2.3720609 -1.7354408,5.6174519 -6e-7,8.035443 z" transform="matrix(-0.3,0,0,-0.3,0.69,0)"/></marker><marker style="overflow:visible" id="marker5369-3-7" orient="auto" refX="0" refY="0"><path style="fill:#38782d;fill-opacity:1;fill-rule:evenodd;stroke:#38782d;stroke-width:.625;stroke-linejoin:round;stroke-opacity:1" id="path5371-1-0" d="M 8.7185878,4.0337352 -2.2072895,0.01601326 8.7185884,-4.0017078 c -1.7454984,2.3720609 -1.7354408,5.6174519 -6e-7,8.035443 z" transform="matrix(-0.3,0,0,-0.3,0.69,0)"/></marker><marker style="overflow:visible" id="marker18451-7" orient="auto" refX="0" refY="0"><path style="fill:#fff;fill-opacity:1;fill-rule:evenodd;stroke:#000;stroke-width:1pt;stroke-opacity:1" id="path18453-7" d="M 0,0 5,-5 -12.5,0 5,5 0,0 Z" transform="matrix(-0.8,0,0,-0.8,-10,0)"/></marker><marker style="overflow:visible" id="Arrow1Lstart-7" orient="auto" refX="0" refY="0"><path style="fill:#fff;fill-opacity:1;fill-rule:evenodd;stroke:#000;stroke-width:1pt;stroke-opacity:1" id="path4871-0" d="M 0,0 5,-5 -12.5,0 5,5 0,0 Z" transform="matrix(0.8,0,0,0.8,10,0)"/></marker><marker style="overflow:visible" id="marker7350-9" orient="auto" refX="0" refY="0"><path style="fill:#fff;fill-opacity:1;fill-rule:evenodd;stroke:#000;stroke-width:1pt;stroke-opacity:1" id="path7352-0" d="M 0,0 5,-5 -12.5,0 5,5 0,0 Z" transform="matrix(0.8,0,0,0.8,10,0)"/></marker></defs><metadata id="metadata7"/><g id="layer1" transform="translate(194.35761,4.2637303)"><rect id="rect4140-5" width="131.156" height="102.308" x="-179.577" y="140.221" ry="7.155" style="opacity:1;fill:#528ac6;fill-opacity:1;stroke:none;stroke-opacity:1"/><rect id="rect4140-5-1" width="131.156" height="102.308" x="213.556" y="140.221" ry="6.559" style="opacity:1;fill:#528ac6;fill-opacity:1;stroke:none;stroke-opacity:1"/><rect id="rect4140-5-2" width="131.156" height="46.258" x="-179.577" y="6.366" ry="5.367" style="opacity:1;fill:#528ac6;fill-opacity:1;stroke:none;stroke-opacity:1"/><rect id="rect4140-5-2-7" width="131.156" height="46.258" x="213.556" y="6.366" ry="6.559" style="opacity:1;fill:#528ac6;fill-opacity:1;stroke:none;stroke-opacity:1"/><text id="text4210" x="-182.369" y="188.594" transform="scale(0.96291595,1.0385122)" xml:space="preserve" style="font-style:normal;font-variant:normal;font-weight:400;font-stretch:normal;font-size:16.07670021px;line-height:125%;font-family:sans-serif;-inkscape-font-specification:'sans-serif, Normal';text-align:start;letter-spacing:0;word-spacing:0;writing-mode:lr-tb;text-anchor:start;fill:#fff;fill-opacity:1;stroke:none;stroke-width:1px;stroke-linecap:butt;stroke-linejoin:miter;stroke-opacity:1"><tspan id="tspan4212" x="-182.369" y="188.594">ep0</tspan></text><text id="text4218" x="324.621" y="188.496" transform="scale(0.96291595,1.0385122)" xml:space="preserve" style="font-style:normal;font-variant:normal;font-weight:400;font-stretch:normal;font-size:16.07670021px;line-height:125%;font-family:sans-serif;-inkscape-font-specification:'sans-serif, Normal';text-align:start;letter-spacing:0;word-spacing:0;writing-mode:lr-tb;text-anchor:start;fill:#fff;fill-opacity:1;stroke:none;stroke-width:1px;stroke-linecap:butt;stroke-linejoin:miter;stroke-opacity:1"><tspan id="tspan4220" x="324.621" y="188.496">ep1</tspan></text><text id="text4222" x="-159.977" y="32.861" transform="scale(0.96291595,1.0385122)" xml:space="preserve" style="font-style:normal;font-variant:normal;font-weight:400;font-stretch:normal;font-size:16.07670021px;line-height:125%;font-family:sans-serif;-inkscape-font-specification:'sans-serif, Normal';text-align:start;letter-spacing:0;word-spacing:0;writing-mode:lr-tb;text-anchor:start;fill:#fff;fill-opacity:1;stroke:none;stroke-width:1px;stroke-linecap:butt;stroke-linejoin:miter;stroke-opacity:1"><tspan id="tspan4224" x="-159.977" y="32.861">traffic gen</tspan></text><text id="text4222-1" x="249.771" y="32.861" transform="scale(0.96291595,1.0385122)" xml:space="preserve" style="font-style:normal;font-variant:normal;font-weight:400;font-stretch:normal;font-size:16.07670021px;line-height:125%;font-family:sans-serif;-inkscape-font-specification:'sans-serif, Normal';text-align:start;letter-spacing:0;word-spacing:0;writing-mode:lr-tb;text-anchor:start;fill:#fff;fill-opacity:1;stroke:none;stroke-width:1px;stroke-linecap:butt;stroke-linejoin:miter;stroke-opacity:1"><tspan id="tspan4224-1" x="249.771" y="32.861">traffic gen</tspan></text><path id="path5305" d="m -48.997848,184.52811 c 260.957198,-0.5963 260.957198,-0.5963 260.957198,-0.5963" style="fill:#fff;fill-opacity:1;fill-rule:evenodd;stroke:#000;stroke-width:1.60767007px;stroke-linecap:butt;stroke-linejoin:miter;stroke-opacity:1;marker-end:url(#Arrow1Lend)"/><path id="path5305-2" d="M -47.641399,212.81116 C 213.3158,212.21487 213.3158,212.21487 213.3158,212.21487" style="fill:#fff;fill-opacity:1;fill-rule:evenodd;stroke:#000;stroke-width:1.60767007px;stroke-linecap:butt;stroke-linejoin:miter;stroke-opacity:1;marker-start:url(#marker10270)"/><path id="path5922-0-6" d="m 262.8239,53.615939 c 0,85.864371 0,85.864371 0,85.864371" style="fill:#fff;fill-opacity:1;fill-rule:evenodd;stroke:#000;stroke-width:1.60767007px;stroke-linecap:butt;stroke-linejoin:miter;stroke-opacity:1;marker-start:url(#marker7350)"/><path id="path5922-0-1" d="m -146.8568,54.80849 c 0,85.86437 0,85.86437 0,85.86437" style="fill:#fff;fill-opacity:1;fill-rule:evenodd;stroke:#000;stroke-width:1.60767007px;stroke-linecap:butt;stroke-linejoin:miter;stroke-opacity:1;marker-start:url(#Arrow1Lstart)"/><text id="text7754" x="-158.959" y="151.848" transform="scale(0.96291595,1.0385122)" xml:space="preserve" style="font-style:normal;font-weight:400;font-size:18.08628845px;line-height:125%;font-family:sans-serif;letter-spacing:0;word-spacing:0;fill:#fff;fill-opacity:1;stroke:none;stroke-width:1px;stroke-linecap:butt;stroke-linejoin:miter;stroke-opacity:1"><tspan id="tspan7756" x="-158.959" y="151.848">2</tspan></text><text id="text7758" x="-110.663" y="151.848" transform="scale(0.96291595,1.0385122)" xml:space="preserve" style="font-style:normal;font-weight:400;font-size:18.08628845px;line-height:125%;font-family:sans-serif;letter-spacing:0;word-spacing:0;fill:#fff;fill-opacity:1;stroke:none;stroke-width:1px;stroke-linecap:butt;stroke-linejoin:miter;stroke-opacity:1"><tspan id="tspan7760" x="-110.663" y="151.848">3</tspan></text><text id="text7762" x="267.073" y="151.848" transform="scale(0.96291595,1.0385122)" xml:space="preserve" style="font-style:normal;font-weight:400;font-size:18.08628845px;line-height:125%;font-family:sans-serif;letter-spacing:0;word-spacing:0;fill:#fff;fill-opacity:1;stroke:none;stroke-width:1px;stroke-linecap:butt;stroke-linejoin:miter;stroke-opacity:1"><tspan id="tspan7764" x="267.073" y="151.848">2</tspan></text><text id="text7766" x="318.814" y="151.848" transform="scale(0.96291595,1.0385122)" xml:space="preserve" style="font-style:normal;font-weight:400;font-size:18.08628845px;line-height:125%;font-family:sans-serif;letter-spacing:0;word-spacing:0;fill:#fff;fill-opacity:1;stroke:none;stroke-width:1px;stroke-linecap:butt;stroke-linejoin:miter;stroke-opacity:1"><tspan id="tspan7768" x="318.814" y="151.848">3</tspan></text><text id="text7770" x="225.864" y="183.735" transform="scale(0.96291595,1.0385122)" xml:space="preserve" style="font-style:normal;font-weight:400;font-size:18.08628845px;line-height:125%;font-family:sans-serif;letter-spacing:0;word-spacing:0;fill:#fff;fill-opacity:1;stroke:none;stroke-width:1px;stroke-linecap:butt;stroke-linejoin:miter;stroke-opacity:1"><tspan id="tspan7772" x="225.864" y="183.735">0</tspan></text><text id="text7774" x="226.182" y="211.57" transform="scale(0.96291595,1.0385122)" xml:space="preserve" style="font-style:normal;font-weight:400;font-size:18.08628845px;line-height:125%;font-family:sans-serif;letter-spacing:0;word-spacing:0;fill:#fff;fill-opacity:1;stroke:none;stroke-width:1px;stroke-linecap:butt;stroke-linejoin:miter;stroke-opacity:1"><tspan id="tspan7776" x="226.182" y="211.57">1</tspan></text><text id="text7782" x="-65.239" y="183.735" transform="scale(0.96291595,1.0385122)" xml:space="preserve" style="font-style:normal;font-weight:400;font-size:18.08628845px;line-height:125%;font-family:sans-serif;letter-spacing:0;word-spacing:0;fill:#fff;fill-opacity:1;stroke:none;stroke-width:1px;stroke-linecap:butt;stroke-linejoin:miter;stroke-opacity:1"><tspan id="tspan7784" x="-65.239" y="183.735">0</tspan></text><text id="text7786" x="-64.921" y="211.57" transform="scale(0.96291595,1.0385122)" xml:space="preserve" style="font-style:normal;font-weight:400;font-size:18.08628845px;line-height:125%;font-family:sans-serif;letter-spacing:0;word-spacing:0;fill:#fff;fill-opacity:1;stroke:none;stroke-width:1px;stroke-linecap:butt;stroke-linejoin:miter;stroke-opacity:1"><tspan id="tspan7788" x="-64.921" y="211.57">1</tspan></text><path id="path7850" d="M -190.00162,248.33118 C -74.638406,174.62535 10.240093,56.871479 81.499676,57.515772 176.72224,59.019701 245.16177,197.27679 352.92565,246.54234" style="fill:none;fill-rule:evenodd;stroke:#dc181a;stroke-width:1.60606241;stroke-linecap:round;stroke-linejoin:round;stroke-miterlimit:4;stroke-dasharray:3.21212486,9.63637456;stroke-dashoffset:0;stroke-opacity:1"/><text id="text7876" x="84.986" y="98.45" transform="scale(0.96291595,1.0385122)" xml:space="preserve" style="font-style:normal;font-variant:normal;font-weight:400;font-stretch:normal;font-size:16.07670021px;line-height:125%;font-family:sans-serif;-inkscape-font-specification:'sans-serif, Normal';text-align:center;letter-spacing:0;word-spacing:0;writing-mode:lr-tb;text-anchor:middle;fill:#dc181a;fill-opacity:1;stroke:none;stroke-width:1px;stroke-linecap:butt;stroke-linejoin:miter;stroke-opacity:1"><tspan id="tspan7878" x="84.986" y="98.45">UNPROTECTED</tspan><tspan id="tspan7886" x="84.986" y="118.546">cipher-text</tspan></text><text id="text7880" x="84.9" y="20.937" transform="scale(0.96291595,1.0385122)" xml:space="preserve" style="font-style:normal;font-variant:normal;font-weight:400;font-stretch:normal;font-size:16.07670021px;line-height:125%;font-family:sans-serif;-inkscape-font-specification:'sans-serif, Normal';text-align:center;letter-spacing:0;word-spacing:0;writing-mode:lr-tb;text-anchor:middle;fill:#dc181a;fill-opacity:1;stroke:none;stroke-width:1px;stroke-linecap:butt;stroke-linejoin:miter;stroke-opacity:1"><tspan id="tspan7882" x="84.9" y="20.937">PROTECTED</tspan><tspan id="tspan7884" x="84.9" y="41.033">clear-text</tspan></text><path id="path9370" d="m -101.57521,164.71986 c -0.0232,13.22578 17.528492,19.5572 32.486212,20.12768" style="fill:none;fill-opacity:1;fill-rule:evenodd;stroke:#035002;stroke-width:3.42781782;stroke-linecap:butt;stroke-linejoin:miter;stroke-miterlimit:4;stroke-dasharray:none;stroke-opacity:1;marker-end:url(#marker5369)"/><path id="path9370-8" d="m 231.46374,184.56991 c 19.27508,-1.72507 24.47287,-7.77038 31.06883,-19.63365" style="fill:none;fill-rule:evenodd;stroke:#d4ce00;stroke-width:3.08351111;stroke-linecap:butt;stroke-linejoin:miter;stroke-miterlimit:4;stroke-dasharray:none;stroke-opacity:1;marker-end:url(#marker5369-3)"/><text id="text14635" x="60.454" y="251.787" transform="scale(0.9630889,1.0383257)" xml:space="preserve" style="font-style:normal;font-variant:normal;font-weight:400;font-stretch:normal;font-size:16.8206749px;line-height:125%;font-family:sans-serif;-inkscape-font-specification:'sans-serif, Normal';text-align:start;letter-spacing:0;word-spacing:0;writing-mode:lr-tb;text-anchor:start;fill:#000;fill-opacity:1;stroke:none;stroke-width:1px;stroke-linecap:butt;stroke-linejoin:miter;stroke-opacity:1"><tspan id="tspan14637" x="60.454" y="251.787">outbound</tspan></text><text id="text14635-4" x="62.073" y="232.231" transform="scale(0.96291595,1.0385122)" xml:space="preserve" style="font-style:normal;font-variant:normal;font-weight:400;font-stretch:normal;font-size:16.07670021px;line-height:125%;font-family:sans-serif;-inkscape-font-specification:'sans-serif, Normal';text-align:start;letter-spacing:0;word-spacing:0;writing-mode:lr-tb;text-anchor:start;fill:#000;fill-opacity:1;stroke:none;stroke-width:1px;stroke-linecap:butt;stroke-linejoin:miter;stroke-opacity:1"><tspan id="tspan14637-2" x="62.073" y="232.231">inbound</tspan></text><path id="path9370-1" d="m -144.07995,171.20523 c 15.90052,30.60035 40.80354,39.04445 75.670299,43.29761" style="fill:none;fill-rule:evenodd;stroke:#d4ce00;stroke-width:3.8278625;stroke-linecap:butt;stroke-linejoin:miter;stroke-miterlimit:4;stroke-dasharray:none;stroke-opacity:1;marker-start:url(#Arrow1Sstart)"/><path id="path9370-8-8" d="m 236.99654,212.30897 c 40.08586,-4.29157 62.39356,-19.33069 76.11102,-48.84339" style="fill:none;fill-opacity:1;fill-rule:evenodd;stroke:#035002;stroke-width:3.73783302;stroke-linecap:butt;stroke-linejoin:miter;stroke-miterlimit:4;stroke-dasharray:none;stroke-opacity:1;marker-start:url(#marker9102)"/><path id="path10604" d="m 32.274837,235.80819 c 18.037567,-0.2236 20.456397,-0.29813 20.456397,-0.29813" style="fill:none;fill-rule:evenodd;stroke:#d4ce00;stroke-width:4.01917505;stroke-linecap:butt;stroke-linejoin:miter;stroke-miterlimit:4;stroke-dasharray:none;stroke-opacity:1"/><path id="path10604-4" d="m 32.274837,256.82674 c 18.037567,-0.22362 20.456397,-0.29814 20.456397,-0.29814" style="fill:none;fill-rule:evenodd;stroke:#035002;stroke-width:4.01917505;stroke-linecap:butt;stroke-linejoin:miter;stroke-miterlimit:4;stroke-dasharray:none;stroke-opacity:1"/><path id="path5922-0-1-5" d="m -100.78618,138.21108 c 0,-85.864363 0,-85.864363 0,-85.864363" style="fill:#fff;fill-opacity:1;fill-rule:evenodd;stroke:#000;stroke-width:1.60767007px;stroke-linecap:butt;stroke-linejoin:miter;stroke-opacity:1;marker-start:url(#Arrow1Lstart-7)"/><path id="path5922-0-6-9" d="m 312.42811,137.49681 c 0,-85.864382 0,-85.864382 0,-85.864382" style="fill:#fff;fill-opacity:1;fill-rule:evenodd;stroke:#000;stroke-width:1.60767007px;stroke-linecap:butt;stroke-linejoin:miter;stroke-opacity:1;marker-start:url(#marker7350-9)"/></g></svg>