<svg xmlns="http://www.w3.org/2000/svg" xmlns:svg="http://www.w3.org/2000/svg" id="svg2" width="766.957" height="494.772" version="1.1"><metadata id="metadata7"/><g id="layer1" transform="translate(-135.8992,-434.6983)"><path id="4" d="m 140.50508,922.27019 123.45,0 0,-482.96601 -123.45,0 0,482.96601 z" style="fill:none;stroke:#000;stroke-width:2.12513781;stroke-linecap:round;stroke-linejoin:round;stroke-miterlimit:4;stroke-opacity:1;stroke-dasharray:none"/><path id="130" d="m 265.37162,514.23178 508.66341,0" style="fill:none;stroke:#000;stroke-width:2.08607888px;stroke-linecap:round;stroke-linejoin:round;stroke-opacity:1;stroke-dasharray:none"/><path id="131" d="m 273.60035,514.35422 -10,5 c 1.6,-3.15 1.6,-6.85 0,-10 l 0,0 10,5 z" style="fill:#000;fill-opacity:1;fill-rule:evenodd;stroke:none"/><text style="font-size:20px;font-style:normal;font-variant:normal;font-weight:400;font-stretch:normal;text-align:start;line-height:102.99999714%;letter-spacing:0;word-spacing:0;writing-mode:lr-tb;text-anchor:start;fill:#000;fill-opacity:1;stroke:none;font-family:Arial;-inkscape-font-specification:Arial" id="text4028" x="162.149" y="885.458" xml:space="preserve"><tspan id="tspan4030" x="162.149" y="885.458" style="font-size:20px;font-style:normal;font-variant:normal;font-weight:400;font-stretch:normal;text-align:start;line-height:102.99999714%;writing-mode:lr-tb;text-anchor:start;font-family:Arial;-inkscape-font-specification:Arial">Traffic</tspan><tspan id="tspan4032" x="162.149" y="906.058" style="font-size:20px;font-style:normal;font-variant:normal;font-weight:400;font-stretch:normal;text-align:start;line-height:102.99999714%;writing-mode:lr-tb;text-anchor:start;font-family:Arial;-inkscape-font-specification:Arial">Generator</tspan></text><path id="4-6" d="m 774.8005,924.8645 123.45,0 0,-482.96601 -123.45,0 0,482.96601 z" style="fill:none;stroke:#000;stroke-width:2.12513781;stroke-linecap:round;stroke-linejoin:round;stroke-miterlimit:4;stroke-opacity:1;stroke-dasharray:none"/><text style="font-size:20px;font-style:normal;font-variant:normal;font-weight:400;font-stretch:normal;text-align:start;line-height:102.99999714%;letter-spacing:0;word-spacing:0;writing-mode:lr-tb;text-anchor:start;fill:#000;fill-opacity:1;stroke:none;font-family:Arial;-inkscape-font-specification:Arial" id="text4028-8" x="796.444" y="888.052" xml:space="preserve"><tspan id="tspan4030-2" x="796.444" y="888.052" style="font-size:20px;font-style:normal;font-variant:normal;font-weight:400;font-stretch:normal;text-align:start;line-height:102.99999714%;writing-mode:lr-tb;text-anchor:start;font-family:Arial;-inkscape-font-specification:Arial">NUT</tspan><tspan id="tspan4032-0" x="796.444" y="908.652" style="font-size:20px;font-style:normal;font-variant:normal;font-weight:400;font-stretch:normal;text-align:start;line-height:102.99999714%;writing-mode:lr-tb;text-anchor:start;font-family:Arial;-inkscape-font-specification:Arial">(RTE)</tspan></text><path id="130-3" d="m 264.42725,533.68597 508.66341,0" style="fill:none;stroke:#000;stroke-width:2.08607888px;stroke-linecap:round;stroke-linejoin:round;stroke-opacity:1;stroke-dasharray:none"/><path id="131-2" d="m 519.81423,513.99534 -10,5 c 1.6,-3.15 1.6,-6.85 0,-10 l 0,0 10,5 z" style="fill:#000;fill-opacity:1;fill-rule:evenodd;stroke:none"/><path id="131-7" d="m 775.11271,514.27808 -10,5 c 1.6,-3.15 1.6,-6.85 0,-10 l 0,0 10,5 z" style="fill:#000;fill-opacity:1;fill-rule:evenodd;stroke:none"/><rect style="fill:#fff;fill-opacity:1;stroke:none" id="rect4380" width="57.579" height="29.294" x="358.15" y="499.762" rx="23.942" ry="23.942"/><text style="font-size:16px;font-style:normal;font-variant:normal;font-weight:400;font-stretch:normal;text-align:start;line-height:102.99999714%;letter-spacing:0;word-spacing:0;writing-mode:lr-tb;text-anchor:start;fill:#000;fill-opacity:1;stroke:none;font-family:Arial;-inkscape-font-specification:Arial" id="text4028-9" x="362.219" y="519.86" xml:space="preserve"><tspan id="tspan4032-5" x="362.219" y="519.86" style="font-size:16px;font-style:normal;font-variant:normal;font-weight:400;font-stretch:normal;text-align:start;line-height:102.99999714%;writing-mode:lr-tb;text-anchor:start;fill:#000;fill-opacity:1;stroke:none;font-family:Arial;-inkscape-font-specification:Arial">Flow 0</tspan></text><path id="131-2-1" d="m 509.92292,533.82453 10,5 c -1.6,-3.15 -1.6,-6.85 0,-10 l 0,0 -10,5 z" style="fill:#000;fill-opacity:1;fill-rule:evenodd;stroke:none"/><path id="131-2-1-0" d="m 263.67299,533.64775 10,5 c -1.6,-3.15 -1.6,-6.85 0,-10 l 0,0 -10,5 z" style="fill:#000;fill-opacity:1;fill-rule:evenodd;stroke:none"/><path id="131-2-1-7" d="m 764.48137,533.82453 10,5 c -1.6,-3.15 -1.6,-6.85 0,-10 l 0,0 -10,5 z" style="fill:#000;fill-opacity:1;fill-rule:evenodd;stroke:none"/><path id="130-31" d="m 264.7107,569.61938 508.6634,0" style="fill:none;stroke:#000;stroke-width:2.08607888px;stroke-linecap:round;stroke-linejoin:round;stroke-opacity:1;stroke-dasharray:none"/><path id="131-1" d="m 272.93943,569.74182 -10,5 c 1.6,-3.15 1.6,-6.85 0,-10 l 0,0 10,5 z" style="fill:#000;fill-opacity:1;fill-rule:evenodd;stroke:none"/><path id="130-3-3" d="m 263.76633,589.07357 508.66337,0" style="fill:none;stroke:#000;stroke-width:2.08607888px;stroke-linecap:round;stroke-linejoin:round;stroke-opacity:1;stroke-dasharray:none"/><path id="131-2-5" d="m 519.1533,569.38294 -10,5 c 1.6,-3.15 1.6,-6.85 0,-10 l 0,0 10,5 z" style="fill:#000;fill-opacity:1;fill-rule:evenodd;stroke:none"/><path id="131-7-7" d="m 774.4518,569.66568 -10,5 c 1.6,-3.15 1.6,-6.85 0,-10 l 0,0 10,5 z" style="fill:#000;fill-opacity:1;fill-rule:evenodd;stroke:none"/><rect style="fill:#fff;fill-opacity:1;stroke:none" id="rect4380-6" width="57.579" height="29.294" x="357.489" y="555.15" rx="23.942" ry="23.942"/><text style="font-size:16px;font-style:normal;font-variant:normal;font-weight:400;font-stretch:normal;text-align:start;line-height:102.99999714%;letter-spacing:0;word-spacing:0;writing-mode:lr-tb;text-anchor:start;fill:#000;fill-opacity:1;stroke:none;font-family:Arial;-inkscape-font-specification:Arial" id="text4028-9-8" x="361.558" y="575.248" xml:space="preserve"><tspan id="tspan4032-5-5" x="361.558" y="575.248" style="font-size:16px;font-style:normal;font-variant:normal;font-weight:400;font-stretch:normal;text-align:start;line-height:102.99999714%;writing-mode:lr-tb;text-anchor:start;fill:#000;fill-opacity:1;stroke:none;font-family:Arial;-inkscape-font-specification:Arial">Flow 1</tspan></text><path id="131-2-1-8" d="m 509.262,589.21214 10,5 c -1.6,-3.15001 -1.6,-6.85001 0,-10 l 0,0 -10,5 z" style="fill:#000;fill-opacity:1;fill-rule:evenodd;stroke:none"/><path id="131-2-1-0-7" d="m 263.01207,589.03535 10,5 c -1.6,-3.15 -1.6,-6.85 0,-10 l 0,0 -10,5 z" style="fill:#000;fill-opacity:1;fill-rule:evenodd;stroke:none"/><path id="131-2-1-7-9" d="m 765.94172,588.50503 10,5 c -1.6,-3.15001 -1.6,-6.85001 0,-10 l 0,0 -10,5 z" style="fill:#000;fill-opacity:1;fill-rule:evenodd;stroke:none"/><path id="130-34" d="m 266.17109,647.92558 508.66341,0" style="fill:none;stroke:#000;stroke-width:2.08607888px;stroke-linecap:round;stroke-linejoin:round;stroke-opacity:1;stroke-dasharray:none"/><path id="131-9" d="m 274.39982,648.04802 -10,5 c 1.6,-3.15 1.6,-6.85 0,-10 l 0,0 10,5 z" style="fill:#000;fill-opacity:1;fill-rule:evenodd;stroke:none"/><path id="130-3-5" d="m 265.22672,667.37977 508.66338,0" style="fill:none;stroke:#000;stroke-width:2.08607888px;stroke-linecap:round;stroke-linejoin:round;stroke-opacity:1;stroke-dasharray:none"/><path id="131-2-11" d="m 520.6137,647.68914 -10,5 c 1.6,-3.15 1.6,-6.85 0,-10 l 0,0 10,5 z" style="fill:#000;fill-opacity:1;fill-rule:evenodd;stroke:none"/><path id="131-7-6" d="m 775.9122,647.97188 -10,5 c 1.6,-3.15 1.6,-6.85 0,-10 l 0,0 10,5 z" style="fill:#000;fill-opacity:1;fill-rule:evenodd;stroke:none"/><rect style="fill:#fff;fill-opacity:1;stroke:none" id="rect4380-8" width="57.579" height="29.294" x="358.949" y="633.456" rx="23.942" ry="23.942"/><text style="font-size:16px;font-style:normal;font-variant:normal;font-weight:400;font-stretch:normal;text-align:start;line-height:102.99999714%;letter-spacing:0;word-spacing:0;writing-mode:lr-tb;text-anchor:start;fill:#000;fill-opacity:1;stroke:none;font-family:Arial;-inkscape-font-specification:Arial" id="text4028-9-1" x="363.018" y="653.554" xml:space="preserve"><tspan id="tspan4032-5-1" x="363.018" y="653.554" style="font-size:16px;font-style:normal;font-variant:normal;font-weight:400;font-stretch:normal;text-align:start;line-height:102.99999714%;writing-mode:lr-tb;text-anchor:start;fill:#000;fill-opacity:1;stroke:none;font-family:Arial;-inkscape-font-specification:Arial">Flow 2</tspan></text><path id="131-2-1-2" d="m 510.7224,667.51834 10,5 c -1.6,-3.15001 -1.6,-6.85001 0,-10 l 0,0 -10,5 z" style="fill:#000;fill-opacity:1;fill-rule:evenodd;stroke:none"/><path id="131-2-1-0-9" d="m 264.47246,667.34155 10,5 c -1.6,-3.15 -1.6,-6.85 0,-10 l 0,0 -10,5 z" style="fill:#000;fill-opacity:1;fill-rule:evenodd;stroke:none"/><path id="131-2-1-7-96" d="m 765.2808,667.51834 10,5 c -1.6,-3.15001 -1.6,-6.85001 0,-10 l 0,0 -10,5 z" style="fill:#000;fill-opacity:1;fill-rule:evenodd;stroke:none"/><path id="130-31-4" d="m 265.51017,703.31318 508.66343,0" style="fill:none;stroke:#000;stroke-width:2.08607888px;stroke-linecap:round;stroke-linejoin:round;stroke-opacity:1;stroke-dasharray:none"/><path id="131-1-4" d="m 273.7389,703.43562 -10,5 c 1.6,-3.14999 1.6,-6.85 0,-10 l 0,0 10,5 z" style="fill:#000;fill-opacity:1;fill-rule:evenodd;stroke:none"/><path id="130-3-3-9" d="m 264.5658,722.76737 508.6634,0" style="fill:none;stroke:#000;stroke-width:2.08607888px;stroke-linecap:round;stroke-linejoin:round;stroke-opacity:1;stroke-dasharray:none"/><path id="131-2-5-9" d="m 519.9528,703.07674 -10,5 c 1.6,-3.14999 1.6,-6.85 0,-10 l 0,0 10,5 z" style="fill:#000;fill-opacity:1;fill-rule:evenodd;stroke:none"/><path id="131-7-7-2" d="m 775.2513,703.35948 -10,5 c 1.6,-3.15 1.6,-6.85 0,-10 l 0,0 10,5 z" style="fill:#000;fill-opacity:1;fill-rule:evenodd;stroke:none"/><rect style="fill:#fff;fill-opacity:1;stroke:none" id="rect4380-6-5" width="57.579" height="29.294" x="358.288" y="688.844" rx="23.942" ry="23.942"/><text style="font-size:16px;font-style:normal;font-variant:normal;font-weight:400;font-stretch:normal;text-align:start;line-height:102.99999714%;letter-spacing:0;word-spacing:0;writing-mode:lr-tb;text-anchor:start;fill:#000;fill-opacity:1;stroke:none;font-family:Arial;-inkscape-font-specification:Arial" id="text4028-9-8-2" x="362.357" y="708.942" xml:space="preserve"><tspan id="tspan4032-5-5-5" x="362.357" y="708.942" style="font-size:16px;font-style:normal;font-variant:normal;font-weight:400;font-stretch:normal;text-align:start;line-height:102.99999714%;writing-mode:lr-tb;text-anchor:start;fill:#000;fill-opacity:1;stroke:none;font-family:Arial;-inkscape-font-specification:Arial">Flow 3</tspan></text><path id="131-2-1-8-3" d="m 510.0615,722.90594 10,5 c -1.6,-3.15001 -1.6,-6.85001 0,-10 l 0,0 -10,5 z" style="fill:#000;fill-opacity:1;fill-rule:evenodd;stroke:none"/><path id="131-2-1-0-7-9" d="m 263.81154,722.72915 10,5 c -1.6,-3.15 -1.6,-6.85 0,-10 l 0,0 -10,5 z" style="fill:#000;fill-opacity:1;fill-rule:evenodd;stroke:none"/><path id="131-2-1-7-9-7" d="m 764.6199,722.90594 10,5 c -1.6,-3.15001 -1.6,-6.85001 0,-10 l 0,0 -10,5 z" style="fill:#000;fill-opacity:1;fill-rule:evenodd;stroke:none"/><path id="130-38" d="m 776.77917,533.43352 18.93346,0" style="fill:none;stroke:#000;stroke-width:1.95051968;stroke-linecap:round;stroke-linejoin:round;stroke-miterlimit:4;stroke-opacity:1;stroke-dasharray:3.90103936,3.90103936;stroke-dashoffset:0"/><path id="130-38-5" d="m 776.27809,570.08799 18.93346,0" style="fill:none;stroke:#000;stroke-width:1.95051968;stroke-linecap:round;stroke-linejoin:round;stroke-miterlimit:4;stroke-opacity:1;stroke-dasharray:3.90103936,3.90103936;stroke-dashoffset:0"/><path id="130-38-4" d="m 795.76128,534.45831 0,35.11152" style="fill:none;stroke:#000;stroke-width:2.03578472;stroke-linecap:round;stroke-linejoin:round;stroke-miterlimit:4;stroke-opacity:1;stroke-dasharray:4.07156944,4.07156944;stroke-dashoffset:0"/><path id="130-38-51" d="m 776.36881,667.40751 18.93347,0" style="fill:none;stroke:#000;stroke-width:1.95051968;stroke-linecap:round;stroke-linejoin:round;stroke-miterlimit:4;stroke-opacity:1;stroke-dasharray:3.90103936,3.90103936;stroke-dashoffset:0"/><path id="130-38-5-0" d="m 775.86773,704.06198 18.93347,0" style="fill:none;stroke:#000;stroke-width:1.95051968;stroke-linecap:round;stroke-linejoin:round;stroke-miterlimit:4;stroke-opacity:1;stroke-dasharray:3.90103936,3.90103936;stroke-dashoffset:0"/><path id="130-38-4-3" d="m 795.35093,668.4323 0,35.11152" style="fill:none;stroke:#000;stroke-width:2.03578472;stroke-linecap:round;stroke-linejoin:round;stroke-miterlimit:4;stroke-opacity:1;stroke-dasharray:4.07156944,4.07156944;stroke-dashoffset:0"/><path id="130-38-7" d="m 776.04259,515.37859 52.63775,0" style="fill:none;stroke:#000;stroke-width:2.03061938;stroke-linecap:round;stroke-linejoin:round;stroke-miterlimit:4;stroke-opacity:1;stroke-dasharray:4.06123936,4.06123936;stroke-dashoffset:0"/><path id="130-38-7-7" d="m 776.70517,587.76566 52.63774,0" style="fill:none;stroke:#000;stroke-width:2.03061938;stroke-linecap:round;stroke-linejoin:round;stroke-miterlimit:4;stroke-opacity:1;stroke-dasharray:4.06123936,4.06123936;stroke-dashoffset:0"/><path id="130-38-7-7-1" d="m 829.46781,518.11584 0,67.90517" style="fill:none;stroke:#000;stroke-width:2.03595257;stroke-linecap:round;stroke-linejoin:round;stroke-miterlimit:4;stroke-opacity:1;stroke-dasharray:4.07190574,4.07190574;stroke-dashoffset:0"/><path id="130-38-7-3" d="m 775.40198,648.44575 52.63775,0" style="fill:none;stroke:#000;stroke-width:2.03061938;stroke-linecap:round;stroke-linejoin:round;stroke-miterlimit:4;stroke-opacity:1;stroke-dasharray:4.06123936,4.06123936;stroke-dashoffset:0"/><path id="130-38-7-7-5" d="m 776.06456,720.83282 52.63774,0" style="fill:none;stroke:#000;stroke-width:2.03061938;stroke-linecap:round;stroke-linejoin:round;stroke-miterlimit:4;stroke-opacity:1;stroke-dasharray:4.06123936,4.06123936;stroke-dashoffset:0"/><path id="130-38-7-7-1-0" d="m 828.8272,651.183 0,67.90517" style="fill:none;stroke:#000;stroke-width:2.03595257;stroke-linecap:round;stroke-linejoin:round;stroke-miterlimit:4;stroke-opacity:1;stroke-dasharray:4.07190574,4.07190574;stroke-dashoffset:0"/><text style="font-size:16px;font-style:normal;font-variant:normal;font-weight:400;font-stretch:normal;text-align:start;line-height:102.99999714%;letter-spacing:0;word-spacing:0;writing-mode:lr-tb;text-anchor:start;fill:#000;fill-opacity:1;stroke:none;font-family:Arial;-inkscape-font-specification:Arial" id="text4028-9-14" x="249.259" y="517.757" xml:space="preserve"><tspan id="tspan4032-5-19" x="249.259" y="517.757" style="font-size:16px;font-style:normal;font-variant:normal;font-weight:400;font-stretch:normal;text-align:start;line-height:102.99999714%;writing-mode:lr-tb;text-anchor:start;fill:#000;fill-opacity:1;stroke:none;font-family:Arial;-inkscape-font-specification:Arial">0</tspan></text><text style="font-size:16px;font-style:normal;font-variant:normal;font-weight:400;font-stretch:normal;text-align:start;line-height:102.99999714%;letter-spacing:0;word-spacing:0;writing-mode:lr-tb;text-anchor:start;fill:#000;fill-opacity:1;stroke:none;font-family:Arial;-inkscape-font-specification:Arial" id="text4028-9-14-8" x="248.776" y="591.841" xml:space="preserve"><tspan id="tspan4032-5-19-8" x="248.776" y="591.841" style="font-size:16px;font-style:normal;font-variant:normal;font-weight:400;font-stretch:normal;text-align:start;line-height:102.99999714%;writing-mode:lr-tb;text-anchor:start;fill:#000;fill-opacity:1;stroke:none;font-family:Arial;-inkscape-font-specification:Arial">1</tspan></text><text style="font-size:16px;font-style:normal;font-variant:normal;font-weight:400;font-stretch:normal;text-align:start;line-height:102.99999714%;letter-spacing:0;word-spacing:0;writing-mode:lr-tb;text-anchor:start;fill:#000;fill-opacity:1;stroke:none;font-family:Arial;-inkscape-font-specification:Arial" id="text4028-9-14-1" x="249.806" y="651.658" xml:space="preserve"><tspan id="tspan4032-5-19-6" x="249.806" y="651.658" style="font-size:16px;font-style:normal;font-variant:normal;font-weight:400;font-stretch:normal;text-align:start;line-height:102.99999714%;writing-mode:lr-tb;text-anchor:start;fill:#000;fill-opacity:1;stroke:none;font-family:Arial;-inkscape-font-specification:Arial">2</tspan></text><text style="font-size:16px;font-style:normal;font-variant:normal;font-weight:400;font-stretch:normal;text-align:start;line-height:102.99999714%;letter-spacing:0;word-spacing:0;writing-mode:lr-tb;text-anchor:start;fill:#000;fill-opacity:1;stroke:none;font-family:Arial;-inkscape-font-specification:Arial" id="text4028-9-14-8-8" x="249.323" y="727.742" xml:space="preserve"><tspan id="tspan4032-5-19-8-6" x="249.323" y="727.742" style="font-size:16px;font-style:normal;font-variant:normal;font-weight:400;font-stretch:normal;text-align:start;line-height:102.99999714%;writing-mode:lr-tb;text-anchor:start;fill:#000;fill-opacity:1;stroke:none;font-family:Arial;-inkscape-font-specification:Arial">3</tspan></text><text style="font-size:16px;font-style:normal;font-variant:normal;font-weight:400;font-stretch:normal;text-align:start;line-height:102.99999714%;letter-spacing:0;word-spacing:0;writing-mode:lr-tb;text-anchor:start;fill:#000;fill-opacity:1;stroke:none;font-family:Arial;-inkscape-font-specification:Arial" id="text4028-9-14-9" x="843.304" y="519.688" xml:space="preserve"><tspan id="tspan4032-5-19-0" x="843.304" y="519.688" style="font-size:16px;font-style:normal;font-variant:normal;font-weight:400;font-stretch:normal;text-align:start;line-height:102.99999714%;writing-mode:lr-tb;text-anchor:start;fill:#000;fill-opacity:1;stroke:none;font-family:Arial;-inkscape-font-specification:Arial">0</tspan></text><text style="font-size:16px;font-style:normal;font-variant:normal;font-weight:400;font-stretch:normal;text-align:start;line-height:102.99999714%;letter-spacing:0;word-spacing:0;writing-mode:lr-tb;text-anchor:start;fill:#000;fill-opacity:1;stroke:none;font-family:Arial;-inkscape-font-specification:Arial" id="text4028-9-14-8-3" x="842.822" y="589.773" xml:space="preserve"><tspan id="tspan4032-5-19-8-8" x="842.822" y="589.773" style="font-size:16px;font-style:normal;font-variant:normal;font-weight:400;font-stretch:normal;text-align:start;line-height:102.99999714%;writing-mode:lr-tb;text-anchor:start;fill:#000;fill-opacity:1;stroke:none;font-family:Arial;-inkscape-font-specification:Arial">1</tspan></text><text style="font-size:16px;font-style:normal;font-variant:normal;font-weight:400;font-stretch:normal;text-align:start;line-height:102.99999714%;letter-spacing:0;word-spacing:0;writing-mode:lr-tb;text-anchor:start;fill:#000;fill-opacity:1;stroke:none;font-family:Arial;-inkscape-font-specification:Arial" id="text4028-9-14-1-2" x="843.851" y="671.589" xml:space="preserve"><tspan id="tspan4032-5-19-6-8" x="843.851" y="671.589" style="font-size:16px;font-style:normal;font-variant:normal;font-weight:400;font-stretch:normal;text-align:start;line-height:102.99999714%;writing-mode:lr-tb;text-anchor:start;fill:#000;fill-opacity:1;stroke:none;font-family:Arial;-inkscape-font-specification:Arial">2</tspan></text><text style="font-size:16px;font-style:normal;font-variant:normal;font-weight:400;font-stretch:normal;text-align:start;line-height:102.99999714%;letter-spacing:0;word-spacing:0;writing-mode:lr-tb;text-anchor:start;fill:#000;fill-opacity:1;stroke:none;font-family:Arial;-inkscape-font-specification:Arial" id="text4028-9-14-8-8-6" x="843.368" y="725.673" xml:space="preserve"><tspan id="tspan4032-5-19-8-6-3" x="843.368" y="725.673" style="font-size:16px;font-style:normal;font-variant:normal;font-weight:400;font-stretch:normal;text-align:start;line-height:102.99999714%;writing-mode:lr-tb;text-anchor:start;fill:#000;fill-opacity:1;stroke:none;font-family:Arial;-inkscape-font-specification:Arial">3</tspan></text><text style="font-size:16px;font-style:normal;font-variant:normal;font-weight:400;font-stretch:normal;text-align:start;line-height:102.99999714%;letter-spacing:0;word-spacing:0;writing-mode:lr-tb;text-anchor:start;fill:#000;fill-opacity:1;stroke:none;font-family:Arial;-inkscape-font-specification:Arial" id="text4028-1" x="514.69" y="789.704" xml:space="preserve"><tspan id="tspan4032-3" x="514.69" y="789.704" style="font-size:16px;font-style:normal;font-variant:normal;font-weight:400;font-stretch:normal;text-align:start;line-height:102.99999714%;writing-mode:lr-tb;text-anchor:start;font-family:Arial;-inkscape-font-specification:Arial">...</tspan></text></g></svg>