<svg xmlns="http://www.w3.org/2000/svg" xmlns:osb="http://www.openswatchbook.org/uri/2009/osb" xmlns:svg="http://www.w3.org/2000/svg" id="svg3917" width="554.462" height="443.633" version="1.1" viewBox="0 0 554.462 443.633"><defs id="defs3919"><marker style="overflow:visible" id="marker8020" orient="auto" refX="0" refY="0"><path style="fill:#000;fill-opacity:1;fill-rule:evenodd;stroke:#000;stroke-width:1pt;stroke-opacity:1" id="path8022" d="M 0,0 5,-5 -12.5,0 5,5 0,0 Z" transform="matrix(-0.8,0,0,-0.8,-10,0)"/></marker><marker style="overflow:visible" id="marker7177" orient="auto" refX="0" refY="0"><path style="fill:#000;fill-opacity:1;fill-rule:evenodd;stroke:#000;stroke-width:1pt;stroke-opacity:1" id="path7179" d="M 0,0 5,-5 -12.5,0 5,5 0,0 Z" transform="matrix(-0.8,0,0,-0.8,-10,0)"/></marker><marker style="overflow:visible" id="marker6025" orient="auto" refX="0" refY="0"><path style="fill:#000;fill-opacity:1;fill-rule:evenodd;stroke:#000;stroke-width:1pt;stroke-opacity:1" id="path6027" d="M 0,0 5,-5 -12.5,0 5,5 0,0 Z" transform="matrix(-0.8,0,0,-0.8,-10,0)"/></marker><marker id="Arrow1Lend" orient="auto" refX="0" refY="0" style="overflow:visible"><path id="path5351" d="M 0,0 5,-5 -12.5,0 5,5 0,0 Z" transform="matrix(-0.8,0,0,-0.8,-10,0)" style="fill:#000;fill-opacity:1;fill-rule:evenodd;stroke:#000;stroke-width:1pt;stroke-opacity:1"/></marker><marker id="Arrow1Lstart" orient="auto" refX="0" refY="0" style="overflow:visible"><path id="path5348" d="M 0,0 5,-5 -12.5,0 5,5 0,0 Z" transform="matrix(0.8,0,0,0.8,10,0)" style="fill:#000;fill-opacity:1;fill-rule:evenodd;stroke:#000;stroke-width:1pt;stroke-opacity:1"/></marker><linearGradient id="linearGradient4729" osb:paint="solid"><stop style="stop-color:#000;stop-opacity:1" id="stop4731" offset="0"/></linearGradient><marker id="Arrow1Lend-5" orient="auto" refX="0" refY="0" style="overflow:visible"><path id="path5351-3" d="M 0,0 5,-5 -12.5,0 5,5 0,0 Z" transform="matrix(-0.8,0,0,-0.8,-10,0)" style="fill:#000;fill-opacity:1;fill-rule:evenodd;stroke:#000;stroke-width:1pt;stroke-opacity:1"/></marker><marker id="Arrow1Lend-6" orient="auto" refX="0" refY="0" style="overflow:visible"><path id="path5351-2" d="M 0,0 5,-5 -12.5,0 5,5 0,0 Z" transform="matrix(-0.8,0,0,-0.8,-10,0)" style="fill:#000;fill-opacity:1;fill-rule:evenodd;stroke:#000;stroke-width:1pt;stroke-opacity:1"/></marker><marker id="Arrow1Lend-6-1" orient="auto" refX="0" refY="0" style="overflow:visible"><path id="path5351-2-2" d="M 0,0 5,-5 -12.5,0 5,5 0,0 Z" transform="matrix(-0.8,0,0,-0.8,-10,0)" style="fill:#000;fill-opacity:1;fill-rule:evenodd;stroke:#000;stroke-width:1pt;stroke-opacity:1"/></marker></defs><metadata id="metadata3922"/><g id="layer1" transform="translate(-0.56091356,-0.34416246)"><rect style="fill:none;fill-opacity:1;stroke:#000;stroke-width:2.10537624;stroke-opacity:1" id="rect4727" width="542.357" height="431.527" x="6.614" y="6.397"/><text style="font-style:normal;font-weight:400;font-size:30.53249741px;line-height:125%;font-family:sans-serif;letter-spacing:0;word-spacing:0;fill:#000;fill-opacity:1;stroke:none;stroke-width:1px;stroke-linecap:butt;stroke-linejoin:miter;stroke-opacity:1" id="text4735" x="237.305" y="33.253" xml:space="preserve"><tspan id="tspan4737" x="237.305" y="33.253">Host</tspan></text><rect style="fill:none;fill-opacity:1;stroke:#000;stroke-opacity:1" id="rect4739" width="207.081" height="202.031" x="38.386" y="45.24"/><rect style="fill:none;fill-opacity:1;stroke:#000;stroke-opacity:1" id="rect4739-3" width="207.081" height="202.031" x="301.531" y="44.23"/><text style="font-style:normal;font-weight:400;font-size:19.96650314px;line-height:125%;font-family:sans-serif;letter-spacing:0;word-spacing:0;fill:#000;fill-opacity:1;stroke:none;stroke-width:1px;stroke-linecap:butt;stroke-linejoin:miter;stroke-opacity:1" id="text4756" x="101.13" y="63.707" xml:space="preserve"><tspan id="tspan4758" x="101.13" y="63.707">Guest1</tspan></text><text style="font-style:normal;font-weight:400;font-size:19.96650314px;line-height:125%;font-family:sans-serif;letter-spacing:0;word-spacing:0;fill:#000;fill-opacity:1;stroke:none;stroke-width:1px;stroke-linecap:butt;stroke-linejoin:miter;stroke-opacity:1" id="text4756-6" x="369.735" y="63.62" xml:space="preserve"><tspan id="tspan4758-7" x="369.735" y="63.62">Guest2</tspan></text><rect style="fill:none;fill-opacity:1;stroke:#000;stroke-width:1;stroke-miterlimit:4;stroke-dasharray:none;stroke-dashoffset:0;stroke-opacity:1" id="rect5336" width="477.802" height="85.863" x="39.396" y="316.971"/><text style="font-style:normal;font-weight:400;font-size:23.81648636px;line-height:125%;font-family:sans-serif;letter-spacing:0;word-spacing:0;fill:#000;fill-opacity:1;stroke:none;stroke-width:1px;stroke-linecap:butt;stroke-linejoin:miter;stroke-opacity:1" id="text5338" x="237.964" y="398.794" xml:space="preserve"><tspan id="tspan5340" x="237.964" y="398.794">L2FWD</tspan></text><path style="fill:none;fill-rule:evenodd;stroke:#000;stroke-width:.9760201px;stroke-linecap:butt;stroke-linejoin:miter;stroke-opacity:1;marker-end:url(#Arrow1Lend)" id="path5342" d="m 120.20815,247.27063 0,68.32236"/><path style="fill:none;fill-rule:evenodd;stroke:#000;stroke-width:.9760201px;stroke-linecap:butt;stroke-linejoin:miter;stroke-opacity:1;marker-end:url(#Arrow1Lend-5)" id="path5342-5" d="m 382.84782,246.56645 0,68.32236"/><path style="fill:none;fill-rule:evenodd;stroke:#000;stroke-width:.9760201px;stroke-linecap:butt;stroke-linejoin:miter;stroke-opacity:1;marker-end:url(#Arrow1Lend-6)" id="path5342-9" d="m 162.63455,316.66519 0,-68.32236"/><path style="fill:none;fill-rule:evenodd;stroke:#000;stroke-width:.9760201px;stroke-linecap:butt;stroke-linejoin:miter;stroke-opacity:1;marker-end:url(#Arrow1Lend-6-1)" id="path5342-9-7" d="m 423.25391,315.65504 0,-68.32236"/><path style="fill:none;fill-rule:evenodd;stroke:#000;stroke-width:1.60951841;stroke-linecap:butt;stroke-linejoin:miter;stroke-miterlimit:4;stroke-dasharray:4.82855511,1.60951837;stroke-dashoffset:0;stroke-opacity:1" id="path10412" d="m 119.48645,319.66266 0,47.47156 303.479,0 0,-51.26929"/><path style="fill:none;fill-rule:evenodd;stroke:#000;stroke-width:1.1137104;stroke-linecap:butt;stroke-linejoin:miter;stroke-miterlimit:4;stroke-dasharray:3.3411313,1.11371043;stroke-dashoffset:0;stroke-opacity:1" id="path10412-0" d="m 162.67537,318.28501 0,31.19206 221.14177,0 0,-33.68743"/></g></svg>