<svg xmlns="http://www.w3.org/2000/svg" xmlns:svg="http://www.w3.org/2000/svg" xmlns:xlink="http://www.w3.org/1999/xlink" id="svg2" width="711.992" height="442.253" class="st29" version="1.1" viewBox="0 0 533.994 331.69" xml:space="preserve" style="font-size:12px;overflow:visible;color-interpolation-filters:sRGB;fill:none;fill-rule:evenodd;stroke-linecap:square;stroke-miterlimit:3"><metadata id="metadata498"/><style id="style4" type="text/css">.st1{visibility:visible}.st2,.st3{stroke-linecap:round;stroke-linejoin:round}.st2{fill:#b2b2b2;fill-opacity:.5;stroke:#b2b2b2;stroke-opacity:.5}.st3{fill:#d8d8d8;fill-opacity:.7;stroke:#404040;stroke-width:.25}.st4{fill:#000;font-family:Calibri;font-size:1.16666em}.st5,.st6{stroke-linecap:round;stroke-linejoin:round}.st5{fill:#cdcdcd;fill-opacity:.5;stroke:#cdcdcd;stroke-opacity:.5}.st6{fill:#6b9bc7;stroke:#404040;stroke-width:.25}.st7{fill:#000;font-family:Calibri;font-size:.833336em}.st8{fill:#f6d5b9;stroke:#404040;stroke-linecap:round;stroke-linejoin:round;stroke-width:.25}.st9{fill:#000;font-family:Calibri;font-size:.75em}.st10{fill:url(#grad0-21);stroke:#404040;stroke-linecap:round;stroke-linejoin:round;stroke-width:.25}.st11{fill:#000;font-family:Calibri;font-size:1.00001em}.st12{fill-opacity:.8}.st12,.st13,.st14{fill:#00b0f0;stroke:#404040;stroke-linecap:round;stroke-linejoin:round;stroke-width:.25}.st14{fill:#7030a0;fill-opacity:.6}.st15{fill:url(#grad0-121)}.st16{stroke:#0070c0;stroke-linecap:round;stroke-linejoin:round;stroke-width:1}.st17{fill:url(#grad0-128)}.st18{stroke:#d26d19;stroke-linecap:round;stroke-linejoin:round;stroke-width:1}.st19,.st20,.st21,.st22,.st23,.st24,.st25{stroke-linecap:round;stroke-linejoin:round;stroke-width:1.5}.st19{stroke:#cdcdcd;stroke-opacity:.5}.st20{stroke:#d26d19}.st21{stroke:#0070c0}.st22{stroke:#7030a0}.st23{stroke:#43365a}.st24{stroke:#404040}.st25{stroke:#000}.st26{fill:url(#grad0-236)}.st27,.st28{stroke:#7030a0;stroke-linecap:round;stroke-linejoin:round;stroke-width:1}.st28{fill:#8fa350;stroke:#404040;stroke-width:.5}.st29{fill:none;fill-rule:evenodd;font-size:12px;overflow:visible;stroke-linecap:square;stroke-miterlimit:3}</style><defs id="Patterns_And_Gradients"><linearGradient id="grad0-21" x1="-.138" x2="175.841" y1="655.712" y2="655.712" gradientTransform="scale(1.0499298,0.95244464)" gradientUnits="userSpaceOnUse"><stop id="stop8" offset="0" stop-color="#f0f0f0" stop-opacity="1"/><stop id="stop10" offset="1" stop-color="#fff" stop-opacity="1"/></linearGradient><linearGradient id="grad0-121" x1="-.159" x2="31.958" y1="5138" y2="5138" gradientTransform="scale(6.5279263,0.15318801)" gradientUnits="userSpaceOnUse"><stop id="stop13" offset="0" stop-color="#f0f0f0" stop-opacity="1"/><stop id="stop15" offset="1" stop-color="#0070c0" stop-opacity="1"/></linearGradient><linearGradient id="grad0-128" x1="0" x2="1" y1="0" y2="0" gradientTransform="matrix(0,-1,1,0,0,1)"><stop id="stop18" offset="0" stop-color="#f0f0f0" stop-opacity="1"/><stop id="stop20" offset="1" stop-color="#d26d19" stop-opacity="1"/></linearGradient><linearGradient id="grad0-236" x1="-.192" x2="31.12" y1="4918.648" y2="4918.648" gradientTransform="scale(6.2499501,0.16000128)" gradientUnits="userSpaceOnUse"><stop id="stop23" offset="0" stop-color="#f0f0f0" stop-opacity="1"/><stop id="stop25" offset="1" stop-color="#7030a0" stop-opacity="1"/></linearGradient><linearGradient id="linearGradient4626" x1="0" x2="38.21" y1="6087.793" y2="6087.793" gradientTransform="scale(7.734852,0.12928496)" gradientUnits="userSpaceOnUse" xlink:href="#grad0-128"/><linearGradient id="linearGradient4628" x1="0" x2="34.992" y1="6380.262" y2="6380.262" gradientTransform="scale(8.1000686,0.12345574)" gradientUnits="userSpaceOnUse" xlink:href="#grad0-128"/></defs><g id="g27" transform="translate(-33.625,-174.25)"><title id="title29">Page-1</title><g id="shape3-1" transform="translate(85.5,-493.875)"><title id="title32">Rounded rectangle</title><desc id="desc34">Host</desc><g style="visibility:visible" id="shadow3-2" class="st1" transform="translate(1.44,1.44)"><path style="fill:#b2b2b2;fill-opacity:.5;stroke:#b2b2b2;stroke-linecap:round;stroke-linejoin:round;stroke-opacity:.5" id="path37" d="m 92.08,792 a 9.00007,9.00007 -180 0 0 9,-9 l 0,-105.75 a 9.00007,9.00007 -180 0 0 -9,-9 l -83.08,0 a 9.00007,9.00007 -180 0 0 -9,9 L 0,783 a 9.00007,9.00007 -180 0 0 9,9 l 83.08,0 z" class="st2"/></g><path style="fill:#d8d8d8;fill-opacity:.7;stroke:#404040;stroke-width:.25;stroke-linecap:round;stroke-linejoin:round" id="path39" d="m 92.08,792 a 9.00007,9.00007 -180 0 0 9,-9 l 0,-105.75 a 9.00007,9.00007 -180 0 0 -9,-9 l -83.08,0 a 9.00007,9.00007 -180 0 0 -9,9 L 0,783 a 9.00007,9.00007 -180 0 0 9,9 l 83.08,0 z" class="st3"/><text style="font-size:13.99991989px;font-family:Calibri;fill:#000" id="text41" x="37.4" y="784.72" class="st4">Host</text></g><g id="shape10-6" transform="translate(33.75,-569.7)"><title id="title44">Rounded rectangle.10</title><desc id="desc46">VM</desc><g style="visibility:visible" id="shadow10-7" class="st1" transform="translate(1.44,1.44)"><path style="fill:#cdcdcd;fill-opacity:.5;stroke:#cdcdcd;stroke-linecap:round;stroke-linejoin:round;stroke-opacity:.5" id="path49" d="m 29.92,792 a 9.00007,9.00007 -180 0 0 9,-9 l 0,-6.3 a 9.00007,9.00007 -180 0 0 -9,-9 L 9,767.7 a 9.00007,9.00007 -180 0 0 -9,9 l 0,6.3 a 9.00007,9.00007 -180 0 0 9,9 l 20.92,0 z" class="st5"/></g><path style="fill:#6b9bc7;stroke:#404040;stroke-width:.25;stroke-linecap:round;stroke-linejoin:round" id="path51" d="m 29.92,792 a 9.00007,9.00007 -180 0 0 9,-9 l 0,-6.3 a 9.00007,9.00007 -180 0 0 -9,-9 L 9,767.7 a 9.00007,9.00007 -180 0 0 -9,9 l 0,6.3 a 9.00007,9.00007 -180 0 0 9,9 l 20.92,0 z" class="st6"/><text style="font-size:10.00003242px;font-family:Calibri;fill:#000" id="text53" x="12.35" y="782.85" class="st7">VM</text></g><g id="shape11-11" transform="translate(93.171,-566.775)"><title id="title56">Rounded rectangle.11</title><desc id="desc58">VNID 100</desc><g style="visibility:visible" id="shadow11-12" class="st1" transform="translate(1.44,1.44)"><path style="fill:#cdcdcd;fill-opacity:.5;stroke:#cdcdcd;stroke-linecap:round;stroke-linejoin:round;stroke-opacity:.5" id="path61" d="m 47.23,792 a 8.10006,8.10006 -180 0 0 8.1,-8.1 8.10006,8.10006 -180 0 0 -8.1,-8.1 l -39.13,0 A 8.10006,8.10006 -180 0 0 0,783.9 8.10006,8.10006 -180 0 0 8.1,792 l 39.13,0 z" class="st5"/></g><path style="fill:#f6d5b9;stroke:#404040;stroke-width:.25;stroke-linecap:round;stroke-linejoin:round" id="path63" d="m 47.23,792 a 8.10006,8.10006 -180 0 0 8.1,-8.1 8.10006,8.10006 -180 0 0 -8.1,-8.1 l -39.13,0 A 8.10006,8.10006 -180 0 0 0,783.9 8.10006,8.10006 -180 0 0 8.1,792 l 39.13,0 z" class="st8"/><text style="font-size:9px;font-family:Calibri;fill:#000" id="text65" x="10.44" y="786.6" class="st9">VNID 100</text></g><g id="shape14-16" transform="translate(204.576,-381.375)"><title id="title68">Object</title><desc id="desc70">IP Network</desc><g style="visibility:visible" id="shadow14-17" class="st1" transform="translate(1.44,1.44)"><path style="fill:#cdcdcd;fill-opacity:.5;stroke:#cdcdcd;stroke-linecap:round;stroke-linejoin:round;stroke-opacity:.5" id="path73" d="m 26.52,755.72 a 21.2239,24.0427 -180 0 0 30.57,20.35 29.3964,33.3006 -180 0 0 53.17,-7.53 8.89171,10.0726 -180 0 0 9.59,10.87 33.8326,38.3261 -180 0 0 32.49,-15.89 21.0233,23.8155 -180 0 0 22.9,-15.06 36.2371,30.7434 -123.25 0 0 -13.86,-32.32 124.285,106.223 -59.84 0 0 23.08,-31.84 46.9314,46.8568 -180 0 0 -24.31,-42.9 28.0325,27.988 -180 0 0 -53.62,13.39 24.2803,21.6216 -26.25 0 0 -40.25,1.24 34.8986,32.2655 -147.51 0 0 -43.54,45.6 27.2819,27.2385 -180 0 0 3.78,54.09 z" class="st5"/></g><path style="fill:url(#grad0-21);stroke:#404040;stroke-width:.25;stroke-linecap:round;stroke-linejoin:round" id="path75" d="m 26.52,755.72 a 21.2239,24.0427 -180 0 0 30.57,20.35 29.3964,33.3006 -180 0 0 53.17,-7.53 8.89171,10.0726 -180 0 0 9.59,10.87 33.8326,38.3261 -180 0 0 32.49,-15.89 21.0233,23.8155 -180 0 0 22.9,-15.06 36.2371,30.7434 -123.25 0 0 -13.86,-32.32 124.285,106.223 -59.84 0 0 23.08,-31.84 46.9314,46.8568 -180 0 0 -24.31,-42.9 28.0325,27.988 -180 0 0 -53.62,13.39 24.2803,21.6216 -26.25 0 0 -40.25,1.24 34.8986,32.2655 -147.51 0 0 -43.54,45.6 27.2819,27.2385 -180 0 0 3.78,54.09 z" class="st10"/><text style="font-size:12.00012016px;font-family:Calibri;fill:#000" id="text77" x="65.14" y="711.93" class="st11">IP Network</text></g><g id="shape1-23" transform="translate(33.75,-521.1)"><title id="title80">Rounded rectangle.1</title><desc id="desc82">VM</desc><g style="visibility:visible" id="shadow1-24" class="st1" transform="translate(1.44,1.44)"><path style="fill:#cdcdcd;fill-opacity:.5;stroke:#cdcdcd;stroke-linecap:round;stroke-linejoin:round;stroke-opacity:.5" id="path85" d="m 29.92,792 a 9.00007,9.00007 -180 0 0 9,-9 l 0,-6.3 a 9.00007,9.00007 -180 0 0 -9,-9 L 9,767.7 a 9.00007,9.00007 -180 0 0 -9,9 l 0,6.3 a 9.00007,9.00007 -180 0 0 9,9 l 20.92,0 z" class="st5"/></g><path style="fill:#6b9bc7;stroke:#404040;stroke-width:.25;stroke-linecap:round;stroke-linejoin:round" id="path87" d="m 29.92,792 a 9.00007,9.00007 -180 0 0 9,-9 l 0,-6.3 a 9.00007,9.00007 -180 0 0 -9,-9 L 9,767.7 a 9.00007,9.00007 -180 0 0 -9,9 l 0,6.3 a 9.00007,9.00007 -180 0 0 9,9 l 20.92,0 z" class="st6"/><text style="font-size:10.00003242px;font-family:Calibri;fill:#000" id="text89" x="12.35" y="782.85" class="st7">VM</text></g><g id="shape22-28" transform="translate(93.171,-530.325)"><title id="title92">Rounded rectangle.22</title><desc id="desc94">VNID 101</desc><g style="visibility:visible" id="shadow22-29" class="st1" transform="translate(1.44,1.44)"><path style="fill:#cdcdcd;fill-opacity:.5;stroke:#cdcdcd;stroke-linecap:round;stroke-linejoin:round;stroke-opacity:.5" id="path97" d="m 47.23,792 a 8.10006,8.10006 -180 0 0 8.1,-8.1 8.10006,8.10006 -180 0 0 -8.1,-8.1 l -39.13,0 A 8.10006,8.10006 -180 0 0 0,783.9 8.10006,8.10006 -180 0 0 8.1,792 l 39.13,0 z" class="st5"/></g><path style="fill:#00b0f0;fill-opacity:.8;stroke:#404040;stroke-width:.25;stroke-linecap:round;stroke-linejoin:round" id="path99" d="m 47.23,792 a 8.10006,8.10006 -180 0 0 8.1,-8.1 8.10006,8.10006 -180 0 0 -8.1,-8.1 l -39.13,0 A 8.10006,8.10006 -180 0 0 0,783.9 8.10006,8.10006 -180 0 0 8.1,792 l 39.13,0 z" class="st12"/><text style="font-size:9px;font-family:Calibri;fill:#000" id="text101" x="10.44" y="786.6" class="st9">VNID 101</text></g><g id="shape23-33" transform="translate(85.5,-288)"><title id="title104">Rounded rectangle.23</title><desc id="desc106">Host</desc><g style="visibility:visible" id="shadow23-34" class="st1" transform="translate(1.44,1.44)"><path style="fill:#b2b2b2;fill-opacity:.5;stroke:#b2b2b2;stroke-linecap:round;stroke-linejoin:round;stroke-opacity:.5" id="path109" d="m 94.5,792 a 9.00007,9.00007 -180 0 0 9,-9 l 0,-99 a 9.00007,9.00007 -180 0 0 -9,-9 L 9,675 a 9.00007,9.00007 -180 0 0 -9,9 l 0,99 a 9.00007,9.00007 -180 0 0 9,9 l 85.5,0 z" class="st2"/></g><path style="fill:#d8d8d8;fill-opacity:.7;stroke:#404040;stroke-width:.25;stroke-linecap:round;stroke-linejoin:round" id="path111" d="m 94.5,792 a 9.00007,9.00007 -180 0 0 9,-9 l 0,-99 a 9.00007,9.00007 -180 0 0 -9,-9 L 9,675 a 9.00007,9.00007 -180 0 0 -9,9 l 0,99 a 9.00007,9.00007 -180 0 0 9,9 l 85.5,0 z" class="st3"/><text style="font-size:13.99991989px;font-family:Calibri;fill:#000" id="text113" x="38.61" y="788.1" class="st4">Host</text></g><g id="shape24-38" transform="translate(33.75,-362.1)"><title id="title116">Rounded rectangle.24</title><desc id="desc118">VM</desc><g style="visibility:visible" id="shadow24-39" class="st1" transform="translate(1.44,1.44)"><path style="fill:#cdcdcd;fill-opacity:.5;stroke:#cdcdcd;stroke-linecap:round;stroke-linejoin:round;stroke-opacity:.5" id="path121" d="m 31.5,792 a 9.00007,9.00007 -180 0 0 9,-9 l 0,-5.4 a 9.00007,9.00007 -180 0 0 -9,-9 l -22.5,0 a 9.00007,9.00007 -180 0 0 -9,9 l 0,5.4 a 9.00007,9.00007 -180 0 0 9,9 l 22.5,0 z" class="st5"/></g><path style="fill:#6b9bc7;stroke:#404040;stroke-width:.25;stroke-linecap:round;stroke-linejoin:round" id="path123" d="m 31.5,792 a 9.00007,9.00007 -180 0 0 9,-9 l 0,-5.4 a 9.00007,9.00007 -180 0 0 -9,-9 l -22.5,0 a 9.00007,9.00007 -180 0 0 -9,9 l 0,5.4 a 9.00007,9.00007 -180 0 0 9,9 l 22.5,0 z" class="st6"/><text style="font-size:10.00003242px;font-family:Calibri;fill:#000" id="text125" x="13.14" y="783.3" class="st7">VM</text></g><g id="shape25-43" transform="translate(95.4166,-358.2)"><title id="title128">Rounded rectangle.25</title><desc id="desc130">VNID 100</desc><g style="visibility:visible" id="shadow25-44" class="st1" transform="translate(1.44,1.44)"><path style="fill:#cdcdcd;fill-opacity:.5;stroke:#cdcdcd;stroke-linecap:round;stroke-linejoin:round;stroke-opacity:.5" id="path133" d="m 49.78,792 a 7.80006,7.80006 -180 0 0 7.8,-7.8 7.80006,7.80006 -180 0 0 -7.8,-7.8 l -41.98,0 A 7.80006,7.80006 -180 0 0 0,784.2 7.80006,7.80006 -180 0 0 7.8,792 l 41.98,0 z" class="st5"/></g><path style="fill:#f6d5b9;stroke:#404040;stroke-width:.25;stroke-linecap:round;stroke-linejoin:round" id="path135" d="m 49.78,792 a 7.80006,7.80006 -180 0 0 7.8,-7.8 7.80006,7.80006 -180 0 0 -7.8,-7.8 l -41.98,0 A 7.80006,7.80006 -180 0 0 0,784.2 7.80006,7.80006 -180 0 0 7.8,792 l 41.98,0 z" class="st8"/><text style="font-size:9px;font-family:Calibri;fill:#000" id="text137" x="11.57" y="786.9" class="st9">VNID 100</text></g><g id="shape31-48" transform="translate(33.75,-315.3)"><title id="title140">Rounded rectangle.31</title><desc id="desc142">VM</desc><g style="visibility:visible" id="shadow31-49" class="st1" transform="translate(1.44,1.44)"><path style="fill:#cdcdcd;fill-opacity:.5;stroke:#cdcdcd;stroke-linecap:round;stroke-linejoin:round;stroke-opacity:.5" id="path145" d="m 32.35,792 a 9.00007,9.00007 -180 0 0 9,-9 l 0,-5.4 a 9.00007,9.00007 -180 0 0 -9,-9 L 9,768.6 a 9.00007,9.00007 -180 0 0 -9,9 l 0,5.4 a 9.00007,9.00007 -180 0 0 9,9 l 23.35,0 z" class="st5"/></g><path style="fill:#6b9bc7;stroke:#404040;stroke-width:.25;stroke-linecap:round;stroke-linejoin:round" id="path147" d="m 32.35,792 a 9.00007,9.00007 -180 0 0 9,-9 l 0,-5.4 a 9.00007,9.00007 -180 0 0 -9,-9 L 9,768.6 a 9.00007,9.00007 -180 0 0 -9,9 l 0,5.4 a 9.00007,9.00007 -180 0 0 9,9 l 23.35,0 z" class="st6"/><text style="font-size:10.00003242px;font-family:Calibri;fill:#000" id="text149" x="13.56" y="783.3" class="st7">VM</text></g><g id="shape32-53" transform="translate(95.4166,-323.1)"><title id="title152">Rounded rectangle.32</title><desc id="desc154">VNID 101</desc><g style="visibility:visible" id="shadow32-54" class="st1" transform="translate(1.44,1.44)"><path style="fill:#cdcdcd;fill-opacity:.5;stroke:#cdcdcd;stroke-linecap:round;stroke-linejoin:round;stroke-opacity:.5" id="path157" d="m 49.78,792 a 7.80006,7.80006 -180 0 0 7.8,-7.8 7.80006,7.80006 -180 0 0 -7.8,-7.8 l -41.98,0 A 7.80006,7.80006 -180 0 0 0,784.2 7.80006,7.80006 -180 0 0 7.8,792 l 41.98,0 z" class="st5"/></g><path style="fill:#00b0f0;stroke:#404040;stroke-width:.25;stroke-linecap:round;stroke-linejoin:round" id="path159" d="m 49.78,792 a 7.80006,7.80006 -180 0 0 7.8,-7.8 7.80006,7.80006 -180 0 0 -7.8,-7.8 l -41.98,0 A 7.80006,7.80006 -180 0 0 0,784.2 7.80006,7.80006 -180 0 0 7.8,792 l 41.98,0 z" class="st13"/><text style="font-size:9px;font-family:Calibri;fill:#000" id="text161" x="11.57" y="786.9" class="st9">VNID 101</text></g><g id="shape34-58" transform="translate(407.076,-491.625)"><title id="title164">Rounded rectangle.34</title><desc id="desc166">Host</desc><g style="visibility:visible" id="shadow34-59" class="st1" transform="translate(1.44,1.44)"><path style="fill:#b2b2b2;fill-opacity:.5;stroke:#b2b2b2;stroke-linecap:round;stroke-linejoin:round;stroke-opacity:.5" id="path169" d="m 87.92,792 a 9.00007,9.00007 -180 0 0 9,-9 l 0,-105.75 a 9.00007,9.00007 -180 0 0 -9,-9 l -78.92,0 a 9.00007,9.00007 -180 0 0 -9,9 L 0,783 a 9.00007,9.00007 -180 0 0 9,9 l 78.92,0 z" class="st2"/></g><path style="fill:#d8d8d8;fill-opacity:.7;stroke:#404040;stroke-width:.25;stroke-linecap:round;stroke-linejoin:round" id="path171" d="m 87.92,792 a 9.00007,9.00007 -180 0 0 9,-9 l 0,-105.75 a 9.00007,9.00007 -180 0 0 -9,-9 l -78.92,0 a 9.00007,9.00007 -180 0 0 -9,9 L 0,783 a 9.00007,9.00007 -180 0 0 9,9 l 78.92,0 z" class="st3"/><text style="font-size:13.99991989px;font-family:Calibri;fill:#000" id="text173" x="35.33" y="784.72" class="st4">Host</text></g><g id="shape35-63" transform="translate(520.049,-580.313)"><title id="title176">Rounded rectangle.35</title><desc id="desc178">VM</desc><g style="visibility:visible" id="shadow35-64" class="st1" transform="translate(1.44,1.44)"><path style="fill:#cdcdcd;fill-opacity:.5;stroke:#cdcdcd;stroke-linecap:round;stroke-linejoin:round;stroke-opacity:.5" id="path181" d="m 28.78,792 a 9.00007,9.00007 -180 0 0 9,-9 l 0,-6.75 a 9.00007,9.00007 -180 0 0 -9,-9 l -19.78,0 a 9.00007,9.00007 -180 0 0 -9,9 L 0,783 a 9.00007,9.00007 -180 0 0 9,9 l 19.78,0 z" class="st5"/></g><path style="fill:#6b9bc7;stroke:#404040;stroke-width:.25;stroke-linecap:round;stroke-linejoin:round" id="path183" d="m 28.78,792 a 9.00007,9.00007 -180 0 0 9,-9 l 0,-6.75 a 9.00007,9.00007 -180 0 0 -9,-9 l -19.78,0 a 9.00007,9.00007 -180 0 0 -9,9 L 0,783 a 9.00007,9.00007 -180 0 0 9,9 l 19.78,0 z" class="st6"/><text style="font-size:10.00003242px;font-family:Calibri;fill:#000" id="text185" x="11.78" y="782.63" class="st7">VM</text></g><g id="shape36-68" transform="translate(441.076,-582.375)"><title id="title188">Rounded rectangle.36</title><desc id="desc190">VNID 100</desc><g style="visibility:visible" id="shadow36-69" class="st1" transform="translate(1.44,1.44)"><path style="fill:#cdcdcd;fill-opacity:.5;stroke:#cdcdcd;stroke-linecap:round;stroke-linejoin:round;stroke-opacity:.5" id="path193" d="m 44.64,792 a 8.25006,8.25006 -180 0 0 8.25,-8.25 8.25006,8.25006 -180 0 0 -8.25,-8.25 l -36.39,0 A 8.25006,8.25006 -180 0 0 0,783.75 8.25006,8.25006 -180 0 0 8.25,792 l 36.39,0 z" class="st5"/></g><path style="fill:#f6d5b9;stroke:#404040;stroke-width:.25;stroke-linecap:round;stroke-linejoin:round" id="path195" d="m 44.64,792 a 8.25006,8.25006 -180 0 0 8.25,-8.25 8.25006,8.25006 -180 0 0 -8.25,-8.25 l -36.39,0 A 8.25006,8.25006 -180 0 0 0,783.75 8.25006,8.25006 -180 0 0 8.25,792 l 36.39,0 z" class="st8"/><text style="font-size:9px;font-family:Calibri;fill:#000" id="text197" x="9.22" y="786.45" class="st9">VNID 100</text></g><g id="shape37-73" transform="translate(520.049,-541.125)"><title id="title200">Rounded rectangle.37</title><desc id="desc202">VM</desc><g style="visibility:visible" id="shadow37-74" class="st1" transform="translate(1.44,1.44)"><path style="fill:#cdcdcd;fill-opacity:.5;stroke:#cdcdcd;stroke-linecap:round;stroke-linejoin:round;stroke-opacity:.5" id="path205" d="m 28.78,792 a 9.00007,9.00007 -180 0 0 9,-9 l 0,-6.75 a 9.00007,9.00007 -180 0 0 -9,-9 l -19.78,0 a 9.00007,9.00007 -180 0 0 -9,9 L 0,783 a 9.00007,9.00007 -180 0 0 9,9 l 19.78,0 z" class="st5"/></g><path style="fill:#6b9bc7;stroke:#404040;stroke-width:.25;stroke-linecap:round;stroke-linejoin:round" id="path207" d="m 28.78,792 a 9.00007,9.00007 -180 0 0 9,-9 l 0,-6.75 a 9.00007,9.00007 -180 0 0 -9,-9 l -19.78,0 a 9.00007,9.00007 -180 0 0 -9,9 L 0,783 a 9.00007,9.00007 -180 0 0 9,9 l 19.78,0 z" class="st6"/><text style="font-size:10.00003242px;font-family:Calibri;fill:#000" id="text209" x="11.78" y="782.63" class="st7">VM</text></g><g id="shape38-78" transform="translate(441.076,-551.438)"><title id="title212">Rounded rectangle.38</title><desc id="desc214">VNID 101</desc><g style="visibility:visible" id="shadow38-79" class="st1" transform="translate(1.44,1.44)"><path style="fill:#cdcdcd;fill-opacity:.5;stroke:#cdcdcd;stroke-linecap:round;stroke-linejoin:round;stroke-opacity:.5" id="path217" d="m 44.64,792 a 8.25006,8.25006 -180 0 0 8.25,-8.25 8.25006,8.25006 -180 0 0 -8.25,-8.25 l -36.39,0 A 8.25006,8.25006 -180 0 0 0,783.75 8.25006,8.25006 -180 0 0 8.25,792 l 36.39,0 z" class="st5"/></g><path style="fill:#00b0f0;fill-opacity:.8;stroke:#404040;stroke-width:.25;stroke-linecap:round;stroke-linejoin:round" id="path219" d="m 44.64,792 a 8.25006,8.25006 -180 0 0 8.25,-8.25 8.25006,8.25006 -180 0 0 -8.25,-8.25 l -36.39,0 A 8.25006,8.25006 -180 0 0 0,783.75 8.25006,8.25006 -180 0 0 8.25,792 l 36.39,0 z" class="st12"/><text style="font-size:9px;font-family:Calibri;fill:#000" id="text221" x="9.22" y="786.45" class="st9">VNID 101</text></g><g id="shape40-83" transform="translate(398.076,-288)"><title id="title224">Rounded rectangle.40</title><desc id="desc226">Host</desc><g style="visibility:visible" id="shadow40-84" class="st1" transform="translate(1.44,1.44)"><path style="fill:#b2b2b2;fill-opacity:.5;stroke:#b2b2b2;stroke-linecap:round;stroke-linejoin:round;stroke-opacity:.5" id="path229" d="m 96.92,792 a 9.00007,9.00007 -180 0 0 9,-9 l 0,-110.25 a 9.00007,9.00007 -180 0 0 -9,-9 l -87.92,0 a 9.00007,9.00007 -180 0 0 -9,9 L 0,783 a 9.00007,9.00007 -180 0 0 9,9 l 87.92,0 z" class="st2"/></g><path style="fill:#d8d8d8;fill-opacity:.7;stroke:#404040;stroke-width:.25;stroke-linecap:round;stroke-linejoin:round" id="path231" d="m 96.92,792 a 9.00007,9.00007 -180 0 0 9,-9 l 0,-110.25 a 9.00007,9.00007 -180 0 0 -9,-9 l -87.92,0 a 9.00007,9.00007 -180 0 0 -9,9 L 0,783 a 9.00007,9.00007 -180 0 0 9,9 l 87.92,0 z" class="st3"/><text style="font-size:13.99991989px;font-family:Calibri;fill:#000" id="text233" x="39.83" y="782.47" class="st4">Host</text></g><g id="shape41-88" transform="translate(522,-369.225)"><title id="title236">Rounded rectangle.41</title><desc id="desc238">VM</desc><g style="visibility:visible" id="shadow41-89" class="st1" transform="translate(1.44,1.44)"><path style="fill:#cdcdcd;fill-opacity:.5;stroke:#cdcdcd;stroke-linecap:round;stroke-linejoin:round;stroke-opacity:.5" id="path241" d="m 33.36,792 a 9.00007,9.00007 -180 0 0 9,-9 l 0,-7.65 a 9.00007,9.00007 -180 0 0 -9,-9 l -24.36,0 a 9.00007,9.00007 -180 0 0 -9,9 L 0,783 a 9.00007,9.00007 -180 0 0 9,9 l 24.36,0 z" class="st5"/></g><path style="fill:#6b9bc7;stroke:#404040;stroke-width:.25;stroke-linecap:round;stroke-linejoin:round" id="path243" d="m 33.36,792 a 9.00007,9.00007 -180 0 0 9,-9 l 0,-7.65 a 9.00007,9.00007 -180 0 0 -9,-9 l -24.36,0 a 9.00007,9.00007 -180 0 0 -9,9 L 0,783 a 9.00007,9.00007 -180 0 0 9,9 l 24.36,0 z" class="st6"/><text style="font-size:10.00003242px;font-family:Calibri;fill:#000" id="text245" x="14.07" y="782.17" class="st7">VM</text></g><g id="shape42-93" transform="translate(436.201,-369)"><title id="title248">Rounded rectangle.42</title><desc id="desc250">VNID 100</desc><g style="visibility:visible" id="shadow42-94" class="st1" transform="translate(1.44,1.44)"><path style="fill:#cdcdcd;fill-opacity:.5;stroke:#cdcdcd;stroke-linecap:round;stroke-linejoin:round;stroke-opacity:.5" id="path253" d="m 50.76,792 a 8.55007,8.55007 -180 0 0 8.55,-8.55 8.55007,8.55007 -180 0 0 -8.55,-8.55 l -42.21,0 A 8.55007,8.55007 -180 0 0 0,783.45 8.55007,8.55007 -180 0 0 8.55,792 l 42.21,0 z" class="st5"/></g><path style="fill:#f6d5b9;stroke:#404040;stroke-width:.25;stroke-linecap:round;stroke-linejoin:round" id="path255" d="m 50.76,792 a 8.55007,8.55007 -180 0 0 8.55,-8.55 8.55007,8.55007 -180 0 0 -8.55,-8.55 l -42.21,0 A 8.55007,8.55007 -180 0 0 0,783.45 8.55007,8.55007 -180 0 0 8.55,792 l 42.21,0 z" class="st8"/><text style="font-size:9px;font-family:Calibri;fill:#000" id="text257" x="12.43" y="786.15" class="st9">VNID 100</text></g><g id="shape43-98" transform="translate(523.319,-317.925)"><title id="title260">Rounded rectangle.43</title><desc id="desc262">VM</desc><g style="visibility:visible" id="shadow43-99" class="st1" transform="translate(1.44,1.44)"><path style="fill:#cdcdcd;fill-opacity:.5;stroke:#cdcdcd;stroke-linecap:round;stroke-linejoin:round;stroke-opacity:.5" id="path265" d="m 33.36,792 a 9.00007,9.00007 -180 0 0 9,-9 l 0,-7.65 a 9.00007,9.00007 -180 0 0 -9,-9 l -24.36,0 a 9.00007,9.00007 -180 0 0 -9,9 L 0,783 a 9.00007,9.00007 -180 0 0 9,9 l 24.36,0 z" class="st5"/></g><path style="fill:#6b9bc7;stroke:#404040;stroke-width:.25;stroke-linecap:round;stroke-linejoin:round" id="path267" d="m 33.36,792 a 9.00007,9.00007 -180 0 0 9,-9 l 0,-7.65 a 9.00007,9.00007 -180 0 0 -9,-9 l -24.36,0 a 9.00007,9.00007 -180 0 0 -9,9 L 0,783 a 9.00007,9.00007 -180 0 0 9,9 l 24.36,0 z" class="st6"/><text style="font-size:10.00003242px;font-family:Calibri;fill:#000" id="text269" x="14.07" y="782.17" class="st7">VM</text></g><g id="shape44-103" transform="translate(436.201,-324.9)"><title id="title272">Rounded rectangle.44</title><desc id="desc274">VNID 102</desc><g style="visibility:visible" id="shadow44-104" class="st1" transform="translate(1.44,1.44)"><path style="fill:#cdcdcd;fill-opacity:.5;stroke:#cdcdcd;stroke-linecap:round;stroke-linejoin:round;stroke-opacity:.5" id="path277" d="m 50.76,792 a 8.55007,8.55007 -180 0 0 8.55,-8.55 8.55007,8.55007 -180 0 0 -8.55,-8.55 l -42.21,0 A 8.55007,8.55007 -180 0 0 0,783.45 8.55007,8.55007 -180 0 0 8.55,792 l 42.21,0 z" class="st5"/></g><path style="fill:#7030a0;fill-opacity:.6;stroke:#404040;stroke-width:.25;stroke-linecap:round;stroke-linejoin:round" id="path279" d="m 50.76,792 a 8.55007,8.55007 -180 0 0 8.55,-8.55 8.55007,8.55007 -180 0 0 -8.55,-8.55 l -42.21,0 A 8.55007,8.55007 -180 0 0 0,783.45 8.55007,8.55007 -180 0 0 8.55,792 l 42.21,0 z" class="st14"/><text style="font-size:9px;font-family:Calibri;fill:#000" id="text281" x="12.43" y="786.15" class="st9">VNID 102</text></g><g id="shape46-108" transform="translate(441.076,-518.438)"><title id="title284">Rounded rectangle.46</title><desc id="desc286">VNID 102</desc><g style="visibility:visible" id="shadow46-109" class="st1" transform="translate(1.44,1.44)"><path style="fill:#cdcdcd;fill-opacity:.5;stroke:#cdcdcd;stroke-linecap:round;stroke-linejoin:round;stroke-opacity:.5" id="path289" d="m 44.64,792 a 8.25006,8.25006 -180 0 0 8.25,-8.25 8.25006,8.25006 -180 0 0 -8.25,-8.25 l -36.39,0 A 8.25006,8.25006 -180 0 0 0,783.75 8.25006,8.25006 -180 0 0 8.25,792 l 36.39,0 z" class="st5"/></g><path style="fill:#7030a0;fill-opacity:.6;stroke:#404040;stroke-width:.25;stroke-linecap:round;stroke-linejoin:round" id="path291" d="m 44.64,792 a 8.25006,8.25006 -180 0 0 8.25,-8.25 8.25006,8.25006 -180 0 0 -8.25,-8.25 l -36.39,0 A 8.25006,8.25006 -180 0 0 0,783.75 8.25006,8.25006 -180 0 0 8.25,792 l 36.39,0 z" class="st14"/><text style="font-size:9px;font-family:Calibri;fill:#000" id="text293" x="9.22" y="786.45" class="st9">VNID 102</text></g><g id="shape47-113" transform="translate(520.049,-501.937)"><title id="title296">Rounded rectangle.47</title><desc id="desc298">VM</desc><g style="visibility:visible" id="shadow47-114" class="st1" transform="translate(1.44,1.44)"><path style="fill:#cdcdcd;fill-opacity:.5;stroke:#cdcdcd;stroke-linecap:round;stroke-linejoin:round;stroke-opacity:.5" id="path301" d="m 28.78,792 a 9.00007,9.00007 -180 0 0 9,-9 l 0,-6.75 a 9.00007,9.00007 -180 0 0 -9,-9 l -19.78,0 a 9.00007,9.00007 -180 0 0 -9,9 L 0,783 a 9.00007,9.00007 -180 0 0 9,9 l 19.78,0 z" class="st5"/></g><path style="fill:#6b9bc7;stroke:#404040;stroke-width:.25;stroke-linecap:round;stroke-linejoin:round" id="path303" d="m 28.78,792 a 9.00007,9.00007 -180 0 0 9,-9 l 0,-6.75 a 9.00007,9.00007 -180 0 0 -9,-9 l -19.78,0 a 9.00007,9.00007 -180 0 0 -9,9 L 0,783 a 9.00007,9.00007 -180 0 0 9,9 l 19.78,0 z" class="st6"/><text style="font-size:10.00003242px;font-family:Calibri;fill:#000" id="text305" x="11.78" y="782.63" class="st7">VM</text></g><g id="shape48-118" transform="matrix(0.02167878,0.99976499,-0.99976499,0.02167878,940.314,236.405)"><title id="title308">Arced arrow</title><path style="fill:url(#grad0-121)" id="path310" d="M 1.13,787.65 3.31,788.21 0,792 l -1.04,-4.92 2.17,0.57 z m 205.31,0 -2.18,0.56 3.31,3.79 1.05,-4.92 -2.18,0.57 z" class="st15"/><path style="stroke:#0070c0;stroke-width:1;stroke-linecap:round;stroke-linejoin:round" id="path312" d="m 1.13,787.65 a 106.681,106.681 0 0 1 205.31,0" class="st16"/><path style="stroke:#0070c0;stroke-width:1;stroke-linecap:round;stroke-linejoin:round" id="path314" d="M 1.13,787.65 3.31,788.21 0,792 l -1.04,-4.92 2.17,0.57" class="st16"/><path style="stroke:#0070c0;stroke-width:1;stroke-linecap:round;stroke-linejoin:round" id="path316" d="m 206.44,787.65 -2.18,0.56 3.31,3.79 1.05,-4.92 -2.18,0.57" class="st16"/></g><g id="shape49-125" transform="matrix(-0.99814331,0.06090917,-0.06090917,-0.99814331,489.312,991.905)"><title id="title319">Arced arrow.49</title><path style="fill:url(#linearGradient4626)" id="path321" d="M 2.72,788.42 4.51,789.78 0,792 l 0.93,-4.94 1.79,1.36 z m 290.11,0 -1.8,1.36 4.52,2.22 -0.93,-4.94 -1.79,1.36 z" class="st17"/><path style="stroke:#d26d19;stroke-width:1;stroke-linecap:round;stroke-linejoin:round" id="path323" d="m 2.72,788.42 a 183.886,183.886 0 0 1 290.11,0" class="st18"/><path style="stroke:#d26d19;stroke-width:1;stroke-linecap:round;stroke-linejoin:round" id="path325" d="M 2.72,788.42 4.51,789.78 0,792 l 0.93,-4.94 1.79,1.36" class="st18"/><path style="stroke:#d26d19;stroke-width:1;stroke-linecap:round;stroke-linejoin:round" id="path327" d="m 292.83,788.42 -1.8,1.36 4.52,2.22 -0.93,-4.94 -1.79,1.36" class="st18"/></g><g id="shape50-132" transform="matrix(0.99916938,-0.04074983,0.04074983,0.99916938,120.726,-365.342)"><title id="title330">Arced arrow.50</title><path style="fill:url(#linearGradient4628)" id="path332" d="m 3.79,789.57 1.21,1.9 -5,0.53 2.58,-4.32 1.21,1.89 z m 275.86,0 -1.22,1.9 5.01,0.53 -2.58,-4.32 -1.21,1.89 z" class="st17"/><path style="stroke:#d26d19;stroke-width:1;stroke-linecap:round;stroke-linejoin:round" id="path334" d="m 3.79,789.57 a 259.249,259.249 0 0 1 275.86,0" class="st18"/><path style="stroke:#d26d19;stroke-width:1;stroke-linecap:round;stroke-linejoin:round" id="path336" d="m 3.79,789.57 1.21,1.9 -5,0.53 2.58,-4.32 1.21,1.89" class="st18"/><path style="stroke:#d26d19;stroke-width:1;stroke-linecap:round;stroke-linejoin:round" id="path338" d="m 279.65,789.57 -1.22,1.9 5.01,0.53 -2.58,-4.32 -1.21,1.89" class="st18"/></g><g id="shape4-138" transform="matrix(0.93831753,0.34577481,-0.34577481,0.93831753,348.104,-324.947)"><title id="title341">Sheet.4</title><g style="visibility:visible" id="shadow4-139" class="st1" transform="translate(1.84909,0.853261)"><path style="stroke:#cdcdcd;stroke-width:1.5;stroke-linecap:round;stroke-linejoin:round;stroke-opacity:.5" id="path344" d="m 0,792 22.56,0" class="st19"/></g><path style="stroke:#d26d19;stroke-width:1.5;stroke-linecap:round;stroke-linejoin:round" id="path346" d="m 0,792 22.56,0" class="st20"/></g><g id="shape5-145" transform="matrix(0.98206713,-0.18853156,0.18853156,0.98206713,-74.2157,-312.797)"><title id="title349">Sheet.5</title><g style="visibility:visible" id="shadow5-146" class="st1" transform="translate(1.14269,1.68566)"><path style="stroke:#cdcdcd;stroke-width:1.5;stroke-linecap:round;stroke-linejoin:round;stroke-opacity:.5" id="path352" d="m 0,792 20.69,0" class="st19"/></g><path style="stroke:#0070c0;stroke-width:1.5;stroke-linecap:round;stroke-linejoin:round" id="path354" d="m 0,792 20.69,0" class="st21"/></g><g id="shape6-152" transform="matrix(0.94671224,0.32208064,-0.32208064,0.94671224,327.757,-539.646)"><title id="title357">Sheet.6</title><g style="visibility:visible" id="shadow6-153" class="st1" transform="translate(1.82706,0.89947)"><path style="stroke:#cdcdcd;stroke-width:1.5;stroke-linecap:round;stroke-linejoin:round;stroke-opacity:.5" id="path360" d="m 0,792 21.66,0" class="st19"/></g><path style="stroke:#d26d19;stroke-width:1.5;stroke-linecap:round;stroke-linejoin:round" id="path362" d="m 0,792 21.66,0" class="st20"/></g><g id="shape7-159" transform="matrix(0.96958947,-0.24473714,0.24473714,0.96958947,-121.163,-509.165)"><title id="title365">Sheet.7</title><g style="visibility:visible" id="shadow7-160" class="st1" transform="translate(1.04379,1.74863)"><path style="stroke:#cdcdcd;stroke-width:1.5;stroke-linecap:round;stroke-linejoin:round;stroke-opacity:.5" id="path368" d="m 0,792 21.15,0" class="st19"/></g><path style="stroke:#0070c0;stroke-width:1.5;stroke-linecap:round;stroke-linejoin:round" id="path370" d="m 0,792 21.15,0" class="st21"/></g><g id="shape8-166" transform="matrix(0.99688828,-0.07882744,0.07882744,0.99688828,431.534,-588.161)"><title id="title373">Sheet.8</title><g style="visibility:visible" id="shadow8-167" class="st1" transform="translate(1.32201,1.54903)"><path style="stroke:#cdcdcd;stroke-width:1.5;stroke-linecap:round;stroke-linejoin:round;stroke-opacity:.5" id="path376" d="m 0,792 26.16,0" class="st19"/></g><path style="stroke:#d26d19;stroke-width:1.5;stroke-linecap:round;stroke-linejoin:round" id="path378" d="m 0,792 26.16,0" class="st20"/></g><g id="shape13-173" transform="matrix(0.97299749,0.2308157,-0.2308157,0.97299749,676.771,-538.302)"><title id="title381">Sheet.13</title><g style="visibility:visible" id="shadow13-174" class="st1" transform="translate(1.73349,1.06874)"><path style="stroke:#cdcdcd;stroke-width:1.5;stroke-linecap:round;stroke-linejoin:round;stroke-opacity:.5" id="path384" d="m 0,792 26.81,0" class="st19"/></g><path style="stroke:#0070c0;stroke-width:1.5;stroke-linecap:round;stroke-linejoin:round" id="path386" d="m 0,792 26.81,0" class="st21"/></g><g id="shape15-180" transform="matrix(0.90347299,0.42864501,-0.42864501,0.90347299,833.452,-450.238)"><title id="title389">Sheet.15</title><g style="visibility:visible" id="shadow15-181" class="st1" transform="translate(1.91825,0.683753)"><path style="stroke:#cdcdcd;stroke-width:1.5;stroke-linecap:round;stroke-linejoin:round;stroke-opacity:.5" id="path392" d="m 0,792 28.87,0" class="st19"/></g><path style="stroke:#7030a0;stroke-width:1.5;stroke-linecap:round;stroke-linejoin:round" id="path394" d="m 0,792 28.87,0" class="st22"/></g><g id="shape16-187" transform="matrix(0.98587931,-0.16745741,0.16745741,0.98587931,362.881,-366.366)"><title id="title397">Sheet.16</title><g style="visibility:visible" id="shadow16-188" class="st1" transform="translate(1.17853,1.6608)"><path style="stroke:#cdcdcd;stroke-width:1.5;stroke-linecap:round;stroke-linejoin:round;stroke-opacity:.5" id="path400" d="m 0,792 26.87,0" class="st19"/></g><path style="stroke:#d26d19;stroke-width:1.5;stroke-linecap:round;stroke-linejoin:round" id="path402" d="m 0,792 26.87,0" class="st20"/></g><g id="shape17-194" transform="matrix(0.99532092,0.09662438,-0.09662438,0.99532092,572.033,-329.744)"><title id="title405">Sheet.17</title><g style="visibility:visible" id="shadow17-195" class="st1" transform="translate(1.5724,1.29412)"><path style="stroke:#cdcdcd;stroke-width:1.5;stroke-linecap:round;stroke-linejoin:round;stroke-opacity:.5" id="path408" d="m 0,792 27.94,0" class="st19"/></g><path style="stroke:#43365a;stroke-width:1.5;stroke-linecap:round;stroke-linejoin:round" id="path410" d="m 0,792 27.94,0" class="st23"/></g><g id="shape18-201" transform="matrix(0.56466455,-0.82532051,0.82532051,0.56466455,-464.654,-1.71391)"><title id="title413">Sheet.18</title><g style="visibility:visible" id="shadow18-202" class="st1" transform="translate(-0.375346,2.00158)"><path style="stroke:#cdcdcd;stroke-width:1.5;stroke-linecap:round;stroke-linejoin:round;stroke-opacity:.5" id="path416" d="m 0,792 71.36,0" class="st19"/></g><path style="stroke:#404040;stroke-width:1.5;stroke-linecap:round;stroke-linejoin:round" id="path418" d="m 0,792 71.36,0" class="st24"/></g><g id="shape19-208" transform="matrix(0.46159689,0.8870898,-0.8870898,0.46159689,1074.07,13.0882)"><title id="title421">Sheet.19</title><g style="visibility:visible" id="shadow19-209" class="st1" transform="translate(1.94211,-0.612711)"><path style="stroke:#cdcdcd;stroke-width:1.5;stroke-linecap:round;stroke-linejoin:round;stroke-opacity:.5" id="path424" d="m 0,792 57.58,0" class="st19"/></g><path style="stroke:#404040;stroke-width:1.5;stroke-linecap:round;stroke-linejoin:round" id="path426" d="m 0,792 57.58,0" class="st24"/></g><g id="shape20-215" transform="matrix(0.57372226,0.81904992,-0.81904992,0.57372226,835.264,-218.138)"><title id="title429">Sheet.20</title><g style="visibility:visible" id="shadow20-216" class="st1" transform="translate(2.00559,-0.353273)"><path style="stroke:#cdcdcd;stroke-width:1.5;stroke-linecap:round;stroke-linejoin:round;stroke-opacity:.5" id="path432" d="m 0,792 62.72,0" class="st19"/></g><path style="stroke:#000;stroke-width:1.5;stroke-linecap:round;stroke-linejoin:round" id="path434" d="m 0,792 62.72,0" class="st25"/></g><g id="shape21-222" transform="matrix(-0.68364325,0.72981635,-0.72981635,-0.68364325,985.087,779.949)"><title id="title437">Sheet.21</title><g style="visibility:visible" id="shadow21-223" class="st1" transform="translate(0.0664758,-2.03538)"><path style="stroke:#cdcdcd;stroke-width:1.5;stroke-linecap:round;stroke-linejoin:round;stroke-opacity:.5" id="path440" d="m 0,792 43.41,0" class="st19"/></g><path style="stroke:#404040;stroke-width:1.5;stroke-linecap:round;stroke-linejoin:round" id="path442" d="m 0,792 43.41,0" class="st24"/></g><g id="shape68-229" transform="matrix(-0.78308598,0.62191345,-0.62191345,-0.78308598,933.635,852.514)"><title id="title445">Arced arrow.68</title><path style="stroke:#0070c0;stroke-width:1;stroke-linecap:round;stroke-linejoin:round" id="path447" d="m 0,792 a 329.322,329.322 0 0 1 367.87,0" class="st16"/></g><g id="shape70-233" transform="matrix(0.02522082,-0.9996819,0.9996819,0.02522082,-355.547,438.576)"><title id="title450">Arced arrow.70</title><path style="fill:url(#grad0-236)" id="path452" d="M 1.04,787.51 3.29,788.03 0,792 l -1.2,-5.01 2.24,0.52 z m 191.22,0 -2.25,0.52 3.29,3.97 1.2,-5.01 -2.24,0.52 z" class="st26"/><path style="stroke:#7030a0;stroke-width:1;stroke-linecap:round;stroke-linejoin:round" id="path454" d="m 1.04,787.51 a 98.7059,98.7059 0 0 1 191.22,0" class="st27"/><path style="stroke:#7030a0;stroke-width:1;stroke-linecap:round;stroke-linejoin:round" id="path456" d="M 1.04,787.51 3.29,788.03 0,792 l -1.2,-5.01 2.24,0.52" class="st27"/><path style="stroke:#7030a0;stroke-width:1;stroke-linecap:round;stroke-linejoin:round" id="path458" d="m 192.26,787.51 -2.25,0.52 3.29,3.97 1.2,-5.01 -2.24,0.52" class="st27"/></g><g id="shape84-240" transform="translate(157.5,-510.75)"><title id="title461">Sheet.84</title><desc id="desc463">TEP</desc><rect style="fill:#8fa350;stroke:#404040;stroke-width:.5;stroke-linecap:round;stroke-linejoin:round" id="rect465" width="22.5" height="76.5" x="0" y="715.5" class="st28"/><text style="font-size:9px;font-family:Calibri;fill:#000" id="text467" x="4.54" y="756.45" class="st9">TEP</text></g><g id="shape86-243" transform="translate(162,-315)"><title id="title470">Sheet.86</title><desc id="desc472">TEP</desc><rect style="fill:#8fa350;stroke:#404040;stroke-width:.5;stroke-linecap:round;stroke-linejoin:round" id="rect474" width="23.625" height="76.5" x="0" y="715.5" class="st28"/><text style="font-size:9px;font-family:Calibri;fill:#000" id="text476" x="5.1" y="756.45" class="st9">TEP</text></g><g id="shape87-246" transform="translate(405,-324)"><title id="title479">Sheet.87</title><desc id="desc481">TEP</desc><rect style="fill:#8fa350;stroke:#404040;stroke-width:.5;stroke-linecap:round;stroke-linejoin:round" id="rect483" width="23.625" height="76.5" x="0" y="715.5" class="st28"/><text style="font-size:9px;font-family:Calibri;fill:#000" id="text485" x="5.1" y="756.45" class="st9">TEP</text></g><g id="shape88-249" transform="translate(411.75,-513)"><title id="title488">Sheet.88</title><desc id="desc490">TEP</desc><rect style="fill:#8fa350;stroke:#404040;stroke-width:.5;stroke-linecap:round;stroke-linejoin:round" id="rect492" width="22.5" height="74.25" x="0" y="717.75" class="st28"/><text style="font-size:9px;font-family:Calibri;fill:#000" id="text494" x="4.54" y="757.58" class="st9">TEP</text></g></g></svg>