<svg xmlns="http://www.w3.org/2000/svg" xmlns:svg="http://www.w3.org/2000/svg" xmlns:xlink="http://www.w3.org/1999/xlink" id="svg2" width="479.03" height="590.762" class="st24" version="1.1" viewBox="0 0 359.272 443.072" xml:space="preserve" style="font-size:12px;overflow:visible;color-interpolation-filters:sRGB;fill:none;fill-rule:evenodd;stroke-linecap:square;stroke-miterlimit:3"><metadata id="metadata389"/><style id="style4" type="text/css">.st1{visibility:visible}.st2,.st3,.st4{stroke-linecap:round;stroke-linejoin:round}.st2{fill:#cdcdcd;fill-opacity:.5;stroke:#cdcdcd;stroke-opacity:.5}.st3,.st4{fill:#d1dab4;stroke:#404040;stroke-width:.25}.st4{fill:#6b9bc7}.st5{fill:#000;font-family:Calibri;font-size:.916672em;font-weight:700}.st6{fill:#92d050;stroke:#404040;stroke-linecap:round;stroke-linejoin:round;stroke-width:.25}.st7{fill:#000;font-family:Calibri;font-size:.833336em}.st8{font-size:1em}.st9{fill:#3e75a6;stroke-linecap:round;stroke-linejoin:round;stroke-width:.25}.st10,.st11,.st9{stroke:#404040}.st10{fill:#d8d8d8;stroke-linecap:round;stroke-linejoin:round;stroke-width:.24}.st11{fill:#404040;fill-opacity:1;stroke-opacity:1;stroke-width:.08695652173913}.st12{fill:none;stroke:none;stroke-linecap:round;stroke-linejoin:round;stroke-width:.25}.st13{font-weight:700}.st13,.st14,.st15{fill:#000;font-family:Calibri;font-size:1.00001em}.st15{font-size:1.16666em;font-weight:700}.st16{fill:url(#grad0-72)}.st16,.st17,.st18,.st19{stroke:#404040;stroke-linecap:round;stroke-linejoin:round;stroke-width:.25}.st17{fill:url(#grad0-83)}.st18{fill:#f2c096}.st19{fill:#e1ebf3}.st20{fill:#000;font-family:Calibri;font-size:1.16666em}.st21{font-size:.857157em}.st22,.st23{fill:#d26d19;stroke:none;stroke-linecap:round;stroke-linejoin:round;stroke-width:.75}.st23{fill:#a6c3dd;stroke:#404040;stroke-width:.25}.st24{fill:none;fill-rule:evenodd;font-size:12px;overflow:visible;stroke-linecap:square;stroke-miterlimit:3}</style><defs id="Patterns_And_Gradients"><linearGradient id="grad0-72" x1="0" x2="1" y1="0" y2="0" gradientTransform="matrix(0,-1,1,0,0,1)"><stop id="stop8" offset="0" stop-color="#efaf7a" stop-opacity="1"/><stop id="stop10" offset="1" stop-color="#f2bf96" stop-opacity="1"/></linearGradient><linearGradient id="grad0-83" x1="-.024" x2="86.83" y1="1433.256" y2="1433.256" gradientTransform="scale(1.9190145,0.52110079)" gradientUnits="userSpaceOnUse"><stop id="stop13" offset="0" stop-color="#f0f0f0" stop-opacity="1"/><stop id="stop15" offset="1" stop-color="#fff" stop-opacity="1"/></linearGradient><linearGradient id="linearGradient4536" x1="-.024" x2="48.28" y1="4088.255" y2="4088.255" gradientTransform="scale(5.2221044,0.19149368)" gradientUnits="userSpaceOnUse" xlink:href="#grad0-72"/><linearGradient id="linearGradient4538" x1="-.024" x2="48.28" y1="4088.255" y2="4088.255" gradientTransform="scale(5.2221044,0.19149368)" gradientUnits="userSpaceOnUse" xlink:href="#grad0-72"/></defs><defs id="Markers"><g id="lend13"><path id="path19" d="M 3,1 0,0 3,-1 3,1" style="stroke:none"/></g><marker style="overflow:visible;fill:#404040;fill-opacity:1;stroke:#404040;stroke-width:.08695652;stroke-opacity:1" id="mrkr13-28" class="st11" markerUnits="strokeWidth" orient="auto" overflow="visible" refX="-34.5"><use id="use22" width="100%" height="100%" x="0" y="0" transform="scale(-11.5,-11.5)" xlink:href="#lend13"/></marker></defs><g id="g24" transform="translate(-116.875,-116.875)"><title id="title26">Page-1</title><g id="shape33-1" transform="translate(117,-432)"><title id="title29">Rectangle.18</title><g style="visibility:visible" id="shadow33-2" class="st1" transform="translate(1.44,1.44)"><rect style="fill:#cdcdcd;fill-opacity:.5;stroke:#cdcdcd;stroke-linecap:round;stroke-linejoin:round;stroke-opacity:.5" id="rect32" width="342" height="126" x="0" y="666" class="st2"/></g><rect style="fill:#d1dab4;stroke:#404040;stroke-width:.25;stroke-linecap:round;stroke-linejoin:round" id="rect34" width="342" height="126" x="0" y="666" class="st3"/></g><g id="shape10-5" transform="translate(216,-522)"><title id="title37">Rounded rectangle.10</title><desc id="desc39">Userspace vhost Interface</desc><g style="visibility:visible" id="shadow10-6" class="st1" transform="translate(1.44,1.44)"><path style="fill:#cdcdcd;fill-opacity:.5;stroke:#cdcdcd;stroke-linecap:round;stroke-linejoin:round;stroke-opacity:.5" id="path42" d="m 139.5,792 a 9.00007,9.00007 -180 0 0 9,-9 l 0,-9 a 9.00007,9.00007 -180 0 0 -9,-9 L 9,765 a 9.00007,9.00007 -180 0 0 -9,9 l 0,9 a 9.00007,9.00007 -180 0 0 9,9 l 130.5,0 z" class="st2"/></g><path style="fill:#6b9bc7;stroke:#404040;stroke-width:.25;stroke-linecap:round;stroke-linejoin:round" id="path44" d="m 139.5,792 a 9.00007,9.00007 -180 0 0 9,-9 l 0,-9 a 9.00007,9.00007 -180 0 0 -9,-9 L 9,765 a 9.00007,9.00007 -180 0 0 -9,9 l 0,9 a 9.00007,9.00007 -180 0 0 9,9 l 130.5,0 z" class="st4"/><text style="font-weight:700;font-size:11.0000639px;font-family:Calibri;fill:#000" id="text46" x="15.14" y="781.8" class="st5">Userspace vhost Interface</text></g><g id="shape12-10" transform="translate(355.5,-481.5)"><title id="title49">Rounded rectangle.12</title><desc id="desc51">Encapsulation</desc><g style="visibility:visible" id="shadow12-11" class="st1" transform="translate(1.44,1.44)"><path style="fill:#cdcdcd;fill-opacity:.5;stroke:#cdcdcd;stroke-linecap:round;stroke-linejoin:round;stroke-opacity:.5" id="path54" d="M 83.25,792 A 6.75005,6.75005 -180 0 0 90,785.25 6.75005,6.75005 -180 0 0 83.25,778.5 l -76.5,0 A 6.75005,6.75005 -180 0 0 0,785.25 6.75005,6.75005 -180 0 0 6.75,792 l 76.5,0 z" class="st2"/></g><path style="fill:#92d050;stroke:#404040;stroke-width:.25;stroke-linecap:round;stroke-linejoin:round" id="path56" d="M 83.25,792 A 6.75005,6.75005 -180 0 0 90,785.25 6.75005,6.75005 -180 0 0 83.25,778.5 l -76.5,0 A 6.75005,6.75005 -180 0 0 0,785.25 6.75005,6.75005 -180 0 0 6.75,792 l 76.5,0 z" class="st6"/><text style="font-size:10.00003242px;font-family:Calibri;fill:#000" id="text58" x="16.58" y="788.25" class="st7">Encapsulation</text></g><g id="shape13-15" transform="translate(153,-483.75)"><title id="title61">Rounded rectangle.13</title><desc id="desc63">Decapsulation</desc><g style="visibility:visible" id="shadow13-16" class="st1" transform="translate(1.44,1.44)"><path style="fill:#cdcdcd;fill-opacity:.5;stroke:#cdcdcd;stroke-linecap:round;stroke-linejoin:round;stroke-opacity:.5" id="path66" d="M 65.25,792 A 6.75005,6.75005 -180 0 0 72,785.25 6.75005,6.75005 -180 0 0 65.25,778.5 l -58.5,0 A 6.75005,6.75005 -180 0 0 0,785.25 6.75005,6.75005 -180 0 0 6.75,792 l 58.5,0 z" class="st2"/></g><path style="fill:#92d050;stroke:#404040;stroke-width:.25;stroke-linecap:round;stroke-linejoin:round" id="path68" d="M 65.25,792 A 6.75005,6.75005 -180 0 0 72,785.25 6.75005,6.75005 -180 0 0 65.25,778.5 l -58.5,0 A 6.75005,6.75005 -180 0 0 0,785.25 6.75005,6.75005 -180 0 0 6.75,792 l 58.5,0 z" class="st6"/><text style="font-size:10.00003242px;font-family:Calibri;fill:#000" id="text70" x="8.22" y="788.25" class="st7">D<tspan style="font-size:10.00003242px" id="tspan72" class="st8">ecap</tspan>sulation</text></g><g id="shape35-21" transform="translate(117,-324)"><title id="title75">Rectangle.18.35</title><g style="visibility:visible" id="shadow35-22" class="st1" transform="translate(1.44,1.44)"><rect style="fill:#cdcdcd;fill-opacity:.5;stroke:#cdcdcd;stroke-linecap:round;stroke-linejoin:round;stroke-opacity:.5" id="rect78" width="342" height="94.5" x="0" y="697.5" class="st2"/></g><rect style="fill:#3e75a6;stroke:#404040;stroke-width:.25;stroke-linecap:round;stroke-linejoin:round" id="rect80" width="342" height="94.5" x="0" y="697.5" class="st9"/></g><g id="shape15-25" transform="translate(259.654,-263.25)"><title id="title83">Data store</title><path style="fill:#d8d8d8;stroke:#404040;stroke-width:.23999999;stroke-linecap:round;stroke-linejoin:round" id="path85" d="m 0,600.13 a 28.3465,10.6299 0 0 1 56.69,0 28.3465,10.6299 0 0 1 -56.69,0 z m 0,0 0,181.24 a 28.3465,10.6299 -180 1 0 56.69,0 l 0,-181.24 a 28.3465,10.6299 0 0 1 -56.69,0 z" class="st10"/></g><g id="shape16-29" transform="translate(324,-391.5)"><title id="title88">Rounded rectangle.16</title><desc id="desc90">Inner IP/L4 checksum offload</desc><g style="visibility:visible" id="shadow16-30" class="st1" transform="translate(1.44,1.44)"><path style="fill:#cdcdcd;fill-opacity:.5;stroke:#cdcdcd;stroke-linecap:round;stroke-linejoin:round;stroke-opacity:.5" id="path93" d="m 128.25,792 a 6.75005,6.75005 -180 0 0 6.75,-6.75 6.75005,6.75005 -180 0 0 -6.75,-6.75 l -121.5,0 A 6.75005,6.75005 -180 0 0 0,785.25 6.75005,6.75005 -180 0 0 6.75,792 l 121.5,0 z" class="st2"/></g><path style="fill:#92d050;stroke:#404040;stroke-width:.25;stroke-linecap:round;stroke-linejoin:round" id="path95" d="m 128.25,792 a 6.75005,6.75005 -180 0 0 6.75,-6.75 6.75005,6.75005 -180 0 0 -6.75,-6.75 l -121.5,0 A 6.75005,6.75005 -180 0 0 0,785.25 6.75005,6.75005 -180 0 0 6.75,792 l 121.5,0 z" class="st6"/><text style="font-size:10.00003242px;font-family:Calibri;fill:#000" id="text97" x="8.27" y="788.25" class="st7">Inner IP/L4 checksum offload</text></g><g id="shape17-34" transform="translate(144,-337.5)"><title id="title100">Rounded rectangle.17</title><desc id="desc102">UDP port configuration</desc><g style="visibility:visible" id="shadow17-35" class="st1" transform="translate(1.44,1.44)"><path style="fill:#cdcdcd;fill-opacity:.5;stroke:#cdcdcd;stroke-linecap:round;stroke-linejoin:round;stroke-opacity:.5" id="path105" d="m 101.25,792 a 6.75005,6.75005 -180 0 0 6.75,-6.75 6.75005,6.75005 -180 0 0 -6.75,-6.75 l -94.5,0 A 6.75005,6.75005 -180 0 0 0,785.25 6.75005,6.75005 -180 0 0 6.75,792 l 94.5,0 z" class="st2"/></g><path style="fill:#92d050;stroke:#404040;stroke-width:.25;stroke-linecap:round;stroke-linejoin:round" id="path107" d="m 101.25,792 a 6.75005,6.75005 -180 0 0 6.75,-6.75 6.75005,6.75005 -180 0 0 -6.75,-6.75 l -94.5,0 A 6.75005,6.75005 -180 0 0 0,785.25 6.75005,6.75005 -180 0 0 6.75,792 l 94.5,0 z" class="st6"/><text style="font-size:10.00003242px;font-family:Calibri;fill:#000" id="text109" x="6.93" y="788.25" class="st7">UDP port configuration</text></g><g id="shape18-39" transform="translate(145.346,-357.75)"><title id="title112">Rounded rectangle.18</title><desc id="desc114">Inner IP/L4 csum verify</desc><g style="visibility:visible" id="shadow18-40" class="st1" transform="translate(1.44,1.44)"><path style="fill:#cdcdcd;fill-opacity:.5;stroke:#cdcdcd;stroke-linecap:round;stroke-linejoin:round;stroke-opacity:.5" id="path117" d="m 99.9,792 a 6.75005,6.75005 -180 0 0 6.75,-6.75 6.75005,6.75005 -180 0 0 -6.75,-6.75 l -93.15,0 A 6.75005,6.75005 -180 0 0 0,785.25 6.75005,6.75005 -180 0 0 6.75,792 l 93.15,0 z" class="st2"/></g><path style="fill:#92d050;stroke:#404040;stroke-width:.25;stroke-linecap:round;stroke-linejoin:round" id="path119" d="m 99.9,792 a 6.75005,6.75005 -180 0 0 6.75,-6.75 6.75005,6.75005 -180 0 0 -6.75,-6.75 l -93.15,0 A 6.75005,6.75005 -180 0 0 0,785.25 6.75005,6.75005 -180 0 0 6.75,792 l 93.15,0 z" class="st6"/><text style="font-size:10.00003242px;font-family:Calibri;fill:#000" id="text121" x="6.66" y="788.25" class="st7">Inner IP/L4<tspan style="font-size:10.00003242px" id="tspan125" class="st8">csum</tspan> verify</text></g><g id="shape19-46" transform="translate(162,-378)"><title id="title128">Rounded rectangle.19</title><desc id="desc130">Tunnel Filter</desc><g style="visibility:visible" id="shadow19-47" class="st1" transform="translate(1.44,1.44)"><path style="fill:#cdcdcd;fill-opacity:.5;stroke:#cdcdcd;stroke-linecap:round;stroke-linejoin:round;stroke-opacity:.5" id="path133" d="M 83.25,792 A 6.75005,6.75005 -180 0 0 90,785.25 6.75005,6.75005 -180 0 0 83.25,778.5 l -76.5,0 A 6.75005,6.75005 -180 0 0 0,785.25 6.75005,6.75005 -180 0 0 6.75,792 l 76.5,0 z" class="st2"/></g><path style="fill:#92d050;stroke:#404040;stroke-width:.25;stroke-linecap:round;stroke-linejoin:round" id="path135" d="M 83.25,792 A 6.75005,6.75005 -180 0 0 90,785.25 6.75005,6.75005 -180 0 0 83.25,778.5 l -76.5,0 A 6.75005,6.75005 -180 0 0 0,785.25 6.75005,6.75005 -180 0 0 6.75,792 l 76.5,0 z" class="st6"/><text style="font-size:10.00003242px;font-family:Calibri;fill:#000" id="text137" x="18.29" y="788.25" class="st7">Tunnel F<tspan style="font-size:10.00003242px" id="tspan141" class="st8">ilter</tspan></text></g><g id="shape20-53" transform="translate(162,-398.25)"><title id="title144">Rounded rectangle.20</title><desc id="desc146">Packet Type</desc><g style="visibility:visible" id="shadow20-54" class="st1" transform="translate(1.44,1.44)"><path style="fill:#cdcdcd;fill-opacity:.5;stroke:#cdcdcd;stroke-linecap:round;stroke-linejoin:round;stroke-opacity:.5" id="path149" d="M 83.25,792 A 6.75005,6.75005 -180 0 0 90,785.25 6.75005,6.75005 -180 0 0 83.25,778.5 l -76.5,0 A 6.75005,6.75005 -180 0 0 0,785.25 6.75005,6.75005 -180 0 0 6.75,792 l 76.5,0 z" class="st2"/></g><path style="fill:#92d050;stroke:#404040;stroke-width:.25;stroke-linecap:round;stroke-linejoin:round" id="path151" d="M 83.25,792 A 6.75005,6.75005 -180 0 0 90,785.25 6.75005,6.75005 -180 0 0 83.25,778.5 l -76.5,0 A 6.75005,6.75005 -180 0 0 0,785.25 6.75005,6.75005 -180 0 0 6.75,792 l 76.5,0 z" class="st6"/><text style="font-size:10.00003242px;font-family:Calibri;fill:#000" id="text153" x="20.53" y="788.25" class="st7">Packet Type</text></g><g id="shape27-58" transform="translate(326.25,-441)"><title id="title156">Sheet.27</title><desc id="desc158">DPDK Application</desc><rect style="fill:none;stroke:none;stroke-width:.25;stroke-linecap:round;stroke-linejoin:round" id="rect160" width="108" height="18" x="0" y="774" class="st12"/><text style="font-weight:700;font-size:12.00012016px;font-family:Calibri;fill:#000" id="text162" x="10.11" y="786.6" class="st13">DPDK Application</text></g><g id="shape26-61" transform="translate(324,-279)"><title id="title165">Sheet.26</title><desc id="desc167">VXLAN Tunnel</desc><rect style="fill:none;stroke:none;stroke-width:.25;stroke-linecap:round;stroke-linejoin:round" id="rect169" width="90" height="27" x="0" y="765" class="st12"/><text style="font-size:12.00012016px;font-family:Calibri;fill:#000" id="text171" x="10.51" y="782.1" class="st14">VXLAN Tunnel</text></g><g id="shape28-64" transform="translate(342,-333)"><title id="title174">Sheet.28</title><desc id="desc176">NIC</desc><rect style="fill:none;stroke:none;stroke-width:.25;stroke-linecap:round;stroke-linejoin:round" id="rect178" width="90" height="18" x="0" y="774" class="st12"/><text style="font-weight:700;font-size:13.99991989px;font-family:Calibri;fill:#000" id="text180" x="36.4" y="787.2" class="st15">NIC</text></g><g id="shape29-67" transform="matrix(0,1,1,0,-517.5,270)"><title id="title183">45 degree single</title><g style="visibility:visible" id="shadow29-68" class="st1" transform="translate(1.44,1.44)"><path style="fill:#cdcdcd;fill-opacity:.5;stroke:#cdcdcd;stroke-linecap:round;stroke-linejoin:round;stroke-opacity:.5" id="path186" d="m 0,787.5 4.5,-4.5 0,2.97 247.5,0 0,3.06 -247.5,0 0,2.97 -4.5,-4.5 z" class="st2"/></g><path style="fill:url(#linearGradient4536);stroke:#404040;stroke-width:.25;stroke-linecap:round;stroke-linejoin:round" id="path188" d="m 0,787.5 4.5,-4.5 0,2.97 247.5,0 0,3.06 -247.5,0 0,2.97 -4.5,-4.5 z" class="st16"/></g><g id="shape30-73" transform="matrix(0,-1,-1,0,1093.5,522)"><title id="title191">45 degree single.30</title><g style="visibility:visible" id="shadow30-74" class="st1" transform="translate(-1.44,-1.44)"><path style="fill:#cdcdcd;fill-opacity:.5;stroke:#cdcdcd;stroke-linecap:round;stroke-linejoin:round;stroke-opacity:.5" id="path194" d="m 0,787.5 4.5,-4.5 0,2.97 247.5,0 0,3.06 -247.5,0 0,2.97 -4.5,-4.5 z" class="st2"/></g><path style="fill:url(#linearGradient4538);stroke:#404040;stroke-width:.25;stroke-linecap:round;stroke-linejoin:round" id="path196" d="m 0,787.5 4.5,-4.5 0,2.97 247.5,0 0,3.06 -247.5,0 0,2.97 -4.5,-4.5 z" class="st16"/></g><g id="shape14-78" transform="translate(207,-234)"><title id="title199">Object</title><desc id="desc201">WAN/LAN</desc><g style="visibility:visible" id="shadow14-79" class="st1" transform="translate(1.44,1.44)"><path style="fill:#cdcdcd;fill-opacity:.5;stroke:#cdcdcd;stroke-linecap:round;stroke-linejoin:round;stroke-opacity:.5" id="path204" d="m 23.93,782.24 a 19.1532,6.46551 -180 0 0 27.59,5.48 26.5285,8.95514 -180 0 0 47.98,-2.03 8.02422,2.70871 -180 0 0 8.66,2.93 30.5319,10.3066 -180 0 0 29.32,-4.28 18.9723,6.40442 -180 0 0 20.66,-4.05 29.3596,9.20857 -176.98 0 0 -12.51,-8.69 100.331,31.9328 -2.78 0 0 20.84,-8.56 42.3527,12.6007 -180 0 0 -21.95,-11.54 25.2977,7.52648 -180 0 0 -48.39,3.6 21.4707,5.9338 -1.58 0 0 -36.32,0.33 30.834,8.86245 -178.72 0 0 -39.29,12.27 24.6202,7.32494 -180 0 0 3.41,14.54 z" class="st2"/></g><path style="fill:url(#grad0-83);stroke:#404040;stroke-width:.25;stroke-linecap:round;stroke-linejoin:round" id="path206" d="m 23.93,782.24 a 19.1532,6.46551 -180 0 0 27.59,5.48 26.5285,8.95514 -180 0 0 47.98,-2.03 8.02422,2.70871 -180 0 0 8.66,2.93 30.5319,10.3066 -180 0 0 29.32,-4.28 18.9723,6.40442 -180 0 0 20.66,-4.05 29.3596,9.20857 -176.98 0 0 -12.51,-8.69 100.331,31.9328 -2.78 0 0 20.84,-8.56 42.3527,12.6007 -180 0 0 -21.95,-11.54 25.2977,7.52648 -180 0 0 -48.39,3.6 21.4707,5.9338 -1.58 0 0 -36.32,0.33 30.834,8.86245 -178.72 0 0 -39.29,12.27 24.6202,7.32494 -180 0 0 3.41,14.54 z" class="st17"/><text style="font-weight:700;font-size:13.99991989px;font-family:Calibri;fill:#000" id="text208" x="53.23" y="773.7" class="st15">WAN/LAN</text></g><g id="shape11-85" transform="translate(236.25,-472.5)"><title id="title211">Rounded rectangle.11</title><desc id="desc213">TEP</desc><g style="visibility:visible" id="shadow11-86" class="st1" transform="translate(1.44,1.44)"><path style="fill:#cdcdcd;fill-opacity:.5;stroke:#cdcdcd;stroke-linecap:round;stroke-linejoin:round;stroke-opacity:.5" id="path216" d="m 99,792 a 9.00007,9.00007 -180 0 0 9,-9 l 0,-18 a 9.00007,9.00007 -180 0 0 -9,-9 l -90,0 a 9.00007,9.00007 -180 0 0 -9,9 l 0,18 a 9.00007,9.00007 -180 0 0 9,9 l 90,0 z" class="st2"/></g><path style="fill:#f2c096;stroke:#404040;stroke-width:.25;stroke-linecap:round;stroke-linejoin:round" id="path218" d="m 99,792 a 9.00007,9.00007 -180 0 0 9,-9 l 0,-18 a 9.00007,9.00007 -180 0 0 -9,-9 l -90,0 a 9.00007,9.00007 -180 0 0 -9,9 l 0,18 a 9.00007,9.00007 -180 0 0 9,9 l 90,0 z" class="st18"/><text style="font-weight:700;font-size:12.00012016px;font-family:Calibri;fill:#000" id="text220" x="44.91" y="777.6" class="st13">TEP</text></g><g id="shape36-90" transform="translate(117,-571.5)"><title id="title223">Rectangle.18.36</title><g style="visibility:visible" id="shadow36-91" class="st1" transform="translate(1.44,1.44)"><rect style="fill:#cdcdcd;fill-opacity:.5;stroke:#cdcdcd;stroke-linecap:round;stroke-linejoin:round;stroke-opacity:.5" id="rect226" width="342" height="103.5" x="0" y="688.5" class="st2"/></g><rect style="fill:#e1ebf3;stroke:#404040;stroke-width:.25;stroke-linecap:round;stroke-linejoin:round" id="rect228" width="342" height="103.5" x="0" y="688.5" class="st19"/></g><g id="shape5-94" transform="translate(306,-594)"><title id="title231">Rounded rectangle.5</title><desc id="desc233">VM-2 (VNID:200)</desc><g style="visibility:visible" id="shadow5-95" class="st1" transform="translate(1.44,1.44)"><path style="fill:#cdcdcd;fill-opacity:.5;stroke:#cdcdcd;stroke-linecap:round;stroke-linejoin:round;stroke-opacity:.5" id="path236" d="m 113.62,792 a 9.00007,9.00007 -180 0 0 9.01,-9 l -0.01,-36 a 9.00007,9.00007 -180 0 0 -9,-9 L 9,738 a 9.00007,9.00007 -180 0 0 -9,9 l 0,36 a 9.00007,9.00007 -180 0 0 9,9 l 104.62,0 z" class="st2"/></g><path style="fill:#3e75a6;stroke:#404040;stroke-width:.25;stroke-linecap:round;stroke-linejoin:round" id="path238" d="m 113.62,792 a 9.00007,9.00007 -180 0 0 9.01,-9 l -0.01,-36 a 9.00007,9.00007 -180 0 0 -9,-9 L 9,738 a 9.00007,9.00007 -180 0 0 -9,9 l 0,36 a 9.00007,9.00007 -180 0 0 9,9 l 104.62,0 z" class="st9"/><text style="font-size:13.99991989px;font-family:Calibri;fill:#000" id="text240" x="16.93" y="769.2" class="st20">VM<tspan style="font-size:13.99991989px" id="tspan242" class="st8">-</tspan>2 (<tspan style="font-size:12.00012875px" id="tspan244" class="st21">VNID</tspan><tspan style="font-size:12.00012875px" id="tspan246" class="st21">:</tspan><tspan style="font-size:12.00012875px" id="tspan248" class="st21">200</tspan><tspan style="font-size:12.00012875px" id="tspan250" class="st21">)</tspan></text></g><g id="shape3-104" transform="translate(135,-594)"><title id="title253">Rounded rectangle</title><desc id="desc255">VM-1 (VNID: 100)</desc><g style="visibility:visible" id="shadow3-105" class="st1" transform="translate(1.44,1.44)"><path style="fill:#cdcdcd;fill-opacity:.5;stroke:#cdcdcd;stroke-linecap:round;stroke-linejoin:round;stroke-opacity:.5" id="path258" d="m 113.62,792 a 9.00007,9.00007 -180 0 0 9.01,-9 l -0.01,-36 a 9.00007,9.00007 -180 0 0 -9,-9 L 9,738 a 9.00007,9.00007 -180 0 0 -9,9 l 0,36 a 9.00007,9.00007 -180 0 0 9,9 l 104.62,0 z" class="st2"/></g><path style="fill:#3e75a6;stroke:#404040;stroke-width:.25;stroke-linecap:round;stroke-linejoin:round" id="path260" d="m 113.62,792 a 9.00007,9.00007 -180 0 0 9.01,-9 l -0.01,-36 a 9.00007,9.00007 -180 0 0 -9,-9 L 9,738 a 9.00007,9.00007 -180 0 0 -9,9 l 0,36 a 9.00007,9.00007 -180 0 0 9,9 l 104.62,0 z" class="st9"/><text style="font-size:13.99991989px;font-family:Calibri;fill:#000" id="text262" x="15.58" y="769.2" class="st20">VM<tspan style="font-size:13.99991989px" id="tspan264" class="st8">-</tspan>1 (<tspan style="font-size:12.00012875px" id="tspan266" class="st21">VNID</tspan><tspan style="font-size:12.00012875px" id="tspan268" class="st21">: </tspan><tspan style="font-size:12.00012875px" id="tspan270" class="st21">100</tspan><tspan style="font-size:12.00012875px" id="tspan272" class="st21">)</tspan></text></g><g id="shape23-114" transform="matrix(0.8626982,0.50571911,-0.50571911,0.8626982,624.813,-477.284)"><title id="title275">Process boundary.23</title><rect style="fill:#d26d19;stroke:none;stroke-width:.75;stroke-linecap:round;stroke-linejoin:round" id="rect277" width="75.635" height="2.835" x="0" y="789.165" class="st22"/></g><g id="shape22-116" transform="matrix(0.95221525,0.30542775,-0.30542775,0.95221525,412.466,-548.055)"><title id="title280">Process boundary</title><rect style="fill:#d26d19;stroke:none;stroke-width:.75;stroke-linecap:round;stroke-linejoin:round" id="rect282" width="125.234" height="2.835" x="0" y="789.165" class="st22"/></g><g id="shape24-118" transform="matrix(-0.93547487,0.35339321,-0.35339321,-0.93547487,670.892,944.318)"><title id="title285">Process boundary.24</title><rect style="fill:#d26d19;stroke:none;stroke-width:.75;stroke-linecap:round;stroke-linejoin:round" id="rect287" width="108.234" height="2.835" x="0" y="789.165" class="st22"/></g><g id="shape25-120" transform="matrix(-0.78441927,0.62023093,-0.62023093,-0.78441927,828.973,824.895)"><title id="title290">Process boundary.25</title><rect style="fill:#d26d19;stroke:none;stroke-width:.75;stroke-linecap:round;stroke-linejoin:round" id="rect292" width="61.67" height="2.835" x="0" y="789.165" class="st22"/></g><g id="shape4-122" transform="translate(148.5,-587.25)"><title id="title295">Rectangle</title><desc id="desc297">vport-0</desc><g style="visibility:visible" id="shadow4-123" class="st1" transform="translate(1.44,1.44)"><rect style="fill:#cdcdcd;fill-opacity:.5;stroke:#cdcdcd;stroke-linecap:round;stroke-linejoin:round;stroke-opacity:.5" id="rect300" width="45" height="15.75" x="0" y="776.25" class="st2"/></g><rect style="fill:#a6c3dd;stroke:#404040;stroke-width:.25;stroke-linecap:round;stroke-linejoin:round" id="rect302" width="45" height="15.75" x="0" y="776.25" class="st23"/><text style="font-size:10.00003242px;font-family:Calibri;fill:#000" id="text304" x="7.5" y="787.13" class="st7">v<tspan style="font-size:10.00003242px" id="tspan306" class="st8">port</tspan><tspan style="font-size:10.00003242px" id="tspan308" class="st8">-</tspan><tspan style="font-size:10.00003242px" id="tspan310" class="st8">0</tspan></text></g><g id="shape2-130" transform="translate(202.5,-587.25)"><title id="title313">Rectangle.2</title><desc id="desc315">vport-1</desc><g style="visibility:visible" id="shadow2-131" class="st1" transform="translate(1.44,1.44)"><rect style="fill:#cdcdcd;fill-opacity:.5;stroke:#cdcdcd;stroke-linecap:round;stroke-linejoin:round;stroke-opacity:.5" id="rect318" width="45" height="15.75" x="0" y="776.25" class="st2"/></g><rect style="fill:#a6c3dd;stroke:#404040;stroke-width:.25;stroke-linecap:round;stroke-linejoin:round" id="rect320" width="45" height="15.75" x="0" y="776.25" class="st23"/><text style="font-size:10.00003242px;font-family:Calibri;fill:#000" id="text322" x="7.5" y="787.13" class="st7">v<tspan style="font-size:10.00003242px" id="tspan324" class="st8">port</tspan><tspan style="font-size:10.00003242px" id="tspan326" class="st8">-</tspan><tspan style="font-size:10.00003242px" id="tspan328" class="st8">1</tspan></text></g><g id="shape6-138" transform="translate(317.25,-587.25)"><title id="title331">Rectangle.6</title><desc id="desc333">vport-0</desc><g style="visibility:visible" id="shadow6-139" class="st1" transform="translate(1.44,1.44)"><rect style="fill:#cdcdcd;fill-opacity:.5;stroke:#cdcdcd;stroke-linecap:round;stroke-linejoin:round;stroke-opacity:.5" id="rect336" width="42.75" height="15.75" x="0" y="776.25" class="st2"/></g><rect style="fill:#a6c3dd;stroke:#404040;stroke-width:.25;stroke-linecap:round;stroke-linejoin:round" id="rect338" width="42.75" height="15.75" x="0" y="776.25" class="st23"/><text style="font-size:10.00003242px;font-family:Calibri;fill:#000" id="text340" x="6.37" y="787.13" class="st7">v<tspan style="font-size:10.00003242px" id="tspan342" class="st8">port</tspan><tspan style="font-size:10.00003242px" id="tspan344" class="st8">-</tspan><tspan style="font-size:10.00003242px" id="tspan346" class="st8">0</tspan></text></g><g id="shape7-146" transform="translate(369,-587.25)"><title id="title349">Rectangle.7</title><desc id="desc351">vport-1</desc><g style="visibility:visible" id="shadow7-147" class="st1" transform="translate(1.44,1.44)"><rect style="fill:#cdcdcd;fill-opacity:.5;stroke:#cdcdcd;stroke-linecap:round;stroke-linejoin:round;stroke-opacity:.5" id="rect354" width="45" height="15.75" x="0" y="776.25" class="st2"/></g><rect style="fill:#a6c3dd;stroke:#404040;stroke-width:.25;stroke-linecap:round;stroke-linejoin:round" id="rect356" width="45" height="15.75" x="0" y="776.25" class="st23"/><text style="font-size:10.00003242px;font-family:Calibri;fill:#000" id="text358" x="7.5" y="787.13" class="st7">v<tspan style="font-size:10.00003242px" id="tspan360" class="st8">port</tspan><tspan style="font-size:10.00003242px" id="tspan362" class="st8">-</tspan><tspan style="font-size:10.00003242px" id="tspan364" class="st8">1</tspan></text></g><g id="shape37-154" transform="translate(234,-648)"><title id="title367">Sheet.37</title><desc id="desc369">Guest</desc><rect style="fill:none;stroke:none;stroke-width:.25;stroke-linecap:round;stroke-linejoin:round" id="rect371" width="108" height="18" x="0" y="774" class="st12"/><text style="font-weight:700;font-size:12.00012016px;font-family:Calibri;fill:#000" id="text373" x="39.46" y="786.6" class="st13">Guest</text></g><g id="shape38-157" transform="translate(324,-357.75)"><title id="title376">Rounded rectangle.38</title><desc id="desc378">TSO offload</desc><g style="visibility:visible" id="shadow38-158" class="st1" transform="translate(1.44,1.44)"><path style="fill:#cdcdcd;fill-opacity:.5;stroke:#cdcdcd;stroke-linecap:round;stroke-linejoin:round;stroke-opacity:.5" id="path381" d="M 65.25,792 A 6.75005,6.75005 -180 0 0 72,785.25 6.75005,6.75005 -180 0 0 65.25,778.5 l -58.5,0 A 6.75005,6.75005 -180 0 0 0,785.25 6.75005,6.75005 -180 0 0 6.75,792 l 58.5,0 z" class="st2"/></g><path style="fill:#92d050;stroke:#404040;stroke-width:.25;stroke-linecap:round;stroke-linejoin:round" id="path383" d="M 65.25,792 A 6.75005,6.75005 -180 0 0 72,785.25 6.75005,6.75005 -180 0 0 65.25,778.5 l -58.5,0 A 6.75005,6.75005 -180 0 0 0,785.25 6.75005,6.75005 -180 0 0 6.75,792 l 58.5,0 z" class="st6"/><text style="font-size:10.00003242px;font-family:Calibri;fill:#000" id="text385" x="12.33" y="788.25" class="st7">TSO offload</text></g></g></svg>