<svg xmlns="http://www.w3.org/2000/svg" xmlns:svg="http://www.w3.org/2000/svg" id="svg2" width="854.837" height="504.174" version="1.1"><metadata id="metadata7"/><g id="layer1" transform="translate(-102.91177,-430.74991)"><g id="1" transform="translate(105.20508,428.83072)"><path style="fill:#000;fill-opacity:1;fill-rule:nonzero;stroke:#000;stroke-width:.80000001px;stroke-linecap:butt;stroke-linejoin:bevel;stroke-opacity:1;stroke-dasharray:none" id="2" d="m 208.15,255.15 0,2.3 c 0,0.65 -0.55,1.15 -1.2,1.15 -0.6,0 -1.15,-0.5 -1.15,-1.15 l 0,-2.3 c 0,-0.65 0.55,-1.15 1.15,-1.15 0.65,0 1.2,0.5 1.2,1.15 z m 0,6.9 0,2.35 c 0,0.6 -0.55,1.15 -1.2,1.15 -0.6,0 -1.15,-0.55 -1.15,-1.15 l 0,-2.35 c 0,-0.6 0.55,-1.15 1.15,-1.15 0.65,0 1.2,0.55 1.2,1.15 z m 0,6.95 0,2.3 c 0,0.6 -0.55,1.15 -1.2,1.15 -0.6,0 -1.15,-0.55 -1.15,-1.15 l 0,-2.3 c 0,-0.65 0.55,-1.15 1.15,-1.15 0.65,0 1.2,0.5 1.2,1.15 z m 0,6.9 0,2.3 c 0,0.65 -0.55,1.15 -1.2,1.15 -0.6,0 -1.15,-0.5 -1.15,-1.15 l 0,-2.3 c 0,-0.65 0.55,-1.15 1.15,-1.15 0.65,0 1.2,0.5 1.2,1.15 z m 0,6.9 0,1.15 c 0,0.65 -0.55,1.15 -1.2,1.15 -0.6,0 -1.15,-0.5 -1.15,-1.15 l 0,-1.15 c 0,-0.65 0.55,-1.15 1.15,-1.15 0.65,0 1.2,0.5 1.2,1.15 z"/><path style="fill:#facca7;fill-opacity:1;fill-rule:evenodd;stroke:none" id="3" d="m 55.3,197.6 0,143.9 123.45,0 0,-143.9 -123.45,0 z"/><path style="fill:none;stroke:#000;stroke-width:2.29999995px;stroke-linecap:round;stroke-linejoin:round;stroke-opacity:1;stroke-dasharray:none" id="4" d="m 55.3,341.5 123.45,0 0,-143.9 -123.45,0 0,143.9 z"/><text style="font-size:19.20000076px;font-style:normal;font-weight:400;text-align:start;text-anchor:start;fill:#000;font-family:Arial" id="5" x="72" y="264" xml:space="preserve">NIC Port</text><text style="font-size:19.20000076px;font-style:normal;font-weight:400;text-align:start;text-anchor:start;fill:#000;font-family:Arial" id="6" x="151.2" y="264" xml:space="preserve">0</text><text style="font-size:19.20000076px;font-style:normal;font-weight:400;text-align:start;text-anchor:start;fill:#000;font-family:Arial" id="7" x="106.4" y="287.2" xml:space="preserve">RX</text><path style="fill:#facca7;fill-opacity:1;fill-rule:evenodd;stroke:none" id="8" d="m 672.6,197.6 0,143.9 123.5,0 0,-143.9 -123.5,0 z"/><path style="fill:none;stroke:#000;stroke-width:2.29999995px;stroke-linecap:round;stroke-linejoin:round;stroke-opacity:1;stroke-dasharray:none" id="9" d="m 672.6,341.5 123.5,0 0,-143.9 -123.5,0 0,143.9 z"/><text style="font-size:19.20000076px;font-style:normal;font-weight:400;text-align:start;text-anchor:start;fill:#000;font-family:Arial" id="10" x="689.6" y="264" xml:space="preserve">NIC Port</text><text style="font-size:19.20000076px;font-style:normal;font-weight:400;text-align:start;text-anchor:start;fill:#000;font-family:Arial" id="11" x="768.8" y="264" xml:space="preserve">0</text><text style="font-size:19.20000076px;font-style:normal;font-weight:400;text-align:start;text-anchor:start;fill:#000;font-family:Arial" id="12" x="722.4" y="287.2" xml:space="preserve">TX</text><text style="font-size:12.80000019px;font-style:italic;font-weight:400;text-align:start;text-anchor:start;fill:#000;font-family:Arial" id="13" x="251.2" y="14.4" xml:space="preserve">HW RX Queue</text><text style="font-size:12.80000019px;font-style:italic;font-weight:400;text-align:start;text-anchor:start;fill:#000;font-family:Arial" id="14" x="339.2" y="14.4" xml:space="preserve">0</text><text style="font-size:12.80000019px;font-style:italic;font-weight:400;text-align:start;text-anchor:start;fill:#000;font-family:Arial" id="15" x="252" y="30.4" xml:space="preserve">(</text><text style="font-size:12.80000019px;font-style:italic;font-weight:400;text-align:start;text-anchor:start;fill:#000;font-family:Arial" id="16" x="256" y="30.4" xml:space="preserve">VLAN</text><text style="font-size:12.80000019px;font-style:italic;font-weight:400;text-align:start;text-anchor:start;fill:#000;font-family:Arial" id="17" x="293.6" y="30.4" xml:space="preserve">0</text><text style="font-size:12.80000019px;font-style:italic;font-weight:400;text-align:start;text-anchor:start;fill:#000;font-family:Arial" id="18" x="300.8" y="30.4" xml:space="preserve">,</text><text style="font-size:12.80000019px;font-style:italic;font-weight:400;text-align:start;text-anchor:start;fill:#000;font-family:Arial" id="19" x="307.2" y="30.4" xml:space="preserve">Prio</text><text style="font-size:12.80000019px;font-style:italic;font-weight:400;text-align:start;text-anchor:start;fill:#000;font-family:Arial" id="20" x="333.6" y="30.4" xml:space="preserve">0</text><text style="font-size:12.80000019px;font-style:italic;font-weight:400;text-align:start;text-anchor:start;fill:#000;font-family:Arial" id="21" x="340.8" y="30.4" xml:space="preserve">)</text><text style="font-size:12.80000019px;font-style:italic;font-weight:400;text-align:start;text-anchor:start;fill:#000;font-family:Arial" id="22" x="530.4" y="89.6" xml:space="preserve">HW TX Queue</text><text style="font-size:12.80000019px;font-style:italic;font-weight:400;text-align:start;text-anchor:start;fill:#000;font-family:Arial" id="23" x="616.8" y="89.6" xml:space="preserve">0</text><text style="font-size:12.80000019px;font-style:italic;font-weight:400;text-align:start;text-anchor:start;fill:#000;font-family:Arial" id="24" x="530.4" y="406.4" xml:space="preserve">HW TX Queue</text><text style="font-size:12.80000019px;font-style:italic;font-weight:400;text-align:start;text-anchor:start;fill:#000;font-family:Arial" id="25" x="616.8" y="406.4" xml:space="preserve">15</text><path style="fill:#729fdc;fill-opacity:1;fill-rule:evenodd;stroke:none" id="26" d="m 390.4,63.3 0,95.9 123.45,0 0,-95.9 -123.45,0 z"/><path style="fill:none;stroke:#000;stroke-width:2.29999995px;stroke-linecap:round;stroke-linejoin:round;stroke-opacity:1;stroke-dasharray:none" id="27" d="m 390.4,159.2 123.45,0 0,-95.9 -123.45,0 0,95.9 z"/><text style="font-size:19.20000076px;font-style:normal;font-weight:400;text-align:start;text-anchor:start;fill:#000;font-family:Arial" id="28" x="398.4" y="105.6" xml:space="preserve">User Thread</text><text style="font-size:19.20000076px;font-style:normal;font-weight:400;text-align:start;text-anchor:start;fill:#000;font-family:Arial" id="29" x="446.4" y="128.8" xml:space="preserve">0</text><path style="fill:none;stroke:#000;stroke-width:2.29999995px;stroke-linecap:round;stroke-linejoin:round;stroke-opacity:1;stroke-dasharray:none" id="30" d="m 513.85,111.25 45.4,0"/><path style="fill:#000;fill-opacity:1;fill-rule:evenodd;stroke:none" id="31" d="m 566.8,111.25 -10,5 c 1.55,-3.15 1.55,-6.85 0,-10 l 10,5 z"/><path style="fill:#000;fill-opacity:1;fill-rule:nonzero;stroke:#000;stroke-width:.80000001px;stroke-linecap:butt;stroke-linejoin:bevel;stroke-opacity:1;stroke-dasharray:none" id="32" d="m 310.45,88.85 0,2.3 c 0,0.65 -0.55,1.15 -1.2,1.15 -0.6,0 -1.15,-0.5 -1.15,-1.15 l 0,-2.3 c 0,-0.65 0.55,-1.15 1.15,-1.15 0.65,0 1.2,0.5 1.2,1.15 z m 0,6.9 0,2.35 c 0,0.6 -0.55,1.15 -1.2,1.15 -0.6,0 -1.15,-0.55 -1.15,-1.15 l 0,-2.35 c 0,-0.6 0.55,-1.15 1.15,-1.15 0.65,0 1.2,0.55 1.2,1.15 z m 0,6.95 0,2.15 c 0,0.65 -0.55,1.15 -1.2,1.15 -0.6,0 -1.15,-0.5 -1.15,-1.15 l 0,-2.15 c 0,-0.65 0.55,-1.15 1.15,-1.15 0.65,0 1.2,0.5 1.2,1.15 z"/><path style="fill:none;stroke:#000;stroke-width:2.29999995px;stroke-linecap:round;stroke-linejoin:round;stroke-opacity:1;stroke-dasharray:none" id="33" d="m 362.2,133.65 20.65,0"/><path style="fill:#000;fill-opacity:1;fill-rule:evenodd;stroke:none" id="34" d="m 390.4,133.65 -10,5 c 1.6,-3.15 1.6,-6.85 0,-10 l 0,0 10,5 z"/><path style="fill:none;stroke:#000;stroke-width:2.29999995px;stroke-linecap:round;stroke-linejoin:round;stroke-opacity:1;stroke-dasharray:none" id="35" d="m 362.2,133.65 0,31.95 -24.7,0"/><path style="fill:none;stroke:#000;stroke-width:2.29999995px;stroke-linecap:round;stroke-linejoin:round;stroke-opacity:1;stroke-dasharray:none" id="36" d="m 362.2,85.65 20.65,0"/><path style="fill:#000;fill-opacity:1;fill-rule:evenodd;stroke:none" id="37" d="m 390.4,85.65 -10,-5 c 1.6,3.15 1.6,6.85 0,10 l 0,0 10,-5 z"/><path style="fill:none;stroke:#000;stroke-width:2.29999995px;stroke-linecap:round;stroke-linejoin:round;stroke-opacity:1;stroke-dasharray:none" id="38" d="m 362.2,85.65 0,-31.95 -24.7,0"/><path style="fill:none;stroke:#000;stroke-width:2.29999995px;stroke-linecap:round;stroke-linejoin:round;stroke-opacity:1;stroke-dasharray:none" id="39" d="m 644.4,245.55 20.65,0"/><path style="fill:#000;fill-opacity:1;fill-rule:evenodd;stroke:none" id="40" d="m 672.6,245.55 -9.95,-5 c 1.55,3.15 1.55,6.85 0,10 l 9.95,-5 z"/><path style="fill:none;stroke:#000;stroke-width:2.29999995px;stroke-linecap:round;stroke-linejoin:round;stroke-opacity:1;stroke-dasharray:none" id="41" d="m 644.4,245.55 0,-134.3 -24.7,0"/><path style="fill:none;stroke:#000;stroke-width:2.29999995px;stroke-linecap:round;stroke-linejoin:round;stroke-opacity:1;stroke-dasharray:none" id="42" d="m 270.85,165.6 -23.3,0 0,79.95 -68.8,0"/><path style="fill:#000;fill-opacity:1;fill-rule:evenodd;stroke:none" id="43" d="m 269.6,160.6 15,5 -15,5 0,-10 z"/><path style="fill:none;stroke:#000;stroke-width:2.29999995px;stroke-linecap:round;stroke-linejoin:round;stroke-opacity:1;stroke-dasharray:none" id="44" d="m 178.75,220 26.45,0 0,-166.3 65.65,0"/><path style="fill:#000;fill-opacity:1;fill-rule:evenodd;stroke:none" id="45" d="m 269.6,48.7 15,5 -15,4.95 0,-9.95 z"/><path style="fill:#729fdc;fill-opacity:1;fill-rule:evenodd;stroke:none" id="46" d="m 390.4,379.9 0,95.95 123.45,0 0,-95.95 -123.45,0 z"/><path style="fill:none;stroke:#000;stroke-width:2.29999995px;stroke-linecap:round;stroke-linejoin:round;stroke-opacity:1;stroke-dasharray:none" id="47" d="m 390.4,379.9 123.45,0 0,95.95 -123.45,0 0,-95.95 z"/><text style="font-size:19.20000076px;font-style:normal;font-weight:400;text-align:start;text-anchor:start;fill:#000;font-family:Arial" id="48" x="398.4" y="422.4" xml:space="preserve">User Thread</text><text style="font-size:19.20000076px;font-style:normal;font-weight:400;text-align:start;text-anchor:start;fill:#000;font-family:Arial" id="49" x="441.6" y="444.8" xml:space="preserve">15</text><path style="fill:none;stroke:#000;stroke-width:2.29999995px;stroke-linecap:round;stroke-linejoin:round;stroke-opacity:1;stroke-dasharray:none" id="50" d="m 513.85,427.85 45.4,0"/><path style="fill:#000;fill-opacity:1;fill-rule:evenodd;stroke:none" id="51" d="m 566.8,427.85 -10,-5 c 1.55,3.15 1.55,6.85 0,10 l 10,-5 z"/><path style="fill:#000;fill-opacity:1;fill-rule:nonzero;stroke:#000;stroke-width:.80000001px;stroke-linecap:butt;stroke-linejoin:bevel;stroke-opacity:1;stroke-dasharray:none" id="52" d="m 308.1,421.45 0,-2.3 c 0,-0.65 0.55,-1.15 1.15,-1.15 0.65,0 1.2,0.5 1.2,1.15 l 0,2.3 c 0,0.65 -0.55,1.15 -1.2,1.15 -0.6,0 -1.15,-0.5 -1.15,-1.15 z m 0,-6.9 0,-2.3 c 0,-0.65 0.55,-1.15 1.15,-1.15 0.65,0 1.2,0.5 1.2,1.15 l 0,2.3 c 0,0.65 -0.55,1.15 -1.2,1.15 -0.6,0 -1.15,-0.5 -1.15,-1.15 z m 0,-6.9 0,-2.2 c 0,-0.6 0.55,-1.15 1.15,-1.15 0.65,0 1.2,0.55 1.2,1.15 l 0,2.2 c 0,0.6 -0.55,1.15 -1.2,1.15 -0.6,0 -1.15,-0.55 -1.15,-1.15 z"/><path style="fill:none;stroke:#000;stroke-width:2.29999995px;stroke-linecap:round;stroke-linejoin:round;stroke-opacity:1;stroke-dasharray:none" id="53" d="m 362.2,405.45 20.65,0"/><path style="fill:#000;fill-opacity:1;fill-rule:evenodd;stroke:none" id="54" d="m 390.4,405.45 -10,-4.95 c 1.6,3.1 1.6,6.8 0,9.95 l 0,0 10,-5 z"/><path style="fill:none;stroke:#000;stroke-width:2.29999995px;stroke-linecap:round;stroke-linejoin:round;stroke-opacity:1;stroke-dasharray:none" id="55" d="m 362.2,405.45 0,-31.95 -24.7,0"/><path style="fill:none;stroke:#000;stroke-width:2.29999995px;stroke-linecap:round;stroke-linejoin:round;stroke-opacity:1;stroke-dasharray:none" id="56" d="m 362.2,453.45 20.65,0"/><path style="fill:#000;fill-opacity:1;fill-rule:evenodd;stroke:none" id="57" d="m 390.4,453.45 -10,5 c 1.6,-3.15 1.6,-6.85 0,-10 l 0,0 10,5 z"/><path style="fill:none;stroke:#000;stroke-width:2.29999995px;stroke-linecap:round;stroke-linejoin:round;stroke-opacity:1;stroke-dasharray:none" id="58" d="m 362.2,453.45 0,31.95 -24.7,0"/><path style="fill:none;stroke:#000;stroke-width:2.29999995px;stroke-linecap:round;stroke-linejoin:round;stroke-opacity:1;stroke-dasharray:none" id="59" d="m 644.4,293.55 20.65,0"/><path style="fill:#000;fill-opacity:1;fill-rule:evenodd;stroke:none" id="60" d="m 672.6,293.55 -9.95,5 c 1.55,-3.15 1.55,-6.85 0,-10 l 9.95,5 z"/><path style="fill:none;stroke:#000;stroke-width:2.29999995px;stroke-linecap:round;stroke-linejoin:round;stroke-opacity:1;stroke-dasharray:none" id="61" d="m 644.4,293.55 0,134.3 -24.7,0"/><path style="fill:none;stroke:#000;stroke-width:2.29999995px;stroke-linecap:round;stroke-linejoin:round;stroke-opacity:1;stroke-dasharray:none" id="62" d="m 270.85,373.5 -23.3,0 0,-79.95 -68.8,0"/><path style="fill:#000;fill-opacity:1;fill-rule:evenodd;stroke:none" id="63" d="m 269.6,378.5 15,-5 -15,-5 0,10 z"/><path style="fill:none;stroke:#000;stroke-width:2.29999995px;stroke-linecap:round;stroke-linejoin:round;stroke-opacity:1;stroke-dasharray:none" id="64" d="m 178.75,319.1 26.45,0 0,166.3 65.65,0"/><path style="fill:#000;fill-opacity:1;fill-rule:evenodd;stroke:none" id="65" d="m 269.6,490.4 15,-5 -15,-4.95 0,9.95 z"/><text style="font-size:12.80000019px;font-style:italic;font-weight:400;text-align:start;text-anchor:start;fill:#000;font-family:Arial" id="66" x="251.2" y="126.4" xml:space="preserve">HW RX Queue</text><text style="font-size:12.80000019px;font-style:italic;font-weight:400;text-align:start;text-anchor:start;fill:#000;font-family:Arial" id="67" x="339.2" y="126.4" xml:space="preserve">7</text><text style="font-size:12.80000019px;font-style:italic;font-weight:400;text-align:start;text-anchor:start;fill:#000;font-family:Arial" id="68" x="252" y="141.6" xml:space="preserve">(</text><text style="font-size:12.80000019px;font-style:italic;font-weight:400;text-align:start;text-anchor:start;fill:#000;font-family:Arial" id="69" x="256" y="141.6" xml:space="preserve">VLAN</text><text style="font-size:12.80000019px;font-style:italic;font-weight:400;text-align:start;text-anchor:start;fill:#000;font-family:Arial" id="70" x="293.6" y="141.6" xml:space="preserve">0</text><text style="font-size:12.80000019px;font-style:italic;font-weight:400;text-align:start;text-anchor:start;fill:#000;font-family:Arial" id="71" x="300.8" y="141.6" xml:space="preserve">,</text><text style="font-size:12.80000019px;font-style:italic;font-weight:400;text-align:start;text-anchor:start;fill:#000;font-family:Arial" id="72" x="307.2" y="141.6" xml:space="preserve">Prio</text><text style="font-size:12.80000019px;font-style:italic;font-weight:400;text-align:start;text-anchor:start;fill:#000;font-family:Arial" id="73" x="333.6" y="141.6" xml:space="preserve">7</text><text style="font-size:12.80000019px;font-style:italic;font-weight:400;text-align:start;text-anchor:start;fill:#000;font-family:Arial" id="74" x="340.8" y="141.6" xml:space="preserve">)</text><text style="font-size:12.80000019px;font-style:italic;font-weight:400;text-align:start;text-anchor:start;fill:#000;font-family:Arial" id="75" x="264.8" y="334.4" xml:space="preserve">HW RX Queue</text><text style="font-size:12.80000019px;font-style:italic;font-weight:400;text-align:start;text-anchor:start;fill:#000;font-family:Arial" id="76" x="353.6" y="334.4" xml:space="preserve">120</text><text style="font-size:12.80000019px;font-style:italic;font-weight:400;text-align:start;text-anchor:start;fill:#000;font-family:Arial" id="77" x="269.6" y="349.6" xml:space="preserve">(</text><text style="font-size:12.80000019px;font-style:italic;font-weight:400;text-align:start;text-anchor:start;fill:#000;font-family:Arial" id="78" x="273.6" y="349.6" xml:space="preserve">VLAN</text><text style="font-size:12.80000019px;font-style:italic;font-weight:400;text-align:start;text-anchor:start;fill:#000;font-family:Arial" id="79" x="311.2" y="349.6" xml:space="preserve">15</text><text style="font-size:12.80000019px;font-style:italic;font-weight:400;text-align:start;text-anchor:start;fill:#000;font-family:Arial" id="80" x="324.8" y="349.6" xml:space="preserve">,</text><text style="font-size:12.80000019px;font-style:italic;font-weight:400;text-align:start;text-anchor:start;fill:#000;font-family:Arial" id="81" x="332" y="349.6" xml:space="preserve">Prio</text><text style="font-size:12.80000019px;font-style:italic;font-weight:400;text-align:start;text-anchor:start;fill:#000;font-family:Arial" id="82" x="358.4" y="349.6" xml:space="preserve">0</text><text style="font-size:12.80000019px;font-style:italic;font-weight:400;text-align:start;text-anchor:start;fill:#000;font-family:Arial" id="83" x="365.6" y="349.6" xml:space="preserve">)</text><text style="font-size:12.80000019px;font-style:italic;font-weight:400;text-align:start;text-anchor:start;fill:#000;font-family:Arial" id="84" x="240" y="446.4" xml:space="preserve">HW RX Queue</text><text style="font-size:12.80000019px;font-style:italic;font-weight:400;text-align:start;text-anchor:start;fill:#000;font-family:Arial" id="85" x="328.8" y="446.4" xml:space="preserve">127</text><text style="font-size:12.80000019px;font-style:italic;font-weight:400;text-align:start;text-anchor:start;fill:#000;font-family:Arial" id="86" x="244.8" y="461.6" xml:space="preserve">(</text><text style="font-size:12.80000019px;font-style:italic;font-weight:400;text-align:start;text-anchor:start;fill:#000;font-family:Arial" id="87" x="249.6" y="461.6" xml:space="preserve">VLAN</text><text style="font-size:12.80000019px;font-style:italic;font-weight:400;text-align:start;text-anchor:start;fill:#000;font-family:Arial" id="88" x="286.4" y="461.6" xml:space="preserve">15</text><text style="font-size:12.80000019px;font-style:italic;font-weight:400;text-align:start;text-anchor:start;fill:#000;font-family:Arial" id="89" x="300.8" y="461.6" xml:space="preserve">,</text><text style="font-size:12.80000019px;font-style:italic;font-weight:400;text-align:start;text-anchor:start;fill:#000;font-family:Arial" id="90" x="307.2" y="461.6" xml:space="preserve">Prio</text><text style="font-size:12.80000019px;font-style:italic;font-weight:400;text-align:start;text-anchor:start;fill:#000;font-family:Arial" id="91" x="333.6" y="461.6" xml:space="preserve">7</text><text style="font-size:12.80000019px;font-style:italic;font-weight:400;text-align:start;text-anchor:start;fill:#000;font-family:Arial" id="92" x="340.8" y="461.6" xml:space="preserve">)</text><path style="fill:#000;fill-opacity:1;fill-rule:nonzero;stroke:#000;stroke-width:.80000001px;stroke-linecap:butt;stroke-linejoin:bevel;stroke-opacity:1;stroke-dasharray:none" id="93" d="m 652.6,255.15 0,2.3 c 0,0.65 -0.5,1.15 -1.15,1.15 -0.65,0 -1.15,-0.5 -1.15,-1.15 l 0,-2.3 c 0,-0.65 0.5,-1.15 1.15,-1.15 0.65,0 1.15,0.5 1.15,1.15 z m 0,6.9 0,2.35 c 0,0.6 -0.5,1.15 -1.15,1.15 -0.65,0 -1.15,-0.55 -1.15,-1.15 l 0,-2.35 c 0,-0.6 0.5,-1.15 1.15,-1.15 0.65,0 1.15,0.55 1.15,1.15 z m 0,6.95 0,2.3 c 0,0.6 -0.5,1.15 -1.15,1.15 -0.65,0 -1.15,-0.55 -1.15,-1.15 l 0,-2.3 c 0,-0.65 0.5,-1.15 1.15,-1.15 0.65,0 1.15,0.5 1.15,1.15 z m 0,6.9 0,2.3 c 0,0.65 -0.5,1.15 -1.15,1.15 -0.65,0 -1.15,-0.5 -1.15,-1.15 l 0,-2.3 c 0,-0.65 0.5,-1.15 1.15,-1.15 0.65,0 1.15,0.5 1.15,1.15 z m 0,6.9 0,1.15 c 0,0.65 -0.5,1.15 -1.15,1.15 -0.65,0 -1.15,-0.5 -1.15,-1.15 l 0,-1.15 c 0,-0.65 0.5,-1.15 1.15,-1.15 0.65,0 1.15,0.5 1.15,1.15 z"/><path style="fill:#f28226;fill-opacity:1;fill-rule:evenodd;stroke:none" id="94" d="m 302.2,37.7 0,31.95 17.65,0 0,-31.95 -17.65,0 z"/><path style="fill:none;stroke:#000;stroke-width:2.29999995px;stroke-linecap:round;stroke-linejoin:round;stroke-opacity:1;stroke-dasharray:none" id="95" d="m 302.2,69.65 17.65,0 0,-31.95 -17.65,0 0,31.95 z"/><path style="fill:#f28226;fill-opacity:1;fill-rule:evenodd;stroke:none" id="96" d="m 319.85,37.7 0,31.95 17.65,0 0,-31.95 -17.65,0 z"/><path style="fill:none;stroke:#000;stroke-width:2.29999995px;stroke-linecap:round;stroke-linejoin:round;stroke-opacity:1;stroke-dasharray:none" id="97" d="m 319.85,69.65 17.65,0 0,-31.95 -17.65,0 0,31.95 z"/><path style="fill:none;stroke:#000;stroke-width:2.29999995px;stroke-linecap:round;stroke-linejoin:round;stroke-opacity:1;stroke-dasharray:none" id="98" d="m 284.6,69.65 16.75,0"/><path style="fill:none;stroke:#000;stroke-width:2.29999995px;stroke-linecap:round;stroke-linejoin:round;stroke-opacity:1;stroke-dasharray:none" id="99" d="m 285.45,37.7 16.75,0"/><path style="fill:#f28226;fill-opacity:1;fill-rule:evenodd;stroke:none" id="100" d="m 302.2,149.6 0,32 17.65,0 0,-32 -17.65,0 z"/><path style="fill:none;stroke:#000;stroke-width:2.29999995px;stroke-linecap:round;stroke-linejoin:round;stroke-opacity:1;stroke-dasharray:none" id="101" d="m 302.2,181.6 17.65,0 0,-32 -17.65,0 0,32 z"/><path style="fill:#f28226;fill-opacity:1;fill-rule:evenodd;stroke:none" id="102" d="m 319.85,149.6 0,32 17.65,0 0,-32 -17.65,0 z"/><path style="fill:none;stroke:#000;stroke-width:2.29999995px;stroke-linecap:round;stroke-linejoin:round;stroke-opacity:1;stroke-dasharray:none" id="103" d="m 319.85,181.6 17.65,0 0,-32 -17.65,0 0,32 z"/><path style="fill:none;stroke:#000;stroke-width:2.29999995px;stroke-linecap:round;stroke-linejoin:round;stroke-opacity:1;stroke-dasharray:none" id="104" d="m 284.6,181.6 16.75,0"/><path style="fill:none;stroke:#000;stroke-width:2.29999995px;stroke-linecap:round;stroke-linejoin:round;stroke-opacity:1;stroke-dasharray:none" id="105" d="m 285.45,149.6 16.75,0"/><path style="fill:#f28226;fill-opacity:1;fill-rule:evenodd;stroke:none" id="106" d="m 584.4,95.25 0,32 17.65,0 0,-32 -17.65,0 z"/><path style="fill:none;stroke:#000;stroke-width:2.29999995px;stroke-linecap:round;stroke-linejoin:round;stroke-opacity:1;stroke-dasharray:none" id="107" d="m 584.4,127.25 17.65,0 0,-32 -17.65,0 0,32 z"/><path style="fill:#f28226;fill-opacity:1;fill-rule:evenodd;stroke:none" id="108" d="m 602.05,95.25 0,32 17.65,0 0,-32 -17.65,0 z"/><path style="fill:none;stroke:#000;stroke-width:2.29999995px;stroke-linecap:round;stroke-linejoin:round;stroke-opacity:1;stroke-dasharray:none" id="109" d="m 602.05,127.25 17.65,0 0,-32 -17.65,0 0,32 z"/><path style="fill:none;stroke:#000;stroke-width:2.29999995px;stroke-linecap:round;stroke-linejoin:round;stroke-opacity:1;stroke-dasharray:none" id="110" d="m 566.8,127.25 16.75,0"/><path style="fill:none;stroke:#000;stroke-width:2.29999995px;stroke-linecap:round;stroke-linejoin:round;stroke-opacity:1;stroke-dasharray:none" id="111" d="m 567.65,95.25 16.75,0"/><path style="fill:#f28226;fill-opacity:1;fill-rule:evenodd;stroke:none" id="112" d="m 302.2,357.5 0,32 17.65,0 0,-32 -17.65,0 z"/><path style="fill:none;stroke:#000;stroke-width:2.29999995px;stroke-linecap:round;stroke-linejoin:round;stroke-opacity:1;stroke-dasharray:none" id="113" d="m 302.2,389.5 17.65,0 0,-32 -17.65,0 0,32 z"/><path style="fill:#f28226;fill-opacity:1;fill-rule:evenodd;stroke:none" id="114" d="m 319.85,357.5 0,32 17.65,0 0,-32 -17.65,0 z"/><path style="fill:none;stroke:#000;stroke-width:2.29999995px;stroke-linecap:round;stroke-linejoin:round;stroke-opacity:1;stroke-dasharray:none" id="115" d="m 319.85,389.5 17.65,0 0,-32 -17.65,0 0,32 z"/><path style="fill:none;stroke:#000;stroke-width:2.29999995px;stroke-linecap:round;stroke-linejoin:round;stroke-opacity:1;stroke-dasharray:none" id="116" d="m 284.6,389.5 16.75,0"/><path style="fill:none;stroke:#000;stroke-width:2.29999995px;stroke-linecap:round;stroke-linejoin:round;stroke-opacity:1;stroke-dasharray:none" id="117" d="m 285.45,357.5 16.75,0"/><path style="fill:#f28226;fill-opacity:1;fill-rule:evenodd;stroke:none" id="118" d="m 302.2,469.45 0,31.95 17.65,0 0,-31.95 -17.65,0 z"/><path style="fill:none;stroke:#000;stroke-width:2.29999995px;stroke-linecap:round;stroke-linejoin:round;stroke-opacity:1;stroke-dasharray:none" id="119" d="m 302.2,501.4 17.65,0 0,-31.95 -17.65,0 0,31.95 z"/><path style="fill:#f28226;fill-opacity:1;fill-rule:evenodd;stroke:none" id="120" d="m 319.85,469.45 0,31.95 17.65,0 0,-31.95 -17.65,0 z"/><path style="fill:none;stroke:#000;stroke-width:2.29999995px;stroke-linecap:round;stroke-linejoin:round;stroke-opacity:1;stroke-dasharray:none" id="121" d="m 319.85,501.4 17.65,0 0,-31.95 -17.65,0 0,31.95 z"/><path style="fill:none;stroke:#000;stroke-width:2.29999995px;stroke-linecap:round;stroke-linejoin:round;stroke-opacity:1;stroke-dasharray:none" id="122" d="m 284.6,501.4 16.75,0"/><path style="fill:none;stroke:#000;stroke-width:2.29999995px;stroke-linecap:round;stroke-linejoin:round;stroke-opacity:1;stroke-dasharray:none" id="123" d="m 285.45,469.45 16.75,0"/><path style="fill:#f28226;fill-opacity:1;fill-rule:evenodd;stroke:none" id="124" d="m 584.4,411.85 0,32 17.65,0 0,-32 -17.65,0 z"/><path style="fill:none;stroke:#000;stroke-width:2.29999995px;stroke-linecap:round;stroke-linejoin:round;stroke-opacity:1;stroke-dasharray:none" id="125" d="m 584.4,443.85 17.65,0 0,-32 -17.65,0 0,32 z"/><path style="fill:#f28226;fill-opacity:1;fill-rule:evenodd;stroke:none" id="126" d="m 602.05,411.85 0,32 17.65,0 0,-32 -17.65,0 z"/><path style="fill:none;stroke:#000;stroke-width:2.29999995px;stroke-linecap:round;stroke-linejoin:round;stroke-opacity:1;stroke-dasharray:none" id="127" d="m 602.05,443.85 17.65,0 0,-32 -17.65,0 0,32 z"/><path style="fill:none;stroke:#000;stroke-width:2.29999995px;stroke-linecap:round;stroke-linejoin:round;stroke-opacity:1;stroke-dasharray:none" id="128" d="m 566.8,443.85 16.75,0"/><path style="fill:none;stroke:#000;stroke-width:2.29999995px;stroke-linecap:round;stroke-linejoin:round;stroke-opacity:1;stroke-dasharray:none" id="129" d="m 567.65,411.85 16.75,0"/><path style="fill:none;stroke:#000;stroke-width:2.29999995px;stroke-linecap:round;stroke-linejoin:round;stroke-opacity:1;stroke-dasharray:none" id="130" d="m 2.4,268.6 45.35,0"/><path style="fill:#000;fill-opacity:1;fill-rule:evenodd;stroke:none" id="131" d="m 55.3,268.6 -10,5 c 1.6,-3.15 1.6,-6.85 0,-10 l 0,0 10,5 z"/><path style="fill:none;stroke:#000;stroke-width:2.29999995px;stroke-linecap:round;stroke-linejoin:round;stroke-opacity:1;stroke-dasharray:none" id="132" d="m 796.1,268.6 45.35,0"/><path style="fill:#000;fill-opacity:1;fill-rule:evenodd;stroke:none" id="133" d="m 849,268.6 -10,5 c 1.6,-3.15 1.6,-6.85 0,-10 l 0,0 10,5 z"/></g></g></svg>