<svg xmlns="http://www.w3.org/2000/svg" xmlns:xlink="http://www.w3.org/1999/xlink" width="16cm" height="4cm" viewBox="-1 -1 309 75"><g><polyline points="159.661 12.676 141.655 12.676 141.655 35.561 88.156 35.561 88.156 44.925" style="fill:none;fill-opacity:0;stroke-width:1;stroke:#000"/><polygon points="88.156 49.425 85.156 43.425 88.156 44.925 91.156 43.425" style="fill:#000"/><polygon points="88.156 49.425 85.156 43.425 88.156 44.925 91.156 43.425" style="fill:none;fill-opacity:0;stroke-width:1;stroke:#000"/></g><g><polyline points="159.661 12.676 176.28 12.676 176.28 35.561 281.681 35.561 281.681 44.925" style="fill:none;fill-opacity:0;stroke-width:1;stroke:#000"/><polygon points="281.681 49.425 278.681 43.425 281.681 44.925 284.681 43.425" style="fill:#000"/><polygon points="281.681 49.425 278.681 43.425 281.681 44.925 284.681 43.425" style="fill:none;fill-opacity:0;stroke-width:1;stroke:#000"/></g><g><rect width="67.19" height="23.39" x="126.066" y=".981" style="fill:#fff"/><rect width="67.19" height="23.39" x="126.066" y=".981" style="fill:none;fill-opacity:0;stroke-width:2;stroke:#000"/></g><text x="159.661" y="17.126" font-size="12.8" style="fill:#000;text-anchor:middle;font-family:sans-serif;font-style:normal;font-weight:400"><tspan x="159.661" y="17.126">Port N</tspan></text><g><rect width="51.211" height="22.093" x="62.55" y="51.548" style="fill:#fff"/><rect width="51.211" height="22.093" x="62.55" y="51.548" style="fill:none;fill-opacity:0;stroke-width:2;stroke:#000"/></g><text x="88.156" y="67.044" font-size="12.8" style="fill:#000;text-anchor:middle;font-family:sans-serif;font-style:normal;font-weight:400"><tspan x="88.156" y="67.044">Txq 0</tspan></text><g><rect width="51.121" height="22.478" x="134.1" y="51.355" style="fill:#fff"/><rect width="51.121" height="22.478" x="134.1" y="51.355" style="fill:none;fill-opacity:0;stroke-width:2;stroke:#000"/></g><text x="159.661" y="67.044" font-size="12.8" style="fill:#000;text-anchor:middle;font-family:sans-serif;font-style:normal;font-weight:400"><tspan x="159.661" y="67.044">Txq 1</tspan></text><g><rect width="50.531" height="22.093" x="256.416" y="51.548" style="fill:#fff"/><rect width="50.531" height="22.093" x="256.416" y="51.548" style="fill:none;fill-opacity:0;stroke-width:2;stroke:#000"/></g><text x="281.681" y="67.044" font-size="12.8" style="fill:#000;text-anchor:middle;font-family:sans-serif;font-style:normal;font-weight:400"><tspan x="281.681" y="67.044">Txq M</tspan></text><text x="-.538" y="17.126" font-size="12.8" style="fill:#000;text-anchor:start;font-family:sans-serif;font-style:normal;font-weight:400"><tspan x="-.538" y="17.126">Level 0:</tspan></text><text x="-.747" y="67.044" font-size="12.8" style="fill:#000;text-anchor:start;font-family:sans-serif;font-style:normal;font-weight:400"><tspan x="-.747" y="67.044">Level 1:</tspan></text><g><ellipse cx="207.645" cy="62.594" rx=".425" ry=".425" style="fill:#000"/><ellipse cx="207.645" cy="62.594" rx=".425" ry=".425" style="fill:none;fill-opacity:0;stroke-width:2;stroke:#000"/></g><g><ellipse cx="219.525" cy="62.594" rx=".425" ry=".425" style="fill:#000"/><ellipse cx="219.525" cy="62.594" rx=".425" ry=".425" style="fill:none;fill-opacity:0;stroke-width:2;stroke:#000"/></g><g><ellipse cx="231.405" cy="62.594" rx=".425" ry=".425" style="fill:#000"/><ellipse cx="231.405" cy="62.594" rx=".425" ry=".425" style="fill:none;fill-opacity:0;stroke-width:2;stroke:#000"/></g><g><line x1="159.661" x2="159.661" y1="24.371" y2="45.737" style="fill:none;fill-opacity:0;stroke-width:1;stroke:#000"/><polygon points="159.661 50.237 156.661 44.237 159.661 45.737 162.661 44.237" style="fill:#000"/><polygon points="159.661 50.237 156.661 44.237 159.661 45.737 162.661 44.237" style="fill:none;fill-opacity:0;stroke-width:1;stroke:#000"/></g></svg>