<svg xmlns="http://www.w3.org/2000/svg" xmlns:svg="http://www.w3.org/2000/svg" id="svg2" fill="none" stroke="none" stroke-linecap="square" stroke-miterlimit="10" version="1.1" viewBox="0 0 568.732 352.394"><metadata id="metadata65"/><clipPath id="p.0"><path id="path5" d="m0 0l568.7323 0l0 352.3937l-568.7323 0l0 -352.3937z" clip-rule="nonzero"/></clipPath><g id="g7" clip-path="url(#p.0)"><path id="path9" fill="#000" fill-opacity="0" fill-rule="evenodd" d="m0 0l568.7323 0l0 352.3937l-568.7323 0z"/><path id="path11" d="m 40.564137,14.365075 254.362203,0 0,131.842535 -254.362203,0 z" style="fill:#47c3d3;fill-rule:evenodd"/><path id="path15" d="m 54.075948,146.2076 227.338592,0 0,32.94488 -227.338592,0 z" style="fill:#c2c2c2;fill-rule:evenodd"/><path id="path19" d="m 321.90535,146.2076 227.33856,0 0,32.94488 -227.33856,0 z" style="fill:#c2c2c2;fill-rule:evenodd"/><path id="path23" d="m 440.30217,146.24338 -11.82364,-20.50632 6.86313,0 0,-44.550399 -120.12924,0 0,6.938519 -20.28345,-11.953539 20.28345,-11.953547 0,6.93852 130.0503,0 0,54.580446 6.8631,0 z" style="fill:#9a9a9a;fill-rule:evenodd"/><path id="path25" d="m 112.39353,263.09765 0,0 c 0,-8.08875 6.55722,-14.64597 14.64597,-14.64597 l 58.58208,0 0,0 c 3.88435,0 7.60962,1.54305 10.35626,4.28971 2.74666,2.74664 4.28971,6.47189 4.28971,10.35626 l 0,58.58209 c 0,8.08875 -6.55722,14.64597 -14.64597,14.64597 l -58.58208,0 c -8.08875,0 -14.64597,-6.55722 -14.64597,-14.64597 z" style="fill:#c2c2c2;fill-rule:evenodd"/><path id="path29" d="m 391.63763,263.09765 0,0 c 0,-8.08875 6.55722,-14.64597 14.64597,-14.64597 l 58.58209,0 0,0 c 3.88437,0 7.60962,1.54305 10.35626,4.28971 2.74664,2.74664 4.2897,6.47189 4.2897,10.35626 l 0,58.58209 c 0,8.08875 -6.55722,14.64597 -14.64596,14.64597 l -58.58209,0 c -8.08875,0 -14.64597,-6.55722 -14.64597,-14.64597 z" style="fill:#c2c2c2;fill-rule:evenodd"/><path id="path33" d="m 135.20981,199.01075 19.85826,-19.85826 19.85828,19.85826 -9.92914,0 0,29.5748 9.92914,0 -19.85828,19.85827 -19.85826,-19.85827 9.92914,0 0,-29.5748 z" style="fill:#9a9a9a;fill-rule:evenodd"/><path id="path35" d="m 415.71635,199.01064 19.85828,-19.85826 19.85827,19.85826 -9.92914,0 0,29.57481 9.92914,0 -19.85827,19.85826 -19.85828,-19.85826 9.92914,0 0,-29.57481 z" style="fill:#9a9a9a;fill-rule:evenodd"/><path id="path37" d="m 15.205,31.273212 74.362206,0 0,32.944885 -74.362206,0 z" style="fill:#ff8434;fill-rule:evenodd"/><path id="path41" d="m 16.05531,80.231216 74.3622,0 0,32.944884 -74.3622,0 z" style="fill:#ff8434;fill-rule:evenodd"/><path id="path45" d="m 275.44377,174.07111 0,111.55905 -37.16536,0 0,-111.55905 z" style="fill:#ff8434;fill-rule:evenodd"/><path id="path49" d="m 97.923493,174.07111 0,111.55905 -37.16535,0 0,-111.55905 z" style="fill:#ff8434;fill-rule:evenodd"/><path id="path53" d="m 366.27543,174.07111 0,111.55905 -37.16537,0 0,-111.55905 z" style="fill:#ff8434;fill-rule:evenodd"/><path id="path57" d="m 542.0392,174.07111 0,111.55905 -37.16534,0 0,-111.55905 z" style="fill:#ff8434;fill-rule:evenodd"/><text id="text4480" x="24.426" y="54.571" xml:space="preserve" style="font-style:normal;font-weight:400;font-size:18.75px;line-height:125%;font-family:sans-serif;letter-spacing:0;word-spacing:0;fill:#000;fill-opacity:1;stroke:none;stroke-width:1px;stroke-linecap:butt;stroke-linejoin:miter;stroke-opacity:1"><tspan id="tspan4482" x="24.426" y="54.571">ETH 0</tspan></text><text id="text4480-3" x="25.519" y="103.538" xml:space="preserve" style="font-style:normal;font-weight:400;font-size:20px;line-height:125%;font-family:sans-serif;letter-spacing:0;word-spacing:0;fill:#000;fill-opacity:1;stroke:none;stroke-width:1px;stroke-linecap:butt;stroke-linejoin:miter;stroke-opacity:1"><tspan style="font-size:18.75px" id="tspan4502" x="25.519" y="103.538">ETH 1</tspan></text><text id="text4480-7" x="103.16" y="86.201" xml:space="preserve" style="font-style:normal;font-weight:400;font-size:18.75px;line-height:125%;font-family:sans-serif;letter-spacing:0;word-spacing:0;fill:#000;fill-opacity:1;stroke:none;stroke-width:1px;stroke-linecap:butt;stroke-linejoin:miter;stroke-opacity:1"><tspan id="tspan4524" x="103.16" y="86.201">NFB-200G2QL card</tspan></text><text id="text4480-7-3" x="92.195" y="169.204" xml:space="preserve" style="font-style:normal;font-weight:400;font-size:18.75px;line-height:125%;font-family:sans-serif;letter-spacing:0;word-spacing:0;fill:#000;fill-opacity:1;stroke:none;stroke-width:1px;stroke-linecap:butt;stroke-linejoin:miter;stroke-opacity:1"><tspan style="font-size:18.75px" id="tspan4546" x="92.195" y="169.204">PCI-E master slot</tspan></text><text id="text4480-7-3-6" x="367.989" y="169.204" xml:space="preserve" style="font-style:normal;font-weight:400;font-size:18.75px;line-height:125%;font-family:sans-serif;letter-spacing:0;word-spacing:0;fill:#000;fill-opacity:1;stroke:none;stroke-width:1px;stroke-linecap:butt;stroke-linejoin:miter;stroke-opacity:1"><tspan style="font-size:18.75px" id="tspan4546-2" x="367.989" y="169.204">PCI-E slave slot</tspan></text><text id="text4480-3-9" x="182.294" y="-73.591" transform="matrix(0,1,-1,0,0,0)" xml:space="preserve" style="font-style:normal;font-weight:400;font-size:20px;line-height:125%;font-family:sans-serif;letter-spacing:0;word-spacing:0;fill:#000;fill-opacity:1;stroke:none;stroke-width:1px;stroke-linecap:butt;stroke-linejoin:miter;stroke-opacity:1"><tspan style="font-size:18.75px" id="tspan4502-1" x="182.294" y="-73.591">QUEUE 0</tspan></text><text id="text4480-3-9-2" x="182.293" y="-251.112" transform="matrix(0,1.0000002,-0.99999976,0,0,0)" xml:space="preserve" style="font-style:normal;font-weight:400;font-size:20px;line-height:125%;font-family:sans-serif;letter-spacing:0;word-spacing:0;fill:#000;fill-opacity:1;stroke:none;stroke-width:1px;stroke-linecap:butt;stroke-linejoin:miter;stroke-opacity:1"><tspan style="font-size:18.75px" id="tspan4502-1-7" x="182.293" y="-251.112">QUEUE 15</tspan></text><text id="text4480-3-9-2-0" x="182.293" y="-341.943" transform="matrix(0,1,-1,0,0,0)" xml:space="preserve" style="font-style:normal;font-weight:400;font-size:20px;line-height:125%;font-family:sans-serif;letter-spacing:0;word-spacing:0;fill:#000;fill-opacity:1;stroke:none;stroke-width:1px;stroke-linecap:butt;stroke-linejoin:miter;stroke-opacity:1"><tspan style="font-size:18.75px" id="tspan4502-1-7-9" x="182.293" y="-341.943">QUEUE 16</tspan></text><text id="text4480-3-9-2-3" x="182.294" y="-517.707" transform="matrix(0,1,-1,0,0,0)" xml:space="preserve" style="font-style:normal;font-weight:400;font-size:20px;line-height:125%;font-family:sans-serif;letter-spacing:0;word-spacing:0;fill:#000;fill-opacity:1;stroke:none;stroke-width:1px;stroke-linecap:butt;stroke-linejoin:miter;stroke-opacity:1"><tspan style="font-size:18.75px" id="tspan4502-1-7-6" x="182.294" y="-517.707">QUEUE 31</tspan></text><text id="text4480-3-0" x="128.398" y="299.214" xml:space="preserve" style="font-style:normal;font-weight:400;font-size:20px;line-height:125%;font-family:sans-serif;letter-spacing:0;word-spacing:0;fill:#000;fill-opacity:1;stroke:none;stroke-width:1px;stroke-linecap:butt;stroke-linejoin:miter;stroke-opacity:1"><tspan style="font-size:18.75px" id="tspan4502-6" x="128.398" y="299.214">CPU 0</tspan></text><text id="text4480-3-0-2" x="407.885" y="299.214" xml:space="preserve" style="font-style:normal;font-weight:400;font-size:20px;line-height:125%;font-family:sans-serif;letter-spacing:0;word-spacing:0;fill:#000;fill-opacity:1;stroke:none;stroke-width:1px;stroke-linecap:butt;stroke-linejoin:miter;stroke-opacity:1"><tspan style="font-size:18.75px" id="tspan4502-6-6" x="407.885" y="299.214">CPU 1</tspan></text></g></svg>