<svg xmlns="http://www.w3.org/2000/svg" xmlns:ev="http://www.w3.org/2001/xml-events" xmlns:xlink="http://www.w3.org/1999/xlink" width="653.98" height="327.352" class="st10" color-interpolation-filters="sRGB" viewBox="0 0 490.485 245.514" xml:space="preserve"><style type="text/css">.st1{visibility:visible}.st2{fill:#fec000;fill-opacity:.25;filter:url(#filter_2);stroke:#fec000;stroke-opacity:.25}.st3{fill:#c39;stroke:#ff8c00;stroke-width:3}.st4{fill:#fff;font-family:Calibri;font-size:1.33333em}.st5{fill:#f90;stroke:#ff8c00;stroke-width:3}.st6{fill:#fff;font-family:Calibri;font-size:1.33333em;font-weight:700}.st7,.st8{stroke-linecap:round;stroke-linejoin:round}.st7{fill:#ffc000;stroke:#fff;stroke-width:.5}.st8{marker-end:url(#mrkr4-40);stroke:red;stroke-width:1.5}.st9{fill:red;fill-opacity:1;stroke:red;stroke-opacity:1;stroke-width:.37313432835821}.st10{fill:none;fill-rule:evenodd;font-size:12px;overflow:visible;stroke-linecap:square;stroke-miterlimit:3}</style><defs id="Markers"><g id="lend4"><path d="M 2 1 L 0 0 L 2 -1 L 2 1" style="stroke:none"/></g><marker id="mrkr4-40" class="st9" markerUnits="strokeWidth" orient="auto" overflow="visible" refX="-5.36"><use transform="scale(-2.68,-2.68)" xlink:href="#lend4"/></marker></defs><defs id="Filters"><filter id="filter_2"><feGaussianBlur stdDeviation="2"/></filter></defs><g><title>Page-1</title><g id="shape31-1" transform="translate(4.15435,-179.702)"><title>Rounded Rectangle.55</title><desc>User Application</desc><g id="shadow31-2" class="st1"><path d="M11.05 245.51 L470.43 245.51 A11.0507 11.0507 -180 0 0 481.49 234.46 L481.49 193.75 A11.0507 11.0507 -180 0 0 470.43 182.7 L11.05 182.7 A11.0507 11.0507 -180 0 0 -0 193.75 L0 234.46 A11.0507 11.0507 -180 0 0 11.05 245.51 Z" class="st2" transform="matrix(1,0,0,1,0.3456,1.9728)"/></g><path d="M11.05 245.51 L470.43 245.51 A11.0507 11.0507 -180 0 0 481.49 234.46 L481.49 193.75 A11.0507 11.0507 -180 0 0 470.43 182.7 L11.05 182.7 A11.0507 11.0507 -180 0 0 -0 193.75 L0 234.46 A11.0507 11.0507 -180 0 0 11.05 245.51 Z" class="st3"/><text x="187.04" y="218.91" class="st4">User Application</text></g><g id="shape135-7" transform="translate(4.15435,-6.4728)"><title>Rounded Rectangle.135</title><desc>Cryptodev</desc><g id="shadow135-8" class="st1"><path d="M3.31 245.51 L140.76 245.51 A3.30639 3.30639 -180 0 0 144.06 242.21 L144.06 218.89 A3.30639 3.30639 -180 0 0 140.76 215.58 L3.31 215.58 A3.30639 3.30639 -180 0 0 0 218.89 L0 242.21 A3.30639 3.30639 -180 0 0 3.31 245.51 Z" class="st2" transform="matrix(1,0,0,1,0.3456,1.9728)"/></g><path d="M3.31 245.51 L140.76 245.51 A3.30639 3.30639 -180 0 0 144.06 242.21 L144.06 218.89 A3.30639 3.30639 -180 0 0 140.76 215.58 L3.31 215.58 A3.30639 3.30639 -180 0 0 0 218.89 L0 242.21 A3.30639 3.30639 -180 0 0 3.31 245.51 Z" class="st5"/><text x="38.46" y="235.35" class="st4">Cryptodev</text></g><g id="shape136-13" transform="translate(172.866,-6.4728)"><title>Rounded Rectangle.136</title><desc>Cryptodev</desc><g id="shadow136-14" class="st1"><path d="M3.31 245.51 L140.76 245.51 A3.30639 3.30639 -180 0 0 144.06 242.21 L144.06 218.89 A3.30639 3.30639 -180 0 0 140.76 215.58 L3.31 215.58 A3.30639 3.30639 -180 0 0 0 218.89 L0 242.21 A3.30639 3.30639 -180 0 0 3.31 245.51 Z" class="st2" transform="matrix(1,0,0,1,0.3456,1.9728)"/></g><path d="M3.31 245.51 L140.76 245.51 A3.30639 3.30639 -180 0 0 144.06 242.21 L144.06 218.89 A3.30639 3.30639 -180 0 0 140.76 215.58 L3.31 215.58 A3.30639 3.30639 -180 0 0 0 218.89 L0 242.21 A3.30639 3.30639 -180 0 0 3.31 245.51 Z" class="st5"/><text x="38.46" y="235.35" class="st4">Cryptodev</text></g><g id="shape137-19" transform="translate(341.578,-6.4728)"><title>Rounded Rectangle.137</title><desc>Cryptodev</desc><g id="shadow137-20" class="st1"><path d="M3.31 245.51 L140.76 245.51 A3.30639 3.30639 -180 0 0 144.06 242.21 L144.06 218.89 A3.30639 3.30639 -180 0 0 140.76 215.58 L3.31 215.58 A3.30639 3.30639 -180 0 0 0 218.89 L0 242.21 A3.30639 3.30639 -180 0 0 3.31 245.51 Z" class="st2" transform="matrix(1,0,0,1,0.3456,1.9728)"/></g><path d="M3.31 245.51 L140.76 245.51 A3.30639 3.30639 -180 0 0 144.06 242.21 L144.06 218.89 A3.30639 3.30639 -180 0 0 140.76 215.58 L3.31 215.58 A3.30639 3.30639 -180 0 0 0 218.89 L0 242.21 A3.30639 3.30639 -180 0 0 3.31 245.51 Z" class="st5"/><text x="38.46" y="235.35" class="st4">Cryptodev</text></g><g id="group139-25" transform="translate(4.15435,-66.8734)"><title>Sheet.139</title><g id="shape33-26"><title>Rounded Rectangle.40</title><desc>Cryptodev Scheduler</desc><g id="shadow33-27" class="st1"><path d="M11.05 245.51 L470.43 245.51 A11.0507 11.0507 -180 0 0 481.49 234.46 L481.49 173.65 A11.0507 11.0507 -180 0 0 470.43 162.6 L11.05 162.6 A11.0507 11.0507 -180 0 0 0 173.65 L0 234.46 A11.0507 11.0507 -180 0 0 11.05 245.51 Z" class="st2" transform="matrix(1,0,0,1,0.3456,1.9728)"/></g><path d="M11.05 245.51 L470.43 245.51 A11.0507 11.0507 -180 0 0 481.49 234.46 L481.49 173.65 A11.0507 11.0507 -180 0 0 470.43 162.6 L11.05 162.6 A11.0507 11.0507 -180 0 0 0 173.65 L0 234.46 A11.0507 11.0507 -180 0 0 11.05 245.51 Z" class="st5"/><text x="171.72" y="181" class="st6">Cryptodev Scheduler</text></g><g id="shape138-32" transform="translate(24.6009,-12.5889)"><title>Rounded Rectangle.138</title><desc>Crypto Op Distribution Mechanism</desc><path d="M9.92 245.51 L422.36 245.51 A9.92145 9.92145 -180 0 0 432.28 235.59 L432.28 225.51 A9.92145 9.92145 -180 0 0 422.36 215.58 L9.92 215.58 A9.92145 9.92145 -180 0 0 0 225.51 L0 235.59 A9.92145 9.92145 -180 0 0 9.92 245.51 Z" class="st7"/><text x="103.11" y="235.35" class="st4">Crypto Op Distribution Mechanism</text></g></g><g id="shape140-35" transform="translate(234.378,-149.789)"><title>Dynamic connector.229</title><path d="M7.09 245.51 L7.09 223.64" class="st8"/></g><g id="shape141-41" transform="translate(248.551,-179.702)"><title>Dynamic connector.141</title><path d="M7.09 245.51 L7.09 267.39" class="st8"/></g><g id="shape142-46" transform="translate(71.3856,-35.6203)"><title>Dynamic connector.142</title><path d="M7.09 245.51 L7.09 223.64" class="st8"/></g><g id="shape143-51" transform="translate(85.5588,-65.5333)"><title>Dynamic connector.143</title><path d="M7.09 245.51 L7.09 267.39" class="st8"/></g><g id="shape144-56" transform="translate(234.378,-35.6203)"><title>Dynamic connector.144</title><path d="M7.09 245.51 L7.09 223.64" class="st8"/></g><g id="shape145-61" transform="translate(248.551,-65.5333)"><title>Dynamic connector.145</title><path d="M7.09 245.51 L7.09 267.39" class="st8"/></g><g id="shape146-66" transform="translate(397.37,-34.837)"><title>Dynamic connector.146</title><path d="M7.09 245.51 L7.09 223.64" class="st8"/></g><g id="shape147-71" transform="translate(411.543,-64.75)"><title>Dynamic connector.147</title><path d="M7.09 245.51 L7.09 267.39" class="st8"/></g></g></svg>