<svg xmlns="http://www.w3.org/2000/svg" width="634" height="97"><g><title>producer ring</title><rect id="canvas_background" width="636" height="99" x="-1" y="-1" fill="#fff"/></g><g><title>Layer 1</title><rect id="svg_1" width="135" height="95" x="0" y="0" fill="#9ACEE6" stroke="#000" stroke-opacity="null" stroke-width="0"/><rect id="svg_2" width="135" height="95" x="252" y="2" fill="#9ACEE6" stroke="#000" stroke-opacity="null" stroke-width="0"/><rect id="svg_3" width="135" height="95" x="499" y="2" fill="#9ACEE6" stroke="#000" stroke-opacity="null" stroke-width="0"/><text id="svg_4" x="10" y="45" fill="#000" stroke="#000" stroke-opacity="null" stroke-width="0" font-family="'Courier New', Courier, monospace" font-size="24" text-anchor="start" xml:space="preserve">Stage 1</text><text id="svg_5" x="268" y="52" fill="#000" stroke="#000" stroke-opacity="null" stroke-width="0" font-family="'Courier New', Courier, monospace" font-size="24" text-anchor="start" xml:space="preserve">Stage 2</text><text id="svg_6" x="517" y="53" fill="#000" stroke="#000" stroke-opacity="null" stroke-width="0" font-family="'Courier New', Courier, monospace" font-size="24" text-anchor="start" xml:space="preserve">Stage 3</text><path id="svg_7" fill="#4D2425" stroke="#000" stroke-opacity="null" stroke-width="0" d="m175.364991,42.766198l22.499998,-51.875196l22.499998,51.875196l-11.25,0l0,52.12481l-22.499996,0l0,-52.12481l-11.25,0z" transform="rotate(90.19324493408203 197.864990234375,42.89100646972657)"/><path id="svg_8" fill="#4D2425" stroke="#000" stroke-opacity="null" stroke-width="0" d="m423.364991,47.766198l22.499998,-51.875196l22.499998,51.875196l-11.25,0l0,52.12481l-22.499996,0l0,-52.12481l-11.25,0z" transform="rotate(90.19324493408203 445.864990234375,47.89100646972657)"/><path id="svg_10" fill="#8CD79F" stroke="#000" stroke-opacity="null" stroke-width="0" d="m120.937481,42.95781l0,0c0,-10.493411 8.282734,-19 18.500005,-19l0,0c4.906504,0 9.612052,2.00178 13.081477,5.564971c3.469424,3.563191 5.418523,8.395917 5.418523,13.435029l0,0c0,10.493408 -8.282732,18.999998 -18.5,18.999998l0,0c-10.217271,0 -18.500005,-8.506591 -18.500005,-18.999998zm18.500005,-19l0,37.999998m-18.500005,-18.999998l37.000005,0"/><path id="svg_11" fill="#8CD79F" stroke="#000" stroke-opacity="null" stroke-width="0" d="m373.937481,45.95781l0,0c0,-10.493411 8.282734,-19.000001 18.500005,-19.000001l0,0c4.906504,0 9.612052,2.00178 13.081477,5.564972c3.469424,3.563191 5.418523,8.395916 5.418523,13.435029l0,0c0,10.493408 -8.282732,18.999997 -18.5,18.999997l0,0c-10.217271,0 -18.500005,-8.50659 -18.500005,-18.999997zm18.500005,-19.000001l0,37.999998m-18.500005,-18.999997l37.000005,0"/></g></svg>