<svg xmlns="http://www.w3.org/2000/svg" width="860" height="140"><g><title>pdump</title><rect id="canvas_background" width="862" height="142" x="-1" y="-1" fill="#fff"/></g><g><title>Layer 1</title><rect id="svg_15" width="568" height="128" x="8.5" y="7" fill="#B1FFFF" fill-opacity="null" stroke="#000" stroke-opacity="null" stroke-width="0"/><rect id="svg_2" width="100" height="51" x="22.5" y="23" fill="#CC7C65" stroke="#000" stroke-opacity="null" stroke-width="0"/><rect id="svg_3" width="100" height="51" x="455.5" y="26" fill="#CC7C65" stroke="#000" stroke-opacity="null" stroke-width="0"/><path id="svg_7" fill="#559E84" fill-opacity="null" stroke="#000" stroke-opacity="null" stroke-width="0" d="m208.364769,78.968848l12.704559,-5.623238l12.697917,-5.625551l-12.704644,-5.629525l-12.697836,-5.625202l0,6.255891c-3.112384,0 -6.729051,0 -7.940704,0c-5.776899,0.124913 -12.907107,-3.365352 -20.492742,-7.864703c-2.827801,-1.577599 -5.680695,-3.313223 -8.704363,-4.88042c3.023667,-1.569118 5.872475,-3.302747 8.704363,-4.880295c7.585635,-4.493132 14.715839,-7.98967 20.485292,-7.862546l7.94815,-0.002103l0,6.264275l12.697836,-5.627447l12.704644,-5.631775l-12.704644,-5.637807l-12.697836,-5.629547l0,6.260273l-7.944067,0c-11.799214,0.12679 -20.61742,5.506774 -28.333828,9.879239c-7.660201,4.613909 -14.545738,8.087381 -18.539115,7.862617l-22.780531,0l0,9.993806l22.788007,0c3.989952,-0.226969 10.878944,3.248761 18.53841,7.86254c7.71303,4.374678 16.52785,9.750196 28.330427,9.879312l7.940704,0l0,6.262203l0,0l0,0.000003z"/><path id="svg_8" fill="#559E84" fill-opacity="null" stroke="#000" stroke-opacity="null" stroke-width="0" d="m439.457308,43.77545l-10.478696,-7.306254l0,8.12971l-18.805519,0c-3.29272,0.296972 -8.977707,-4.212008 -15.298608,-10.195089c-6.365074,-5.675375 -13.639418,-12.638687 -23.37938,-12.824984l-6.552957,0l0,12.959904l6.552957,0c4.770151,-0.167389 10.652051,4.360514 16.914219,10.203329c2.334186,2.041106 4.688512,4.292919 7.183208,6.326016c-2.494696,2.035766 -4.846223,4.290275 -7.183208,6.331424c-6.262164,5.826551 -12.144067,10.365242 -16.908056,10.200515l-6.559117,0l0,12.978808l6.555749,0c9.719269,-0.1646 16.996426,-7.14678 23.382185,-12.814082c6.32147,-5.983193 12.003677,-10.494803 15.299177,-10.203221l18.799357,0l0,8.129634l10.478696,-7.298036l10.484823,-7.303408l-10.484823,-7.314263l-0.000006,-0.000004z"/><text id="svg_9" x="53.5" y="54" fill="#fff" stroke="#000" stroke-opacity="null" stroke-width="0" font-family="'Courier New', Courier, monospace" font-size="24" text-anchor="start" xml:space="preserve">RX</text><text id="svg_10" x="486.5" y="57" fill="#fff" stroke="#000" stroke-opacity="null" stroke-width="0" font-family="'Courier New', Courier, monospace" font-size="24" text-anchor="start" xml:space="preserve" style="cursor:move">TX</text><text id="svg_11" x="243.5" y="40" fill="#000" stroke="#000" stroke-opacity="null" stroke-width="0" font-family="'Courier New', Courier, monospace" font-size="24" text-anchor="start" xml:space="preserve">Q1</text><text id="svg_12" x="243.5" y="77" fill="#000" stroke="#000" stroke-opacity="null" stroke-width="0" font-family="'Courier New', Courier, monospace" font-size="24" text-anchor="start" xml:space="preserve">Q2</text><text id="svg_13" x="326.5" y="82" fill="#000" stroke="#000" stroke-opacity="null" stroke-width="0" font-family="'Courier New', Courier, monospace" font-size="24" text-anchor="start" xml:space="preserve">Q4</text><text id="svg_14" x="327.5" y="40" fill="#000" stroke="#000" stroke-opacity="null" stroke-width="0" font-family="'Courier New', Courier, monospace" font-size="24" text-anchor="start" xml:space="preserve">Q3</text><text id="svg_16" x="234.5" y="114.862" fill="#000" fill-opacity="null" stroke="#000" stroke-opacity="null" stroke-width="0" font-family="'Courier New', Courier, monospace" font-size="24" text-anchor="start" xml:space="preserve">Primary</text><rect id="svg_18" width="202" height="90" x="654.5" y="29.437" fill="#7AD6CA" stroke="#000" stroke-opacity="null" stroke-width="0"/><text id="svg_19" x="684.5" y="102.438" fill="#000" stroke="#000" stroke-opacity="null" stroke-width="0" font-family="'Courier New', Courier, monospace" font-size="24" text-anchor="start" xml:space="preserve">Secondary</text><rect id="svg_20" width="184" height="42" x="664.5" y="34.437" fill="#A0D58A" stroke="#000" stroke-opacity="null" stroke-width="0"/><rect id="svg_21" width="0" height="1" x="835.5" y="366.438" fill="#A0D58A" stroke="#000" stroke-opacity="null" stroke-width="0"/><text id="svg_22" x="668.5" y="59.438" fill="#000" stroke="#000" stroke-opacity="null" stroke-width="0" font-family="'Courier New', Courier, monospace" font-size="24" text-anchor="start" xml:space="preserve">Ring BufferQ</text><path id="svg_24" fill="#7AD6CA" fill-opacity="null" stroke="#000" stroke-opacity="null" stroke-width="0" d="m599.023803,74.414257l17.255478,-33.667333l15.650356,33.667333l-8.226459,0l0,33.826726l-16.452915,0l0,-33.826726l-8.226459,0z" transform="rotate(89.78996276855469 615.4766845703124,74.49395751953122)"/><text id="svg_25" x="714.5" y="22.438" fill="#000" fill-opacity="null" stroke="#000" stroke-opacity="null" stroke-width="0" font-family="'Courier New', Courier, monospace" font-size="24" text-anchor="start" xml:space="preserve">Core 0</text></g></svg>