<svg xmlns="http://www.w3.org/2000/svg" width="1418" height="379"><g><title>sample application model</title><rect id="canvas_background" width="1420" height="381" x="-1" y="-1" fill="#fff"/></g><g><title>Layer 1</title><rect id="svg_84" width="1418" height="379" x="0" y="0" fill="#B1FFFF" stroke="#000" stroke-opacity="null" stroke-width="0"/><rect id="svg_1" width="187" height="80" x="635.5" y="267" fill="#9ACEE6" stroke="#000" stroke-opacity="null" stroke-width="0"/><rect id="svg_14" width="175" height="28" x="641" y="271.437" fill="#FFB27C" stroke="#000" stroke-opacity="null" stroke-width="0"/><rect id="svg_16" width="142" height="36" x="659" y="304.437" fill="#FFE7A2" stroke="#000" stroke-opacity="null" stroke-width="0"/><text id="svg_18" x="684.214" y="335.741" fill="#000" stroke="#000" stroke-opacity="null" stroke-width="0" font-family="'Courier New', Courier, monospace" font-size="24" text-anchor="start" transform="matrix(0.7497134942573729,0,0,0.7607963681117937,149.70768863149087,72.0554119542491)" xml:space="preserve">Health Check</text><text id="svg_23" x="685" y="368.437" fill="#000" stroke="#000" stroke-opacity="null" stroke-width="0" font-family="'Courier New', Courier, monospace" font-size="24" text-anchor="start" xml:space="preserve" style="cursor:move">core 7</text><text id="svg_25" x="658.84" y="261.052" fill="#000" stroke="#000" stroke-opacity="null" stroke-width="0" font-family="'Courier New', Courier, monospace" font-size="24" text-anchor="start" transform="matrix(0.7446371555386645,0,0,0.7004599746900311,157.05848471617847,107.2548065316271)" xml:space="preserve">Stats Collector</text><rect id="svg_26" width="88" height="91" x="2" y="89.438" fill="#FFA9A2" stroke="#000" stroke-opacity="null" stroke-width="0"/><rect id="svg_27" width="88" height="91" x="24" y="107.438" fill="#CE7975" stroke="#000" stroke-opacity="null" stroke-width="0"/><text id="svg_28" x="52" y="166.438" fill="#fff" stroke="#000" stroke-opacity="null" stroke-width="0" font-family="'Courier New', Courier, monospace" font-size="24" text-anchor="start" xml:space="preserve" style="cursor:move">RX</text><text id="svg_30" x="-11.409" y="96.938" fill="#000" stroke="#000" stroke-opacity="null" stroke-width="0" font-family="'Courier New', Courier, monospace" font-size="24" text-anchor="start" transform="matrix(0.6111111044883728,0,0,0.6666666865348816,14.972222477197647,39.14583100005984)" xml:space="preserve">NIC 1</text><text id="svg_33" x="27.864" y="128.438" fill="#000" stroke="#000" stroke-opacity="null" stroke-width="0" font-family="'Courier New', Courier, monospace" font-size="24" text-anchor="start" transform="matrix(0.6111111044883728,0,0,0.6666666865348816,14.972222477197647,39.14583100005984)" xml:space="preserve">NIC 2</text><text id="svg_34" x="26" y="216.438" fill="#000" stroke="#000" stroke-opacity="null" stroke-width="0" font-family="'Courier New', Courier, monospace" font-size="24" text-anchor="start" xml:space="preserve">core0</text><rect id="svg_35" width="88" height="91" x="1303" y="55.438" fill="#FFA9A2" stroke="#000" stroke-opacity="null" stroke-width="0"/><rect id="svg_36" width="88" height="91" x="1325" y="73.438" fill="#CE7975" stroke="#000" stroke-opacity="null" stroke-width="0"/><text id="svg_37" x="1352" y="132.438" fill="#fff" stroke="#000" stroke-opacity="null" stroke-width="0" font-family="'Courier New', Courier, monospace" font-size="24" text-anchor="start" xml:space="preserve" style="cursor:move">TX</text><text id="svg_40" x="1327" y="184.438" fill="#000" stroke="#000" stroke-opacity="null" stroke-width="0" font-family="'Courier New', Courier, monospace" font-size="24" text-anchor="start" xml:space="preserve">core1</text><text id="svg_43" x="1811.682" y="74.32" fill="#000" stroke="#000" stroke-opacity="null" stroke-width="0" font-family="'Courier New', Courier, monospace" font-size="24" text-anchor="start" transform="matrix(0.6111111044883728,0,0,0.6296296119689941,200.86111453175545,24.236112266778946)" xml:space="preserve">NIC 1</text><text id="svg_44" x="1140.583" y="191.621" fill="#000" stroke="#000" stroke-opacity="null" stroke-width="0" font-family="'Courier New', Courier, monospace" font-size="24" text-anchor="start" transform="matrix(0.6958672408102909,0,0,0.6184720487972513,537.7539486343405,-28.040291137315034)" xml:space="preserve">NIC 2</text><rect id="svg_45" width="83" height="62" x="1096" y="101.438" fill="#9ACEE6" stroke="#000" stroke-opacity="null" stroke-width="0"/><text id="svg_46" x="1115" y="135.438" fill="#fff" stroke="#000" stroke-opacity="null" stroke-width="0" font-family="'Courier New', Courier, monospace" font-size="24" text-anchor="start" xml:space="preserve">QoS</text><rect id="svg_48" width="107" height="61" x="649" y="110.438" fill="#9ACEE6" stroke="#000" stroke-opacity="null" stroke-width="0"/><text id="svg_49" x="661" y="145.438" fill="#fff" stroke="#000" stroke-opacity="null" stroke-width="0" font-family="'Courier New', Courier, monospace" font-size="24" text-anchor="start" xml:space="preserve">Crypto</text><rect id="svg_50" width="84" height="71" x="422" y="65.438" fill="#FFE7A2" stroke="#000" stroke-opacity="null" stroke-width="0"/><rect id="svg_51" width="90" height="74" x="444" y="92.438" fill="#FFB27C" stroke="#000" stroke-opacity="null" stroke-width="0"/><rect id="svg_52" width="92" height="72" x="468" y="120.438" fill="#C48157" stroke="#000" stroke-opacity="null" stroke-width="0"/><text id="svg_53" x="553.425" y="-145.375" fill="#000" stroke="#000" stroke-opacity="null" stroke-width="0" font-family="'Courier New', Courier, monospace" font-size="24" text-anchor="start" transform="matrix(0.6528342962265015,0,0,0.5925925970077515,63.70490664243698,168.43749817460775)" xml:space="preserve">Worker 1</text><text id="svg_54" x="420.258" y="417.438" fill="#000" stroke="#000" stroke-opacity="null" stroke-width="0" font-family="'Courier New', Courier, monospace" font-size="24" text-anchor="start" transform="matrix(0.678871691226959,0,0,0.6666666865348816,166.69894686341286,-165.52084343507886)" xml:space="preserve">Worker 2</text><text id="svg_55" x="530.012" y="-19.013" fill="#000" stroke="#000" stroke-opacity="null" stroke-width="0" font-family="'Courier New', Courier, monospace" font-size="24" text-anchor="start" transform="matrix(0.7483048439025879,0,0,0.7407407164573669,76.38947987556458,153.33566251024604)" xml:space="preserve">Worker 3</text><rect id="svg_62" width="84" height="71" x="865" y="67.438" fill="#FFE7A2" stroke="#000" stroke-opacity="null" stroke-width="0"/><rect id="svg_63" width="90" height="74" x="887" y="94.438" fill="#FFB27C" stroke="#000" stroke-opacity="null" stroke-width="0"/><rect id="svg_64" width="92" height="72" x="911" y="122.438" fill="#C48157" stroke="#000" stroke-opacity="null" stroke-width="0"/><text id="svg_65" x="1238.132" y="-143.687" fill="#000" stroke="#000" stroke-opacity="null" stroke-width="0" font-family="'Courier New', Courier, monospace" font-size="24" text-anchor="start" transform="matrix(0.6528342962265015,0,0,0.5925925970077515,63.70490664243698,168.43749817460775)" xml:space="preserve">Worker 1</text><text id="svg_66" x="1072.811" y="420.438" fill="#000" stroke="#000" stroke-opacity="null" stroke-width="0" font-family="'Courier New', Courier, monospace" font-size="24" text-anchor="start" transform="matrix(0.678871691226959,0,0,0.6666666865348816,166.69894686341286,-165.52084343507886)" xml:space="preserve">Worker 2</text><text id="svg_67" x="1122.017" y="-16.313" fill="#000" stroke="#000" stroke-opacity="null" stroke-width="0" font-family="'Courier New', Courier, monospace" font-size="24" text-anchor="start" transform="matrix(0.7483048439025879,0,0,0.7407407164573669,76.38947987556458,153.33566251024604)" xml:space="preserve">Worker 3</text><path id="svg_68" fill="#805064" stroke="#000" stroke-opacity="null" stroke-width="0" d="m653.747516,12.862181l19.36745,-10.781877l77.632553,0l0,53.999988l-97.000004,0l0,-43.218111z"/><text id="svg_69" x="496.534" y="33.322" fill="#fff" stroke="#000" stroke-opacity="null" stroke-width="0" font-family="'Courier New', Courier, monospace" font-size="24" text-anchor="start" transform="matrix(0.733815550804138,0,0,0.9629629850387573,306.63544338941574,-1.3912058547139168)" xml:space="preserve">Device</text><text id="svg_70" x="457" y="217.438" fill="#000" stroke="#000" stroke-opacity="null" stroke-width="0" font-family="'Courier New', Courier, monospace" font-size="24" text-anchor="start" xml:space="preserve">core 2,3,4</text><text id="svg_71" x="653" y="197.438" fill="#000" stroke="#000" stroke-opacity="null" stroke-width="0" font-family="'Courier New', Courier, monospace" font-size="24" text-anchor="start" xml:space="preserve">core 5</text><text id="svg_72" x="1097" y="186.438" fill="#000" stroke="#000" stroke-opacity="null" stroke-width="0" font-family="'Courier New', Courier, monospace" font-size="24" text-anchor="start" xml:space="preserve">core 6</text><text id="svg_73" x="885" y="220.438" fill="#000" stroke="#000" stroke-opacity="null" stroke-width="0" font-family="'Courier New', Courier, monospace" font-size="24" text-anchor="start" xml:space="preserve">core 2,3,4</text><rect id="svg_74" width="111" height="88" x="206" y="104" fill="#9ACEE6" stroke="#000" stroke-opacity="null" stroke-width="0"/><text id="svg_75" x="182.902" y="133" fill="#000" stroke="#000" stroke-opacity="null" stroke-width="0" font-family="'Courier New', Courier, monospace" font-size="24" text-anchor="start" transform="matrix(0.5661651903991256,0,0,1,107.56695064249905,0)" xml:space="preserve">PKT classify</text><text id="svg_76" x="196.645" y="170" fill="#000" stroke="#000" stroke-opacity="null" stroke-width="0" font-family="'Courier New', Courier, monospace" font-size="24" text-anchor="start" transform="matrix(0.5444634556770325,0,0,1,115.93405053019524,0)" xml:space="preserve">Distribute</text><path id="svg_77" fill="#619E73" stroke="#000" stroke-opacity="null" stroke-width="0" d="m189.755816,142.38346l-9.615746,-5.572568l0,6.200627l-17.256831,0c-3.021555,0.226504 -8.238368,-3.212549 -14.038725,-7.775916c-5.840892,-4.328677 -12.516173,-9.639678 -21.454022,-9.781769l-6.013302,0l0,9.884674l6.013302,0c4.377316,-0.12767 9.774825,3.325816 15.521285,7.782201c2.14196,1.556776 4.3024,3.274261 6.59165,4.824928c-2.28925,1.552703 -4.447123,3.272244 -6.59165,4.829053c-5.746457,4.44398 -11.143969,7.905694 -15.51563,7.780055l-6.018955,0l0,9.899092l6.015865,0c8.91886,-0.125542 15.596722,-5.450935 21.456596,-9.773453c5.800879,-4.563453 11.01514,-8.004512 14.039247,-7.782119l17.251176,0l0,6.200569l9.615746,-5.566299l9.621368,-5.570396l-9.621368,-5.578676l-0.000005,-0.000003z"/><path id="svg_78" fill="#619E73" stroke="#000" stroke-opacity="null" stroke-width="0" d="m417.79301,181.072084l13.604178,-5.205736l-13.604178,-5.203742l-13.60709,-5.201786l0,5.786911c-3.569394,-0.003899 -9.48466,-0.003899 -11.161519,-0.003899c-4.954616,-0.078306 -8.206513,-1.105708 -11.590595,-2.945338c-5.043959,-2.745716 -9.348773,-7.687237 -14.54043,-12.448672c-2.640478,-2.367977 -5.58224,-4.716439 -9.50016,-6.604946c-3.878767,-1.896386 -8.946375,-3.211512 -14.579566,-3.186066l-24.41645,0l0,9.245023l24.41645,0c3.395131,0.041097 5.543836,0.774963 8.474533,2.595032c4.335842,2.706583 8.563147,7.88095 14.393505,12.783335c5.71366,4.855376 14.505736,9.757754 27.25778,9.804723l11.246452,0l0,5.786895l13.60709,-5.201732zm-57.554046,-35.013272c0.15434,0.072423 0.317546,0.135019 0.468152,0.209421c4.65338,2.242732 8.013781,4.994346 10.673477,7.387791c0.611391,0.559679 1.153382,1.097877 1.733756,1.647811l31.071571,0l0,5.788888l13.60709,-5.201813l13.604178,-5.203713l-13.604178,-5.205701l-13.60709,-5.207671l0,5.784986l-43.946955,0z"/><path id="svg_79" fill="#619E73" stroke="#000" stroke-opacity="null" stroke-width="0" d="m590.864808,144.339395l14.882874,-35.951591l14.882874,35.951591l-7.441438,0l0,36.124583l-14.882873,0l0,-36.124583l-7.441438,0z" transform="rotate(89.46277618408203 605.7476806640625,144.42587280273435)"/><path id="svg_80" fill="#619E73" fill-opacity="null" stroke="#000" stroke-opacity="null" stroke-width="0" d="m661.638136,81.677665l20.874103,-13.000079l0,6.500022l30.252035,0l0,-6.500022l20.874093,13.000079l-20.874093,13.000009l0,-6.500005l-30.252035,0l0,6.500005l-20.874103,-13.000009z" transform="rotate(89.74066925048828 697.6382446289062,81.67762756347659)"/><path id="svg_81" fill="#619E73" stroke="#000" stroke-opacity="null" stroke-width="0" d="m858.79301,172.072084l13.604178,-5.205736l-13.604178,-5.203742l-13.60709,-5.201786l0,5.786911c-3.569394,-0.0039 -9.48466,-0.0039 -11.161519,-0.0039c-4.954616,-0.078305 -8.206513,-1.105708 -11.590595,-2.945338c-5.043959,-2.745715 -9.348773,-7.687236 -14.54043,-12.448672c-2.640477,-2.367977 -5.58224,-4.716438 -9.50016,-6.604945c-3.878767,-1.896387 -8.946375,-3.211513 -14.579566,-3.186067l-24.416451,0l0,9.245023l24.416451,0c3.395131,0.041097 5.543836,0.774963 8.474533,2.595032c4.335842,2.706583 8.563147,7.88095 14.393505,12.783335c5.713661,4.855376 14.505736,9.757754 27.257781,9.804723l11.246451,0l0,5.786894l13.60709,-5.201732zm-57.554045,-35.013272c0.15434,0.072424 0.317546,0.135019 0.468152,0.209421c4.65338,2.242731 8.013781,4.994346 10.673477,7.38779c0.61139,0.559679 1.153381,1.097878 1.733756,1.647812l31.07157,0l0,5.788888l13.60709,-5.201812l13.604178,-5.203713l-13.604178,-5.205701l-13.60709,-5.207671l0,5.784986l-43.946955,0z"/><path id="svg_82" fill="#619E73" stroke="#000" stroke-opacity="null" stroke-width="0" d="m1080.755816,127.38346l-9.615746,-5.572567l0,6.200627l-17.256831,0c-3.021555,0.226504 -8.238368,-3.212549 -14.038725,-7.775916c-5.840892,-4.328677 -12.516173,-9.639678 -21.454022,-9.78177l-6.013302,0l0,9.884674l6.013302,0c4.377316,-0.12767 9.774825,3.325816 15.521285,7.782201c2.141959,1.556776 4.3024,3.274261 6.59165,4.824928c-2.28925,1.552704 -4.447123,3.272244 -6.59165,4.829053c-5.746457,4.443981 -11.143969,7.905694 -15.51563,7.780055l-6.018955,0l0,9.899093l6.015865,0c8.91886,-0.125543 15.596723,-5.450935 21.456596,-9.773454c5.800879,-4.563453 11.01514,-8.004512 14.039246,-7.782119l17.251177,0l0,6.20057l9.615746,-5.566299l9.621368,-5.570397l-9.621368,-5.578676l-0.000006,-0.000003z"/><path id="svg_83" fill="#619E73" fill-opacity="null" stroke="#000" stroke-opacity="null" stroke-width="0" d="m1269.963506,163.318859l13.567973,-4.653717l13.56088,-4.655631l-13.568064,-4.658919l-13.560793,-4.655342l0,5.177292c-3.323905,0 -7.186364,0 -8.480362,0c-6.169502,0.103377 -13.784287,-2.785121 -21.885448,-6.508723c-3.019981,-1.3056 -6.066761,-2.741979 -9.295919,-4.03897c3.229159,-1.298581 6.271574,-2.733309 9.295919,-4.038867c8.101162,-3.718456 15.715942,-6.612144 21.877492,-6.506938l8.488314,-0.001741l0,5.18423l13.560793,-4.6572l13.568064,-4.660782l-13.568064,-4.665774l-13.560793,-4.658938l0,5.180918l-8.483954,0c-12.6011,0.104929 -22.018599,4.557333 -30.259422,8.175926c-8.180795,3.81841 -15.53428,6.693008 -19.799052,6.506997l-24.328718,0l0,8.27074l24.336702,0c4.261113,-0.187837 11.618288,2.688631 19.798299,6.506933c8.237215,3.620425 17.651098,8.069132 30.25579,8.175987l8.480362,0l0,5.182516l0,0l0,0.000002z"/></g></svg>