<svg xmlns="http://www.w3.org/2000/svg" width="600" height="235"><g><title>distributor and worker</title><rect id="canvas_background" width="602" height="237" x="-1" y="-1" fill="#fff"/></g><g><title>Layer 1</title><rect id="svg_1" width="202" height="90" x="4" y="21" fill="#9ACEE6" stroke="#000" stroke-opacity="null" stroke-width="0"/><text id="svg_4" x="7" y="47" fill="#000" stroke="#000" stroke-opacity="null" stroke-width="0" font-family="'Courier New', Courier, monospace" font-size="24" text-anchor="start" xml:space="preserve" style="cursor:move">PKT classify</text><text id="svg_12" x="25.992" y="96.5" fill="#000" fill-opacity="null" stroke="#000" stroke-opacity="null" stroke-width="0" font-family="'Courier New', Courier, monospace" font-size="24" text-anchor="start" xml:space="preserve">Distribute</text><path id="svg_13" fill="#FFAC8D" stroke="#000" stroke-opacity="null" stroke-width="0" d="m334.224445,98.046256l16.252783,-5.432074l-16.252783,-5.429993l-16.256262,-5.427952l0,6.038517c-4.264321,-0.004069 -11.331234,-0.004069 -13.334561,-0.004069c-5.919233,-0.081711 -9.804243,-1.153783 -13.847174,-3.073397c-6.02597,-2.865095 -11.16889,-8.021466 -17.371313,-12.989922c-3.154554,-2.470933 -6.669049,-4.921502 -11.349751,-6.892119c-4.633926,-1.978838 -10.68815,-3.351144 -17.41807,-3.324591l-29.170102,0l0,9.646983l29.170102,0c4.056131,0.042884 6.623169,0.808657 10.124445,2.70786c5.179989,2.824261 10.230311,8.223602 17.195784,13.339136c6.826056,5.066481 17.329865,10.182006 32.564612,10.231017l13.436029,0l0,6.0385l16.256262,-5.427896zm-68.759273,-36.535597c0.184389,0.075572 0.379369,0.14089 0.559297,0.218526c5.559349,2.340242 9.573988,5.211493 12.751502,7.709001c0.730423,0.584013 1.377934,1.145611 2.071302,1.719456l37.120911,0l0,6.040581l16.256262,-5.42798l16.252783,-5.429962l-16.252783,-5.432037l-16.256262,-5.434093l0,6.036509l-52.503011,0z"/><rect id="svg_17" width="180" height="111" x="353.5" y="3.438" fill="#FABA6F" stroke="#000" stroke-opacity="null" stroke-width="0"/><rect id="svg_14" width="180" height="111" x="369.5" y="31.438" fill="#FFB27C" stroke="#000" stroke-opacity="null" stroke-width="0"/><rect id="svg_15" width="180" height="111" x="392.5" y="58.438" fill="#FFF093" stroke="#000" stroke-opacity="null" stroke-width="0"/><rect id="svg_16" width="180" height="111" x="413.5" y="90.438" fill="#FFE7A2" stroke="#000" stroke-opacity="null" stroke-width="0"/><text id="svg_18" x="413.77" y="71.49" fill="#000" stroke="#000" stroke-opacity="null" stroke-width="0" font-family="'Courier New', Courier, monospace" font-size="24" text-anchor="start" transform="matrix(0.678871691226959,0,0,0.7037037014961243,142.60348030924797,64.2037038393319)" xml:space="preserve">worker 1</text><text id="svg_19" x="406.405" y="101.332" fill="#000" stroke="#000" stroke-opacity="null" stroke-width="0" font-family="'Courier New', Courier, monospace" font-size="24" text-anchor="start" transform="matrix(0.678871691226959,0,0,0.7037037014961243,121.60348030924797,9.203703839331922)" xml:space="preserve">worker 2</text><text id="svg_20" x="376.944" y="58.701" fill="#000" stroke="#000" stroke-opacity="null" stroke-width="0" font-family="'Courier New', Courier, monospace" font-size="24" text-anchor="start" transform="matrix(0.678871691226959,0,0,0.7037037014961243,121.60348030924797,9.203703839331922)" xml:space="preserve">worker 3</text><text id="svg_22" x="350.429" y="18.911" fill="#000" stroke="#000" stroke-opacity="null" stroke-width="0" style="cursor:move" font-family="'Courier New', Courier, monospace" font-size="24" text-anchor="start" transform="matrix(0.678871691226959,0,0,0.7037037014961243,121.60348030924797,9.203703839331922)" xml:space="preserve">worker 4</text><text id="svg_23" x="49.5" y="139.438" fill="#000" stroke="#000" stroke-opacity="null" stroke-width="0" font-family="'Courier New', Courier, monospace" font-size="24" text-anchor="start" xml:space="preserve">core 1</text><text id="svg_24" x="404.5" y="226.438" fill="#000" stroke="#000" stroke-opacity="null" stroke-width="0" font-family="'Courier New', Courier, monospace" font-size="24" text-anchor="start" xml:space="preserve">core 2,3,4,5</text></g></svg>