<svg xmlns="http://www.w3.org/2000/svg" xmlns:svg="http://www.w3.org/2000/svg" xmlns:xlink="http://www.w3.org/1999/xlink" id="svg2" width="644.999" height="464.485" class="st28" color-interpolation-filters="sRGB" version="1.1" viewBox="0 0 483.75 348.364" xml:space="preserve"><metadata id="metadata240"/><style id="style4" type="text/css">.st1{visibility:visible}.st2,.st3{filter:url(#filter_2)}.st2{fill:none;stroke:#5b9bd5;stroke-opacity:.22}.st3{fill:#5b9bd5;font-family:Calibri;font-size:1.16666em;font-weight:700;opacity:.219608}.st4{fill:none;stroke:#c7c8c8;stroke-width:.5}.st5,.st6,.st7{font-family:Calibri}.st5{fill:#000;font-size:1.16666em;font-weight:700}.st6,.st7{font-size:1.5em}.st6{fill:#5b9bd5;filter:url(#filter_2);opacity:.219608}.st7{fill:#000}.st8{fill:#a8d08d;stroke:#4f87bb;stroke-width:.75}.st9{fill:#000;font-family:Calibri;font-size:.833336em}.st10{fill:#5b9bd5;fill-opacity:.22;filter:url(#filter_2);stroke:#5b9bd5;stroke-opacity:.22}.st11{fill:#c00000;stroke:#c7c8c8;stroke-width:.25}.st12{fill:#feffff;font-family:Calibri;font-size:.833336em}.st13{font-size:1em}.st15,.st16{fill:#2e75b5;stroke:#c7c8c8;stroke-width:.25}.st16{fill:url(#grad4-50)}.st17{fill:#feffff;font-family:Calibri;font-size:.666664em}.st18{fill:#5b9bd5;stroke:#c7c8c8;stroke-width:.25}.st19{fill:#000;font-family:Calibri;font-size:1.16666em}.st20{marker-end:url(#mrkr13-84);marker-start:url(#mrkr13-82);stroke-linecap:round;stroke-linejoin:round;stroke-width:1}.st20,.st21,.st22{stroke:#c00000}.st21{fill:#c00000;fill-opacity:1;stroke-opacity:1;stroke-width:.28409090909091}.st22{marker-end:url(#mrkr4-90);stroke-linecap:round;stroke-linejoin:round;stroke-width:1}.st23,.st24{stroke:#538135}.st23{marker-start:url(#mrkr13-106);stroke-linecap:round;stroke-linejoin:round;stroke-width:1.75}.st24{fill:#538135;fill-opacity:1;stroke-opacity:1;stroke-width:.40983606557377}.st25,.st26{stroke:#5b9bd5}.st25{marker-start:url(#mrkr13-112);stroke-linecap:round;stroke-linejoin:round;stroke-width:1.75}.st26{fill:#5b9bd5;fill-opacity:1;stroke-opacity:1;stroke-width:.40983606557377}.st27{fill:none;stroke:none;stroke-width:.25}.st28{fill:none;fill-rule:evenodd;font-size:12px;overflow:visible;stroke-linecap:square;stroke-miterlimit:3}</style><defs id="Patterns_And_Gradients"><radialGradient id="grad4-50" cx=".5" cy="0" r="1.1"><stop id="stop8" offset="0" stop-color="#a8d08d" stop-opacity="1"/><stop id="stop10" offset=".24" stop-color="#bedcaa" stop-opacity="1"/><stop id="stop12" offset=".59" stop-color="#3374af" stop-opacity="1"/><stop id="stop14" offset=".75" stop-color="#41719c" stop-opacity="1"/><stop id="stop16" offset="1" stop-color="#c5e0b3" stop-opacity="1"/></radialGradient></defs><defs id="Markers"><g id="lend13"><path id="path20" d="M 3 1 L 0 0 L 3 -1 L 3 1" style="stroke:none"/></g><marker id="mrkr13-82" class="st21" markerUnits="strokeWidth" orient="auto" overflow="visible" refX="10.2"><use id="use23" transform="scale(3.52)" xlink:href="#lend13"/></marker><marker id="mrkr13-84" class="st21" markerUnits="strokeWidth" orient="auto" overflow="visible" refX="-10.56"><use id="use26" transform="scale(-3.52,-3.52)" xlink:href="#lend13"/></marker><g id="lend4"><path id="path29" d="M 2 1 L 0 0 L 2 -1 L 2 1" style="stroke:none"/></g><marker id="mrkr4-90" class="st21" markerUnits="strokeWidth" orient="auto" overflow="visible" refX="-7.04"><use id="use32" transform="scale(-3.52,-3.52)" xlink:href="#lend4"/></marker><marker id="mrkr13-106" class="st24" markerUnits="strokeWidth" orient="auto" overflow="visible" refX="7.114"><use id="use35" transform="scale(2.44)" xlink:href="#lend13"/></marker><marker id="mrkr13-112" class="st26" markerUnits="strokeWidth" orient="auto" overflow="visible" refX="7.114"><use id="use38" transform="scale(2.44)" xlink:href="#lend13"/></marker></defs><defs id="Filters"><filter id="filter_2"><feGaussianBlur id="feGaussianBlur42" stdDeviation="2"/></filter></defs><g id="g44"><title id="title46">Page-1</title><g id="shape85-1" transform="translate(133.887,-26.1478)"><title id="title49">Sheet.85</title><desc id="desc51">NIC</desc><g id="shadow85-2" class="st1" transform="matrix(1,0,0,1,0.345598,1.97279)"><rect id="rect54" width="346.142" height="92.867" x="0" y="255.497" class="st2"/><text id="text56" x="162.89" y="349.33" class="st3">NIC</text></g><rect style="stroke-width:.50000076;stroke-miterlimit:3;stroke-dasharray:none" id="rect58" width="346.142" height="92.867" x="0" y="255.497" class="st4"/><text id="text60" x="162.89" y="349.33" class="st5">NIC</text></g><g id="shape20-9" transform="translate(3.0289,-127.458)"><title id="title63">Rounded Rectangle.20</title><desc id="desc65">LINUX</desc><g id="shadow20-10" class="st1" transform="matrix(1,0,0,1,0.345598,1.97279)"><path id="path68" d="M30.39 348.36 L273.54 348.36 A30.3924 30.3924 -180 0 0 303.93 317.97 L303.93 235.23 A30.3924 30.3924 -180 0 0 273.54 204.84 L30.39 204.84 A30.3924 30.3924 -180 0 0 0 235.23 L0 317.97 A30.3924 30.3924 -180 0 0 30.39 348.36 Z" class="st2"/><text id="text70" x="255.32" y="238.8" class="st6">LINUX</text></g><path id="path72" d="M30.39 348.36 L273.54 348.36 A30.3924 30.3924 -180 0 0 303.93 317.97 L303.93 235.23 A30.3924 30.3924 -180 0 0 273.54 204.84 L30.39 204.84 A30.3924 30.3924 -180 0 0 0 235.23 L0 317.97 A30.3924 30.3924 -180 0 0 30.39 348.36 Z" class="st4"/><text id="text74" x="255.32" y="238.8" class="st7">LINUX</text></g><g id="shape8-17" transform="translate(95.8962,-140.079)"><title id="title77">Rounded Rectangle.8</title><desc id="desc79">Kernel pf driver</desc><path id="path81" d="M18.57 348.36 L167.16 348.36 A18.5731 18.5731 -180 0 0 185.73 329.79 L185.73 303.58 A18.5731 18.5731 -180 0 0 167.16 285 L18.57 285 A18.5731 18.5731 -180 0 0 0 303.58 L0 329.79 A18.5731 18.5731 -180 0 0 18.57 348.36 Z" class="st8"/><text id="text83" x="118.71" y="319.68" class="st9">Kernel pf driver</text></g><g id="shape1-20" transform="translate(103.263,-156.88)"><title id="title86">Rounded Rectangle</title><desc id="desc88">Filters support traffic steering to VF</desc><g id="shadow1-21" class="st1" transform="matrix(1,0,0,1,0.345598,1.97279)"><path id="path91" d="M10.55 348.36 L94.98 348.36 A10.5529 10.5529 -180 0 0 105.53 337.81 L105.53 324.98 A10.5529 10.5529 -180 0 0 94.98 314.43 L10.55 314.43 A10.5529 10.5529 -180 0 0 0 324.98 L0 337.81 A10.5529 10.5529 -180 0 0 10.55 348.36 Z" class="st10"/></g><path id="path93" d="M10.55 348.36 L94.98 348.36 A10.5529 10.5529 -180 0 0 105.53 337.81 L105.53 324.98 A10.5529 10.5529 -180 0 0 94.98 314.43 L10.55 314.43 A10.5529 10.5529 -180 0 0 0 324.98 L0 337.81 A10.5529 10.5529 -180 0 0 10.55 348.36 Z" class="st11"/><text style="-inkscape-font-specification:'Calibri, Normal';font-family:Calibri;font-weight:400;font-style:normal;font-stretch:normal;font-variant:normal;font-size:10.00001526px;text-anchor:start;text-align:start;writing-mode:lr;line-height:125%" id="text95" x="10.03" y="328.39" class="st12"><tspan id="tspan4475">Filters support traffic</tspan></text><text id="text95-1" x="11.048" y="340.462" class="st12" style="font-style:normal;font-variant:normal;font-weight:400;font-stretch:normal;font-size:10.00001526px;line-height:125%;font-family:Calibri;-inkscape-font-specification:'Calibri, Normal';text-align:start;writing-mode:lr-tb;text-anchor:start;fill:#feffff"><tspan id="tspan4477" x="11.048" y="340.462">steering to VF</tspan></text></g><g id="shape3-27" transform="translate(192.985,-73.088)"><title id="title100">Rectangle.3</title><desc id="desc102">Rx Queues (0-N) PF</desc><rect id="rect104" width="75.982" height="33.939" x="0" y="314.425" class="st8"/><text style="-inkscape-font-specification:'Calibri, Normal';font-family:Calibri;font-weight:400;font-style:normal;font-stretch:normal;font-variant:normal;font-size:10.00001526px;text-anchor:start;text-align:start;writing-mode:lr;line-height:125%" id="text106" x="16.43" y="322.39" class="st9"><tspan id="tspan4512">Rx Queues</tspan></text><text id="text106-2" x="23.188" y="333.705" class="st9" style="font-style:normal;font-variant:normal;font-weight:400;font-stretch:normal;font-size:10.00001526px;line-height:125%;font-family:Calibri;-inkscape-font-specification:'Calibri, Normal';text-align:start;writing-mode:lr-tb;text-anchor:start;fill:#000"><tspan id="tspan4514" x="23.188" y="333.705">( 0-N )</tspan></text><text id="text106-9" x="27.491" y="345.524" class="st9" style="font-style:normal;font-variant:normal;font-weight:400;font-stretch:normal;font-size:10.00001526px;line-height:125%;font-family:Calibri;-inkscape-font-specification:'Calibri, Normal';text-align:start;writing-mode:lr-tb;text-anchor:start;fill:red;fill-opacity:1"><tspan id="tspan4516" x="27.491" y="345.524">PF</tspan></text></g><g id="shape4-32" transform="translate(344.949,-73.088)"><title id="title113">Rectangle.4</title><desc id="desc115">Rx Queues (0-M) VF(vf 0)</desc><g id="shadow4-33" class="st1" transform="matrix(1,0,0,1,0.345598,1.97279)"><rect id="rect118" width="75.982" height="33.939" x="0" y="314.425" class="st10"/></g><rect id="rect120" width="75.982" height="33.939" x="0" y="314.425" class="st15"/><text style="-inkscape-font-specification:'Calibri, Normal';font-family:Calibri;font-weight:400;font-style:normal;font-stretch:normal;font-variant:normal;font-size:10.00001526px;text-anchor:start;text-align:start;writing-mode:lr;line-height:125%" id="text122" x="16.43" y="322.39" class="st9"><tspan id="tspan4571">Rx Queues</tspan></text><text id="text122-8" x="21.777" y="333.696" class="st9" style="font-style:normal;font-variant:normal;font-weight:400;font-stretch:normal;font-size:10.00001526px;line-height:125%;font-family:Calibri;-inkscape-font-specification:'Calibri, Normal';text-align:start;writing-mode:lr-tb;text-anchor:start;fill:#000"><tspan id="tspan4569" x="21.777" y="333.696">( 0-M )</tspan></text><text id="text122-0" x="21.791" y="343.915" class="st9" style="font-style:normal;font-variant:normal;font-weight:400;font-stretch:normal;font-size:10.00001526px;line-height:125%;font-family:Calibri;-inkscape-font-specification:'Calibri, Normal';text-align:start;writing-mode:lr-tb;text-anchor:start;fill:red;fill-opacity:1"><tspan id="tspan4573" x="21.791" y="343.915">VF(vf0)</tspan></text></g><g id="shape5-44" transform="translate(154.994,-43.0328)"><title id="title137">Rectangle.5</title><desc id="desc139">filters</desc><g id="shadow5-45" class="st1" transform="matrix(1,0,0,1,0.345598,1.97279)"><rect id="rect142" width="303.929" height="16.885" x="0" y="331.479" class="st10"/></g><rect id="rect144" width="303.929" height="16.885" x="0" y="331.479" class="st16"/><text id="text146" x="140.28" y="342.92" class="st9">filters</text></g><g id="shape6-52" transform="translate(95.8962,-224.377)"><title id="title149">Rounded Rectangle.6</title><desc id="desc151">Tools to program filters</desc><path style="fill:#a8d08d;stroke:#4f87bb;stroke-width:.75" id="path153" d="m 7.6,347.29783 60.78,0 a 7.59811,7.59811 0 0 0 7.6,-7.59 l 0,-18.58 a 7.59811,7.59811 0 0 0 -7.6,-7.6 l -60.78,0 a 7.59811,7.59811 0 0 0 -7.6,7.6 l 0,18.58 a 7.59811,7.59811 0 0 0 7.6,7.59 z" class="st8"/><text style="font-size:10.00003242px;font-family:Calibri;fill:#000" id="text155" x="21.74" y="328.48" class="st9">Tools to</text><text id="text155-1" x="23.408" y="340.797" class="st9" style="font-style:normal;font-variant:normal;font-weight:400;font-stretch:normal;font-size:10.00001526px;line-height:125%;font-family:Calibri;-inkscape-font-specification:'Calibri, Normal';text-align:start;writing-mode:lr-tb;text-anchor:start;fill:#000"><tspan style="font-style:normal;font-variant:normal;font-weight:400;font-stretch:normal;font-size:10.00001526px;line-height:125%;font-family:Calibri;-inkscape-font-specification:'Calibri, Normal';text-align:start;writing-mode:lr-tb;text-anchor:start" id="tspan157-9" x="9.358" class="st13">program filters</tspan></text></g><g id="shape22-56" transform="translate(11.4714,-156.88)"><title id="title160">2-D word balloon</title><desc id="desc162">Director flows to queue index in specified VF</desc><text id="text169-3-4" x="8.056" y="346.972" class="st17" style="font-style:normal;font-variant:normal;font-weight:400;font-stretch:normal;font-size:8.0000124px;line-height:125%;font-family:Calibri;-inkscape-font-specification:'Calibri, Normal';text-align:start;writing-mode:lr-tb;text-anchor:start;fill:#feffff"><tspan id="tspan4471" x="8.056" y="346.972">inspecified VF</tspan></text><g id="shadow22-57" class="st1" transform="matrix(1,0,0,1,0.345598,1.97279)"><path id="path165" d="M0 327.15 L0 314.43 L28.49 314.43 L37.99 314.43 L47.49 314.43 L75.98 314.43 L75.98 327.15 L91.79 331.39 L75.98 335.64 L75.98 348.36 L47.49 348.36 L37.99 348.36 L28.49 348.36 L0 348.36 L0 335.64 L0 331.39 L0 327.15 Z" class="st10"/></g><path style="fill:#c00000;stroke:#c7c8c8;stroke-width:.25" id="path167" d="m 0.53783484,327.68783 0,-12.72 28.49000016,0 9.5,0 9.5,0 28.49,0 0,12.72 15.81,4.24 -15.81,4.25 0,12.72 -28.49,0 -9.5,0 -9.5,0 -28.49000016,0 0,-12.72 0,-4.25 0,-4.24 z" class="st11"/><text style="font-style:normal;font-variant:normal;font-weight:400;font-stretch:normal;font-size:8.0000124px;line-height:125%;font-family:Calibri;-inkscape-font-specification:'Calibri, Normal';text-align:start;writing-mode:lr-tb;text-anchor:start;fill:#feffff" id="text169" x="7.56" y="324.19" class="st17"><tspan id="tspan4446" x="7.56" y="324.19">Director flows</tspan></text><text id="text169-3" x="8.11" y="334.575" class="st17" style="font-style:normal;font-variant:normal;font-weight:400;font-stretch:normal;font-size:8.0000124px;line-height:125%;font-family:Calibri;-inkscape-font-specification:'Calibri, Normal';text-align:start;writing-mode:lr-tb;text-anchor:start;fill:#feffff"><tspan id="tspan4469" x="8.11" y="334.575">to queue index</tspan></text><text style="font-style:normal;font-variant:normal;font-weight:400;font-stretch:normal;font-size:8.00001221px;line-height:125%;font-family:Calibri;-inkscape-font-specification:'Calibri, Normal';text-align:start;writing-mode:lr;text-anchor:start;fill:#feffff" id="text169-5" x="8.535" y="345.462" class="st17"><tspan id="tspan4479">in specified VF</tspan></text></g><g id="shape24-64" transform="translate(323.843,-285.05)"><title id="title176">Rounded Rectangle.24</title><desc id="desc178">DPDK</desc><g id="shadow24-65" class="st1" transform="matrix(1,0,0,1,0.345598,1.97279)"><path id="path181" d="M9.29 348.36 L83.58 348.36 A9.28657 9.28657 -180 0 0 92.87 339.08 L92.87 295.74 A9.28657 9.28657 -180 0 0 83.58 286.45 L9.29 286.45 A9.28657 9.28657 -180 0 0 0 295.74 L0 339.08 A9.28657 9.28657 -180 0 0 9.29 348.36 Z" class="st10"/></g><path id="path183" d="M9.29 348.36 L83.58 348.36 A9.28657 9.28657 -180 0 0 92.87 339.08 L92.87 295.74 A9.28657 9.28657 -180 0 0 83.58 286.45 L9.29 286.45 A9.28657 9.28657 -180 0 0 0 295.74 L0 339.08 A9.28657 9.28657 -180 0 0 9.29 348.36 Z" class="st18"/><text id="text185" x="30.57" y="321.61" class="st19">DPDK</text></g><g id="shape25-70" transform="translate(192.985,-285.05)"><title id="title188">Rounded Rectangle.25</title><desc id="desc190">Socket</desc><path id="path192" d="M9.29 348.36 L83.58 348.36 A9.28657 9.28657 -180 0 0 92.87 339.08 L92.87 295.74 A9.28657 9.28657 -180 0 0 83.58 286.45 L9.29 286.45 A9.28657 9.28657 -180 0 0 0 295.74 L0 339.08 A9.28657 9.28657 -180 0 0 9.29 348.36 Z" class="st8"/><text id="text194" x="27.56" y="321.61" class="st19">Socket</text></g><g id="shape44-73" transform="translate(154.994,569.271) rotate(180)"><title id="title197">Simple Arrow.44</title></g><g id="shape52-75" transform="translate(154.994,-127.458)"><title id="title201">Single arrowhead</title></g><g id="shape70-76" transform="translate(221.976,-107.027)"><title id="title204">Dynamic connector.70</title><path id="path206" d="M9 338.16 L9 337.8 L9 325.87" class="st20"/></g><g id="shape81-85" transform="translate(124.887,-224.377)"><title id="title209">Dynamic connector.81</title><path id="path211" d="M9 348.36 L9 362.26" class="st22"/></g><g id="shape83-91" transform="translate(240.398,-57.5029)"><title id="title214">Dynamic connector.83</title><path id="path216" d="M-8.58 345.95 L-8.97 339.8" class="st22"/></g><g id="shape84-96" transform="translate(373.94,-57.5029)"><title id="title219">Dynamic connector.84</title><path id="path221" d="M9 345.95 L9 339.82" class="st22"/></g><g id="shape98-101" transform="translate(539.29,6.22333) rotate(79.2209)"><title id="title224">Sheet.98</title><path id="path226" d="M11.39 310.28 L11.72 310.42 C54.22 328.18 100.77 337.63 149.11 345.35 C162.41 347.48 175.84 349.47 187.65 347.74 C201.36 345.74 212.87 338.71 218.42 327.59 C222.66 319.09 223.42 308.2 229.69 303.23 C239.2 295.7 261.37 301.76 275.96 305.26" class="st23"/></g><g id="shape109-107" transform="translate(712.298,124.855) rotate(100.2)"><title id="title229">Sheet.109</title><path id="path231" d="M12.03 344.31 L12.38 344.21 C55.98 332.05 99.42 314.86 144.33 309.38 C167.01 306.62 190.06 306.85 204.84 318.11 C212.98 324.32 218.61 333.88 226.49 339.83 C238.38 348.81 255.38 349.56 275.91 347.51" class="st25"/></g><g id="shape110-113" transform="translate(108.779,-175.962)"><title id="title234">Sheet.110</title><rect id="rect236" width="94.5" height="6.75" x="0" y="341.614" class="st27"/></g></g></svg>