<svg xmlns="http://www.w3.org/2000/svg" xmlns:ev="http://www.w3.org/2001/xml-events" xmlns:xlink="http://www.w3.org/1999/xlink" width="441" height="51.396" class="st8" color-interpolation-filters="sRGB" viewBox="0 0 330.75 38.547" xml:space="preserve"><style type="text/css">.st1{visibility:visible}.st2{fill:#5b9bd5;fill-opacity:.22;filter:url(#filter_2);stroke:#5b9bd5;stroke-opacity:.22}.st3{fill:#fff;stroke:#c7c8c8;stroke-width:.25}.st4{fill:#000;font-family:Calibri;font-size:.833336em}.st5{fill:#c5e0b3;stroke-width:.25}.st5,.st6{stroke:#c7c8c8}.st6,.st7{stroke-width:.25}.st6{fill:#f4b183}.st7{fill:none;stroke:none}.st8{fill:none;fill-rule:evenodd;font-size:12px;overflow:visible;stroke-linecap:square;stroke-miterlimit:3}</style><defs id="Filters"><filter id="filter_2"><feGaussianBlur stdDeviation="2"/></filter></defs><g><title>Page-1</title><g id="shape1-1" transform="translate(3.0294,-5.34781)"><title>Rectangle</title><desc>0x000000</desc><g id="shadow1-2" class="st1" transform="matrix(1,0,0,1,0.345598,1.97279)"><rect width="104.339" height="16.475" x="0" y="22.072" class="st2"/></g><rect width="104.339" height="16.475" x="0" y="22.072" class="st3"/><text x="32.27" y="33.31" class="st4">0x000000</text></g><g id="shape2-7" transform="translate(107.368,-5.34781)"><title>Rectangle.2</title><desc>VF ID + 1</desc><g id="shadow2-8" class="st1" transform="matrix(1,0,0,1,0.345598,1.97279)"><rect width="60.407" height="16.475" x="0" y="22.072" class="st2"/></g><rect width="60.407" height="16.475" x="0" y="22.072" class="st5"/><text x="12.32" y="33.31" class="st4">VF ID + 1</text></g><g id="shape3-13" transform="translate(167.775,-5.34781)"><title>Rectangle.3</title><desc>Queue Index</desc><g id="shadow3-14" class="st1" transform="matrix(1,0,0,1,0.345598,1.97279)"><rect width="159.254" height="16.475" x="0" y="22.072" class="st2"/></g><rect width="159.254" height="16.475" x="0" y="22.072" class="st6"/><text x="53.74" y="33.31" class="st4">Queue Index</text></g><g id="shape4-19" transform="translate(305.063,-21.8224)"><title>Sheet.4</title><desc>0</desc><rect width="21.966" height="16.475" x="0" y="22.072" class="st7"/><text x="8.45" y="33.31" class="st4">0</text></g><g id="shape6-22" transform="translate(165.029,-21.8224)"><title>Sheet.6</title><desc>31</desc><rect width="21.966" height="16.475" x="0" y="22.072" class="st7"/><text x="5.91" y="33.31" class="st4">31</text></g><g id="shape7-25" transform="translate(104.623,-21.8224)"><title>Sheet.7</title><desc>39</desc><rect width="21.966" height="16.475" x="0" y="22.072" class="st7"/><text x="5.91" y="33.31" class="st4">39</text></g><g id="shape8-28" transform="translate(3.0294,-21.8224)"><title>Sheet.8</title><desc>63</desc><rect width="21.966" height="16.475" x="0" y="22.072" class="st7"/><text x="5.91" y="33.31" class="st4">63</text></g></g></svg>