<svg xmlns="http://www.w3.org/2000/svg" xmlns:osb="http://www.openswatchbook.org/uri/2009/osb" xmlns:svg="http://www.w3.org/2000/svg" xmlns:xlink="http://www.w3.org/1999/xlink" id="svg2" width="120mm" height="80mm" version="1.1" viewBox="0 0 425.197 283.465"><defs id="defs4"><marker id="marker7773" orient="auto" refX="0" refY="0" style="overflow:visible"><path id="path7775" d="M 8.7185878,4.0337352 -2.2072895,0.01601326 8.7185884,-4.0017078 c -1.7454984,2.3720609 -1.7354408,5.6174519 -6e-7,8.035443 z" transform="matrix(-1.1,0,0,-1.1,-1.1,0)" style="fill:#000;fill-opacity:1;fill-rule:evenodd;stroke:#000;stroke-width:.625;stroke-linejoin:round;stroke-opacity:1"/></marker><marker id="marker7679" orient="auto" refX="0" refY="0" style="overflow:visible"><path id="path7681" d="M 8.7185878,4.0337352 -2.2072895,0.01601326 8.7185884,-4.0017078 c -1.7454984,2.3720609 -1.7354408,5.6174519 -6e-7,8.035443 z" transform="matrix(1.1,0,0,1.1,1.1,0)" style="fill:#000;fill-opacity:1;fill-rule:evenodd;stroke:#000;stroke-width:.625;stroke-linejoin:round;stroke-opacity:1"/></marker><marker id="marker7583" orient="auto" refX="0" refY="0" style="overflow:visible"><path id="path7585" d="M 8.7185878,4.0337352 -2.2072895,0.01601326 8.7185884,-4.0017078 c -1.7454984,2.3720609 -1.7354408,5.6174519 -6e-7,8.035443 z" transform="matrix(-1.1,0,0,-1.1,-1.1,0)" style="fill:#000;fill-opacity:1;fill-rule:evenodd;stroke:#000;stroke-width:.625;stroke-linejoin:round;stroke-opacity:1"/></marker><marker id="marker7501" orient="auto" refX="0" refY="0" style="overflow:visible"><path id="path7503" d="M 8.7185878,4.0337352 -2.2072895,0.01601326 8.7185884,-4.0017078 c -1.7454984,2.3720609 -1.7354408,5.6174519 -6e-7,8.035443 z" transform="matrix(1.1,0,0,1.1,1.1,0)" style="fill:#000;fill-opacity:1;fill-rule:evenodd;stroke:#000;stroke-width:.625;stroke-linejoin:round;stroke-opacity:1"/></marker><marker id="marker7421" orient="auto" refX="0" refY="0" style="overflow:visible"><path id="path7423" d="M 8.7185878,4.0337352 -2.2072895,0.01601326 8.7185884,-4.0017078 c -1.7454984,2.3720609 -1.7354408,5.6174519 -6e-7,8.035443 z" transform="matrix(1.1,0,0,1.1,1.1,0)" style="fill:#000;fill-opacity:1;fill-rule:evenodd;stroke:#000;stroke-width:.625;stroke-linejoin:round;stroke-opacity:1"/></marker><marker id="marker7331" orient="auto" refX="0" refY="0" style="overflow:visible"><path id="path7333" d="M 8.7185878,4.0337352 -2.2072895,0.01601326 8.7185884,-4.0017078 c -1.7454984,2.3720609 -1.7354408,5.6174519 -6e-7,8.035443 z" transform="matrix(-1.1,0,0,-1.1,-1.1,0)" style="fill:#000;fill-opacity:1;fill-rule:evenodd;stroke:#000;stroke-width:.625;stroke-linejoin:round;stroke-opacity:1"/></marker><marker id="marker7265" orient="auto" refX="0" refY="0" style="overflow:visible"><path id="path7267" d="M 8.7185878,4.0337352 -2.2072895,0.01601326 8.7185884,-4.0017078 c -1.7454984,2.3720609 -1.7354408,5.6174519 -6e-7,8.035443 z" transform="matrix(-1.1,0,0,-1.1,-1.1,0)" style="fill:#000;fill-opacity:1;fill-rule:evenodd;stroke:#000;stroke-width:.625;stroke-linejoin:round;stroke-opacity:1"/></marker><marker style="overflow:visible" id="marker7199" orient="auto" refX="0" refY="0"><path style="fill:#000;fill-opacity:1;fill-rule:evenodd;stroke:#000;stroke-width:.625;stroke-linejoin:round;stroke-opacity:1" id="path7201" d="M 8.7185878,4.0337352 -2.2072895,0.01601326 8.7185884,-4.0017078 c -1.7454984,2.3720609 -1.7354408,5.6174519 -6e-7,8.035443 z" transform="matrix(1.1,0,0,1.1,1.1,0)"/></marker><marker id="marker7111" orient="auto" refX="0" refY="0" style="overflow:visible"><path id="path7113" d="M 8.7185878,4.0337352 -2.2072895,0.01601326 8.7185884,-4.0017078 c -1.7454984,2.3720609 -1.7354408,5.6174519 -6e-7,8.035443 z" transform="matrix(-1.1,0,0,-1.1,-1.1,0)" style="fill:#000;fill-opacity:1;fill-rule:evenodd;stroke:#000;stroke-width:.625;stroke-linejoin:round;stroke-opacity:1"/></marker><marker id="Arrow2Lstart" orient="auto" refX="0" refY="0" style="overflow:visible"><path id="path5820" d="M 8.7185878,4.0337352 -2.2072895,0.01601326 8.7185884,-4.0017078 c -1.7454984,2.3720609 -1.7354408,5.6174519 -6e-7,8.035443 z" transform="matrix(1.1,0,0,1.1,1.1,0)" style="fill:#000;fill-opacity:1;fill-rule:evenodd;stroke:#000;stroke-width:.625;stroke-linejoin:round;stroke-opacity:1"/></marker><marker id="Arrow2Lend" orient="auto" refX="0" refY="0" style="overflow:visible"><path id="path5823" d="M 8.7185878,4.0337352 -2.2072895,0.01601326 8.7185884,-4.0017078 c -1.7454984,2.3720609 -1.7354408,5.6174519 -6e-7,8.035443 z" transform="matrix(-1.1,0,0,-1.1,-1.1,0)" style="fill:#000;fill-opacity:1;fill-rule:evenodd;stroke:#000;stroke-width:.625;stroke-linejoin:round;stroke-opacity:1"/></marker><linearGradient id="linearGradient5784" osb:paint="solid"><stop style="stop-color:#1e5dae;stop-opacity:1" id="stop5786" offset="0"/></linearGradient><linearGradient id="linearGradient5741" osb:paint="solid"><stop style="stop-color:#fff;stop-opacity:1" id="stop5743" offset="0"/></linearGradient><linearGradient id="linearGradient5735" osb:paint="solid"><stop style="stop-color:#fff;stop-opacity:1" id="stop5737" offset="0"/></linearGradient><linearGradient id="linearGradient5745" x1="167.943" x2="263.392" y1="226.057" y2="226.057" gradientTransform="translate(-77.340273,715.61336)" gradientUnits="userSpaceOnUse" xlink:href="#linearGradient5741"/><linearGradient id="linearGradient5788" x1="392.197" x2="487.646" y1="258.382" y2="258.382" gradientTransform="translate(-84.916417,744.90779)" gradientUnits="userSpaceOnUse" xlink:href="#linearGradient5784"/><linearGradient id="linearGradient5788-1" x1="392.197" x2="487.646" y1="258.382" y2="258.382" gradientTransform="matrix(1.2713979,0,0,0.99644866,-421.24046,743.3)" gradientUnits="userSpaceOnUse" xlink:href="#linearGradient5784"/><marker id="marker6152-5" orient="auto" refX="0" refY="0" style="overflow:visible"><path id="path6154-8" d="M 8.7185878,4.0337352 -2.2072895,0.01601326 8.7185884,-4.0017078 c -1.7454984,2.3720609 -1.7354408,5.6174519 -6e-7,8.035443 z" transform="matrix(1.1,0,0,1.1,1.1,0)" style="fill:#000;fill-opacity:1;fill-rule:evenodd;stroke:#000;stroke-width:.625;stroke-linejoin:round;stroke-opacity:1"/></marker><marker id="marker6152-6" orient="auto" refX="0" refY="0" style="overflow:visible"><path id="path6154-2" d="M 8.7185878,4.0337352 -2.2072895,0.01601326 8.7185884,-4.0017078 c -1.7454984,2.3720609 -1.7354408,5.6174519 -6e-7,8.035443 z" transform="matrix(1.1,0,0,1.1,1.1,0)" style="fill:#000;fill-opacity:1;fill-rule:evenodd;stroke:#000;stroke-width:.625;stroke-linejoin:round;stroke-opacity:1"/></marker></defs><metadata id="metadata7"/><g id="layer1" transform="translate(0,-768.89764)"><rect style="fill:#000;fill-opacity:0" id="rect3336" width="527.3" height="395.98" x="98.995" y="57.362"/><rect style="fill:#000;fill-opacity:0;stroke:#257cdc;stroke-width:4;stroke-linejoin:bevel;stroke-miterlimit:4;stroke-dasharray:none;stroke-opacity:1" id="rect4148" width="222.396" height="150.675" x="29.402" y="790.825"/><text style="font-style:normal;font-weight:400;font-size:12.5px;line-height:125%;font-family:sans-serif;letter-spacing:0;word-spacing:0;fill:#000;fill-opacity:1;stroke:none;stroke-width:1px;stroke-linecap:butt;stroke-linejoin:miter;stroke-opacity:1" id="text4152" x="61.051" y="807.321" xml:space="preserve"><tspan id="tspan4154" x="61.051" y="807.321">DPDK Primary Application</tspan></text><rect style="fill:#000;fill-opacity:0;stroke:#257cdc;stroke-width:2;stroke-linejoin:bevel;stroke-miterlimit:4;stroke-dasharray:none;stroke-opacity:1" id="rect4156-6" width="94.449" height="35.355" x="305.76" y="827.018"/><text style="font-style:normal;font-weight:400;font-size:12.5px;line-height:125%;font-family:sans-serif;text-align:center;letter-spacing:0;word-spacing:0;text-anchor:middle;fill:#000;fill-opacity:1;stroke:none;stroke-width:1px;stroke-linecap:butt;stroke-linejoin:miter;stroke-opacity:1" id="text4189" x="350.686" y="841.161" xml:space="preserve"><tspan id="tspan4191" x="350.686" y="841.161">dpdk-pdump</tspan><tspan id="tspan4193" x="350.686" y="856.786">tool</tspan></text><rect style="fill:#000;fill-opacity:0;stroke:#257cdc;stroke-width:2;stroke-linejoin:bevel;stroke-miterlimit:4;stroke-dasharray:none;stroke-opacity:1" id="rect4156-6-4" width="94.449" height="35.355" x="307.78" y="891.163"/><text style="font-style:normal;font-weight:400;font-size:12.5px;line-height:125%;font-family:sans-serif;text-align:center;letter-spacing:0;word-spacing:0;text-anchor:middle;fill:#000;fill-opacity:1;stroke:none;stroke-width:1px;stroke-linecap:butt;stroke-linejoin:miter;stroke-opacity:1" id="text4189-1" x="352.706" y="905.305" xml:space="preserve"><tspan id="tspan4193-3" x="352.706" y="905.305">PCAP PMD</tspan></text><rect style="fill:url(#linearGradient5745);fill-opacity:1;stroke:#257cdc;stroke-width:2;stroke-linejoin:bevel;stroke-miterlimit:4;stroke-dasharray:none;stroke-opacity:1" id="rect4156-6-6" width="94.449" height="35.355" x="91.103" y="923.993"/><text style="font-style:normal;font-weight:400;font-size:12.5px;line-height:125%;font-family:sans-serif;text-align:center;letter-spacing:0;word-spacing:0;text-anchor:middle;fill:#000;fill-opacity:1;stroke:none;stroke-width:1px;stroke-linecap:butt;stroke-linejoin:miter;stroke-opacity:1" id="text4189-0" x="136.028" y="938.135" xml:space="preserve"><tspan id="tspan4193-6" x="136.028" y="938.135">dpdk_port0</tspan></text><rect style="fill:#000;fill-opacity:0;stroke:#257cdc;stroke-width:2;stroke-linejoin:bevel;stroke-miterlimit:4;stroke-dasharray:none;stroke-opacity:1" id="rect4156-6-5" width="94.449" height="35.355" x="92.618" y="824.998"/><text style="font-style:normal;font-weight:400;font-size:12.5px;line-height:125%;font-family:sans-serif;text-align:center;letter-spacing:0;word-spacing:0;text-anchor:middle;fill:#000;fill-opacity:1;stroke:none;stroke-width:1px;stroke-linecap:butt;stroke-linejoin:miter;stroke-opacity:1" id="text4189-4" x="137.544" y="839.14" xml:space="preserve"><tspan id="tspan4193-2" x="137.544" y="839.14">librte_pdump</tspan></text><rect style="fill:url(#linearGradient5788);fill-opacity:1;stroke:#257cdc;stroke-width:1;stroke-linejoin:bevel;stroke-miterlimit:4;stroke-dasharray:none;stroke-opacity:1" id="rect4156-6-4-5" width="94.449" height="35.355" x="307.78" y="985.612"/><text style="font-style:normal;font-weight:400;font-size:12.5px;line-height:125%;font-family:sans-serif;text-align:center;letter-spacing:0;word-spacing:0;text-anchor:middle;fill:#fff;fill-opacity:1;stroke:none;stroke-width:1px;stroke-linecap:butt;stroke-linejoin:miter;stroke-opacity:1" id="text4189-1-8" x="352.706" y="999.755" xml:space="preserve"><tspan id="tspan4193-3-2" x="352.706" y="999.755">capture.pcap</tspan></text><rect style="fill:url(#linearGradient5788-1);fill-opacity:1;stroke:#257cdc;stroke-width:1.12555885;stroke-linejoin:bevel;stroke-miterlimit:4;stroke-dasharray:none;stroke-opacity:1" id="rect4156-6-4-5-1" width="120.083" height="35.23" x="78.033" y="983.15"/><text style="font-style:normal;font-weight:400;font-size:12.5px;line-height:125%;font-family:sans-serif;text-align:center;letter-spacing:0;word-spacing:0;text-anchor:middle;fill:#fff;fill-opacity:1;stroke:none;stroke-width:1px;stroke-linecap:butt;stroke-linejoin:miter;stroke-opacity:1" id="text4189-1-8-4" x="136.534" y="1002.785" xml:space="preserve"><tspan id="tspan4193-3-2-7" x="136.534" y="1002.785">Traffic Generator</tspan></text><path style="fill:none;fill-rule:evenodd;stroke:#000;stroke-width:1px;stroke-linecap:butt;stroke-linejoin:miter;stroke-opacity:1;marker-end:url(#marker7331)" id="path7329" d="m 351.46948,927.02357 c 0,57.5787 0,57.5787 0,57.5787"/><path style="fill:none;fill-rule:evenodd;stroke:#000;stroke-width:1px;stroke-linecap:butt;stroke-linejoin:miter;stroke-opacity:1;marker-end:url(#Arrow2Lend)" id="path7405" d="m 349.44918,862.37381 c 0,28.28427 0,28.28427 0,28.28427"/><path style="fill:none;fill-rule:evenodd;stroke:#000;stroke-width:1px;stroke-linecap:butt;stroke-linejoin:miter;stroke-opacity:1;marker-start:url(#marker7421)" id="path7419" d="m 134.79176,960.86368 c 0,22.72844 0,22.22336 0,22.22336"/><path style="fill:none;fill-rule:evenodd;stroke:#000;stroke-width:1px;stroke-linecap:butt;stroke-linejoin:miter;stroke-opacity:1;marker-start:url(#marker7501);marker-end:url(#marker7583)" id="path7499" d="m 136.30295,923.75113 c 0,-63.57143 0,-63.57143 0,-63.57143"/><path style="fill:none;fill-rule:evenodd;stroke:#000;stroke-width:1px;stroke-linecap:butt;stroke-linejoin:miter;stroke-opacity:1;marker-start:url(#marker7679);marker-end:url(#marker7773)" id="path7677" d="m 187.01723,841.96541 c 118.21429,0 118.21429,0 118.21429,0"/></g></svg>