<svg xmlns="http://www.w3.org/2000/svg" xmlns:ev="http://www.w3.org/2001/xml-events" xmlns:xlink="http://www.w3.org/1999/xlink" width="1019.462" height="437.369" class="st19" color-interpolation-filters="sRGB" viewBox="0 0 764.596 328.027" xml:space="preserve"><style type="text/css">.st1{visibility:visible}.st2{fill:#5b9bd5;fill-opacity:.22;filter:url(#filter_2);stroke:#5b9bd5;stroke-opacity:.22}.st3{fill:#fff;stroke:#c7c8c8;stroke-width:.25}.st4{fill:#000;font-family:Calibri;font-size:.833336em}.st5{fill:none;filter:url(#filter_2);stroke:#5b9bd5;stroke-opacity:.22}.st6{fill:none;stroke-width:.25}.st6,.st7{stroke:#c7c8c8}.st7,.st8{stroke-width:.25}.st7{fill:#d8d8d8}.st8{fill:none;stroke:none}.st9{fill:#000;font-family:Calibri;font-size:1.00001em;font-style:italic}.st10{fill:#ed7d31;stroke:#c7c8c8;stroke-width:.25}.st11{fill:#feffff;font-family:Calibri;font-size:.833336em}.st12{fill:#a5a5a5;stroke:#c7c8c8;stroke-width:.25}.st13{marker-end:url(#mrkr4-61);marker-start:url(#mrkr4-59);stroke:#000;stroke-linecap:round;stroke-linejoin:round;stroke-width:1}.st14{fill:#000;fill-opacity:1;stroke:#000;stroke-opacity:1;stroke-width:.28409090909091}.st15{font-size:1em}.st16{fill:none;filter:url(#filter_2);stroke:#5b9bd5;stroke-dasharray:7,5;stroke-opacity:.22}.st17,.st18{stroke-width:1}.st17{fill:none;stroke:red;stroke-dasharray:7,5}.st18{stroke:#000;stroke-linecap:round;stroke-linejoin:round}.st19{fill:none;fill-rule:evenodd;font-size:12px;overflow:visible;stroke-linecap:square;stroke-miterlimit:3}</style><defs id="Markers"><g id="lend4"><path d="M 2 1 L 0 0 L 2 -1 L 2 1" style="stroke:none"/></g><marker id="mrkr4-59" class="st14" markerUnits="strokeWidth" orient="auto" overflow="visible" refX="6.68"><use transform="scale(3.52)" xlink:href="#lend4"/></marker><marker id="mrkr4-61" class="st14" markerUnits="strokeWidth" orient="auto" overflow="visible" refX="-7.04"><use transform="scale(-3.52,-3.52)" xlink:href="#lend4"/></marker></defs><defs id="Filters"><filter id="filter_2"><feGaussianBlur stdDeviation="2"/></filter></defs><g><title>Page-1</title><g id="shape1-1" transform="translate(146.2,-258.819)"><title>Rectangle</title><desc>Container</desc><g id="shadow1-2" class="st1" transform="matrix(1,0,0,1,0.345598,1.97279)"><rect width="68.1" height="54.181" x="0" y="273.847" class="st2"/></g><rect width="68.1" height="54.181" x="0" y="273.847" class="st3"/><text x="14.04" y="291.94" class="st4">Container</text></g><g id="shape3-7" transform="translate(18.25,-169.971)"><title>Rectangle.3</title><g id="shadow3-8" class="st1" transform="matrix(1,0,0,1,0.345598,1.97279)"><rect width="306" height="57.329" x="0" y="270.699" class="st5" rx="13.5" ry="13.5"/></g><rect width="306" height="57.329" x="0" y="270.699" class="st6" rx="13.5" ry="13.5"/></g><g id="shape4-12" transform="translate(18.25,-61)"><title>Rectangle.4</title><g id="shadow4-13" class="st1" transform="matrix(1,0,0,1,0.345598,1.97279)"><rect width="306" height="72" x="0" y="256.027" class="st2" rx="13.5" ry="13.5"/></g><rect width="306" height="72" x="0" y="256.027" class="st7" rx="13.5" ry="13.5"/></g><g id="shape5-17" transform="translate(17.65,-202.75)"><title>Sheet.5</title><desc>Host kernel</desc><rect width="68.1" height="22.5" x="0" y="305.527" class="st8"/><text x="6.55" y="320.38" class="st9">Host kernel</text></g><g id="shape6-20" transform="translate(0.25,-110.5)"><title>Sheet.6</title><desc>NIC</desc><rect width="68.1" height="22.5" x="0" y="305.527" class="st8"/><text x="25.54" y="320.38" class="st9">NIC</text></g><g id="shape7-23" transform="translate(67.75,-99.3)"><title>Rectangle.7</title><desc>PF</desc><g id="shadow7-24" class="st1" transform="matrix(1,0,0,1,0.345598,1.97279)"><rect width="29.25" height="22.5" x="0" y="305.527" class="st2"/></g><rect width="29.25" height="22.5" x="0" y="305.527" class="st10"/><text x="9.74" y="319.78" class="st11">PF</text></g><g id="shape8-29" transform="translate(165.625,-99.3)"><title>Rectangle.8</title><desc>VF</desc><g id="shadow8-30" class="st1" transform="matrix(1,0,0,1,0.345598,1.97279)"><rect width="29.25" height="22.5" x="0" y="305.527" class="st2"/></g><rect width="29.25" height="22.5" x="0" y="305.527" class="st10"/><text x="9.49" y="319.78" class="st11">VF</text></g><g id="shape10-35" transform="translate(67.75,-70)"><title>Rectangle.10</title><desc>Hardware virtual switch</desc><g id="shadow10-36" class="st1" transform="matrix(1,0,0,1,0.345598,1.97279)"><rect width="225" height="22.5" x="0" y="305.527" class="st2"/></g><rect width="225" height="22.5" x="0" y="305.527" class="st12"/><text x="64.07" y="319.78" class="st11">Hardware virtual switch</text></g><g id="shape14-41" transform="translate(238.15,-258.7)"><title>Rectangle.14</title><desc>Container</desc><g id="shadow14-42" class="st1" transform="matrix(1,0,0,1,0.345598,1.97279)"><rect width="68.1" height="54.181" x="0" y="273.847" class="st2"/></g><rect width="68.1" height="54.181" x="0" y="273.847" class="st3"/><text x="14.04" y="291.94" class="st4">Container</text></g><g id="shape15-47" transform="translate(257.575,-99.2)"><title>Rectangle.15</title><desc>VF</desc><g id="shadow15-48" class="st1" transform="matrix(1,0,0,1,0.345598,1.97279)"><rect width="29.25" height="22.5" x="0" y="305.527" class="st2"/></g><rect width="29.25" height="22.5" x="0" y="305.527" class="st10"/><text x="9.49" y="319.78" class="st11">VF</text></g><g id="shape16-53" transform="translate(263.2,-258.7)"><title>Dynamic connector.16</title><path d="M9 334.71 L9 335.07 L9 457.99" class="st13"/></g><g id="shape18-62" transform="translate(54.25,-180.25)"><title>Ellipse</title><desc>PF driver</desc><g id="shadow18-63" class="st1"><path d="M0 316.78 A28.125 11.25 0 0 1 56.25 316.78 A28.125 11.25 0 1 1 0 316.78 Z" class="st2" transform="matrix(1,0,0,1,0.345598,1.97279)"/></g><path d="M0 316.78 A28.125 11.25 0 0 1 56.25 316.78 A28.125 11.25 0 1 1 0 316.78 Z" class="st10"/><text x="10.11" y="319.78" class="st11">PF driver</text></g><g id="shape19-68" transform="translate(73.375,-180.25)"><title>Dynamic connector.19</title><path d="M9 334.71 L9 335.07 L9 379.44" class="st13"/></g><g id="shape20-75" transform="translate(152.125,-263.44)"><title>Ellipse.20</title><desc>DPDK</desc><g id="shadow20-76" class="st1"><path d="M0 316.78 A28.125 11.25 0 0 1 56.25 316.78 A28.125 11.25 0 1 1 0 316.78 Z" class="st2" transform="matrix(1,0,0,1,0.345598,1.97279)"/></g><path d="M0 316.78 A28.125 11.25 0 0 1 56.25 316.78 A28.125 11.25 0 1 1 0 316.78 Z" class="st10"/><text x="16.79" y="319.78" class="st11">DPDK</text></g><g id="shape21-81" transform="translate(171.25,-258.819)"><title>Dynamic connector.21</title><path d="M9 334.71 L9 335.07 L9 458.01" class="st13"/></g><g id="shape22-88" transform="translate(243.25,-263.44)"><title>Ellipse.22</title><desc>DPDK</desc><g id="shadow22-89" class="st1"><path d="M0 316.78 A28.125 11.25 0 0 1 56.25 316.78 A28.125 11.25 0 1 1 0 316.78 Z" class="st2" transform="matrix(1,0,0,1,0.345598,1.97279)"/></g><path d="M0 316.78 A28.125 11.25 0 0 1 56.25 316.78 A28.125 11.25 0 1 1 0 316.78 Z" class="st10"/><text x="16.79" y="319.78" class="st11">DPDK</text></g><g id="shape23-94" transform="translate(395.65,-254.5)"><title>Rectangle.23</title><desc>Virtual Appliance</desc><g id="shadow23-95" class="st1" transform="matrix(1,0,0,1,0.345598,1.97279)"><rect width="68.1" height="54.181" x="0" y="273.847" class="st2"/></g><rect width="68.1" height="54.181" x="0" y="273.847" class="st3"/><text x="20.48" y="297.94" class="st4">Virtual <tspan x="13.98" class="st15" dy="1.2em">Appliance</tspan></text></g><g id="shape25-101" transform="translate(476.65,-254.681)"><title>Rectangle.25</title><desc>VM + Container</desc><g id="shadow25-102" class="st1" transform="matrix(1,0,0,1,0.345598,1.97279)"><rect width="68.1" height="54.181" x="0" y="273.847" class="st2"/></g><rect width="68.1" height="54.181" x="0" y="273.847" class="st3"/><text x="23.32" y="297.94" class="st4">VM + <tspan x="14.04" class="st15" dy="1.2em">Container</tspan></text></g><g id="shape27-108" transform="translate(566.65,-254.681)"><title>Rectangle.27</title><desc>Container</desc><g id="shadow27-109" class="st1" transform="matrix(1,0,0,1,0.345598,1.97279)"><rect width="68.1" height="54.181" x="0" y="273.847" class="st2"/></g><rect width="68.1" height="54.181" x="0" y="273.847" class="st3"/><text x="14.04" y="291.94" class="st4">Container</text></g><g id="shape28-114" transform="translate(570.625,-261.431)"><title>Ellipse.28</title><desc>DPDK</desc><g id="shadow28-115" class="st1"><path d="M0 316.78 A28.125 11.25 0 0 1 56.25 316.78 A28.125 11.25 0 1 1 0 316.78 Z" class="st2" transform="matrix(1,0,0,1,0.345598,1.97279)"/></g><path d="M0 316.78 A28.125 11.25 0 0 1 56.25 316.78 A28.125 11.25 0 1 1 0 316.78 Z" class="st10"/><text x="16.79" y="319.78" class="st11">DPDK</text></g><g id="shape29-120" transform="translate(405.25,-110.5)"><title>Rectangle.29</title><g id="shadow29-121" class="st1" transform="matrix(1,0,0,1,0.345598,1.97279)"><rect width="346.5" height="57.329" x="0" y="270.699" class="st5" rx="13.5" ry="13.5"/></g><rect width="346.5" height="57.329" x="0" y="270.699" class="st6" rx="13.5" ry="13.5"/></g><g id="shape30-125" transform="translate(405.25,-142)"><title>Sheet.30</title><desc>Host kernel</desc><rect width="68.1" height="22.5" x="0" y="305.527" class="st8"/><text x="6.55" y="320.38" class="st9">Host kernel</text></g><g id="shape31-128" transform="translate(681.417,-205)"><title>Rectangle.31</title><desc>vSwitch or vRouter</desc><g id="shadow31-129" class="st1" transform="matrix(1,0,0,1,0.345598,1.97279)"><rect width="68.1" height="103.5" x="0" y="224.527" class="st2"/></g><rect width="68.1" height="103.5" x="0" y="224.527" class="st3"/><text x="18.36" y="255.28" class="st4">vSwitch<tspan x="29.67" class="st15" dy="1.2em">or</tspan><tspan x="17.91" class="st15" dy="1.2em">vRouter</tspan></text></g><g id="shape32-136" transform="translate(687.342,-214)"><title>Ellipse.32</title><desc>DPDK</desc><g id="shadow32-137" class="st1"><path d="M0 316.78 A28.125 11.25 0 0 1 56.25 316.78 A28.125 11.25 0 1 1 0 316.78 Z" class="st2" transform="matrix(1,0,0,1,0.345598,1.97279)"/></g><path d="M0 316.78 A28.125 11.25 0 0 1 56.25 316.78 A28.125 11.25 0 1 1 0 316.78 Z" class="st10"/><text x="16.79" y="319.78" class="st11">DPDK</text></g><g id="shape34-142" transform="translate(429.7,-254.5)"><title>Dynamic connector</title><path d="M0 334.71 L0 335.07 L0 364.03 L244.68 364.03" class="st13"/></g><g id="shape35-149" transform="translate(510.7,-254.681)"><title>Dynamic connector.35</title><path d="M0 334.71 L0 335.07 L0 355.21 L163.68 355.21" class="st13"/></g><g id="shape36-156" transform="translate(600.7,-254.681)"><title>Dynamic connector.36</title><path d="M0 334.71 L0 335.07 L0 346.21 L73.68 346.21" class="st13"/></g><g id="shape37-163" transform="translate(557.933,-182.5)"><title>Rectangle.37</title><g id="shadow37-164" class="st1"><path d="M0 328.03 L202.82 328.03 L202.82 184.03 L0 184.03 L0 328.03 Z" class="st16" transform="matrix(1,0,0,1,0.345598,1.97279)"/></g><path d="M0 328.03 L202.82 328.03 L202.82 184.03 L0 184.03 L0 328.03 Z" class="st17"/></g><g id="shape38-168" transform="translate(676.9,-72.25)"><title>Rectangle.38</title><g id="shadow38-169" class="st1" transform="matrix(1,0,0,1,0.345598,1.97279)"><rect width="74.85" height="22.5" x="0" y="305.527" class="st2" rx="11.25" ry="11.25"/></g><rect width="74.85" height="22.5" x="0" y="305.527" class="st7" rx="11.25" ry="11.25"/></g><g id="shape39-173" transform="translate(686.2,-72.25)"><title>Sheet.39</title><desc>NIC</desc><rect width="56.25" height="22.5" x="0" y="305.527" class="st8"/><text x="19.61" y="320.38" class="st9">NIC</text></g><g id="shape41-176" transform="translate(723.896,-205)"><title>Dynamic connector.41</title><path d="M-8.5 334.71 L-8.5 335.07 L-9.5 431.24" class="st13"/></g><g id="shape42-183" transform="translate(382.75,-317.5)"><title>Dynamic connector.42</title><path d="M-9 328.03 L-9 589.03" class="st18"/></g><g id="shape43-186" transform="translate(161.65,-0.25)"><title>Sheet.43</title><desc>(1) Slicing</desc><rect width="68.1" height="22.5" x="0" y="305.527" class="st8"/><text x="10.5" y="320.38" class="st9">(1) Slicing</text></g><g id="shape44-189" transform="translate(553.75,-0.25)"><title>Sheet.44</title><desc>(2) Aggregation</desc><rect width="88.05" height="22.5" x="0" y="305.527" class="st8"/><text x="5.7" y="320.38" class="st9">(2) Aggregation</text></g></g></svg>