<svg xmlns="http://www.w3.org/2000/svg" xmlns:svg="http://www.w3.org/2000/svg" xmlns:xlink="http://www.w3.org/1999/xlink" id="svg2" width="625.866" height="392.667" class="st16" color-interpolation-filters="sRGB" version="1.1" viewBox="0 0 469.4 294.5" xml:space="preserve"><metadata id="metadata220"/><style id="style4" type="text/css">.st1{visibility:visible}.st2{fill:#5b9bd5;fill-opacity:.22;filter:url(#filter_2);stroke:#5b9bd5;stroke-opacity:.22}.st3{fill:#fff;stroke:#c7c8c8;stroke-width:.25}.st4{fill:#000;font-family:Calibri;font-size:.833336em}.st5{fill:#70ad47;stroke:#c7c8c8;stroke-width:.25}.st6{font-size:1em}.st7,.st8{fill:#d8d8d8;stroke:#c7c8c8;stroke-width:.25}.st8{fill:none;stroke:none}.st9{fill:#000;font-family:Calibri;font-size:1.00001em;font-style:italic}.st10{fill:none;filter:url(#filter_2);stroke:#5b9bd5;stroke-opacity:.22}.st11{fill:none;stroke:#c7c8c8;stroke-width:.25}.st12{fill:#000;font-family:Calibri;font-size:1.00001em}.st13{marker-end:url(#mrkr4-90);marker-start:url(#mrkr4-88);stroke:#000;stroke-linecap:round;stroke-linejoin:round;stroke-width:1}.st14{fill:#000;fill-opacity:1;stroke:#000;stroke-opacity:1;stroke-width:.28409090909091}.st15{stroke:#5b9bd5;stroke-linecap:round;stroke-linejoin:round;stroke-width:1}.st16{fill:none;fill-rule:evenodd;font-size:12px;overflow:visible;stroke-linecap:square;stroke-miterlimit:3}</style><defs id="Markers"><g id="lend4"><path id="path8" d="M 2 1 L 0 0 L 2 -1 L 2 1" style="stroke:none"/></g><marker id="mrkr4-88" class="st14" markerUnits="strokeWidth" orient="auto" overflow="visible" refX="6.68"><use id="use11" transform="scale(3.52)" xlink:href="#lend4"/></marker><marker id="mrkr4-90" class="st14" markerUnits="strokeWidth" orient="auto" overflow="visible" refX="-7.04"><use id="use14" transform="scale(-3.52,-3.52)" xlink:href="#lend4"/></marker></defs><defs id="Filters"><filter id="filter_2"><feGaussianBlur id="feGaussianBlur18" stdDeviation="2"/></filter></defs><g id="g20"><title id="title22">Page-1</title><g id="shape23-1" transform="translate(20.9044,-72.7228)"><title id="title25">Rectangle.23</title><g id="shadow23-2" class="st1" transform="matrix(1,0,0,1,0.345598,1.97279)"><rect id="rect28" width="216.6" height="184.5" x="0" y="110" class="st2"/></g><rect id="rect30" width="216.6" height="184.5" x="0" y="110" class="st3"/></g><g id="shape49-6" transform="translate(44.0044,-198.542)"><title id="title33">Rectangle.49</title><desc id="desc35">ETHDEV</desc><g id="shadow49-7" class="st1" transform="matrix(1,0,0,1,0.345598,1.97279)"><rect id="rect38" width="166.5" height="31.681" x="0" y="262.819" class="st2"/></g><rect id="rect40" width="166.5" height="31.681" x="0" y="262.819" class="st3"/><text style="font-size:10.00003242px;font-family:Calibri;fill:#000" id="text42" x="66.9" y="281.66" class="st4">ethdev</text></g><g id="shape50-12" transform="translate(44.0044,-158.042)"><title id="title45">Rectangle.50</title><desc id="desc47">virtio PMD</desc><g id="shadow50-13" class="st1" transform="matrix(1,0,0,1,0.345598,1.97279)"><rect id="rect50" width="166.5" height="31.681" x="0" y="262.819" class="st2"/></g><rect id="rect52" width="166.5" height="31.681" x="0" y="262.819" class="st3"/><text id="text54" x="61.58" y="281.66" class="st4">virtio PMD</text></g><g id="shape52-18" transform="translate(128.904,-86.2228)"><title id="title57">Rectangle.52</title><desc id="desc59">virtio-user (virtual device)</desc><g id="shadow52-19" class="st1" transform="matrix(1,0,0,1,0.345598,1.97279)"><rect id="rect62" width="81.6" height="63" x="0" y="231.5" class="st2"/></g><rect id="rect64" width="81.6" height="63" x="0" y="231.5" class="st5"/><text id="text66" x="19.85" y="248" class="st4">virtio-user<tspan id="tspan68" x="10.52" class="st6" dy="1.2em">(</tspan>virtual device)</text></g><g id="shape53-25" transform="translate(129.44522,-83.349651)"><title id="title71">Rectangle.53</title><desc id="desc73">vhost-user adapter</desc><g style="visibility:visible" id="shadow53-26" class="st1" transform="translate(0.345598,1.97279)"><rect style="fill:#5b9bd5;fill-opacity:.22000002;stroke:#5b9bd5;stroke-opacity:.22000002;filter:url(#filter_2)" id="rect76" width="68.1" height="23.58" x="0" y="270.92" class="st2"/></g><rect style="fill:#fff;stroke:#c7c8c8;stroke-width:.25" id="rect78" width="68.1" height="23.58" x="6.993" y="265.792" class="st3"/></g><g id="shape56-32" transform="translate(366.563,-5.2228)"><title id="title85">Rectangle.38</title><g id="shadow56-33" class="st1" transform="matrix(1,0,0,1,0.345598,1.97279)"><rect id="rect88" width="77.582" height="22.5" x="0" y="272" class="st2" rx="11.25" ry="11.25"/></g><rect id="rect90" width="77.582" height="22.5" x="0" y="272" class="st7" rx="11.25" ry="11.25"/></g><g id="shape57-37" transform="translate(380.904,-5.2228)"><title id="title93">Sheet.57</title><desc id="desc95">NIC</desc><rect id="rect97" width="56.25" height="22.5" x="0" y="272" class="st8"/><text id="text99" x="19.61" y="286.85" class="st9">NIC</text></g><g id="shape59-40" transform="translate(43.4044,-86.2228)"><title id="title102">Rectangle.59</title><desc id="desc104">virtio (PCI device)</desc><g id="shadow59-41" class="st1" transform="matrix(1,0,0,1,0.345598,1.97279)"><rect id="rect107" width="77.582" height="63" x="0" y="231.5" class="st2"/></g><rect id="rect109" width="77.582" height="63" x="0" y="231.5" class="st3"/><text id="text111" x="28.18" y="260" class="st4">virtio<tspan id="tspan113" x="15" class="st6" dy="1.2em">(</tspan>PCI device)</text></g><g id="shape60-47" transform="translate(344.904,-77.2228)"><title id="title116">Rectangle.60</title><desc id="desc118">vSwitch or vRouter</desc><g id="shadow60-48" class="st1" transform="matrix(1,0,0,1,0.345598,1.97279)"><rect id="rect121" width="120.9" height="216" x="0" y="78.5" class="st2"/></g><rect id="rect123" width="120.9" height="216" x="0" y="78.5" class="st3"/><text id="text125" x="44.76" y="177.5" class="st4">vSwitch<tspan id="tspan127" x="56.07" class="st6" dy="1.2em">or</tspan><tspan id="tspan129" x="44.31" class="st6" dy="1.2em">vRouter</tspan></text></g><g id="shape61-55" transform="translate(20.9044,-234.723)"><title id="title132">Sheet.61</title><desc id="desc134">DPDK</desc><rect id="rect136" width="47.25" height="22.5" x="0" y="272" class="st8"/><text id="text138" x="4" y="286.85" class="st9">DPDK</text></g><g id="shape62-58" transform="translate(2.9044,-52.4728)"><title id="title141">Rectangle.62</title><g id="shadow62-59" class="st1" transform="matrix(1,0,0,1,0.345598,1.97279)"><rect id="rect144" width="252" height="240.75" x="0" y="53.75" class="st10"/></g><rect id="rect146" width="252" height="240.75" x="0" y="53.75" class="st11"/></g><g id="shape63-63" transform="translate(2.9044,-261.723)"><title id="title149">Sheet.63</title><desc id="desc151">Contanier/App</desc><rect id="rect153" width="90" height="22.5" x="0" y="272" class="st8"/><text style="font-style:italic;font-size:12.00012016px;font-family:Calibri;fill:#000" id="text155" x="4" y="286.85" class="st9">Container/App</text></g><g id="shape64-66" transform="translate(535.904,70.4861) rotate(90)"><title id="title158">Rectangle.64</title><g id="shadow64-67" class="st1" transform="matrix(1,0,0,1,1.97279,-0.345598)"><rect id="rect161" width="77.582" height="27" x="0" y="267.5" class="st2" rx="13.5" ry="13.5"/></g><rect id="rect163" width="77.582" height="27" x="0" y="267.5" class="st7" rx="13.5" ry="13.5"/></g><g id="shape65-71" transform="translate(625.904,70.4861) rotate(90)"><title id="title166">Rectangle.65</title><g id="shadow65-72" class="st1" transform="matrix(1,0,0,1,1.97279,-0.345598)"><rect id="rect169" width="77.582" height="27" x="0" y="267.5" class="st2" rx="13.5" ry="13.5"/></g><rect id="rect171" width="77.582" height="27" x="0" y="267.5" class="st7" rx="13.5" ry="13.5"/></g><g id="shape66-76" transform="translate(538.154,81.1522) rotate(90)"><title id="title174">Sheet.66</title><desc id="desc176">virtio</desc><rect id="rect178" width="56.25" height="22.5" x="0" y="272" class="st8"/><text id="text180" x="15.4" y="286.85" class="st12">virtio</text></g><g id="shape67-79" transform="translate(628.154,81.1522) rotate(90)"><title id="title183">Sheet.67</title><desc id="desc185">vhost</desc><rect id="rect187" width="56.25" height="22.5" x="0" y="272" class="st8"/><text id="text189" x="14.74" y="286.85" class="st12">vhost</text></g><g id="shape69-82" transform="translate(268.404,-176.223)"><title id="title192">Dynamic connector</title><path id="path194" d="M6.68 285.5 L7.04 285.5 L55.96 285.5" class="st13"/></g><g id="shape70-91" transform="translate(396.354,-77.2228)"><title id="title197">Dynamic connector.70</title><path id="path199" d="M9 301.18 L9 301.54 L9 336.96" class="st13"/></g><g id="shape72-104" transform="translate(205.004,-92.4329)"><title id="title214">Dynamic connector.72</title><path id="path216" d="M0 285.5 L101.11 285.5" class="st15"/></g><g id="shape71-98" transform="matrix(1.1344321,0,0,0.98698119,292.92681,-86.402944)"><title id="title202">Rectangle.71</title><desc id="desc204">unix socket file</desc><g style="visibility:visible" id="shadow71-99" class="st1" transform="translate(0.345598,1.97279)"><rect style="fill:#5b9bd5;fill-opacity:.22000002;stroke:#5b9bd5;stroke-opacity:.22000002;filter:url(#filter_2)" id="rect207" width="77.582" height="23.58" x="0" y="270.92" class="st2"/></g><rect style="fill:#fff;stroke:#000;stroke-width:.25025026;stroke-opacity:1;stroke-miterlimit:3;stroke-dasharray:none" id="rect209" width="77.582" height="23.58" x="-.411" y="270.92" class="st3"/><text style="font-size:10.19067955px;font-family:Calibri;fill:#000" id="text211" x="7.138" y="247.297" class="st4" transform="scale(0.86136004,1.1609547)">unix socket file</text></g><text id="text66-3" x="143.494" y="192.78" class="st4" style="font-size:12px;line-height:125%;font-family:Calibri;fill:#000"><tspan id="tspan4385" style="font-style:normal;font-variant:normal;font-weight:400;font-stretch:normal;font-size:10.00000572px;line-height:125%;font-family:Calibri;-inkscape-font-specification:'Calibri, Normal';text-align:start;writing-mode:lr-tb;text-anchor:start">vhost-user</tspan></text><text id="text66-3-9" x="149.818" y="201.73" class="st4" style="font-size:12px;line-height:125%;font-family:Calibri;fill:#000"><tspan id="tspan4385-1" style="font-style:normal;font-variant:normal;font-weight:400;font-stretch:normal;font-size:10.00000572px;line-height:125%;font-family:Calibri;-inkscape-font-specification:'Calibri, Normal';text-align:start;writing-mode:lr-tb;text-anchor:start">adapter</tspan></text></g></svg>