<svg xmlns="http://www.w3.org/2000/svg" xmlns:ev="http://www.w3.org/2001/xml-events" xmlns:xlink="http://www.w3.org/1999/xlink" width="554.667" height="373.297" class="st13" color-interpolation-filters="sRGB" viewBox="0 0 416 279.973" xml:space="preserve"><style type="text/css">.st1{visibility:visible}.st2{fill:#5b9bd5;fill-opacity:.22;filter:url(#filter_2);stroke:#5b9bd5;stroke-opacity:.22}.st3{fill:#fff;stroke:#c7c8c8;stroke-width:.25}.st4{stroke:#000;stroke-dasharray:7,5;stroke-linecap:round;stroke-linejoin:round;stroke-width:1}.st5{fill:#000;font-family:Calibri;font-size:.833336em}.st6{fill:none;stroke:none;stroke-width:.25}.st7{fill:#000;font-family:Calibri;font-size:1.00001em;font-style:italic}.st8{fill:#70ad47;stroke:#c7c8c8;stroke-width:.25}.st10,.st9{stroke-linecap:round;stroke-linejoin:round}.st9{stroke:#5b9bd5;stroke-width:1.75}.st10{marker-end:url(#mrkr4-68);marker-start:url(#mrkr4-66);stroke:#000;stroke-width:1}.st11{fill:#000;fill-opacity:1;stroke:#000;stroke-opacity:1;stroke-width:.28409090909091}.st12{fill:#d8d8d8;stroke:#c7c8c8;stroke-width:.25}.st13{fill:none;fill-rule:evenodd;font-size:12px;overflow:visible;stroke-linecap:square;stroke-miterlimit:3}</style><defs id="Markers"><g id="lend4"><path d="M 2 1 L 0 0 L 2 -1 L 2 1" style="stroke:none"/></g><marker id="mrkr4-66" class="st11" markerUnits="strokeWidth" orient="auto" overflow="visible" refX="6.68"><use transform="scale(3.52)" xlink:href="#lend4"/></marker><marker id="mrkr4-68" class="st11" markerUnits="strokeWidth" orient="auto" overflow="visible" refX="-7.04"><use transform="scale(-3.52,-3.52)" xlink:href="#lend4"/></marker></defs><defs id="Filters"><filter id="filter_2"><feGaussianBlur stdDeviation="2"/></filter></defs><g><title>Page-1</title><g id="shape23-1" transform="translate(195.804,-74.9728)"><title>Rectangle.23</title><g id="shadow23-2" class="st1" transform="matrix(1,0,0,1,0.345598,1.97279)"><rect width="216.6" height="166.5" x="0" y="113.473" class="st2"/></g><rect width="216.6" height="166.5" x="0" y="113.473" class="st3"/></g><g id="shape42-6" transform="translate(146.904,-277.473)"><title>Dynamic connector.42</title><path d="M-9 279.97 L-9 540.97" class="st4"/></g><g id="shape45-9" transform="translate(2.9044,-142.292)"><title>Rectangle.45</title><desc>tap</desc><g id="shadow45-10" class="st1" transform="matrix(1,0,0,1,0.345598,1.97279)"><rect width="68.1" height="31.681" x="0" y="248.292" class="st2"/></g><rect width="68.1" height="31.681" x="0" y="248.292" class="st3"/><text x="27.35" y="267.13" class="st5">tap</text></g><g id="shape46-15" transform="translate(2.9044,-43.2921)"><title>Rectangle.46</title><desc>vhost ko</desc><g id="shadow46-16" class="st1" transform="matrix(1,0,0,1,0.345598,1.97279)"><rect width="68.1" height="31.681" x="0" y="248.292" class="st2"/></g><rect width="68.1" height="31.681" x="0" y="248.292" class="st3"/><text x="16.86" y="267.13" class="st5">vhost ko</text></g><g id="shape47-21" transform="translate(18.9544,-257.223)"><title>Sheet.47</title><desc>Kernel space</desc><rect width="88.05" height="22.5" x="0" y="257.473" class="st6"/><text x="13.44" y="272.32" class="st7">Kernel space</text></g><g id="shape48-24" transform="translate(148.854,-257.223)"><title>Sheet.48</title><desc>User space</desc><rect width="88.05" height="22.5" x="0" y="257.473" class="st6"/><text x="17.7" y="272.32" class="st7">User space</text></g><g id="shape49-27" transform="translate(218.904,-182.792)"><title>Rectangle.49</title><desc>ETHDEV</desc><g id="shadow49-28" class="st1" transform="matrix(1,0,0,1,0.345598,1.97279)"><rect width="166.5" height="31.681" x="0" y="248.292" class="st2"/></g><rect width="166.5" height="31.681" x="0" y="248.292" class="st3"/><text x="66.9" y="267.13" class="st5">ETHDEV</text></g><g id="shape50-33" transform="translate(218.904,-142.292)"><title>Rectangle.50</title><desc>virtio PMD</desc><g id="shadow50-34" class="st1" transform="matrix(1,0,0,1,0.345598,1.97279)"><rect width="77.582" height="31.681" x="0" y="248.292" class="st2"/></g><rect width="77.582" height="31.681" x="0" y="248.292" class="st3"/><text x="17.12" y="267.13" class="st5">virtio PMD</text></g><g id="shape51-39" transform="translate(308.904,-142.292)"><title>Rectangle.51</title><desc>other PMDs</desc><g id="shadow51-40" class="st1" transform="matrix(1,0,0,1,0.345598,1.97279)"><rect width="77.582" height="31.681" x="0" y="248.292" class="st2"/></g><rect width="77.582" height="31.681" x="0" y="248.292" class="st3"/><text x="14.6" y="267.13" class="st5">other PMDs</text></g><g id="shape52-45" transform="translate(218.904,-86.3131)"><title>Rectangle.52</title><desc>virtio-user</desc><g id="shadow52-46" class="st1" transform="matrix(1,0,0,1,0.345598,1.97279)"><rect width="77.582" height="47.16" x="0" y="232.813" class="st2"/></g><rect width="77.582" height="47.16" x="0" y="232.813" class="st8"/><text x="17.84" y="247.39" class="st5">virtio-user</text></g><g id="shape53-51" transform="translate(223.404,-90.1829)"><title>Rectangle.53</title><desc>vhost adapter</desc><g id="shadow53-52" class="st1" transform="matrix(1,0,0,1,0.345598,1.97279)"><rect width="68.1" height="23.58" x="0" y="256.393" class="st2"/></g><rect width="68.1" height="23.58" x="0" y="256.393" class="st3"/><text x="5.82" y="271.18" class="st5">vhost adapter</text></g><g id="shape54-57" transform="translate(71.0044,-59.1325)"><title>Dynamic connector</title><path d="M0 279.97 L63.9 279.97 A3 3 0 1 1 69.9 279.97 L186.69 279.97 L186.69 252.79" class="st9"/></g><g id="shape55-60" transform="translate(71.0044,-149.132)"><title>Dynamic connector.55</title><path d="M6.68 270.97 L7.04 270.97 L63.9 270.97 A3 3 0 0 1 69.9 270.97 L140.86 270.97" class="st10"/></g><g id="shape56-69" transform="translate(308.904,-5.2228)"><title>Rectangle.38</title><g id="shadow56-70" class="st1" transform="matrix(1,0,0,1,0.345598,1.97279)"><rect width="77.582" height="22.5" x="0" y="257.473" class="st2" rx="11.25" ry="11.25"/></g><rect width="77.582" height="22.5" x="0" y="257.473" class="st12" rx="11.25" ry="11.25"/></g><g id="shape57-74" transform="translate(318.204,-5.2228)"><title>Sheet.57</title><desc>NIC</desc><rect width="56.25" height="22.5" x="0" y="257.473" class="st6"/><text x="19.61" y="272.32" class="st7">NIC</text></g><g id="shape58-77" transform="translate(356.696,-142.292)"><title>Dynamic connector.41</title><path d="M-9 286.65 L-9 287.01 L-9 387.5" class="st10"/></g></g></svg>